ISO-10303-21;
HEADER;
/* Generated by software containing ST-Developer
 * from STEP Tools, Inc. (www.steptools.com) 
 */
/* OPTION: using custom renumber hook */

FILE_DESCRIPTION(
/* description */ ('STEP AP242 Edition 2',
'CAx-IF Rec.Pracs.---Representation and Presentation of Product Manufa
cturing Information (PMI)---4.0---2014-10-13',
'CAx-IF Rec.Pracs.---3D Tessellated Geometry---0.4---2014-09-14','2;1',
'CAx-IF Rec.Pracs.---User Defined Attributes---1.5---2016-08-15'),
/* implementation_level */ '2;1');

FILE_NAME(
/* name */ 'Assembly 1 - Battery Mount',
/* time_stamp */ '2026-06-22T01:32:03Z',
/* author */ (''),
/* organization */ (''),
/* preprocessor_version */ 'ST-DEVELOPER v20',
/* originating_system */ 'ONSHAPE BY PTC INC, 1.216',
/* authorisation */ '  ');

FILE_SCHEMA (('AP242_MANAGED_MODEL_BASED_3D_ENGINEERING_MIM_LF { 1 0 10303 442 3 1 4 }'));
ENDSEC;

DATA;
#10=SHAPE_REPRESENTATION_RELATIONSHIP('','',#459,#11);
#11=ADVANCED_BREP_SHAPE_REPRESENTATION('',(#457),#751);
#12=CIRCLE('',#465,0.0015);
#13=CIRCLE('',#466,0.0015);
#14=CIRCLE('',#469,0.030095119912128);
#15=CIRCLE('',#470,0.030095119912128);
#16=CIRCLE('',#473,0.0015);
#17=CIRCLE('',#474,0.0015);
#18=CIRCLE('',#478,0.0017);
#19=CIRCLE('',#479,0.0017);
#20=CIRCLE('',#480,0.00170000000000004);
#21=CIRCLE('',#481,0.05);
#22=CIRCLE('',#482,0.05);
#23=CIRCLE('',#484,0.0017);
#24=CIRCLE('',#485,0.0017);
#25=CIRCLE('',#486,0.00170000000000004);
#26=CIRCLE('',#487,0.05);
#27=CIRCLE('',#488,0.05);
#28=CYLINDRICAL_SURFACE('',#464,0.0015);
#29=CYLINDRICAL_SURFACE('',#468,0.030095119912128);
#30=CYLINDRICAL_SURFACE('',#472,0.0015);
#31=CYLINDRICAL_SURFACE('',#495,0.05);
#32=CYLINDRICAL_SURFACE('',#496,0.05);
#33=CYLINDRICAL_SURFACE('',#497,0.00170000000000004);
#34=CYLINDRICAL_SURFACE('',#498,0.0017);
#35=CYLINDRICAL_SURFACE('',#499,0.0017);
#36=ORIENTED_EDGE('',*,*,#156,.F.);
#37=ORIENTED_EDGE('',*,*,#157,.F.);
#38=ORIENTED_EDGE('',*,*,#158,.T.);
#39=ORIENTED_EDGE('',*,*,#159,.T.);
#40=ORIENTED_EDGE('',*,*,#160,.T.);
#41=ORIENTED_EDGE('',*,*,#161,.T.);
#42=ORIENTED_EDGE('',*,*,#162,.F.);
#43=ORIENTED_EDGE('',*,*,#163,.F.);
#44=ORIENTED_EDGE('',*,*,#164,.T.);
#45=ORIENTED_EDGE('',*,*,#165,.T.);
#46=ORIENTED_EDGE('',*,*,#166,.F.);
#47=ORIENTED_EDGE('',*,*,#167,.F.);
#48=ORIENTED_EDGE('',*,*,#168,.F.);
#49=ORIENTED_EDGE('',*,*,#169,.F.);
#50=ORIENTED_EDGE('',*,*,#170,.T.);
#51=ORIENTED_EDGE('',*,*,#163,.T.);
#52=ORIENTED_EDGE('',*,*,#171,.F.);
#53=ORIENTED_EDGE('',*,*,#172,.F.);
#54=ORIENTED_EDGE('',*,*,#173,.T.);
#55=ORIENTED_EDGE('',*,*,#169,.T.);
#56=ORIENTED_EDGE('',*,*,#174,.T.);
#57=ORIENTED_EDGE('',*,*,#175,.F.);
#58=ORIENTED_EDGE('',*,*,#176,.F.);
#59=ORIENTED_EDGE('',*,*,#172,.T.);
#60=ORIENTED_EDGE('',*,*,#177,.T.);
#61=ORIENTED_EDGE('',*,*,#178,.F.);
#62=ORIENTED_EDGE('',*,*,#179,.F.);
#63=ORIENTED_EDGE('',*,*,#175,.T.);
#64=ORIENTED_EDGE('',*,*,#180,.T.);
#65=ORIENTED_EDGE('',*,*,#181,.F.);
#66=ORIENTED_EDGE('',*,*,#182,.F.);
#67=ORIENTED_EDGE('',*,*,#178,.T.);
#68=ORIENTED_EDGE('',*,*,#183,.F.);
#69=ORIENTED_EDGE('',*,*,#184,.T.);
#70=ORIENTED_EDGE('',*,*,#185,.T.);
#71=ORIENTED_EDGE('',*,*,#181,.T.);
#72=ORIENTED_EDGE('',*,*,#186,.T.);
#73=ORIENTED_EDGE('',*,*,#187,.T.);
#74=ORIENTED_EDGE('',*,*,#188,.F.);
#75=ORIENTED_EDGE('',*,*,#189,.T.);
#76=ORIENTED_EDGE('',*,*,#190,.F.);
#77=ORIENTED_EDGE('',*,*,#191,.F.);
#78=ORIENTED_EDGE('',*,*,#192,.F.);
#79=ORIENTED_EDGE('',*,*,#193,.F.);
#80=ORIENTED_EDGE('',*,*,#165,.F.);
#81=ORIENTED_EDGE('',*,*,#194,.T.);
#82=ORIENTED_EDGE('',*,*,#195,.T.);
#83=ORIENTED_EDGE('',*,*,#160,.F.);
#84=ORIENTED_EDGE('',*,*,#170,.F.);
#85=ORIENTED_EDGE('',*,*,#173,.F.);
#86=ORIENTED_EDGE('',*,*,#176,.T.);
#87=ORIENTED_EDGE('',*,*,#179,.T.);
#88=ORIENTED_EDGE('',*,*,#182,.T.);
#89=ORIENTED_EDGE('',*,*,#185,.F.);
#90=ORIENTED_EDGE('',*,*,#196,.T.);
#91=ORIENTED_EDGE('',*,*,#197,.T.);
#92=ORIENTED_EDGE('',*,*,#156,.T.);
#93=ORIENTED_EDGE('',*,*,#198,.T.);
#94=ORIENTED_EDGE('',*,*,#199,.T.);
#95=ORIENTED_EDGE('',*,*,#200,.T.);
#96=ORIENTED_EDGE('',*,*,#201,.T.);
#97=ORIENTED_EDGE('',*,*,#202,.T.);
#98=ORIENTED_EDGE('',*,*,#183,.T.);
#99=ORIENTED_EDGE('',*,*,#180,.F.);
#100=ORIENTED_EDGE('',*,*,#177,.F.);
#101=ORIENTED_EDGE('',*,*,#174,.F.);
#102=ORIENTED_EDGE('',*,*,#171,.T.);
#103=ORIENTED_EDGE('',*,*,#168,.T.);
#104=ORIENTED_EDGE('',*,*,#162,.T.);
#105=ORIENTED_EDGE('',*,*,#203,.T.);
#106=ORIENTED_EDGE('',*,*,#204,.T.);
#107=ORIENTED_EDGE('',*,*,#205,.T.);
#108=ORIENTED_EDGE('',*,*,#187,.F.);
#109=ORIENTED_EDGE('',*,*,#206,.F.);
#110=ORIENTED_EDGE('',*,*,#207,.F.);
#111=ORIENTED_EDGE('',*,*,#166,.T.);
#112=ORIENTED_EDGE('',*,*,#193,.T.);
#113=ORIENTED_EDGE('',*,*,#159,.F.);
#114=ORIENTED_EDGE('',*,*,#205,.F.);
#115=ORIENTED_EDGE('',*,*,#208,.F.);
#116=ORIENTED_EDGE('',*,*,#209,.T.);
#117=ORIENTED_EDGE('',*,*,#188,.T.);
#118=ORIENTED_EDGE('',*,*,#167,.T.);
#119=ORIENTED_EDGE('',*,*,#207,.T.);
#120=ORIENTED_EDGE('',*,*,#158,.F.);
#121=ORIENTED_EDGE('',*,*,#210,.F.);
#122=ORIENTED_EDGE('',*,*,#211,.T.);
#123=ORIENTED_EDGE('',*,*,#206,.T.);
#124=ORIENTED_EDGE('',*,*,#186,.F.);
#125=ORIENTED_EDGE('',*,*,#212,.F.);
#126=ORIENTED_EDGE('',*,*,#212,.T.);
#127=ORIENTED_EDGE('',*,*,#189,.F.);
#128=ORIENTED_EDGE('',*,*,#209,.F.);
#129=ORIENTED_EDGE('',*,*,#213,.T.);
#130=ORIENTED_EDGE('',*,*,#197,.F.);
#131=ORIENTED_EDGE('',*,*,#214,.T.);
#132=ORIENTED_EDGE('',*,*,#201,.F.);
#133=ORIENTED_EDGE('',*,*,#211,.F.);
#134=ORIENTED_EDGE('',*,*,#213,.F.);
#135=ORIENTED_EDGE('',*,*,#208,.T.);
#136=ORIENTED_EDGE('',*,*,#204,.F.);
#137=ORIENTED_EDGE('',*,*,#215,.T.);
#138=ORIENTED_EDGE('',*,*,#194,.F.);
#139=ORIENTED_EDGE('',*,*,#164,.F.);
#140=ORIENTED_EDGE('',*,*,#210,.T.);
#141=ORIENTED_EDGE('',*,*,#157,.T.);
#142=ORIENTED_EDGE('',*,*,#196,.F.);
#143=ORIENTED_EDGE('',*,*,#184,.F.);
#144=ORIENTED_EDGE('',*,*,#202,.F.);
#145=ORIENTED_EDGE('',*,*,#214,.F.);
#146=ORIENTED_EDGE('',*,*,#195,.F.);
#147=ORIENTED_EDGE('',*,*,#215,.F.);
#148=ORIENTED_EDGE('',*,*,#203,.F.);
#149=ORIENTED_EDGE('',*,*,#161,.F.);
#150=ORIENTED_EDGE('',*,*,#192,.T.);
#151=ORIENTED_EDGE('',*,*,#200,.F.);
#152=ORIENTED_EDGE('',*,*,#191,.T.);
#153=ORIENTED_EDGE('',*,*,#199,.F.);
#154=ORIENTED_EDGE('',*,*,#190,.T.);
#155=ORIENTED_EDGE('',*,*,#198,.F.);
#156=EDGE_CURVE('',#216,#217,#258,.T.);
#157=EDGE_CURVE('',#218,#216,#259,.T.);
#158=EDGE_CURVE('',#218,#219,#260,.T.);
#159=EDGE_CURVE('',#219,#217,#261,.T.);
#160=EDGE_CURVE('',#220,#221,#262,.T.);
#161=EDGE_CURVE('',#221,#222,#263,.T.);
#162=EDGE_CURVE('',#223,#222,#264,.T.);
#163=EDGE_CURVE('',#220,#223,#265,.T.);
#164=EDGE_CURVE('',#224,#225,#266,.T.);
#165=EDGE_CURVE('',#225,#226,#267,.T.);
#166=EDGE_CURVE('',#227,#226,#268,.T.);
#167=EDGE_CURVE('',#224,#227,#269,.T.);
#168=EDGE_CURVE('',#228,#223,#12,.F.);
#169=EDGE_CURVE('',#229,#228,#270,.T.);
#170=EDGE_CURVE('',#229,#220,#13,.F.);
#171=EDGE_CURVE('',#230,#228,#271,.T.);
#172=EDGE_CURVE('',#231,#230,#272,.T.);
#173=EDGE_CURVE('',#231,#229,#273,.T.);
#174=EDGE_CURVE('',#230,#232,#14,.T.);
#175=EDGE_CURVE('',#233,#232,#274,.T.);
#176=EDGE_CURVE('',#231,#233,#15,.T.);
#177=EDGE_CURVE('',#232,#234,#275,.T.);
#178=EDGE_CURVE('',#235,#234,#276,.T.);
#179=EDGE_CURVE('',#233,#235,#277,.T.);
#180=EDGE_CURVE('',#234,#236,#16,.F.);
#181=EDGE_CURVE('',#237,#236,#278,.T.);
#182=EDGE_CURVE('',#235,#237,#17,.F.);
#183=EDGE_CURVE('',#238,#236,#279,.T.);
#184=EDGE_CURVE('',#238,#239,#280,.F.);
#185=EDGE_CURVE('',#239,#237,#281,.T.);
#186=EDGE_CURVE('',#240,#241,#282,.T.);
#187=EDGE_CURVE('',#241,#242,#283,.T.);
#188=EDGE_CURVE('',#243,#242,#284,.T.);
#189=EDGE_CURVE('',#243,#240,#285,.T.);
#190=EDGE_CURVE('',#244,#244,#18,.T.);
#191=EDGE_CURVE('',#245,#245,#19,.T.);
#192=EDGE_CURVE('',#246,#246,#20,.T.);
#193=EDGE_CURVE('',#226,#217,#286,.T.);
#194=EDGE_CURVE('',#225,#247,#287,.T.);
#195=EDGE_CURVE('',#247,#221,#21,.F.);
#196=EDGE_CURVE('',#239,#248,#22,.F.);
#197=EDGE_CURVE('',#248,#216,#288,.T.);
#198=EDGE_CURVE('',#249,#249,#23,.T.);
#199=EDGE_CURVE('',#250,#250,#24,.T.);
#200=EDGE_CURVE('',#251,#251,#25,.T.);
#201=EDGE_CURVE('',#252,#253,#289,.T.);
#202=EDGE_CURVE('',#253,#238,#26,.T.);
#203=EDGE_CURVE('',#222,#254,#27,.T.);
#204=EDGE_CURVE('',#254,#255,#290,.T.);
#205=EDGE_CURVE('',#255,#242,#291,.T.);
#206=EDGE_CURVE('',#252,#241,#292,.T.);
#207=EDGE_CURVE('',#227,#219,#293,.T.);
#208=EDGE_CURVE('',#256,#255,#294,.T.);
#209=EDGE_CURVE('',#256,#243,#295,.T.);
#210=EDGE_CURVE('',#224,#218,#296,.T.);
#211=EDGE_CURVE('',#257,#252,#297,.T.);
#212=EDGE_CURVE('',#257,#240,#298,.T.);
#213=EDGE_CURVE('',#256,#257,#299,.T.);
#214=EDGE_CURVE('',#248,#253,#300,.T.);
#215=EDGE_CURVE('',#254,#247,#301,.F.);
#216=VERTEX_POINT('',#627);
#217=VERTEX_POINT('',#628);
#218=VERTEX_POINT('',#630);
#219=VERTEX_POINT('',#632);
#220=VERTEX_POINT('',#636);
#221=VERTEX_POINT('',#637);
#222=VERTEX_POINT('',#639);
#223=VERTEX_POINT('',#641);
#224=VERTEX_POINT('',#645);
#225=VERTEX_POINT('',#646);
#226=VERTEX_POINT('',#648);
#227=VERTEX_POINT('',#650);
#228=VERTEX_POINT('',#654);
#229=VERTEX_POINT('',#656);
#230=VERTEX_POINT('',#660);
#231=VERTEX_POINT('',#662);
#232=VERTEX_POINT('',#666);
#233=VERTEX_POINT('',#668);
#234=VERTEX_POINT('',#672);
#235=VERTEX_POINT('',#674);
#236=VERTEX_POINT('',#678);
#237=VERTEX_POINT('',#680);
#238=VERTEX_POINT('',#684);
#239=VERTEX_POINT('',#686);
#240=VERTEX_POINT('',#690);
#241=VERTEX_POINT('',#691);
#242=VERTEX_POINT('',#693);
#243=VERTEX_POINT('',#695);
#244=VERTEX_POINT('',#699);
#245=VERTEX_POINT('',#701);
#246=VERTEX_POINT('',#703);
#247=VERTEX_POINT('',#706);
#248=VERTEX_POINT('',#709);
#249=VERTEX_POINT('',#713);
#250=VERTEX_POINT('',#715);
#251=VERTEX_POINT('',#717);
#252=VERTEX_POINT('',#719);
#253=VERTEX_POINT('',#720);
#254=VERTEX_POINT('',#723);
#255=VERTEX_POINT('',#725);
#256=VERTEX_POINT('',#732);
#257=VERTEX_POINT('',#738);
#258=LINE('',#626,#302);
#259=LINE('',#629,#303);
#260=LINE('',#631,#304);
#261=LINE('',#633,#305);
#262=LINE('',#635,#306);
#263=LINE('',#638,#307);
#264=LINE('',#640,#308);
#265=LINE('',#642,#309);
#266=LINE('',#644,#310);
#267=LINE('',#647,#311);
#268=LINE('',#649,#312);
#269=LINE('',#651,#313);
#270=LINE('',#655,#314);
#271=LINE('',#659,#315);
#272=LINE('',#661,#316);
#273=LINE('',#663,#317);
#274=LINE('',#667,#318);
#275=LINE('',#671,#319);
#276=LINE('',#673,#320);
#277=LINE('',#675,#321);
#278=LINE('',#679,#322);
#279=LINE('',#683,#323);
#280=LINE('',#685,#324);
#281=LINE('',#687,#325);
#282=LINE('',#689,#326);
#283=LINE('',#692,#327);
#284=LINE('',#694,#328);
#285=LINE('',#696,#329);
#286=LINE('',#704,#330);
#287=LINE('',#705,#331);
#288=LINE('',#710,#332);
#289=LINE('',#718,#333);
#290=LINE('',#724,#334);
#291=LINE('',#726,#335);
#292=LINE('',#727,#336);
#293=LINE('',#729,#337);
#294=LINE('',#731,#338);
#295=LINE('',#733,#339);
#296=LINE('',#735,#340);
#297=LINE('',#737,#341);
#298=LINE('',#739,#342);
#299=LINE('',#741,#343);
#300=LINE('',#743,#344);
#301=LINE('',#744,#345);
#302=VECTOR('',#504,1.);
#303=VECTOR('',#505,1.);
#304=VECTOR('',#506,1.);
#305=VECTOR('',#507,1.);
#306=VECTOR('',#510,1.);
#307=VECTOR('',#511,1.);
#308=VECTOR('',#512,1.);
#309=VECTOR('',#513,1.);
#310=VECTOR('',#516,1.);
#311=VECTOR('',#517,1.);
#312=VECTOR('',#518,1.);
#313=VECTOR('',#519,1.);
#314=VECTOR('',#524,1.);
#315=VECTOR('',#529,1.);
#316=VECTOR('',#530,1.);
#317=VECTOR('',#531,1.);
#318=VECTOR('',#536,1.);
#319=VECTOR('',#541,1.);
#320=VECTOR('',#542,1.);
#321=VECTOR('',#543,1.);
#322=VECTOR('',#548,1.);
#323=VECTOR('',#553,1.);
#324=VECTOR('',#554,1.);
#325=VECTOR('',#555,1.);
#326=VECTOR('',#558,1.);
#327=VECTOR('',#559,1.);
#328=VECTOR('',#560,1.);
#329=VECTOR('',#561,1.);
#330=VECTOR('',#570,1.);
#331=VECTOR('',#571,1.);
#332=VECTOR('',#576,1.);
#333=VECTOR('',#585,1.);
#334=VECTOR('',#590,1.);
#335=VECTOR('',#591,1.);
#336=VECTOR('',#592,1.);
#337=VECTOR('',#595,1.);
#338=VECTOR('',#598,1.);
#339=VECTOR('',#599,1.);
#340=VECTOR('',#602,1.);
#341=VECTOR('',#605,1.);
#342=VECTOR('',#606,1.);
#343=VECTOR('',#609,1.);
#344=VECTOR('',#612,1.);
#345=VECTOR('',#613,1.);
#346=EDGE_LOOP('',(#36,#37,#38,#39));
#347=EDGE_LOOP('',(#40,#41,#42,#43));
#348=EDGE_LOOP('',(#44,#45,#46,#47));
#349=EDGE_LOOP('',(#48,#49,#50,#51));
#350=EDGE_LOOP('',(#52,#53,#54,#55));
#351=EDGE_LOOP('',(#56,#57,#58,#59));
#352=EDGE_LOOP('',(#60,#61,#62,#63));
#353=EDGE_LOOP('',(#64,#65,#66,#67));
#354=EDGE_LOOP('',(#68,#69,#70,#71));
#355=EDGE_LOOP('',(#72,#73,#74,#75));
#356=EDGE_LOOP('',(#76));
#357=EDGE_LOOP('',(#77));
#358=EDGE_LOOP('',(#78));
#359=EDGE_LOOP('',(#79,#80,#81,#82,#83,#84,#85,#86,#87,#88,#89,#90,#91,
#92));
#360=EDGE_LOOP('',(#93));
#361=EDGE_LOOP('',(#94));
#362=EDGE_LOOP('',(#95));
#363=EDGE_LOOP('',(#96,#97,#98,#99,#100,#101,#102,#103,#104,#105,#106,#107,
#108,#109));
#364=EDGE_LOOP('',(#110,#111,#112,#113));
#365=EDGE_LOOP('',(#114,#115,#116,#117));
#366=EDGE_LOOP('',(#118,#119,#120,#121));
#367=EDGE_LOOP('',(#122,#123,#124,#125));
#368=EDGE_LOOP('',(#126,#127,#128,#129));
#369=EDGE_LOOP('',(#130,#131,#132,#133,#134,#135,#136,#137,#138,#139,#140,
#141));
#370=EDGE_LOOP('',(#142,#143,#144,#145));
#371=EDGE_LOOP('',(#146,#147,#148,#149));
#372=EDGE_LOOP('',(#150));
#373=EDGE_LOOP('',(#151));
#374=EDGE_LOOP('',(#152));
#375=EDGE_LOOP('',(#153));
#376=EDGE_LOOP('',(#154));
#377=EDGE_LOOP('',(#155));
#378=FACE_BOUND('',#346,.T.);
#379=FACE_BOUND('',#347,.T.);
#380=FACE_BOUND('',#348,.T.);
#381=FACE_BOUND('',#349,.T.);
#382=FACE_BOUND('',#350,.T.);
#383=FACE_BOUND('',#351,.T.);
#384=FACE_BOUND('',#352,.T.);
#385=FACE_BOUND('',#353,.T.);
#386=FACE_BOUND('',#354,.T.);
#387=FACE_BOUND('',#355,.T.);
#388=FACE_BOUND('',#356,.T.);
#389=FACE_BOUND('',#357,.T.);
#390=FACE_BOUND('',#358,.T.);
#391=FACE_BOUND('',#359,.T.);
#392=FACE_BOUND('',#360,.T.);
#393=FACE_BOUND('',#361,.T.);
#394=FACE_BOUND('',#362,.T.);
#395=FACE_BOUND('',#363,.T.);
#396=FACE_BOUND('',#364,.T.);
#397=FACE_BOUND('',#365,.T.);
#398=FACE_BOUND('',#366,.T.);
#399=FACE_BOUND('',#367,.T.);
#400=FACE_BOUND('',#368,.T.);
#401=FACE_BOUND('',#369,.T.);
#402=FACE_BOUND('',#370,.T.);
#403=FACE_BOUND('',#371,.T.);
#404=FACE_BOUND('',#372,.T.);
#405=FACE_BOUND('',#373,.T.);
#406=FACE_BOUND('',#374,.T.);
#407=FACE_BOUND('',#375,.T.);
#408=FACE_BOUND('',#376,.T.);
#409=FACE_BOUND('',#377,.T.);
#410=PLANE('',#461);
#411=PLANE('',#462);
#412=PLANE('',#463);
#413=PLANE('',#467);
#414=PLANE('',#471);
#415=PLANE('',#475);
#416=PLANE('',#476);
#417=PLANE('',#477);
#418=PLANE('',#483);
#419=PLANE('',#489);
#420=PLANE('',#490);
#421=PLANE('',#491);
#422=PLANE('',#492);
#423=PLANE('',#493);
#424=PLANE('',#494);
#425=ADVANCED_FACE('',(#378),#410,.F.);
#426=ADVANCED_FACE('',(#379),#411,.T.);
#427=ADVANCED_FACE('',(#380),#412,.T.);
#428=ADVANCED_FACE('',(#381),#28,.F.);
#429=ADVANCED_FACE('',(#382),#413,.T.);
#430=ADVANCED_FACE('',(#383),#29,.T.);
#431=ADVANCED_FACE('',(#384),#414,.F.);
#432=ADVANCED_FACE('',(#385),#30,.F.);
#433=ADVANCED_FACE('',(#386),#415,.T.);
#434=ADVANCED_FACE('',(#387),#416,.F.);
#435=ADVANCED_FACE('',(#388,#389,#390,#391),#417,.T.);
#436=ADVANCED_FACE('',(#392,#393,#394,#395),#418,.F.);
#437=ADVANCED_FACE('',(#396),#419,.F.);
#438=ADVANCED_FACE('',(#397),#420,.T.);
#439=ADVANCED_FACE('',(#398),#421,.F.);
#440=ADVANCED_FACE('',(#399),#422,.T.);
#441=ADVANCED_FACE('',(#400),#423,.T.);
#442=ADVANCED_FACE('',(#401),#424,.T.);
#443=ADVANCED_FACE('',(#402),#31,.F.);
#444=ADVANCED_FACE('',(#403),#32,.F.);
#445=ADVANCED_FACE('',(#404,#405),#33,.F.);
#446=ADVANCED_FACE('',(#406,#407),#34,.F.);
#447=ADVANCED_FACE('',(#408,#409),#35,.F.);
#448=CLOSED_SHELL('',(#425,#426,#427,#428,#429,#430,#431,#432,#433,#434,
#435,#436,#437,#438,#439,#440,#441,#442,#443,#444,#445,#446,#447));
#449=STYLED_ITEM('',(#450),#457);
#450=PRESENTATION_STYLE_ASSIGNMENT((#451));
#451=SURFACE_STYLE_USAGE(.BOTH.,#452);
#452=SURFACE_SIDE_STYLE('',(#453));
#453=SURFACE_STYLE_FILL_AREA(#454);
#454=FILL_AREA_STYLE('',(#455));
#455=FILL_AREA_STYLE_COLOUR('',#456);
#456=COLOUR_RGB('',0.901960784313726,0.87843137254902,0.811764705882353);
#457=MANIFOLD_SOLID_BREP('Battery Mount',#448);
#458=SHAPE_DEFINITION_REPRESENTATION(#756,#459);
#459=SHAPE_REPRESENTATION('Battery Mount',(#460),#751);
#460=AXIS2_PLACEMENT_3D('',#624,#500,#501);
#461=AXIS2_PLACEMENT_3D('',#625,#502,#503);
#462=AXIS2_PLACEMENT_3D('',#634,#508,#509);
#463=AXIS2_PLACEMENT_3D('',#643,#514,#515);
#464=AXIS2_PLACEMENT_3D('',#652,#520,#521);
#465=AXIS2_PLACEMENT_3D('',#653,#522,#523);
#466=AXIS2_PLACEMENT_3D('',#657,#525,#526);
#467=AXIS2_PLACEMENT_3D('',#658,#527,#528);
#468=AXIS2_PLACEMENT_3D('',#664,#532,#533);
#469=AXIS2_PLACEMENT_3D('',#665,#534,#535);
#470=AXIS2_PLACEMENT_3D('',#669,#537,#538);
#471=AXIS2_PLACEMENT_3D('',#670,#539,#540);
#472=AXIS2_PLACEMENT_3D('',#676,#544,#545);
#473=AXIS2_PLACEMENT_3D('',#677,#546,#547);
#474=AXIS2_PLACEMENT_3D('',#681,#549,#550);
#475=AXIS2_PLACEMENT_3D('',#682,#551,#552);
#476=AXIS2_PLACEMENT_3D('',#688,#556,#557);
#477=AXIS2_PLACEMENT_3D('',#697,#562,#563);
#478=AXIS2_PLACEMENT_3D('',#698,#564,#565);
#479=AXIS2_PLACEMENT_3D('',#700,#566,#567);
#480=AXIS2_PLACEMENT_3D('',#702,#568,#569);
#481=AXIS2_PLACEMENT_3D('',#707,#572,#573);
#482=AXIS2_PLACEMENT_3D('',#708,#574,#575);
#483=AXIS2_PLACEMENT_3D('',#711,#577,#578);
#484=AXIS2_PLACEMENT_3D('',#712,#579,#580);
#485=AXIS2_PLACEMENT_3D('',#714,#581,#582);
#486=AXIS2_PLACEMENT_3D('',#716,#583,#584);
#487=AXIS2_PLACEMENT_3D('',#721,#586,#587);
#488=AXIS2_PLACEMENT_3D('',#722,#588,#589);
#489=AXIS2_PLACEMENT_3D('',#728,#593,#594);
#490=AXIS2_PLACEMENT_3D('',#730,#596,#597);
#491=AXIS2_PLACEMENT_3D('',#734,#600,#601);
#492=AXIS2_PLACEMENT_3D('',#736,#603,#604);
#493=AXIS2_PLACEMENT_3D('',#740,#607,#608);
#494=AXIS2_PLACEMENT_3D('',#742,#610,#611);
#495=AXIS2_PLACEMENT_3D('',#745,#614,#615);
#496=AXIS2_PLACEMENT_3D('',#746,#616,#617);
#497=AXIS2_PLACEMENT_3D('',#747,#618,#619);
#498=AXIS2_PLACEMENT_3D('',#748,#620,#621);
#499=AXIS2_PLACEMENT_3D('',#749,#622,#623);
#500=DIRECTION('',(0.,0.,1.));
#501=DIRECTION('',(1.,0.,0.));
#502=DIRECTION('',(1.,0.,0.));
#503=DIRECTION('',(0.,0.,-1.));
#504=DIRECTION('',(0.,0.,-1.));
#505=DIRECTION('',(0.,-1.,0.));
#506=DIRECTION('',(0.,0.,-1.));
#507=DIRECTION('',(0.,-1.,0.));
#508=DIRECTION('',(-0.326579068919097,0.,0.94516988512327));
#509=DIRECTION('',(0.94516988512327,0.,0.326579068919097));
#510=DIRECTION('',(-0.94516988512327,0.,-0.326579068919097));
#511=DIRECTION('',(0.,-1.,0.));
#512=DIRECTION('',(-0.94516988512327,0.,-0.326579068919097));
#513=DIRECTION('',(0.,-1.,0.));
#514=DIRECTION('',(1.,0.,0.));
#515=DIRECTION('',(0.,0.,-1.));
#516=DIRECTION('',(0.,-1.,0.));
#517=DIRECTION('',(0.,0.,-1.));
#518=DIRECTION('',(0.,-1.,0.));
#519=DIRECTION('',(0.,0.,-1.));
#520=DIRECTION('',(0.,-1.,0.));
#521=DIRECTION('',(0.,0.,-1.));
#522=DIRECTION('',(0.,-1.,0.));
#523=DIRECTION('',(0.,0.,1.));
#524=DIRECTION('',(0.,-1.,0.));
#525=DIRECTION('',(0.,-1.,0.));
#526=DIRECTION('',(0.,0.,1.));
#527=DIRECTION('',(-0.336128243031831,0.,0.941816226360713));
#528=DIRECTION('',(0.941816226360713,0.,0.336128243031831));
#529=DIRECTION('',(-0.941816226360713,0.,-0.336128243031831));
#530=DIRECTION('',(0.,-1.,0.));
#531=DIRECTION('',(-0.941816226360713,0.,-0.336128243031831));
#532=DIRECTION('',(0.,-1.,0.));
#533=DIRECTION('',(0.,0.,-1.));
#534=DIRECTION('',(0.,1.,0.));
#535=DIRECTION('',(0.,0.,1.));
#536=DIRECTION('',(0.,-1.,0.));
#537=DIRECTION('',(0.,1.,0.));
#538=DIRECTION('',(0.,0.,1.));
#539=DIRECTION('',(-0.336128243031831,0.,-0.941816226360713));
#540=DIRECTION('',(-0.941816226360713,0.,0.336128243031831));
#541=DIRECTION('',(0.941816226360713,0.,-0.336128243031831));
#542=DIRECTION('',(0.,-1.,0.));
#543=DIRECTION('',(0.941816226360713,0.,-0.336128243031831));
#544=DIRECTION('',(0.,-1.,0.));
#545=DIRECTION('',(0.,0.,-1.));
#546=DIRECTION('',(0.,1.,0.));
#547=DIRECTION('',(0.,0.,1.));
#548=DIRECTION('',(0.,-1.,0.));
#549=DIRECTION('',(0.,1.,0.));
#550=DIRECTION('',(0.,0.,1.));
#551=DIRECTION('',(0.325837225855717,0.,0.945425884057894));
#552=DIRECTION('',(0.945425884057894,0.,-0.325837225855717));
#553=DIRECTION('',(-0.945425884057894,0.,0.325837225855717));
#554=DIRECTION('',(0.,-1.,0.));
#555=DIRECTION('',(-0.945425884057894,0.,0.325837225855717));
#556=DIRECTION('',(0.,0.,1.));
#557=DIRECTION('',(1.,0.,0.));
#558=DIRECTION('',(0.,-1.,0.));
#559=DIRECTION('',(-1.,0.,0.));
#560=DIRECTION('',(0.,-1.,0.));
#561=DIRECTION('',(1.,0.,0.));
#562=DIRECTION('',(0.,1.,0.));
#563=DIRECTION('',(-1.,0.,0.));
#564=DIRECTION('',(0.,1.,0.));
#565=DIRECTION('',(0.,0.,1.));
#566=DIRECTION('',(0.,1.,0.));
#567=DIRECTION('',(0.,0.,1.));
#568=DIRECTION('',(0.,1.,0.));
#569=DIRECTION('',(0.,0.,1.));
#570=DIRECTION('',(1.,0.,0.));
#571=DIRECTION('',(1.,0.,0.));
#572=DIRECTION('',(0.,1.,0.));
#573=DIRECTION('',(0.,0.,1.));
#574=DIRECTION('',(0.,1.,0.));
#575=DIRECTION('',(0.,0.,1.));
#576=DIRECTION('',(1.,0.,0.));
#577=DIRECTION('',(0.,1.,0.));
#578=DIRECTION('',(-1.,0.,0.));
#579=DIRECTION('',(0.,1.,0.));
#580=DIRECTION('',(0.,0.,1.));
#581=DIRECTION('',(0.,1.,0.));
#582=DIRECTION('',(0.,0.,1.));
#583=DIRECTION('',(0.,1.,0.));
#584=DIRECTION('',(0.,0.,1.));
#585=DIRECTION('',(-1.,0.,0.));
#586=DIRECTION('',(0.,1.,0.));
#587=DIRECTION('',(0.,0.,1.));
#588=DIRECTION('',(0.,1.,0.));
#589=DIRECTION('',(0.,0.,1.));
#590=DIRECTION('',(-1.,0.,0.));
#591=DIRECTION('',(0.,0.,-1.));
#592=DIRECTION('',(0.,0.,-1.));
#593=DIRECTION('',(0.,0.,-1.));
#594=DIRECTION('',(-1.,0.,0.));
#595=DIRECTION('',(1.,0.,0.));
#596=DIRECTION('',(-1.,0.,0.));
#597=DIRECTION('',(0.,0.,1.));
#598=DIRECTION('',(0.,-1.,0.));
#599=DIRECTION('',(0.,0.,-1.));
#600=DIRECTION('',(0.,1.,0.));
#601=DIRECTION('',(0.,0.,1.));
#602=DIRECTION('',(1.,0.,0.));
#603=DIRECTION('',(1.,0.,0.));
#604=DIRECTION('',(0.,0.,-1.));
#605=DIRECTION('',(0.,-1.,0.));
#606=DIRECTION('',(0.,0.,-1.));
#607=DIRECTION('',(0.,1.,0.));
#608=DIRECTION('',(0.,0.,1.));
#609=DIRECTION('',(1.,0.,0.));
#610=DIRECTION('',(0.,0.,1.));
#611=DIRECTION('',(1.,0.,0.));
#612=DIRECTION('',(0.,-1.,0.));
#613=DIRECTION('',(0.,-1.,0.));
#614=DIRECTION('',(0.,1.,0.));
#615=DIRECTION('',(0.,0.,1.));
#616=DIRECTION('',(0.,1.,0.));
#617=DIRECTION('',(0.,0.,1.));
#618=DIRECTION('',(0.,1.,0.));
#619=DIRECTION('',(0.,0.,1.));
#620=DIRECTION('',(0.,1.,0.));
#621=DIRECTION('',(0.,0.,1.));
#622=DIRECTION('',(0.,1.,0.));
#623=DIRECTION('',(0.,0.,1.));
#624=CARTESIAN_POINT('',(0.,0.,0.));
#625=CARTESIAN_POINT('',(0.0640394814482077,0.029,-0.088438807948097));
#626=CARTESIAN_POINT('',(0.0640394814482077,-0.016,-0.088438807948097));
#627=CARTESIAN_POINT('',(0.0640394814482077,-0.016,-0.088438807948097));
#628=CARTESIAN_POINT('',(0.0640394814482077,-0.016,-0.093438807948097));
#629=CARTESIAN_POINT('',(0.0640394814482077,0.029,-0.088438807948097));
#630=CARTESIAN_POINT('',(0.0640394814482077,0.029,-0.088438807948097));
#631=CARTESIAN_POINT('',(0.0640394814482077,0.029,-0.088438807948097));
#632=CARTESIAN_POINT('',(0.0640394814482077,0.029,-0.093438807948097));
#633=CARTESIAN_POINT('',(0.0640394814482077,0.029,-0.093438807948097));
#634=CARTESIAN_POINT('',(-0.0484666323258294,-0.016,-0.0880852952968201));
#635=CARTESIAN_POINT('',(-0.0484666323258294,-0.016,-0.0880852952968201));
#636=CARTESIAN_POINT('',(-0.0330014438012847,-0.016,-0.0827416983958827));
#637=CARTESIAN_POINT('',(-0.0415554142724494,-0.016,-0.0856973022042606));
#638=CARTESIAN_POINT('',(-0.0415554142724494,-0.021,-0.0856973022042606));
#639=CARTESIAN_POINT('',(-0.0415554142724494,-0.021,-0.0856973022042606));
#640=CARTESIAN_POINT('',(-0.0484666323258294,-0.021,-0.0880852952968201));
#641=CARTESIAN_POINT('',(-0.0330014438012847,-0.021,-0.0827416983958827));
#642=CARTESIAN_POINT('',(-0.0330014438012847,-0.016,-0.0827416983958827));
#643=CARTESIAN_POINT('',(-0.0639605185517923,0.029,-0.088438807948097));
#644=CARTESIAN_POINT('',(-0.0639605185517923,0.029,-0.088438807948097));
#645=CARTESIAN_POINT('',(-0.0639605185517923,0.029,-0.088438807948097));
#646=CARTESIAN_POINT('',(-0.0639605185517923,-0.016,-0.088438807948097));
#647=CARTESIAN_POINT('',(-0.0639605185517923,-0.016,-0.088438807948097));
#648=CARTESIAN_POINT('',(-0.0639605185517923,-0.016,-0.093438807948097));
#649=CARTESIAN_POINT('',(-0.0639605185517923,0.029,-0.093438807948097));
#650=CARTESIAN_POINT('',(-0.0639605185517923,0.029,-0.093438807948097));
#651=CARTESIAN_POINT('',(-0.0639605185517923,0.029,-0.088438807948097));
#652=CARTESIAN_POINT('',(-0.0334769384644143,-0.016,-0.0813190583060021));
#653=CARTESIAN_POINT('',(-0.0334769384644143,-0.021,-0.0813190583060021));
#654=CARTESIAN_POINT('',(-0.0329727460998665,-0.021,-0.0827317826455432));
#655=CARTESIAN_POINT('',(-0.0329727460998665,-0.016,-0.0827317826455432));
#656=CARTESIAN_POINT('',(-0.0329727460998665,-0.016,-0.0827317826455432));
#657=CARTESIAN_POINT('',(-0.0334769384644143,-0.016,-0.0813190583060021));
#658=CARTESIAN_POINT('',(-0.0273867678796279,-0.016,-0.0807381824162945));
#659=CARTESIAN_POINT('',(-0.0273867678796279,-0.021,-0.0807381824162945));
#660=CARTESIAN_POINT('',(-0.0101158197798958,-0.021,-0.0745742904830571));
#661=CARTESIAN_POINT('',(-0.0101158197798958,-0.016,-0.0745742904830571));
#662=CARTESIAN_POINT('',(-0.0101158197798958,-0.016,-0.0745742904830571));
#663=CARTESIAN_POINT('',(-0.0273867678796279,-0.016,-0.0807381824162945));
#664=CARTESIAN_POINT('',(-4.33680868994202E-18,-0.016,-0.102918362750571));
#665=CARTESIAN_POINT('',(-4.33680868994202E-18,-0.021,-0.102918362750571));
#666=CARTESIAN_POINT('',(0.0101158197798958,-0.021,-0.0745742904830571));
#667=CARTESIAN_POINT('',(0.0101158197798958,-0.016,-0.0745742904830571));
#668=CARTESIAN_POINT('',(0.0101158197798958,-0.016,-0.0745742904830571));
#669=CARTESIAN_POINT('',(-4.33680868994202E-18,-0.016,-0.102918362750571));
#670=CARTESIAN_POINT('',(0.0273867678796279,-0.016,-0.0807381824162945));
#671=CARTESIAN_POINT('',(0.0273867678796279,-0.021,-0.0807381824162945));
#672=CARTESIAN_POINT('',(0.0329727460998665,-0.021,-0.0827317826455432));
#673=CARTESIAN_POINT('',(0.0329727460998665,-0.016,-0.0827317826455432));
#674=CARTESIAN_POINT('',(0.0329727460998665,-0.016,-0.0827317826455432));
#675=CARTESIAN_POINT('',(0.0273867678796279,-0.016,-0.0807381824162945));
#676=CARTESIAN_POINT('',(0.0334769384644143,-0.016,-0.0813190583060021));
#677=CARTESIAN_POINT('',(0.0334769384644143,-0.021,-0.0813190583060021));
#678=CARTESIAN_POINT('',(0.0330036772814063,-0.021,-0.0827424429527712));
#679=CARTESIAN_POINT('',(0.0330036772814063,-0.016,-0.0827424429527712));
#680=CARTESIAN_POINT('',(0.0330036772814063,-0.016,-0.0827424429527712));
#681=CARTESIAN_POINT('',(0.0334769384644143,-0.016,-0.0813190583060021));
#682=CARTESIAN_POINT('',(0.0485061137740371,-0.016,-0.0880852952968201));
#683=CARTESIAN_POINT('',(0.0485061137740371,-0.021,-0.0880852952968201));
#684=CARTESIAN_POINT('',(0.0416144239930255,-0.021,-0.0857101021509918));
#685=CARTESIAN_POINT('',(0.0416144239930255,-0.016,-0.0857101021509918));
#686=CARTESIAN_POINT('',(0.0416144239930255,-0.016,-0.0857101021509918));
#687=CARTESIAN_POINT('',(0.0485061137740371,-0.016,-0.0880852952968201));
#688=CARTESIAN_POINT('',(-0.0319605185517923,-0.016,-0.095438807948097));
#689=CARTESIAN_POINT('',(0.0660394814482077,0.00750000000000012,-0.095438807948097));
#690=CARTESIAN_POINT('',(0.0660394814482077,0.031,-0.095438807948097));
#691=CARTESIAN_POINT('',(0.0660394814482077,-0.021,-0.095438807948097));
#692=CARTESIAN_POINT('',(-0.0319605185517923,-0.021,-0.095438807948097));
#693=CARTESIAN_POINT('',(-0.0659605185517923,-0.021,-0.095438807948097));
#694=CARTESIAN_POINT('',(-0.0659605185517923,-0.016,-0.095438807948097));
#695=CARTESIAN_POINT('',(-0.0659605185517923,0.031,-0.095438807948097));
#696=CARTESIAN_POINT('',(3.9481448207701E-5,0.031,-0.095438807948097));
#697=CARTESIAN_POINT('',(3.9481448207701E-5,-0.016,-0.0565467635793493));
#698=CARTESIAN_POINT('',(0.0158913054566184,-0.016,-0.0869798706951085));
#699=CARTESIAN_POINT('',(0.0158913054566184,-0.016,-0.0852798706951085));
#700=CARTESIAN_POINT('',(-0.0158913054566185,-0.016,-0.0869798706951085));
#701=CARTESIAN_POINT('',(-0.0158913054566185,-0.016,-0.0852798706951085));
#702=CARTESIAN_POINT('',(-4.46691295064028E-17,-0.016,-0.0798232428384427));
#703=CARTESIAN_POINT('',(-4.46691295064028E-17,-0.016,-0.0781232428384427));
#704=CARTESIAN_POINT('',(3.9481448207701E-5,-0.016,-0.093438807948097));
#705=CARTESIAN_POINT('',(-0.0544832233809491,-0.016,-0.088438807948097));
#706=CARTESIAN_POINT('',(-0.0578843677184042,-0.016,-0.088438807948097));
#707=CARTESIAN_POINT('',(-0.0578843677184042,-0.016,-0.038438807948097));
#708=CARTESIAN_POINT('',(0.0579062852858112,-0.016,-0.038438807948097));
#709=CARTESIAN_POINT('',(0.0579062852858112,-0.016,-0.088438807948097));
#710=CARTESIAN_POINT('',(0.0249794680515096,-0.016,-0.088438807948097));
#711=CARTESIAN_POINT('',(3.9481448207701E-5,-0.021,-0.0565467635793493));
#712=CARTESIAN_POINT('',(0.0158913054566184,-0.021,-0.0869798706951085));
#713=CARTESIAN_POINT('',(0.0158913054566184,-0.021,-0.0852798706951085));
#714=CARTESIAN_POINT('',(-0.0158913054566185,-0.021,-0.0869798706951085));
#715=CARTESIAN_POINT('',(-0.0158913054566185,-0.021,-0.0852798706951085));
#716=CARTESIAN_POINT('',(-4.46691295064028E-17,-0.021,-0.0798232428384427));
#717=CARTESIAN_POINT('',(-4.46691295064028E-17,-0.021,-0.0781232428384427));
#718=CARTESIAN_POINT('',(3.9481448207701E-5,-0.021,-0.088438807948097));
#719=CARTESIAN_POINT('',(0.0660394814482077,-0.021,-0.088438807948097));
#720=CARTESIAN_POINT('',(0.0579062852858112,-0.021,-0.088438807948097));
#721=CARTESIAN_POINT('',(0.0579062852858112,-0.021,-0.038438807948097));
#722=CARTESIAN_POINT('',(-0.0578843677184042,-0.021,-0.038438807948097));
#723=CARTESIAN_POINT('',(-0.0578843677184042,-0.021,-0.088438807948097));
#724=CARTESIAN_POINT('',(3.9481448207701E-5,-0.021,-0.088438807948097));
#725=CARTESIAN_POINT('',(-0.0659605185517923,-0.021,-0.088438807948097));
#726=CARTESIAN_POINT('',(-0.0659605185517923,-0.021,-0.094438807948097));
#727=CARTESIAN_POINT('',(0.0660394814482077,-0.021,-0.088438807948097));
#728=CARTESIAN_POINT('',(3.9481448207701E-5,0.029,-0.093438807948097));
#729=CARTESIAN_POINT('',(3.9481448207701E-5,0.029,-0.093438807948097));
#730=CARTESIAN_POINT('',(-0.0659605185517923,-0.016,-0.094438807948097));
#731=CARTESIAN_POINT('',(-0.0659605185517923,0.00750000000000012,-0.088438807948097));
#732=CARTESIAN_POINT('',(-0.0659605185517923,0.031,-0.088438807948097));
#733=CARTESIAN_POINT('',(-0.0659605185517923,0.031,-0.088438807948097));
#734=CARTESIAN_POINT('',(3.9481448207701E-5,0.029,-0.088438807948097));
#735=CARTESIAN_POINT('',(3.9481448207701E-5,0.029,-0.088438807948097));
#736=CARTESIAN_POINT('',(0.0660394814482077,0.00750000000000012,-0.088438807948097));
#737=CARTESIAN_POINT('',(0.0660394814482077,0.00750000000000012,-0.088438807948097));
#738=CARTESIAN_POINT('',(0.0660394814482077,0.031,-0.088438807948097));
#739=CARTESIAN_POINT('',(0.0660394814482077,0.031,-0.088438807948097));
#740=CARTESIAN_POINT('',(3.9481448207701E-5,0.031,-0.088438807948097));
#741=CARTESIAN_POINT('',(3.9481448207701E-5,0.031,-0.088438807948097));
#742=CARTESIAN_POINT('',(3.9481448207701E-5,0.00750000000000009,-0.088438807948097));
#743=CARTESIAN_POINT('',(0.0579062852858112,-0.021,-0.088438807948097));
#744=CARTESIAN_POINT('',(-0.0578843677184042,-0.016,-0.088438807948097));
#745=CARTESIAN_POINT('',(0.0579062852858112,0.00750000000000009,-0.038438807948097));
#746=CARTESIAN_POINT('',(-0.0578843677184042,-0.016,-0.038438807948097));
#747=CARTESIAN_POINT('',(-4.46691295064028E-17,-0.041,-0.0798232428384427));
#748=CARTESIAN_POINT('',(-0.0158913054566185,-0.041,-0.0869798706951085));
#749=CARTESIAN_POINT('',(0.0158913054566184,-0.041,-0.0869798706951085));
#750=MECHANICAL_DESIGN_GEOMETRIC_PRESENTATION_REPRESENTATION('',(#449),
#751);
#751=(
GEOMETRIC_REPRESENTATION_CONTEXT(3)
GLOBAL_UNCERTAINTY_ASSIGNED_CONTEXT((#752))
GLOBAL_UNIT_ASSIGNED_CONTEXT((#755,#754,#753))
REPRESENTATION_CONTEXT('Battery Mount','TOP_LEVEL_ASSEMBLY_PART')
);
#752=UNCERTAINTY_MEASURE_WITH_UNIT(LENGTH_MEASURE(2.E-5),#755,
'DISTANCE_ACCURACY_VALUE','Maximum Tolerance applied to model');
#753=(
NAMED_UNIT(*)
SI_UNIT($,.STERADIAN.)
SOLID_ANGLE_UNIT()
);
#754=(
NAMED_UNIT(*)
PLANE_ANGLE_UNIT()
SI_UNIT($,.RADIAN.)
);
#755=(
LENGTH_UNIT()
NAMED_UNIT(*)
SI_UNIT($,.METRE.)
);
#756=PRODUCT_DEFINITION_SHAPE('','',#757);
#757=PRODUCT_DEFINITION('','',#759,#758);
#758=PRODUCT_DEFINITION_CONTEXT('',#765,'design');
#759=PRODUCT_DEFINITION_FORMATION_WITH_SPECIFIED_SOURCE('','',#761,
 .NOT_KNOWN.);
#760=PRODUCT_RELATED_PRODUCT_CATEGORY('','',(#761));
#761=PRODUCT('Battery Mount','Battery Mount','Battery Mount',(#763));
#762=PRODUCT_CATEGORY('','');
#763=PRODUCT_CONTEXT('',#765,'mechanical');
#764=APPLICATION_PROTOCOL_DEFINITION('international standard',
'ap242_managed_model_based_3d_engineering',2020,#765);
#765=APPLICATION_CONTEXT('managed model based 3d engineering');
ENDSEC;
END-ISO-10303-21;
