ISO-10303-21;
HEADER;
/* Generated by software containing ST-Developer
 * from STEP Tools, Inc. (www.steptools.com) 
 */
/* OPTION: using custom renumber hook */

FILE_DESCRIPTION(
/* description */ ('STEP AP242 Edition 2',
'CAx-IF Rec.Pracs.---Representation and Presentation of Product Manufa
cturing Information (PMI)---4.0---2014-10-13',
'CAx-IF Rec.Pracs.---3D Tessellated Geometry---0.4---2014-09-14','2;1',
'CAx-IF Rec.Pracs.---User Defined Attributes---1.5---2016-08-15'),
/* implementation_level */ '2;1');

FILE_NAME(
/* name */ 'Assembly 1 - Base',
/* time_stamp */ '2026-06-22T01:32:03Z',
/* author */ (''),
/* organization */ (''),
/* preprocessor_version */ 'ST-DEVELOPER v20',
/* originating_system */ 'ONSHAPE BY PTC INC, 1.216',
/* authorisation */ '  ');

FILE_SCHEMA (('AP242_MANAGED_MODEL_BASED_3D_ENGINEERING_MIM_LF { 1 0 10303 442 3 1 4 }'));
ENDSEC;

DATA;
#10=SHAPE_REPRESENTATION_RELATIONSHIP('','',#401,#11);
#11=ADVANCED_BREP_SHAPE_REPRESENTATION('',(#399),#679);
#12=LINE('',#597,#26);
#13=LINE('',#602,#27);
#14=LINE('',#604,#28);
#15=LINE('',#606,#29);
#16=LINE('',#610,#30);
#17=LINE('',#612,#31);
#18=LINE('',#614,#32);
#19=LINE('',#618,#33);
#20=LINE('',#622,#34);
#21=LINE('',#624,#35);
#22=LINE('',#626,#36);
#23=LINE('',#627,#37);
#24=LINE('',#654,#38);
#25=LINE('',#655,#39);
#26=VECTOR('',#483,1.);
#27=VECTOR('',#486,1.);
#28=VECTOR('',#487,1.);
#29=VECTOR('',#488,1.);
#30=VECTOR('',#493,1.);
#31=VECTOR('',#494,1.);
#32=VECTOR('',#495,1.);
#33=VECTOR('',#500,1.);
#34=VECTOR('',#503,1.);
#35=VECTOR('',#504,1.);
#36=VECTOR('',#507,1.);
#37=VECTOR('',#508,1.);
#38=VECTOR('',#537,1.);
#39=VECTOR('',#538,1.);
#40=PLANE('',#415);
#41=PLANE('',#418);
#42=PLANE('',#419);
#43=PLANE('',#422);
#44=PLANE('',#423);
#45=PLANE('',#432);
#46=PLANE('',#441);
#47=PLANE('',#444);
#48=PLANE('',#447);
#49=PLANE('',#450);
#50=ORIENTED_EDGE('',*,*,#134,.F.);
#51=ORIENTED_EDGE('',*,*,#135,.T.);
#52=ORIENTED_EDGE('',*,*,#136,.F.);
#53=ORIENTED_EDGE('',*,*,#137,.T.);
#54=ORIENTED_EDGE('',*,*,#138,.F.);
#55=ORIENTED_EDGE('',*,*,#139,.T.);
#56=ORIENTED_EDGE('',*,*,#140,.F.);
#57=ORIENTED_EDGE('',*,*,#141,.T.);
#58=ORIENTED_EDGE('',*,*,#142,.F.);
#59=ORIENTED_EDGE('',*,*,#143,.T.);
#60=ORIENTED_EDGE('',*,*,#144,.F.);
#61=ORIENTED_EDGE('',*,*,#145,.T.);
#62=ORIENTED_EDGE('',*,*,#146,.T.);
#63=ORIENTED_EDGE('',*,*,#147,.T.);
#64=ORIENTED_EDGE('',*,*,#144,.T.);
#65=ORIENTED_EDGE('',*,*,#148,.T.);
#66=ORIENTED_EDGE('',*,*,#149,.F.);
#67=ORIENTED_EDGE('',*,*,#150,.F.);
#68=ORIENTED_EDGE('',*,*,#149,.T.);
#69=ORIENTED_EDGE('',*,*,#151,.T.);
#70=ORIENTED_EDGE('',*,*,#152,.F.);
#71=ORIENTED_EDGE('',*,*,#153,.T.);
#72=ORIENTED_EDGE('',*,*,#154,.F.);
#73=ORIENTED_EDGE('',*,*,#155,.T.);
#74=ORIENTED_EDGE('',*,*,#154,.T.);
#75=ORIENTED_EDGE('',*,*,#156,.T.);
#76=ORIENTED_EDGE('',*,*,#146,.F.);
#77=ORIENTED_EDGE('',*,*,#157,.T.);
#78=ORIENTED_EDGE('',*,*,#158,.F.);
#79=ORIENTED_EDGE('',*,*,#159,.F.);
#80=ORIENTED_EDGE('',*,*,#160,.F.);
#81=ORIENTED_EDGE('',*,*,#161,.F.);
#82=ORIENTED_EDGE('',*,*,#162,.F.);
#83=ORIENTED_EDGE('',*,*,#163,.F.);
#84=ORIENTED_EDGE('',*,*,#164,.F.);
#85=ORIENTED_EDGE('',*,*,#165,.F.);
#86=ORIENTED_EDGE('',*,*,#145,.F.);
#87=ORIENTED_EDGE('',*,*,#150,.T.);
#88=ORIENTED_EDGE('',*,*,#155,.F.);
#89=ORIENTED_EDGE('',*,*,#157,.F.);
#90=ORIENTED_EDGE('',*,*,#166,.F.);
#91=ORIENTED_EDGE('',*,*,#167,.F.);
#92=ORIENTED_EDGE('',*,*,#168,.F.);
#93=ORIENTED_EDGE('',*,*,#169,.F.);
#94=ORIENTED_EDGE('',*,*,#152,.T.);
#95=ORIENTED_EDGE('',*,*,#170,.T.);
#96=ORIENTED_EDGE('',*,*,#142,.T.);
#97=ORIENTED_EDGE('',*,*,#171,.T.);
#98=ORIENTED_EDGE('',*,*,#138,.T.);
#99=ORIENTED_EDGE('',*,*,#136,.T.);
#100=ORIENTED_EDGE('',*,*,#134,.T.);
#101=ORIENTED_EDGE('',*,*,#140,.T.);
#102=ORIENTED_EDGE('',*,*,#143,.F.);
#103=ORIENTED_EDGE('',*,*,#170,.F.);
#104=ORIENTED_EDGE('',*,*,#151,.F.);
#105=ORIENTED_EDGE('',*,*,#148,.F.);
#106=ORIENTED_EDGE('',*,*,#147,.F.);
#107=ORIENTED_EDGE('',*,*,#156,.F.);
#108=ORIENTED_EDGE('',*,*,#153,.F.);
#109=ORIENTED_EDGE('',*,*,#171,.F.);
#110=ORIENTED_EDGE('',*,*,#172,.F.);
#111=ORIENTED_EDGE('',*,*,#165,.T.);
#112=ORIENTED_EDGE('',*,*,#139,.F.);
#113=ORIENTED_EDGE('',*,*,#172,.T.);
#114=ORIENTED_EDGE('',*,*,#173,.F.);
#115=ORIENTED_EDGE('',*,*,#164,.T.);
#116=ORIENTED_EDGE('',*,*,#135,.F.);
#117=ORIENTED_EDGE('',*,*,#173,.T.);
#118=ORIENTED_EDGE('',*,*,#174,.F.);
#119=ORIENTED_EDGE('',*,*,#163,.T.);
#120=ORIENTED_EDGE('',*,*,#141,.F.);
#121=ORIENTED_EDGE('',*,*,#174,.T.);
#122=ORIENTED_EDGE('',*,*,#175,.F.);
#123=ORIENTED_EDGE('',*,*,#162,.T.);
#124=ORIENTED_EDGE('',*,*,#137,.F.);
#125=ORIENTED_EDGE('',*,*,#175,.T.);
#126=ORIENTED_EDGE('',*,*,#161,.T.);
#127=ORIENTED_EDGE('',*,*,#169,.T.);
#128=ORIENTED_EDGE('',*,*,#160,.T.);
#129=ORIENTED_EDGE('',*,*,#168,.T.);
#130=ORIENTED_EDGE('',*,*,#159,.T.);
#131=ORIENTED_EDGE('',*,*,#167,.T.);
#132=ORIENTED_EDGE('',*,*,#158,.T.);
#133=ORIENTED_EDGE('',*,*,#166,.T.);
#134=EDGE_CURVE('',#176,#176,#212,.T.);
#135=EDGE_CURVE('',#177,#177,#213,.T.);
#136=EDGE_CURVE('',#178,#178,#214,.T.);
#137=EDGE_CURVE('',#179,#179,#215,.T.);
#138=EDGE_CURVE('',#180,#180,#216,.T.);
#139=EDGE_CURVE('',#181,#181,#217,.T.);
#140=EDGE_CURVE('',#182,#182,#218,.T.);
#141=EDGE_CURVE('',#183,#183,#219,.T.);
#142=EDGE_CURVE('',#184,#185,#12,.T.);
#143=EDGE_CURVE('',#184,#186,#220,.T.);
#144=EDGE_CURVE('',#187,#186,#13,.T.);
#145=EDGE_CURVE('',#187,#188,#14,.T.);
#146=EDGE_CURVE('',#188,#189,#15,.T.);
#147=EDGE_CURVE('',#189,#185,#221,.T.);
#148=EDGE_CURVE('',#186,#190,#16,.T.);
#149=EDGE_CURVE('',#191,#190,#17,.T.);
#150=EDGE_CURVE('',#187,#191,#18,.T.);
#151=EDGE_CURVE('',#190,#192,#222,.T.);
#152=EDGE_CURVE('',#193,#192,#19,.T.);
#153=EDGE_CURVE('',#193,#194,#223,.T.);
#154=EDGE_CURVE('',#195,#194,#20,.T.);
#155=EDGE_CURVE('',#195,#191,#21,.T.);
#156=EDGE_CURVE('',#194,#189,#22,.F.);
#157=EDGE_CURVE('',#188,#195,#23,.T.);
#158=EDGE_CURVE('',#196,#196,#224,.T.);
#159=EDGE_CURVE('',#197,#197,#225,.T.);
#160=EDGE_CURVE('',#198,#198,#226,.T.);
#161=EDGE_CURVE('',#199,#199,#227,.T.);
#162=EDGE_CURVE('',#200,#200,#228,.T.);
#163=EDGE_CURVE('',#201,#201,#229,.T.);
#164=EDGE_CURVE('',#202,#202,#230,.T.);
#165=EDGE_CURVE('',#203,#203,#231,.T.);
#166=EDGE_CURVE('',#204,#204,#232,.T.);
#167=EDGE_CURVE('',#205,#205,#233,.T.);
#168=EDGE_CURVE('',#206,#206,#234,.T.);
#169=EDGE_CURVE('',#207,#207,#235,.T.);
#170=EDGE_CURVE('',#192,#184,#24,.F.);
#171=EDGE_CURVE('',#185,#193,#25,.T.);
#172=EDGE_CURVE('',#208,#208,#236,.T.);
#173=EDGE_CURVE('',#209,#209,#237,.T.);
#174=EDGE_CURVE('',#210,#210,#238,.T.);
#175=EDGE_CURVE('',#211,#211,#239,.T.);
#176=VERTEX_POINT('',#578);
#177=VERTEX_POINT('',#580);
#178=VERTEX_POINT('',#583);
#179=VERTEX_POINT('',#585);
#180=VERTEX_POINT('',#588);
#181=VERTEX_POINT('',#590);
#182=VERTEX_POINT('',#593);
#183=VERTEX_POINT('',#595);
#184=VERTEX_POINT('',#598);
#185=VERTEX_POINT('',#599);
#186=VERTEX_POINT('',#601);
#187=VERTEX_POINT('',#603);
#188=VERTEX_POINT('',#605);
#189=VERTEX_POINT('',#607);
#190=VERTEX_POINT('',#611);
#191=VERTEX_POINT('',#613);
#192=VERTEX_POINT('',#617);
#193=VERTEX_POINT('',#619);
#194=VERTEX_POINT('',#621);
#195=VERTEX_POINT('',#623);
#196=VERTEX_POINT('',#630);
#197=VERTEX_POINT('',#632);
#198=VERTEX_POINT('',#634);
#199=VERTEX_POINT('',#636);
#200=VERTEX_POINT('',#638);
#201=VERTEX_POINT('',#640);
#202=VERTEX_POINT('',#642);
#203=VERTEX_POINT('',#644);
#204=VERTEX_POINT('',#647);
#205=VERTEX_POINT('',#649);
#206=VERTEX_POINT('',#651);
#207=VERTEX_POINT('',#653);
#208=VERTEX_POINT('',#660);
#209=VERTEX_POINT('',#664);
#210=VERTEX_POINT('',#668);
#211=VERTEX_POINT('',#672);
#212=CIRCLE('',#404,0.00215);
#213=CIRCLE('',#405,0.00215);
#214=CIRCLE('',#407,0.00215);
#215=CIRCLE('',#408,0.00215);
#216=CIRCLE('',#410,0.00215);
#217=CIRCLE('',#411,0.00215);
#218=CIRCLE('',#413,0.00215);
#219=CIRCLE('',#414,0.00215);
#220=CIRCLE('',#416,0.002);
#221=CIRCLE('',#417,0.002);
#222=CIRCLE('',#420,0.002);
#223=CIRCLE('',#421,0.002);
#224=CIRCLE('',#424,0.002);
#225=CIRCLE('',#425,0.002);
#226=CIRCLE('',#426,0.002);
#227=CIRCLE('',#427,0.002);
#228=CIRCLE('',#428,0.00375);
#229=CIRCLE('',#429,0.00375);
#230=CIRCLE('',#430,0.00375);
#231=CIRCLE('',#431,0.00375);
#232=CIRCLE('',#433,0.002);
#233=CIRCLE('',#434,0.002);
#234=CIRCLE('',#435,0.002);
#235=CIRCLE('',#436,0.002);
#236=CIRCLE('',#440,0.00375);
#237=CIRCLE('',#443,0.00375);
#238=CIRCLE('',#446,0.00375);
#239=CIRCLE('',#449,0.00375);
#240=EDGE_LOOP('',(#50));
#241=EDGE_LOOP('',(#51));
#242=EDGE_LOOP('',(#52));
#243=EDGE_LOOP('',(#53));
#244=EDGE_LOOP('',(#54));
#245=EDGE_LOOP('',(#55));
#246=EDGE_LOOP('',(#56));
#247=EDGE_LOOP('',(#57));
#248=EDGE_LOOP('',(#58,#59,#60,#61,#62,#63));
#249=EDGE_LOOP('',(#64,#65,#66,#67));
#250=EDGE_LOOP('',(#68,#69,#70,#71,#72,#73));
#251=EDGE_LOOP('',(#74,#75,#76,#77));
#252=EDGE_LOOP('',(#78));
#253=EDGE_LOOP('',(#79));
#254=EDGE_LOOP('',(#80));
#255=EDGE_LOOP('',(#81));
#256=EDGE_LOOP('',(#82));
#257=EDGE_LOOP('',(#83));
#258=EDGE_LOOP('',(#84));
#259=EDGE_LOOP('',(#85));
#260=EDGE_LOOP('',(#86,#87,#88,#89));
#261=EDGE_LOOP('',(#90));
#262=EDGE_LOOP('',(#91));
#263=EDGE_LOOP('',(#92));
#264=EDGE_LOOP('',(#93));
#265=EDGE_LOOP('',(#94,#95,#96,#97));
#266=EDGE_LOOP('',(#98));
#267=EDGE_LOOP('',(#99));
#268=EDGE_LOOP('',(#100));
#269=EDGE_LOOP('',(#101));
#270=EDGE_LOOP('',(#102,#103,#104,#105));
#271=EDGE_LOOP('',(#106,#107,#108,#109));
#272=EDGE_LOOP('',(#110));
#273=EDGE_LOOP('',(#111));
#274=EDGE_LOOP('',(#112));
#275=EDGE_LOOP('',(#113));
#276=EDGE_LOOP('',(#114));
#277=EDGE_LOOP('',(#115));
#278=EDGE_LOOP('',(#116));
#279=EDGE_LOOP('',(#117));
#280=EDGE_LOOP('',(#118));
#281=EDGE_LOOP('',(#119));
#282=EDGE_LOOP('',(#120));
#283=EDGE_LOOP('',(#121));
#284=EDGE_LOOP('',(#122));
#285=EDGE_LOOP('',(#123));
#286=EDGE_LOOP('',(#124));
#287=EDGE_LOOP('',(#125));
#288=EDGE_LOOP('',(#126));
#289=EDGE_LOOP('',(#127));
#290=EDGE_LOOP('',(#128));
#291=EDGE_LOOP('',(#129));
#292=EDGE_LOOP('',(#130));
#293=EDGE_LOOP('',(#131));
#294=EDGE_LOOP('',(#132));
#295=EDGE_LOOP('',(#133));
#296=FACE_BOUND('',#240,.T.);
#297=FACE_BOUND('',#241,.T.);
#298=FACE_BOUND('',#242,.T.);
#299=FACE_BOUND('',#243,.T.);
#300=FACE_BOUND('',#244,.T.);
#301=FACE_BOUND('',#245,.T.);
#302=FACE_BOUND('',#246,.T.);
#303=FACE_BOUND('',#247,.T.);
#304=FACE_BOUND('',#248,.T.);
#305=FACE_BOUND('',#249,.T.);
#306=FACE_BOUND('',#250,.T.);
#307=FACE_BOUND('',#251,.T.);
#308=FACE_BOUND('',#252,.T.);
#309=FACE_BOUND('',#253,.T.);
#310=FACE_BOUND('',#254,.T.);
#311=FACE_BOUND('',#255,.T.);
#312=FACE_BOUND('',#256,.T.);
#313=FACE_BOUND('',#257,.T.);
#314=FACE_BOUND('',#258,.T.);
#315=FACE_BOUND('',#259,.T.);
#316=FACE_BOUND('',#260,.T.);
#317=FACE_BOUND('',#261,.T.);
#318=FACE_BOUND('',#262,.T.);
#319=FACE_BOUND('',#263,.T.);
#320=FACE_BOUND('',#264,.T.);
#321=FACE_BOUND('',#265,.T.);
#322=FACE_BOUND('',#266,.T.);
#323=FACE_BOUND('',#267,.T.);
#324=FACE_BOUND('',#268,.T.);
#325=FACE_BOUND('',#269,.T.);
#326=FACE_BOUND('',#270,.T.);
#327=FACE_BOUND('',#271,.T.);
#328=FACE_BOUND('',#272,.T.);
#329=FACE_BOUND('',#273,.T.);
#330=FACE_BOUND('',#274,.T.);
#331=FACE_BOUND('',#275,.T.);
#332=FACE_BOUND('',#276,.T.);
#333=FACE_BOUND('',#277,.T.);
#334=FACE_BOUND('',#278,.T.);
#335=FACE_BOUND('',#279,.T.);
#336=FACE_BOUND('',#280,.T.);
#337=FACE_BOUND('',#281,.T.);
#338=FACE_BOUND('',#282,.T.);
#339=FACE_BOUND('',#283,.T.);
#340=FACE_BOUND('',#284,.T.);
#341=FACE_BOUND('',#285,.T.);
#342=FACE_BOUND('',#286,.T.);
#343=FACE_BOUND('',#287,.T.);
#344=FACE_BOUND('',#288,.T.);
#345=FACE_BOUND('',#289,.T.);
#346=FACE_BOUND('',#290,.T.);
#347=FACE_BOUND('',#291,.T.);
#348=FACE_BOUND('',#292,.T.);
#349=FACE_BOUND('',#293,.T.);
#350=FACE_BOUND('',#294,.T.);
#351=FACE_BOUND('',#295,.T.);
#352=CYLINDRICAL_SURFACE('',#403,0.00215);
#353=CYLINDRICAL_SURFACE('',#406,0.00215);
#354=CYLINDRICAL_SURFACE('',#409,0.00215);
#355=CYLINDRICAL_SURFACE('',#412,0.00215);
#356=CYLINDRICAL_SURFACE('',#437,0.002);
#357=CYLINDRICAL_SURFACE('',#438,0.002);
#358=CYLINDRICAL_SURFACE('',#439,0.00375);
#359=CYLINDRICAL_SURFACE('',#442,0.00375);
#360=CYLINDRICAL_SURFACE('',#445,0.00375);
#361=CYLINDRICAL_SURFACE('',#448,0.00375);
#362=CYLINDRICAL_SURFACE('',#451,0.002);
#363=CYLINDRICAL_SURFACE('',#452,0.002);
#364=CYLINDRICAL_SURFACE('',#453,0.002);
#365=CYLINDRICAL_SURFACE('',#454,0.002);
#366=ADVANCED_FACE('',(#296,#297),#352,.F.);
#367=ADVANCED_FACE('',(#298,#299),#353,.F.);
#368=ADVANCED_FACE('',(#300,#301),#354,.F.);
#369=ADVANCED_FACE('',(#302,#303),#355,.F.);
#370=ADVANCED_FACE('',(#304),#40,.T.);
#371=ADVANCED_FACE('',(#305),#41,.F.);
#372=ADVANCED_FACE('',(#306),#42,.T.);
#373=ADVANCED_FACE('',(#307),#43,.T.);
#374=ADVANCED_FACE('',(#308,#309,#310,#311,#312,#313,#314,#315,#316),#44,
 .T.);
#375=ADVANCED_FACE('',(#317,#318,#319,#320,#321,#322,#323,#324,#325),#45,
 .F.);
#376=ADVANCED_FACE('',(#326),#356,.T.);
#377=ADVANCED_FACE('',(#327),#357,.T.);
#378=ADVANCED_FACE('',(#328,#329),#358,.F.);
#379=ADVANCED_FACE('',(#330,#331),#46,.T.);
#380=ADVANCED_FACE('',(#332,#333),#359,.F.);
#381=ADVANCED_FACE('',(#334,#335),#47,.T.);
#382=ADVANCED_FACE('',(#336,#337),#360,.F.);
#383=ADVANCED_FACE('',(#338,#339),#48,.T.);
#384=ADVANCED_FACE('',(#340,#341),#361,.F.);
#385=ADVANCED_FACE('',(#342,#343),#49,.T.);
#386=ADVANCED_FACE('',(#344,#345),#362,.F.);
#387=ADVANCED_FACE('',(#346,#347),#363,.F.);
#388=ADVANCED_FACE('',(#348,#349),#364,.F.);
#389=ADVANCED_FACE('',(#350,#351),#365,.F.);
#390=CLOSED_SHELL('',(#366,#367,#368,#369,#370,#371,#372,#373,#374,#375,
#376,#377,#378,#379,#380,#381,#382,#383,#384,#385,#386,#387,#388,#389));
#391=STYLED_ITEM('',(#392),#399);
#392=PRESENTATION_STYLE_ASSIGNMENT((#393));
#393=SURFACE_STYLE_USAGE(.BOTH.,#394);
#394=SURFACE_SIDE_STYLE('',(#395));
#395=SURFACE_STYLE_FILL_AREA(#396);
#396=FILL_AREA_STYLE('',(#397));
#397=FILL_AREA_STYLE_COLOUR('',#398);
#398=COLOUR_RGB('',0.901960784313726,0.87843137254902,0.811764705882353);
#399=MANIFOLD_SOLID_BREP('Base',#390);
#400=SHAPE_DEFINITION_REPRESENTATION(#684,#401);
#401=SHAPE_REPRESENTATION('Base',(#402),#679);
#402=AXIS2_PLACEMENT_3D('',#575,#455,#456);
#403=AXIS2_PLACEMENT_3D('',#576,#457,#458);
#404=AXIS2_PLACEMENT_3D('',#577,#459,#460);
#405=AXIS2_PLACEMENT_3D('',#579,#461,#462);
#406=AXIS2_PLACEMENT_3D('',#581,#463,#464);
#407=AXIS2_PLACEMENT_3D('',#582,#465,#466);
#408=AXIS2_PLACEMENT_3D('',#584,#467,#468);
#409=AXIS2_PLACEMENT_3D('',#586,#469,#470);
#410=AXIS2_PLACEMENT_3D('',#587,#471,#472);
#411=AXIS2_PLACEMENT_3D('',#589,#473,#474);
#412=AXIS2_PLACEMENT_3D('',#591,#475,#476);
#413=AXIS2_PLACEMENT_3D('',#592,#477,#478);
#414=AXIS2_PLACEMENT_3D('',#594,#479,#480);
#415=AXIS2_PLACEMENT_3D('',#596,#481,#482);
#416=AXIS2_PLACEMENT_3D('',#600,#484,#485);
#417=AXIS2_PLACEMENT_3D('',#608,#489,#490);
#418=AXIS2_PLACEMENT_3D('',#609,#491,#492);
#419=AXIS2_PLACEMENT_3D('',#615,#496,#497);
#420=AXIS2_PLACEMENT_3D('',#616,#498,#499);
#421=AXIS2_PLACEMENT_3D('',#620,#501,#502);
#422=AXIS2_PLACEMENT_3D('',#625,#505,#506);
#423=AXIS2_PLACEMENT_3D('',#628,#509,#510);
#424=AXIS2_PLACEMENT_3D('',#629,#511,#512);
#425=AXIS2_PLACEMENT_3D('',#631,#513,#514);
#426=AXIS2_PLACEMENT_3D('',#633,#515,#516);
#427=AXIS2_PLACEMENT_3D('',#635,#517,#518);
#428=AXIS2_PLACEMENT_3D('',#637,#519,#520);
#429=AXIS2_PLACEMENT_3D('',#639,#521,#522);
#430=AXIS2_PLACEMENT_3D('',#641,#523,#524);
#431=AXIS2_PLACEMENT_3D('',#643,#525,#526);
#432=AXIS2_PLACEMENT_3D('',#645,#527,#528);
#433=AXIS2_PLACEMENT_3D('',#646,#529,#530);
#434=AXIS2_PLACEMENT_3D('',#648,#531,#532);
#435=AXIS2_PLACEMENT_3D('',#650,#533,#534);
#436=AXIS2_PLACEMENT_3D('',#652,#535,#536);
#437=AXIS2_PLACEMENT_3D('',#656,#539,#540);
#438=AXIS2_PLACEMENT_3D('',#657,#541,#542);
#439=AXIS2_PLACEMENT_3D('',#658,#543,#544);
#440=AXIS2_PLACEMENT_3D('',#659,#545,#546);
#441=AXIS2_PLACEMENT_3D('',#661,#547,#548);
#442=AXIS2_PLACEMENT_3D('',#662,#549,#550);
#443=AXIS2_PLACEMENT_3D('',#663,#551,#552);
#444=AXIS2_PLACEMENT_3D('',#665,#553,#554);
#445=AXIS2_PLACEMENT_3D('',#666,#555,#556);
#446=AXIS2_PLACEMENT_3D('',#667,#557,#558);
#447=AXIS2_PLACEMENT_3D('',#669,#559,#560);
#448=AXIS2_PLACEMENT_3D('',#670,#561,#562);
#449=AXIS2_PLACEMENT_3D('',#671,#563,#564);
#450=AXIS2_PLACEMENT_3D('',#673,#565,#566);
#451=AXIS2_PLACEMENT_3D('',#674,#567,#568);
#452=AXIS2_PLACEMENT_3D('',#675,#569,#570);
#453=AXIS2_PLACEMENT_3D('',#676,#571,#572);
#454=AXIS2_PLACEMENT_3D('',#677,#573,#574);
#455=DIRECTION('',(0.,0.,1.));
#456=DIRECTION('',(1.,0.,0.));
#457=DIRECTION('',(-0.00417543281570359,0.,0.999991282842406));
#458=DIRECTION('',(0.999991282842406,0.,0.00417543281570359));
#459=DIRECTION('',(0.00417543281570359,0.,-0.999991282842406));
#460=DIRECTION('',(-0.999991282842406,0.,-0.00417543281570359));
#461=DIRECTION('',(0.00417543281570359,0.,-0.999991282842406));
#462=DIRECTION('',(-0.999991282842406,0.,-0.00417543281570359));
#463=DIRECTION('',(-0.00417543281570359,0.,0.999991282842406));
#464=DIRECTION('',(0.999991282842406,0.,0.00417543281570359));
#465=DIRECTION('',(0.00417543281570359,0.,-0.999991282842406));
#466=DIRECTION('',(-0.999991282842406,0.,-0.00417543281570359));
#467=DIRECTION('',(0.00417543281570359,0.,-0.999991282842406));
#468=DIRECTION('',(-0.999991282842406,0.,-0.00417543281570359));
#469=DIRECTION('',(-0.00417543281570359,0.,0.999991282842406));
#470=DIRECTION('',(0.999991282842406,0.,0.00417543281570359));
#471=DIRECTION('',(0.00417543281570359,0.,-0.999991282842406));
#472=DIRECTION('',(-0.999991282842406,0.,-0.00417543281570359));
#473=DIRECTION('',(0.00417543281570359,0.,-0.999991282842406));
#474=DIRECTION('',(-0.999991282842406,0.,-0.00417543281570359));
#475=DIRECTION('',(-0.00417543281570359,0.,0.999991282842406));
#476=DIRECTION('',(0.999991282842406,0.,0.00417543281570359));
#477=DIRECTION('',(0.00417543281570359,0.,-0.999991282842406));
#478=DIRECTION('',(-0.999991282842406,0.,-0.00417543281570359));
#479=DIRECTION('',(0.00417543281570359,0.,-0.999991282842406));
#480=DIRECTION('',(-0.999991282842406,0.,-0.00417543281570359));
#481=DIRECTION('',(-6.51633614296502E-6,0.999999999978768,-2.72087609525487E-8));
#482=DIRECTION('',(-0.999999999978769,-6.51633614296503E-6,0.));
#483=DIRECTION('',(-0.999991282821175,-6.51639294738929E-6,-0.00417543281561494));
#484=DIRECTION('',(-6.51633614296502E-6,0.999999999978768,-2.72087609525487E-8));
#485=DIRECTION('',(-0.999999999978769,-6.51633614296503E-6,0.));
#486=DIRECTION('',(-0.00417543281570359,0.,0.999991282842406));
#487=DIRECTION('',(-0.999991282821175,-6.51639294738929E-6,-0.00417543281561494));
#488=DIRECTION('',(-0.00417543281570359,0.,0.999991282842406));
#489=DIRECTION('',(-6.51633614296502E-6,0.999999999978768,-2.72087609525487E-8));
#490=DIRECTION('',(-0.999999999978769,-6.51633614296503E-6,0.));
#491=DIRECTION('',(-0.999991282821175,-6.51639294755794E-6,-0.00417543281561494));
#492=DIRECTION('',(-0.00417543281570359,0.,0.999991282842406));
#493=DIRECTION('',(6.51633614313367E-6,-0.999999999978768,2.72087609532528E-8));
#494=DIRECTION('',(-0.00417543281570359,0.,0.999991282842406));
#495=DIRECTION('',(6.51633614313367E-6,-0.999999999978768,2.72087609532528E-8));
#496=DIRECTION('',(6.51633614310567E-6,-0.999999999978768,2.72087609531359E-8));
#497=DIRECTION('',(0.999999999978769,6.51633614310567E-6,0.));
#498=DIRECTION('',(6.51633614310567E-6,-0.999999999978768,2.72087609531359E-8));
#499=DIRECTION('',(0.999999999978769,6.51633614310567E-6,0.));
#500=DIRECTION('',(0.999991282821175,6.51639294752994E-6,0.00417543281561494));
#501=DIRECTION('',(6.51633614310567E-6,-0.999999999978768,2.72087609531359E-8));
#502=DIRECTION('',(0.999999999978769,6.51633614310567E-6,0.));
#503=DIRECTION('',(-0.00417543281570359,0.,0.999991282842406));
#504=DIRECTION('',(0.999991282821175,6.51639294752994E-6,0.00417543281561494));
#505=DIRECTION('',(-0.999991282821175,-6.51639294744048E-6,-0.00417543281561494));
#506=DIRECTION('',(-0.00417543281570359,0.,0.999991282842406));
#507=DIRECTION('',(6.51633614301622E-6,-0.999999999978768,2.72087609527625E-8));
#508=DIRECTION('',(6.51633614301622E-6,-0.999999999978768,2.72087609527625E-8));
#509=DIRECTION('',(0.00417543281570359,0.,-0.999991282842406));
#510=DIRECTION('',(0.999991282842406,0.,0.00417543281570359));
#511=DIRECTION('',(0.00417543281570359,0.,-0.999991282842406));
#512=DIRECTION('',(-0.999991282842406,0.,-0.00417543281570359));
#513=DIRECTION('',(0.00417543281570359,0.,-0.999991282842406));
#514=DIRECTION('',(-0.999991282842406,0.,-0.00417543281570359));
#515=DIRECTION('',(0.00417543281570359,0.,-0.999991282842406));
#516=DIRECTION('',(-0.999991282842406,0.,-0.00417543281570359));
#517=DIRECTION('',(0.00417543281570359,0.,-0.999991282842406));
#518=DIRECTION('',(-0.999991282842406,0.,-0.00417543281570359));
#519=DIRECTION('',(0.00417543281570359,0.,-0.999991282842406));
#520=DIRECTION('',(-0.999991282842406,0.,-0.00417543281570359));
#521=DIRECTION('',(0.00417543281570359,0.,-0.999991282842406));
#522=DIRECTION('',(-0.999991282842406,0.,-0.00417543281570359));
#523=DIRECTION('',(0.00417543281570359,0.,-0.999991282842406));
#524=DIRECTION('',(-0.999991282842406,0.,-0.00417543281570359));
#525=DIRECTION('',(0.00417543281570359,0.,-0.999991282842406));
#526=DIRECTION('',(-0.999991282842406,0.,-0.00417543281570359));
#527=DIRECTION('',(0.00417543281570359,0.,-0.999991282842406));
#528=DIRECTION('',(0.999991282842406,0.,0.00417543281570359));
#529=DIRECTION('',(-0.00417543281570359,0.,0.999991282842406));
#530=DIRECTION('',(0.999991282842406,0.,0.00417543281570359));
#531=DIRECTION('',(-0.00417543281570359,0.,0.999991282842406));
#532=DIRECTION('',(0.999991282842406,0.,0.00417543281570359));
#533=DIRECTION('',(-0.00417543281570359,0.,0.999991282842406));
#534=DIRECTION('',(0.999991282842406,0.,0.00417543281570359));
#535=DIRECTION('',(-0.00417543281570359,0.,0.999991282842406));
#536=DIRECTION('',(0.999991282842406,0.,0.00417543281570359));
#537=DIRECTION('',(6.51633614313367E-6,-0.999999999978768,2.72087609532528E-8));
#538=DIRECTION('',(6.51633614301622E-6,-0.999999999978768,2.72087609527625E-8));
#539=DIRECTION('',(6.51633614313367E-6,-0.999999999978768,2.72087609532528E-8));
#540=DIRECTION('',(0.999999999978769,6.51633614313368E-6,0.));
#541=DIRECTION('',(-6.51633614301622E-6,0.999999999978768,-2.72087609527625E-8));
#542=DIRECTION('',(-0.999999999978769,-6.51633614301622E-6,0.));
#543=DIRECTION('',(0.00417543281570359,0.,-0.999991282842406));
#544=DIRECTION('',(-0.999991282842406,0.,-0.00417543281570359));
#545=DIRECTION('',(0.00417543281570359,0.,-0.999991282842406));
#546=DIRECTION('',(-0.999991282842406,0.,-0.00417543281570359));
#547=DIRECTION('',(0.00417543281570359,0.,-0.999991282842406));
#548=DIRECTION('',(0.999991282842406,0.,0.00417543281570359));
#549=DIRECTION('',(0.00417543281570359,0.,-0.999991282842406));
#550=DIRECTION('',(-0.999991282842406,0.,-0.00417543281570359));
#551=DIRECTION('',(0.00417543281570359,0.,-0.999991282842406));
#552=DIRECTION('',(-0.999991282842406,0.,-0.00417543281570359));
#553=DIRECTION('',(0.00417543281570359,0.,-0.999991282842406));
#554=DIRECTION('',(0.999991282842406,0.,0.00417543281570359));
#555=DIRECTION('',(0.00417543281570359,0.,-0.999991282842406));
#556=DIRECTION('',(-0.999991282842406,0.,-0.00417543281570359));
#557=DIRECTION('',(0.00417543281570359,0.,-0.999991282842406));
#558=DIRECTION('',(-0.999991282842406,0.,-0.00417543281570359));
#559=DIRECTION('',(0.00417543281570359,0.,-0.999991282842406));
#560=DIRECTION('',(0.999991282842406,0.,0.00417543281570359));
#561=DIRECTION('',(0.00417543281570359,0.,-0.999991282842406));
#562=DIRECTION('',(-0.999991282842406,0.,-0.00417543281570359));
#563=DIRECTION('',(0.00417543281570359,0.,-0.999991282842406));
#564=DIRECTION('',(-0.999991282842406,0.,-0.00417543281570359));
#565=DIRECTION('',(0.00417543281570359,0.,-0.999991282842406));
#566=DIRECTION('',(0.999991282842406,0.,0.00417543281570359));
#567=DIRECTION('',(-0.00417543281570359,0.,0.999991282842406));
#568=DIRECTION('',(0.999991282842406,0.,0.00417543281570359));
#569=DIRECTION('',(-0.00417543281570359,0.,0.999991282842406));
#570=DIRECTION('',(0.999991282842406,0.,0.00417543281570359));
#571=DIRECTION('',(-0.00417543281570359,0.,0.999991282842406));
#572=DIRECTION('',(0.999991282842406,0.,0.00417543281570359));
#573=DIRECTION('',(-0.00417543281570359,0.,0.999991282842406));
#574=DIRECTION('',(0.999991282842406,0.,0.00417543281570359));
#575=CARTESIAN_POINT('',(0.,0.,0.));
#576=CARTESIAN_POINT('',(0.0175684043787317,-0.016,-0.132365677490682));
#577=CARTESIAN_POINT('',(0.0175391763490217,-0.016,-0.125365738510786));
#578=CARTESIAN_POINT('',(0.0153891950909106,-0.016,-0.125374715691339));
#579=CARTESIAN_POINT('',(0.0175475272146531,-0.016,-0.12736572107647));
#580=CARTESIAN_POINT('',(0.015397545956542,-0.016,-0.127374698257024));
#581=CARTESIAN_POINT('',(0.0175684043787317,0.2023,-0.132365677490682));
#582=CARTESIAN_POINT('',(0.0175391763490217,0.2023,-0.125365738510786));
#583=CARTESIAN_POINT('',(0.0153891950909106,0.2023,-0.125374715691339));
#584=CARTESIAN_POINT('',(0.0175475272146531,0.2023,-0.12736572107647));
#585=CARTESIAN_POINT('',(0.015397545956542,0.2023,-0.127374698257024));
#586=CARTESIAN_POINT('',(-0.0174309854228965,0.2023,-0.132511816365305));
#587=CARTESIAN_POINT('',(-0.0174602134526064,0.2023,-0.125511877385408));
#588=CARTESIAN_POINT('',(-0.0196101947107175,0.2023,-0.125520854565962));
#589=CARTESIAN_POINT('',(-0.0174518625869749,0.2023,-0.127511859951093));
#590=CARTESIAN_POINT('',(-0.0196018438450861,0.2023,-0.127520837131647));
#591=CARTESIAN_POINT('',(-0.0174309854228965,-0.016,-0.132511816365305));
#592=CARTESIAN_POINT('',(-0.0174602134526064,-0.016,-0.125511877385408));
#593=CARTESIAN_POINT('',(-0.0196101947107175,-0.016,-0.125520854565962));
#594=CARTESIAN_POINT('',(-0.0174518625869749,-0.016,-0.127511859951093));
#595=CARTESIAN_POINT('',(-0.0196018438450861,-0.016,-0.127520837131647));
#596=CARTESIAN_POINT('',(-0.0369511120808257,0.211299758893461,-0.132593322053217));
#597=CARTESIAN_POINT('',(-0.0369803401105356,0.211299758893461,-0.125593383073321));
#598=CARTESIAN_POINT('',(0.0720187097169725,0.211300469180292,-0.125138260896419));
#599=CARTESIAN_POINT('',(-0.0719800350092767,0.211299530819708,-0.125739523221867));
#600=CARTESIAN_POINT('',(0.0720270605826039,0.211300469180292,-0.127138243462103));
#601=CARTESIAN_POINT('',(0.0740270431482462,0.211300482213078,-0.127129892596472));
#602=CARTESIAN_POINT('',(0.0740479203123248,0.211300482213078,-0.132129849010684));
#603=CARTESIAN_POINT('',(0.0740479203123248,0.211300482213078,-0.132129849010684));
#604=CARTESIAN_POINT('',(-0.0369511120808257,0.211299758893461,-0.132593322053217));
#605=CARTESIAN_POINT('',(-0.0739507895452091,0.211299517786922,-0.132747813067395));
#606=CARTESIAN_POINT('',(-0.0739507895452091,0.211299517786922,-0.132747813067395));
#607=CARTESIAN_POINT('',(-0.0739716667092877,0.211299517786922,-0.127747856653183));
#608=CARTESIAN_POINT('',(-0.0719716841436453,0.211299530819708,-0.127739505787552));
#609=CARTESIAN_POINT('',(0.0740486902174401,0.0931504822130782,-0.132129845795969));
#610=CARTESIAN_POINT('',(0.0740278130533616,0.0931504822130782,-0.127129889381757));
#611=CARTESIAN_POINT('',(0.0740285829584769,-0.0249995177869218,-0.127129886167042));
#612=CARTESIAN_POINT('',(0.0740494601225555,-0.0249995177869218,-0.132129842581254));
#613=CARTESIAN_POINT('',(0.0740494601225555,-0.0249995177869218,-0.132129842581254));
#614=CARTESIAN_POINT('',(0.0740486902174401,0.0931504822130782,-0.132129845795969));
#615=CARTESIAN_POINT('',(0.037049782658172,-0.0249997588934609,-0.132284333595432));
#616=CARTESIAN_POINT('',(0.0720286003928345,-0.0249995308197077,-0.127138237032673));
#617=CARTESIAN_POINT('',(0.0720202495272031,-0.0249995308197077,-0.125138254466988));
#618=CARTESIAN_POINT('',(0.037020554628462,-0.0249997588934609,-0.125284394615535));
#619=CARTESIAN_POINT('',(-0.0719784951990461,-0.0250004691802922,-0.125739516792437));
#620=CARTESIAN_POINT('',(-0.0719701443334147,-0.0250004691802922,-0.127739499358122));
#621=CARTESIAN_POINT('',(-0.073970126899057,-0.025000482213078,-0.127747850223753));
#622=CARTESIAN_POINT('',(-0.0739492497349785,-0.025000482213078,-0.132747806637965));
#623=CARTESIAN_POINT('',(-0.0739492497349785,-0.025000482213078,-0.132747806637965));
#624=CARTESIAN_POINT('',(0.037049782658172,-0.0249997588934609,-0.132284333595432));
#625=CARTESIAN_POINT('',(-0.0739500196400938,0.093149517786922,-0.13274780985268));
#626=CARTESIAN_POINT('',(-0.0739716667092877,0.211299517786922,-0.127747856653183));
#627=CARTESIAN_POINT('',(-0.0739500196400938,0.093149517786922,-0.13274780985268));
#628=CARTESIAN_POINT('',(4.933528867314E-5,0.09315,-0.132438827824325));
#629=CARTESIAN_POINT('',(-0.0639307326239964,0.087,-0.132705974628199));
#630=CARTESIAN_POINT('',(-0.0659307151896812,0.087,-0.13271432549383));
#631=CARTESIAN_POINT('',(0.0640681515798316,0.087,-0.132171519227789));
#632=CARTESIAN_POINT('',(0.0620681690141468,0.087,-0.13217987009342));
#633=CARTESIAN_POINT('',(0.0640681515798316,-0.000999999999999894,-0.132171519227789));
#634=CARTESIAN_POINT('',(0.0620681690141468,-0.000999999999999894,-0.13217987009342));
#635=CARTESIAN_POINT('',(-0.0639307326239964,-0.000999999999999898,-0.132705974628199));
#636=CARTESIAN_POINT('',(-0.0659307151896812,-0.000999999999999898,-0.13271432549383));
#637=CARTESIAN_POINT('',(0.0175684043787317,0.2023,-0.132365677490682));
#638=CARTESIAN_POINT('',(0.0138184370680727,0.2023,-0.132381335363741));
#639=CARTESIAN_POINT('',(-0.0174309854228965,-0.016,-0.132511816365305));
#640=CARTESIAN_POINT('',(-0.0211809527335555,-0.016,-0.132527474238364));
#641=CARTESIAN_POINT('',(0.0175684043787317,-0.016,-0.132365677490682));
#642=CARTESIAN_POINT('',(0.0138184370680727,-0.016,-0.132381335363741));
#643=CARTESIAN_POINT('',(-0.0174309854228965,0.2023,-0.132511816365305));
#644=CARTESIAN_POINT('',(-0.0211809527335555,0.2023,-0.132527474238364));
#645=CARTESIAN_POINT('',(2.01072589632148E-5,0.09315,-0.125438888844428));
#646=CARTESIAN_POINT('',(-0.0639599606537063,0.087,-0.125706035648302));
#647=CARTESIAN_POINT('',(-0.0619599780880215,0.087,-0.125697684782671));
#648=CARTESIAN_POINT('',(0.0640389235501217,0.087,-0.125171580247892));
#649=CARTESIAN_POINT('',(0.0660389061158065,0.087,-0.125163229382261));
#650=CARTESIAN_POINT('',(0.0640389235501217,-0.000999999999999894,-0.125171580247892));
#651=CARTESIAN_POINT('',(0.0660389061158065,-0.000999999999999894,-0.125163229382261));
#652=CARTESIAN_POINT('',(-0.0639599606537063,-0.000999999999999898,-0.125706035648302));
#653=CARTESIAN_POINT('',(-0.0619599780880215,-0.000999999999999898,-0.125697684782671));
#654=CARTESIAN_POINT('',(0.0720194796220878,0.0931504691802923,-0.125138257681703));
#655=CARTESIAN_POINT('',(-0.0719784951990461,-0.0250004691802922,-0.125739516792437));
#656=CARTESIAN_POINT('',(0.0720278304877192,0.0931504691802923,-0.127138240247388));
#657=CARTESIAN_POINT('',(-0.07197091423853,0.0931495308197079,-0.127739502572837));
#658=CARTESIAN_POINT('',(-0.0174518625869749,0.2023,-0.127511859951093));
#659=CARTESIAN_POINT('',(-0.0174518625869749,0.2023,-0.127511859951093));
#660=CARTESIAN_POINT('',(-0.021201829897634,0.2023,-0.127527517824152));
#661=CARTESIAN_POINT('',(2.84581245946359E-5,0.09315,-0.127438871410113));
#662=CARTESIAN_POINT('',(0.0175475272146531,-0.016,-0.12736572107647));
#663=CARTESIAN_POINT('',(0.0175475272146531,-0.016,-0.12736572107647));
#664=CARTESIAN_POINT('',(0.0137975599039941,-0.016,-0.127381378949529));
#665=CARTESIAN_POINT('',(2.84581245946359E-5,0.09315,-0.127438871410113));
#666=CARTESIAN_POINT('',(-0.0174518625869749,-0.016,-0.127511859951093));
#667=CARTESIAN_POINT('',(-0.0174518625869749,-0.016,-0.127511859951093));
#668=CARTESIAN_POINT('',(-0.021201829897634,-0.016,-0.127527517824152));
#669=CARTESIAN_POINT('',(2.84581245946359E-5,0.09315,-0.127438871410113));
#670=CARTESIAN_POINT('',(0.0175475272146531,0.2023,-0.12736572107647));
#671=CARTESIAN_POINT('',(0.0175475272146531,0.2023,-0.12736572107647));
#672=CARTESIAN_POINT('',(0.0137975599039941,0.2023,-0.127381378949529));
#673=CARTESIAN_POINT('',(2.84581245946359E-5,0.09315,-0.127438871410113));
#674=CARTESIAN_POINT('',(-0.0638555748333137,-0.000999999999999898,-0.150705817719362));
#675=CARTESIAN_POINT('',(0.0641433093705143,-0.000999999999999894,-0.150171362318952));
#676=CARTESIAN_POINT('',(0.0641433093705143,0.087,-0.150171362318952));
#677=CARTESIAN_POINT('',(-0.0638555748333137,0.087,-0.150705817719362));
#678=MECHANICAL_DESIGN_GEOMETRIC_PRESENTATION_REPRESENTATION('',(#391),
#679);
#679=(
GEOMETRIC_REPRESENTATION_CONTEXT(3)
GLOBAL_UNCERTAINTY_ASSIGNED_CONTEXT((#680))
GLOBAL_UNIT_ASSIGNED_CONTEXT((#683,#682,#681))
REPRESENTATION_CONTEXT('Base','TOP_LEVEL_ASSEMBLY_PART')
);
#680=UNCERTAINTY_MEASURE_WITH_UNIT(LENGTH_MEASURE(1.E-8),#683,
'DISTANCE_ACCURACY_VALUE','Maximum Tolerance applied to model');
#681=(
NAMED_UNIT(*)
SI_UNIT($,.STERADIAN.)
SOLID_ANGLE_UNIT()
);
#682=(
NAMED_UNIT(*)
PLANE_ANGLE_UNIT()
SI_UNIT($,.RADIAN.)
);
#683=(
LENGTH_UNIT()
NAMED_UNIT(*)
SI_UNIT($,.METRE.)
);
#684=PRODUCT_DEFINITION_SHAPE('','',#685);
#685=PRODUCT_DEFINITION('','',#687,#686);
#686=PRODUCT_DEFINITION_CONTEXT('',#693,'design');
#687=PRODUCT_DEFINITION_FORMATION_WITH_SPECIFIED_SOURCE('','',#689,
 .NOT_KNOWN.);
#688=PRODUCT_RELATED_PRODUCT_CATEGORY('','',(#689));
#689=PRODUCT('Base','Base','Base',(#691));
#690=PRODUCT_CATEGORY('','');
#691=PRODUCT_CONTEXT('',#693,'mechanical');
#692=APPLICATION_PROTOCOL_DEFINITION('international standard',
'ap242_managed_model_based_3d_engineering',2020,#693);
#693=APPLICATION_CONTEXT('managed model based 3d engineering');
ENDSEC;
END-ISO-10303-21;
