ISO-10303-21;
HEADER;
/* Generated by software containing ST-Developer
 * from STEP Tools, Inc. (www.steptools.com) 
 */
/* OPTION: using custom renumber hook */

FILE_DESCRIPTION(
/* description */ ('STEP AP242 Edition 2',
'CAx-IF Rec.Pracs.---Representation and Presentation of Product Manufa
cturing Information (PMI)---4.0---2014-10-13',
'CAx-IF Rec.Pracs.---3D Tessellated Geometry---0.4---2014-09-14','2;1',
'CAx-IF Rec.Pracs.---User Defined Attributes---1.5---2016-08-15'),
/* implementation_level */ '2;1');

FILE_NAME(
/* name */ 'Assembly 1 - Mid Bearing Assembly',
/* time_stamp */ '2026-06-22T21:32:40Z',
/* author */ (''),
/* organization */ (''),
/* preprocessor_version */ 'ST-DEVELOPER v20',
/* originating_system */ 'ONSHAPE BY PTC INC, 1.216',
/* authorisation */ '  ');

FILE_SCHEMA (('AP242_MANAGED_MODEL_BASED_3D_ENGINEERING_MIM_LF { 1 0 10303 442 3 1 4 }'));
ENDSEC;

DATA;
#10=SHAPE_REPRESENTATION_RELATIONSHIP('','',#821,#11);
#11=ADVANCED_BREP_SHAPE_REPRESENTATION('',(#819),#1439);
#12=CYLINDRICAL_SURFACE('',#883,0.036);
#13=CYLINDRICAL_SURFACE('',#884,0.036);
#14=CYLINDRICAL_SURFACE('',#885,0.036);
#15=CYLINDRICAL_SURFACE('',#889,0.01);
#16=CYLINDRICAL_SURFACE('',#891,0.036);
#17=CYLINDRICAL_SURFACE('',#892,0.023);
#18=CYLINDRICAL_SURFACE('',#896,0.02125);
#19=CYLINDRICAL_SURFACE('',#899,0.046);
#20=CYLINDRICAL_SURFACE('',#902,0.046);
#21=CYLINDRICAL_SURFACE('',#905,0.0460000000000006);
#22=CYLINDRICAL_SURFACE('',#908,0.046);
#23=CYLINDRICAL_SURFACE('',#909,0.034);
#24=CYLINDRICAL_SURFACE('',#911,0.00215);
#25=CYLINDRICAL_SURFACE('',#912,0.00215);
#26=CYLINDRICAL_SURFACE('',#913,0.00215);
#27=CYLINDRICAL_SURFACE('',#914,0.00215);
#28=CYLINDRICAL_SURFACE('',#916,0.003);
#29=CYLINDRICAL_SURFACE('',#917,0.003);
#30=CYLINDRICAL_SURFACE('',#918,0.003);
#31=CYLINDRICAL_SURFACE('',#919,0.003);
#32=CYLINDRICAL_SURFACE('',#920,0.003);
#33=CYLINDRICAL_SURFACE('',#921,0.003);
#34=CYLINDRICAL_SURFACE('',#922,0.003);
#35=CYLINDRICAL_SURFACE('',#923,0.003);
#36=CYLINDRICAL_SURFACE('',#924,0.003);
#37=CYLINDRICAL_SURFACE('',#925,0.003);
#38=CYLINDRICAL_SURFACE('',#926,0.003);
#39=CYLINDRICAL_SURFACE('',#927,0.003);
#40=CYLINDRICAL_SURFACE('',#928,0.003);
#41=CYLINDRICAL_SURFACE('',#929,0.003);
#42=CYLINDRICAL_SURFACE('',#930,0.003);
#43=CYLINDRICAL_SURFACE('',#931,0.003);
#44=LINE('',#1211,#92);
#45=LINE('',#1219,#93);
#46=LINE('',#1227,#94);
#47=LINE('',#1235,#95);
#48=LINE('',#1243,#96);
#49=LINE('',#1251,#97);
#50=LINE('',#1259,#98);
#51=LINE('',#1267,#99);
#52=LINE('',#1285,#100);
#53=LINE('',#1294,#101);
#54=LINE('',#1302,#102);
#55=LINE('',#1310,#103);
#56=LINE('',#1318,#104);
#57=LINE('',#1326,#105);
#58=LINE('',#1334,#106);
#59=LINE('',#1342,#107);
#60=LINE('',#1352,#108);
#61=LINE('',#1353,#109);
#62=LINE('',#1355,#110);
#63=LINE('',#1356,#111);
#64=LINE('',#1358,#112);
#65=LINE('',#1359,#113);
#66=LINE('',#1369,#114);
#67=LINE('',#1370,#115);
#68=LINE('',#1381,#116);
#69=LINE('',#1382,#117);
#70=LINE('',#1384,#118);
#71=LINE('',#1385,#119);
#72=LINE('',#1387,#120);
#73=LINE('',#1388,#121);
#74=LINE('',#1390,#122);
#75=LINE('',#1391,#123);
#76=LINE('',#1393,#124);
#77=LINE('',#1394,#125);
#78=LINE('',#1396,#126);
#79=LINE('',#1397,#127);
#80=LINE('',#1399,#128);
#81=LINE('',#1400,#129);
#82=LINE('',#1402,#130);
#83=LINE('',#1403,#131);
#84=LINE('',#1405,#132);
#85=LINE('',#1406,#133);
#86=LINE('',#1408,#134);
#87=LINE('',#1409,#135);
#88=LINE('',#1411,#136);
#89=LINE('',#1412,#137);
#90=LINE('',#1415,#138);
#91=LINE('',#1416,#139);
#92=VECTOR('',#944,1.);
#93=VECTOR('',#951,1.);
#94=VECTOR('',#958,1.);
#95=VECTOR('',#965,1.);
#96=VECTOR('',#972,1.);
#97=VECTOR('',#979,1.);
#98=VECTOR('',#986,1.);
#99=VECTOR('',#993,1.);
#100=VECTOR('',#1012,1.);
#101=VECTOR('',#1019,1.);
#102=VECTOR('',#1026,1.);
#103=VECTOR('',#1033,1.);
#104=VECTOR('',#1040,1.);
#105=VECTOR('',#1047,1.);
#106=VECTOR('',#1054,1.);
#107=VECTOR('',#1061,1.);
#108=VECTOR('',#1072,1.);
#109=VECTOR('',#1073,1.);
#110=VECTOR('',#1076,1.);
#111=VECTOR('',#1077,1.);
#112=VECTOR('',#1080,1.);
#113=VECTOR('',#1081,1.);
#114=VECTOR('',#1094,1.);
#115=VECTOR('',#1095,1.);
#116=VECTOR('',#1110,1.);
#117=VECTOR('',#1111,1.);
#118=VECTOR('',#1114,1.);
#119=VECTOR('',#1115,1.);
#120=VECTOR('',#1118,1.);
#121=VECTOR('',#1119,1.);
#122=VECTOR('',#1122,1.);
#123=VECTOR('',#1123,1.);
#124=VECTOR('',#1126,1.);
#125=VECTOR('',#1127,1.);
#126=VECTOR('',#1130,1.);
#127=VECTOR('',#1131,1.);
#128=VECTOR('',#1134,1.);
#129=VECTOR('',#1135,1.);
#130=VECTOR('',#1138,1.);
#131=VECTOR('',#1139,1.);
#132=VECTOR('',#1142,1.);
#133=VECTOR('',#1143,1.);
#134=VECTOR('',#1146,1.);
#135=VECTOR('',#1147,1.);
#136=VECTOR('',#1150,1.);
#137=VECTOR('',#1151,1.);
#138=VECTOR('',#1156,1.);
#139=VECTOR('',#1157,1.);
#140=ORIENTED_EDGE('',*,*,#364,.T.);
#141=ORIENTED_EDGE('',*,*,#365,.T.);
#142=ORIENTED_EDGE('',*,*,#366,.T.);
#143=ORIENTED_EDGE('',*,*,#367,.T.);
#144=ORIENTED_EDGE('',*,*,#368,.T.);
#145=ORIENTED_EDGE('',*,*,#369,.T.);
#146=ORIENTED_EDGE('',*,*,#370,.F.);
#147=ORIENTED_EDGE('',*,*,#371,.T.);
#148=ORIENTED_EDGE('',*,*,#372,.F.);
#149=ORIENTED_EDGE('',*,*,#373,.T.);
#150=ORIENTED_EDGE('',*,*,#374,.T.);
#151=ORIENTED_EDGE('',*,*,#375,.T.);
#152=ORIENTED_EDGE('',*,*,#376,.T.);
#153=ORIENTED_EDGE('',*,*,#377,.T.);
#154=ORIENTED_EDGE('',*,*,#378,.F.);
#155=ORIENTED_EDGE('',*,*,#379,.T.);
#156=ORIENTED_EDGE('',*,*,#380,.F.);
#157=ORIENTED_EDGE('',*,*,#381,.T.);
#158=ORIENTED_EDGE('',*,*,#382,.T.);
#159=ORIENTED_EDGE('',*,*,#383,.T.);
#160=ORIENTED_EDGE('',*,*,#384,.T.);
#161=ORIENTED_EDGE('',*,*,#385,.T.);
#162=ORIENTED_EDGE('',*,*,#386,.F.);
#163=ORIENTED_EDGE('',*,*,#387,.T.);
#164=ORIENTED_EDGE('',*,*,#388,.F.);
#165=ORIENTED_EDGE('',*,*,#389,.T.);
#166=ORIENTED_EDGE('',*,*,#390,.T.);
#167=ORIENTED_EDGE('',*,*,#391,.T.);
#168=ORIENTED_EDGE('',*,*,#392,.T.);
#169=ORIENTED_EDGE('',*,*,#393,.T.);
#170=ORIENTED_EDGE('',*,*,#394,.F.);
#171=ORIENTED_EDGE('',*,*,#395,.T.);
#172=ORIENTED_EDGE('',*,*,#396,.F.);
#173=ORIENTED_EDGE('',*,*,#397,.T.);
#174=ORIENTED_EDGE('',*,*,#398,.F.);
#175=ORIENTED_EDGE('',*,*,#399,.F.);
#176=ORIENTED_EDGE('',*,*,#400,.F.);
#177=ORIENTED_EDGE('',*,*,#401,.F.);
#178=ORIENTED_EDGE('',*,*,#402,.T.);
#179=ORIENTED_EDGE('',*,*,#403,.F.);
#180=ORIENTED_EDGE('',*,*,#404,.T.);
#181=ORIENTED_EDGE('',*,*,#405,.F.);
#182=ORIENTED_EDGE('',*,*,#406,.T.);
#183=ORIENTED_EDGE('',*,*,#407,.F.);
#184=ORIENTED_EDGE('',*,*,#408,.T.);
#185=ORIENTED_EDGE('',*,*,#409,.T.);
#186=ORIENTED_EDGE('',*,*,#410,.T.);
#187=ORIENTED_EDGE('',*,*,#411,.F.);
#188=ORIENTED_EDGE('',*,*,#412,.T.);
#189=ORIENTED_EDGE('',*,*,#413,.F.);
#190=ORIENTED_EDGE('',*,*,#414,.T.);
#191=ORIENTED_EDGE('',*,*,#415,.F.);
#192=ORIENTED_EDGE('',*,*,#416,.T.);
#193=ORIENTED_EDGE('',*,*,#417,.T.);
#194=ORIENTED_EDGE('',*,*,#418,.T.);
#195=ORIENTED_EDGE('',*,*,#419,.F.);
#196=ORIENTED_EDGE('',*,*,#420,.T.);
#197=ORIENTED_EDGE('',*,*,#421,.F.);
#198=ORIENTED_EDGE('',*,*,#422,.T.);
#199=ORIENTED_EDGE('',*,*,#423,.F.);
#200=ORIENTED_EDGE('',*,*,#424,.T.);
#201=ORIENTED_EDGE('',*,*,#425,.T.);
#202=ORIENTED_EDGE('',*,*,#426,.T.);
#203=ORIENTED_EDGE('',*,*,#427,.F.);
#204=ORIENTED_EDGE('',*,*,#428,.T.);
#205=ORIENTED_EDGE('',*,*,#429,.F.);
#206=ORIENTED_EDGE('',*,*,#430,.T.);
#207=ORIENTED_EDGE('',*,*,#431,.F.);
#208=ORIENTED_EDGE('',*,*,#432,.T.);
#209=ORIENTED_EDGE('',*,*,#433,.T.);
#210=ORIENTED_EDGE('',*,*,#434,.T.);
#211=ORIENTED_EDGE('',*,*,#435,.F.);
#212=ORIENTED_EDGE('',*,*,#436,.T.);
#213=ORIENTED_EDGE('',*,*,#437,.T.);
#214=ORIENTED_EDGE('',*,*,#427,.T.);
#215=ORIENTED_EDGE('',*,*,#438,.T.);
#216=ORIENTED_EDGE('',*,*,#378,.T.);
#217=ORIENTED_EDGE('',*,*,#439,.T.);
#218=ORIENTED_EDGE('',*,*,#419,.T.);
#219=ORIENTED_EDGE('',*,*,#440,.T.);
#220=ORIENTED_EDGE('',*,*,#386,.T.);
#221=ORIENTED_EDGE('',*,*,#441,.T.);
#222=ORIENTED_EDGE('',*,*,#411,.T.);
#223=ORIENTED_EDGE('',*,*,#442,.T.);
#224=ORIENTED_EDGE('',*,*,#394,.T.);
#225=ORIENTED_EDGE('',*,*,#443,.T.);
#226=ORIENTED_EDGE('',*,*,#444,.T.);
#227=ORIENTED_EDGE('',*,*,#445,.T.);
#228=ORIENTED_EDGE('',*,*,#398,.T.);
#229=ORIENTED_EDGE('',*,*,#446,.F.);
#230=ORIENTED_EDGE('',*,*,#370,.T.);
#231=ORIENTED_EDGE('',*,*,#447,.T.);
#232=ORIENTED_EDGE('',*,*,#435,.T.);
#233=ORIENTED_EDGE('',*,*,#448,.T.);
#234=ORIENTED_EDGE('',*,*,#445,.F.);
#235=ORIENTED_EDGE('',*,*,#449,.T.);
#236=ORIENTED_EDGE('',*,*,#450,.F.);
#237=ORIENTED_EDGE('',*,*,#449,.F.);
#238=ORIENTED_EDGE('',*,*,#444,.F.);
#239=ORIENTED_EDGE('',*,*,#451,.T.);
#240=ORIENTED_EDGE('',*,*,#380,.T.);
#241=ORIENTED_EDGE('',*,*,#452,.T.);
#242=ORIENTED_EDGE('',*,*,#425,.F.);
#243=ORIENTED_EDGE('',*,*,#453,.T.);
#244=ORIENTED_EDGE('',*,*,#423,.T.);
#245=ORIENTED_EDGE('',*,*,#454,.T.);
#246=ORIENTED_EDGE('',*,*,#382,.F.);
#247=ORIENTED_EDGE('',*,*,#455,.T.);
#248=ORIENTED_EDGE('',*,*,#421,.T.);
#249=ORIENTED_EDGE('',*,*,#456,.T.);
#250=ORIENTED_EDGE('',*,*,#384,.F.);
#251=ORIENTED_EDGE('',*,*,#457,.T.);
#252=ORIENTED_EDGE('',*,*,#417,.F.);
#253=ORIENTED_EDGE('',*,*,#458,.T.);
#254=ORIENTED_EDGE('',*,*,#388,.T.);
#255=ORIENTED_EDGE('',*,*,#459,.T.);
#256=ORIENTED_EDGE('',*,*,#415,.T.);
#257=ORIENTED_EDGE('',*,*,#460,.T.);
#258=ORIENTED_EDGE('',*,*,#390,.F.);
#259=ORIENTED_EDGE('',*,*,#461,.T.);
#260=ORIENTED_EDGE('',*,*,#392,.F.);
#261=ORIENTED_EDGE('',*,*,#462,.T.);
#262=ORIENTED_EDGE('',*,*,#413,.T.);
#263=ORIENTED_EDGE('',*,*,#463,.T.);
#264=ORIENTED_EDGE('',*,*,#409,.F.);
#265=ORIENTED_EDGE('',*,*,#464,.T.);
#266=ORIENTED_EDGE('',*,*,#396,.T.);
#267=ORIENTED_EDGE('',*,*,#465,.T.);
#268=ORIENTED_EDGE('',*,*,#407,.T.);
#269=ORIENTED_EDGE('',*,*,#466,.T.);
#270=ORIENTED_EDGE('',*,*,#366,.F.);
#271=ORIENTED_EDGE('',*,*,#467,.T.);
#272=ORIENTED_EDGE('',*,*,#368,.F.);
#273=ORIENTED_EDGE('',*,*,#468,.T.);
#274=ORIENTED_EDGE('',*,*,#405,.T.);
#275=ORIENTED_EDGE('',*,*,#469,.T.);
#276=ORIENTED_EDGE('',*,*,#372,.T.);
#277=ORIENTED_EDGE('',*,*,#470,.T.);
#278=ORIENTED_EDGE('',*,*,#433,.F.);
#279=ORIENTED_EDGE('',*,*,#471,.T.);
#280=ORIENTED_EDGE('',*,*,#431,.T.);
#281=ORIENTED_EDGE('',*,*,#472,.T.);
#282=ORIENTED_EDGE('',*,*,#374,.F.);
#283=ORIENTED_EDGE('',*,*,#473,.T.);
#284=ORIENTED_EDGE('',*,*,#450,.T.);
#285=ORIENTED_EDGE('',*,*,#404,.F.);
#286=ORIENTED_EDGE('',*,*,#429,.T.);
#287=ORIENTED_EDGE('',*,*,#474,.T.);
#288=ORIENTED_EDGE('',*,*,#376,.F.);
#289=ORIENTED_EDGE('',*,*,#475,.T.);
#290=ORIENTED_EDGE('',*,*,#365,.F.);
#291=ORIENTED_EDGE('',*,*,#403,.T.);
#292=ORIENTED_EDGE('',*,*,#399,.T.);
#293=ORIENTED_EDGE('',*,*,#402,.F.);
#294=ORIENTED_EDGE('',*,*,#400,.T.);
#295=ORIENTED_EDGE('',*,*,#437,.F.);
#296=ORIENTED_EDGE('',*,*,#364,.F.);
#297=ORIENTED_EDGE('',*,*,#401,.T.);
#298=ORIENTED_EDGE('',*,*,#446,.T.);
#299=ORIENTED_EDGE('',*,*,#451,.F.);
#300=ORIENTED_EDGE('',*,*,#367,.F.);
#301=ORIENTED_EDGE('',*,*,#466,.F.);
#302=ORIENTED_EDGE('',*,*,#406,.F.);
#303=ORIENTED_EDGE('',*,*,#468,.F.);
#304=ORIENTED_EDGE('',*,*,#369,.F.);
#305=ORIENTED_EDGE('',*,*,#469,.F.);
#306=ORIENTED_EDGE('',*,*,#436,.F.);
#307=ORIENTED_EDGE('',*,*,#447,.F.);
#308=ORIENTED_EDGE('',*,*,#397,.F.);
#309=ORIENTED_EDGE('',*,*,#464,.F.);
#310=ORIENTED_EDGE('',*,*,#408,.F.);
#311=ORIENTED_EDGE('',*,*,#467,.F.);
#312=ORIENTED_EDGE('',*,*,#395,.F.);
#313=ORIENTED_EDGE('',*,*,#442,.F.);
#314=ORIENTED_EDGE('',*,*,#410,.F.);
#315=ORIENTED_EDGE('',*,*,#465,.F.);
#316=ORIENTED_EDGE('',*,*,#391,.F.);
#317=ORIENTED_EDGE('',*,*,#460,.F.);
#318=ORIENTED_EDGE('',*,*,#414,.F.);
#319=ORIENTED_EDGE('',*,*,#462,.F.);
#320=ORIENTED_EDGE('',*,*,#393,.F.);
#321=ORIENTED_EDGE('',*,*,#463,.F.);
#322=ORIENTED_EDGE('',*,*,#412,.F.);
#323=ORIENTED_EDGE('',*,*,#443,.F.);
#324=ORIENTED_EDGE('',*,*,#389,.F.);
#325=ORIENTED_EDGE('',*,*,#458,.F.);
#326=ORIENTED_EDGE('',*,*,#416,.F.);
#327=ORIENTED_EDGE('',*,*,#461,.F.);
#328=ORIENTED_EDGE('',*,*,#387,.F.);
#329=ORIENTED_EDGE('',*,*,#440,.F.);
#330=ORIENTED_EDGE('',*,*,#418,.F.);
#331=ORIENTED_EDGE('',*,*,#459,.F.);
#332=ORIENTED_EDGE('',*,*,#385,.F.);
#333=ORIENTED_EDGE('',*,*,#456,.F.);
#334=ORIENTED_EDGE('',*,*,#420,.F.);
#335=ORIENTED_EDGE('',*,*,#441,.F.);
#336=ORIENTED_EDGE('',*,*,#379,.F.);
#337=ORIENTED_EDGE('',*,*,#438,.F.);
#338=ORIENTED_EDGE('',*,*,#426,.F.);
#339=ORIENTED_EDGE('',*,*,#452,.F.);
#340=ORIENTED_EDGE('',*,*,#383,.F.);
#341=ORIENTED_EDGE('',*,*,#454,.F.);
#342=ORIENTED_EDGE('',*,*,#422,.F.);
#343=ORIENTED_EDGE('',*,*,#457,.F.);
#344=ORIENTED_EDGE('',*,*,#381,.F.);
#345=ORIENTED_EDGE('',*,*,#453,.F.);
#346=ORIENTED_EDGE('',*,*,#424,.F.);
#347=ORIENTED_EDGE('',*,*,#455,.F.);
#348=ORIENTED_EDGE('',*,*,#377,.F.);
#349=ORIENTED_EDGE('',*,*,#474,.F.);
#350=ORIENTED_EDGE('',*,*,#428,.F.);
#351=ORIENTED_EDGE('',*,*,#439,.F.);
#352=ORIENTED_EDGE('',*,*,#375,.F.);
#353=ORIENTED_EDGE('',*,*,#472,.F.);
#354=ORIENTED_EDGE('',*,*,#430,.F.);
#355=ORIENTED_EDGE('',*,*,#475,.F.);
#356=ORIENTED_EDGE('',*,*,#371,.F.);
#357=ORIENTED_EDGE('',*,*,#448,.F.);
#358=ORIENTED_EDGE('',*,*,#434,.F.);
#359=ORIENTED_EDGE('',*,*,#470,.F.);
#360=ORIENTED_EDGE('',*,*,#373,.F.);
#361=ORIENTED_EDGE('',*,*,#471,.F.);
#362=ORIENTED_EDGE('',*,*,#432,.F.);
#363=ORIENTED_EDGE('',*,*,#473,.F.);
#364=EDGE_CURVE('',#476,#476,#556,.F.);
#365=EDGE_CURVE('',#477,#477,#557,.F.);
#366=EDGE_CURVE('',#478,#479,#558,.T.);
#367=EDGE_CURVE('',#479,#480,#559,.T.);
#368=EDGE_CURVE('',#480,#481,#44,.T.);
#369=EDGE_CURVE('',#481,#482,#560,.F.);
#370=EDGE_CURVE('',#483,#482,#561,.T.);
#371=EDGE_CURVE('',#483,#484,#562,.F.);
#372=EDGE_CURVE('',#485,#484,#45,.T.);
#373=EDGE_CURVE('',#485,#486,#563,.T.);
#374=EDGE_CURVE('',#486,#487,#564,.T.);
#375=EDGE_CURVE('',#487,#488,#565,.T.);
#376=EDGE_CURVE('',#488,#489,#46,.T.);
#377=EDGE_CURVE('',#489,#490,#566,.F.);
#378=EDGE_CURVE('',#491,#490,#567,.T.);
#379=EDGE_CURVE('',#491,#492,#568,.F.);
#380=EDGE_CURVE('',#493,#492,#47,.T.);
#381=EDGE_CURVE('',#493,#494,#569,.T.);
#382=EDGE_CURVE('',#494,#495,#570,.T.);
#383=EDGE_CURVE('',#495,#496,#571,.T.);
#384=EDGE_CURVE('',#496,#497,#48,.T.);
#385=EDGE_CURVE('',#497,#498,#572,.F.);
#386=EDGE_CURVE('',#499,#498,#573,.T.);
#387=EDGE_CURVE('',#499,#500,#574,.F.);
#388=EDGE_CURVE('',#501,#500,#49,.T.);
#389=EDGE_CURVE('',#501,#502,#575,.T.);
#390=EDGE_CURVE('',#502,#503,#576,.T.);
#391=EDGE_CURVE('',#503,#504,#577,.T.);
#392=EDGE_CURVE('',#504,#505,#50,.T.);
#393=EDGE_CURVE('',#505,#506,#578,.F.);
#394=EDGE_CURVE('',#507,#506,#579,.T.);
#395=EDGE_CURVE('',#507,#508,#580,.F.);
#396=EDGE_CURVE('',#509,#508,#51,.T.);
#397=EDGE_CURVE('',#509,#478,#581,.T.);
#398=EDGE_CURVE('',#510,#510,#582,.T.);
#399=EDGE_CURVE('',#511,#511,#583,.T.);
#400=EDGE_CURVE('',#512,#512,#584,.T.);
#401=EDGE_CURVE('',#513,#513,#585,.F.);
#402=EDGE_CURVE('',#514,#514,#586,.T.);
#403=EDGE_CURVE('',#515,#515,#587,.F.);
#404=EDGE_CURVE('',#516,#516,#588,.T.);
#405=EDGE_CURVE('',#517,#518,#52,.T.);
#406=EDGE_CURVE('',#517,#519,#589,.F.);
#407=EDGE_CURVE('',#520,#519,#590,.T.);
#408=EDGE_CURVE('',#520,#521,#591,.F.);
#409=EDGE_CURVE('',#521,#522,#53,.T.);
#410=EDGE_CURVE('',#522,#523,#592,.T.);
#411=EDGE_CURVE('',#524,#523,#593,.T.);
#412=EDGE_CURVE('',#524,#525,#594,.T.);
#413=EDGE_CURVE('',#526,#525,#54,.T.);
#414=EDGE_CURVE('',#526,#527,#595,.F.);
#415=EDGE_CURVE('',#528,#527,#596,.T.);
#416=EDGE_CURVE('',#528,#529,#597,.F.);
#417=EDGE_CURVE('',#529,#530,#55,.T.);
#418=EDGE_CURVE('',#530,#531,#598,.T.);
#419=EDGE_CURVE('',#532,#531,#599,.T.);
#420=EDGE_CURVE('',#532,#533,#600,.T.);
#421=EDGE_CURVE('',#534,#533,#56,.T.);
#422=EDGE_CURVE('',#534,#535,#601,.F.);
#423=EDGE_CURVE('',#536,#535,#602,.T.);
#424=EDGE_CURVE('',#536,#537,#603,.F.);
#425=EDGE_CURVE('',#537,#538,#57,.T.);
#426=EDGE_CURVE('',#538,#539,#604,.T.);
#427=EDGE_CURVE('',#540,#539,#605,.T.);
#428=EDGE_CURVE('',#540,#541,#606,.T.);
#429=EDGE_CURVE('',#542,#541,#58,.T.);
#430=EDGE_CURVE('',#542,#543,#607,.F.);
#431=EDGE_CURVE('',#544,#543,#608,.T.);
#432=EDGE_CURVE('',#544,#545,#609,.F.);
#433=EDGE_CURVE('',#545,#546,#59,.T.);
#434=EDGE_CURVE('',#546,#547,#610,.T.);
#435=EDGE_CURVE('',#548,#547,#611,.T.);
#436=EDGE_CURVE('',#548,#518,#612,.T.);
#437=EDGE_CURVE('',#549,#549,#613,.T.);
#438=EDGE_CURVE('',#539,#491,#60,.F.);
#439=EDGE_CURVE('',#490,#540,#61,.T.);
#440=EDGE_CURVE('',#531,#499,#62,.F.);
#441=EDGE_CURVE('',#498,#532,#63,.T.);
#442=EDGE_CURVE('',#523,#507,#64,.F.);
#443=EDGE_CURVE('',#506,#524,#65,.T.);
#444=EDGE_CURVE('',#550,#550,#614,.T.);
#445=EDGE_CURVE('',#551,#551,#615,.T.);
#446=EDGE_CURVE('',#552,#552,#616,.T.);
#447=EDGE_CURVE('',#482,#548,#66,.T.);
#448=EDGE_CURVE('',#547,#483,#67,.F.);
#449=EDGE_CURVE('',#553,#553,#617,.T.);
#450=EDGE_CURVE('',#554,#554,#618,.F.);
#451=EDGE_CURVE('',#555,#555,#619,.T.);
#452=EDGE_CURVE('',#492,#538,#68,.F.);
#453=EDGE_CURVE('',#537,#493,#69,.T.);
#454=EDGE_CURVE('',#535,#495,#70,.F.);
#455=EDGE_CURVE('',#494,#536,#71,.T.);
#456=EDGE_CURVE('',#533,#497,#72,.F.);
#457=EDGE_CURVE('',#496,#534,#73,.T.);
#458=EDGE_CURVE('',#529,#501,#74,.T.);
#459=EDGE_CURVE('',#500,#530,#75,.F.);
#460=EDGE_CURVE('',#527,#503,#76,.F.);
#461=EDGE_CURVE('',#502,#528,#77,.T.);
#462=EDGE_CURVE('',#504,#526,#78,.T.);
#463=EDGE_CURVE('',#525,#505,#79,.F.);
#464=EDGE_CURVE('',#521,#509,#80,.T.);
#465=EDGE_CURVE('',#508,#522,#81,.F.);
#466=EDGE_CURVE('',#519,#479,#82,.F.);
#467=EDGE_CURVE('',#478,#520,#83,.T.);
#468=EDGE_CURVE('',#480,#517,#84,.T.);
#469=EDGE_CURVE('',#518,#481,#85,.F.);
#470=EDGE_CURVE('',#484,#546,#86,.F.);
#471=EDGE_CURVE('',#545,#485,#87,.T.);
#472=EDGE_CURVE('',#543,#487,#88,.F.);
#473=EDGE_CURVE('',#486,#544,#89,.T.);
#474=EDGE_CURVE('',#541,#489,#90,.F.);
#475=EDGE_CURVE('',#488,#542,#91,.T.);
#476=VERTEX_POINT('',#1203);
#477=VERTEX_POINT('',#1205);
#478=VERTEX_POINT('',#1207);
#479=VERTEX_POINT('',#1208);
#480=VERTEX_POINT('',#1210);
#481=VERTEX_POINT('',#1212);
#482=VERTEX_POINT('',#1214);
#483=VERTEX_POINT('',#1216);
#484=VERTEX_POINT('',#1218);
#485=VERTEX_POINT('',#1220);
#486=VERTEX_POINT('',#1222);
#487=VERTEX_POINT('',#1224);
#488=VERTEX_POINT('',#1226);
#489=VERTEX_POINT('',#1228);
#490=VERTEX_POINT('',#1230);
#491=VERTEX_POINT('',#1232);
#492=VERTEX_POINT('',#1234);
#493=VERTEX_POINT('',#1236);
#494=VERTEX_POINT('',#1238);
#495=VERTEX_POINT('',#1240);
#496=VERTEX_POINT('',#1242);
#497=VERTEX_POINT('',#1244);
#498=VERTEX_POINT('',#1246);
#499=VERTEX_POINT('',#1248);
#500=VERTEX_POINT('',#1250);
#501=VERTEX_POINT('',#1252);
#502=VERTEX_POINT('',#1254);
#503=VERTEX_POINT('',#1256);
#504=VERTEX_POINT('',#1258);
#505=VERTEX_POINT('',#1260);
#506=VERTEX_POINT('',#1262);
#507=VERTEX_POINT('',#1264);
#508=VERTEX_POINT('',#1266);
#509=VERTEX_POINT('',#1268);
#510=VERTEX_POINT('',#1271);
#511=VERTEX_POINT('',#1273);
#512=VERTEX_POINT('',#1275);
#513=VERTEX_POINT('',#1278);
#514=VERTEX_POINT('',#1280);
#515=VERTEX_POINT('',#1282);
#516=VERTEX_POINT('',#1284);
#517=VERTEX_POINT('',#1286);
#518=VERTEX_POINT('',#1287);
#519=VERTEX_POINT('',#1289);
#520=VERTEX_POINT('',#1291);
#521=VERTEX_POINT('',#1293);
#522=VERTEX_POINT('',#1295);
#523=VERTEX_POINT('',#1297);
#524=VERTEX_POINT('',#1299);
#525=VERTEX_POINT('',#1301);
#526=VERTEX_POINT('',#1303);
#527=VERTEX_POINT('',#1305);
#528=VERTEX_POINT('',#1307);
#529=VERTEX_POINT('',#1309);
#530=VERTEX_POINT('',#1311);
#531=VERTEX_POINT('',#1313);
#532=VERTEX_POINT('',#1315);
#533=VERTEX_POINT('',#1317);
#534=VERTEX_POINT('',#1319);
#535=VERTEX_POINT('',#1321);
#536=VERTEX_POINT('',#1323);
#537=VERTEX_POINT('',#1325);
#538=VERTEX_POINT('',#1327);
#539=VERTEX_POINT('',#1329);
#540=VERTEX_POINT('',#1331);
#541=VERTEX_POINT('',#1333);
#542=VERTEX_POINT('',#1335);
#543=VERTEX_POINT('',#1337);
#544=VERTEX_POINT('',#1339);
#545=VERTEX_POINT('',#1341);
#546=VERTEX_POINT('',#1343);
#547=VERTEX_POINT('',#1345);
#548=VERTEX_POINT('',#1347);
#549=VERTEX_POINT('',#1350);
#550=VERTEX_POINT('',#1362);
#551=VERTEX_POINT('',#1364);
#552=VERTEX_POINT('',#1367);
#553=VERTEX_POINT('',#1373);
#554=VERTEX_POINT('',#1376);
#555=VERTEX_POINT('',#1379);
#556=CIRCLE('',#824,0.00215);
#557=CIRCLE('',#825,0.00215);
#558=CIRCLE('',#826,0.0460000000000006);
#559=CIRCLE('',#827,0.003);
#560=CIRCLE('',#828,0.003);
#561=CIRCLE('',#829,0.036);
#562=CIRCLE('',#830,0.003);
#563=CIRCLE('',#831,0.003);
#564=CIRCLE('',#832,0.046);
#565=CIRCLE('',#833,0.003);
#566=CIRCLE('',#834,0.003);
#567=CIRCLE('',#835,0.036);
#568=CIRCLE('',#836,0.003);
#569=CIRCLE('',#837,0.003);
#570=CIRCLE('',#838,0.046);
#571=CIRCLE('',#839,0.003);
#572=CIRCLE('',#840,0.003);
#573=CIRCLE('',#841,0.036);
#574=CIRCLE('',#842,0.003);
#575=CIRCLE('',#843,0.003);
#576=CIRCLE('',#844,0.046);
#577=CIRCLE('',#845,0.003);
#578=CIRCLE('',#846,0.003);
#579=CIRCLE('',#847,0.036);
#580=CIRCLE('',#848,0.003);
#581=CIRCLE('',#849,0.003);
#582=CIRCLE('',#850,0.01);
#583=CIRCLE('',#851,0.00215);
#584=CIRCLE('',#852,0.00215);
#585=CIRCLE('',#854,0.00215);
#586=CIRCLE('',#855,0.00215);
#587=CIRCLE('',#856,0.00215);
#588=CIRCLE('',#857,0.034);
#589=CIRCLE('',#858,0.003);
#590=CIRCLE('',#859,0.0460000000000006);
#591=CIRCLE('',#860,0.003);
#592=CIRCLE('',#861,0.003);
#593=CIRCLE('',#862,0.036);
#594=CIRCLE('',#863,0.003);
#595=CIRCLE('',#864,0.003);
#596=CIRCLE('',#865,0.046);
#597=CIRCLE('',#866,0.003);
#598=CIRCLE('',#867,0.003);
#599=CIRCLE('',#868,0.036);
#600=CIRCLE('',#869,0.003);
#601=CIRCLE('',#870,0.003);
#602=CIRCLE('',#871,0.046);
#603=CIRCLE('',#872,0.003);
#604=CIRCLE('',#873,0.003);
#605=CIRCLE('',#874,0.036);
#606=CIRCLE('',#875,0.003);
#607=CIRCLE('',#876,0.003);
#608=CIRCLE('',#877,0.046);
#609=CIRCLE('',#878,0.003);
#610=CIRCLE('',#879,0.003);
#611=CIRCLE('',#880,0.036);
#612=CIRCLE('',#881,0.003);
#613=CIRCLE('',#882,0.00215);
#614=CIRCLE('',#887,0.02125);
#615=CIRCLE('',#888,0.023);
#616=CIRCLE('',#890,0.01);
#617=CIRCLE('',#893,0.023);
#618=CIRCLE('',#895,0.034);
#619=CIRCLE('',#897,0.02125);
#620=EDGE_LOOP('',(#140));
#621=EDGE_LOOP('',(#141));
#622=EDGE_LOOP('',(#142,#143,#144,#145,#146,#147,#148,#149,#150,#151,#152,
#153,#154,#155,#156,#157,#158,#159,#160,#161,#162,#163,#164,#165,#166,#167,
#168,#169,#170,#171,#172,#173));
#623=EDGE_LOOP('',(#174));
#624=EDGE_LOOP('',(#175));
#625=EDGE_LOOP('',(#176));
#626=EDGE_LOOP('',(#177));
#627=EDGE_LOOP('',(#178));
#628=EDGE_LOOP('',(#179));
#629=EDGE_LOOP('',(#180));
#630=EDGE_LOOP('',(#181,#182,#183,#184,#185,#186,#187,#188,#189,#190,#191,
#192,#193,#194,#195,#196,#197,#198,#199,#200,#201,#202,#203,#204,#205,#206,
#207,#208,#209,#210,#211,#212));
#631=EDGE_LOOP('',(#213));
#632=EDGE_LOOP('',(#214,#215,#216,#217));
#633=EDGE_LOOP('',(#218,#219,#220,#221));
#634=EDGE_LOOP('',(#222,#223,#224,#225));
#635=EDGE_LOOP('',(#226));
#636=EDGE_LOOP('',(#227));
#637=EDGE_LOOP('',(#228));
#638=EDGE_LOOP('',(#229));
#639=EDGE_LOOP('',(#230,#231,#232,#233));
#640=EDGE_LOOP('',(#234));
#641=EDGE_LOOP('',(#235));
#642=EDGE_LOOP('',(#236));
#643=EDGE_LOOP('',(#237));
#644=EDGE_LOOP('',(#238));
#645=EDGE_LOOP('',(#239));
#646=EDGE_LOOP('',(#240,#241,#242,#243));
#647=EDGE_LOOP('',(#244,#245,#246,#247));
#648=EDGE_LOOP('',(#248,#249,#250,#251));
#649=EDGE_LOOP('',(#252,#253,#254,#255));
#650=EDGE_LOOP('',(#256,#257,#258,#259));
#651=EDGE_LOOP('',(#260,#261,#262,#263));
#652=EDGE_LOOP('',(#264,#265,#266,#267));
#653=EDGE_LOOP('',(#268,#269,#270,#271));
#654=EDGE_LOOP('',(#272,#273,#274,#275));
#655=EDGE_LOOP('',(#276,#277,#278,#279));
#656=EDGE_LOOP('',(#280,#281,#282,#283));
#657=EDGE_LOOP('',(#284));
#658=EDGE_LOOP('',(#285));
#659=EDGE_LOOP('',(#286,#287,#288,#289));
#660=EDGE_LOOP('',(#290));
#661=EDGE_LOOP('',(#291));
#662=EDGE_LOOP('',(#292));
#663=EDGE_LOOP('',(#293));
#664=EDGE_LOOP('',(#294));
#665=EDGE_LOOP('',(#295));
#666=EDGE_LOOP('',(#296));
#667=EDGE_LOOP('',(#297));
#668=EDGE_LOOP('',(#298));
#669=EDGE_LOOP('',(#299));
#670=EDGE_LOOP('',(#300,#301,#302,#303));
#671=EDGE_LOOP('',(#304,#305,#306,#307));
#672=EDGE_LOOP('',(#308,#309,#310,#311));
#673=EDGE_LOOP('',(#312,#313,#314,#315));
#674=EDGE_LOOP('',(#316,#317,#318,#319));
#675=EDGE_LOOP('',(#320,#321,#322,#323));
#676=EDGE_LOOP('',(#324,#325,#326,#327));
#677=EDGE_LOOP('',(#328,#329,#330,#331));
#678=EDGE_LOOP('',(#332,#333,#334,#335));
#679=EDGE_LOOP('',(#336,#337,#338,#339));
#680=EDGE_LOOP('',(#340,#341,#342,#343));
#681=EDGE_LOOP('',(#344,#345,#346,#347));
#682=EDGE_LOOP('',(#348,#349,#350,#351));
#683=EDGE_LOOP('',(#352,#353,#354,#355));
#684=EDGE_LOOP('',(#356,#357,#358,#359));
#685=EDGE_LOOP('',(#360,#361,#362,#363));
#686=FACE_BOUND('',#620,.T.);
#687=FACE_BOUND('',#621,.T.);
#688=FACE_BOUND('',#622,.T.);
#689=FACE_BOUND('',#623,.T.);
#690=FACE_BOUND('',#624,.T.);
#691=FACE_BOUND('',#625,.T.);
#692=FACE_BOUND('',#626,.T.);
#693=FACE_BOUND('',#627,.T.);
#694=FACE_BOUND('',#628,.T.);
#695=FACE_BOUND('',#629,.T.);
#696=FACE_BOUND('',#630,.T.);
#697=FACE_BOUND('',#631,.T.);
#698=FACE_BOUND('',#632,.T.);
#699=FACE_BOUND('',#633,.T.);
#700=FACE_BOUND('',#634,.T.);
#701=FACE_BOUND('',#635,.T.);
#702=FACE_BOUND('',#636,.T.);
#703=FACE_BOUND('',#637,.T.);
#704=FACE_BOUND('',#638,.T.);
#705=FACE_BOUND('',#639,.T.);
#706=FACE_BOUND('',#640,.T.);
#707=FACE_BOUND('',#641,.T.);
#708=FACE_BOUND('',#642,.T.);
#709=FACE_BOUND('',#643,.T.);
#710=FACE_BOUND('',#644,.T.);
#711=FACE_BOUND('',#645,.T.);
#712=FACE_BOUND('',#646,.T.);
#713=FACE_BOUND('',#647,.T.);
#714=FACE_BOUND('',#648,.T.);
#715=FACE_BOUND('',#649,.T.);
#716=FACE_BOUND('',#650,.T.);
#717=FACE_BOUND('',#651,.T.);
#718=FACE_BOUND('',#652,.T.);
#719=FACE_BOUND('',#653,.T.);
#720=FACE_BOUND('',#654,.T.);
#721=FACE_BOUND('',#655,.T.);
#722=FACE_BOUND('',#656,.T.);
#723=FACE_BOUND('',#657,.T.);
#724=FACE_BOUND('',#658,.T.);
#725=FACE_BOUND('',#659,.T.);
#726=FACE_BOUND('',#660,.T.);
#727=FACE_BOUND('',#661,.T.);
#728=FACE_BOUND('',#662,.T.);
#729=FACE_BOUND('',#663,.T.);
#730=FACE_BOUND('',#664,.T.);
#731=FACE_BOUND('',#665,.T.);
#732=FACE_BOUND('',#666,.T.);
#733=FACE_BOUND('',#667,.T.);
#734=FACE_BOUND('',#668,.T.);
#735=FACE_BOUND('',#669,.T.);
#736=FACE_BOUND('',#670,.T.);
#737=FACE_BOUND('',#671,.T.);
#738=FACE_BOUND('',#672,.T.);
#739=FACE_BOUND('',#673,.T.);
#740=FACE_BOUND('',#674,.T.);
#741=FACE_BOUND('',#675,.T.);
#742=FACE_BOUND('',#676,.T.);
#743=FACE_BOUND('',#677,.T.);
#744=FACE_BOUND('',#678,.T.);
#745=FACE_BOUND('',#679,.T.);
#746=FACE_BOUND('',#680,.T.);
#747=FACE_BOUND('',#681,.T.);
#748=FACE_BOUND('',#682,.T.);
#749=FACE_BOUND('',#683,.T.);
#750=FACE_BOUND('',#684,.T.);
#751=FACE_BOUND('',#685,.T.);
#752=PLANE('',#823);
#753=PLANE('',#853);
#754=PLANE('',#886);
#755=PLANE('',#894);
#756=PLANE('',#898);
#757=PLANE('',#900);
#758=PLANE('',#901);
#759=PLANE('',#903);
#760=PLANE('',#904);
#761=PLANE('',#906);
#762=PLANE('',#907);
#763=PLANE('',#910);
#764=PLANE('',#915);
#765=ADVANCED_FACE('',(#686,#687,#688,#689,#690,#691),#752,.T.);
#766=ADVANCED_FACE('',(#692,#693,#694,#695,#696,#697),#753,.F.);
#767=ADVANCED_FACE('',(#698),#12,.T.);
#768=ADVANCED_FACE('',(#699),#13,.T.);
#769=ADVANCED_FACE('',(#700),#14,.T.);
#770=ADVANCED_FACE('',(#701,#702),#754,.F.);
#771=ADVANCED_FACE('',(#703,#704),#15,.F.);
#772=ADVANCED_FACE('',(#705),#16,.T.);
#773=ADVANCED_FACE('',(#706,#707),#17,.F.);
#774=ADVANCED_FACE('',(#708,#709),#755,.T.);
#775=ADVANCED_FACE('',(#710,#711),#18,.T.);
#776=ADVANCED_FACE('',(#712),#756,.T.);
#777=ADVANCED_FACE('',(#713),#19,.T.);
#778=ADVANCED_FACE('',(#714),#757,.F.);
#779=ADVANCED_FACE('',(#715),#758,.T.);
#780=ADVANCED_FACE('',(#716),#20,.T.);
#781=ADVANCED_FACE('',(#717),#759,.F.);
#782=ADVANCED_FACE('',(#718),#760,.T.);
#783=ADVANCED_FACE('',(#719),#21,.T.);
#784=ADVANCED_FACE('',(#720),#761,.F.);
#785=ADVANCED_FACE('',(#721),#762,.T.);
#786=ADVANCED_FACE('',(#722),#22,.T.);
#787=ADVANCED_FACE('',(#723,#724),#23,.F.);
#788=ADVANCED_FACE('',(#725),#763,.F.);
#789=ADVANCED_FACE('',(#726,#727),#24,.F.);
#790=ADVANCED_FACE('',(#728,#729),#25,.F.);
#791=ADVANCED_FACE('',(#730,#731),#26,.F.);
#792=ADVANCED_FACE('',(#732,#733),#27,.F.);
#793=ADVANCED_FACE('',(#734,#735),#764,.F.);
#794=ADVANCED_FACE('',(#736),#28,.T.);
#795=ADVANCED_FACE('',(#737),#29,.F.);
#796=ADVANCED_FACE('',(#738),#30,.T.);
#797=ADVANCED_FACE('',(#739),#31,.F.);
#798=ADVANCED_FACE('',(#740),#32,.T.);
#799=ADVANCED_FACE('',(#741),#33,.F.);
#800=ADVANCED_FACE('',(#742),#34,.T.);
#801=ADVANCED_FACE('',(#743),#35,.F.);
#802=ADVANCED_FACE('',(#744),#36,.F.);
#803=ADVANCED_FACE('',(#745),#37,.F.);
#804=ADVANCED_FACE('',(#746),#38,.T.);
#805=ADVANCED_FACE('',(#747),#39,.T.);
#806=ADVANCED_FACE('',(#748),#40,.F.);
#807=ADVANCED_FACE('',(#749),#41,.T.);
#808=ADVANCED_FACE('',(#750),#42,.F.);
#809=ADVANCED_FACE('',(#751),#43,.T.);
#810=CLOSED_SHELL('',(#765,#766,#767,#768,#769,#770,#771,#772,#773,#774,
#775,#776,#777,#778,#779,#780,#781,#782,#783,#784,#785,#786,#787,#788,#789,
#790,#791,#792,#793,#794,#795,#796,#797,#798,#799,#800,#801,#802,#803,#804,
#805,#806,#807,#808,#809));
#811=STYLED_ITEM('',(#812),#819);
#812=PRESENTATION_STYLE_ASSIGNMENT((#813));
#813=SURFACE_STYLE_USAGE(.BOTH.,#814);
#814=SURFACE_SIDE_STYLE('',(#815));
#815=SURFACE_STYLE_FILL_AREA(#816);
#816=FILL_AREA_STYLE('',(#817));
#817=FILL_AREA_STYLE_COLOUR('',#818);
#818=COLOUR_RGB('',0.541176470588235,0.682352941176471,0.83921568627451);
#819=MANIFOLD_SOLID_BREP('Mid Bearing Assembly',#810);
#820=SHAPE_DEFINITION_REPRESENTATION(#1444,#821);
#821=SHAPE_REPRESENTATION('Mid Bearing Assembly',(#822),#1439);
#822=AXIS2_PLACEMENT_3D('',#1200,#932,#933);
#823=AXIS2_PLACEMENT_3D('',#1201,#934,#935);
#824=AXIS2_PLACEMENT_3D('',#1202,#936,#937);
#825=AXIS2_PLACEMENT_3D('',#1204,#938,#939);
#826=AXIS2_PLACEMENT_3D('',#1206,#940,#941);
#827=AXIS2_PLACEMENT_3D('',#1209,#942,#943);
#828=AXIS2_PLACEMENT_3D('',#1213,#945,#946);
#829=AXIS2_PLACEMENT_3D('',#1215,#947,#948);
#830=AXIS2_PLACEMENT_3D('',#1217,#949,#950);
#831=AXIS2_PLACEMENT_3D('',#1221,#952,#953);
#832=AXIS2_PLACEMENT_3D('',#1223,#954,#955);
#833=AXIS2_PLACEMENT_3D('',#1225,#956,#957);
#834=AXIS2_PLACEMENT_3D('',#1229,#959,#960);
#835=AXIS2_PLACEMENT_3D('',#1231,#961,#962);
#836=AXIS2_PLACEMENT_3D('',#1233,#963,#964);
#837=AXIS2_PLACEMENT_3D('',#1237,#966,#967);
#838=AXIS2_PLACEMENT_3D('',#1239,#968,#969);
#839=AXIS2_PLACEMENT_3D('',#1241,#970,#971);
#840=AXIS2_PLACEMENT_3D('',#1245,#973,#974);
#841=AXIS2_PLACEMENT_3D('',#1247,#975,#976);
#842=AXIS2_PLACEMENT_3D('',#1249,#977,#978);
#843=AXIS2_PLACEMENT_3D('',#1253,#980,#981);
#844=AXIS2_PLACEMENT_3D('',#1255,#982,#983);
#845=AXIS2_PLACEMENT_3D('',#1257,#984,#985);
#846=AXIS2_PLACEMENT_3D('',#1261,#987,#988);
#847=AXIS2_PLACEMENT_3D('',#1263,#989,#990);
#848=AXIS2_PLACEMENT_3D('',#1265,#991,#992);
#849=AXIS2_PLACEMENT_3D('',#1269,#994,#995);
#850=AXIS2_PLACEMENT_3D('',#1270,#996,#997);
#851=AXIS2_PLACEMENT_3D('',#1272,#998,#999);
#852=AXIS2_PLACEMENT_3D('',#1274,#1000,#1001);
#853=AXIS2_PLACEMENT_3D('',#1276,#1002,#1003);
#854=AXIS2_PLACEMENT_3D('',#1277,#1004,#1005);
#855=AXIS2_PLACEMENT_3D('',#1279,#1006,#1007);
#856=AXIS2_PLACEMENT_3D('',#1281,#1008,#1009);
#857=AXIS2_PLACEMENT_3D('',#1283,#1010,#1011);
#858=AXIS2_PLACEMENT_3D('',#1288,#1013,#1014);
#859=AXIS2_PLACEMENT_3D('',#1290,#1015,#1016);
#860=AXIS2_PLACEMENT_3D('',#1292,#1017,#1018);
#861=AXIS2_PLACEMENT_3D('',#1296,#1020,#1021);
#862=AXIS2_PLACEMENT_3D('',#1298,#1022,#1023);
#863=AXIS2_PLACEMENT_3D('',#1300,#1024,#1025);
#864=AXIS2_PLACEMENT_3D('',#1304,#1027,#1028);
#865=AXIS2_PLACEMENT_3D('',#1306,#1029,#1030);
#866=AXIS2_PLACEMENT_3D('',#1308,#1031,#1032);
#867=AXIS2_PLACEMENT_3D('',#1312,#1034,#1035);
#868=AXIS2_PLACEMENT_3D('',#1314,#1036,#1037);
#869=AXIS2_PLACEMENT_3D('',#1316,#1038,#1039);
#870=AXIS2_PLACEMENT_3D('',#1320,#1041,#1042);
#871=AXIS2_PLACEMENT_3D('',#1322,#1043,#1044);
#872=AXIS2_PLACEMENT_3D('',#1324,#1045,#1046);
#873=AXIS2_PLACEMENT_3D('',#1328,#1048,#1049);
#874=AXIS2_PLACEMENT_3D('',#1330,#1050,#1051);
#875=AXIS2_PLACEMENT_3D('',#1332,#1052,#1053);
#876=AXIS2_PLACEMENT_3D('',#1336,#1055,#1056);
#877=AXIS2_PLACEMENT_3D('',#1338,#1057,#1058);
#878=AXIS2_PLACEMENT_3D('',#1340,#1059,#1060);
#879=AXIS2_PLACEMENT_3D('',#1344,#1062,#1063);
#880=AXIS2_PLACEMENT_3D('',#1346,#1064,#1065);
#881=AXIS2_PLACEMENT_3D('',#1348,#1066,#1067);
#882=AXIS2_PLACEMENT_3D('',#1349,#1068,#1069);
#883=AXIS2_PLACEMENT_3D('',#1351,#1070,#1071);
#884=AXIS2_PLACEMENT_3D('',#1354,#1074,#1075);
#885=AXIS2_PLACEMENT_3D('',#1357,#1078,#1079);
#886=AXIS2_PLACEMENT_3D('',#1360,#1082,#1083);
#887=AXIS2_PLACEMENT_3D('',#1361,#1084,#1085);
#888=AXIS2_PLACEMENT_3D('',#1363,#1086,#1087);
#889=AXIS2_PLACEMENT_3D('',#1365,#1088,#1089);
#890=AXIS2_PLACEMENT_3D('',#1366,#1090,#1091);
#891=AXIS2_PLACEMENT_3D('',#1368,#1092,#1093);
#892=AXIS2_PLACEMENT_3D('',#1371,#1096,#1097);
#893=AXIS2_PLACEMENT_3D('',#1372,#1098,#1099);
#894=AXIS2_PLACEMENT_3D('',#1374,#1100,#1101);
#895=AXIS2_PLACEMENT_3D('',#1375,#1102,#1103);
#896=AXIS2_PLACEMENT_3D('',#1377,#1104,#1105);
#897=AXIS2_PLACEMENT_3D('',#1378,#1106,#1107);
#898=AXIS2_PLACEMENT_3D('',#1380,#1108,#1109);
#899=AXIS2_PLACEMENT_3D('',#1383,#1112,#1113);
#900=AXIS2_PLACEMENT_3D('',#1386,#1116,#1117);
#901=AXIS2_PLACEMENT_3D('',#1389,#1120,#1121);
#902=AXIS2_PLACEMENT_3D('',#1392,#1124,#1125);
#903=AXIS2_PLACEMENT_3D('',#1395,#1128,#1129);
#904=AXIS2_PLACEMENT_3D('',#1398,#1132,#1133);
#905=AXIS2_PLACEMENT_3D('',#1401,#1136,#1137);
#906=AXIS2_PLACEMENT_3D('',#1404,#1140,#1141);
#907=AXIS2_PLACEMENT_3D('',#1407,#1144,#1145);
#908=AXIS2_PLACEMENT_3D('',#1410,#1148,#1149);
#909=AXIS2_PLACEMENT_3D('',#1413,#1152,#1153);
#910=AXIS2_PLACEMENT_3D('',#1414,#1154,#1155);
#911=AXIS2_PLACEMENT_3D('',#1417,#1158,#1159);
#912=AXIS2_PLACEMENT_3D('',#1418,#1160,#1161);
#913=AXIS2_PLACEMENT_3D('',#1419,#1162,#1163);
#914=AXIS2_PLACEMENT_3D('',#1420,#1164,#1165);
#915=AXIS2_PLACEMENT_3D('',#1421,#1166,#1167);
#916=AXIS2_PLACEMENT_3D('',#1422,#1168,#1169);
#917=AXIS2_PLACEMENT_3D('',#1423,#1170,#1171);
#918=AXIS2_PLACEMENT_3D('',#1424,#1172,#1173);
#919=AXIS2_PLACEMENT_3D('',#1425,#1174,#1175);
#920=AXIS2_PLACEMENT_3D('',#1426,#1176,#1177);
#921=AXIS2_PLACEMENT_3D('',#1427,#1178,#1179);
#922=AXIS2_PLACEMENT_3D('',#1428,#1180,#1181);
#923=AXIS2_PLACEMENT_3D('',#1429,#1182,#1183);
#924=AXIS2_PLACEMENT_3D('',#1430,#1184,#1185);
#925=AXIS2_PLACEMENT_3D('',#1431,#1186,#1187);
#926=AXIS2_PLACEMENT_3D('',#1432,#1188,#1189);
#927=AXIS2_PLACEMENT_3D('',#1433,#1190,#1191);
#928=AXIS2_PLACEMENT_3D('',#1434,#1192,#1193);
#929=AXIS2_PLACEMENT_3D('',#1435,#1194,#1195);
#930=AXIS2_PLACEMENT_3D('',#1436,#1196,#1197);
#931=AXIS2_PLACEMENT_3D('',#1437,#1198,#1199);
#932=DIRECTION('',(0.,0.,1.));
#933=DIRECTION('',(1.,0.,0.));
#934=DIRECTION('',(0.,1.,0.));
#935=DIRECTION('',(-1.,0.,0.));
#936=DIRECTION('',(0.,1.,0.));
#937=DIRECTION('',(0.,0.,1.));
#938=DIRECTION('',(0.,1.,0.));
#939=DIRECTION('',(0.,0.,1.));
#940=DIRECTION('',(0.,1.,0.));
#941=DIRECTION('',(0.,0.,1.));
#942=DIRECTION('',(0.,1.,0.));
#943=DIRECTION('',(0.,0.,1.));
#944=DIRECTION('',(0.923689419223824,0.,-0.38314208436813));
#945=DIRECTION('',(0.,1.,0.));
#946=DIRECTION('',(0.,0.,1.));
#947=DIRECTION('',(0.,-1.,0.));
#948=DIRECTION('',(0.,0.,-1.));
#949=DIRECTION('',(0.,1.,0.));
#950=DIRECTION('',(0.,0.,1.));
#951=DIRECTION('',(0.887239978530858,0.,-0.461308162182898));
#952=DIRECTION('',(0.,1.,0.));
#953=DIRECTION('',(0.,0.,1.));
#954=DIRECTION('',(0.,1.,0.));
#955=DIRECTION('',(0.,0.,1.));
#956=DIRECTION('',(0.,1.,0.));
#957=DIRECTION('',(0.,0.,1.));
#958=DIRECTION('',(-0.38314208436813,0.,-0.923689419223824));
#959=DIRECTION('',(0.,1.,0.));
#960=DIRECTION('',(0.,0.,1.));
#961=DIRECTION('',(0.,-1.,0.));
#962=DIRECTION('',(0.,0.,-1.));
#963=DIRECTION('',(0.,1.,0.));
#964=DIRECTION('',(0.,0.,1.));
#965=DIRECTION('',(-0.461308162182898,0.,-0.887239978530858));
#966=DIRECTION('',(0.,1.,0.));
#967=DIRECTION('',(0.,0.,1.));
#968=DIRECTION('',(0.,1.,0.));
#969=DIRECTION('',(0.,0.,1.));
#970=DIRECTION('',(0.,1.,0.));
#971=DIRECTION('',(0.,0.,1.));
#972=DIRECTION('',(-0.923689419223824,0.,0.38314208436813));
#973=DIRECTION('',(0.,1.,0.));
#974=DIRECTION('',(0.,0.,1.));
#975=DIRECTION('',(0.,-1.,0.));
#976=DIRECTION('',(0.,0.,-1.));
#977=DIRECTION('',(0.,1.,0.));
#978=DIRECTION('',(0.,0.,1.));
#979=DIRECTION('',(-0.887239978530858,0.,0.461308162182898));
#980=DIRECTION('',(0.,1.,0.));
#981=DIRECTION('',(0.,0.,1.));
#982=DIRECTION('',(0.,1.,0.));
#983=DIRECTION('',(0.,0.,1.));
#984=DIRECTION('',(0.,1.,0.));
#985=DIRECTION('',(0.,0.,1.));
#986=DIRECTION('',(0.38314208436813,0.,0.923689419223824));
#987=DIRECTION('',(0.,1.,0.));
#988=DIRECTION('',(0.,0.,1.));
#989=DIRECTION('',(0.,-1.,0.));
#990=DIRECTION('',(0.,0.,-1.));
#991=DIRECTION('',(0.,1.,0.));
#992=DIRECTION('',(0.,0.,1.));
#993=DIRECTION('',(0.461308162182898,0.,0.887239978530858));
#994=DIRECTION('',(0.,1.,0.));
#995=DIRECTION('',(0.,0.,1.));
#996=DIRECTION('',(0.,1.,0.));
#997=DIRECTION('',(0.,0.,1.));
#998=DIRECTION('',(0.,1.,0.));
#999=DIRECTION('',(0.,0.,1.));
#1000=DIRECTION('',(0.,1.,0.));
#1001=DIRECTION('',(0.,0.,1.));
#1002=DIRECTION('',(0.,1.,0.));
#1003=DIRECTION('',(-1.,0.,0.));
#1004=DIRECTION('',(0.,1.,0.));
#1005=DIRECTION('',(0.,0.,1.));
#1006=DIRECTION('',(0.,1.,0.));
#1007=DIRECTION('',(0.,0.,1.));
#1008=DIRECTION('',(0.,1.,0.));
#1009=DIRECTION('',(0.,0.,1.));
#1010=DIRECTION('',(0.,1.,0.));
#1011=DIRECTION('',(0.,0.,1.));
#1012=DIRECTION('',(0.923689419223824,0.,-0.38314208436813));
#1013=DIRECTION('',(0.,1.,0.));
#1014=DIRECTION('',(0.,0.,1.));
#1015=DIRECTION('',(0.,1.,0.));
#1016=DIRECTION('',(0.,0.,1.));
#1017=DIRECTION('',(0.,1.,0.));
#1018=DIRECTION('',(0.,0.,1.));
#1019=DIRECTION('',(0.461308162182898,0.,0.887239978530858));
#1020=DIRECTION('',(0.,1.,0.));
#1021=DIRECTION('',(0.,0.,1.));
#1022=DIRECTION('',(0.,1.,0.));
#1023=DIRECTION('',(0.,0.,1.));
#1024=DIRECTION('',(0.,1.,0.));
#1025=DIRECTION('',(0.,0.,1.));
#1026=DIRECTION('',(0.38314208436813,0.,0.923689419223824));
#1027=DIRECTION('',(0.,1.,0.));
#1028=DIRECTION('',(0.,0.,1.));
#1029=DIRECTION('',(0.,1.,0.));
#1030=DIRECTION('',(0.,0.,1.));
#1031=DIRECTION('',(0.,1.,0.));
#1032=DIRECTION('',(0.,0.,1.));
#1033=DIRECTION('',(-0.887239978530858,0.,0.461308162182898));
#1034=DIRECTION('',(0.,1.,0.));
#1035=DIRECTION('',(0.,0.,1.));
#1036=DIRECTION('',(0.,1.,0.));
#1037=DIRECTION('',(0.,0.,1.));
#1038=DIRECTION('',(0.,1.,0.));
#1039=DIRECTION('',(0.,0.,1.));
#1040=DIRECTION('',(-0.923689419223824,0.,0.38314208436813));
#1041=DIRECTION('',(0.,1.,0.));
#1042=DIRECTION('',(0.,0.,1.));
#1043=DIRECTION('',(0.,1.,0.));
#1044=DIRECTION('',(0.,0.,1.));
#1045=DIRECTION('',(0.,1.,0.));
#1046=DIRECTION('',(0.,0.,1.));
#1047=DIRECTION('',(-0.461308162182898,0.,-0.887239978530858));
#1048=DIRECTION('',(0.,1.,0.));
#1049=DIRECTION('',(0.,0.,1.));
#1050=DIRECTION('',(0.,1.,0.));
#1051=DIRECTION('',(0.,0.,1.));
#1052=DIRECTION('',(0.,1.,0.));
#1053=DIRECTION('',(0.,0.,1.));
#1054=DIRECTION('',(-0.38314208436813,0.,-0.923689419223824));
#1055=DIRECTION('',(0.,1.,0.));
#1056=DIRECTION('',(0.,0.,1.));
#1057=DIRECTION('',(0.,1.,0.));
#1058=DIRECTION('',(0.,0.,1.));
#1059=DIRECTION('',(0.,1.,0.));
#1060=DIRECTION('',(0.,0.,1.));
#1061=DIRECTION('',(0.887239978530858,0.,-0.461308162182898));
#1062=DIRECTION('',(0.,1.,0.));
#1063=DIRECTION('',(0.,0.,1.));
#1064=DIRECTION('',(0.,1.,0.));
#1065=DIRECTION('',(0.,0.,1.));
#1066=DIRECTION('',(0.,1.,0.));
#1067=DIRECTION('',(0.,0.,1.));
#1068=DIRECTION('',(0.,1.,0.));
#1069=DIRECTION('',(0.,0.,1.));
#1070=DIRECTION('',(0.,-1.,0.));
#1071=DIRECTION('',(0.,0.,-1.));
#1072=DIRECTION('',(0.,-1.,0.));
#1073=DIRECTION('',(0.,-1.,0.));
#1074=DIRECTION('',(0.,-1.,0.));
#1075=DIRECTION('',(0.,0.,-1.));
#1076=DIRECTION('',(0.,-1.,0.));
#1077=DIRECTION('',(0.,-1.,0.));
#1078=DIRECTION('',(0.,-1.,0.));
#1079=DIRECTION('',(0.,0.,-1.));
#1080=DIRECTION('',(0.,-1.,0.));
#1081=DIRECTION('',(0.,-1.,0.));
#1082=DIRECTION('',(0.,1.,0.));
#1083=DIRECTION('',(-1.,0.,0.));
#1084=DIRECTION('',(0.,1.,0.));
#1085=DIRECTION('',(0.,0.,1.));
#1086=DIRECTION('',(0.,-1.,0.));
#1087=DIRECTION('',(0.,0.,-1.));
#1088=DIRECTION('',(0.,-1.,0.));
#1089=DIRECTION('',(0.,0.,-1.));
#1090=DIRECTION('',(0.,1.,0.));
#1091=DIRECTION('',(0.,0.,1.));
#1092=DIRECTION('',(0.,-1.,0.));
#1093=DIRECTION('',(0.,0.,-1.));
#1094=DIRECTION('',(0.,-1.,0.));
#1095=DIRECTION('',(0.,-1.,0.));
#1096=DIRECTION('',(0.,-1.,0.));
#1097=DIRECTION('',(0.,0.,-1.));
#1098=DIRECTION('',(0.,-1.,0.));
#1099=DIRECTION('',(0.,0.,-1.));
#1100=DIRECTION('',(0.,-1.,0.));
#1101=DIRECTION('',(1.,0.,0.));
#1102=DIRECTION('',(0.,-1.,0.));
#1103=DIRECTION('',(0.,0.,-1.));
#1104=DIRECTION('',(0.,1.,0.));
#1105=DIRECTION('',(0.,0.,1.));
#1106=DIRECTION('',(0.,1.,0.));
#1107=DIRECTION('',(0.,0.,1.));
#1108=DIRECTION('',(-0.887239978530858,0.,0.461308162182898));
#1109=DIRECTION('',(0.461308162182898,0.,0.887239978530858));
#1110=DIRECTION('',(0.,1.,0.));
#1111=DIRECTION('',(0.,1.,0.));
#1112=DIRECTION('',(0.,-1.,0.));
#1113=DIRECTION('',(0.,0.,-1.));
#1114=DIRECTION('',(0.,-1.,0.));
#1115=DIRECTION('',(0.,-1.,0.));
#1116=DIRECTION('',(0.38314208436813,0.,0.923689419223824));
#1117=DIRECTION('',(0.923689419223824,0.,-0.38314208436813));
#1118=DIRECTION('',(0.,-1.,0.));
#1119=DIRECTION('',(0.,-1.,0.));
#1120=DIRECTION('',(0.461308162182898,0.,0.887239978530858));
#1121=DIRECTION('',(0.887239978530858,0.,-0.461308162182898));
#1122=DIRECTION('',(0.,1.,0.));
#1123=DIRECTION('',(0.,1.,0.));
#1124=DIRECTION('',(0.,-1.,0.));
#1125=DIRECTION('',(0.,0.,-1.));
#1126=DIRECTION('',(0.,-1.,0.));
#1127=DIRECTION('',(0.,-1.,0.));
#1128=DIRECTION('',(0.923689419223824,0.,-0.38314208436813));
#1129=DIRECTION('',(-0.38314208436813,0.,-0.923689419223824));
#1130=DIRECTION('',(0.,-1.,0.));
#1131=DIRECTION('',(0.,-1.,0.));
#1132=DIRECTION('',(0.887239978530858,0.,-0.461308162182898));
#1133=DIRECTION('',(-0.461308162182898,0.,-0.887239978530858));
#1134=DIRECTION('',(0.,1.,0.));
#1135=DIRECTION('',(0.,1.,0.));
#1136=DIRECTION('',(0.,-1.,0.));
#1137=DIRECTION('',(0.,0.,-1.));
#1138=DIRECTION('',(0.,-1.,0.));
#1139=DIRECTION('',(0.,-1.,0.));
#1140=DIRECTION('',(-0.38314208436813,0.,-0.923689419223824));
#1141=DIRECTION('',(-0.923689419223824,0.,0.38314208436813));
#1142=DIRECTION('',(0.,-1.,0.));
#1143=DIRECTION('',(0.,-1.,0.));
#1144=DIRECTION('',(-0.461308162182898,0.,-0.887239978530858));
#1145=DIRECTION('',(-0.887239978530858,0.,0.461308162182898));
#1146=DIRECTION('',(0.,1.,0.));
#1147=DIRECTION('',(0.,1.,0.));
#1148=DIRECTION('',(0.,-1.,0.));
#1149=DIRECTION('',(0.,0.,-1.));
#1150=DIRECTION('',(0.,-1.,0.));
#1151=DIRECTION('',(0.,-1.,0.));
#1152=DIRECTION('',(0.,-1.,0.));
#1153=DIRECTION('',(0.,0.,-1.));
#1154=DIRECTION('',(-0.923689419223824,0.,0.38314208436813));
#1155=DIRECTION('',(0.38314208436813,0.,0.923689419223824));
#1156=DIRECTION('',(0.,-1.,0.));
#1157=DIRECTION('',(0.,-1.,0.));
#1158=DIRECTION('',(0.,-1.,0.));
#1159=DIRECTION('',(0.,0.,-1.));
#1160=DIRECTION('',(0.,-1.,0.));
#1161=DIRECTION('',(0.,0.,-1.));
#1162=DIRECTION('',(0.,-1.,0.));
#1163=DIRECTION('',(0.,0.,-1.));
#1164=DIRECTION('',(0.,-1.,0.));
#1165=DIRECTION('',(0.,0.,-1.));
#1166=DIRECTION('',(0.,1.,0.));
#1167=DIRECTION('',(-1.,0.,0.));
#1168=DIRECTION('',(0.,-1.,0.));
#1169=DIRECTION('',(0.,0.,-1.));
#1170=DIRECTION('',(0.,-1.,0.));
#1171=DIRECTION('',(0.,0.,-1.));
#1172=DIRECTION('',(0.,-1.,0.));
#1173=DIRECTION('',(0.,0.,-1.));
#1174=DIRECTION('',(0.,-1.,0.));
#1175=DIRECTION('',(0.,0.,-1.));
#1176=DIRECTION('',(0.,-1.,0.));
#1177=DIRECTION('',(0.,0.,-1.));
#1178=DIRECTION('',(0.,-1.,0.));
#1179=DIRECTION('',(0.,0.,-1.));
#1180=DIRECTION('',(0.,-1.,0.));
#1181=DIRECTION('',(0.,0.,-1.));
#1182=DIRECTION('',(0.,-1.,0.));
#1183=DIRECTION('',(0.,0.,-1.));
#1184=DIRECTION('',(0.,-1.,0.));
#1185=DIRECTION('',(0.,0.,-1.));
#1186=DIRECTION('',(0.,-1.,0.));
#1187=DIRECTION('',(0.,0.,-1.));
#1188=DIRECTION('',(0.,-1.,0.));
#1189=DIRECTION('',(0.,0.,-1.));
#1190=DIRECTION('',(0.,-1.,0.));
#1191=DIRECTION('',(0.,0.,-1.));
#1192=DIRECTION('',(0.,-1.,0.));
#1193=DIRECTION('',(0.,0.,-1.));
#1194=DIRECTION('',(0.,-1.,0.));
#1195=DIRECTION('',(0.,0.,-1.));
#1196=DIRECTION('',(0.,-1.,0.));
#1197=DIRECTION('',(0.,0.,-1.));
#1198=DIRECTION('',(0.,-1.,0.));
#1199=DIRECTION('',(0.,0.,-1.));
#1200=CARTESIAN_POINT('',(0.,0.,0.));
#1201=CARTESIAN_POINT('',(0.,0.0393,0.));
#1202=CARTESIAN_POINT('',(-0.0138518158046896,0.0393,0.0380575511418293));
#1203=CARTESIAN_POINT('',(-0.0138518158046896,0.0393,0.0402075511418293));
#1204=CARTESIAN_POINT('',(0.0380575511418293,0.0393,0.0138518158046896));
#1205=CARTESIAN_POINT('',(0.0380575511418293,0.0393,0.0160018158046896));
#1206=CARTESIAN_POINT('',(6.03683769639929E-16,0.0393,4.33680868996748E-19));
#1207=CARTESIAN_POINT('',(-0.0351895230311104,0.0393,-0.0296259593742205));
#1208=CARTESIAN_POINT('',(-0.045999938184815,0.0393,7.54121555132097E-5));
#1209=CARTESIAN_POINT('',(-0.0429999422162401,0.0393,7.04939714580005E-5));
#1210=CARTESIAN_POINT('',(-0.0418505159631357,0.0393,0.00284156222912947));
#1211=CARTESIAN_POINT('',(-0.0403910356757131,0.0393,0.00223617657917023));
#1212=CARTESIAN_POINT('',(-0.0398547947360384,0.0393,0.0020137463260196));
#1213=CARTESIAN_POINT('',(-0.038705368482934,0.0393,0.00478481458369107));
#1214=CARTESIAN_POINT('',(-0.0357280324457852,0.0393,0.00441675192340715));
#1215=CARTESIAN_POINT('',(0.,0.0393,2.20436423846524E-18));
#1216=CARTESIAN_POINT('',(-0.0263489648421905,0.0393,0.024530227307243));
#1217=CARTESIAN_POINT('',(-0.028544711912373,0.0393,0.0265744129161799));
#1218=CARTESIAN_POINT('',(-0.0271607874258244,0.0393,0.0292361328517725));
#1219=CARTESIAN_POINT('',(-0.0276758679170616,0.0393,0.0295039418330386));
#1220=CARTESIAN_POINT('',(-0.0290777560754937,0.0393,0.0302328342021845));
#1221=CARTESIAN_POINT('',(-0.027693831588945,0.0393,0.0328945541377771));
#1222=CARTESIAN_POINT('',(-0.0296259593742203,0.0393,0.0351895230311104));
#1223=CARTESIAN_POINT('',(-2.60208521396521E-18,0.0393,-1.38777878078145E-17));
#1224=CARTESIAN_POINT('',(7.54121555132081E-5,0.0393,0.045999938184815));
#1225=CARTESIAN_POINT('',(7.04939714579987E-5,0.0393,0.0429999422162401));
#1226=CARTESIAN_POINT('',(0.00284156222912947,0.0393,0.0418505159631357));
#1227=CARTESIAN_POINT('',(0.00223617657917024,0.0393,0.0403910356757131));
#1228=CARTESIAN_POINT('',(0.0020137463260196,0.0393,0.0398547947360384));
#1229=CARTESIAN_POINT('',(0.00478481458369108,0.0393,0.038705368482934));
#1230=CARTESIAN_POINT('',(0.00441675192340715,0.0393,0.0357280324457852));
#1231=CARTESIAN_POINT('',(0.,0.0393,2.20436423846524E-18));
#1232=CARTESIAN_POINT('',(0.024530227307243,0.0393,0.0263489648421905));
#1233=CARTESIAN_POINT('',(0.0265744129161799,0.0393,0.028544711912373));
#1234=CARTESIAN_POINT('',(0.0292361328517725,0.0393,0.0271607874258244));
#1235=CARTESIAN_POINT('',(0.0295039418330386,0.0393,0.0276758679170616));
#1236=CARTESIAN_POINT('',(0.0302328342021846,0.0393,0.0290777560754939));
#1237=CARTESIAN_POINT('',(0.0328945541377772,0.0393,0.0276938315889451));
#1238=CARTESIAN_POINT('',(0.0351895230311104,0.0393,0.0296259593742204));
#1239=CARTESIAN_POINT('',(-4.37150315946155E-16,0.0393,4.98509198300737E-18));
#1240=CARTESIAN_POINT('',(0.045999938184815,0.0393,-7.54121555132175E-5));
#1241=CARTESIAN_POINT('',(0.0429999422162401,0.0393,-7.04939714580074E-5));
#1242=CARTESIAN_POINT('',(0.0418505159631357,0.0393,-0.00284156222912948));
#1243=CARTESIAN_POINT('',(0.0403910356757131,0.0393,-0.00223617657917024));
#1244=CARTESIAN_POINT('',(0.0398547947360384,0.0393,-0.00201374632601961));
#1245=CARTESIAN_POINT('',(0.038705368482934,0.0393,-0.00478481458369108));
#1246=CARTESIAN_POINT('',(0.0357280324457852,0.0393,-0.00441675192340715));
#1247=CARTESIAN_POINT('',(0.,0.0393,2.20436423846524E-18));
#1248=CARTESIAN_POINT('',(0.0263489648421905,0.0393,-0.024530227307243));
#1249=CARTESIAN_POINT('',(0.028544711912373,0.0393,-0.0265744129161799));
#1250=CARTESIAN_POINT('',(0.0271607874258244,0.0393,-0.0292361328517725));
#1251=CARTESIAN_POINT('',(0.0276758679170616,0.0393,-0.0295039418330386));
#1252=CARTESIAN_POINT('',(0.0290777560754937,0.0393,-0.0302328342021845));
#1253=CARTESIAN_POINT('',(0.027693831588945,0.0393,-0.0328945541377771));
#1254=CARTESIAN_POINT('',(0.0296259593742203,0.0393,-0.0351895230311104));
#1255=CARTESIAN_POINT('',(-3.03576608295941E-17,0.0393,2.08166817117217E-17));
#1256=CARTESIAN_POINT('',(-7.54121555132132E-5,0.0393,-0.045999938184815));
#1257=CARTESIAN_POINT('',(-7.04939714580057E-5,0.0393,-0.0429999422162401));
#1258=CARTESIAN_POINT('',(-0.00284156222912948,0.0393,-0.0418505159631357));
#1259=CARTESIAN_POINT('',(-0.00223617657917023,0.0393,-0.0403910356757131));
#1260=CARTESIAN_POINT('',(-0.0020137463260196,0.0393,-0.0398547947360384));
#1261=CARTESIAN_POINT('',(-0.00478481458369107,0.0393,-0.038705368482934));
#1262=CARTESIAN_POINT('',(-0.00441675192340715,0.0393,-0.0357280324457852));
#1263=CARTESIAN_POINT('',(0.,0.0393,2.20436423846524E-18));
#1264=CARTESIAN_POINT('',(-0.024530227307243,0.0393,-0.0263489648421905));
#1265=CARTESIAN_POINT('',(-0.0265744129161799,0.0393,-0.028544711912373));
#1266=CARTESIAN_POINT('',(-0.0292361328517725,0.0393,-0.0271607874258244));
#1267=CARTESIAN_POINT('',(-0.0295039418330386,0.0393,-0.0276758679170616));
#1268=CARTESIAN_POINT('',(-0.0302328342021846,0.0393,-0.0290777560754939));
#1269=CARTESIAN_POINT('',(-0.0328945541377772,0.0393,-0.0276938315889452));
#1270=CARTESIAN_POINT('',(0.,0.0393,1.22464679914735E-18));
#1271=CARTESIAN_POINT('',(0.,0.0393,0.01));
#1272=CARTESIAN_POINT('',(0.0138518158046896,0.0393,-0.0380575511418293));
#1273=CARTESIAN_POINT('',(0.0138518158046896,0.0393,-0.0359075511418293));
#1274=CARTESIAN_POINT('',(-0.0380575511418293,0.0393,-0.0138518158046896));
#1275=CARTESIAN_POINT('',(-0.0380575511418293,0.0393,-0.0117018158046896));
#1276=CARTESIAN_POINT('',(0.,0.022,0.));
#1277=CARTESIAN_POINT('',(-0.0138518158046896,0.022,0.0380575511418293));
#1278=CARTESIAN_POINT('',(-0.0138518158046896,0.022,0.0402075511418293));
#1279=CARTESIAN_POINT('',(0.0138518158046896,0.022,-0.0380575511418293));
#1280=CARTESIAN_POINT('',(0.0138518158046896,0.022,-0.0359075511418293));
#1281=CARTESIAN_POINT('',(0.0380575511418293,0.022,0.0138518158046896));
#1282=CARTESIAN_POINT('',(0.0380575511418293,0.022,0.0160018158046896));
#1283=CARTESIAN_POINT('',(0.,0.022,2.0818995585505E-18));
#1284=CARTESIAN_POINT('',(0.,0.022,0.034));
#1285=CARTESIAN_POINT('',(-0.0403910356757131,0.022,0.00223617657917023));
#1286=CARTESIAN_POINT('',(-0.0418505159631357,0.022,0.00284156222912947));
#1287=CARTESIAN_POINT('',(-0.0398547947360384,0.022,0.0020137463260196));
#1288=CARTESIAN_POINT('',(-0.0429999422162401,0.022,7.04939714580005E-5));
#1289=CARTESIAN_POINT('',(-0.045999938184815,0.022,7.54121555132097E-5));
#1290=CARTESIAN_POINT('',(6.03683769639929E-16,0.022,4.33680868996748E-19));
#1291=CARTESIAN_POINT('',(-0.0351895230311104,0.022,-0.0296259593742205));
#1292=CARTESIAN_POINT('',(-0.0328945541377772,0.022,-0.0276938315889452));
#1293=CARTESIAN_POINT('',(-0.0302328342021846,0.022,-0.0290777560754939));
#1294=CARTESIAN_POINT('',(-0.0295039418330386,0.022,-0.0276758679170616));
#1295=CARTESIAN_POINT('',(-0.0292361328517725,0.022,-0.0271607874258244));
#1296=CARTESIAN_POINT('',(-0.0265744129161799,0.022,-0.028544711912373));
#1297=CARTESIAN_POINT('',(-0.024530227307243,0.022,-0.0263489648421905));
#1298=CARTESIAN_POINT('',(0.,0.022,2.20436423846524E-18));
#1299=CARTESIAN_POINT('',(-0.00441675192340715,0.022,-0.0357280324457852));
#1300=CARTESIAN_POINT('',(-0.00478481458369107,0.022,-0.038705368482934));
#1301=CARTESIAN_POINT('',(-0.0020137463260196,0.022,-0.0398547947360384));
#1302=CARTESIAN_POINT('',(-0.00223617657917023,0.022,-0.0403910356757131));
#1303=CARTESIAN_POINT('',(-0.00284156222912948,0.022,-0.0418505159631357));
#1304=CARTESIAN_POINT('',(-7.04939714580057E-5,0.022,-0.0429999422162401));
#1305=CARTESIAN_POINT('',(-7.54121555132132E-5,0.022,-0.045999938184815));
#1306=CARTESIAN_POINT('',(-3.03576608295941E-17,0.022,2.08166817117217E-17));
#1307=CARTESIAN_POINT('',(0.0296259593742203,0.022,-0.0351895230311104));
#1308=CARTESIAN_POINT('',(0.027693831588945,0.022,-0.0328945541377771));
#1309=CARTESIAN_POINT('',(0.0290777560754937,0.022,-0.0302328342021845));
#1310=CARTESIAN_POINT('',(0.0276758679170616,0.022,-0.0295039418330386));
#1311=CARTESIAN_POINT('',(0.0271607874258244,0.022,-0.0292361328517725));
#1312=CARTESIAN_POINT('',(0.028544711912373,0.022,-0.0265744129161799));
#1313=CARTESIAN_POINT('',(0.0263489648421905,0.022,-0.024530227307243));
#1314=CARTESIAN_POINT('',(0.,0.022,2.20436423846524E-18));
#1315=CARTESIAN_POINT('',(0.0357280324457852,0.022,-0.00441675192340715));
#1316=CARTESIAN_POINT('',(0.038705368482934,0.022,-0.00478481458369108));
#1317=CARTESIAN_POINT('',(0.0398547947360384,0.022,-0.00201374632601961));
#1318=CARTESIAN_POINT('',(0.0403910356757131,0.022,-0.00223617657917024));
#1319=CARTESIAN_POINT('',(0.0418505159631357,0.022,-0.00284156222912948));
#1320=CARTESIAN_POINT('',(0.0429999422162401,0.022,-7.04939714580074E-5));
#1321=CARTESIAN_POINT('',(0.045999938184815,0.022,-7.54121555132175E-5));
#1322=CARTESIAN_POINT('',(-4.37150315946155E-16,0.022,4.98509198300737E-18));
#1323=CARTESIAN_POINT('',(0.0351895230311104,0.022,0.0296259593742204));
#1324=CARTESIAN_POINT('',(0.0328945541377772,0.022,0.0276938315889451));
#1325=CARTESIAN_POINT('',(0.0302328342021846,0.022,0.0290777560754939));
#1326=CARTESIAN_POINT('',(0.0295039418330386,0.022,0.0276758679170616));
#1327=CARTESIAN_POINT('',(0.0292361328517725,0.022,0.0271607874258244));
#1328=CARTESIAN_POINT('',(0.0265744129161799,0.022,0.028544711912373));
#1329=CARTESIAN_POINT('',(0.024530227307243,0.022,0.0263489648421905));
#1330=CARTESIAN_POINT('',(0.,0.022,2.20436423846524E-18));
#1331=CARTESIAN_POINT('',(0.00441675192340715,0.022,0.0357280324457852));
#1332=CARTESIAN_POINT('',(0.00478481458369108,0.022,0.038705368482934));
#1333=CARTESIAN_POINT('',(0.0020137463260196,0.022,0.0398547947360384));
#1334=CARTESIAN_POINT('',(0.00223617657917024,0.022,0.0403910356757131));
#1335=CARTESIAN_POINT('',(0.00284156222912947,0.022,0.0418505159631357));
#1336=CARTESIAN_POINT('',(7.04939714579987E-5,0.022,0.0429999422162401));
#1337=CARTESIAN_POINT('',(7.54121555132081E-5,0.022,0.045999938184815));
#1338=CARTESIAN_POINT('',(-2.60208521396521E-18,0.022,-1.38777878078145E-17));
#1339=CARTESIAN_POINT('',(-0.0296259593742203,0.022,0.0351895230311104));
#1340=CARTESIAN_POINT('',(-0.027693831588945,0.022,0.0328945541377771));
#1341=CARTESIAN_POINT('',(-0.0290777560754937,0.022,0.0302328342021845));
#1342=CARTESIAN_POINT('',(-0.0276758679170616,0.022,0.0295039418330386));
#1343=CARTESIAN_POINT('',(-0.0271607874258244,0.022,0.0292361328517725));
#1344=CARTESIAN_POINT('',(-0.028544711912373,0.022,0.0265744129161799));
#1345=CARTESIAN_POINT('',(-0.0263489648421905,0.022,0.024530227307243));
#1346=CARTESIAN_POINT('',(0.,0.022,2.20436423846524E-18));
#1347=CARTESIAN_POINT('',(-0.0357280324457852,0.022,0.00441675192340715));
#1348=CARTESIAN_POINT('',(-0.038705368482934,0.022,0.00478481458369107));
#1349=CARTESIAN_POINT('',(-0.0380575511418293,0.022,-0.0138518158046896));
#1350=CARTESIAN_POINT('',(-0.0380575511418293,0.022,-0.0117018158046896));
#1351=CARTESIAN_POINT('',(0.,0.0393,2.20436423846524E-18));
#1352=CARTESIAN_POINT('',(0.024530227307243,0.0393,0.0263489648421905));
#1353=CARTESIAN_POINT('',(0.00441675192340715,0.0393,0.0357280324457852));
#1354=CARTESIAN_POINT('',(0.,0.0393,2.20436423846524E-18));
#1355=CARTESIAN_POINT('',(0.0263489648421905,0.0393,-0.024530227307243));
#1356=CARTESIAN_POINT('',(0.0357280324457852,0.0393,-0.00441675192340715));
#1357=CARTESIAN_POINT('',(0.,0.0393,2.20436423846524E-18));
#1358=CARTESIAN_POINT('',(-0.024530227307243,0.0393,-0.0263489648421905));
#1359=CARTESIAN_POINT('',(-0.00441675192340715,0.0393,-0.0357280324457852));
#1360=CARTESIAN_POINT('',(0.,0.0353,0.));
#1361=CARTESIAN_POINT('',(0.,0.0353,1.30118722409406E-18));
#1362=CARTESIAN_POINT('',(0.,0.0353,0.02125));
#1363=CARTESIAN_POINT('',(0.,0.0353,1.40834381901946E-18));
#1364=CARTESIAN_POINT('',(0.,0.0353,-0.023));
#1365=CARTESIAN_POINT('',(0.,0.0393,1.22464679914735E-18));
#1366=CARTESIAN_POINT('',(0.,0.03475,6.12323399573677E-19));
#1367=CARTESIAN_POINT('',(0.,0.03475,0.01));
#1368=CARTESIAN_POINT('',(0.,0.0393,2.20436423846524E-18));
#1369=CARTESIAN_POINT('',(-0.0357280324457852,0.0393,0.00441675192340715));
#1370=CARTESIAN_POINT('',(-0.0263489648421905,0.0393,0.024530227307243));
#1371=CARTESIAN_POINT('',(0.,0.0355,1.40834381901946E-18));
#1372=CARTESIAN_POINT('',(0.,0.035,1.40834381901946E-18));
#1373=CARTESIAN_POINT('',(0.,0.035,-0.023));
#1374=CARTESIAN_POINT('',(0.,0.035,0.));
#1375=CARTESIAN_POINT('',(0.,0.035,2.0818995585505E-18));
#1376=CARTESIAN_POINT('',(0.,0.035,-0.034));
#1377=CARTESIAN_POINT('',(0.,0.035,1.30118722409406E-18));
#1378=CARTESIAN_POINT('',(0.,0.03475,1.30118722409406E-18));
#1379=CARTESIAN_POINT('',(0.,0.03475,0.02125));
#1380=CARTESIAN_POINT('',(0.0295039418330386,0.0393,0.0276758679170616));
#1381=CARTESIAN_POINT('',(0.0292361328517725,0.022,0.0271607874258244));
#1382=CARTESIAN_POINT('',(0.0302328342021846,0.0393,0.0290777560754939));
#1383=CARTESIAN_POINT('',(-4.37150315946155E-16,0.0393,4.98509198300737E-18));
#1384=CARTESIAN_POINT('',(0.045999938184815,0.0393,-7.54121555132175E-5));
#1385=CARTESIAN_POINT('',(0.0351895230311104,0.0393,0.0296259593742204));
#1386=CARTESIAN_POINT('',(0.0403910356757131,0.0393,-0.00223617657917024));
#1387=CARTESIAN_POINT('',(0.0398547947360384,0.0393,-0.00201374632601961));
#1388=CARTESIAN_POINT('',(0.0418505159631357,0.0393,-0.00284156222912948));
#1389=CARTESIAN_POINT('',(0.0276758679170616,0.0393,-0.0295039418330386));
#1390=CARTESIAN_POINT('',(0.0290777560754937,0.0393,-0.0302328342021845));
#1391=CARTESIAN_POINT('',(0.0271607874258244,0.022,-0.0292361328517725));
#1392=CARTESIAN_POINT('',(-3.03576608295941E-17,0.0393,2.08166817117217E-17));
#1393=CARTESIAN_POINT('',(-7.54121555132132E-5,0.0393,-0.045999938184815));
#1394=CARTESIAN_POINT('',(0.0296259593742203,0.0393,-0.0351895230311104));
#1395=CARTESIAN_POINT('',(-0.00223617657917023,0.0393,-0.0403910356757131));
#1396=CARTESIAN_POINT('',(-0.00284156222912948,0.0393,-0.0418505159631357));
#1397=CARTESIAN_POINT('',(-0.0020137463260196,0.0393,-0.0398547947360384));
#1398=CARTESIAN_POINT('',(-0.0295039418330386,0.0393,-0.0276758679170616));
#1399=CARTESIAN_POINT('',(-0.0302328342021846,0.0393,-0.0290777560754939));
#1400=CARTESIAN_POINT('',(-0.0292361328517725,0.022,-0.0271607874258244));
#1401=CARTESIAN_POINT('',(6.03683769639929E-16,0.0393,4.33680868996748E-19));
#1402=CARTESIAN_POINT('',(-0.045999938184815,0.0393,7.54121555132097E-5));
#1403=CARTESIAN_POINT('',(-0.0351895230311104,0.0393,-0.0296259593742205));
#1404=CARTESIAN_POINT('',(-0.0403910356757131,0.0393,0.00223617657917023));
#1405=CARTESIAN_POINT('',(-0.0418505159631357,0.0393,0.00284156222912947));
#1406=CARTESIAN_POINT('',(-0.0398547947360384,0.0393,0.0020137463260196));
#1407=CARTESIAN_POINT('',(-0.0276758679170616,0.0393,0.0295039418330386));
#1408=CARTESIAN_POINT('',(-0.0271607874258244,0.022,0.0292361328517725));
#1409=CARTESIAN_POINT('',(-0.0290777560754937,0.0393,0.0302328342021845));
#1410=CARTESIAN_POINT('',(-2.60208521396521E-18,0.0393,-1.38777878078145E-17));
#1411=CARTESIAN_POINT('',(7.54121555132081E-5,0.0393,0.045999938184815));
#1412=CARTESIAN_POINT('',(-0.0296259593742203,0.0393,0.0351895230311104));
#1413=CARTESIAN_POINT('',(0.,0.0393,2.0818995585505E-18));
#1414=CARTESIAN_POINT('',(0.00223617657917024,0.0393,0.0403910356757131));
#1415=CARTESIAN_POINT('',(0.0020137463260196,0.0393,0.0398547947360384));
#1416=CARTESIAN_POINT('',(0.00284156222912947,0.0393,0.0418505159631357));
#1417=CARTESIAN_POINT('',(0.0380575511418293,0.0819,0.0138518158046896));
#1418=CARTESIAN_POINT('',(0.0138518158046896,0.0819,-0.0380575511418293));
#1419=CARTESIAN_POINT('',(-0.0380575511418293,0.0819,-0.0138518158046896));
#1420=CARTESIAN_POINT('',(-0.0138518158046896,0.0819,0.0380575511418293));
#1421=CARTESIAN_POINT('',(0.,0.03475,0.));
#1422=CARTESIAN_POINT('',(-0.0429999422162401,0.0393,7.04939714580005E-5));
#1423=CARTESIAN_POINT('',(-0.038705368482934,0.0393,0.00478481458369107));
#1424=CARTESIAN_POINT('',(-0.0328945541377772,0.0393,-0.0276938315889452));
#1425=CARTESIAN_POINT('',(-0.0265744129161799,0.0393,-0.028544711912373));
#1426=CARTESIAN_POINT('',(-7.04939714580057E-5,0.0393,-0.0429999422162401));
#1427=CARTESIAN_POINT('',(-0.00478481458369107,0.0393,-0.038705368482934));
#1428=CARTESIAN_POINT('',(0.027693831588945,0.0393,-0.0328945541377771));
#1429=CARTESIAN_POINT('',(0.028544711912373,0.0393,-0.0265744129161799));
#1430=CARTESIAN_POINT('',(0.038705368482934,0.0393,-0.00478481458369108));
#1431=CARTESIAN_POINT('',(0.0265744129161799,0.0393,0.028544711912373));
#1432=CARTESIAN_POINT('',(0.0429999422162401,0.0393,-7.04939714580074E-5));
#1433=CARTESIAN_POINT('',(0.0328945541377772,0.0393,0.0276938315889451));
#1434=CARTESIAN_POINT('',(0.00478481458369108,0.0393,0.038705368482934));
#1435=CARTESIAN_POINT('',(7.04939714579987E-5,0.0393,0.0429999422162401));
#1436=CARTESIAN_POINT('',(-0.028544711912373,0.0393,0.0265744129161799));
#1437=CARTESIAN_POINT('',(-0.027693831588945,0.0393,0.0328945541377771));
#1438=MECHANICAL_DESIGN_GEOMETRIC_PRESENTATION_REPRESENTATION('',(#811),
#1439);
#1439=(
GEOMETRIC_REPRESENTATION_CONTEXT(3)
GLOBAL_UNCERTAINTY_ASSIGNED_CONTEXT((#1440))
GLOBAL_UNIT_ASSIGNED_CONTEXT((#1443,#1442,#1441))
REPRESENTATION_CONTEXT('Mid Bearing Assembly','TOP_LEVEL_ASSEMBLY_PART')
);
#1440=UNCERTAINTY_MEASURE_WITH_UNIT(LENGTH_MEASURE(1.E-8),#1443,
'DISTANCE_ACCURACY_VALUE','Maximum Tolerance applied to model');
#1441=(
NAMED_UNIT(*)
SI_UNIT($,.STERADIAN.)
SOLID_ANGLE_UNIT()
);
#1442=(
NAMED_UNIT(*)
PLANE_ANGLE_UNIT()
SI_UNIT($,.RADIAN.)
);
#1443=(
LENGTH_UNIT()
NAMED_UNIT(*)
SI_UNIT($,.METRE.)
);
#1444=PRODUCT_DEFINITION_SHAPE('','',#1445);
#1445=PRODUCT_DEFINITION('','',#1447,#1446);
#1446=PRODUCT_DEFINITION_CONTEXT('',#1453,'design');
#1447=PRODUCT_DEFINITION_FORMATION_WITH_SPECIFIED_SOURCE('','',#1449,
 .NOT_KNOWN.);
#1448=PRODUCT_RELATED_PRODUCT_CATEGORY('','',(#1449));
#1449=PRODUCT('Mid Bearing Assembly','Mid Bearing Assembly',
'Mid Bearing Assembly',(#1451));
#1450=PRODUCT_CATEGORY('','');
#1451=PRODUCT_CONTEXT('',#1453,'mechanical');
#1452=APPLICATION_PROTOCOL_DEFINITION('international standard',
'ap242_managed_model_based_3d_engineering',2020,#1453);
#1453=APPLICATION_CONTEXT('managed model based 3d engineering');
ENDSEC;
END-ISO-10303-21;
