ISO-10303-21;
HEADER;
/* Generated by software containing ST-Developer
 * from STEP Tools, Inc. (www.steptools.com) 
 */
/* OPTION: using custom renumber hook */

FILE_DESCRIPTION(
/* description */ ('STEP AP242 Edition 2',
'CAx-IF Rec.Pracs.---Representation and Presentation of Product Manufa
cturing Information (PMI)---4.0---2014-10-13',
'CAx-IF Rec.Pracs.---3D Tessellated Geometry---0.4---2014-09-14','2;1',
'CAx-IF Rec.Pracs.---User Defined Attributes---1.5---2016-08-15'),
/* implementation_level */ '2;1');

FILE_NAME(
/* name */ 'Assembly 1 - Output Male',
/* time_stamp */ '2026-06-22T21:33:30Z',
/* author */ (''),
/* organization */ (''),
/* preprocessor_version */ 'ST-DEVELOPER v20',
/* originating_system */ 'ONSHAPE BY PTC INC, 1.216',
/* authorisation */ '  ');

FILE_SCHEMA (('AP242_MANAGED_MODEL_BASED_3D_ENGINEERING_MIM_LF { 1 0 10303 442 3 1 4 }'));
ENDSEC;

DATA;
#10=SHAPE_REPRESENTATION_RELATIONSHIP('','',#1021,#11);
#11=ADVANCED_BREP_SHAPE_REPRESENTATION('',(#1019),#1845);
#12=CONICAL_SURFACE('',#1181,0.03,0.785398163397448);
#13=CONICAL_SURFACE('',#1182,0.00375,0.785398163397448);
#14=CONICAL_SURFACE('',#1183,0.00375,0.785398163397448);
#15=CONICAL_SURFACE('',#1184,0.00375,0.785398163397449);
#16=CONICAL_SURFACE('',#1185,0.00375,0.785398163397449);
#17=CONICAL_SURFACE('',#1186,0.032,0.785398163397449);
#18=PLANE('',#1050);
#19=PLANE('',#1086);
#20=PLANE('',#1103);
#21=PLANE('',#1114);
#22=PLANE('',#1127);
#23=PLANE('',#1155);
#24=PLANE('',#1156);
#25=PLANE('',#1157);
#26=PLANE('',#1158);
#27=PLANE('',#1159);
#28=PLANE('',#1168);
#29=PLANE('',#1172);
#30=PLANE('',#1176);
#31=PLANE('',#1180);
#32=LINE('',#1571,#64);
#33=LINE('',#1576,#65);
#34=LINE('',#1580,#66);
#35=LINE('',#1585,#67);
#36=LINE('',#1589,#68);
#37=LINE('',#1594,#69);
#38=LINE('',#1598,#70);
#39=LINE('',#1603,#71);
#40=LINE('',#1610,#72);
#41=LINE('',#1614,#73);
#42=LINE('',#1678,#74);
#43=LINE('',#1682,#75);
#44=LINE('',#1692,#76);
#45=LINE('',#1693,#77);
#46=LINE('',#1704,#78);
#47=LINE('',#1705,#79);
#48=LINE('',#1707,#80);
#49=LINE('',#1711,#81);
#50=LINE('',#1716,#82);
#51=LINE('',#1717,#83);
#52=LINE('',#1727,#84);
#53=LINE('',#1731,#85);
#54=LINE('',#1733,#86);
#55=LINE('',#1737,#87);
#56=LINE('',#1747,#88);
#57=LINE('',#1748,#89);
#58=LINE('',#1753,#90);
#59=LINE('',#1757,#91);
#60=LINE('',#1759,#92);
#61=LINE('',#1763,#93);
#62=LINE('',#1773,#94);
#63=LINE('',#1774,#95);
#64=VECTOR('',#1215,1.);
#65=VECTOR('',#1218,1.);
#66=VECTOR('',#1223,1.);
#67=VECTOR('',#1226,1.);
#68=VECTOR('',#1231,1.);
#69=VECTOR('',#1234,1.);
#70=VECTOR('',#1239,1.);
#71=VECTOR('',#1242,1.);
#72=VECTOR('',#1249,1.);
#73=VECTOR('',#1252,1.);
#74=VECTOR('',#1323,1.);
#75=VECTOR('',#1326,1.);
#76=VECTOR('',#1341,1.);
#77=VECTOR('',#1342,1.);
#78=VECTOR('',#1355,1.);
#79=VECTOR('',#1356,1.);
#80=VECTOR('',#1359,1.);
#81=VECTOR('',#1362,1.);
#82=VECTOR('',#1367,1.);
#83=VECTOR('',#1368,1.);
#84=VECTOR('',#1385,1.);
#85=VECTOR('',#1388,1.);
#86=VECTOR('',#1391,1.);
#87=VECTOR('',#1394,1.);
#88=VECTOR('',#1409,1.);
#89=VECTOR('',#1410,1.);
#90=VECTOR('',#1417,1.);
#91=VECTOR('',#1420,1.);
#92=VECTOR('',#1423,1.);
#93=VECTOR('',#1426,1.);
#94=VECTOR('',#1441,1.);
#95=VECTOR('',#1442,1.);
#96=ORIENTED_EDGE('',*,*,#356,.T.);
#97=ORIENTED_EDGE('',*,*,#357,.T.);
#98=ORIENTED_EDGE('',*,*,#358,.T.);
#99=ORIENTED_EDGE('',*,*,#359,.T.);
#100=ORIENTED_EDGE('',*,*,#360,.T.);
#101=ORIENTED_EDGE('',*,*,#361,.T.);
#102=ORIENTED_EDGE('',*,*,#362,.T.);
#103=ORIENTED_EDGE('',*,*,#363,.T.);
#104=ORIENTED_EDGE('',*,*,#364,.T.);
#105=ORIENTED_EDGE('',*,*,#365,.T.);
#106=ORIENTED_EDGE('',*,*,#366,.T.);
#107=ORIENTED_EDGE('',*,*,#367,.F.);
#108=ORIENTED_EDGE('',*,*,#368,.T.);
#109=ORIENTED_EDGE('',*,*,#369,.T.);
#110=ORIENTED_EDGE('',*,*,#370,.T.);
#111=ORIENTED_EDGE('',*,*,#371,.F.);
#112=ORIENTED_EDGE('',*,*,#372,.T.);
#113=ORIENTED_EDGE('',*,*,#373,.T.);
#114=ORIENTED_EDGE('',*,*,#374,.T.);
#115=ORIENTED_EDGE('',*,*,#375,.F.);
#116=ORIENTED_EDGE('',*,*,#376,.T.);
#117=ORIENTED_EDGE('',*,*,#377,.T.);
#118=ORIENTED_EDGE('',*,*,#378,.T.);
#119=ORIENTED_EDGE('',*,*,#379,.F.);
#120=ORIENTED_EDGE('',*,*,#380,.F.);
#121=ORIENTED_EDGE('',*,*,#381,.T.);
#122=ORIENTED_EDGE('',*,*,#382,.T.);
#123=ORIENTED_EDGE('',*,*,#383,.T.);
#124=ORIENTED_EDGE('',*,*,#384,.T.);
#125=ORIENTED_EDGE('',*,*,#385,.T.);
#126=ORIENTED_EDGE('',*,*,#386,.T.);
#127=ORIENTED_EDGE('',*,*,#387,.T.);
#128=ORIENTED_EDGE('',*,*,#388,.T.);
#129=ORIENTED_EDGE('',*,*,#365,.F.);
#130=ORIENTED_EDGE('',*,*,#389,.T.);
#131=ORIENTED_EDGE('',*,*,#390,.T.);
#132=ORIENTED_EDGE('',*,*,#391,.T.);
#133=ORIENTED_EDGE('',*,*,#380,.T.);
#134=ORIENTED_EDGE('',*,*,#392,.T.);
#135=ORIENTED_EDGE('',*,*,#393,.T.);
#136=ORIENTED_EDGE('',*,*,#394,.T.);
#137=ORIENTED_EDGE('',*,*,#369,.F.);
#138=ORIENTED_EDGE('',*,*,#395,.T.);
#139=ORIENTED_EDGE('',*,*,#396,.T.);
#140=ORIENTED_EDGE('',*,*,#397,.T.);
#141=ORIENTED_EDGE('',*,*,#398,.T.);
#142=ORIENTED_EDGE('',*,*,#399,.T.);
#143=ORIENTED_EDGE('',*,*,#400,.T.);
#144=ORIENTED_EDGE('',*,*,#401,.T.);
#145=ORIENTED_EDGE('',*,*,#373,.F.);
#146=ORIENTED_EDGE('',*,*,#402,.T.);
#147=ORIENTED_EDGE('',*,*,#403,.T.);
#148=ORIENTED_EDGE('',*,*,#404,.T.);
#149=ORIENTED_EDGE('',*,*,#405,.T.);
#150=ORIENTED_EDGE('',*,*,#406,.T.);
#151=ORIENTED_EDGE('',*,*,#407,.T.);
#152=ORIENTED_EDGE('',*,*,#408,.T.);
#153=ORIENTED_EDGE('',*,*,#377,.F.);
#154=ORIENTED_EDGE('',*,*,#409,.T.);
#155=ORIENTED_EDGE('',*,*,#410,.T.);
#156=ORIENTED_EDGE('',*,*,#411,.T.);
#157=ORIENTED_EDGE('',*,*,#412,.T.);
#158=ORIENTED_EDGE('',*,*,#413,.T.);
#159=ORIENTED_EDGE('',*,*,#414,.T.);
#160=ORIENTED_EDGE('',*,*,#415,.T.);
#161=ORIENTED_EDGE('',*,*,#416,.T.);
#162=ORIENTED_EDGE('',*,*,#393,.F.);
#163=ORIENTED_EDGE('',*,*,#417,.T.);
#164=ORIENTED_EDGE('',*,*,#418,.T.);
#165=ORIENTED_EDGE('',*,*,#419,.T.);
#166=ORIENTED_EDGE('',*,*,#358,.F.);
#167=ORIENTED_EDGE('',*,*,#382,.F.);
#168=ORIENTED_EDGE('',*,*,#420,.T.);
#169=ORIENTED_EDGE('',*,*,#421,.F.);
#170=ORIENTED_EDGE('',*,*,#422,.T.);
#171=ORIENTED_EDGE('',*,*,#367,.T.);
#172=ORIENTED_EDGE('',*,*,#423,.T.);
#173=ORIENTED_EDGE('',*,*,#418,.F.);
#174=ORIENTED_EDGE('',*,*,#424,.T.);
#175=ORIENTED_EDGE('',*,*,#421,.T.);
#176=ORIENTED_EDGE('',*,*,#425,.T.);
#177=ORIENTED_EDGE('',*,*,#390,.F.);
#178=ORIENTED_EDGE('',*,*,#426,.T.);
#179=ORIENTED_EDGE('',*,*,#427,.T.);
#180=ORIENTED_EDGE('',*,*,#385,.F.);
#181=ORIENTED_EDGE('',*,*,#428,.T.);
#182=ORIENTED_EDGE('',*,*,#388,.F.);
#183=ORIENTED_EDGE('',*,*,#429,.T.);
#184=ORIENTED_EDGE('',*,*,#430,.T.);
#185=ORIENTED_EDGE('',*,*,#398,.F.);
#186=ORIENTED_EDGE('',*,*,#431,.T.);
#187=ORIENTED_EDGE('',*,*,#400,.F.);
#188=ORIENTED_EDGE('',*,*,#432,.T.);
#189=ORIENTED_EDGE('',*,*,#433,.T.);
#190=ORIENTED_EDGE('',*,*,#434,.T.);
#191=ORIENTED_EDGE('',*,*,#435,.T.);
#192=ORIENTED_EDGE('',*,*,#436,.T.);
#193=ORIENTED_EDGE('',*,*,#396,.F.);
#194=ORIENTED_EDGE('',*,*,#437,.T.);
#195=ORIENTED_EDGE('',*,*,#362,.F.);
#196=ORIENTED_EDGE('',*,*,#433,.F.);
#197=ORIENTED_EDGE('',*,*,#438,.T.);
#198=ORIENTED_EDGE('',*,*,#429,.F.);
#199=ORIENTED_EDGE('',*,*,#439,.T.);
#200=ORIENTED_EDGE('',*,*,#435,.F.);
#201=ORIENTED_EDGE('',*,*,#440,.T.);
#202=ORIENTED_EDGE('',*,*,#371,.T.);
#203=ORIENTED_EDGE('',*,*,#441,.T.);
#204=ORIENTED_EDGE('',*,*,#442,.T.);
#205=ORIENTED_EDGE('',*,*,#387,.F.);
#206=ORIENTED_EDGE('',*,*,#405,.F.);
#207=ORIENTED_EDGE('',*,*,#443,.T.);
#208=ORIENTED_EDGE('',*,*,#444,.T.);
#209=ORIENTED_EDGE('',*,*,#445,.T.);
#210=ORIENTED_EDGE('',*,*,#407,.F.);
#211=ORIENTED_EDGE('',*,*,#446,.T.);
#212=ORIENTED_EDGE('',*,*,#447,.T.);
#213=ORIENTED_EDGE('',*,*,#448,.T.);
#214=ORIENTED_EDGE('',*,*,#356,.F.);
#215=ORIENTED_EDGE('',*,*,#444,.F.);
#216=ORIENTED_EDGE('',*,*,#449,.T.);
#217=ORIENTED_EDGE('',*,*,#450,.F.);
#218=ORIENTED_EDGE('',*,*,#451,.T.);
#219=ORIENTED_EDGE('',*,*,#375,.T.);
#220=ORIENTED_EDGE('',*,*,#452,.T.);
#221=ORIENTED_EDGE('',*,*,#447,.F.);
#222=ORIENTED_EDGE('',*,*,#453,.T.);
#223=ORIENTED_EDGE('',*,*,#450,.T.);
#224=ORIENTED_EDGE('',*,*,#454,.T.);
#225=ORIENTED_EDGE('',*,*,#403,.F.);
#226=ORIENTED_EDGE('',*,*,#455,.T.);
#227=ORIENTED_EDGE('',*,*,#456,.T.);
#228=ORIENTED_EDGE('',*,*,#386,.F.);
#229=ORIENTED_EDGE('',*,*,#412,.F.);
#230=ORIENTED_EDGE('',*,*,#457,.T.);
#231=ORIENTED_EDGE('',*,*,#458,.T.);
#232=ORIENTED_EDGE('',*,*,#459,.T.);
#233=ORIENTED_EDGE('',*,*,#414,.F.);
#234=ORIENTED_EDGE('',*,*,#460,.T.);
#235=ORIENTED_EDGE('',*,*,#461,.T.);
#236=ORIENTED_EDGE('',*,*,#462,.T.);
#237=ORIENTED_EDGE('',*,*,#360,.F.);
#238=ORIENTED_EDGE('',*,*,#458,.F.);
#239=ORIENTED_EDGE('',*,*,#463,.T.);
#240=ORIENTED_EDGE('',*,*,#464,.F.);
#241=ORIENTED_EDGE('',*,*,#465,.T.);
#242=ORIENTED_EDGE('',*,*,#379,.T.);
#243=ORIENTED_EDGE('',*,*,#466,.T.);
#244=ORIENTED_EDGE('',*,*,#461,.F.);
#245=ORIENTED_EDGE('',*,*,#467,.T.);
#246=ORIENTED_EDGE('',*,*,#464,.T.);
#247=ORIENTED_EDGE('',*,*,#468,.T.);
#248=ORIENTED_EDGE('',*,*,#410,.F.);
#249=ORIENTED_EDGE('',*,*,#469,.T.);
#250=ORIENTED_EDGE('',*,*,#470,.T.);
#251=ORIENTED_EDGE('',*,*,#471,.T.);
#252=ORIENTED_EDGE('',*,*,#438,.F.);
#253=ORIENTED_EDGE('',*,*,#432,.F.);
#254=ORIENTED_EDGE('',*,*,#399,.F.);
#255=ORIENTED_EDGE('',*,*,#430,.F.);
#256=ORIENTED_EDGE('',*,*,#439,.F.);
#257=ORIENTED_EDGE('',*,*,#431,.F.);
#258=ORIENTED_EDGE('',*,*,#397,.F.);
#259=ORIENTED_EDGE('',*,*,#436,.F.);
#260=ORIENTED_EDGE('',*,*,#420,.F.);
#261=ORIENTED_EDGE('',*,*,#381,.F.);
#262=ORIENTED_EDGE('',*,*,#391,.F.);
#263=ORIENTED_EDGE('',*,*,#425,.F.);
#264=ORIENTED_EDGE('',*,*,#424,.F.);
#265=ORIENTED_EDGE('',*,*,#417,.F.);
#266=ORIENTED_EDGE('',*,*,#392,.F.);
#267=ORIENTED_EDGE('',*,*,#383,.F.);
#268=ORIENTED_EDGE('',*,*,#463,.F.);
#269=ORIENTED_EDGE('',*,*,#457,.F.);
#270=ORIENTED_EDGE('',*,*,#411,.F.);
#271=ORIENTED_EDGE('',*,*,#468,.F.);
#272=ORIENTED_EDGE('',*,*,#467,.F.);
#273=ORIENTED_EDGE('',*,*,#460,.F.);
#274=ORIENTED_EDGE('',*,*,#413,.F.);
#275=ORIENTED_EDGE('',*,*,#459,.F.);
#276=ORIENTED_EDGE('',*,*,#466,.F.);
#277=ORIENTED_EDGE('',*,*,#378,.F.);
#278=ORIENTED_EDGE('',*,*,#415,.F.);
#279=ORIENTED_EDGE('',*,*,#462,.F.);
#280=ORIENTED_EDGE('',*,*,#465,.F.);
#281=ORIENTED_EDGE('',*,*,#469,.F.);
#282=ORIENTED_EDGE('',*,*,#409,.F.);
#283=ORIENTED_EDGE('',*,*,#376,.F.);
#284=ORIENTED_EDGE('',*,*,#440,.F.);
#285=ORIENTED_EDGE('',*,*,#437,.F.);
#286=ORIENTED_EDGE('',*,*,#395,.F.);
#287=ORIENTED_EDGE('',*,*,#368,.F.);
#288=ORIENTED_EDGE('',*,*,#441,.F.);
#289=ORIENTED_EDGE('',*,*,#370,.F.);
#290=ORIENTED_EDGE('',*,*,#401,.F.);
#291=ORIENTED_EDGE('',*,*,#434,.F.);
#292=ORIENTED_EDGE('',*,*,#422,.F.);
#293=ORIENTED_EDGE('',*,*,#426,.F.);
#294=ORIENTED_EDGE('',*,*,#389,.F.);
#295=ORIENTED_EDGE('',*,*,#364,.F.);
#296=ORIENTED_EDGE('',*,*,#423,.F.);
#297=ORIENTED_EDGE('',*,*,#366,.F.);
#298=ORIENTED_EDGE('',*,*,#394,.F.);
#299=ORIENTED_EDGE('',*,*,#419,.F.);
#300=ORIENTED_EDGE('',*,*,#449,.F.);
#301=ORIENTED_EDGE('',*,*,#443,.F.);
#302=ORIENTED_EDGE('',*,*,#404,.F.);
#303=ORIENTED_EDGE('',*,*,#454,.F.);
#304=ORIENTED_EDGE('',*,*,#453,.F.);
#305=ORIENTED_EDGE('',*,*,#446,.F.);
#306=ORIENTED_EDGE('',*,*,#406,.F.);
#307=ORIENTED_EDGE('',*,*,#445,.F.);
#308=ORIENTED_EDGE('',*,*,#452,.F.);
#309=ORIENTED_EDGE('',*,*,#374,.F.);
#310=ORIENTED_EDGE('',*,*,#408,.F.);
#311=ORIENTED_EDGE('',*,*,#448,.F.);
#312=ORIENTED_EDGE('',*,*,#451,.F.);
#313=ORIENTED_EDGE('',*,*,#455,.F.);
#314=ORIENTED_EDGE('',*,*,#402,.F.);
#315=ORIENTED_EDGE('',*,*,#372,.F.);
#316=ORIENTED_EDGE('',*,*,#416,.F.);
#317=ORIENTED_EDGE('',*,*,#472,.T.);
#318=ORIENTED_EDGE('',*,*,#456,.F.);
#319=ORIENTED_EDGE('',*,*,#442,.F.);
#320=ORIENTED_EDGE('',*,*,#427,.F.);
#321=ORIENTED_EDGE('',*,*,#428,.F.);
#322=ORIENTED_EDGE('',*,*,#473,.T.);
#323=ORIENTED_EDGE('',*,*,#474,.T.);
#324=ORIENTED_EDGE('',*,*,#475,.T.);
#325=ORIENTED_EDGE('',*,*,#476,.T.);
#326=ORIENTED_EDGE('',*,*,#477,.T.);
#327=ORIENTED_EDGE('',*,*,#472,.F.);
#328=ORIENTED_EDGE('',*,*,#478,.T.);
#329=ORIENTED_EDGE('',*,*,#479,.F.);
#330=ORIENTED_EDGE('',*,*,#363,.F.);
#331=ORIENTED_EDGE('',*,*,#479,.T.);
#332=ORIENTED_EDGE('',*,*,#480,.T.);
#333=ORIENTED_EDGE('',*,*,#481,.F.);
#334=ORIENTED_EDGE('',*,*,#361,.F.);
#335=ORIENTED_EDGE('',*,*,#481,.T.);
#336=ORIENTED_EDGE('',*,*,#482,.T.);
#337=ORIENTED_EDGE('',*,*,#483,.F.);
#338=ORIENTED_EDGE('',*,*,#359,.F.);
#339=ORIENTED_EDGE('',*,*,#483,.T.);
#340=ORIENTED_EDGE('',*,*,#484,.T.);
#341=ORIENTED_EDGE('',*,*,#485,.F.);
#342=ORIENTED_EDGE('',*,*,#357,.F.);
#343=ORIENTED_EDGE('',*,*,#485,.T.);
#344=ORIENTED_EDGE('',*,*,#471,.F.);
#345=ORIENTED_EDGE('',*,*,#477,.F.);
#346=ORIENTED_EDGE('',*,*,#473,.F.);
#347=ORIENTED_EDGE('',*,*,#482,.F.);
#348=ORIENTED_EDGE('',*,*,#474,.F.);
#349=ORIENTED_EDGE('',*,*,#480,.F.);
#350=ORIENTED_EDGE('',*,*,#475,.F.);
#351=ORIENTED_EDGE('',*,*,#484,.F.);
#352=ORIENTED_EDGE('',*,*,#476,.F.);
#353=ORIENTED_EDGE('',*,*,#478,.F.);
#354=ORIENTED_EDGE('',*,*,#384,.F.);
#355=ORIENTED_EDGE('',*,*,#470,.F.);
#356=EDGE_CURVE('',#486,#486,#584,.T.);
#357=EDGE_CURVE('',#487,#487,#585,.T.);
#358=EDGE_CURVE('',#488,#488,#586,.T.);
#359=EDGE_CURVE('',#489,#489,#587,.T.);
#360=EDGE_CURVE('',#490,#490,#588,.T.);
#361=EDGE_CURVE('',#491,#491,#589,.T.);
#362=EDGE_CURVE('',#492,#492,#590,.T.);
#363=EDGE_CURVE('',#493,#493,#591,.T.);
#364=EDGE_CURVE('',#494,#495,#32,.F.);
#365=EDGE_CURVE('',#495,#496,#592,.T.);
#366=EDGE_CURVE('',#496,#497,#33,.T.);
#367=EDGE_CURVE('',#494,#497,#593,.T.);
#368=EDGE_CURVE('',#498,#499,#34,.F.);
#369=EDGE_CURVE('',#499,#500,#594,.T.);
#370=EDGE_CURVE('',#500,#501,#35,.T.);
#371=EDGE_CURVE('',#498,#501,#595,.T.);
#372=EDGE_CURVE('',#502,#503,#36,.F.);
#373=EDGE_CURVE('',#503,#504,#596,.T.);
#374=EDGE_CURVE('',#504,#505,#37,.T.);
#375=EDGE_CURVE('',#502,#505,#597,.T.);
#376=EDGE_CURVE('',#506,#507,#38,.F.);
#377=EDGE_CURVE('',#507,#508,#598,.T.);
#378=EDGE_CURVE('',#508,#509,#39,.T.);
#379=EDGE_CURVE('',#506,#509,#599,.T.);
#380=EDGE_CURVE('',#510,#511,#600,.T.);
#381=EDGE_CURVE('',#510,#512,#40,.T.);
#382=EDGE_CURVE('',#512,#513,#601,.T.);
#383=EDGE_CURVE('',#513,#511,#41,.F.);
#384=EDGE_CURVE('',#514,#514,#602,.F.);
#385=EDGE_CURVE('',#515,#515,#603,.T.);
#386=EDGE_CURVE('',#516,#516,#604,.T.);
#387=EDGE_CURVE('',#517,#517,#605,.T.);
#388=EDGE_CURVE('',#518,#518,#606,.T.);
#389=EDGE_CURVE('',#495,#519,#607,.T.);
#390=EDGE_CURVE('',#519,#520,#608,.T.);
#391=EDGE_CURVE('',#520,#510,#609,.T.);
#392=EDGE_CURVE('',#511,#521,#610,.T.);
#393=EDGE_CURVE('',#521,#522,#611,.T.);
#394=EDGE_CURVE('',#522,#496,#612,.T.);
#395=EDGE_CURVE('',#499,#523,#613,.T.);
#396=EDGE_CURVE('',#523,#524,#614,.T.);
#397=EDGE_CURVE('',#524,#525,#615,.T.);
#398=EDGE_CURVE('',#525,#526,#616,.T.);
#399=EDGE_CURVE('',#526,#527,#617,.T.);
#400=EDGE_CURVE('',#527,#528,#618,.T.);
#401=EDGE_CURVE('',#528,#500,#619,.T.);
#402=EDGE_CURVE('',#503,#529,#620,.T.);
#403=EDGE_CURVE('',#529,#530,#621,.T.);
#404=EDGE_CURVE('',#530,#531,#622,.T.);
#405=EDGE_CURVE('',#531,#532,#623,.T.);
#406=EDGE_CURVE('',#532,#533,#624,.T.);
#407=EDGE_CURVE('',#533,#534,#625,.T.);
#408=EDGE_CURVE('',#534,#504,#626,.T.);
#409=EDGE_CURVE('',#507,#535,#627,.T.);
#410=EDGE_CURVE('',#535,#536,#628,.T.);
#411=EDGE_CURVE('',#536,#537,#629,.T.);
#412=EDGE_CURVE('',#537,#538,#630,.T.);
#413=EDGE_CURVE('',#538,#539,#631,.T.);
#414=EDGE_CURVE('',#539,#540,#632,.T.);
#415=EDGE_CURVE('',#540,#508,#633,.T.);
#416=EDGE_CURVE('',#541,#541,#634,.T.);
#417=EDGE_CURVE('',#521,#542,#42,.F.);
#418=EDGE_CURVE('',#542,#543,#635,.T.);
#419=EDGE_CURVE('',#543,#522,#43,.T.);
#420=EDGE_CURVE('',#512,#544,#636,.T.);
#421=EDGE_CURVE('',#545,#544,#637,.T.);
#422=EDGE_CURVE('',#545,#494,#638,.T.);
#423=EDGE_CURVE('',#497,#543,#639,.T.);
#424=EDGE_CURVE('',#542,#513,#640,.T.);
#425=EDGE_CURVE('',#544,#520,#44,.T.);
#426=EDGE_CURVE('',#519,#545,#45,.F.);
#427=EDGE_CURVE('',#546,#546,#641,.T.);
#428=EDGE_CURVE('',#547,#547,#642,.T.);
#429=EDGE_CURVE('',#548,#549,#643,.T.);
#430=EDGE_CURVE('',#549,#526,#46,.F.);
#431=EDGE_CURVE('',#525,#548,#47,.T.);
#432=EDGE_CURVE('',#527,#550,#48,.F.);
#433=EDGE_CURVE('',#550,#551,#644,.T.);
#434=EDGE_CURVE('',#551,#528,#49,.T.);
#435=EDGE_CURVE('',#552,#553,#645,.T.);
#436=EDGE_CURVE('',#553,#524,#50,.T.);
#437=EDGE_CURVE('',#523,#552,#51,.F.);
#438=EDGE_CURVE('',#550,#549,#646,.T.);
#439=EDGE_CURVE('',#548,#553,#647,.T.);
#440=EDGE_CURVE('',#552,#498,#648,.T.);
#441=EDGE_CURVE('',#501,#551,#649,.T.);
#442=EDGE_CURVE('',#554,#554,#650,.T.);
#443=EDGE_CURVE('',#531,#555,#52,.T.);
#444=EDGE_CURVE('',#555,#556,#651,.T.);
#445=EDGE_CURVE('',#556,#532,#53,.F.);
#446=EDGE_CURVE('',#533,#557,#54,.F.);
#447=EDGE_CURVE('',#557,#558,#652,.T.);
#448=EDGE_CURVE('',#558,#534,#55,.T.);
#449=EDGE_CURVE('',#555,#559,#653,.T.);
#450=EDGE_CURVE('',#560,#559,#654,.T.);
#451=EDGE_CURVE('',#560,#502,#655,.T.);
#452=EDGE_CURVE('',#505,#558,#656,.T.);
#453=EDGE_CURVE('',#557,#556,#657,.T.);
#454=EDGE_CURVE('',#559,#530,#56,.T.);
#455=EDGE_CURVE('',#529,#560,#57,.F.);
#456=EDGE_CURVE('',#561,#561,#658,.T.);
#457=EDGE_CURVE('',#537,#562,#58,.T.);
#458=EDGE_CURVE('',#562,#563,#659,.T.);
#459=EDGE_CURVE('',#563,#538,#59,.F.);
#460=EDGE_CURVE('',#539,#564,#60,.F.);
#461=EDGE_CURVE('',#564,#565,#660,.T.);
#462=EDGE_CURVE('',#565,#540,#61,.T.);
#463=EDGE_CURVE('',#562,#566,#661,.T.);
#464=EDGE_CURVE('',#567,#566,#662,.T.);
#465=EDGE_CURVE('',#567,#506,#663,.T.);
#466=EDGE_CURVE('',#509,#565,#664,.T.);
#467=EDGE_CURVE('',#564,#563,#665,.T.);
#468=EDGE_CURVE('',#566,#536,#62,.T.);
#469=EDGE_CURVE('',#535,#567,#63,.F.);
#470=EDGE_CURVE('',#568,#568,#666,.T.);
#471=EDGE_CURVE('',#569,#569,#667,.F.);
#472=EDGE_CURVE('',#570,#570,#668,.T.);
#473=EDGE_CURVE('',#571,#571,#669,.F.);
#474=EDGE_CURVE('',#572,#572,#670,.F.);
#475=EDGE_CURVE('',#573,#573,#671,.F.);
#476=EDGE_CURVE('',#574,#574,#672,.F.);
#477=EDGE_CURVE('',#575,#575,#673,.T.);
#478=EDGE_CURVE('',#576,#576,#674,.T.);
#479=EDGE_CURVE('',#577,#577,#675,.T.);
#480=EDGE_CURVE('',#578,#578,#676,.T.);
#481=EDGE_CURVE('',#579,#579,#677,.T.);
#482=EDGE_CURVE('',#580,#580,#678,.T.);
#483=EDGE_CURVE('',#581,#581,#679,.T.);
#484=EDGE_CURVE('',#582,#582,#680,.T.);
#485=EDGE_CURVE('',#583,#583,#681,.T.);
#486=VERTEX_POINT('',#1552);
#487=VERTEX_POINT('',#1554);
#488=VERTEX_POINT('',#1557);
#489=VERTEX_POINT('',#1559);
#490=VERTEX_POINT('',#1562);
#491=VERTEX_POINT('',#1564);
#492=VERTEX_POINT('',#1567);
#493=VERTEX_POINT('',#1569);
#494=VERTEX_POINT('',#1572);
#495=VERTEX_POINT('',#1573);
#496=VERTEX_POINT('',#1575);
#497=VERTEX_POINT('',#1577);
#498=VERTEX_POINT('',#1581);
#499=VERTEX_POINT('',#1582);
#500=VERTEX_POINT('',#1584);
#501=VERTEX_POINT('',#1586);
#502=VERTEX_POINT('',#1590);
#503=VERTEX_POINT('',#1591);
#504=VERTEX_POINT('',#1593);
#505=VERTEX_POINT('',#1595);
#506=VERTEX_POINT('',#1599);
#507=VERTEX_POINT('',#1600);
#508=VERTEX_POINT('',#1602);
#509=VERTEX_POINT('',#1604);
#510=VERTEX_POINT('',#1608);
#511=VERTEX_POINT('',#1609);
#512=VERTEX_POINT('',#1611);
#513=VERTEX_POINT('',#1613);
#514=VERTEX_POINT('',#1617);
#515=VERTEX_POINT('',#1619);
#516=VERTEX_POINT('',#1621);
#517=VERTEX_POINT('',#1623);
#518=VERTEX_POINT('',#1625);
#519=VERTEX_POINT('',#1627);
#520=VERTEX_POINT('',#1629);
#521=VERTEX_POINT('',#1632);
#522=VERTEX_POINT('',#1634);
#523=VERTEX_POINT('',#1637);
#524=VERTEX_POINT('',#1639);
#525=VERTEX_POINT('',#1641);
#526=VERTEX_POINT('',#1643);
#527=VERTEX_POINT('',#1645);
#528=VERTEX_POINT('',#1647);
#529=VERTEX_POINT('',#1650);
#530=VERTEX_POINT('',#1652);
#531=VERTEX_POINT('',#1654);
#532=VERTEX_POINT('',#1656);
#533=VERTEX_POINT('',#1658);
#534=VERTEX_POINT('',#1660);
#535=VERTEX_POINT('',#1663);
#536=VERTEX_POINT('',#1665);
#537=VERTEX_POINT('',#1667);
#538=VERTEX_POINT('',#1669);
#539=VERTEX_POINT('',#1671);
#540=VERTEX_POINT('',#1673);
#541=VERTEX_POINT('',#1676);
#542=VERTEX_POINT('',#1679);
#543=VERTEX_POINT('',#1681);
#544=VERTEX_POINT('',#1685);
#545=VERTEX_POINT('',#1687);
#546=VERTEX_POINT('',#1696);
#547=VERTEX_POINT('',#1699);
#548=VERTEX_POINT('',#1702);
#549=VERTEX_POINT('',#1703);
#550=VERTEX_POINT('',#1708);
#551=VERTEX_POINT('',#1710);
#552=VERTEX_POINT('',#1714);
#553=VERTEX_POINT('',#1715);
#554=VERTEX_POINT('',#1725);
#555=VERTEX_POINT('',#1728);
#556=VERTEX_POINT('',#1730);
#557=VERTEX_POINT('',#1734);
#558=VERTEX_POINT('',#1736);
#559=VERTEX_POINT('',#1740);
#560=VERTEX_POINT('',#1742);
#561=VERTEX_POINT('',#1751);
#562=VERTEX_POINT('',#1754);
#563=VERTEX_POINT('',#1756);
#564=VERTEX_POINT('',#1760);
#565=VERTEX_POINT('',#1762);
#566=VERTEX_POINT('',#1766);
#567=VERTEX_POINT('',#1768);
#568=VERTEX_POINT('',#1777);
#569=VERTEX_POINT('',#1779);
#570=VERTEX_POINT('',#1798);
#571=VERTEX_POINT('',#1805);
#572=VERTEX_POINT('',#1807);
#573=VERTEX_POINT('',#1809);
#574=VERTEX_POINT('',#1811);
#575=VERTEX_POINT('',#1813);
#576=VERTEX_POINT('',#1816);
#577=VERTEX_POINT('',#1818);
#578=VERTEX_POINT('',#1822);
#579=VERTEX_POINT('',#1824);
#580=VERTEX_POINT('',#1828);
#581=VERTEX_POINT('',#1830);
#582=VERTEX_POINT('',#1834);
#583=VERTEX_POINT('',#1836);
#584=CIRCLE('',#1024,0.00215);
#585=CIRCLE('',#1025,0.00215);
#586=CIRCLE('',#1027,0.00215);
#587=CIRCLE('',#1028,0.00215);
#588=CIRCLE('',#1030,0.00215);
#589=CIRCLE('',#1031,0.00215);
#590=CIRCLE('',#1033,0.00215);
#591=CIRCLE('',#1034,0.00215);
#592=CIRCLE('',#1036,0.015);
#593=CIRCLE('',#1037,0.015);
#594=CIRCLE('',#1039,0.015);
#595=CIRCLE('',#1040,0.015);
#596=CIRCLE('',#1042,0.015);
#597=CIRCLE('',#1043,0.015);
#598=CIRCLE('',#1045,0.015);
#599=CIRCLE('',#1046,0.015);
#600=CIRCLE('',#1048,0.029);
#601=CIRCLE('',#1049,0.029);
#602=CIRCLE('',#1051,0.031);
#603=CIRCLE('',#1052,0.007);
#604=CIRCLE('',#1053,0.007);
#605=CIRCLE('',#1054,0.007);
#606=CIRCLE('',#1055,0.007);
#607=CIRCLE('',#1056,0.002);
#608=CIRCLE('',#1057,0.012);
#609=CIRCLE('',#1058,0.002);
#610=CIRCLE('',#1059,0.002);
#611=CIRCLE('',#1060,0.012);
#612=CIRCLE('',#1061,0.002);
#613=CIRCLE('',#1062,0.002);
#614=CIRCLE('',#1063,0.012);
#615=CIRCLE('',#1064,0.002);
#616=CIRCLE('',#1065,0.029);
#617=CIRCLE('',#1066,0.002);
#618=CIRCLE('',#1067,0.012);
#619=CIRCLE('',#1068,0.002);
#620=CIRCLE('',#1069,0.002);
#621=CIRCLE('',#1070,0.012);
#622=CIRCLE('',#1071,0.002);
#623=CIRCLE('',#1072,0.029);
#624=CIRCLE('',#1073,0.002);
#625=CIRCLE('',#1074,0.012);
#626=CIRCLE('',#1075,0.002);
#627=CIRCLE('',#1076,0.002);
#628=CIRCLE('',#1077,0.012);
#629=CIRCLE('',#1078,0.002);
#630=CIRCLE('',#1079,0.029);
#631=CIRCLE('',#1080,0.002);
#632=CIRCLE('',#1081,0.012);
#633=CIRCLE('',#1082,0.002);
#634=CIRCLE('',#1083,0.007);
#635=CIRCLE('',#1085,0.012);
#636=CIRCLE('',#1087,0.002);
#637=CIRCLE('',#1088,0.012);
#638=CIRCLE('',#1089,0.002);
#639=CIRCLE('',#1090,0.002);
#640=CIRCLE('',#1091,0.002);
#641=CIRCLE('',#1094,0.007);
#642=CIRCLE('',#1096,0.007);
#643=CIRCLE('',#1098,0.029);
#644=CIRCLE('',#1100,0.012);
#645=CIRCLE('',#1102,0.012);
#646=CIRCLE('',#1104,0.002);
#647=CIRCLE('',#1105,0.002);
#648=CIRCLE('',#1106,0.002);
#649=CIRCLE('',#1107,0.002);
#650=CIRCLE('',#1109,0.007);
#651=CIRCLE('',#1111,0.029);
#652=CIRCLE('',#1113,0.012);
#653=CIRCLE('',#1115,0.002);
#654=CIRCLE('',#1116,0.012);
#655=CIRCLE('',#1117,0.002);
#656=CIRCLE('',#1118,0.002);
#657=CIRCLE('',#1119,0.002);
#658=CIRCLE('',#1122,0.007);
#659=CIRCLE('',#1124,0.029);
#660=CIRCLE('',#1126,0.012);
#661=CIRCLE('',#1128,0.002);
#662=CIRCLE('',#1129,0.012);
#663=CIRCLE('',#1130,0.002);
#664=CIRCLE('',#1131,0.002);
#665=CIRCLE('',#1132,0.002);
#666=CIRCLE('',#1135,0.032);
#667=CIRCLE('',#1136,0.032);
#668=CIRCLE('',#1154,0.007);
#669=CIRCLE('',#1160,0.00475);
#670=CIRCLE('',#1161,0.00475);
#671=CIRCLE('',#1162,0.00475);
#672=CIRCLE('',#1163,0.00475);
#673=CIRCLE('',#1164,0.03);
#674=CIRCLE('',#1166,0.00375);
#675=CIRCLE('',#1167,0.00375);
#676=CIRCLE('',#1170,0.00375);
#677=CIRCLE('',#1171,0.00375);
#678=CIRCLE('',#1174,0.00375);
#679=CIRCLE('',#1175,0.00375);
#680=CIRCLE('',#1178,0.00375);
#681=CIRCLE('',#1179,0.00375);
#682=EDGE_LOOP('',(#96));
#683=EDGE_LOOP('',(#97));
#684=EDGE_LOOP('',(#98));
#685=EDGE_LOOP('',(#99));
#686=EDGE_LOOP('',(#100));
#687=EDGE_LOOP('',(#101));
#688=EDGE_LOOP('',(#102));
#689=EDGE_LOOP('',(#103));
#690=EDGE_LOOP('',(#104,#105,#106,#107));
#691=EDGE_LOOP('',(#108,#109,#110,#111));
#692=EDGE_LOOP('',(#112,#113,#114,#115));
#693=EDGE_LOOP('',(#116,#117,#118,#119));
#694=EDGE_LOOP('',(#120,#121,#122,#123));
#695=EDGE_LOOP('',(#124));
#696=EDGE_LOOP('',(#125));
#697=EDGE_LOOP('',(#126));
#698=EDGE_LOOP('',(#127));
#699=EDGE_LOOP('',(#128));
#700=EDGE_LOOP('',(#129,#130,#131,#132,#133,#134,#135,#136));
#701=EDGE_LOOP('',(#137,#138,#139,#140,#141,#142,#143,#144));
#702=EDGE_LOOP('',(#145,#146,#147,#148,#149,#150,#151,#152));
#703=EDGE_LOOP('',(#153,#154,#155,#156,#157,#158,#159,#160));
#704=EDGE_LOOP('',(#161));
#705=EDGE_LOOP('',(#162,#163,#164,#165));
#706=EDGE_LOOP('',(#166));
#707=EDGE_LOOP('',(#167,#168,#169,#170,#171,#172,#173,#174));
#708=EDGE_LOOP('',(#175,#176,#177,#178));
#709=EDGE_LOOP('',(#179));
#710=EDGE_LOOP('',(#180));
#711=EDGE_LOOP('',(#181));
#712=EDGE_LOOP('',(#182));
#713=EDGE_LOOP('',(#183,#184,#185,#186));
#714=EDGE_LOOP('',(#187,#188,#189,#190));
#715=EDGE_LOOP('',(#191,#192,#193,#194));
#716=EDGE_LOOP('',(#195));
#717=EDGE_LOOP('',(#196,#197,#198,#199,#200,#201,#202,#203));
#718=EDGE_LOOP('',(#204));
#719=EDGE_LOOP('',(#205));
#720=EDGE_LOOP('',(#206,#207,#208,#209));
#721=EDGE_LOOP('',(#210,#211,#212,#213));
#722=EDGE_LOOP('',(#214));
#723=EDGE_LOOP('',(#215,#216,#217,#218,#219,#220,#221,#222));
#724=EDGE_LOOP('',(#223,#224,#225,#226));
#725=EDGE_LOOP('',(#227));
#726=EDGE_LOOP('',(#228));
#727=EDGE_LOOP('',(#229,#230,#231,#232));
#728=EDGE_LOOP('',(#233,#234,#235,#236));
#729=EDGE_LOOP('',(#237));
#730=EDGE_LOOP('',(#238,#239,#240,#241,#242,#243,#244,#245));
#731=EDGE_LOOP('',(#246,#247,#248,#249));
#732=EDGE_LOOP('',(#250));
#733=EDGE_LOOP('',(#251));
#734=EDGE_LOOP('',(#252,#253,#254,#255));
#735=EDGE_LOOP('',(#256,#257,#258,#259));
#736=EDGE_LOOP('',(#260,#261,#262,#263));
#737=EDGE_LOOP('',(#264,#265,#266,#267));
#738=EDGE_LOOP('',(#268,#269,#270,#271));
#739=EDGE_LOOP('',(#272,#273,#274,#275));
#740=EDGE_LOOP('',(#276,#277,#278,#279));
#741=EDGE_LOOP('',(#280,#281,#282,#283));
#742=EDGE_LOOP('',(#284,#285,#286,#287));
#743=EDGE_LOOP('',(#288,#289,#290,#291));
#744=EDGE_LOOP('',(#292,#293,#294,#295));
#745=EDGE_LOOP('',(#296,#297,#298,#299));
#746=EDGE_LOOP('',(#300,#301,#302,#303));
#747=EDGE_LOOP('',(#304,#305,#306,#307));
#748=EDGE_LOOP('',(#308,#309,#310,#311));
#749=EDGE_LOOP('',(#312,#313,#314,#315));
#750=EDGE_LOOP('',(#316));
#751=EDGE_LOOP('',(#317));
#752=EDGE_LOOP('',(#318));
#753=EDGE_LOOP('',(#319));
#754=EDGE_LOOP('',(#320));
#755=EDGE_LOOP('',(#321));
#756=EDGE_LOOP('',(#322));
#757=EDGE_LOOP('',(#323));
#758=EDGE_LOOP('',(#324));
#759=EDGE_LOOP('',(#325));
#760=EDGE_LOOP('',(#326));
#761=EDGE_LOOP('',(#327));
#762=EDGE_LOOP('',(#328));
#763=EDGE_LOOP('',(#329));
#764=EDGE_LOOP('',(#330));
#765=EDGE_LOOP('',(#331));
#766=EDGE_LOOP('',(#332));
#767=EDGE_LOOP('',(#333));
#768=EDGE_LOOP('',(#334));
#769=EDGE_LOOP('',(#335));
#770=EDGE_LOOP('',(#336));
#771=EDGE_LOOP('',(#337));
#772=EDGE_LOOP('',(#338));
#773=EDGE_LOOP('',(#339));
#774=EDGE_LOOP('',(#340));
#775=EDGE_LOOP('',(#341));
#776=EDGE_LOOP('',(#342));
#777=EDGE_LOOP('',(#343));
#778=EDGE_LOOP('',(#344));
#779=EDGE_LOOP('',(#345));
#780=EDGE_LOOP('',(#346));
#781=EDGE_LOOP('',(#347));
#782=EDGE_LOOP('',(#348));
#783=EDGE_LOOP('',(#349));
#784=EDGE_LOOP('',(#350));
#785=EDGE_LOOP('',(#351));
#786=EDGE_LOOP('',(#352));
#787=EDGE_LOOP('',(#353));
#788=EDGE_LOOP('',(#354));
#789=EDGE_LOOP('',(#355));
#790=FACE_BOUND('',#682,.T.);
#791=FACE_BOUND('',#683,.T.);
#792=FACE_BOUND('',#684,.T.);
#793=FACE_BOUND('',#685,.T.);
#794=FACE_BOUND('',#686,.T.);
#795=FACE_BOUND('',#687,.T.);
#796=FACE_BOUND('',#688,.T.);
#797=FACE_BOUND('',#689,.T.);
#798=FACE_BOUND('',#690,.T.);
#799=FACE_BOUND('',#691,.T.);
#800=FACE_BOUND('',#692,.T.);
#801=FACE_BOUND('',#693,.T.);
#802=FACE_BOUND('',#694,.T.);
#803=FACE_BOUND('',#695,.T.);
#804=FACE_BOUND('',#696,.T.);
#805=FACE_BOUND('',#697,.T.);
#806=FACE_BOUND('',#698,.T.);
#807=FACE_BOUND('',#699,.T.);
#808=FACE_BOUND('',#700,.T.);
#809=FACE_BOUND('',#701,.T.);
#810=FACE_BOUND('',#702,.T.);
#811=FACE_BOUND('',#703,.T.);
#812=FACE_BOUND('',#704,.T.);
#813=FACE_BOUND('',#705,.T.);
#814=FACE_BOUND('',#706,.T.);
#815=FACE_BOUND('',#707,.T.);
#816=FACE_BOUND('',#708,.T.);
#817=FACE_BOUND('',#709,.T.);
#818=FACE_BOUND('',#710,.T.);
#819=FACE_BOUND('',#711,.T.);
#820=FACE_BOUND('',#712,.T.);
#821=FACE_BOUND('',#713,.T.);
#822=FACE_BOUND('',#714,.T.);
#823=FACE_BOUND('',#715,.T.);
#824=FACE_BOUND('',#716,.T.);
#825=FACE_BOUND('',#717,.T.);
#826=FACE_BOUND('',#718,.T.);
#827=FACE_BOUND('',#719,.T.);
#828=FACE_BOUND('',#720,.T.);
#829=FACE_BOUND('',#721,.T.);
#830=FACE_BOUND('',#722,.T.);
#831=FACE_BOUND('',#723,.T.);
#832=FACE_BOUND('',#724,.T.);
#833=FACE_BOUND('',#725,.T.);
#834=FACE_BOUND('',#726,.T.);
#835=FACE_BOUND('',#727,.T.);
#836=FACE_BOUND('',#728,.T.);
#837=FACE_BOUND('',#729,.T.);
#838=FACE_BOUND('',#730,.T.);
#839=FACE_BOUND('',#731,.T.);
#840=FACE_BOUND('',#732,.T.);
#841=FACE_BOUND('',#733,.T.);
#842=FACE_BOUND('',#734,.T.);
#843=FACE_BOUND('',#735,.T.);
#844=FACE_BOUND('',#736,.T.);
#845=FACE_BOUND('',#737,.T.);
#846=FACE_BOUND('',#738,.T.);
#847=FACE_BOUND('',#739,.T.);
#848=FACE_BOUND('',#740,.T.);
#849=FACE_BOUND('',#741,.T.);
#850=FACE_BOUND('',#742,.T.);
#851=FACE_BOUND('',#743,.T.);
#852=FACE_BOUND('',#744,.T.);
#853=FACE_BOUND('',#745,.T.);
#854=FACE_BOUND('',#746,.T.);
#855=FACE_BOUND('',#747,.T.);
#856=FACE_BOUND('',#748,.T.);
#857=FACE_BOUND('',#749,.T.);
#858=FACE_BOUND('',#750,.T.);
#859=FACE_BOUND('',#751,.T.);
#860=FACE_BOUND('',#752,.T.);
#861=FACE_BOUND('',#753,.T.);
#862=FACE_BOUND('',#754,.T.);
#863=FACE_BOUND('',#755,.T.);
#864=FACE_BOUND('',#756,.T.);
#865=FACE_BOUND('',#757,.T.);
#866=FACE_BOUND('',#758,.T.);
#867=FACE_BOUND('',#759,.T.);
#868=FACE_BOUND('',#760,.T.);
#869=FACE_BOUND('',#761,.T.);
#870=FACE_BOUND('',#762,.T.);
#871=FACE_BOUND('',#763,.T.);
#872=FACE_BOUND('',#764,.T.);
#873=FACE_BOUND('',#765,.T.);
#874=FACE_BOUND('',#766,.T.);
#875=FACE_BOUND('',#767,.T.);
#876=FACE_BOUND('',#768,.T.);
#877=FACE_BOUND('',#769,.T.);
#878=FACE_BOUND('',#770,.T.);
#879=FACE_BOUND('',#771,.T.);
#880=FACE_BOUND('',#772,.T.);
#881=FACE_BOUND('',#773,.T.);
#882=FACE_BOUND('',#774,.T.);
#883=FACE_BOUND('',#775,.T.);
#884=FACE_BOUND('',#776,.T.);
#885=FACE_BOUND('',#777,.T.);
#886=FACE_BOUND('',#778,.T.);
#887=FACE_BOUND('',#779,.T.);
#888=FACE_BOUND('',#780,.T.);
#889=FACE_BOUND('',#781,.T.);
#890=FACE_BOUND('',#782,.T.);
#891=FACE_BOUND('',#783,.T.);
#892=FACE_BOUND('',#784,.T.);
#893=FACE_BOUND('',#785,.T.);
#894=FACE_BOUND('',#786,.T.);
#895=FACE_BOUND('',#787,.T.);
#896=FACE_BOUND('',#788,.T.);
#897=FACE_BOUND('',#789,.T.);
#898=CYLINDRICAL_SURFACE('',#1023,0.00215);
#899=CYLINDRICAL_SURFACE('',#1026,0.00215);
#900=CYLINDRICAL_SURFACE('',#1029,0.00215);
#901=CYLINDRICAL_SURFACE('',#1032,0.00215);
#902=CYLINDRICAL_SURFACE('',#1035,0.015);
#903=CYLINDRICAL_SURFACE('',#1038,0.015);
#904=CYLINDRICAL_SURFACE('',#1041,0.015);
#905=CYLINDRICAL_SURFACE('',#1044,0.015);
#906=CYLINDRICAL_SURFACE('',#1047,0.029);
#907=CYLINDRICAL_SURFACE('',#1084,0.012);
#908=CYLINDRICAL_SURFACE('',#1092,0.012);
#909=CYLINDRICAL_SURFACE('',#1093,0.007);
#910=CYLINDRICAL_SURFACE('',#1095,0.007);
#911=CYLINDRICAL_SURFACE('',#1097,0.029);
#912=CYLINDRICAL_SURFACE('',#1099,0.012);
#913=CYLINDRICAL_SURFACE('',#1101,0.012);
#914=CYLINDRICAL_SURFACE('',#1108,0.007);
#915=CYLINDRICAL_SURFACE('',#1110,0.029);
#916=CYLINDRICAL_SURFACE('',#1112,0.012);
#917=CYLINDRICAL_SURFACE('',#1120,0.012);
#918=CYLINDRICAL_SURFACE('',#1121,0.007);
#919=CYLINDRICAL_SURFACE('',#1123,0.029);
#920=CYLINDRICAL_SURFACE('',#1125,0.012);
#921=CYLINDRICAL_SURFACE('',#1133,0.012);
#922=CYLINDRICAL_SURFACE('',#1134,0.032);
#923=CYLINDRICAL_SURFACE('',#1137,0.002);
#924=CYLINDRICAL_SURFACE('',#1138,0.002);
#925=CYLINDRICAL_SURFACE('',#1139,0.002);
#926=CYLINDRICAL_SURFACE('',#1140,0.002);
#927=CYLINDRICAL_SURFACE('',#1141,0.002);
#928=CYLINDRICAL_SURFACE('',#1142,0.002);
#929=CYLINDRICAL_SURFACE('',#1143,0.002);
#930=CYLINDRICAL_SURFACE('',#1144,0.002);
#931=CYLINDRICAL_SURFACE('',#1145,0.002);
#932=CYLINDRICAL_SURFACE('',#1146,0.002);
#933=CYLINDRICAL_SURFACE('',#1147,0.002);
#934=CYLINDRICAL_SURFACE('',#1148,0.002);
#935=CYLINDRICAL_SURFACE('',#1149,0.002);
#936=CYLINDRICAL_SURFACE('',#1150,0.002);
#937=CYLINDRICAL_SURFACE('',#1151,0.002);
#938=CYLINDRICAL_SURFACE('',#1152,0.002);
#939=CYLINDRICAL_SURFACE('',#1153,0.007);
#940=CYLINDRICAL_SURFACE('',#1165,0.00375);
#941=CYLINDRICAL_SURFACE('',#1169,0.00375);
#942=CYLINDRICAL_SURFACE('',#1173,0.00375);
#943=CYLINDRICAL_SURFACE('',#1177,0.00375);
#944=ADVANCED_FACE('',(#790,#791),#898,.F.);
#945=ADVANCED_FACE('',(#792,#793),#899,.F.);
#946=ADVANCED_FACE('',(#794,#795),#900,.F.);
#947=ADVANCED_FACE('',(#796,#797),#901,.F.);
#948=ADVANCED_FACE('',(#798),#902,.F.);
#949=ADVANCED_FACE('',(#799),#903,.F.);
#950=ADVANCED_FACE('',(#800),#904,.F.);
#951=ADVANCED_FACE('',(#801),#905,.F.);
#952=ADVANCED_FACE('',(#802),#906,.T.);
#953=ADVANCED_FACE('',(#803,#804,#805,#806,#807,#808,#809,#810,#811,#812),
#18,.F.);
#954=ADVANCED_FACE('',(#813),#907,.F.);
#955=ADVANCED_FACE('',(#814,#815),#19,.T.);
#956=ADVANCED_FACE('',(#816),#908,.F.);
#957=ADVANCED_FACE('',(#817,#818),#909,.F.);
#958=ADVANCED_FACE('',(#819,#820),#910,.F.);
#959=ADVANCED_FACE('',(#821),#911,.T.);
#960=ADVANCED_FACE('',(#822),#912,.F.);
#961=ADVANCED_FACE('',(#823),#913,.F.);
#962=ADVANCED_FACE('',(#824,#825),#20,.T.);
#963=ADVANCED_FACE('',(#826,#827),#914,.F.);
#964=ADVANCED_FACE('',(#828),#915,.T.);
#965=ADVANCED_FACE('',(#829),#916,.F.);
#966=ADVANCED_FACE('',(#830,#831),#21,.T.);
#967=ADVANCED_FACE('',(#832),#917,.F.);
#968=ADVANCED_FACE('',(#833,#834),#918,.F.);
#969=ADVANCED_FACE('',(#835),#919,.T.);
#970=ADVANCED_FACE('',(#836),#920,.F.);
#971=ADVANCED_FACE('',(#837,#838),#22,.T.);
#972=ADVANCED_FACE('',(#839),#921,.F.);
#973=ADVANCED_FACE('',(#840,#841),#922,.T.);
#974=ADVANCED_FACE('',(#842),#923,.T.);
#975=ADVANCED_FACE('',(#843),#924,.T.);
#976=ADVANCED_FACE('',(#844),#925,.T.);
#977=ADVANCED_FACE('',(#845),#926,.T.);
#978=ADVANCED_FACE('',(#846),#927,.T.);
#979=ADVANCED_FACE('',(#847),#928,.T.);
#980=ADVANCED_FACE('',(#848),#929,.T.);
#981=ADVANCED_FACE('',(#849),#930,.T.);
#982=ADVANCED_FACE('',(#850),#931,.T.);
#983=ADVANCED_FACE('',(#851),#932,.T.);
#984=ADVANCED_FACE('',(#852),#933,.T.);
#985=ADVANCED_FACE('',(#853),#934,.T.);
#986=ADVANCED_FACE('',(#854),#935,.T.);
#987=ADVANCED_FACE('',(#855),#936,.T.);
#988=ADVANCED_FACE('',(#856),#937,.T.);
#989=ADVANCED_FACE('',(#857),#938,.T.);
#990=ADVANCED_FACE('',(#858,#859),#939,.F.);
#991=ADVANCED_FACE('',(#860),#23,.F.);
#992=ADVANCED_FACE('',(#861),#24,.F.);
#993=ADVANCED_FACE('',(#862),#25,.F.);
#994=ADVANCED_FACE('',(#863),#26,.F.);
#995=ADVANCED_FACE('',(#864,#865,#866,#867,#868,#869),#27,.T.);
#996=ADVANCED_FACE('',(#870,#871),#940,.F.);
#997=ADVANCED_FACE('',(#872,#873),#28,.T.);
#998=ADVANCED_FACE('',(#874,#875),#941,.F.);
#999=ADVANCED_FACE('',(#876,#877),#29,.T.);
#1000=ADVANCED_FACE('',(#878,#879),#942,.F.);
#1001=ADVANCED_FACE('',(#880,#881),#30,.T.);
#1002=ADVANCED_FACE('',(#882,#883),#943,.F.);
#1003=ADVANCED_FACE('',(#884,#885),#31,.T.);
#1004=ADVANCED_FACE('',(#886,#887),#12,.T.);
#1005=ADVANCED_FACE('',(#888,#889),#13,.F.);
#1006=ADVANCED_FACE('',(#890,#891),#14,.F.);
#1007=ADVANCED_FACE('',(#892,#893),#15,.F.);
#1008=ADVANCED_FACE('',(#894,#895),#16,.F.);
#1009=ADVANCED_FACE('',(#896,#897),#17,.T.);
#1010=CLOSED_SHELL('',(#944,#945,#946,#947,#948,#949,#950,#951,#952,#953,
#954,#955,#956,#957,#958,#959,#960,#961,#962,#963,#964,#965,#966,#967,#968,
#969,#970,#971,#972,#973,#974,#975,#976,#977,#978,#979,#980,#981,#982,#983,
#984,#985,#986,#987,#988,#989,#990,#991,#992,#993,#994,#995,#996,#997,#998,
#999,#1000,#1001,#1002,#1003,#1004,#1005,#1006,#1007,#1008,#1009));
#1011=STYLED_ITEM('',(#1012),#1019);
#1012=PRESENTATION_STYLE_ASSIGNMENT((#1013));
#1013=SURFACE_STYLE_USAGE(.BOTH.,#1014);
#1014=SURFACE_SIDE_STYLE('',(#1015));
#1015=SURFACE_STYLE_FILL_AREA(#1016);
#1016=FILL_AREA_STYLE('',(#1017));
#1017=FILL_AREA_STYLE_COLOUR('',#1018);
#1018=COLOUR_RGB('',0.768627450980392,0.886274509803922,0.952941176470588);
#1019=MANIFOLD_SOLID_BREP('Output Male',#1010);
#1020=SHAPE_DEFINITION_REPRESENTATION(#1850,#1021);
#1021=SHAPE_REPRESENTATION('Output Male',(#1022),#1845);
#1022=AXIS2_PLACEMENT_3D('',#1549,#1187,#1188);
#1023=AXIS2_PLACEMENT_3D('',#1550,#1189,#1190);
#1024=AXIS2_PLACEMENT_3D('',#1551,#1191,#1192);
#1025=AXIS2_PLACEMENT_3D('',#1553,#1193,#1194);
#1026=AXIS2_PLACEMENT_3D('',#1555,#1195,#1196);
#1027=AXIS2_PLACEMENT_3D('',#1556,#1197,#1198);
#1028=AXIS2_PLACEMENT_3D('',#1558,#1199,#1200);
#1029=AXIS2_PLACEMENT_3D('',#1560,#1201,#1202);
#1030=AXIS2_PLACEMENT_3D('',#1561,#1203,#1204);
#1031=AXIS2_PLACEMENT_3D('',#1563,#1205,#1206);
#1032=AXIS2_PLACEMENT_3D('',#1565,#1207,#1208);
#1033=AXIS2_PLACEMENT_3D('',#1566,#1209,#1210);
#1034=AXIS2_PLACEMENT_3D('',#1568,#1211,#1212);
#1035=AXIS2_PLACEMENT_3D('',#1570,#1213,#1214);
#1036=AXIS2_PLACEMENT_3D('',#1574,#1216,#1217);
#1037=AXIS2_PLACEMENT_3D('',#1578,#1219,#1220);
#1038=AXIS2_PLACEMENT_3D('',#1579,#1221,#1222);
#1039=AXIS2_PLACEMENT_3D('',#1583,#1224,#1225);
#1040=AXIS2_PLACEMENT_3D('',#1587,#1227,#1228);
#1041=AXIS2_PLACEMENT_3D('',#1588,#1229,#1230);
#1042=AXIS2_PLACEMENT_3D('',#1592,#1232,#1233);
#1043=AXIS2_PLACEMENT_3D('',#1596,#1235,#1236);
#1044=AXIS2_PLACEMENT_3D('',#1597,#1237,#1238);
#1045=AXIS2_PLACEMENT_3D('',#1601,#1240,#1241);
#1046=AXIS2_PLACEMENT_3D('',#1605,#1243,#1244);
#1047=AXIS2_PLACEMENT_3D('',#1606,#1245,#1246);
#1048=AXIS2_PLACEMENT_3D('',#1607,#1247,#1248);
#1049=AXIS2_PLACEMENT_3D('',#1612,#1250,#1251);
#1050=AXIS2_PLACEMENT_3D('',#1615,#1253,#1254);
#1051=AXIS2_PLACEMENT_3D('',#1616,#1255,#1256);
#1052=AXIS2_PLACEMENT_3D('',#1618,#1257,#1258);
#1053=AXIS2_PLACEMENT_3D('',#1620,#1259,#1260);
#1054=AXIS2_PLACEMENT_3D('',#1622,#1261,#1262);
#1055=AXIS2_PLACEMENT_3D('',#1624,#1263,#1264);
#1056=AXIS2_PLACEMENT_3D('',#1626,#1265,#1266);
#1057=AXIS2_PLACEMENT_3D('',#1628,#1267,#1268);
#1058=AXIS2_PLACEMENT_3D('',#1630,#1269,#1270);
#1059=AXIS2_PLACEMENT_3D('',#1631,#1271,#1272);
#1060=AXIS2_PLACEMENT_3D('',#1633,#1273,#1274);
#1061=AXIS2_PLACEMENT_3D('',#1635,#1275,#1276);
#1062=AXIS2_PLACEMENT_3D('',#1636,#1277,#1278);
#1063=AXIS2_PLACEMENT_3D('',#1638,#1279,#1280);
#1064=AXIS2_PLACEMENT_3D('',#1640,#1281,#1282);
#1065=AXIS2_PLACEMENT_3D('',#1642,#1283,#1284);
#1066=AXIS2_PLACEMENT_3D('',#1644,#1285,#1286);
#1067=AXIS2_PLACEMENT_3D('',#1646,#1287,#1288);
#1068=AXIS2_PLACEMENT_3D('',#1648,#1289,#1290);
#1069=AXIS2_PLACEMENT_3D('',#1649,#1291,#1292);
#1070=AXIS2_PLACEMENT_3D('',#1651,#1293,#1294);
#1071=AXIS2_PLACEMENT_3D('',#1653,#1295,#1296);
#1072=AXIS2_PLACEMENT_3D('',#1655,#1297,#1298);
#1073=AXIS2_PLACEMENT_3D('',#1657,#1299,#1300);
#1074=AXIS2_PLACEMENT_3D('',#1659,#1301,#1302);
#1075=AXIS2_PLACEMENT_3D('',#1661,#1303,#1304);
#1076=AXIS2_PLACEMENT_3D('',#1662,#1305,#1306);
#1077=AXIS2_PLACEMENT_3D('',#1664,#1307,#1308);
#1078=AXIS2_PLACEMENT_3D('',#1666,#1309,#1310);
#1079=AXIS2_PLACEMENT_3D('',#1668,#1311,#1312);
#1080=AXIS2_PLACEMENT_3D('',#1670,#1313,#1314);
#1081=AXIS2_PLACEMENT_3D('',#1672,#1315,#1316);
#1082=AXIS2_PLACEMENT_3D('',#1674,#1317,#1318);
#1083=AXIS2_PLACEMENT_3D('',#1675,#1319,#1320);
#1084=AXIS2_PLACEMENT_3D('',#1677,#1321,#1322);
#1085=AXIS2_PLACEMENT_3D('',#1680,#1324,#1325);
#1086=AXIS2_PLACEMENT_3D('',#1683,#1327,#1328);
#1087=AXIS2_PLACEMENT_3D('',#1684,#1329,#1330);
#1088=AXIS2_PLACEMENT_3D('',#1686,#1331,#1332);
#1089=AXIS2_PLACEMENT_3D('',#1688,#1333,#1334);
#1090=AXIS2_PLACEMENT_3D('',#1689,#1335,#1336);
#1091=AXIS2_PLACEMENT_3D('',#1690,#1337,#1338);
#1092=AXIS2_PLACEMENT_3D('',#1691,#1339,#1340);
#1093=AXIS2_PLACEMENT_3D('',#1694,#1343,#1344);
#1094=AXIS2_PLACEMENT_3D('',#1695,#1345,#1346);
#1095=AXIS2_PLACEMENT_3D('',#1697,#1347,#1348);
#1096=AXIS2_PLACEMENT_3D('',#1698,#1349,#1350);
#1097=AXIS2_PLACEMENT_3D('',#1700,#1351,#1352);
#1098=AXIS2_PLACEMENT_3D('',#1701,#1353,#1354);
#1099=AXIS2_PLACEMENT_3D('',#1706,#1357,#1358);
#1100=AXIS2_PLACEMENT_3D('',#1709,#1360,#1361);
#1101=AXIS2_PLACEMENT_3D('',#1712,#1363,#1364);
#1102=AXIS2_PLACEMENT_3D('',#1713,#1365,#1366);
#1103=AXIS2_PLACEMENT_3D('',#1718,#1369,#1370);
#1104=AXIS2_PLACEMENT_3D('',#1719,#1371,#1372);
#1105=AXIS2_PLACEMENT_3D('',#1720,#1373,#1374);
#1106=AXIS2_PLACEMENT_3D('',#1721,#1375,#1376);
#1107=AXIS2_PLACEMENT_3D('',#1722,#1377,#1378);
#1108=AXIS2_PLACEMENT_3D('',#1723,#1379,#1380);
#1109=AXIS2_PLACEMENT_3D('',#1724,#1381,#1382);
#1110=AXIS2_PLACEMENT_3D('',#1726,#1383,#1384);
#1111=AXIS2_PLACEMENT_3D('',#1729,#1386,#1387);
#1112=AXIS2_PLACEMENT_3D('',#1732,#1389,#1390);
#1113=AXIS2_PLACEMENT_3D('',#1735,#1392,#1393);
#1114=AXIS2_PLACEMENT_3D('',#1738,#1395,#1396);
#1115=AXIS2_PLACEMENT_3D('',#1739,#1397,#1398);
#1116=AXIS2_PLACEMENT_3D('',#1741,#1399,#1400);
#1117=AXIS2_PLACEMENT_3D('',#1743,#1401,#1402);
#1118=AXIS2_PLACEMENT_3D('',#1744,#1403,#1404);
#1119=AXIS2_PLACEMENT_3D('',#1745,#1405,#1406);
#1120=AXIS2_PLACEMENT_3D('',#1746,#1407,#1408);
#1121=AXIS2_PLACEMENT_3D('',#1749,#1411,#1412);
#1122=AXIS2_PLACEMENT_3D('',#1750,#1413,#1414);
#1123=AXIS2_PLACEMENT_3D('',#1752,#1415,#1416);
#1124=AXIS2_PLACEMENT_3D('',#1755,#1418,#1419);
#1125=AXIS2_PLACEMENT_3D('',#1758,#1421,#1422);
#1126=AXIS2_PLACEMENT_3D('',#1761,#1424,#1425);
#1127=AXIS2_PLACEMENT_3D('',#1764,#1427,#1428);
#1128=AXIS2_PLACEMENT_3D('',#1765,#1429,#1430);
#1129=AXIS2_PLACEMENT_3D('',#1767,#1431,#1432);
#1130=AXIS2_PLACEMENT_3D('',#1769,#1433,#1434);
#1131=AXIS2_PLACEMENT_3D('',#1770,#1435,#1436);
#1132=AXIS2_PLACEMENT_3D('',#1771,#1437,#1438);
#1133=AXIS2_PLACEMENT_3D('',#1772,#1439,#1440);
#1134=AXIS2_PLACEMENT_3D('',#1775,#1443,#1444);
#1135=AXIS2_PLACEMENT_3D('',#1776,#1445,#1446);
#1136=AXIS2_PLACEMENT_3D('',#1778,#1447,#1448);
#1137=AXIS2_PLACEMENT_3D('',#1780,#1449,#1450);
#1138=AXIS2_PLACEMENT_3D('',#1781,#1451,#1452);
#1139=AXIS2_PLACEMENT_3D('',#1782,#1453,#1454);
#1140=AXIS2_PLACEMENT_3D('',#1783,#1455,#1456);
#1141=AXIS2_PLACEMENT_3D('',#1784,#1457,#1458);
#1142=AXIS2_PLACEMENT_3D('',#1785,#1459,#1460);
#1143=AXIS2_PLACEMENT_3D('',#1786,#1461,#1462);
#1144=AXIS2_PLACEMENT_3D('',#1787,#1463,#1464);
#1145=AXIS2_PLACEMENT_3D('',#1788,#1465,#1466);
#1146=AXIS2_PLACEMENT_3D('',#1789,#1467,#1468);
#1147=AXIS2_PLACEMENT_3D('',#1790,#1469,#1470);
#1148=AXIS2_PLACEMENT_3D('',#1791,#1471,#1472);
#1149=AXIS2_PLACEMENT_3D('',#1792,#1473,#1474);
#1150=AXIS2_PLACEMENT_3D('',#1793,#1475,#1476);
#1151=AXIS2_PLACEMENT_3D('',#1794,#1477,#1478);
#1152=AXIS2_PLACEMENT_3D('',#1795,#1479,#1480);
#1153=AXIS2_PLACEMENT_3D('',#1796,#1481,#1482);
#1154=AXIS2_PLACEMENT_3D('',#1797,#1483,#1484);
#1155=AXIS2_PLACEMENT_3D('',#1799,#1485,#1486);
#1156=AXIS2_PLACEMENT_3D('',#1800,#1487,#1488);
#1157=AXIS2_PLACEMENT_3D('',#1801,#1489,#1490);
#1158=AXIS2_PLACEMENT_3D('',#1802,#1491,#1492);
#1159=AXIS2_PLACEMENT_3D('',#1803,#1493,#1494);
#1160=AXIS2_PLACEMENT_3D('',#1804,#1495,#1496);
#1161=AXIS2_PLACEMENT_3D('',#1806,#1497,#1498);
#1162=AXIS2_PLACEMENT_3D('',#1808,#1499,#1500);
#1163=AXIS2_PLACEMENT_3D('',#1810,#1501,#1502);
#1164=AXIS2_PLACEMENT_3D('',#1812,#1503,#1504);
#1165=AXIS2_PLACEMENT_3D('',#1814,#1505,#1506);
#1166=AXIS2_PLACEMENT_3D('',#1815,#1507,#1508);
#1167=AXIS2_PLACEMENT_3D('',#1817,#1509,#1510);
#1168=AXIS2_PLACEMENT_3D('',#1819,#1511,#1512);
#1169=AXIS2_PLACEMENT_3D('',#1820,#1513,#1514);
#1170=AXIS2_PLACEMENT_3D('',#1821,#1515,#1516);
#1171=AXIS2_PLACEMENT_3D('',#1823,#1517,#1518);
#1172=AXIS2_PLACEMENT_3D('',#1825,#1519,#1520);
#1173=AXIS2_PLACEMENT_3D('',#1826,#1521,#1522);
#1174=AXIS2_PLACEMENT_3D('',#1827,#1523,#1524);
#1175=AXIS2_PLACEMENT_3D('',#1829,#1525,#1526);
#1176=AXIS2_PLACEMENT_3D('',#1831,#1527,#1528);
#1177=AXIS2_PLACEMENT_3D('',#1832,#1529,#1530);
#1178=AXIS2_PLACEMENT_3D('',#1833,#1531,#1532);
#1179=AXIS2_PLACEMENT_3D('',#1835,#1533,#1534);
#1180=AXIS2_PLACEMENT_3D('',#1837,#1535,#1536);
#1181=AXIS2_PLACEMENT_3D('',#1838,#1537,#1538);
#1182=AXIS2_PLACEMENT_3D('',#1839,#1539,#1540);
#1183=AXIS2_PLACEMENT_3D('',#1840,#1541,#1542);
#1184=AXIS2_PLACEMENT_3D('',#1841,#1543,#1544);
#1185=AXIS2_PLACEMENT_3D('',#1842,#1545,#1546);
#1186=AXIS2_PLACEMENT_3D('',#1843,#1547,#1548);
#1187=DIRECTION('',(0.,0.,1.));
#1188=DIRECTION('',(1.,0.,0.));
#1189=DIRECTION('',(0.,1.,0.));
#1190=DIRECTION('',(0.,0.,1.));
#1191=DIRECTION('',(0.,1.,0.));
#1192=DIRECTION('',(0.,0.,1.));
#1193=DIRECTION('',(0.,-1.,0.));
#1194=DIRECTION('',(0.,0.,-1.));
#1195=DIRECTION('',(0.,1.,0.));
#1196=DIRECTION('',(0.,0.,1.));
#1197=DIRECTION('',(0.,1.,0.));
#1198=DIRECTION('',(0.,0.,1.));
#1199=DIRECTION('',(0.,-1.,0.));
#1200=DIRECTION('',(0.,0.,-1.));
#1201=DIRECTION('',(0.,1.,0.));
#1202=DIRECTION('',(0.,0.,1.));
#1203=DIRECTION('',(0.,1.,0.));
#1204=DIRECTION('',(0.,0.,1.));
#1205=DIRECTION('',(0.,-1.,0.));
#1206=DIRECTION('',(0.,0.,-1.));
#1207=DIRECTION('',(0.,1.,0.));
#1208=DIRECTION('',(0.,0.,1.));
#1209=DIRECTION('',(0.,1.,0.));
#1210=DIRECTION('',(0.,0.,1.));
#1211=DIRECTION('',(0.,-1.,0.));
#1212=DIRECTION('',(0.,0.,-1.));
#1213=DIRECTION('',(0.,1.,0.));
#1214=DIRECTION('',(0.,0.,1.));
#1215=DIRECTION('',(0.,1.,0.));
#1216=DIRECTION('',(0.,-1.,0.));
#1217=DIRECTION('',(0.,0.,-1.));
#1218=DIRECTION('',(0.,1.,0.));
#1219=DIRECTION('',(0.,-1.,0.));
#1220=DIRECTION('',(0.,0.,-1.));
#1221=DIRECTION('',(0.,1.,0.));
#1222=DIRECTION('',(0.,0.,1.));
#1223=DIRECTION('',(0.,1.,0.));
#1224=DIRECTION('',(0.,-1.,0.));
#1225=DIRECTION('',(0.,0.,-1.));
#1226=DIRECTION('',(0.,1.,0.));
#1227=DIRECTION('',(0.,-1.,0.));
#1228=DIRECTION('',(0.,0.,-1.));
#1229=DIRECTION('',(0.,1.,0.));
#1230=DIRECTION('',(0.,0.,1.));
#1231=DIRECTION('',(0.,1.,0.));
#1232=DIRECTION('',(0.,-1.,0.));
#1233=DIRECTION('',(0.,0.,-1.));
#1234=DIRECTION('',(0.,1.,0.));
#1235=DIRECTION('',(0.,-1.,0.));
#1236=DIRECTION('',(0.,0.,-1.));
#1237=DIRECTION('',(0.,1.,0.));
#1238=DIRECTION('',(0.,0.,1.));
#1239=DIRECTION('',(0.,1.,0.));
#1240=DIRECTION('',(0.,-1.,0.));
#1241=DIRECTION('',(0.,0.,-1.));
#1242=DIRECTION('',(0.,1.,0.));
#1243=DIRECTION('',(0.,-1.,0.));
#1244=DIRECTION('',(0.,0.,-1.));
#1245=DIRECTION('',(0.,1.,0.));
#1246=DIRECTION('',(0.,0.,1.));
#1247=DIRECTION('',(0.,-1.,0.));
#1248=DIRECTION('',(0.,0.,-1.));
#1249=DIRECTION('',(0.,1.,0.));
#1250=DIRECTION('',(0.,-1.,0.));
#1251=DIRECTION('',(0.,0.,-1.));
#1252=DIRECTION('',(0.,1.,0.));
#1253=DIRECTION('',(0.,-1.,0.));
#1254=DIRECTION('',(1.,0.,0.));
#1255=DIRECTION('',(0.,-1.,0.));
#1256=DIRECTION('',(0.,0.,-1.));
#1257=DIRECTION('',(0.,-1.,0.));
#1258=DIRECTION('',(0.,0.,-1.));
#1259=DIRECTION('',(0.,-1.,0.));
#1260=DIRECTION('',(0.,0.,-1.));
#1261=DIRECTION('',(0.,-1.,0.));
#1262=DIRECTION('',(0.,0.,-1.));
#1263=DIRECTION('',(0.,-1.,0.));
#1264=DIRECTION('',(0.,0.,-1.));
#1265=DIRECTION('',(0.,-1.,0.));
#1266=DIRECTION('',(0.,0.,-1.));
#1267=DIRECTION('',(0.,1.,0.));
#1268=DIRECTION('',(0.,0.,1.));
#1269=DIRECTION('',(0.,-1.,0.));
#1270=DIRECTION('',(0.,0.,-1.));
#1271=DIRECTION('',(0.,-1.,0.));
#1272=DIRECTION('',(0.,0.,-1.));
#1273=DIRECTION('',(0.,1.,0.));
#1274=DIRECTION('',(0.,0.,1.));
#1275=DIRECTION('',(0.,-1.,0.));
#1276=DIRECTION('',(0.,0.,-1.));
#1277=DIRECTION('',(0.,-1.,0.));
#1278=DIRECTION('',(0.,0.,-1.));
#1279=DIRECTION('',(0.,1.,0.));
#1280=DIRECTION('',(0.,0.,1.));
#1281=DIRECTION('',(0.,-1.,0.));
#1282=DIRECTION('',(0.,0.,-1.));
#1283=DIRECTION('',(0.,-1.,0.));
#1284=DIRECTION('',(0.,0.,-1.));
#1285=DIRECTION('',(0.,-1.,0.));
#1286=DIRECTION('',(0.,0.,-1.));
#1287=DIRECTION('',(0.,1.,0.));
#1288=DIRECTION('',(0.,0.,1.));
#1289=DIRECTION('',(0.,-1.,0.));
#1290=DIRECTION('',(0.,0.,-1.));
#1291=DIRECTION('',(0.,-1.,0.));
#1292=DIRECTION('',(0.,0.,-1.));
#1293=DIRECTION('',(0.,1.,0.));
#1294=DIRECTION('',(0.,0.,1.));
#1295=DIRECTION('',(0.,-1.,0.));
#1296=DIRECTION('',(0.,0.,-1.));
#1297=DIRECTION('',(0.,-1.,0.));
#1298=DIRECTION('',(0.,0.,-1.));
#1299=DIRECTION('',(0.,-1.,0.));
#1300=DIRECTION('',(0.,0.,-1.));
#1301=DIRECTION('',(0.,1.,0.));
#1302=DIRECTION('',(0.,0.,1.));
#1303=DIRECTION('',(0.,-1.,0.));
#1304=DIRECTION('',(0.,0.,-1.));
#1305=DIRECTION('',(0.,-1.,0.));
#1306=DIRECTION('',(0.,0.,-1.));
#1307=DIRECTION('',(0.,1.,0.));
#1308=DIRECTION('',(0.,0.,1.));
#1309=DIRECTION('',(0.,-1.,0.));
#1310=DIRECTION('',(0.,0.,-1.));
#1311=DIRECTION('',(0.,-1.,0.));
#1312=DIRECTION('',(0.,0.,-1.));
#1313=DIRECTION('',(0.,-1.,0.));
#1314=DIRECTION('',(0.,0.,-1.));
#1315=DIRECTION('',(0.,1.,0.));
#1316=DIRECTION('',(0.,0.,1.));
#1317=DIRECTION('',(0.,-1.,0.));
#1318=DIRECTION('',(0.,0.,-1.));
#1319=DIRECTION('',(0.,-1.,0.));
#1320=DIRECTION('',(0.,0.,-1.));
#1321=DIRECTION('',(0.,-1.,0.));
#1322=DIRECTION('',(0.,0.,-1.));
#1323=DIRECTION('',(0.,-1.,0.));
#1324=DIRECTION('',(0.,1.,0.));
#1325=DIRECTION('',(0.,0.,1.));
#1326=DIRECTION('',(0.,-1.,0.));
#1327=DIRECTION('',(0.,1.,0.));
#1328=DIRECTION('',(-1.,0.,0.));
#1329=DIRECTION('',(0.,1.,0.));
#1330=DIRECTION('',(0.,0.,1.));
#1331=DIRECTION('',(0.,1.,0.));
#1332=DIRECTION('',(0.,0.,1.));
#1333=DIRECTION('',(0.,1.,0.));
#1334=DIRECTION('',(0.,0.,1.));
#1335=DIRECTION('',(0.,1.,0.));
#1336=DIRECTION('',(0.,0.,1.));
#1337=DIRECTION('',(0.,1.,0.));
#1338=DIRECTION('',(0.,0.,1.));
#1339=DIRECTION('',(0.,-1.,0.));
#1340=DIRECTION('',(0.,0.,-1.));
#1341=DIRECTION('',(0.,-1.,0.));
#1342=DIRECTION('',(0.,-1.,0.));
#1343=DIRECTION('',(0.,-1.,0.));
#1344=DIRECTION('',(0.,0.,-1.));
#1345=DIRECTION('',(0.,-1.,0.));
#1346=DIRECTION('',(0.,0.,-1.));
#1347=DIRECTION('',(0.,-1.,0.));
#1348=DIRECTION('',(0.,0.,-1.));
#1349=DIRECTION('',(0.,-1.,0.));
#1350=DIRECTION('',(0.,0.,-1.));
#1351=DIRECTION('',(0.,1.,0.));
#1352=DIRECTION('',(0.,0.,1.));
#1353=DIRECTION('',(0.,-1.,0.));
#1354=DIRECTION('',(0.,0.,-1.));
#1355=DIRECTION('',(0.,1.,0.));
#1356=DIRECTION('',(0.,1.,0.));
#1357=DIRECTION('',(0.,-1.,0.));
#1358=DIRECTION('',(0.,0.,-1.));
#1359=DIRECTION('',(0.,-1.,0.));
#1360=DIRECTION('',(0.,1.,0.));
#1361=DIRECTION('',(0.,0.,1.));
#1362=DIRECTION('',(0.,-1.,0.));
#1363=DIRECTION('',(0.,-1.,0.));
#1364=DIRECTION('',(0.,0.,-1.));
#1365=DIRECTION('',(0.,1.,0.));
#1366=DIRECTION('',(0.,0.,1.));
#1367=DIRECTION('',(0.,-1.,0.));
#1368=DIRECTION('',(0.,-1.,0.));
#1369=DIRECTION('',(0.,1.,0.));
#1370=DIRECTION('',(-1.,0.,0.));
#1371=DIRECTION('',(0.,1.,0.));
#1372=DIRECTION('',(0.,0.,1.));
#1373=DIRECTION('',(0.,1.,0.));
#1374=DIRECTION('',(0.,0.,1.));
#1375=DIRECTION('',(0.,1.,0.));
#1376=DIRECTION('',(0.,0.,1.));
#1377=DIRECTION('',(0.,1.,0.));
#1378=DIRECTION('',(0.,0.,1.));
#1379=DIRECTION('',(0.,-1.,0.));
#1380=DIRECTION('',(0.,0.,-1.));
#1381=DIRECTION('',(0.,-1.,0.));
#1382=DIRECTION('',(0.,0.,-1.));
#1383=DIRECTION('',(0.,1.,0.));
#1384=DIRECTION('',(0.,0.,1.));
#1385=DIRECTION('',(0.,1.,0.));
#1386=DIRECTION('',(0.,-1.,0.));
#1387=DIRECTION('',(0.,0.,-1.));
#1388=DIRECTION('',(0.,1.,0.));
#1389=DIRECTION('',(0.,-1.,0.));
#1390=DIRECTION('',(0.,0.,-1.));
#1391=DIRECTION('',(0.,-1.,0.));
#1392=DIRECTION('',(0.,1.,0.));
#1393=DIRECTION('',(0.,0.,1.));
#1394=DIRECTION('',(0.,-1.,0.));
#1395=DIRECTION('',(0.,1.,0.));
#1396=DIRECTION('',(-1.,0.,0.));
#1397=DIRECTION('',(0.,1.,0.));
#1398=DIRECTION('',(0.,0.,1.));
#1399=DIRECTION('',(0.,1.,0.));
#1400=DIRECTION('',(0.,0.,1.));
#1401=DIRECTION('',(0.,1.,0.));
#1402=DIRECTION('',(0.,0.,1.));
#1403=DIRECTION('',(0.,1.,0.));
#1404=DIRECTION('',(0.,0.,1.));
#1405=DIRECTION('',(0.,1.,0.));
#1406=DIRECTION('',(0.,0.,1.));
#1407=DIRECTION('',(0.,-1.,0.));
#1408=DIRECTION('',(0.,0.,-1.));
#1409=DIRECTION('',(0.,-1.,0.));
#1410=DIRECTION('',(0.,-1.,0.));
#1411=DIRECTION('',(0.,-1.,0.));
#1412=DIRECTION('',(0.,0.,-1.));
#1413=DIRECTION('',(0.,-1.,0.));
#1414=DIRECTION('',(0.,0.,-1.));
#1415=DIRECTION('',(0.,1.,0.));
#1416=DIRECTION('',(0.,0.,1.));
#1417=DIRECTION('',(0.,1.,0.));
#1418=DIRECTION('',(0.,-1.,0.));
#1419=DIRECTION('',(0.,0.,-1.));
#1420=DIRECTION('',(0.,1.,0.));
#1421=DIRECTION('',(0.,-1.,0.));
#1422=DIRECTION('',(0.,0.,-1.));
#1423=DIRECTION('',(0.,-1.,0.));
#1424=DIRECTION('',(0.,1.,0.));
#1425=DIRECTION('',(0.,0.,1.));
#1426=DIRECTION('',(0.,-1.,0.));
#1427=DIRECTION('',(0.,1.,0.));
#1428=DIRECTION('',(-1.,0.,0.));
#1429=DIRECTION('',(0.,1.,0.));
#1430=DIRECTION('',(0.,0.,1.));
#1431=DIRECTION('',(0.,1.,0.));
#1432=DIRECTION('',(0.,0.,1.));
#1433=DIRECTION('',(0.,1.,0.));
#1434=DIRECTION('',(0.,0.,1.));
#1435=DIRECTION('',(0.,1.,0.));
#1436=DIRECTION('',(0.,0.,1.));
#1437=DIRECTION('',(0.,1.,0.));
#1438=DIRECTION('',(0.,0.,1.));
#1439=DIRECTION('',(0.,-1.,0.));
#1440=DIRECTION('',(0.,0.,-1.));
#1441=DIRECTION('',(0.,-1.,0.));
#1442=DIRECTION('',(0.,-1.,0.));
#1443=DIRECTION('',(0.,-1.,0.));
#1444=DIRECTION('',(0.,0.,-1.));
#1445=DIRECTION('',(0.,-1.,0.));
#1446=DIRECTION('',(0.,0.,-1.));
#1447=DIRECTION('',(0.,-1.,0.));
#1448=DIRECTION('',(0.,0.,-1.));
#1449=DIRECTION('',(0.,1.,0.));
#1450=DIRECTION('',(0.,0.,1.));
#1451=DIRECTION('',(0.,1.,0.));
#1452=DIRECTION('',(0.,0.,1.));
#1453=DIRECTION('',(0.,1.,0.));
#1454=DIRECTION('',(0.,0.,1.));
#1455=DIRECTION('',(0.,1.,0.));
#1456=DIRECTION('',(0.,0.,1.));
#1457=DIRECTION('',(0.,1.,0.));
#1458=DIRECTION('',(0.,0.,1.));
#1459=DIRECTION('',(0.,1.,0.));
#1460=DIRECTION('',(0.,0.,1.));
#1461=DIRECTION('',(0.,-1.,0.));
#1462=DIRECTION('',(0.,0.,-1.));
#1463=DIRECTION('',(0.,-1.,0.));
#1464=DIRECTION('',(0.,0.,-1.));
#1465=DIRECTION('',(0.,-1.,0.));
#1466=DIRECTION('',(0.,0.,-1.));
#1467=DIRECTION('',(0.,-1.,0.));
#1468=DIRECTION('',(0.,0.,-1.));
#1469=DIRECTION('',(0.,-1.,0.));
#1470=DIRECTION('',(0.,0.,-1.));
#1471=DIRECTION('',(0.,-1.,0.));
#1472=DIRECTION('',(0.,0.,-1.));
#1473=DIRECTION('',(0.,1.,0.));
#1474=DIRECTION('',(0.,0.,1.));
#1475=DIRECTION('',(0.,1.,0.));
#1476=DIRECTION('',(0.,0.,1.));
#1477=DIRECTION('',(0.,-1.,0.));
#1478=DIRECTION('',(0.,0.,-1.));
#1479=DIRECTION('',(0.,-1.,0.));
#1480=DIRECTION('',(0.,0.,-1.));
#1481=DIRECTION('',(0.,-1.,0.));
#1482=DIRECTION('',(0.,0.,-1.));
#1483=DIRECTION('',(0.,-1.,0.));
#1484=DIRECTION('',(0.,0.,-1.));
#1485=DIRECTION('',(0.,-1.,0.));
#1486=DIRECTION('',(1.,0.,0.));
#1487=DIRECTION('',(0.,-1.,0.));
#1488=DIRECTION('',(1.,0.,0.));
#1489=DIRECTION('',(0.,-1.,0.));
#1490=DIRECTION('',(1.,0.,0.));
#1491=DIRECTION('',(0.,-1.,0.));
#1492=DIRECTION('',(1.,0.,0.));
#1493=DIRECTION('',(0.,-1.,0.));
#1494=DIRECTION('',(1.,0.,0.));
#1495=DIRECTION('',(0.,-1.,0.));
#1496=DIRECTION('',(0.,0.,-1.));
#1497=DIRECTION('',(0.,-1.,0.));
#1498=DIRECTION('',(0.,0.,-1.));
#1499=DIRECTION('',(0.,-1.,0.));
#1500=DIRECTION('',(0.,0.,-1.));
#1501=DIRECTION('',(0.,-1.,0.));
#1502=DIRECTION('',(0.,0.,-1.));
#1503=DIRECTION('',(0.,-1.,0.));
#1504=DIRECTION('',(0.,0.,-1.));
#1505=DIRECTION('',(0.,-1.,0.));
#1506=DIRECTION('',(0.,0.,-1.));
#1507=DIRECTION('',(0.,-1.,0.));
#1508=DIRECTION('',(0.,0.,-1.));
#1509=DIRECTION('',(0.,-1.,0.));
#1510=DIRECTION('',(0.,0.,-1.));
#1511=DIRECTION('',(0.,-1.,0.));
#1512=DIRECTION('',(1.,0.,0.));
#1513=DIRECTION('',(0.,-1.,0.));
#1514=DIRECTION('',(0.,0.,-1.));
#1515=DIRECTION('',(0.,-1.,0.));
#1516=DIRECTION('',(0.,0.,-1.));
#1517=DIRECTION('',(0.,-1.,0.));
#1518=DIRECTION('',(0.,0.,-1.));
#1519=DIRECTION('',(0.,-1.,0.));
#1520=DIRECTION('',(1.,0.,0.));
#1521=DIRECTION('',(0.,-1.,0.));
#1522=DIRECTION('',(0.,0.,-1.));
#1523=DIRECTION('',(0.,-1.,0.));
#1524=DIRECTION('',(0.,0.,-1.));
#1525=DIRECTION('',(0.,-1.,0.));
#1526=DIRECTION('',(0.,0.,-1.));
#1527=DIRECTION('',(0.,-1.,0.));
#1528=DIRECTION('',(1.,0.,0.));
#1529=DIRECTION('',(0.,-1.,0.));
#1530=DIRECTION('',(0.,0.,-1.));
#1531=DIRECTION('',(0.,-1.,0.));
#1532=DIRECTION('',(0.,0.,-1.));
#1533=DIRECTION('',(0.,-1.,0.));
#1534=DIRECTION('',(0.,0.,-1.));
#1535=DIRECTION('',(0.,-1.,0.));
#1536=DIRECTION('',(1.,0.,0.));
#1537=DIRECTION('',(0.,1.,0.));
#1538=DIRECTION('',(0.,0.,1.));
#1539=DIRECTION('',(0.,-1.,0.));
#1540=DIRECTION('',(0.,0.,-1.));
#1541=DIRECTION('',(0.,-1.,0.));
#1542=DIRECTION('',(0.,0.,-1.));
#1543=DIRECTION('',(0.,-1.,0.));
#1544=DIRECTION('',(0.,0.,-1.));
#1545=DIRECTION('',(0.,-1.,0.));
#1546=DIRECTION('',(0.,0.,-1.));
#1547=DIRECTION('',(0.,-1.,0.));
#1548=DIRECTION('',(0.,0.,-1.));
#1549=CARTESIAN_POINT('',(0.,0.,0.));
#1550=CARTESIAN_POINT('',(0.015556349186104,-0.0275,0.015556349186104));
#1551=CARTESIAN_POINT('',(0.015556349186104,-0.0025,0.015556349186104));
#1552=CARTESIAN_POINT('',(0.015556349186104,-0.0025,0.017706349186104));
#1553=CARTESIAN_POINT('',(0.015556349186104,-0.015,0.015556349186104));
#1554=CARTESIAN_POINT('',(0.015556349186104,-0.015,0.0134063491861041));
#1555=CARTESIAN_POINT('',(-0.015556349186104,-0.0275,-0.015556349186104));
#1556=CARTESIAN_POINT('',(-0.015556349186104,-0.0025,-0.015556349186104));
#1557=CARTESIAN_POINT('',(-0.015556349186104,-0.0025,-0.0134063491861041));
#1558=CARTESIAN_POINT('',(-0.015556349186104,-0.015,-0.015556349186104));
#1559=CARTESIAN_POINT('',(-0.015556349186104,-0.015,-0.017706349186104));
#1560=CARTESIAN_POINT('',(0.015556349186104,-0.0275,-0.015556349186104));
#1561=CARTESIAN_POINT('',(0.015556349186104,-0.0025,-0.015556349186104));
#1562=CARTESIAN_POINT('',(0.015556349186104,-0.0025,-0.0134063491861041));
#1563=CARTESIAN_POINT('',(0.015556349186104,-0.015,-0.015556349186104));
#1564=CARTESIAN_POINT('',(0.015556349186104,-0.015,-0.017706349186104));
#1565=CARTESIAN_POINT('',(-0.015556349186104,-0.0275,0.015556349186104));
#1566=CARTESIAN_POINT('',(-0.015556349186104,-0.0025,0.015556349186104));
#1567=CARTESIAN_POINT('',(-0.015556349186104,-0.0025,0.017706349186104));
#1568=CARTESIAN_POINT('',(-0.015556349186104,-0.015,0.015556349186104));
#1569=CARTESIAN_POINT('',(-0.015556349186104,-0.015,0.0134063491861041));
#1570=CARTESIAN_POINT('',(0.,-0.009,9.18485099360515E-19));
#1571=CARTESIAN_POINT('',(-0.0115708556149733,-0.009,-0.00954543348085574));
#1572=CARTESIAN_POINT('',(-0.0115708556149733,-0.0025,-0.00954543348085574));
#1573=CARTESIAN_POINT('',(-0.0115708556149733,-0.006,-0.00954543348085574));
#1574=CARTESIAN_POINT('',(0.,-0.006,9.18485099360515E-19));
#1575=CARTESIAN_POINT('',(-0.00954543348085573,-0.006,-0.0115708556149733));
#1576=CARTESIAN_POINT('',(-0.00954543348085573,-0.009,-0.0115708556149733));
#1577=CARTESIAN_POINT('',(-0.00954543348085573,-0.0025,-0.0115708556149733));
#1578=CARTESIAN_POINT('',(0.,-0.0025,9.18485099360515E-19));
#1579=CARTESIAN_POINT('',(0.,-0.009,9.18485099360515E-19));
#1580=CARTESIAN_POINT('',(-0.00954543348085574,-0.009,0.0115708556149733));
#1581=CARTESIAN_POINT('',(-0.00954543348085574,-0.0025,0.0115708556149733));
#1582=CARTESIAN_POINT('',(-0.00954543348085574,-0.006,0.0115708556149733));
#1583=CARTESIAN_POINT('',(0.,-0.006,9.18485099360515E-19));
#1584=CARTESIAN_POINT('',(-0.0115708556149733,-0.006,0.00954543348085574));
#1585=CARTESIAN_POINT('',(-0.0115708556149733,-0.009,0.00954543348085574));
#1586=CARTESIAN_POINT('',(-0.0115708556149733,-0.0025,0.00954543348085574));
#1587=CARTESIAN_POINT('',(0.,-0.0025,9.18485099360515E-19));
#1588=CARTESIAN_POINT('',(0.,-0.009,9.18485099360515E-19));
#1589=CARTESIAN_POINT('',(0.0115708556149733,-0.009,0.00954543348085574));
#1590=CARTESIAN_POINT('',(0.0115708556149733,-0.0025,0.00954543348085574));
#1591=CARTESIAN_POINT('',(0.0115708556149733,-0.006,0.00954543348085574));
#1592=CARTESIAN_POINT('',(0.,-0.006,9.18485099360515E-19));
#1593=CARTESIAN_POINT('',(0.00954543348085574,-0.006,0.0115708556149733));
#1594=CARTESIAN_POINT('',(0.00954543348085574,-0.009,0.0115708556149733));
#1595=CARTESIAN_POINT('',(0.00954543348085574,-0.0025,0.0115708556149733));
#1596=CARTESIAN_POINT('',(0.,-0.0025,9.18485099360515E-19));
#1597=CARTESIAN_POINT('',(0.,-0.009,9.18485099360515E-19));
#1598=CARTESIAN_POINT('',(0.00954543348085574,-0.009,-0.0115708556149733));
#1599=CARTESIAN_POINT('',(0.00954543348085574,-0.0025,-0.0115708556149733));
#1600=CARTESIAN_POINT('',(0.00954543348085574,-0.006,-0.0115708556149733));
#1601=CARTESIAN_POINT('',(0.,-0.006,9.18485099360515E-19));
#1602=CARTESIAN_POINT('',(0.0115708556149733,-0.006,-0.00954543348085574));
#1603=CARTESIAN_POINT('',(0.0115708556149733,-0.009,-0.00954543348085574));
#1604=CARTESIAN_POINT('',(0.0115708556149733,-0.0025,-0.00954543348085574));
#1605=CARTESIAN_POINT('',(0.,-0.0025,9.18485099360515E-19));
#1606=CARTESIAN_POINT('',(0.,-0.009,1.77573785876366E-18));
#1607=CARTESIAN_POINT('',(0.,-0.006,2.69422295812417E-18));
#1608=CARTESIAN_POINT('',(-0.0248257575757575,-0.006,-0.0149893882726986));
#1609=CARTESIAN_POINT('',(-0.0149893882726986,-0.006,-0.0248257575757575));
#1610=CARTESIAN_POINT('',(-0.0248257575757576,-0.009,-0.0149893882726986));
#1611=CARTESIAN_POINT('',(-0.0248257575757576,-0.0025,-0.0149893882726986));
#1612=CARTESIAN_POINT('',(0.,-0.0025,1.77573785876366E-18));
#1613=CARTESIAN_POINT('',(-0.0149893882726986,-0.0025,-0.0248257575757576));
#1614=CARTESIAN_POINT('',(-0.0149893882726986,-0.009,-0.0248257575757576));
#1615=CARTESIAN_POINT('',(0.,-0.006,0.));
#1616=CARTESIAN_POINT('',(0.,-0.006,2.87791997799628E-18));
#1617=CARTESIAN_POINT('',(0.,-0.006,-0.031));
#1618=CARTESIAN_POINT('',(1.14925430283463E-17,-0.006,-0.022));
#1619=CARTESIAN_POINT('',(1.14925430283463E-17,-0.006,-0.029));
#1620=CARTESIAN_POINT('',(0.022,-0.006,5.42101086242752E-18));
#1621=CARTESIAN_POINT('',(0.022,-0.006,-0.00699999999999999));
#1622=CARTESIAN_POINT('',(-7.58941520739853E-18,-0.006,0.022));
#1623=CARTESIAN_POINT('',(-7.58941520739853E-18,-0.006,0.015));
#1624=CARTESIAN_POINT('',(-0.022,-0.006,5.42101086242752E-18));
#1625=CARTESIAN_POINT('',(-0.022,-0.006,-0.00699999999999999));
#1626=CARTESIAN_POINT('',(-0.0131136363636364,-0.006,-0.0108181579449698));
#1627=CARTESIAN_POINT('',(-0.0143831168831169,-0.006,-0.00927270680997415));
#1628=CARTESIAN_POINT('',(-0.022,-0.006,1.97357545873575E-18));
#1629=CARTESIAN_POINT('',(-0.0229545454545455,-0.006,-0.0119619748777201));
#1630=CARTESIAN_POINT('',(-0.0231136363636364,-0.006,-0.0139556373573401));
#1631=CARTESIAN_POINT('',(-0.0139556373573401,-0.006,-0.0231136363636364));
#1632=CARTESIAN_POINT('',(-0.0119619748777201,-0.006,-0.0229545454545455));
#1633=CARTESIAN_POINT('',(8.67361737988404E-18,-0.006,-0.022));
#1634=CARTESIAN_POINT('',(-0.00927270680997414,-0.006,-0.0143831168831169));
#1635=CARTESIAN_POINT('',(-0.0108181579449698,-0.006,-0.0131136363636364));
#1636=CARTESIAN_POINT('',(-0.0108181579449698,-0.006,0.0131136363636364));
#1637=CARTESIAN_POINT('',(-0.00927270680997415,-0.006,0.0143831168831169));
#1638=CARTESIAN_POINT('',(-3.46944695195361E-18,-0.006,0.022));
#1639=CARTESIAN_POINT('',(-0.0119619748777201,-0.006,0.0229545454545455));
#1640=CARTESIAN_POINT('',(-0.0139556373573401,-0.006,0.0231136363636364));
#1641=CARTESIAN_POINT('',(-0.0149893882726986,-0.006,0.0248257575757575));
#1642=CARTESIAN_POINT('',(0.,-0.006,2.69422295812417E-18));
#1643=CARTESIAN_POINT('',(-0.0248257575757575,-0.006,0.0149893882726986));
#1644=CARTESIAN_POINT('',(-0.0231136363636364,-0.006,0.0139556373573401));
#1645=CARTESIAN_POINT('',(-0.0229545454545455,-0.006,0.0119619748777201));
#1646=CARTESIAN_POINT('',(-0.022,-0.006,1.97357545873575E-18));
#1647=CARTESIAN_POINT('',(-0.0143831168831169,-0.006,0.00927270680997415));
#1648=CARTESIAN_POINT('',(-0.0131136363636364,-0.006,0.0108181579449698));
#1649=CARTESIAN_POINT('',(0.0131136363636364,-0.006,0.0108181579449698));
#1650=CARTESIAN_POINT('',(0.0143831168831169,-0.006,0.00927270680997415));
#1651=CARTESIAN_POINT('',(0.022,-0.006,2.03583068647101E-18));
#1652=CARTESIAN_POINT('',(0.0229545454545455,-0.006,0.0119619748777201));
#1653=CARTESIAN_POINT('',(0.0231136363636364,-0.006,0.0139556373573401));
#1654=CARTESIAN_POINT('',(0.0248257575757575,-0.006,0.0149893882726986));
#1655=CARTESIAN_POINT('',(0.,-0.006,2.69422295812417E-18));
#1656=CARTESIAN_POINT('',(0.0149893882726986,-0.006,0.0248257575757576));
#1657=CARTESIAN_POINT('',(0.0139556373573401,-0.006,0.0231136363636364));
#1658=CARTESIAN_POINT('',(0.0119619748777201,-0.006,0.0229545454545455));
#1659=CARTESIAN_POINT('',(-3.46944695195361E-18,-0.006,0.022));
#1660=CARTESIAN_POINT('',(0.00927270680997414,-0.006,0.0143831168831169));
#1661=CARTESIAN_POINT('',(0.0108181579449698,-0.006,0.0131136363636364));
#1662=CARTESIAN_POINT('',(0.0108181579449698,-0.006,-0.0131136363636364));
#1663=CARTESIAN_POINT('',(0.00927270680997415,-0.006,-0.0143831168831169));
#1664=CARTESIAN_POINT('',(8.67361737988404E-18,-0.006,-0.022));
#1665=CARTESIAN_POINT('',(0.0119619748777201,-0.006,-0.0229545454545455));
#1666=CARTESIAN_POINT('',(0.0139556373573401,-0.006,-0.0231136363636364));
#1667=CARTESIAN_POINT('',(0.0149893882726986,-0.006,-0.0248257575757575));
#1668=CARTESIAN_POINT('',(0.,-0.006,2.69422295812417E-18));
#1669=CARTESIAN_POINT('',(0.0248257575757575,-0.006,-0.0149893882726986));
#1670=CARTESIAN_POINT('',(0.0231136363636364,-0.006,-0.0139556373573401));
#1671=CARTESIAN_POINT('',(0.0229545454545455,-0.006,-0.0119619748777201));
#1672=CARTESIAN_POINT('',(0.022,-0.006,2.03583068647101E-18));
#1673=CARTESIAN_POINT('',(0.0143831168831169,-0.006,-0.00927270680997415));
#1674=CARTESIAN_POINT('',(0.0131136363636364,-0.006,-0.0108181579449698));
#1675=CARTESIAN_POINT('',(0.,-0.006,4.28626379701574E-19));
#1676=CARTESIAN_POINT('',(0.,-0.006,-0.007));
#1677=CARTESIAN_POINT('',(8.67361737988404E-18,-0.0025,-0.022));
#1678=CARTESIAN_POINT('',(-0.0119619748777201,-0.0025,-0.0229545454545455));
#1679=CARTESIAN_POINT('',(-0.0119619748777201,-0.0025,-0.0229545454545455));
#1680=CARTESIAN_POINT('',(8.67361737988404E-18,-0.0025,-0.022));
#1681=CARTESIAN_POINT('',(-0.00927270680997414,-0.0025,-0.0143831168831169));
#1682=CARTESIAN_POINT('',(-0.00927270680997414,-0.0025,-0.0143831168831169));
#1683=CARTESIAN_POINT('',(6.93889390390723E-18,-0.0025,0.));
#1684=CARTESIAN_POINT('',(-0.0231136363636364,-0.0025,-0.0139556373573401));
#1685=CARTESIAN_POINT('',(-0.0229545454545455,-0.0025,-0.0119619748777201));
#1686=CARTESIAN_POINT('',(-0.022,-0.0025,1.97357545873575E-18));
#1687=CARTESIAN_POINT('',(-0.0143831168831169,-0.0025,-0.00927270680997415));
#1688=CARTESIAN_POINT('',(-0.0131136363636364,-0.0025,-0.0108181579449698));
#1689=CARTESIAN_POINT('',(-0.0108181579449698,-0.0025,-0.0131136363636364));
#1690=CARTESIAN_POINT('',(-0.0139556373573401,-0.0025,-0.0231136363636364));
#1691=CARTESIAN_POINT('',(-0.022,-0.0025,1.97357545873575E-18));
#1692=CARTESIAN_POINT('',(-0.0229545454545455,-0.0025,-0.0119619748777201));
#1693=CARTESIAN_POINT('',(-0.0143831168831169,-0.0025,-0.00927270680997415));
#1694=CARTESIAN_POINT('',(1.14925430283463E-17,0.016,-0.022));
#1695=CARTESIAN_POINT('',(1.14925430283463E-17,-0.01,-0.022));
#1696=CARTESIAN_POINT('',(1.14925430283463E-17,-0.01,-0.029));
#1697=CARTESIAN_POINT('',(-0.022,0.016,5.42101086242752E-18));
#1698=CARTESIAN_POINT('',(-0.022,-0.01,5.42101086242752E-18));
#1699=CARTESIAN_POINT('',(-0.022,-0.01,-0.00699999999999999));
#1700=CARTESIAN_POINT('',(0.,-0.009,1.77573785876366E-18));
#1701=CARTESIAN_POINT('',(0.,-0.0025,1.77573785876366E-18));
#1702=CARTESIAN_POINT('',(-0.0149893882726986,-0.0025,0.0248257575757576));
#1703=CARTESIAN_POINT('',(-0.0248257575757576,-0.0025,0.0149893882726986));
#1704=CARTESIAN_POINT('',(-0.0248257575757576,-0.009,0.0149893882726986));
#1705=CARTESIAN_POINT('',(-0.0149893882726986,-0.009,0.0248257575757576));
#1706=CARTESIAN_POINT('',(-0.022,-0.0025,1.97357545873575E-18));
#1707=CARTESIAN_POINT('',(-0.0229545454545455,-0.0025,0.0119619748777201));
#1708=CARTESIAN_POINT('',(-0.0229545454545455,-0.0025,0.0119619748777201));
#1709=CARTESIAN_POINT('',(-0.022,-0.0025,1.97357545873575E-18));
#1710=CARTESIAN_POINT('',(-0.0143831168831169,-0.0025,0.00927270680997415));
#1711=CARTESIAN_POINT('',(-0.0143831168831169,-0.0025,0.00927270680997415));
#1712=CARTESIAN_POINT('',(-3.46944695195361E-18,-0.0025,0.022));
#1713=CARTESIAN_POINT('',(-3.46944695195361E-18,-0.0025,0.022));
#1714=CARTESIAN_POINT('',(-0.00927270680997415,-0.0025,0.0143831168831169));
#1715=CARTESIAN_POINT('',(-0.0119619748777201,-0.0025,0.0229545454545455));
#1716=CARTESIAN_POINT('',(-0.0119619748777201,-0.0025,0.0229545454545455));
#1717=CARTESIAN_POINT('',(-0.00927270680997415,-0.0025,0.0143831168831169));
#1718=CARTESIAN_POINT('',(6.93889390390723E-18,-0.0025,0.));
#1719=CARTESIAN_POINT('',(-0.0231136363636364,-0.0025,0.0139556373573401));
#1720=CARTESIAN_POINT('',(-0.0139556373573401,-0.0025,0.0231136363636364));
#1721=CARTESIAN_POINT('',(-0.0108181579449698,-0.0025,0.0131136363636364));
#1722=CARTESIAN_POINT('',(-0.0131136363636364,-0.0025,0.0108181579449698));
#1723=CARTESIAN_POINT('',(-7.58941520739853E-18,0.016,0.022));
#1724=CARTESIAN_POINT('',(-7.58941520739853E-18,-0.01,0.022));
#1725=CARTESIAN_POINT('',(-7.58941520739853E-18,-0.01,0.015));
#1726=CARTESIAN_POINT('',(0.,-0.009,1.77573785876366E-18));
#1727=CARTESIAN_POINT('',(0.0248257575757576,-0.009,0.0149893882726986));
#1728=CARTESIAN_POINT('',(0.0248257575757576,-0.0025,0.0149893882726986));
#1729=CARTESIAN_POINT('',(0.,-0.0025,1.77573785876366E-18));
#1730=CARTESIAN_POINT('',(0.0149893882726986,-0.0025,0.0248257575757576));
#1731=CARTESIAN_POINT('',(0.0149893882726986,-0.009,0.0248257575757576));
#1732=CARTESIAN_POINT('',(-3.46944695195361E-18,-0.0025,0.022));
#1733=CARTESIAN_POINT('',(0.0119619748777201,-0.0025,0.0229545454545455));
#1734=CARTESIAN_POINT('',(0.0119619748777201,-0.0025,0.0229545454545455));
#1735=CARTESIAN_POINT('',(-3.46944695195361E-18,-0.0025,0.022));
#1736=CARTESIAN_POINT('',(0.00927270680997414,-0.0025,0.0143831168831169));
#1737=CARTESIAN_POINT('',(0.00927270680997415,-0.0025,0.0143831168831169));
#1738=CARTESIAN_POINT('',(6.93889390390723E-18,-0.0025,0.));
#1739=CARTESIAN_POINT('',(0.0231136363636364,-0.0025,0.0139556373573401));
#1740=CARTESIAN_POINT('',(0.0229545454545455,-0.0025,0.0119619748777201));
#1741=CARTESIAN_POINT('',(0.022,-0.0025,2.03583068647101E-18));
#1742=CARTESIAN_POINT('',(0.0143831168831169,-0.0025,0.00927270680997415));
#1743=CARTESIAN_POINT('',(0.0131136363636364,-0.0025,0.0108181579449698));
#1744=CARTESIAN_POINT('',(0.0108181579449698,-0.0025,0.0131136363636364));
#1745=CARTESIAN_POINT('',(0.0139556373573401,-0.0025,0.0231136363636364));
#1746=CARTESIAN_POINT('',(0.022,-0.0025,2.03583068647101E-18));
#1747=CARTESIAN_POINT('',(0.0229545454545455,-0.0025,0.0119619748777201));
#1748=CARTESIAN_POINT('',(0.0143831168831169,-0.0025,0.00927270680997415));
#1749=CARTESIAN_POINT('',(0.022,0.016,5.42101086242752E-18));
#1750=CARTESIAN_POINT('',(0.022,-0.01,5.42101086242752E-18));
#1751=CARTESIAN_POINT('',(0.022,-0.01,-0.00699999999999999));
#1752=CARTESIAN_POINT('',(0.,-0.009,1.77573785876366E-18));
#1753=CARTESIAN_POINT('',(0.0149893882726986,-0.009,-0.0248257575757575));
#1754=CARTESIAN_POINT('',(0.0149893882726986,-0.0025,-0.0248257575757575));
#1755=CARTESIAN_POINT('',(0.,-0.0025,1.77573785876366E-18));
#1756=CARTESIAN_POINT('',(0.0248257575757576,-0.0025,-0.0149893882726986));
#1757=CARTESIAN_POINT('',(0.0248257575757576,-0.009,-0.0149893882726986));
#1758=CARTESIAN_POINT('',(0.022,-0.0025,2.03583068647101E-18));
#1759=CARTESIAN_POINT('',(0.0229545454545455,-0.0025,-0.0119619748777201));
#1760=CARTESIAN_POINT('',(0.0229545454545455,-0.0025,-0.0119619748777201));
#1761=CARTESIAN_POINT('',(0.022,-0.0025,2.03583068647101E-18));
#1762=CARTESIAN_POINT('',(0.0143831168831169,-0.0025,-0.00927270680997415));
#1763=CARTESIAN_POINT('',(0.0143831168831169,-0.0025,-0.00927270680997415));
#1764=CARTESIAN_POINT('',(6.93889390390723E-18,-0.0025,0.));
#1765=CARTESIAN_POINT('',(0.0139556373573401,-0.0025,-0.0231136363636364));
#1766=CARTESIAN_POINT('',(0.0119619748777201,-0.0025,-0.0229545454545455));
#1767=CARTESIAN_POINT('',(8.67361737988404E-18,-0.0025,-0.022));
#1768=CARTESIAN_POINT('',(0.00927270680997415,-0.0025,-0.0143831168831169));
#1769=CARTESIAN_POINT('',(0.0108181579449698,-0.0025,-0.0131136363636364));
#1770=CARTESIAN_POINT('',(0.0131136363636364,-0.0025,-0.0108181579449698));
#1771=CARTESIAN_POINT('',(0.0231136363636364,-0.0025,-0.0139556373573401));
#1772=CARTESIAN_POINT('',(8.67361737988404E-18,-0.0025,-0.022));
#1773=CARTESIAN_POINT('',(0.0119619748777201,-0.0025,-0.0229545454545455));
#1774=CARTESIAN_POINT('',(0.00927270680997415,-0.0025,-0.0143831168831169));
#1775=CARTESIAN_POINT('',(0.,-0.006,2.87791997799628E-18));
#1776=CARTESIAN_POINT('',(0.,-0.007,2.87791997799628E-18));
#1777=CARTESIAN_POINT('',(0.,-0.007,-0.032));
#1778=CARTESIAN_POINT('',(0.,-0.018,2.87791997799628E-18));
#1779=CARTESIAN_POINT('',(0.,-0.018,-0.032));
#1780=CARTESIAN_POINT('',(-0.0231136363636364,-0.0025,0.0139556373573401));
#1781=CARTESIAN_POINT('',(-0.0139556373573401,-0.009,0.0231136363636364));
#1782=CARTESIAN_POINT('',(-0.0231136363636364,-0.009,-0.0139556373573401));
#1783=CARTESIAN_POINT('',(-0.0139556373573401,-0.0025,-0.0231136363636364));
#1784=CARTESIAN_POINT('',(0.0139556373573401,-0.009,-0.0231136363636364));
#1785=CARTESIAN_POINT('',(0.0231136363636364,-0.0025,-0.0139556373573401));
#1786=CARTESIAN_POINT('',(0.0131136363636364,-0.009,-0.0108181579449698));
#1787=CARTESIAN_POINT('',(0.0108181579449698,-0.0025,-0.0131136363636364));
#1788=CARTESIAN_POINT('',(-0.0108181579449698,-0.0025,0.0131136363636364));
#1789=CARTESIAN_POINT('',(-0.0131136363636364,-0.009,0.0108181579449698));
#1790=CARTESIAN_POINT('',(-0.0131136363636364,-0.0025,-0.0108181579449698));
#1791=CARTESIAN_POINT('',(-0.0108181579449698,-0.009,-0.0131136363636364));
#1792=CARTESIAN_POINT('',(0.0231136363636364,-0.009,0.0139556373573401));
#1793=CARTESIAN_POINT('',(0.0139556373573401,-0.0025,0.0231136363636364));
#1794=CARTESIAN_POINT('',(0.0108181579449698,-0.009,0.0131136363636364));
#1795=CARTESIAN_POINT('',(0.0131136363636364,-0.0025,0.0108181579449698));
#1796=CARTESIAN_POINT('',(0.,-0.006,4.28626379701574E-19));
#1797=CARTESIAN_POINT('',(0.,-0.02,4.28626379701574E-19));
#1798=CARTESIAN_POINT('',(0.,-0.02,-0.007));
#1799=CARTESIAN_POINT('',(0.,-0.01,0.));
#1800=CARTESIAN_POINT('',(0.,-0.01,0.));
#1801=CARTESIAN_POINT('',(0.,-0.01,0.));
#1802=CARTESIAN_POINT('',(0.,-0.01,0.));
#1803=CARTESIAN_POINT('',(0.,-0.02,0.));
#1804=CARTESIAN_POINT('',(-0.015556349186104,-0.02,-0.015556349186104));
#1805=CARTESIAN_POINT('',(-0.015556349186104,-0.02,-0.0203063491861041));
#1806=CARTESIAN_POINT('',(0.015556349186104,-0.02,-0.015556349186104));
#1807=CARTESIAN_POINT('',(0.015556349186104,-0.02,-0.0203063491861041));
#1808=CARTESIAN_POINT('',(0.015556349186104,-0.02,0.015556349186104));
#1809=CARTESIAN_POINT('',(0.015556349186104,-0.02,0.010806349186104));
#1810=CARTESIAN_POINT('',(-0.015556349186104,-0.02,0.015556349186104));
#1811=CARTESIAN_POINT('',(-0.015556349186104,-0.02,0.010806349186104));
#1812=CARTESIAN_POINT('',(0.,-0.02,2.87791997799628E-18));
#1813=CARTESIAN_POINT('',(0.,-0.02,-0.03));
#1814=CARTESIAN_POINT('',(-0.015556349186104,-0.015,0.015556349186104));
#1815=CARTESIAN_POINT('',(-0.015556349186104,-0.019,0.015556349186104));
#1816=CARTESIAN_POINT('',(-0.015556349186104,-0.019,0.011806349186104));
#1817=CARTESIAN_POINT('',(-0.015556349186104,-0.015,0.015556349186104));
#1818=CARTESIAN_POINT('',(-0.015556349186104,-0.015,0.011806349186104));
#1819=CARTESIAN_POINT('',(0.,-0.015,0.));
#1820=CARTESIAN_POINT('',(0.015556349186104,-0.015,-0.015556349186104));
#1821=CARTESIAN_POINT('',(0.015556349186104,-0.019,-0.015556349186104));
#1822=CARTESIAN_POINT('',(0.015556349186104,-0.019,-0.019306349186104));
#1823=CARTESIAN_POINT('',(0.015556349186104,-0.015,-0.015556349186104));
#1824=CARTESIAN_POINT('',(0.015556349186104,-0.015,-0.019306349186104));
#1825=CARTESIAN_POINT('',(0.,-0.015,0.));
#1826=CARTESIAN_POINT('',(-0.015556349186104,-0.015,-0.015556349186104));
#1827=CARTESIAN_POINT('',(-0.015556349186104,-0.019,-0.015556349186104));
#1828=CARTESIAN_POINT('',(-0.015556349186104,-0.019,-0.019306349186104));
#1829=CARTESIAN_POINT('',(-0.015556349186104,-0.015,-0.015556349186104));
#1830=CARTESIAN_POINT('',(-0.015556349186104,-0.015,-0.019306349186104));
#1831=CARTESIAN_POINT('',(0.,-0.015,0.));
#1832=CARTESIAN_POINT('',(0.015556349186104,-0.015,0.015556349186104));
#1833=CARTESIAN_POINT('',(0.015556349186104,-0.019,0.015556349186104));
#1834=CARTESIAN_POINT('',(0.015556349186104,-0.019,0.011806349186104));
#1835=CARTESIAN_POINT('',(0.015556349186104,-0.015,0.015556349186104));
#1836=CARTESIAN_POINT('',(0.015556349186104,-0.015,0.011806349186104));
#1837=CARTESIAN_POINT('',(0.,-0.015,0.));
#1838=CARTESIAN_POINT('',(0.,-0.02,2.87791997799628E-18));
#1839=CARTESIAN_POINT('',(-0.015556349186104,-0.019,-0.015556349186104));
#1840=CARTESIAN_POINT('',(0.015556349186104,-0.019,-0.015556349186104));
#1841=CARTESIAN_POINT('',(0.015556349186104,-0.019,0.015556349186104));
#1842=CARTESIAN_POINT('',(-0.015556349186104,-0.019,0.015556349186104));
#1843=CARTESIAN_POINT('',(0.,-0.007,2.87791997799628E-18));
#1844=MECHANICAL_DESIGN_GEOMETRIC_PRESENTATION_REPRESENTATION('',(#1011),
#1845);
#1845=(
GEOMETRIC_REPRESENTATION_CONTEXT(3)
GLOBAL_UNCERTAINTY_ASSIGNED_CONTEXT((#1846))
GLOBAL_UNIT_ASSIGNED_CONTEXT((#1849,#1848,#1847))
REPRESENTATION_CONTEXT('Output Male','TOP_LEVEL_ASSEMBLY_PART')
);
#1846=UNCERTAINTY_MEASURE_WITH_UNIT(LENGTH_MEASURE(1.E-8),#1849,
'DISTANCE_ACCURACY_VALUE','Maximum Tolerance applied to model');
#1847=(
NAMED_UNIT(*)
SI_UNIT($,.STERADIAN.)
SOLID_ANGLE_UNIT()
);
#1848=(
NAMED_UNIT(*)
PLANE_ANGLE_UNIT()
SI_UNIT($,.RADIAN.)
);
#1849=(
LENGTH_UNIT()
NAMED_UNIT(*)
SI_UNIT($,.METRE.)
);
#1850=PRODUCT_DEFINITION_SHAPE('','',#1851);
#1851=PRODUCT_DEFINITION('','',#1853,#1852);
#1852=PRODUCT_DEFINITION_CONTEXT('',#1859,'design');
#1853=PRODUCT_DEFINITION_FORMATION_WITH_SPECIFIED_SOURCE('','',#1855,
 .NOT_KNOWN.);
#1854=PRODUCT_RELATED_PRODUCT_CATEGORY('','',(#1855));
#1855=PRODUCT('Output Male','Output Male','Output Male',(#1857));
#1856=PRODUCT_CATEGORY('','');
#1857=PRODUCT_CONTEXT('',#1859,'mechanical');
#1858=APPLICATION_PROTOCOL_DEFINITION('international standard',
'ap242_managed_model_based_3d_engineering',2020,#1859);
#1859=APPLICATION_CONTEXT('managed model based 3d engineering');
ENDSEC;
END-ISO-10303-21;
