ISO-10303-21;
HEADER;
/* Generated by software containing ST-Developer
 * from STEP Tools, Inc. (www.steptools.com) 
 */
/* OPTION: using custom renumber hook */

FILE_DESCRIPTION(
/* description */ ('STEP AP242 Edition 2',
'CAx-IF Rec.Pracs.---Representation and Presentation of Product Manufa
cturing Information (PMI)---4.0---2014-10-13',
'CAx-IF Rec.Pracs.---3D Tessellated Geometry---0.4---2014-09-14','2;1',
'CAx-IF Rec.Pracs.---User Defined Attributes---1.5---2016-08-15'),
/* implementation_level */ '2;1');

FILE_NAME(
/* name */ 'Assembly 1 - C1 Input Clutch',
/* time_stamp */ '2026-06-22T21:27:50Z',
/* author */ (''),
/* organization */ (''),
/* preprocessor_version */ 'ST-DEVELOPER v20',
/* originating_system */ 'ONSHAPE BY PTC INC, 1.216',
/* authorisation */ '  ');

FILE_SCHEMA (('AP242_MANAGED_MODEL_BASED_3D_ENGINEERING_MIM_LF { 1 0 10303 442 3 1 4 }'));
ENDSEC;

DATA;
#10=SHAPE_REPRESENTATION_RELATIONSHIP('','',#891,#11);
#11=ADVANCED_BREP_SHAPE_REPRESENTATION('',(#889),#1560);
#12=CONICAL_SURFACE('',#935,0.021,0.785398163397448);
#13=CONICAL_SURFACE('',#941,0.024,0.785398163397448);
#14=CONICAL_SURFACE('',#945,0.0195,1.17809724509617);
#15=CONICAL_SURFACE('',#950,0.0195,1.17809724509617);
#16=CONICAL_SURFACE('',#967,0.021,0.785398163397448);
#17=CONICAL_SURFACE('',#970,0.024,0.785398163397448);
#18=CONICAL_SURFACE('',#973,0.0195,1.17809724509617);
#19=CONICAL_SURFACE('',#974,0.0195,1.17809724509617);
#20=PLANE('',#902);
#21=PLANE('',#910);
#22=PLANE('',#914);
#23=PLANE('',#922);
#24=PLANE('',#926);
#25=PLANE('',#927);
#26=PLANE('',#928);
#27=PLANE('',#934);
#28=PLANE('',#937);
#29=PLANE('',#938);
#30=PLANE('',#939);
#31=PLANE('',#940);
#32=PLANE('',#943);
#33=PLANE('',#944);
#34=PLANE('',#946);
#35=PLANE('',#947);
#36=PLANE('',#948);
#37=PLANE('',#949);
#38=PLANE('',#951);
#39=PLANE('',#952);
#40=PLANE('',#954);
#41=PLANE('',#955);
#42=PLANE('',#956);
#43=PLANE('',#957);
#44=PLANE('',#958);
#45=PLANE('',#959);
#46=PLANE('',#961);
#47=PLANE('',#963);
#48=PLANE('',#965);
#49=PLANE('',#977);
#50=PLANE('',#978);
#51=PLANE('',#983);
#52=PLANE('',#984);
#53=ELLIPSE('',#897,0.0183847763108502,0.013);
#54=ELLIPSE('',#898,0.0140710986038011,0.013);
#55=ELLIPSE('',#900,0.0140710986038011,0.013);
#56=ELLIPSE('',#901,0.0183847763108502,0.013);
#57=ELLIPSE('',#904,0.0140710986038011,0.013);
#58=ELLIPSE('',#906,0.0140710986038011,0.013);
#59=ELLIPSE('',#907,0.0183847763108502,0.013);
#60=ELLIPSE('',#909,0.0183847763108502,0.013);
#61=ELLIPSE('',#917,0.0140710986038011,0.013);
#62=ELLIPSE('',#918,0.0183847763108503,0.013);
#63=ELLIPSE('',#920,0.0183847763108503,0.013);
#64=ELLIPSE('',#921,0.0140710986038011,0.013);
#65=ELLIPSE('',#960,0.0183847763108503,0.013);
#66=ELLIPSE('',#962,0.0183847763108503,0.013);
#67=ELLIPSE('',#964,0.0140710986038011,0.013);
#68=ELLIPSE('',#966,0.0140710986038011,0.013);
#69=LINE('',#1260,#135);
#70=LINE('',#1265,#136);
#71=LINE('',#1277,#137);
#72=LINE('',#1280,#138);
#73=LINE('',#1282,#139);
#74=LINE('',#1284,#140);
#75=LINE('',#1295,#141);
#76=LINE('',#1300,#142);
#77=LINE('',#1303,#143);
#78=LINE('',#1304,#144);
#79=LINE('',#1306,#145);
#80=LINE('',#1312,#146);
#81=LINE('',#1315,#147);
#82=LINE('',#1316,#148);
#83=LINE('',#1325,#149);
#84=LINE('',#1332,#150);
#85=LINE('',#1334,#151);
#86=LINE('',#1336,#152);
#87=LINE('',#1340,#153);
#88=LINE('',#1344,#154);
#89=LINE('',#1345,#155);
#90=LINE('',#1347,#156);
#91=LINE('',#1349,#157);
#92=LINE('',#1351,#158);
#93=LINE('',#1353,#159);
#94=LINE('',#1356,#160);
#95=LINE('',#1358,#161);
#96=LINE('',#1360,#162);
#97=LINE('',#1362,#163);
#98=LINE('',#1364,#164);
#99=LINE('',#1365,#165);
#100=LINE('',#1369,#166);
#101=LINE('',#1373,#167);
#102=LINE('',#1377,#168);
#103=LINE('',#1378,#169);
#104=LINE('',#1382,#170);
#105=LINE('',#1383,#171);
#106=LINE('',#1387,#172);
#107=LINE('',#1394,#173);
#108=LINE('',#1403,#174);
#109=LINE('',#1405,#175);
#110=LINE('',#1417,#176);
#111=LINE('',#1424,#177);
#112=LINE('',#1433,#178);
#113=LINE('',#1467,#179);
#114=LINE('',#1469,#180);
#115=LINE('',#1471,#181);
#116=LINE('',#1475,#182);
#117=LINE('',#1477,#183);
#118=LINE('',#1479,#184);
#119=LINE('',#1481,#185);
#120=LINE('',#1483,#186);
#121=LINE('',#1485,#187);
#122=LINE('',#1487,#188);
#123=LINE('',#1489,#189);
#124=LINE('',#1491,#190);
#125=LINE('',#1496,#191);
#126=LINE('',#1503,#192);
#127=LINE('',#1511,#193);
#128=LINE('',#1515,#194);
#129=LINE('',#1539,#195);
#130=LINE('',#1541,#196);
#131=LINE('',#1543,#197);
#132=LINE('',#1545,#198);
#133=LINE('',#1547,#199);
#134=LINE('',#1549,#200);
#135=VECTOR('',#995,1.);
#136=VECTOR('',#998,1.);
#137=VECTOR('',#1011,1.);
#138=VECTOR('',#1012,1.);
#139=VECTOR('',#1013,1.);
#140=VECTOR('',#1014,1.);
#141=VECTOR('',#1025,1.);
#142=VECTOR('',#1032,1.);
#143=VECTOR('',#1033,1.);
#144=VECTOR('',#1034,1.);
#145=VECTOR('',#1037,1.);
#146=VECTOR('',#1044,1.);
#147=VECTOR('',#1045,1.);
#148=VECTOR('',#1046,1.);
#149=VECTOR('',#1055,1.);
#150=VECTOR('',#1064,1.);
#151=VECTOR('',#1065,1.);
#152=VECTOR('',#1066,1.);
#153=VECTOR('',#1071,1.);
#154=VECTOR('',#1076,1.);
#155=VECTOR('',#1077,1.);
#156=VECTOR('',#1080,1.);
#157=VECTOR('',#1081,1.);
#158=VECTOR('',#1082,1.);
#159=VECTOR('',#1085,1.);
#160=VECTOR('',#1086,1.);
#161=VECTOR('',#1087,1.);
#162=VECTOR('',#1088,1.);
#163=VECTOR('',#1089,1.);
#164=VECTOR('',#1090,1.);
#165=VECTOR('',#1091,1.);
#166=VECTOR('',#1094,1.);
#167=VECTOR('',#1097,1.);
#168=VECTOR('',#1100,1.);
#169=VECTOR('',#1101,1.);
#170=VECTOR('',#1104,1.);
#171=VECTOR('',#1105,1.);
#172=VECTOR('',#1108,1.);
#173=VECTOR('',#1111,1.);
#174=VECTOR('',#1118,1.);
#175=VECTOR('',#1121,1.);
#176=VECTOR('',#1124,1.);
#177=VECTOR('',#1127,1.);
#178=VECTOR('',#1134,1.);
#179=VECTOR('',#1153,1.);
#180=VECTOR('',#1154,1.);
#181=VECTOR('',#1155,1.);
#182=VECTOR('',#1160,1.);
#183=VECTOR('',#1161,1.);
#184=VECTOR('',#1164,1.);
#185=VECTOR('',#1165,1.);
#186=VECTOR('',#1168,1.);
#187=VECTOR('',#1169,1.);
#188=VECTOR('',#1172,1.);
#189=VECTOR('',#1173,1.);
#190=VECTOR('',#1176,1.);
#191=VECTOR('',#1181,1.);
#192=VECTOR('',#1182,1.);
#193=VECTOR('',#1185,1.);
#194=VECTOR('',#1188,1.);
#195=VECTOR('',#1217,1.);
#196=VECTOR('',#1220,1.);
#197=VECTOR('',#1221,1.);
#198=VECTOR('',#1224,1.);
#199=VECTOR('',#1225,1.);
#200=VECTOR('',#1226,1.);
#201=CIRCLE('',#894,0.00375);
#202=CIRCLE('',#896,0.013);
#203=CIRCLE('',#899,0.013);
#204=CIRCLE('',#905,0.013);
#205=CIRCLE('',#908,0.013);
#206=CIRCLE('',#912,0.024);
#207=CIRCLE('',#913,0.024);
#208=CIRCLE('',#916,0.013);
#209=CIRCLE('',#919,0.013);
#210=CIRCLE('',#924,0.024);
#211=CIRCLE('',#925,0.024);
#212=CIRCLE('',#929,0.0195);
#213=CIRCLE('',#930,0.013);
#214=CIRCLE('',#931,0.0195);
#215=CIRCLE('',#932,0.0195);
#216=CIRCLE('',#933,0.0195);
#217=CIRCLE('',#936,0.0220606601717798);
#218=CIRCLE('',#942,0.0220606601717798);
#219=CIRCLE('',#953,0.00185);
#220=CIRCLE('',#968,0.0220606601717799);
#221=CIRCLE('',#969,0.024);
#222=CIRCLE('',#971,0.0220606601717799);
#223=CIRCLE('',#972,0.024);
#224=CIRCLE('',#976,0.024);
#225=CIRCLE('',#980,0.024);
#226=CIRCLE('',#982,0.013);
#227=CIRCLE('',#985,0.00185);
#228=ORIENTED_EDGE('',*,*,#480,.T.);
#229=ORIENTED_EDGE('',*,*,#481,.F.);
#230=ORIENTED_EDGE('',*,*,#482,.F.);
#231=ORIENTED_EDGE('',*,*,#483,.T.);
#232=ORIENTED_EDGE('',*,*,#484,.T.);
#233=ORIENTED_EDGE('',*,*,#485,.T.);
#234=ORIENTED_EDGE('',*,*,#486,.T.);
#235=ORIENTED_EDGE('',*,*,#487,.F.);
#236=ORIENTED_EDGE('',*,*,#488,.T.);
#237=ORIENTED_EDGE('',*,*,#489,.T.);
#238=ORIENTED_EDGE('',*,*,#490,.F.);
#239=ORIENTED_EDGE('',*,*,#491,.T.);
#240=ORIENTED_EDGE('',*,*,#492,.T.);
#241=ORIENTED_EDGE('',*,*,#493,.T.);
#242=ORIENTED_EDGE('',*,*,#494,.T.);
#243=ORIENTED_EDGE('',*,*,#495,.F.);
#244=ORIENTED_EDGE('',*,*,#496,.T.);
#245=ORIENTED_EDGE('',*,*,#497,.T.);
#246=ORIENTED_EDGE('',*,*,#498,.F.);
#247=ORIENTED_EDGE('',*,*,#499,.T.);
#248=ORIENTED_EDGE('',*,*,#490,.T.);
#249=ORIENTED_EDGE('',*,*,#500,.T.);
#250=ORIENTED_EDGE('',*,*,#501,.F.);
#251=ORIENTED_EDGE('',*,*,#502,.T.);
#252=ORIENTED_EDGE('',*,*,#482,.T.);
#253=ORIENTED_EDGE('',*,*,#503,.T.);
#254=ORIENTED_EDGE('',*,*,#504,.F.);
#255=ORIENTED_EDGE('',*,*,#505,.F.);
#256=ORIENTED_EDGE('',*,*,#501,.T.);
#257=ORIENTED_EDGE('',*,*,#506,.T.);
#258=ORIENTED_EDGE('',*,*,#507,.F.);
#259=ORIENTED_EDGE('',*,*,#508,.T.);
#260=ORIENTED_EDGE('',*,*,#504,.T.);
#261=ORIENTED_EDGE('',*,*,#509,.T.);
#262=ORIENTED_EDGE('',*,*,#510,.F.);
#263=ORIENTED_EDGE('',*,*,#511,.T.);
#264=ORIENTED_EDGE('',*,*,#512,.T.);
#265=ORIENTED_EDGE('',*,*,#513,.F.);
#266=ORIENTED_EDGE('',*,*,#514,.T.);
#267=ORIENTED_EDGE('',*,*,#507,.T.);
#268=ORIENTED_EDGE('',*,*,#515,.T.);
#269=ORIENTED_EDGE('',*,*,#516,.T.);
#270=ORIENTED_EDGE('',*,*,#484,.F.);
#271=ORIENTED_EDGE('',*,*,#517,.T.);
#272=ORIENTED_EDGE('',*,*,#518,.T.);
#273=ORIENTED_EDGE('',*,*,#519,.T.);
#274=ORIENTED_EDGE('',*,*,#518,.F.);
#275=ORIENTED_EDGE('',*,*,#520,.T.);
#276=ORIENTED_EDGE('',*,*,#521,.T.);
#277=ORIENTED_EDGE('',*,*,#522,.T.);
#278=ORIENTED_EDGE('',*,*,#521,.F.);
#279=ORIENTED_EDGE('',*,*,#523,.T.);
#280=ORIENTED_EDGE('',*,*,#498,.T.);
#281=ORIENTED_EDGE('',*,*,#524,.T.);
#282=ORIENTED_EDGE('',*,*,#525,.T.);
#283=ORIENTED_EDGE('',*,*,#526,.F.);
#284=ORIENTED_EDGE('',*,*,#527,.T.);
#285=ORIENTED_EDGE('',*,*,#513,.T.);
#286=ORIENTED_EDGE('',*,*,#528,.T.);
#287=ORIENTED_EDGE('',*,*,#529,.T.);
#288=ORIENTED_EDGE('',*,*,#530,.T.);
#289=ORIENTED_EDGE('',*,*,#531,.T.);
#290=ORIENTED_EDGE('',*,*,#532,.T.);
#291=ORIENTED_EDGE('',*,*,#533,.T.);
#292=ORIENTED_EDGE('',*,*,#495,.T.);
#293=ORIENTED_EDGE('',*,*,#534,.T.);
#294=ORIENTED_EDGE('',*,*,#535,.T.);
#295=ORIENTED_EDGE('',*,*,#536,.T.);
#296=ORIENTED_EDGE('',*,*,#537,.T.);
#297=ORIENTED_EDGE('',*,*,#538,.T.);
#298=ORIENTED_EDGE('',*,*,#539,.T.);
#299=ORIENTED_EDGE('',*,*,#540,.T.);
#300=ORIENTED_EDGE('',*,*,#510,.T.);
#301=ORIENTED_EDGE('',*,*,#541,.T.);
#302=ORIENTED_EDGE('',*,*,#542,.T.);
#303=ORIENTED_EDGE('',*,*,#543,.T.);
#304=ORIENTED_EDGE('',*,*,#487,.T.);
#305=ORIENTED_EDGE('',*,*,#544,.T.);
#306=ORIENTED_EDGE('',*,*,#545,.T.);
#307=ORIENTED_EDGE('',*,*,#546,.T.);
#308=ORIENTED_EDGE('',*,*,#547,.F.);
#309=ORIENTED_EDGE('',*,*,#548,.T.);
#310=ORIENTED_EDGE('',*,*,#485,.F.);
#311=ORIENTED_EDGE('',*,*,#519,.F.);
#312=ORIENTED_EDGE('',*,*,#549,.F.);
#313=ORIENTED_EDGE('',*,*,#550,.T.);
#314=ORIENTED_EDGE('',*,*,#547,.T.);
#315=ORIENTED_EDGE('',*,*,#522,.F.);
#316=ORIENTED_EDGE('',*,*,#497,.F.);
#317=ORIENTED_EDGE('',*,*,#551,.T.);
#318=ORIENTED_EDGE('',*,*,#549,.T.);
#319=ORIENTED_EDGE('',*,*,#524,.F.);
#320=ORIENTED_EDGE('',*,*,#552,.T.);
#321=ORIENTED_EDGE('',*,*,#553,.T.);
#322=ORIENTED_EDGE('',*,*,#525,.F.);
#323=ORIENTED_EDGE('',*,*,#512,.F.);
#324=ORIENTED_EDGE('',*,*,#493,.F.);
#325=ORIENTED_EDGE('',*,*,#554,.F.);
#326=ORIENTED_EDGE('',*,*,#555,.T.);
#327=ORIENTED_EDGE('',*,*,#500,.F.);
#328=ORIENTED_EDGE('',*,*,#556,.F.);
#329=ORIENTED_EDGE('',*,*,#557,.T.);
#330=ORIENTED_EDGE('',*,*,#515,.F.);
#331=ORIENTED_EDGE('',*,*,#509,.F.);
#332=ORIENTED_EDGE('',*,*,#558,.F.);
#333=ORIENTED_EDGE('',*,*,#559,.T.);
#334=ORIENTED_EDGE('',*,*,#556,.T.);
#335=ORIENTED_EDGE('',*,*,#506,.F.);
#336=ORIENTED_EDGE('',*,*,#489,.F.);
#337=ORIENTED_EDGE('',*,*,#560,.T.);
#338=ORIENTED_EDGE('',*,*,#558,.T.);
#339=ORIENTED_EDGE('',*,*,#503,.F.);
#340=ORIENTED_EDGE('',*,*,#486,.F.);
#341=ORIENTED_EDGE('',*,*,#548,.F.);
#342=ORIENTED_EDGE('',*,*,#561,.F.);
#343=ORIENTED_EDGE('',*,*,#544,.F.);
#344=ORIENTED_EDGE('',*,*,#561,.T.);
#345=ORIENTED_EDGE('',*,*,#550,.F.);
#346=ORIENTED_EDGE('',*,*,#562,.F.);
#347=ORIENTED_EDGE('',*,*,#545,.F.);
#348=ORIENTED_EDGE('',*,*,#562,.T.);
#349=ORIENTED_EDGE('',*,*,#551,.F.);
#350=ORIENTED_EDGE('',*,*,#496,.F.);
#351=ORIENTED_EDGE('',*,*,#546,.F.);
#352=ORIENTED_EDGE('',*,*,#511,.F.);
#353=ORIENTED_EDGE('',*,*,#540,.F.);
#354=ORIENTED_EDGE('',*,*,#563,.T.);
#355=ORIENTED_EDGE('',*,*,#552,.F.);
#356=ORIENTED_EDGE('',*,*,#555,.F.);
#357=ORIENTED_EDGE('',*,*,#564,.F.);
#358=ORIENTED_EDGE('',*,*,#534,.F.);
#359=ORIENTED_EDGE('',*,*,#494,.F.);
#360=ORIENTED_EDGE('',*,*,#516,.F.);
#361=ORIENTED_EDGE('',*,*,#557,.F.);
#362=ORIENTED_EDGE('',*,*,#565,.F.);
#363=ORIENTED_EDGE('',*,*,#541,.F.);
#364=ORIENTED_EDGE('',*,*,#565,.T.);
#365=ORIENTED_EDGE('',*,*,#559,.F.);
#366=ORIENTED_EDGE('',*,*,#566,.F.);
#367=ORIENTED_EDGE('',*,*,#542,.F.);
#368=ORIENTED_EDGE('',*,*,#566,.T.);
#369=ORIENTED_EDGE('',*,*,#560,.F.);
#370=ORIENTED_EDGE('',*,*,#488,.F.);
#371=ORIENTED_EDGE('',*,*,#543,.F.);
#372=ORIENTED_EDGE('',*,*,#567,.T.);
#373=ORIENTED_EDGE('',*,*,#568,.T.);
#374=ORIENTED_EDGE('',*,*,#569,.F.);
#375=ORIENTED_EDGE('',*,*,#529,.F.);
#376=ORIENTED_EDGE('',*,*,#570,.T.);
#377=ORIENTED_EDGE('',*,*,#569,.T.);
#378=ORIENTED_EDGE('',*,*,#571,.T.);
#379=ORIENTED_EDGE('',*,*,#572,.F.);
#380=ORIENTED_EDGE('',*,*,#530,.F.);
#381=ORIENTED_EDGE('',*,*,#572,.T.);
#382=ORIENTED_EDGE('',*,*,#573,.T.);
#383=ORIENTED_EDGE('',*,*,#574,.F.);
#384=ORIENTED_EDGE('',*,*,#531,.F.);
#385=ORIENTED_EDGE('',*,*,#574,.T.);
#386=ORIENTED_EDGE('',*,*,#575,.T.);
#387=ORIENTED_EDGE('',*,*,#576,.F.);
#388=ORIENTED_EDGE('',*,*,#532,.F.);
#389=ORIENTED_EDGE('',*,*,#576,.T.);
#390=ORIENTED_EDGE('',*,*,#577,.T.);
#391=ORIENTED_EDGE('',*,*,#578,.F.);
#392=ORIENTED_EDGE('',*,*,#533,.F.);
#393=ORIENTED_EDGE('',*,*,#578,.T.);
#394=ORIENTED_EDGE('',*,*,#579,.T.);
#395=ORIENTED_EDGE('',*,*,#567,.F.);
#396=ORIENTED_EDGE('',*,*,#528,.F.);
#397=ORIENTED_EDGE('',*,*,#580,.F.);
#398=ORIENTED_EDGE('',*,*,#581,.T.);
#399=ORIENTED_EDGE('',*,*,#582,.T.);
#400=ORIENTED_EDGE('',*,*,#583,.F.);
#401=ORIENTED_EDGE('',*,*,#584,.F.);
#402=ORIENTED_EDGE('',*,*,#585,.T.);
#403=ORIENTED_EDGE('',*,*,#586,.F.);
#404=ORIENTED_EDGE('',*,*,#587,.F.);
#405=ORIENTED_EDGE('',*,*,#588,.F.);
#406=ORIENTED_EDGE('',*,*,#585,.F.);
#407=ORIENTED_EDGE('',*,*,#589,.F.);
#408=ORIENTED_EDGE('',*,*,#538,.F.);
#409=ORIENTED_EDGE('',*,*,#590,.T.);
#410=ORIENTED_EDGE('',*,*,#581,.F.);
#411=ORIENTED_EDGE('',*,*,#591,.F.);
#412=ORIENTED_EDGE('',*,*,#536,.F.);
#413=ORIENTED_EDGE('',*,*,#553,.F.);
#414=ORIENTED_EDGE('',*,*,#592,.T.);
#415=ORIENTED_EDGE('',*,*,#584,.T.);
#416=ORIENTED_EDGE('',*,*,#593,.F.);
#417=ORIENTED_EDGE('',*,*,#582,.F.);
#418=ORIENTED_EDGE('',*,*,#594,.T.);
#419=ORIENTED_EDGE('',*,*,#554,.T.);
#420=ORIENTED_EDGE('',*,*,#595,.F.);
#421=ORIENTED_EDGE('',*,*,#589,.T.);
#422=ORIENTED_EDGE('',*,*,#592,.F.);
#423=ORIENTED_EDGE('',*,*,#563,.F.);
#424=ORIENTED_EDGE('',*,*,#539,.F.);
#425=ORIENTED_EDGE('',*,*,#564,.T.);
#426=ORIENTED_EDGE('',*,*,#594,.F.);
#427=ORIENTED_EDGE('',*,*,#590,.F.);
#428=ORIENTED_EDGE('',*,*,#535,.F.);
#429=ORIENTED_EDGE('',*,*,#492,.F.);
#430=ORIENTED_EDGE('',*,*,#596,.F.);
#431=ORIENTED_EDGE('',*,*,#597,.T.);
#432=ORIENTED_EDGE('',*,*,#595,.T.);
#433=ORIENTED_EDGE('',*,*,#597,.F.);
#434=ORIENTED_EDGE('',*,*,#598,.T.);
#435=ORIENTED_EDGE('',*,*,#599,.T.);
#436=ORIENTED_EDGE('',*,*,#583,.T.);
#437=ORIENTED_EDGE('',*,*,#600,.F.);
#438=ORIENTED_EDGE('',*,*,#601,.T.);
#439=ORIENTED_EDGE('',*,*,#602,.T.);
#440=ORIENTED_EDGE('',*,*,#587,.T.);
#441=ORIENTED_EDGE('',*,*,#602,.F.);
#442=ORIENTED_EDGE('',*,*,#603,.T.);
#443=ORIENTED_EDGE('',*,*,#526,.T.);
#444=ORIENTED_EDGE('',*,*,#593,.T.);
#445=ORIENTED_EDGE('',*,*,#480,.F.);
#446=ORIENTED_EDGE('',*,*,#599,.F.);
#447=ORIENTED_EDGE('',*,*,#604,.T.);
#448=ORIENTED_EDGE('',*,*,#600,.T.);
#449=ORIENTED_EDGE('',*,*,#586,.T.);
#450=ORIENTED_EDGE('',*,*,#588,.T.);
#451=ORIENTED_EDGE('',*,*,#537,.F.);
#452=ORIENTED_EDGE('',*,*,#591,.T.);
#453=ORIENTED_EDGE('',*,*,#580,.T.);
#454=ORIENTED_EDGE('',*,*,#527,.F.);
#455=ORIENTED_EDGE('',*,*,#603,.F.);
#456=ORIENTED_EDGE('',*,*,#601,.F.);
#457=ORIENTED_EDGE('',*,*,#604,.F.);
#458=ORIENTED_EDGE('',*,*,#598,.F.);
#459=ORIENTED_EDGE('',*,*,#596,.T.);
#460=ORIENTED_EDGE('',*,*,#491,.F.);
#461=ORIENTED_EDGE('',*,*,#499,.F.);
#462=ORIENTED_EDGE('',*,*,#523,.F.);
#463=ORIENTED_EDGE('',*,*,#520,.F.);
#464=ORIENTED_EDGE('',*,*,#517,.F.);
#465=ORIENTED_EDGE('',*,*,#483,.F.);
#466=ORIENTED_EDGE('',*,*,#502,.F.);
#467=ORIENTED_EDGE('',*,*,#505,.T.);
#468=ORIENTED_EDGE('',*,*,#508,.F.);
#469=ORIENTED_EDGE('',*,*,#514,.F.);
#470=ORIENTED_EDGE('',*,*,#568,.F.);
#471=ORIENTED_EDGE('',*,*,#579,.F.);
#472=ORIENTED_EDGE('',*,*,#577,.F.);
#473=ORIENTED_EDGE('',*,*,#575,.F.);
#474=ORIENTED_EDGE('',*,*,#573,.F.);
#475=ORIENTED_EDGE('',*,*,#571,.F.);
#476=ORIENTED_EDGE('',*,*,#481,.T.);
#477=ORIENTED_EDGE('',*,*,#605,.F.);
#478=ORIENTED_EDGE('',*,*,#570,.F.);
#479=ORIENTED_EDGE('',*,*,#605,.T.);
#480=EDGE_CURVE('',#606,#606,#686,.T.);
#481=EDGE_CURVE('',#607,#607,#201,.F.);
#482=EDGE_CURVE('',#608,#609,#69,.T.);
#483=EDGE_CURVE('',#608,#610,#202,.F.);
#484=EDGE_CURVE('',#610,#611,#70,.T.);
#485=EDGE_CURVE('',#611,#612,#53,.T.);
#486=EDGE_CURVE('',#612,#613,#54,.T.);
#487=EDGE_CURVE('',#614,#613,#203,.T.);
#488=EDGE_CURVE('',#614,#615,#55,.T.);
#489=EDGE_CURVE('',#615,#609,#56,.T.);
#490=EDGE_CURVE('',#616,#617,#71,.T.);
#491=EDGE_CURVE('',#616,#618,#72,.T.);
#492=EDGE_CURVE('',#618,#619,#73,.T.);
#493=EDGE_CURVE('',#619,#617,#74,.T.);
#494=EDGE_CURVE('',#620,#621,#57,.T.);
#495=EDGE_CURVE('',#622,#621,#204,.T.);
#496=EDGE_CURVE('',#622,#623,#58,.T.);
#497=EDGE_CURVE('',#623,#624,#59,.T.);
#498=EDGE_CURVE('',#625,#624,#75,.T.);
#499=EDGE_CURVE('',#625,#616,#205,.F.);
#500=EDGE_CURVE('',#617,#620,#60,.T.);
#501=EDGE_CURVE('',#626,#627,#76,.T.);
#502=EDGE_CURVE('',#626,#608,#77,.T.);
#503=EDGE_CURVE('',#609,#627,#78,.T.);
#504=EDGE_CURVE('',#628,#629,#79,.T.);
#505=EDGE_CURVE('',#626,#628,#206,.T.);
#506=EDGE_CURVE('',#627,#629,#207,.T.);
#507=EDGE_CURVE('',#630,#631,#80,.T.);
#508=EDGE_CURVE('',#630,#628,#81,.T.);
#509=EDGE_CURVE('',#629,#631,#82,.T.);
#510=EDGE_CURVE('',#632,#633,#208,.T.);
#511=EDGE_CURVE('',#632,#634,#61,.T.);
#512=EDGE_CURVE('',#634,#635,#62,.T.);
#513=EDGE_CURVE('',#636,#635,#83,.T.);
#514=EDGE_CURVE('',#636,#630,#209,.F.);
#515=EDGE_CURVE('',#631,#637,#63,.T.);
#516=EDGE_CURVE('',#637,#633,#64,.T.);
#517=EDGE_CURVE('',#610,#638,#84,.T.);
#518=EDGE_CURVE('',#638,#639,#85,.T.);
#519=EDGE_CURVE('',#639,#611,#86,.T.);
#520=EDGE_CURVE('',#638,#640,#210,.F.);
#521=EDGE_CURVE('',#640,#641,#87,.T.);
#522=EDGE_CURVE('',#641,#639,#211,.T.);
#523=EDGE_CURVE('',#640,#625,#88,.T.);
#524=EDGE_CURVE('',#624,#641,#89,.T.);
#525=EDGE_CURVE('',#635,#642,#90,.T.);
#526=EDGE_CURVE('',#643,#642,#91,.T.);
#527=EDGE_CURVE('',#643,#636,#92,.T.);
#528=EDGE_CURVE('',#644,#645,#93,.T.);
#529=EDGE_CURVE('',#645,#646,#94,.T.);
#530=EDGE_CURVE('',#646,#647,#95,.T.);
#531=EDGE_CURVE('',#647,#648,#96,.T.);
#532=EDGE_CURVE('',#648,#649,#97,.T.);
#533=EDGE_CURVE('',#649,#644,#98,.T.);
#534=EDGE_CURVE('',#621,#650,#99,.T.);
#535=EDGE_CURVE('',#650,#651,#212,.F.);
#536=EDGE_CURVE('',#651,#652,#100,.T.);
#537=EDGE_CURVE('',#652,#653,#213,.T.);
#538=EDGE_CURVE('',#653,#654,#101,.T.);
#539=EDGE_CURVE('',#654,#655,#214,.F.);
#540=EDGE_CURVE('',#655,#632,#102,.T.);
#541=EDGE_CURVE('',#633,#656,#103,.T.);
#542=EDGE_CURVE('',#656,#657,#215,.F.);
#543=EDGE_CURVE('',#657,#614,#104,.T.);
#544=EDGE_CURVE('',#613,#658,#105,.T.);
#545=EDGE_CURVE('',#658,#659,#216,.F.);
#546=EDGE_CURVE('',#659,#622,#106,.T.);
#547=EDGE_CURVE('',#660,#639,#687,.F.);
#548=EDGE_CURVE('',#660,#612,#107,.T.);
#549=EDGE_CURVE('',#661,#641,#688,.F.);
#550=EDGE_CURVE('',#661,#660,#217,.T.);
#551=EDGE_CURVE('',#623,#661,#108,.T.);
#552=EDGE_CURVE('',#634,#662,#109,.T.);
#553=EDGE_CURVE('',#662,#642,#689,.F.);
#554=EDGE_CURVE('',#663,#619,#690,.F.);
#555=EDGE_CURVE('',#663,#620,#110,.T.);
#556=EDGE_CURVE('',#664,#629,#691,.F.);
#557=EDGE_CURVE('',#664,#637,#111,.T.);
#558=EDGE_CURVE('',#665,#627,#692,.F.);
#559=EDGE_CURVE('',#665,#664,#218,.T.);
#560=EDGE_CURVE('',#615,#665,#112,.T.);
#561=EDGE_CURVE('',#658,#660,#693,.F.);
#562=EDGE_CURVE('',#659,#661,#694,.F.);
#563=EDGE_CURVE('',#655,#662,#695,.F.);
#564=EDGE_CURVE('',#650,#663,#696,.F.);
#565=EDGE_CURVE('',#656,#664,#697,.F.);
#566=EDGE_CURVE('',#657,#665,#698,.F.);
#567=EDGE_CURVE('',#645,#666,#113,.T.);
#568=EDGE_CURVE('',#666,#667,#114,.T.);
#569=EDGE_CURVE('',#646,#667,#115,.T.);
#570=EDGE_CURVE('',#668,#668,#219,.T.);
#571=EDGE_CURVE('',#667,#669,#116,.T.);
#572=EDGE_CURVE('',#647,#669,#117,.T.);
#573=EDGE_CURVE('',#669,#670,#118,.T.);
#574=EDGE_CURVE('',#648,#670,#119,.T.);
#575=EDGE_CURVE('',#670,#671,#120,.T.);
#576=EDGE_CURVE('',#649,#671,#121,.T.);
#577=EDGE_CURVE('',#671,#672,#122,.T.);
#578=EDGE_CURVE('',#644,#672,#123,.T.);
#579=EDGE_CURVE('',#672,#666,#124,.T.);
#580=EDGE_CURVE('',#673,#674,#65,.T.);
#581=EDGE_CURVE('',#673,#675,#125,.T.);
#582=EDGE_CURVE('',#675,#676,#699,.F.);
#583=EDGE_CURVE('',#674,#676,#126,.T.);
#584=EDGE_CURVE('',#677,#678,#700,.F.);
#585=EDGE_CURVE('',#677,#679,#127,.T.);
#586=EDGE_CURVE('',#680,#679,#66,.T.);
#587=EDGE_CURVE('',#678,#680,#128,.T.);
#588=EDGE_CURVE('',#679,#653,#67,.T.);
#589=EDGE_CURVE('',#654,#677,#701,.F.);
#590=EDGE_CURVE('',#651,#675,#702,.F.);
#591=EDGE_CURVE('',#652,#673,#68,.T.);
#592=EDGE_CURVE('',#662,#677,#220,.T.);
#593=EDGE_CURVE('',#642,#678,#221,.T.);
#594=EDGE_CURVE('',#675,#663,#222,.T.);
#595=EDGE_CURVE('',#676,#619,#223,.T.);
#596=EDGE_CURVE('',#681,#618,#224,.T.);
#597=EDGE_CURVE('',#681,#676,#129,.T.);
#598=EDGE_CURVE('',#681,#682,#130,.T.);
#599=EDGE_CURVE('',#682,#674,#131,.T.);
#600=EDGE_CURVE('',#683,#680,#132,.T.);
#601=EDGE_CURVE('',#683,#684,#133,.T.);
#602=EDGE_CURVE('',#684,#678,#134,.T.);
#603=EDGE_CURVE('',#684,#643,#225,.F.);
#604=EDGE_CURVE('',#682,#683,#226,.F.);
#605=EDGE_CURVE('',#685,#685,#227,.T.);
#606=VERTEX_POINT('',#1256);
#607=VERTEX_POINT('',#1258);
#608=VERTEX_POINT('',#1261);
#609=VERTEX_POINT('',#1262);
#610=VERTEX_POINT('',#1264);
#611=VERTEX_POINT('',#1266);
#612=VERTEX_POINT('',#1268);
#613=VERTEX_POINT('',#1270);
#614=VERTEX_POINT('',#1272);
#615=VERTEX_POINT('',#1274);
#616=VERTEX_POINT('',#1278);
#617=VERTEX_POINT('',#1279);
#618=VERTEX_POINT('',#1281);
#619=VERTEX_POINT('',#1283);
#620=VERTEX_POINT('',#1287);
#621=VERTEX_POINT('',#1288);
#622=VERTEX_POINT('',#1290);
#623=VERTEX_POINT('',#1292);
#624=VERTEX_POINT('',#1294);
#625=VERTEX_POINT('',#1296);
#626=VERTEX_POINT('',#1301);
#627=VERTEX_POINT('',#1302);
#628=VERTEX_POINT('',#1307);
#629=VERTEX_POINT('',#1308);
#630=VERTEX_POINT('',#1313);
#631=VERTEX_POINT('',#1314);
#632=VERTEX_POINT('',#1319);
#633=VERTEX_POINT('',#1320);
#634=VERTEX_POINT('',#1322);
#635=VERTEX_POINT('',#1324);
#636=VERTEX_POINT('',#1326);
#637=VERTEX_POINT('',#1329);
#638=VERTEX_POINT('',#1333);
#639=VERTEX_POINT('',#1335);
#640=VERTEX_POINT('',#1339);
#641=VERTEX_POINT('',#1341);
#642=VERTEX_POINT('',#1348);
#643=VERTEX_POINT('',#1350);
#644=VERTEX_POINT('',#1354);
#645=VERTEX_POINT('',#1355);
#646=VERTEX_POINT('',#1357);
#647=VERTEX_POINT('',#1359);
#648=VERTEX_POINT('',#1361);
#649=VERTEX_POINT('',#1363);
#650=VERTEX_POINT('',#1366);
#651=VERTEX_POINT('',#1368);
#652=VERTEX_POINT('',#1370);
#653=VERTEX_POINT('',#1372);
#654=VERTEX_POINT('',#1374);
#655=VERTEX_POINT('',#1376);
#656=VERTEX_POINT('',#1379);
#657=VERTEX_POINT('',#1381);
#658=VERTEX_POINT('',#1384);
#659=VERTEX_POINT('',#1386);
#660=VERTEX_POINT('',#1393);
#661=VERTEX_POINT('',#1400);
#662=VERTEX_POINT('',#1406);
#663=VERTEX_POINT('',#1416);
#664=VERTEX_POINT('',#1423);
#665=VERTEX_POINT('',#1430);
#666=VERTEX_POINT('',#1468);
#667=VERTEX_POINT('',#1470);
#668=VERTEX_POINT('',#1473);
#669=VERTEX_POINT('',#1476);
#670=VERTEX_POINT('',#1480);
#671=VERTEX_POINT('',#1484);
#672=VERTEX_POINT('',#1488);
#673=VERTEX_POINT('',#1494);
#674=VERTEX_POINT('',#1495);
#675=VERTEX_POINT('',#1497);
#676=VERTEX_POINT('',#1502);
#677=VERTEX_POINT('',#1509);
#678=VERTEX_POINT('',#1510);
#679=VERTEX_POINT('',#1512);
#680=VERTEX_POINT('',#1514);
#681=VERTEX_POINT('',#1538);
#682=VERTEX_POINT('',#1542);
#683=VERTEX_POINT('',#1546);
#684=VERTEX_POINT('',#1548);
#685=VERTEX_POINT('',#1557);
#686=B_SPLINE_CURVE_WITH_KNOTS('',3,(#1245,#1246,#1247,#1248,#1249,#1250,
#1251,#1252,#1253,#1254,#1255),.UNSPECIFIED.,.T.,.F.,(1,1,1,1,1,1,1,1,1,
1,1,1,1,1,1),(-0.00883902698458846,-0.0058926846563923,-0.00294634232819615,
0.,0.00294634232819615,0.0058926846563923,0.00883902698458845,0.0117853693127846,
0.0147317116409808,0.0176780539691769,0.0206243962973731,0.0235707386255692,
0.0265170809537654,0.0294634232819615,0.0324097656101577),.UNSPECIFIED.);
#687=B_SPLINE_CURVE_WITH_KNOTS('',3,(#1389,#1390,#1391,#1392),
 .UNSPECIFIED.,.F.,.F.,(4,4),(0.,0.00340878908332662),.UNSPECIFIED.);
#688=B_SPLINE_CURVE_WITH_KNOTS('',3,(#1396,#1397,#1398,#1399),
 .UNSPECIFIED.,.F.,.F.,(4,4),(0.,0.00340878908332662),.UNSPECIFIED.);
#689=B_SPLINE_CURVE_WITH_KNOTS('',3,(#1407,#1408,#1409,#1410),
 .UNSPECIFIED.,.F.,.F.,(4,4),(0.,0.00340878908332662),.UNSPECIFIED.);
#690=B_SPLINE_CURVE_WITH_KNOTS('',3,(#1412,#1413,#1414,#1415),
 .UNSPECIFIED.,.F.,.F.,(4,4),(0.,0.00340878908332662),.UNSPECIFIED.);
#691=B_SPLINE_CURVE_WITH_KNOTS('',3,(#1419,#1420,#1421,#1422),
 .UNSPECIFIED.,.F.,.F.,(4,4),(0.,0.00340878908332662),.UNSPECIFIED.);
#692=B_SPLINE_CURVE_WITH_KNOTS('',3,(#1426,#1427,#1428,#1429),
 .UNSPECIFIED.,.F.,.F.,(4,4),(0.,0.00340878908332663),.UNSPECIFIED.);
#693=B_SPLINE_CURVE_WITH_KNOTS('',3,(#1435,#1436,#1437,#1438),
 .UNSPECIFIED.,.F.,.F.,(4,4),(0.,0.00408552292808879),.UNSPECIFIED.);
#694=B_SPLINE_CURVE_WITH_KNOTS('',3,(#1440,#1441,#1442,#1443),
 .UNSPECIFIED.,.F.,.F.,(4,4),(0.,0.0040855229280888),.UNSPECIFIED.);
#695=B_SPLINE_CURVE_WITH_KNOTS('',3,(#1446,#1447,#1448,#1449),
 .UNSPECIFIED.,.F.,.F.,(4,4),(0.,0.00408552292808877),.UNSPECIFIED.);
#696=B_SPLINE_CURVE_WITH_KNOTS('',3,(#1451,#1452,#1453,#1454),
 .UNSPECIFIED.,.F.,.F.,(4,4),(0.,0.00408552292808877),.UNSPECIFIED.);
#697=B_SPLINE_CURVE_WITH_KNOTS('',3,(#1456,#1457,#1458,#1459),
 .UNSPECIFIED.,.F.,.F.,(4,4),(0.,0.00408552292808876),.UNSPECIFIED.);
#698=B_SPLINE_CURVE_WITH_KNOTS('',3,(#1461,#1462,#1463,#1464),
 .UNSPECIFIED.,.F.,.F.,(4,4),(0.,0.00408552292808877),.UNSPECIFIED.);
#699=B_SPLINE_CURVE_WITH_KNOTS('',3,(#1498,#1499,#1500,#1501),
 .UNSPECIFIED.,.F.,.F.,(4,4),(0.,0.0034087890833266),.UNSPECIFIED.);
#700=B_SPLINE_CURVE_WITH_KNOTS('',3,(#1505,#1506,#1507,#1508),
 .UNSPECIFIED.,.F.,.F.,(4,4),(0.,0.00340878908332662),.UNSPECIFIED.);
#701=B_SPLINE_CURVE_WITH_KNOTS('',3,(#1518,#1519,#1520,#1521),
 .UNSPECIFIED.,.F.,.F.,(4,4),(0.,0.0040855229280888),.UNSPECIFIED.);
#702=B_SPLINE_CURVE_WITH_KNOTS('',3,(#1523,#1524,#1525,#1526),
 .UNSPECIFIED.,.F.,.F.,(4,4),(0.,0.0040855229280888),.UNSPECIFIED.);
#703=EDGE_LOOP('',(#228));
#704=EDGE_LOOP('',(#229));
#705=EDGE_LOOP('',(#230,#231,#232,#233,#234,#235,#236,#237));
#706=EDGE_LOOP('',(#238,#239,#240,#241));
#707=EDGE_LOOP('',(#242,#243,#244,#245,#246,#247,#248,#249));
#708=EDGE_LOOP('',(#250,#251,#252,#253));
#709=EDGE_LOOP('',(#254,#255,#256,#257));
#710=EDGE_LOOP('',(#258,#259,#260,#261));
#711=EDGE_LOOP('',(#262,#263,#264,#265,#266,#267,#268,#269));
#712=EDGE_LOOP('',(#270,#271,#272,#273));
#713=EDGE_LOOP('',(#274,#275,#276,#277));
#714=EDGE_LOOP('',(#278,#279,#280,#281));
#715=EDGE_LOOP('',(#282,#283,#284,#285));
#716=EDGE_LOOP('',(#286,#287,#288,#289,#290,#291));
#717=EDGE_LOOP('',(#292,#293,#294,#295,#296,#297,#298,#299,#300,#301,#302,
#303,#304,#305,#306,#307));
#718=EDGE_LOOP('',(#308,#309,#310,#311));
#719=EDGE_LOOP('',(#312,#313,#314,#315));
#720=EDGE_LOOP('',(#316,#317,#318,#319));
#721=EDGE_LOOP('',(#320,#321,#322,#323));
#722=EDGE_LOOP('',(#324,#325,#326,#327));
#723=EDGE_LOOP('',(#328,#329,#330,#331));
#724=EDGE_LOOP('',(#332,#333,#334,#335));
#725=EDGE_LOOP('',(#336,#337,#338,#339));
#726=EDGE_LOOP('',(#340,#341,#342,#343));
#727=EDGE_LOOP('',(#344,#345,#346,#347));
#728=EDGE_LOOP('',(#348,#349,#350,#351));
#729=EDGE_LOOP('',(#352,#353,#354,#355));
#730=EDGE_LOOP('',(#356,#357,#358,#359));
#731=EDGE_LOOP('',(#360,#361,#362,#363));
#732=EDGE_LOOP('',(#364,#365,#366,#367));
#733=EDGE_LOOP('',(#368,#369,#370,#371));
#734=EDGE_LOOP('',(#372,#373,#374,#375));
#735=EDGE_LOOP('',(#376));
#736=EDGE_LOOP('',(#377,#378,#379,#380));
#737=EDGE_LOOP('',(#381,#382,#383,#384));
#738=EDGE_LOOP('',(#385,#386,#387,#388));
#739=EDGE_LOOP('',(#389,#390,#391,#392));
#740=EDGE_LOOP('',(#393,#394,#395,#396));
#741=EDGE_LOOP('',(#397,#398,#399,#400));
#742=EDGE_LOOP('',(#401,#402,#403,#404));
#743=EDGE_LOOP('',(#405,#406,#407,#408));
#744=EDGE_LOOP('',(#409,#410,#411,#412));
#745=EDGE_LOOP('',(#413,#414,#415,#416));
#746=EDGE_LOOP('',(#417,#418,#419,#420));
#747=EDGE_LOOP('',(#421,#422,#423,#424));
#748=EDGE_LOOP('',(#425,#426,#427,#428));
#749=EDGE_LOOP('',(#429,#430,#431,#432));
#750=EDGE_LOOP('',(#433,#434,#435,#436));
#751=EDGE_LOOP('',(#437,#438,#439,#440));
#752=EDGE_LOOP('',(#441,#442,#443,#444));
#753=EDGE_LOOP('',(#445));
#754=EDGE_LOOP('',(#446,#447,#448,#449,#450,#451,#452,#453));
#755=EDGE_LOOP('',(#454,#455,#456,#457,#458,#459,#460,#461,#462,#463,#464,
#465,#466,#467,#468,#469));
#756=EDGE_LOOP('',(#470,#471,#472,#473,#474,#475));
#757=EDGE_LOOP('',(#476));
#758=EDGE_LOOP('',(#477));
#759=EDGE_LOOP('',(#478));
#760=EDGE_LOOP('',(#479));
#761=FACE_BOUND('',#703,.T.);
#762=FACE_BOUND('',#704,.T.);
#763=FACE_BOUND('',#705,.T.);
#764=FACE_BOUND('',#706,.T.);
#765=FACE_BOUND('',#707,.T.);
#766=FACE_BOUND('',#708,.T.);
#767=FACE_BOUND('',#709,.T.);
#768=FACE_BOUND('',#710,.T.);
#769=FACE_BOUND('',#711,.T.);
#770=FACE_BOUND('',#712,.T.);
#771=FACE_BOUND('',#713,.T.);
#772=FACE_BOUND('',#714,.T.);
#773=FACE_BOUND('',#715,.T.);
#774=FACE_BOUND('',#716,.T.);
#775=FACE_BOUND('',#717,.T.);
#776=FACE_BOUND('',#718,.T.);
#777=FACE_BOUND('',#719,.T.);
#778=FACE_BOUND('',#720,.T.);
#779=FACE_BOUND('',#721,.T.);
#780=FACE_BOUND('',#722,.T.);
#781=FACE_BOUND('',#723,.T.);
#782=FACE_BOUND('',#724,.T.);
#783=FACE_BOUND('',#725,.T.);
#784=FACE_BOUND('',#726,.T.);
#785=FACE_BOUND('',#727,.T.);
#786=FACE_BOUND('',#728,.T.);
#787=FACE_BOUND('',#729,.T.);
#788=FACE_BOUND('',#730,.T.);
#789=FACE_BOUND('',#731,.T.);
#790=FACE_BOUND('',#732,.T.);
#791=FACE_BOUND('',#733,.T.);
#792=FACE_BOUND('',#734,.T.);
#793=FACE_BOUND('',#735,.T.);
#794=FACE_BOUND('',#736,.T.);
#795=FACE_BOUND('',#737,.T.);
#796=FACE_BOUND('',#738,.T.);
#797=FACE_BOUND('',#739,.T.);
#798=FACE_BOUND('',#740,.T.);
#799=FACE_BOUND('',#741,.T.);
#800=FACE_BOUND('',#742,.T.);
#801=FACE_BOUND('',#743,.T.);
#802=FACE_BOUND('',#744,.T.);
#803=FACE_BOUND('',#745,.T.);
#804=FACE_BOUND('',#746,.T.);
#805=FACE_BOUND('',#747,.T.);
#806=FACE_BOUND('',#748,.T.);
#807=FACE_BOUND('',#749,.T.);
#808=FACE_BOUND('',#750,.T.);
#809=FACE_BOUND('',#751,.T.);
#810=FACE_BOUND('',#752,.T.);
#811=FACE_BOUND('',#753,.T.);
#812=FACE_BOUND('',#754,.T.);
#813=FACE_BOUND('',#755,.T.);
#814=FACE_BOUND('',#756,.T.);
#815=FACE_BOUND('',#757,.T.);
#816=FACE_BOUND('',#758,.T.);
#817=FACE_BOUND('',#759,.T.);
#818=FACE_BOUND('',#760,.T.);
#819=CYLINDRICAL_SURFACE('',#893,0.00375);
#820=CYLINDRICAL_SURFACE('',#895,0.013);
#821=CYLINDRICAL_SURFACE('',#903,0.013);
#822=CYLINDRICAL_SURFACE('',#911,0.024);
#823=CYLINDRICAL_SURFACE('',#915,0.013);
#824=CYLINDRICAL_SURFACE('',#923,0.024);
#825=CYLINDRICAL_SURFACE('',#975,0.024);
#826=CYLINDRICAL_SURFACE('',#979,0.024);
#827=CYLINDRICAL_SURFACE('',#981,0.013);
#828=CYLINDRICAL_SURFACE('',#986,0.00185);
#829=ADVANCED_FACE('',(#761,#762),#819,.F.);
#830=ADVANCED_FACE('',(#763),#820,.T.);
#831=ADVANCED_FACE('',(#764),#20,.T.);
#832=ADVANCED_FACE('',(#765),#821,.T.);
#833=ADVANCED_FACE('',(#766),#21,.T.);
#834=ADVANCED_FACE('',(#767),#822,.T.);
#835=ADVANCED_FACE('',(#768),#22,.T.);
#836=ADVANCED_FACE('',(#769),#823,.T.);
#837=ADVANCED_FACE('',(#770),#23,.T.);
#838=ADVANCED_FACE('',(#771),#824,.T.);
#839=ADVANCED_FACE('',(#772),#24,.T.);
#840=ADVANCED_FACE('',(#773),#25,.T.);
#841=ADVANCED_FACE('',(#774,#775),#26,.F.);
#842=ADVANCED_FACE('',(#776),#27,.T.);
#843=ADVANCED_FACE('',(#777),#12,.T.);
#844=ADVANCED_FACE('',(#778),#28,.T.);
#845=ADVANCED_FACE('',(#779),#29,.T.);
#846=ADVANCED_FACE('',(#780),#30,.T.);
#847=ADVANCED_FACE('',(#781),#31,.T.);
#848=ADVANCED_FACE('',(#782),#13,.T.);
#849=ADVANCED_FACE('',(#783),#32,.T.);
#850=ADVANCED_FACE('',(#784),#33,.T.);
#851=ADVANCED_FACE('',(#785),#14,.T.);
#852=ADVANCED_FACE('',(#786),#34,.T.);
#853=ADVANCED_FACE('',(#787),#35,.T.);
#854=ADVANCED_FACE('',(#788),#36,.T.);
#855=ADVANCED_FACE('',(#789),#37,.T.);
#856=ADVANCED_FACE('',(#790),#15,.T.);
#857=ADVANCED_FACE('',(#791),#38,.T.);
#858=ADVANCED_FACE('',(#792,#793),#39,.F.);
#859=ADVANCED_FACE('',(#794),#40,.F.);
#860=ADVANCED_FACE('',(#795),#41,.F.);
#861=ADVANCED_FACE('',(#796),#42,.F.);
#862=ADVANCED_FACE('',(#797),#43,.F.);
#863=ADVANCED_FACE('',(#798),#44,.F.);
#864=ADVANCED_FACE('',(#799),#45,.T.);
#865=ADVANCED_FACE('',(#800),#46,.T.);
#866=ADVANCED_FACE('',(#801),#47,.T.);
#867=ADVANCED_FACE('',(#802),#48,.T.);
#868=ADVANCED_FACE('',(#803),#16,.T.);
#869=ADVANCED_FACE('',(#804),#17,.T.);
#870=ADVANCED_FACE('',(#805),#18,.T.);
#871=ADVANCED_FACE('',(#806),#19,.T.);
#872=ADVANCED_FACE('',(#807),#825,.T.);
#873=ADVANCED_FACE('',(#808),#49,.T.);
#874=ADVANCED_FACE('',(#809),#50,.T.);
#875=ADVANCED_FACE('',(#810),#826,.T.);
#876=ADVANCED_FACE('',(#811,#812),#827,.T.);
#877=ADVANCED_FACE('',(#813,#814),#51,.T.);
#878=ADVANCED_FACE('',(#815,#816),#52,.F.);
#879=ADVANCED_FACE('',(#817,#818),#828,.F.);
#880=CLOSED_SHELL('',(#829,#830,#831,#832,#833,#834,#835,#836,#837,#838,
#839,#840,#841,#842,#843,#844,#845,#846,#847,#848,#849,#850,#851,#852,#853,
#854,#855,#856,#857,#858,#859,#860,#861,#862,#863,#864,#865,#866,#867,#868,
#869,#870,#871,#872,#873,#874,#875,#876,#877,#878,#879));
#881=STYLED_ITEM('',(#882),#889);
#882=PRESENTATION_STYLE_ASSIGNMENT((#883));
#883=SURFACE_STYLE_USAGE(.BOTH.,#884);
#884=SURFACE_SIDE_STYLE('',(#885));
#885=SURFACE_STYLE_FILL_AREA(#886);
#886=FILL_AREA_STYLE('',(#887));
#887=FILL_AREA_STYLE_COLOUR('',#888);
#888=COLOUR_RGB('',0.498039215686275,0.498039215686275,0.498039215686275);
#889=MANIFOLD_SOLID_BREP('C1 Input Clutch',#880);
#890=SHAPE_DEFINITION_REPRESENTATION(#1565,#891);
#891=SHAPE_REPRESENTATION('C1 Input Clutch',(#892),#1560);
#892=AXIS2_PLACEMENT_3D('',#1243,#987,#988);
#893=AXIS2_PLACEMENT_3D('',#1244,#989,#990);
#894=AXIS2_PLACEMENT_3D('',#1257,#991,#992);
#895=AXIS2_PLACEMENT_3D('',#1259,#993,#994);
#896=AXIS2_PLACEMENT_3D('',#1263,#996,#997);
#897=AXIS2_PLACEMENT_3D('',#1267,#999,#1000);
#898=AXIS2_PLACEMENT_3D('',#1269,#1001,#1002);
#899=AXIS2_PLACEMENT_3D('',#1271,#1003,#1004);
#900=AXIS2_PLACEMENT_3D('',#1273,#1005,#1006);
#901=AXIS2_PLACEMENT_3D('',#1275,#1007,#1008);
#902=AXIS2_PLACEMENT_3D('',#1276,#1009,#1010);
#903=AXIS2_PLACEMENT_3D('',#1285,#1015,#1016);
#904=AXIS2_PLACEMENT_3D('',#1286,#1017,#1018);
#905=AXIS2_PLACEMENT_3D('',#1289,#1019,#1020);
#906=AXIS2_PLACEMENT_3D('',#1291,#1021,#1022);
#907=AXIS2_PLACEMENT_3D('',#1293,#1023,#1024);
#908=AXIS2_PLACEMENT_3D('',#1297,#1026,#1027);
#909=AXIS2_PLACEMENT_3D('',#1298,#1028,#1029);
#910=AXIS2_PLACEMENT_3D('',#1299,#1030,#1031);
#911=AXIS2_PLACEMENT_3D('',#1305,#1035,#1036);
#912=AXIS2_PLACEMENT_3D('',#1309,#1038,#1039);
#913=AXIS2_PLACEMENT_3D('',#1310,#1040,#1041);
#914=AXIS2_PLACEMENT_3D('',#1311,#1042,#1043);
#915=AXIS2_PLACEMENT_3D('',#1317,#1047,#1048);
#916=AXIS2_PLACEMENT_3D('',#1318,#1049,#1050);
#917=AXIS2_PLACEMENT_3D('',#1321,#1051,#1052);
#918=AXIS2_PLACEMENT_3D('',#1323,#1053,#1054);
#919=AXIS2_PLACEMENT_3D('',#1327,#1056,#1057);
#920=AXIS2_PLACEMENT_3D('',#1328,#1058,#1059);
#921=AXIS2_PLACEMENT_3D('',#1330,#1060,#1061);
#922=AXIS2_PLACEMENT_3D('',#1331,#1062,#1063);
#923=AXIS2_PLACEMENT_3D('',#1337,#1067,#1068);
#924=AXIS2_PLACEMENT_3D('',#1338,#1069,#1070);
#925=AXIS2_PLACEMENT_3D('',#1342,#1072,#1073);
#926=AXIS2_PLACEMENT_3D('',#1343,#1074,#1075);
#927=AXIS2_PLACEMENT_3D('',#1346,#1078,#1079);
#928=AXIS2_PLACEMENT_3D('',#1352,#1083,#1084);
#929=AXIS2_PLACEMENT_3D('',#1367,#1092,#1093);
#930=AXIS2_PLACEMENT_3D('',#1371,#1095,#1096);
#931=AXIS2_PLACEMENT_3D('',#1375,#1098,#1099);
#932=AXIS2_PLACEMENT_3D('',#1380,#1102,#1103);
#933=AXIS2_PLACEMENT_3D('',#1385,#1106,#1107);
#934=AXIS2_PLACEMENT_3D('',#1388,#1109,#1110);
#935=AXIS2_PLACEMENT_3D('',#1395,#1112,#1113);
#936=AXIS2_PLACEMENT_3D('',#1401,#1114,#1115);
#937=AXIS2_PLACEMENT_3D('',#1402,#1116,#1117);
#938=AXIS2_PLACEMENT_3D('',#1404,#1119,#1120);
#939=AXIS2_PLACEMENT_3D('',#1411,#1122,#1123);
#940=AXIS2_PLACEMENT_3D('',#1418,#1125,#1126);
#941=AXIS2_PLACEMENT_3D('',#1425,#1128,#1129);
#942=AXIS2_PLACEMENT_3D('',#1431,#1130,#1131);
#943=AXIS2_PLACEMENT_3D('',#1432,#1132,#1133);
#944=AXIS2_PLACEMENT_3D('',#1434,#1135,#1136);
#945=AXIS2_PLACEMENT_3D('',#1439,#1137,#1138);
#946=AXIS2_PLACEMENT_3D('',#1444,#1139,#1140);
#947=AXIS2_PLACEMENT_3D('',#1445,#1141,#1142);
#948=AXIS2_PLACEMENT_3D('',#1450,#1143,#1144);
#949=AXIS2_PLACEMENT_3D('',#1455,#1145,#1146);
#950=AXIS2_PLACEMENT_3D('',#1460,#1147,#1148);
#951=AXIS2_PLACEMENT_3D('',#1465,#1149,#1150);
#952=AXIS2_PLACEMENT_3D('',#1466,#1151,#1152);
#953=AXIS2_PLACEMENT_3D('',#1472,#1156,#1157);
#954=AXIS2_PLACEMENT_3D('',#1474,#1158,#1159);
#955=AXIS2_PLACEMENT_3D('',#1478,#1162,#1163);
#956=AXIS2_PLACEMENT_3D('',#1482,#1166,#1167);
#957=AXIS2_PLACEMENT_3D('',#1486,#1170,#1171);
#958=AXIS2_PLACEMENT_3D('',#1490,#1174,#1175);
#959=AXIS2_PLACEMENT_3D('',#1492,#1177,#1178);
#960=AXIS2_PLACEMENT_3D('',#1493,#1179,#1180);
#961=AXIS2_PLACEMENT_3D('',#1504,#1183,#1184);
#962=AXIS2_PLACEMENT_3D('',#1513,#1186,#1187);
#963=AXIS2_PLACEMENT_3D('',#1516,#1189,#1190);
#964=AXIS2_PLACEMENT_3D('',#1517,#1191,#1192);
#965=AXIS2_PLACEMENT_3D('',#1522,#1193,#1194);
#966=AXIS2_PLACEMENT_3D('',#1527,#1195,#1196);
#967=AXIS2_PLACEMENT_3D('',#1528,#1197,#1198);
#968=AXIS2_PLACEMENT_3D('',#1529,#1199,#1200);
#969=AXIS2_PLACEMENT_3D('',#1530,#1201,#1202);
#970=AXIS2_PLACEMENT_3D('',#1531,#1203,#1204);
#971=AXIS2_PLACEMENT_3D('',#1532,#1205,#1206);
#972=AXIS2_PLACEMENT_3D('',#1533,#1207,#1208);
#973=AXIS2_PLACEMENT_3D('',#1534,#1209,#1210);
#974=AXIS2_PLACEMENT_3D('',#1535,#1211,#1212);
#975=AXIS2_PLACEMENT_3D('',#1536,#1213,#1214);
#976=AXIS2_PLACEMENT_3D('',#1537,#1215,#1216);
#977=AXIS2_PLACEMENT_3D('',#1540,#1218,#1219);
#978=AXIS2_PLACEMENT_3D('',#1544,#1222,#1223);
#979=AXIS2_PLACEMENT_3D('',#1550,#1227,#1228);
#980=AXIS2_PLACEMENT_3D('',#1551,#1229,#1230);
#981=AXIS2_PLACEMENT_3D('',#1552,#1231,#1232);
#982=AXIS2_PLACEMENT_3D('',#1553,#1233,#1234);
#983=AXIS2_PLACEMENT_3D('',#1554,#1235,#1236);
#984=AXIS2_PLACEMENT_3D('',#1555,#1237,#1238);
#985=AXIS2_PLACEMENT_3D('',#1556,#1239,#1240);
#986=AXIS2_PLACEMENT_3D('',#1558,#1241,#1242);
#987=DIRECTION('',(0.,0.,1.));
#988=DIRECTION('',(1.,0.,0.));
#989=DIRECTION('',(-0.707106781186547,0.,-0.707106781186549));
#990=DIRECTION('',(-0.707106781186549,0.,0.707106781186547));
#991=DIRECTION('',(-0.707106781186547,0.,-0.707106781186549));
#992=DIRECTION('',(-0.707106781186549,0.,0.707106781186547));
#993=DIRECTION('',(0.,-1.,0.));
#994=DIRECTION('',(0.,0.,-1.));
#995=DIRECTION('',(0.,-1.,0.));
#996=DIRECTION('',(0.,1.,0.));
#997=DIRECTION('',(0.,0.,1.));
#998=DIRECTION('',(0.,-1.,0.));
#999=DIRECTION('',(-0.651368501184718,-0.707106781186547,0.275170993501086));
#1000=DIRECTION('',(0.651368501184717,-0.707106781186548,-0.275170993501086));
#1001=DIRECTION('',(-0.352518092599244,-0.923879532511286,0.148921468556143));
#1002=DIRECTION('',(0.851053960134985,-0.382683432365092,-0.359528229116757));
#1003=DIRECTION('',(0.,-1.,0.));
#1004=DIRECTION('',(0.,0.,1.));
#1005=DIRECTION('',(0.148921468556143,-0.923879532511286,-0.352518092599244));
#1006=DIRECTION('',(-0.359528229116757,-0.382683432365092,0.851053960134985));
#1007=DIRECTION('',(0.275170993501086,-0.707106781186547,-0.651368501184718));
#1008=DIRECTION('',(-0.275170993501086,-0.707106781186548,0.651368501184717));
#1009=DIRECTION('',(-0.389150550980915,0.,-0.921174168478063));
#1010=DIRECTION('',(-0.921174168478063,0.,0.389150550980915));
#1011=DIRECTION('',(0.,-1.,0.));
#1012=DIRECTION('',(0.921174168478063,0.,-0.389150550980915));
#1013=DIRECTION('',(0.,-1.,0.));
#1014=DIRECTION('',(-0.921174168478063,0.,0.389150550980915));
#1015=DIRECTION('',(0.,-1.,0.));
#1016=DIRECTION('',(0.,0.,-1.));
#1017=DIRECTION('',(-0.148921468556143,-0.923879532511286,-0.352518092599244));
#1018=DIRECTION('',(0.359528229116757,-0.382683432365092,0.851053960134985));
#1019=DIRECTION('',(0.,-1.,0.));
#1020=DIRECTION('',(0.,0.,1.));
#1021=DIRECTION('',(0.352518092599244,-0.923879532511286,0.148921468556143));
#1022=DIRECTION('',(-0.851053960134986,-0.382683432365092,-0.359528229116757));
#1023=DIRECTION('',(0.651368501184718,-0.707106781186547,0.275170993501086));
#1024=DIRECTION('',(-0.651368501184717,-0.707106781186548,-0.275170993501086));
#1025=DIRECTION('',(0.,-1.,0.));
#1026=DIRECTION('',(0.,1.,0.));
#1027=DIRECTION('',(0.,0.,1.));
#1028=DIRECTION('',(-0.275170993501086,-0.707106781186547,-0.651368501184718));
#1029=DIRECTION('',(0.275170993501086,-0.707106781186548,0.651368501184717));
#1030=DIRECTION('',(0.389150550980915,0.,-0.921174168478063));
#1031=DIRECTION('',(-0.921174168478063,0.,-0.389150550980915));
#1032=DIRECTION('',(0.,-1.,0.));
#1033=DIRECTION('',(0.921174168478063,0.,0.389150550980915));
#1034=DIRECTION('',(-0.921174168478063,0.,-0.389150550980915));
#1035=DIRECTION('',(0.,-1.,0.));
#1036=DIRECTION('',(0.,0.,-1.));
#1037=DIRECTION('',(0.,-1.,0.));
#1038=DIRECTION('',(0.,1.,0.));
#1039=DIRECTION('',(0.,0.,1.));
#1040=DIRECTION('',(0.,1.,0.));
#1041=DIRECTION('',(0.,0.,1.));
#1042=DIRECTION('',(0.389150550980915,0.,0.921174168478063));
#1043=DIRECTION('',(0.921174168478063,0.,-0.389150550980915));
#1044=DIRECTION('',(0.,-1.,0.));
#1045=DIRECTION('',(-0.921174168478063,0.,0.389150550980915));
#1046=DIRECTION('',(0.921174168478063,0.,-0.389150550980915));
#1047=DIRECTION('',(0.,-1.,0.));
#1048=DIRECTION('',(0.,0.,-1.));
#1049=DIRECTION('',(0.,-1.,0.));
#1050=DIRECTION('',(0.,0.,1.));
#1051=DIRECTION('',(-0.352518092599244,-0.923879532511286,-0.148921468556143));
#1052=DIRECTION('',(0.851053960134985,-0.382683432365092,0.359528229116757));
#1053=DIRECTION('',(-0.651368501184718,-0.707106781186547,-0.275170993501086));
#1054=DIRECTION('',(0.651368501184717,-0.707106781186548,0.275170993501086));
#1055=DIRECTION('',(0.,-1.,0.));
#1056=DIRECTION('',(0.,1.,0.));
#1057=DIRECTION('',(0.,0.,1.));
#1058=DIRECTION('',(0.275170993501086,-0.707106781186547,0.651368501184718));
#1059=DIRECTION('',(-0.275170993501086,-0.707106781186548,-0.651368501184717));
#1060=DIRECTION('',(0.148921468556143,-0.923879532511286,0.352518092599244));
#1061=DIRECTION('',(-0.359528229116757,-0.382683432365092,-0.851053960134985));
#1062=DIRECTION('',(-0.921174168478063,0.,0.389150550980915));
#1063=DIRECTION('',(0.389150550980915,0.,0.921174168478063));
#1064=DIRECTION('',(-0.389150550980915,0.,-0.921174168478063));
#1065=DIRECTION('',(0.,-1.,0.));
#1066=DIRECTION('',(0.389150550980915,0.,0.921174168478063));
#1067=DIRECTION('',(0.,-1.,0.));
#1068=DIRECTION('',(0.,0.,-1.));
#1069=DIRECTION('',(0.,1.,0.));
#1070=DIRECTION('',(0.,0.,1.));
#1071=DIRECTION('',(0.,-1.,0.));
#1072=DIRECTION('',(0.,1.,0.));
#1073=DIRECTION('',(0.,0.,1.));
#1074=DIRECTION('',(0.921174168478063,0.,0.389150550980915));
#1075=DIRECTION('',(0.389150550980915,0.,-0.921174168478063));
#1076=DIRECTION('',(-0.389150550980915,0.,0.921174168478063));
#1077=DIRECTION('',(0.389150550980915,0.,-0.921174168478063));
#1078=DIRECTION('',(-0.921174168478063,0.,-0.389150550980915));
#1079=DIRECTION('',(-0.389150550980915,0.,0.921174168478063));
#1080=DIRECTION('',(-0.389150550980915,0.,0.921174168478063));
#1081=DIRECTION('',(0.,-1.,0.));
#1082=DIRECTION('',(0.389150550980915,0.,-0.921174168478063));
#1083=DIRECTION('',(0.,1.,0.));
#1084=DIRECTION('',(-1.,0.,0.));
#1085=DIRECTION('',(0.965925826289068,0.,0.258819045102522));
#1086=DIRECTION('',(0.707106781186549,0.,-0.707106781186547));
#1087=DIRECTION('',(-0.258819045102519,0.,-0.965925826289069));
#1088=DIRECTION('',(-0.965925826289068,0.,-0.258819045102523));
#1089=DIRECTION('',(-0.707106781186549,0.,0.707106781186547));
#1090=DIRECTION('',(0.258819045102519,0.,0.965925826289069));
#1091=DIRECTION('',(0.921174168478063,0.,-0.389150550980915));
#1092=DIRECTION('',(0.,1.,0.));
#1093=DIRECTION('',(0.,0.,1.));
#1094=DIRECTION('',(-0.921174168478063,0.,-0.389150550980915));
#1095=DIRECTION('',(0.,-1.,0.));
#1096=DIRECTION('',(0.,0.,1.));
#1097=DIRECTION('',(0.389150550980915,0.,0.921174168478063));
#1098=DIRECTION('',(0.,1.,0.));
#1099=DIRECTION('',(0.,0.,1.));
#1100=DIRECTION('',(0.389150550980915,0.,-0.921174168478063));
#1101=DIRECTION('',(-0.921174168478063,0.,0.389150550980915));
#1102=DIRECTION('',(0.,1.,0.));
#1103=DIRECTION('',(0.,0.,1.));
#1104=DIRECTION('',(0.921174168478063,0.,0.389150550980915));
#1105=DIRECTION('',(-0.389150550980915,0.,-0.921174168478063));
#1106=DIRECTION('',(0.,1.,0.));
#1107=DIRECTION('',(0.,0.,1.));
#1108=DIRECTION('',(-0.389150550980915,0.,0.921174168478063));
#1109=DIRECTION('',(-0.651368501184718,-0.707106781186547,0.275170993501086));
#1110=DIRECTION('',(0.389150550980915,0.,0.921174168478063));
#1111=DIRECTION('',(0.389150550980915,-1.14967358514655E-17,0.921174168478063));
#1112=DIRECTION('',(0.,1.,0.));
#1113=DIRECTION('',(0.,0.,1.));
#1114=DIRECTION('',(0.,1.,0.));
#1115=DIRECTION('',(0.,0.,1.));
#1116=DIRECTION('',(0.651368501184718,-0.707106781186547,0.275170993501086));
#1117=DIRECTION('',(0.389150550980915,0.,-0.921174168478063));
#1118=DIRECTION('',(0.389150550980915,-2.46519032881566E-32,-0.921174168478063));
#1119=DIRECTION('',(-0.651368501184718,-0.707106781186547,-0.275170993501086));
#1120=DIRECTION('',(-0.389150550980915,0.,0.921174168478063));
#1121=DIRECTION('',(-0.389150550980915,-1.14967358514655E-17,0.921174168478063));
#1122=DIRECTION('',(-0.275170993501086,-0.707106781186547,-0.651368501184718));
#1123=DIRECTION('',(-0.921174168478063,0.,0.389150550980915));
#1124=DIRECTION('',(-0.921174168478063,0.,0.389150550980915));
#1125=DIRECTION('',(0.275170993501086,-0.707106781186547,0.651368501184718));
#1126=DIRECTION('',(0.921174168478063,0.,-0.389150550980915));
#1127=DIRECTION('',(0.921174168478063,2.46519032881566E-32,-0.389150550980915));
#1128=DIRECTION('',(0.,1.,0.));
#1129=DIRECTION('',(0.,0.,1.));
#1130=DIRECTION('',(0.,1.,0.));
#1131=DIRECTION('',(0.,0.,1.));
#1132=DIRECTION('',(0.275170993501086,-0.707106781186547,-0.651368501184718));
#1133=DIRECTION('',(-0.921174168478063,0.,-0.389150550980915));
#1134=DIRECTION('',(-0.921174168478063,2.77555756156289E-17,-0.389150550980915));
#1135=DIRECTION('',(-0.352518092599244,-0.923879532511286,0.148921468556143));
#1136=DIRECTION('',(0.389150550980915,0.,0.921174168478063));
#1137=DIRECTION('',(0.,1.,0.));
#1138=DIRECTION('',(0.,0.,1.));
#1139=DIRECTION('',(0.352518092599244,-0.923879532511286,0.148921468556143));
#1140=DIRECTION('',(0.389150550980915,0.,-0.921174168478063));
#1141=DIRECTION('',(-0.352518092599244,-0.923879532511286,-0.148921468556143));
#1142=DIRECTION('',(-0.389150550980915,0.,0.921174168478063));
#1143=DIRECTION('',(-0.148921468556143,-0.923879532511286,-0.352518092599244));
#1144=DIRECTION('',(-0.921174168478063,0.,0.389150550980915));
#1145=DIRECTION('',(0.148921468556143,-0.923879532511286,0.352518092599244));
#1146=DIRECTION('',(0.921174168478063,0.,-0.389150550980915));
#1147=DIRECTION('',(0.,1.,0.));
#1148=DIRECTION('',(0.,0.,1.));
#1149=DIRECTION('',(0.148921468556143,-0.923879532511286,-0.352518092599244));
#1150=DIRECTION('',(-0.921174168478063,0.,-0.389150550980915));
#1151=DIRECTION('',(0.707106781186547,0.,0.707106781186549));
#1152=DIRECTION('',(0.707106781186549,0.,-0.707106781186547));
#1153=DIRECTION('',(0.,1.,0.));
#1154=DIRECTION('',(0.707106781186549,0.,-0.707106781186547));
#1155=DIRECTION('',(0.,1.,0.));
#1156=DIRECTION('',(0.707106781186547,0.,0.707106781186549));
#1157=DIRECTION('',(0.707106781186549,0.,-0.707106781186547));
#1158=DIRECTION('',(0.965925826289069,0.,-0.258819045102519));
#1159=DIRECTION('',(-0.258819045102519,0.,-0.965925826289069));
#1160=DIRECTION('',(-0.258819045102519,0.,-0.965925826289069));
#1161=DIRECTION('',(0.,1.,0.));
#1162=DIRECTION('',(0.258819045102523,0.,-0.965925826289068));
#1163=DIRECTION('',(-0.965925826289068,0.,-0.258819045102523));
#1164=DIRECTION('',(-0.965925826289068,0.,-0.258819045102523));
#1165=DIRECTION('',(0.,1.,0.));
#1166=DIRECTION('',(-0.707106781186547,0.,-0.707106781186549));
#1167=DIRECTION('',(-0.707106781186549,0.,0.707106781186547));
#1168=DIRECTION('',(-0.707106781186549,0.,0.707106781186547));
#1169=DIRECTION('',(0.,1.,0.));
#1170=DIRECTION('',(-0.965925826289069,0.,0.258819045102519));
#1171=DIRECTION('',(0.258819045102519,0.,0.965925826289069));
#1172=DIRECTION('',(0.258819045102519,0.,0.965925826289069));
#1173=DIRECTION('',(0.,1.,0.));
#1174=DIRECTION('',(-0.258819045102522,0.,0.965925826289068));
#1175=DIRECTION('',(0.965925826289068,0.,0.258819045102522));
#1176=DIRECTION('',(0.965925826289068,0.,0.258819045102522));
#1177=DIRECTION('',(-0.275170993501086,-0.707106781186547,0.651368501184718));
#1178=DIRECTION('',(0.921174168478063,0.,0.389150550980915));
#1179=DIRECTION('',(-0.275170993501086,-0.707106781186547,0.651368501184718));
#1180=DIRECTION('',(0.275170993501086,-0.707106781186548,-0.651368501184717));
#1181=DIRECTION('',(0.921174168478063,3.92523114670943E-17,0.389150550980915));
#1182=DIRECTION('',(0.921174168478063,0.,0.389150550980915));
#1183=DIRECTION('',(0.651368501184718,-0.707106781186547,-0.275170993501086));
#1184=DIRECTION('',(-0.389150550980915,0.,-0.921174168478063));
#1185=DIRECTION('',(-0.389150550980915,-6.70078870827233E-17,-0.921174168478063));
#1186=DIRECTION('',(0.651368501184718,-0.707106781186547,-0.275170993501086));
#1187=DIRECTION('',(-0.651368501184717,-0.707106781186548,0.275170993501086));
#1188=DIRECTION('',(-0.389150550980915,0.,-0.921174168478063));
#1189=DIRECTION('',(0.352518092599244,-0.923879532511286,-0.148921468556143));
#1190=DIRECTION('',(-0.389150550980915,0.,-0.921174168478063));
#1191=DIRECTION('',(0.352518092599244,-0.923879532511286,-0.148921468556143));
#1192=DIRECTION('',(-0.851053960134985,-0.382683432365092,0.359528229116757));
#1193=DIRECTION('',(-0.148921468556143,-0.923879532511286,0.352518092599244));
#1194=DIRECTION('',(0.921174168478063,0.,0.389150550980915));
#1195=DIRECTION('',(-0.148921468556143,-0.923879532511286,0.352518092599244));
#1196=DIRECTION('',(0.359528229116757,-0.382683432365092,-0.851053960134985));
#1197=DIRECTION('',(0.,1.,0.));
#1198=DIRECTION('',(0.,0.,1.));
#1199=DIRECTION('',(0.,1.,0.));
#1200=DIRECTION('',(0.,0.,1.));
#1201=DIRECTION('',(0.,1.,0.));
#1202=DIRECTION('',(0.,0.,1.));
#1203=DIRECTION('',(0.,1.,0.));
#1204=DIRECTION('',(0.,0.,1.));
#1205=DIRECTION('',(0.,1.,0.));
#1206=DIRECTION('',(0.,0.,1.));
#1207=DIRECTION('',(0.,1.,0.));
#1208=DIRECTION('',(0.,0.,1.));
#1209=DIRECTION('',(0.,1.,0.));
#1210=DIRECTION('',(0.,0.,1.));
#1211=DIRECTION('',(0.,1.,0.));
#1212=DIRECTION('',(0.,0.,1.));
#1213=DIRECTION('',(0.,-1.,0.));
#1214=DIRECTION('',(0.,0.,-1.));
#1215=DIRECTION('',(0.,1.,0.));
#1216=DIRECTION('',(0.,0.,1.));
#1217=DIRECTION('',(0.,-1.,0.));
#1218=DIRECTION('',(-0.389150550980915,0.,0.921174168478063));
#1219=DIRECTION('',(0.921174168478063,0.,0.389150550980915));
#1220=DIRECTION('',(-0.921174168478063,0.,-0.389150550980915));
#1221=DIRECTION('',(0.,-1.,0.));
#1222=DIRECTION('',(0.921174168478063,0.,-0.389150550980915));
#1223=DIRECTION('',(-0.389150550980915,0.,-0.921174168478063));
#1224=DIRECTION('',(0.,-1.,0.));
#1225=DIRECTION('',(0.389150550980915,0.,0.921174168478063));
#1226=DIRECTION('',(0.,-1.,0.));
#1227=DIRECTION('',(0.,-1.,0.));
#1228=DIRECTION('',(0.,0.,-1.));
#1229=DIRECTION('',(0.,1.,0.));
#1230=DIRECTION('',(0.,0.,1.));
#1231=DIRECTION('',(0.,-1.,0.));
#1232=DIRECTION('',(0.,0.,-1.));
#1233=DIRECTION('',(0.,1.,0.));
#1234=DIRECTION('',(0.,0.,1.));
#1235=DIRECTION('',(0.,1.,0.));
#1236=DIRECTION('',(-1.,0.,0.));
#1237=DIRECTION('',(-0.707106781186547,0.,-0.707106781186549));
#1238=DIRECTION('',(0.,-1.,0.));
#1239=DIRECTION('',(0.707106781186547,0.,0.707106781186549));
#1240=DIRECTION('',(0.707106781186549,0.,-0.707106781186547));
#1241=DIRECTION('',(0.707106781186547,0.,0.707106781186549));
#1242=DIRECTION('',(0.707106781186549,0.,-0.707106781186547));
#1243=CARTESIAN_POINT('',(0.,0.,0.));
#1244=CARTESIAN_POINT('',(0.0230870364057408,0.1713,0.0230870364057408));
#1245=CARTESIAN_POINT('',(0.00692477267461477,0.174240204299553,0.0110782227574025));
#1246=CARTESIAN_POINT('',(0.00576260081573765,0.171299655051724,0.0116408838751277));
#1247=CARTESIAN_POINT('',(0.00692472171258891,0.168361175493553,0.0110779445456358));
#1248=CARTESIAN_POINT('',(0.00928473722195471,0.167144062873399,0.00929119020306259));
#1249=CARTESIAN_POINT('',(0.0110803862078046,0.168362577701601,0.00692189378624469));
#1250=CARTESIAN_POINT('',(0.0116396784228276,0.171297812488883,0.00576424158366784));
#1251=CARTESIAN_POINT('',(0.0110806018640935,0.174236438233871,0.0069210394666936));
#1252=CARTESIAN_POINT('',(0.00928857774427267,0.175455839047802,0.00928742740123124));
#1253=CARTESIAN_POINT('',(0.00692477267461477,0.174240204299553,0.0110782227574025));
#1254=CARTESIAN_POINT('',(0.00576260081573765,0.171299655051724,0.0116408838751277));
#1255=CARTESIAN_POINT('',(0.00692472171258891,0.168361175493553,0.0110779445456358));
#1256=CARTESIAN_POINT('',(0.00614998294169238,0.1713,0.0114532838005915));
#1257=CARTESIAN_POINT('',(0.00540936687607706,0.1713,0.0054093668760771));
#1258=CARTESIAN_POINT('',(0.0027577164466275,0.1713,0.00806101730552665));
#1259=CARTESIAN_POINT('',(-1.82145964977565E-17,0.1753,3.03576608295941E-18));
#1260=CARTESIAN_POINT('',(-0.0119752641902148,0.1753,-0.00505895716275185));
#1261=CARTESIAN_POINT('',(-0.0119752641902148,0.1783,-0.00505895716275185));
#1262=CARTESIAN_POINT('',(-0.0119752641902148,0.1683,-0.00505895716275185));
#1263=CARTESIAN_POINT('',(-1.82145964977565E-17,0.1783,3.03576608295941E-18));
#1264=CARTESIAN_POINT('',(-0.00505895716275191,0.1783,-0.0119752641902148));
#1265=CARTESIAN_POINT('',(-0.0050589571627519,0.1793,-0.0119752641902148));
#1266=CARTESIAN_POINT('',(-0.0050589571627519,0.1683,-0.0119752641902148));
#1267=CARTESIAN_POINT('',(-1.82145964977565E-17,0.1683,3.03576608295941E-18));
#1268=CARTESIAN_POINT('',(-0.00321587797375743,0.16636066017178,-0.0125959568456668));
#1269=CARTESIAN_POINT('',(-1.82145964977565E-17,0.167163961030679,3.03576608295941E-18));
#1270=CARTESIAN_POINT('',(-0.000600917355386952,0.1653,-0.0129861040474807));
#1271=CARTESIAN_POINT('',(-1.82145964977565E-17,0.1653,3.03576608295941E-18));
#1272=CARTESIAN_POINT('',(-0.0129861040474807,0.1653,-0.000600917355386895));
#1273=CARTESIAN_POINT('',(-1.82145964977565E-17,0.167163961030679,3.03576608295941E-18));
#1274=CARTESIAN_POINT('',(-0.0125959568456668,0.16636066017178,-0.00321587797375738));
#1275=CARTESIAN_POINT('',(-1.82145964977565E-17,0.1683,3.03576608295941E-18));
#1276=CARTESIAN_POINT('',(0.0170417221168442,0.1753,-0.00719928519314689));
#1277=CARTESIAN_POINT('',(0.0119752641902148,0.1753,-0.00505895716275185));
#1278=CARTESIAN_POINT('',(0.0119752641902148,0.1783,-0.00505895716275184));
#1279=CARTESIAN_POINT('',(0.0119752641902148,0.1683,-0.00505895716275185));
#1280=CARTESIAN_POINT('',(0.0170417221168442,0.1783,-0.00719928519314689));
#1281=CARTESIAN_POINT('',(0.0221081800434735,0.1783,-0.00933961322354192));
#1282=CARTESIAN_POINT('',(0.0221081800434735,0.1753,-0.00933961322354192));
#1283=CARTESIAN_POINT('',(0.0221081800434735,0.1683,-0.00933961322354192));
#1284=CARTESIAN_POINT('',(0.0119752641902148,0.1683,-0.00505895716275185));
#1285=CARTESIAN_POINT('',(-1.82145964977565E-17,0.1753,3.03576608295941E-18));
#1286=CARTESIAN_POINT('',(-1.82145964977565E-17,0.167163961030679,3.03576608295941E-18));
#1287=CARTESIAN_POINT('',(0.0125959568456668,0.16636066017178,-0.00321587797375738));
#1288=CARTESIAN_POINT('',(0.0129861040474807,0.1653,-0.00060091735538689));
#1289=CARTESIAN_POINT('',(-1.82145964977565E-17,0.1653,3.03576608295941E-18));
#1290=CARTESIAN_POINT('',(0.000600917355386879,0.1653,-0.0129861040474807));
#1291=CARTESIAN_POINT('',(-1.82145964977565E-17,0.167163961030679,3.03576608295941E-18));
#1292=CARTESIAN_POINT('',(0.00321587797375736,0.16636066017178,-0.0125959568456668));
#1293=CARTESIAN_POINT('',(-1.82145964977565E-17,0.1683,3.03576608295941E-18));
#1294=CARTESIAN_POINT('',(0.00505895716275184,0.1683,-0.0119752641902148));
#1295=CARTESIAN_POINT('',(0.00505895716275184,0.1793,-0.0119752641902148));
#1296=CARTESIAN_POINT('',(0.00505895716275184,0.1783,-0.0119752641902148));
#1297=CARTESIAN_POINT('',(-1.82145964977565E-17,0.1783,3.03576608295941E-18));
#1298=CARTESIAN_POINT('',(-1.82145964977565E-17,0.1683,3.03576608295941E-18));
#1299=CARTESIAN_POINT('',(-0.0170417221168442,0.1753,-0.00719928519314689));
#1300=CARTESIAN_POINT('',(-0.0221081800434736,0.1753,-0.00933961322354192));
#1301=CARTESIAN_POINT('',(-0.0221081800434736,0.1783,-0.00933961322354192));
#1302=CARTESIAN_POINT('',(-0.0221081800434736,0.1683,-0.00933961322354192));
#1303=CARTESIAN_POINT('',(-0.0170417221168442,0.1783,-0.00719928519314689));
#1304=CARTESIAN_POINT('',(-0.0221081800434736,0.1683,-0.00933961322354192));
#1305=CARTESIAN_POINT('',(-3.46944695195361E-17,0.1753,-8.67361737988404E-19));
#1306=CARTESIAN_POINT('',(-0.0221081800434735,0.1753,0.00933961322354196));
#1307=CARTESIAN_POINT('',(-0.0221081800434735,0.1783,0.00933961322354196));
#1308=CARTESIAN_POINT('',(-0.0221081800434735,0.1683,0.00933961322354196));
#1309=CARTESIAN_POINT('',(-3.46944695195361E-17,0.1783,-8.67361737988404E-19));
#1310=CARTESIAN_POINT('',(-3.46944695195361E-17,0.1683,-8.67361737988404E-19));
#1311=CARTESIAN_POINT('',(-0.0170417221168442,0.1753,0.00719928519314693));
#1312=CARTESIAN_POINT('',(-0.0119752641902148,0.1753,0.0050589571627519));
#1313=CARTESIAN_POINT('',(-0.0119752641902148,0.1783,0.0050589571627519));
#1314=CARTESIAN_POINT('',(-0.0119752641902148,0.1683,0.0050589571627519));
#1315=CARTESIAN_POINT('',(-0.0170417221168442,0.1783,0.00719928519314693));
#1316=CARTESIAN_POINT('',(-0.0119752641902148,0.1683,0.0050589571627519));
#1317=CARTESIAN_POINT('',(-1.21430643318376E-17,0.1753,4.77048955893622E-18));
#1318=CARTESIAN_POINT('',(-1.21430643318376E-17,0.1653,4.77048955893622E-18));
#1319=CARTESIAN_POINT('',(-0.000600917355386956,0.1653,0.0129861040474807));
#1320=CARTESIAN_POINT('',(-0.0129861040474807,0.1653,0.000600917355386952));
#1321=CARTESIAN_POINT('',(-1.21430643318376E-17,0.167163961030679,4.77048955893622E-18));
#1322=CARTESIAN_POINT('',(-0.00321587797375744,0.16636066017178,0.0125959568456669));
#1323=CARTESIAN_POINT('',(-1.21430643318376E-17,0.1683,4.77048955893622E-18));
#1324=CARTESIAN_POINT('',(-0.00505895716275191,0.1683,0.0119752641902148));
#1325=CARTESIAN_POINT('',(-0.00505895716275191,0.1793,0.0119752641902148));
#1326=CARTESIAN_POINT('',(-0.00505895716275191,0.1783,0.0119752641902148));
#1327=CARTESIAN_POINT('',(-1.21430643318376E-17,0.1783,4.77048955893622E-18));
#1328=CARTESIAN_POINT('',(-1.21430643318376E-17,0.1683,4.77048955893622E-18));
#1329=CARTESIAN_POINT('',(-0.0125959568456669,0.16636066017178,0.00321587797375744));
#1330=CARTESIAN_POINT('',(-1.21430643318376E-17,0.167163961030679,4.77048955893622E-18));
#1331=CARTESIAN_POINT('',(-0.00719928519314694,0.1793,-0.0170417221168442));
#1332=CARTESIAN_POINT('',(-0.00719928519314694,0.1783,-0.0170417221168442));
#1333=CARTESIAN_POINT('',(-0.00933961322354197,0.1783,-0.0221081800434735));
#1334=CARTESIAN_POINT('',(-0.00933961322354197,0.1793,-0.0221081800434735));
#1335=CARTESIAN_POINT('',(-0.00933961322354197,0.1683,-0.0221081800434735));
#1336=CARTESIAN_POINT('',(-0.0050589571627519,0.1683,-0.0119752641902148));
#1337=CARTESIAN_POINT('',(-1.30104260698261E-17,0.1793,-2.42861286636753E-17));
#1338=CARTESIAN_POINT('',(-1.30104260698261E-17,0.1783,-2.42861286636753E-17));
#1339=CARTESIAN_POINT('',(0.00933961322354191,0.1783,-0.0221081800434735));
#1340=CARTESIAN_POINT('',(0.00933961322354191,0.1793,-0.0221081800434735));
#1341=CARTESIAN_POINT('',(0.00933961322354191,0.1683,-0.0221081800434735));
#1342=CARTESIAN_POINT('',(-1.30104260698261E-17,0.1683,-2.42861286636753E-17));
#1343=CARTESIAN_POINT('',(0.00719928519314687,0.1793,-0.0170417221168442));
#1344=CARTESIAN_POINT('',(0.00719928519314687,0.1783,-0.0170417221168442));
#1345=CARTESIAN_POINT('',(0.00933961322354191,0.1683,-0.0221081800434735));
#1346=CARTESIAN_POINT('',(-0.00719928519314694,0.1793,0.0170417221168442));
#1347=CARTESIAN_POINT('',(-0.00933961322354198,0.1683,0.0221081800434735));
#1348=CARTESIAN_POINT('',(-0.00933961322354198,0.1683,0.0221081800434735));
#1349=CARTESIAN_POINT('',(-0.00933961322354198,0.1793,0.0221081800434735));
#1350=CARTESIAN_POINT('',(-0.00933961322354198,0.1783,0.0221081800434735));
#1351=CARTESIAN_POINT('',(-0.00719928519314694,0.1783,0.0170417221168442));
#1352=CARTESIAN_POINT('',(-6.93889390390723E-18,0.1653,3.46944695195361E-18));
#1353=CARTESIAN_POINT('',(-0.000944689514624213,0.1653,0.0035256292659551));
#1354=CARTESIAN_POINT('',(-0.00298021252038621,0.1653,0.0029802125203862));
#1355=CARTESIAN_POINT('',(0.00109083349113778,0.1653,0.004071046011524));
#1356=CARTESIAN_POINT('',(0.00258093975133089,0.1653,0.00258093975133091));
#1357=CARTESIAN_POINT('',(0.00407104601152398,0.1653,0.00109083349113781));
#1358=CARTESIAN_POINT('',(0.00352562926595509,0.1653,-0.00094468951462419));
#1359=CARTESIAN_POINT('',(0.00298021252038619,0.1653,-0.00298021252038619));
#1360=CARTESIAN_POINT('',(0.000944689514624198,0.1653,-0.00352562926595509));
#1361=CARTESIAN_POINT('',(-0.0010908334911378,0.1653,-0.004071046011524));
#1362=CARTESIAN_POINT('',(-0.00258093975133091,0.1653,-0.0025809397513309));
#1363=CARTESIAN_POINT('',(-0.00407104601152401,0.1653,-0.0010908334911378));
#1364=CARTESIAN_POINT('',(-0.00352562926595511,0.1653,0.000944689514624199));
#1365=CARTESIAN_POINT('',(0.0208974230285024,0.1653,-0.00394305855495709));
#1366=CARTESIAN_POINT('',(0.0192292284440283,0.1653,-0.00323832880470366));
#1367=CARTESIAN_POINT('',(1.04083408558608E-17,0.1653,-4.33680868994202E-18));
#1368=CARTESIAN_POINT('',(0.0192292284440282,0.1653,0.0032383288047037));
#1369=CARTESIAN_POINT('',(0.0134032114558235,0.1653,0.000777124617085369));
#1370=CARTESIAN_POINT('',(0.0129861040474807,0.1653,0.000600917355386943));
#1371=CARTESIAN_POINT('',(-1.21430643318376E-17,0.1653,4.77048955893622E-18));
#1372=CARTESIAN_POINT('',(0.000600917355386886,0.1653,0.0129861040474807));
#1373=CARTESIAN_POINT('',(0.00394305855495707,0.1653,0.0208974230285024));
#1374=CARTESIAN_POINT('',(0.00323832880470364,0.1653,0.0192292284440283));
#1375=CARTESIAN_POINT('',(-9.54097911787244E-18,0.1653,1.56125112837912E-17));
#1376=CARTESIAN_POINT('',(-0.00323832880470371,0.1653,0.0192292284440283));
#1377=CARTESIAN_POINT('',(-0.000777124617085382,0.1653,0.0134032114558236));
#1378=CARTESIAN_POINT('',(-0.0208974230285024,0.1653,0.00394305855495713));
#1379=CARTESIAN_POINT('',(-0.0192292284440283,0.1653,0.0032383288047037));
#1380=CARTESIAN_POINT('',(-3.46944695195361E-17,0.1653,-8.67361737988404E-19));
#1381=CARTESIAN_POINT('',(-0.0192292284440283,0.1653,-0.00323832880470366));
#1382=CARTESIAN_POINT('',(-0.0134032114558235,0.1653,-0.000777124617085324));
#1383=CARTESIAN_POINT('',(-0.00394305855495714,0.1653,-0.0208974230285023));
#1384=CARTESIAN_POINT('',(-0.00323832880470371,0.1653,-0.0192292284440282));
#1385=CARTESIAN_POINT('',(-1.30104260698261E-17,0.1653,-2.42861286636753E-17));
#1386=CARTESIAN_POINT('',(0.00323832880470364,0.1653,-0.0192292284440282));
#1387=CARTESIAN_POINT('',(0.000777124617085306,0.1653,-0.0134032114558235));
#1388=CARTESIAN_POINT('',(0.00276352250543417,0.1653,-0.00116745165294274));
#1389=CARTESIAN_POINT('',(-0.00933961322354197,0.1683,-0.0221081800434735));
#1390=CARTESIAN_POINT('',(-0.00847954222316086,0.167643619953429,-0.0217589703566441));
#1391=CARTESIAN_POINT('',(-0.00762129574911239,0.166996596003328,-0.0213900372236507));
#1392=CARTESIAN_POINT('',(-0.00676521156190506,0.16636066017178,-0.0209977293948042));
#1393=CARTESIAN_POINT('',(-0.006765211561905,0.16636066017178,-0.0209977293948041));
#1394=CARTESIAN_POINT('',(-0.00313593862157956,0.16636066017178,-0.0124067291391005));
#1395=CARTESIAN_POINT('',(-1.30104260698261E-17,0.1653,-2.42861286636753E-17));
#1396=CARTESIAN_POINT('',(0.00933961322354191,0.1683,-0.0221081800434735));
#1397=CARTESIAN_POINT('',(0.00847954222316079,0.167643619953429,-0.0217589703566441));
#1398=CARTESIAN_POINT('',(0.00762129574911232,0.166996596003328,-0.0213900372236507));
#1399=CARTESIAN_POINT('',(0.00676521156190499,0.16636066017178,-0.0209977293948042));
#1400=CARTESIAN_POINT('',(0.00676521156190493,0.16636066017178,-0.0209977293948041));
#1401=CARTESIAN_POINT('',(-1.30104260698261E-17,0.16636066017178,-2.42861286636753E-17));
#1402=CARTESIAN_POINT('',(-0.00276352250543423,0.1653,-0.00116745165294276));
#1403=CARTESIAN_POINT('',(0.00630187255945125,0.16636066017178,-0.0199009407117793));
#1404=CARTESIAN_POINT('',(0.00276352250543418,0.1653,0.00116745165294275));
#1405=CARTESIAN_POINT('',(-0.00630187255945132,0.16636066017178,0.0199009407117793));
#1406=CARTESIAN_POINT('',(-0.006765211561905,0.16636066017178,0.0209977293948041));
#1407=CARTESIAN_POINT('',(-0.00933961322354198,0.1683,0.0221081800434735));
#1408=CARTESIAN_POINT('',(-0.00847954222316086,0.167643619953429,0.0217589703566441));
#1409=CARTESIAN_POINT('',(-0.00762129574911239,0.166996596003328,0.0213900372236507));
#1410=CARTESIAN_POINT('',(-0.00676521156190506,0.16636066017178,0.0209977293948042));
#1411=CARTESIAN_POINT('',(0.00116745165294275,0.1653,0.00276352250543422));
#1412=CARTESIAN_POINT('',(0.0221081800434735,0.1683,-0.00933961322354192));
#1413=CARTESIAN_POINT('',(0.0217589703566441,0.167643619953429,-0.00847954222316081));
#1414=CARTESIAN_POINT('',(0.0213900372236507,0.166996596003328,-0.00762129574911234));
#1415=CARTESIAN_POINT('',(0.0209977293948042,0.16636066017178,-0.00676521156190501));
#1416=CARTESIAN_POINT('',(0.0209977293948041,0.16636066017178,-0.00676521156190495));
#1417=CARTESIAN_POINT('',(0.0124067291391005,0.16636066017178,-0.0031359386215795));
#1418=CARTESIAN_POINT('',(-0.00116745165294275,0.1653,-0.00276352250543418));
#1419=CARTESIAN_POINT('',(-0.0221081800434735,0.1683,0.00933961322354196));
#1420=CARTESIAN_POINT('',(-0.0217589703566441,0.167643619953429,0.00847954222316085));
#1421=CARTESIAN_POINT('',(-0.0213900372236507,0.166996596003328,0.00762129574911237));
#1422=CARTESIAN_POINT('',(-0.0209977293948042,0.16636066017178,0.00676521156190504));
#1423=CARTESIAN_POINT('',(-0.0209977293948041,0.16636066017178,0.00676521156190498));
#1424=CARTESIAN_POINT('',(-0.0124067291391006,0.16636066017178,0.00313593862157956));
#1425=CARTESIAN_POINT('',(-3.46944695195361E-17,0.1683,-8.67361737988404E-19));
#1426=CARTESIAN_POINT('',(-0.0221081800434736,0.1683,-0.00933961322354192));
#1427=CARTESIAN_POINT('',(-0.0217589703566441,0.167643619953429,-0.0084795422231608));
#1428=CARTESIAN_POINT('',(-0.0213900372236507,0.166996596003328,-0.00762129574911234));
#1429=CARTESIAN_POINT('',(-0.0209977293948042,0.16636066017178,-0.00676521156190501));
#1430=CARTESIAN_POINT('',(-0.0209977293948041,0.16636066017178,-0.00676521156190495));
#1431=CARTESIAN_POINT('',(-3.46944695195361E-17,0.16636066017178,-8.67361737988404E-19));
#1432=CARTESIAN_POINT('',(-0.00116745165294276,0.1653,0.00276352250543422));
#1433=CARTESIAN_POINT('',(-0.0199009407117793,0.16636066017178,-0.00630187255945127));
#1434=CARTESIAN_POINT('',(0.00414528375815127,0.1653,-0.00175117747941411));
#1435=CARTESIAN_POINT('',(-0.006765211561905,0.16636066017178,-0.0209977293948041));
#1436=CARTESIAN_POINT('',(-0.00557219658062848,0.165993574838689,-0.020451020176155));
#1437=CARTESIAN_POINT('',(-0.00439535489422339,0.165639076560149,-0.0198645078111065));
#1438=CARTESIAN_POINT('',(-0.00323832880470371,0.1653,-0.0192292284440282));
#1439=CARTESIAN_POINT('',(-1.30104260698261E-17,0.1653,-2.42861286636753E-17));
#1440=CARTESIAN_POINT('',(0.00676521156190493,0.16636066017178,-0.0209977293948041));
#1441=CARTESIAN_POINT('',(0.00557219658062841,0.165993574838689,-0.0204510201761549));
#1442=CARTESIAN_POINT('',(0.00439535489422332,0.165639076560149,-0.0198645078111065));
#1443=CARTESIAN_POINT('',(0.00323832880470364,0.1653,-0.0192292284440282));
#1444=CARTESIAN_POINT('',(-0.00414528375815133,0.1653,-0.00175117747941413));
#1445=CARTESIAN_POINT('',(0.00414528375815127,0.1653,0.00175117747941412));
#1446=CARTESIAN_POINT('',(-0.006765211561905,0.16636066017178,0.0209977293948041));
#1447=CARTESIAN_POINT('',(-0.00557219658062848,0.165993574838689,0.020451020176155));
#1448=CARTESIAN_POINT('',(-0.00439535489422339,0.165639076560149,0.0198645078111065));
#1449=CARTESIAN_POINT('',(-0.00323832880470371,0.1653,0.0192292284440283));
#1450=CARTESIAN_POINT('',(0.00175117747941412,0.1653,0.00414528375815131));
#1451=CARTESIAN_POINT('',(0.0209977293948041,0.16636066017178,-0.00676521156190495));
#1452=CARTESIAN_POINT('',(0.020451020176155,0.165993574838689,-0.00557219658062843));
#1453=CARTESIAN_POINT('',(0.0198645078111065,0.165639076560149,-0.00439535489422333));
#1454=CARTESIAN_POINT('',(0.0192292284440283,0.1653,-0.00323832880470366));
#1455=CARTESIAN_POINT('',(-0.00175117747941412,0.1653,-0.00414528375815127));
#1456=CARTESIAN_POINT('',(-0.0209977293948041,0.16636066017178,0.00676521156190498));
#1457=CARTESIAN_POINT('',(-0.020451020176155,0.165993574838689,0.00557219658062847));
#1458=CARTESIAN_POINT('',(-0.0198645078111065,0.165639076560149,0.00439535489422337));
#1459=CARTESIAN_POINT('',(-0.0192292284440283,0.1653,0.0032383288047037));
#1460=CARTESIAN_POINT('',(-3.46944695195361E-17,0.1653,-8.67361737988404E-19));
#1461=CARTESIAN_POINT('',(-0.0209977293948041,0.16636066017178,-0.00676521156190495));
#1462=CARTESIAN_POINT('',(-0.020451020176155,0.165993574838689,-0.00557219658062843));
#1463=CARTESIAN_POINT('',(-0.0198645078111065,0.165639076560149,-0.00439535489422333));
#1464=CARTESIAN_POINT('',(-0.0192292284440283,0.1653,-0.00323832880470366));
#1465=CARTESIAN_POINT('',(-0.00175117747941414,0.1653,0.00414528375815131));
#1466=CARTESIAN_POINT('',(0.00183588662123433,0.1523,0.00332599288142745));
#1467=CARTESIAN_POINT('',(0.00109083349113778,0.1523,0.004071046011524));
#1468=CARTESIAN_POINT('',(0.00109083349113778,0.1783,0.004071046011524));
#1469=CARTESIAN_POINT('',(0.00183588662123433,0.1783,0.00332599288142745));
#1470=CARTESIAN_POINT('',(0.00407104601152398,0.1783,0.00109083349113781));
#1471=CARTESIAN_POINT('',(0.00407104601152398,0.1523,0.00109083349113781));
#1472=CARTESIAN_POINT('',(0.00258093975133088,0.1713,0.00258093975133091));
#1473=CARTESIAN_POINT('',(0.003889087296526,0.1713,0.0012727922061358));
#1474=CARTESIAN_POINT('',(0.00352562926595509,0.1523,-0.00094468951462419));
#1475=CARTESIAN_POINT('',(0.00352562926595509,0.1783,-0.00094468951462419));
#1476=CARTESIAN_POINT('',(0.00298021252038619,0.1783,-0.00298021252038619));
#1477=CARTESIAN_POINT('',(0.00298021252038619,0.1523,-0.00298021252038619));
#1478=CARTESIAN_POINT('',(0.000944689514624195,0.1523,-0.00352562926595509));
#1479=CARTESIAN_POINT('',(0.000944689514624195,0.1783,-0.00352562926595509));
#1480=CARTESIAN_POINT('',(-0.0010908334911378,0.1783,-0.004071046011524));
#1481=CARTESIAN_POINT('',(-0.0010908334911378,0.1523,-0.004071046011524));
#1482=CARTESIAN_POINT('',(-0.00258093975133091,0.1523,-0.0025809397513309));
#1483=CARTESIAN_POINT('',(-0.00258093975133091,0.1783,-0.0025809397513309));
#1484=CARTESIAN_POINT('',(-0.00407104601152401,0.1783,-0.0010908334911378));
#1485=CARTESIAN_POINT('',(-0.00407104601152401,0.1523,-0.0010908334911378));
#1486=CARTESIAN_POINT('',(-0.00352562926595511,0.1523,0.000944689514624199));
#1487=CARTESIAN_POINT('',(-0.00352562926595511,0.1783,0.000944689514624199));
#1488=CARTESIAN_POINT('',(-0.00298021252038621,0.1783,0.0029802125203862));
#1489=CARTESIAN_POINT('',(-0.00298021252038621,0.1523,0.0029802125203862));
#1490=CARTESIAN_POINT('',(-0.000944689514624217,0.1523,0.0035256292659551));
#1491=CARTESIAN_POINT('',(-0.000944689514624217,0.1783,0.0035256292659551));
#1492=CARTESIAN_POINT('',(0.00116745165294274,0.1653,-0.00276352250543418));
#1493=CARTESIAN_POINT('',(-1.21430643318376E-17,0.1683,4.77048955893622E-18));
#1494=CARTESIAN_POINT('',(0.0125959568456668,0.16636066017178,0.00321587797375743));
#1495=CARTESIAN_POINT('',(0.0119752641902148,0.1683,0.00505895716275189));
#1496=CARTESIAN_POINT('',(0.0199009407117793,0.16636066017178,0.00630187255945131));
#1497=CARTESIAN_POINT('',(0.0209977293948041,0.16636066017178,0.00676521156190499));
#1498=CARTESIAN_POINT('',(0.0221081800434735,0.1683,0.00933961322354196));
#1499=CARTESIAN_POINT('',(0.0217589703566441,0.167643619953429,0.00847954222316085));
#1500=CARTESIAN_POINT('',(0.0213900372236507,0.166996596003328,0.00762129574911239));
#1501=CARTESIAN_POINT('',(0.0209977293948041,0.16636066017178,0.00676521156190507));
#1502=CARTESIAN_POINT('',(0.0221081800434735,0.1683,0.00933961322354196));
#1503=CARTESIAN_POINT('',(0.0221081800434735,0.1683,0.00933961322354196));
#1504=CARTESIAN_POINT('',(-0.00276352250543425,0.1653,0.00116745165294277));
#1505=CARTESIAN_POINT('',(0.00933961322354191,0.1683,0.0221081800434736));
#1506=CARTESIAN_POINT('',(0.00847954222316079,0.167643619953429,0.0217589703566441));
#1507=CARTESIAN_POINT('',(0.00762129574911233,0.166996596003328,0.0213900372236507));
#1508=CARTESIAN_POINT('',(0.006765211561905,0.16636066017178,0.0209977293948042));
#1509=CARTESIAN_POINT('',(0.00676521156190493,0.16636066017178,0.0209977293948042));
#1510=CARTESIAN_POINT('',(0.00933961322354191,0.1683,0.0221081800434736));
#1511=CARTESIAN_POINT('',(0.00313593862157949,0.16636066017178,0.0124067291391006));
#1512=CARTESIAN_POINT('',(0.00321587797375737,0.16636066017178,0.0125959568456669));
#1513=CARTESIAN_POINT('',(-1.21430643318376E-17,0.1683,4.77048955893622E-18));
#1514=CARTESIAN_POINT('',(0.00505895716275184,0.1683,0.0119752641902148));
#1515=CARTESIAN_POINT('',(0.00505895716275184,0.1683,0.0119752641902148));
#1516=CARTESIAN_POINT('',(-0.00414528375815134,0.1653,0.00175117747941414));
#1517=CARTESIAN_POINT('',(-1.21430643318376E-17,0.167163961030679,4.77048955893622E-18));
#1518=CARTESIAN_POINT('',(0.00676521156190493,0.16636066017178,0.0209977293948042));
#1519=CARTESIAN_POINT('',(0.00557219658062841,0.165993574838689,0.020451020176155));
#1520=CARTESIAN_POINT('',(0.00439535489422332,0.165639076560149,0.0198645078111065));
#1521=CARTESIAN_POINT('',(0.00323832880470364,0.1653,0.0192292284440283));
#1522=CARTESIAN_POINT('',(0.00175117747941411,0.1653,-0.00414528375815129));
#1523=CARTESIAN_POINT('',(0.0209977293948041,0.16636066017178,0.00676521156190499));
#1524=CARTESIAN_POINT('',(0.0204510201761549,0.165993574838689,0.00557219658062847));
#1525=CARTESIAN_POINT('',(0.0198645078111065,0.165639076560149,0.00439535489422338));
#1526=CARTESIAN_POINT('',(0.0192292284440282,0.1653,0.00323832880470369));
#1527=CARTESIAN_POINT('',(-1.21430643318376E-17,0.167163961030679,4.77048955893622E-18));
#1528=CARTESIAN_POINT('',(-9.54097911787244E-18,0.1653,1.56125112837912E-17));
#1529=CARTESIAN_POINT('',(-9.54097911787244E-18,0.16636066017178,1.56125112837912E-17));
#1530=CARTESIAN_POINT('',(-9.54097911787244E-18,0.1683,1.56125112837912E-17));
#1531=CARTESIAN_POINT('',(1.04083408558608E-17,0.1683,-4.33680868994202E-18));
#1532=CARTESIAN_POINT('',(1.04083408558608E-17,0.16636066017178,-4.33680868994202E-18));
#1533=CARTESIAN_POINT('',(1.04083408558608E-17,0.1683,-4.33680868994202E-18));
#1534=CARTESIAN_POINT('',(-9.54097911787244E-18,0.1653,1.56125112837912E-17));
#1535=CARTESIAN_POINT('',(1.04083408558608E-17,0.1653,-4.33680868994202E-18));
#1536=CARTESIAN_POINT('',(1.04083408558608E-17,0.1753,-4.33680868994202E-18));
#1537=CARTESIAN_POINT('',(1.04083408558608E-17,0.1783,-4.33680868994202E-18));
#1538=CARTESIAN_POINT('',(0.0221081800434735,0.1783,0.00933961322354196));
#1539=CARTESIAN_POINT('',(0.0221081800434735,0.1753,0.00933961322354196));
#1540=CARTESIAN_POINT('',(0.0170417221168442,0.1753,0.00719928519314693));
#1541=CARTESIAN_POINT('',(0.0170417221168442,0.1783,0.00719928519314693));
#1542=CARTESIAN_POINT('',(0.0119752641902148,0.1783,0.0050589571627519));
#1543=CARTESIAN_POINT('',(0.0119752641902148,0.1753,0.00505895716275189));
#1544=CARTESIAN_POINT('',(0.00719928519314687,0.1793,0.0170417221168442));
#1545=CARTESIAN_POINT('',(0.00505895716275184,0.1793,0.0119752641902148));
#1546=CARTESIAN_POINT('',(0.00505895716275184,0.1783,0.0119752641902148));
#1547=CARTESIAN_POINT('',(0.00719928519314687,0.1783,0.0170417221168442));
#1548=CARTESIAN_POINT('',(0.00933961322354191,0.1783,0.0221081800434736));
#1549=CARTESIAN_POINT('',(0.00933961322354191,0.1793,0.0221081800434736));
#1550=CARTESIAN_POINT('',(-9.54097911787244E-18,0.1793,1.56125112837912E-17));
#1551=CARTESIAN_POINT('',(-9.54097911787244E-18,0.1783,1.56125112837912E-17));
#1552=CARTESIAN_POINT('',(-1.21430643318376E-17,0.1753,4.77048955893622E-18));
#1553=CARTESIAN_POINT('',(-1.21430643318376E-17,0.1783,4.77048955893622E-18));
#1554=CARTESIAN_POINT('',(0.000169042384430599,0.1783,-2.63677968348475E-16));
#1555=CARTESIAN_POINT('',(0.00540936687607707,0.1713,0.0054093668760771));
#1556=CARTESIAN_POINT('',(0.00540936687607707,0.1713,0.00540936687607711));
#1557=CARTESIAN_POINT('',(0.00671751442127219,0.1713,0.004101219330882));
#1558=CARTESIAN_POINT('',(0.00258093975133088,0.1713,0.00258093975133091));
#1559=MECHANICAL_DESIGN_GEOMETRIC_PRESENTATION_REPRESENTATION('',(#881),
#1560);
#1560=(
GEOMETRIC_REPRESENTATION_CONTEXT(3)
GLOBAL_UNCERTAINTY_ASSIGNED_CONTEXT((#1561))
GLOBAL_UNIT_ASSIGNED_CONTEXT((#1564,#1563,#1562))
REPRESENTATION_CONTEXT('C1 Input Clutch','TOP_LEVEL_ASSEMBLY_PART')
);
#1561=UNCERTAINTY_MEASURE_WITH_UNIT(LENGTH_MEASURE(2.E-5),#1564,
'DISTANCE_ACCURACY_VALUE','Maximum Tolerance applied to model');
#1562=(
NAMED_UNIT(*)
SI_UNIT($,.STERADIAN.)
SOLID_ANGLE_UNIT()
);
#1563=(
NAMED_UNIT(*)
PLANE_ANGLE_UNIT()
SI_UNIT($,.RADIAN.)
);
#1564=(
LENGTH_UNIT()
NAMED_UNIT(*)
SI_UNIT($,.METRE.)
);
#1565=PRODUCT_DEFINITION_SHAPE('','',#1566);
#1566=PRODUCT_DEFINITION('','',#1568,#1567);
#1567=PRODUCT_DEFINITION_CONTEXT('',#1574,'design');
#1568=PRODUCT_DEFINITION_FORMATION_WITH_SPECIFIED_SOURCE('','',#1570,
 .NOT_KNOWN.);
#1569=PRODUCT_RELATED_PRODUCT_CATEGORY('','',(#1570));
#1570=PRODUCT('C1 Input Clutch','C1 Input Clutch','C1 Input Clutch',(#1572));
#1571=PRODUCT_CATEGORY('','');
#1572=PRODUCT_CONTEXT('',#1574,'mechanical');
#1573=APPLICATION_PROTOCOL_DEFINITION('international standard',
'ap242_managed_model_based_3d_engineering',2020,#1574);
#1574=APPLICATION_CONTEXT('managed model based 3d engineering');
ENDSEC;
END-ISO-10303-21;
