ISO-10303-21;
HEADER;
/* Generated by software containing ST-Developer
 * from STEP Tools, Inc. (www.steptools.com) 
 */
/* OPTION: using custom renumber hook */

FILE_DESCRIPTION(
/* description */ ('STEP AP242 Edition 2',
'CAx-IF Rec.Pracs.---Representation and Presentation of Product Manufa
cturing Information (PMI)---4.0---2014-10-13',
'CAx-IF Rec.Pracs.---3D Tessellated Geometry---0.4---2014-09-14','2;1',
'CAx-IF Rec.Pracs.---User Defined Attributes---1.5---2016-08-15'),
/* implementation_level */ '2;1');

FILE_NAME(
/* name */ 'Assembly 1 - btrshftr C1-C2 Shifter',
/* time_stamp */ '2026-06-22T21:39:40Z',
/* author */ (''),
/* organization */ (''),
/* preprocessor_version */ 'ST-DEVELOPER v20',
/* originating_system */ 'ONSHAPE BY PTC INC, 1.216',
/* authorisation */ '  ');

FILE_SCHEMA (('AP242_MANAGED_MODEL_BASED_3D_ENGINEERING_MIM_LF { 1 0 10303 442 3 1 4 }'));
ENDSEC;

DATA;
#10=SHAPE_REPRESENTATION_RELATIONSHIP('','',#544,#11);
#11=ADVANCED_BREP_SHAPE_REPRESENTATION('',(#542),#898);
#12=CYLINDRICAL_SURFACE('',#562,0.00400000000000191);
#13=CYLINDRICAL_SURFACE('',#567,0.0105000000000003);
#14=CYLINDRICAL_SURFACE('',#570,0.01);
#15=CYLINDRICAL_SURFACE('',#572,0.01);
#16=CYLINDRICAL_SURFACE('',#592,0.00075);
#17=CYLINDRICAL_SURFACE('',#593,0.00075);
#18=CYLINDRICAL_SURFACE('',#594,0.00075);
#19=CYLINDRICAL_SURFACE('',#595,0.00075);
#20=CYLINDRICAL_SURFACE('',#596,0.00075);
#21=CYLINDRICAL_SURFACE('',#597,0.00075);
#22=CYLINDRICAL_SURFACE('',#598,0.00075);
#23=CYLINDRICAL_SURFACE('',#599,0.00075);
#24=CYLINDRICAL_SURFACE('',#600,0.00075);
#25=CYLINDRICAL_SURFACE('',#601,0.00075);
#26=LINE('',#775,#63);
#27=LINE('',#780,#64);
#28=LINE('',#784,#65);
#29=LINE('',#786,#66);
#30=LINE('',#790,#67);
#31=LINE('',#793,#68);
#32=LINE('',#796,#69);
#33=LINE('',#798,#70);
#34=LINE('',#800,#71);
#35=LINE('',#802,#72);
#36=LINE('',#804,#73);
#37=LINE('',#806,#74);
#38=LINE('',#808,#75);
#39=LINE('',#810,#76);
#40=LINE('',#812,#77);
#41=LINE('',#816,#78);
#42=LINE('',#818,#79);
#43=LINE('',#820,#80);
#44=LINE('',#822,#81);
#45=LINE('',#824,#82);
#46=LINE('',#826,#83);
#47=LINE('',#828,#84);
#48=LINE('',#830,#85);
#49=LINE('',#834,#86);
#50=LINE('',#836,#87);
#51=LINE('',#863,#88);
#52=LINE('',#865,#89);
#53=LINE('',#867,#90);
#54=LINE('',#869,#91);
#55=LINE('',#871,#92);
#56=LINE('',#873,#93);
#57=LINE('',#875,#94);
#58=LINE('',#877,#95);
#59=LINE('',#879,#96);
#60=LINE('',#881,#97);
#61=LINE('',#883,#98);
#62=LINE('',#885,#99);
#63=VECTOR('',#626,1.);
#64=VECTOR('',#629,1.);
#65=VECTOR('',#632,1.);
#66=VECTOR('',#633,1.);
#67=VECTOR('',#636,1.);
#68=VECTOR('',#639,1.);
#69=VECTOR('',#640,1.);
#70=VECTOR('',#641,1.);
#71=VECTOR('',#642,1.);
#72=VECTOR('',#643,1.);
#73=VECTOR('',#644,1.);
#74=VECTOR('',#647,1.);
#75=VECTOR('',#648,1.);
#76=VECTOR('',#649,1.);
#77=VECTOR('',#652,1.);
#78=VECTOR('',#657,1.);
#79=VECTOR('',#658,1.);
#80=VECTOR('',#661,1.);
#81=VECTOR('',#662,1.);
#82=VECTOR('',#663,1.);
#83=VECTOR('',#666,1.);
#84=VECTOR('',#667,1.);
#85=VECTOR('',#670,1.);
#86=VECTOR('',#675,1.);
#87=VECTOR('',#676,1.);
#88=VECTOR('',#709,1.);
#89=VECTOR('',#710,1.);
#90=VECTOR('',#711,1.);
#91=VECTOR('',#714,1.);
#92=VECTOR('',#715,1.);
#93=VECTOR('',#718,1.);
#94=VECTOR('',#719,1.);
#95=VECTOR('',#722,1.);
#96=VECTOR('',#723,1.);
#97=VECTOR('',#726,1.);
#98=VECTOR('',#727,1.);
#99=VECTOR('',#730,1.);
#100=ORIENTED_EDGE('',*,*,#230,.T.);
#101=ORIENTED_EDGE('',*,*,#231,.T.);
#102=ORIENTED_EDGE('',*,*,#232,.T.);
#103=ORIENTED_EDGE('',*,*,#233,.T.);
#104=ORIENTED_EDGE('',*,*,#234,.T.);
#105=ORIENTED_EDGE('',*,*,#235,.T.);
#106=ORIENTED_EDGE('',*,*,#236,.T.);
#107=ORIENTED_EDGE('',*,*,#237,.T.);
#108=ORIENTED_EDGE('',*,*,#238,.T.);
#109=ORIENTED_EDGE('',*,*,#239,.T.);
#110=ORIENTED_EDGE('',*,*,#240,.F.);
#111=ORIENTED_EDGE('',*,*,#241,.T.);
#112=ORIENTED_EDGE('',*,*,#242,.T.);
#113=ORIENTED_EDGE('',*,*,#243,.F.);
#114=ORIENTED_EDGE('',*,*,#244,.F.);
#115=ORIENTED_EDGE('',*,*,#245,.F.);
#116=ORIENTED_EDGE('',*,*,#246,.T.);
#117=ORIENTED_EDGE('',*,*,#247,.T.);
#118=ORIENTED_EDGE('',*,*,#248,.F.);
#119=ORIENTED_EDGE('',*,*,#249,.F.);
#120=ORIENTED_EDGE('',*,*,#250,.F.);
#121=ORIENTED_EDGE('',*,*,#251,.F.);
#122=ORIENTED_EDGE('',*,*,#252,.F.);
#123=ORIENTED_EDGE('',*,*,#253,.F.);
#124=ORIENTED_EDGE('',*,*,#254,.F.);
#125=ORIENTED_EDGE('',*,*,#255,.T.);
#126=ORIENTED_EDGE('',*,*,#256,.F.);
#127=ORIENTED_EDGE('',*,*,#257,.T.);
#128=ORIENTED_EDGE('',*,*,#240,.T.);
#129=ORIENTED_EDGE('',*,*,#258,.T.);
#130=ORIENTED_EDGE('',*,*,#259,.F.);
#131=ORIENTED_EDGE('',*,*,#255,.F.);
#132=ORIENTED_EDGE('',*,*,#248,.T.);
#133=ORIENTED_EDGE('',*,*,#247,.F.);
#134=ORIENTED_EDGE('',*,*,#260,.T.);
#135=ORIENTED_EDGE('',*,*,#261,.T.);
#136=ORIENTED_EDGE('',*,*,#258,.F.);
#137=ORIENTED_EDGE('',*,*,#262,.T.);
#138=ORIENTED_EDGE('',*,*,#263,.F.);
#139=ORIENTED_EDGE('',*,*,#264,.T.);
#140=ORIENTED_EDGE('',*,*,#245,.T.);
#141=ORIENTED_EDGE('',*,*,#265,.T.);
#142=ORIENTED_EDGE('',*,*,#266,.F.);
#143=ORIENTED_EDGE('',*,*,#262,.F.);
#144=ORIENTED_EDGE('',*,*,#244,.T.);
#145=ORIENTED_EDGE('',*,*,#267,.T.);
#146=ORIENTED_EDGE('',*,*,#268,.F.);
#147=ORIENTED_EDGE('',*,*,#265,.F.);
#148=ORIENTED_EDGE('',*,*,#243,.T.);
#149=ORIENTED_EDGE('',*,*,#242,.F.);
#150=ORIENTED_EDGE('',*,*,#269,.T.);
#151=ORIENTED_EDGE('',*,*,#270,.T.);
#152=ORIENTED_EDGE('',*,*,#267,.F.);
#153=ORIENTED_EDGE('',*,*,#241,.F.);
#154=ORIENTED_EDGE('',*,*,#257,.F.);
#155=ORIENTED_EDGE('',*,*,#271,.F.);
#156=ORIENTED_EDGE('',*,*,#269,.F.);
#157=ORIENTED_EDGE('',*,*,#246,.F.);
#158=ORIENTED_EDGE('',*,*,#264,.F.);
#159=ORIENTED_EDGE('',*,*,#272,.F.);
#160=ORIENTED_EDGE('',*,*,#260,.F.);
#161=ORIENTED_EDGE('',*,*,#273,.F.);
#162=ORIENTED_EDGE('',*,*,#274,.F.);
#163=ORIENTED_EDGE('',*,*,#275,.F.);
#164=ORIENTED_EDGE('',*,*,#276,.F.);
#165=ORIENTED_EDGE('',*,*,#277,.F.);
#166=ORIENTED_EDGE('',*,*,#278,.F.);
#167=ORIENTED_EDGE('',*,*,#279,.F.);
#168=ORIENTED_EDGE('',*,*,#280,.F.);
#169=ORIENTED_EDGE('',*,*,#281,.F.);
#170=ORIENTED_EDGE('',*,*,#282,.F.);
#171=ORIENTED_EDGE('',*,*,#270,.F.);
#172=ORIENTED_EDGE('',*,*,#271,.T.);
#173=ORIENTED_EDGE('',*,*,#256,.T.);
#174=ORIENTED_EDGE('',*,*,#259,.T.);
#175=ORIENTED_EDGE('',*,*,#261,.F.);
#176=ORIENTED_EDGE('',*,*,#272,.T.);
#177=ORIENTED_EDGE('',*,*,#263,.T.);
#178=ORIENTED_EDGE('',*,*,#266,.T.);
#179=ORIENTED_EDGE('',*,*,#268,.T.);
#180=ORIENTED_EDGE('',*,*,#249,.T.);
#181=ORIENTED_EDGE('',*,*,#283,.F.);
#182=ORIENTED_EDGE('',*,*,#284,.F.);
#183=ORIENTED_EDGE('',*,*,#285,.T.);
#184=ORIENTED_EDGE('',*,*,#254,.T.);
#185=ORIENTED_EDGE('',*,*,#286,.F.);
#186=ORIENTED_EDGE('',*,*,#287,.F.);
#187=ORIENTED_EDGE('',*,*,#283,.T.);
#188=ORIENTED_EDGE('',*,*,#253,.T.);
#189=ORIENTED_EDGE('',*,*,#288,.F.);
#190=ORIENTED_EDGE('',*,*,#289,.F.);
#191=ORIENTED_EDGE('',*,*,#286,.T.);
#192=ORIENTED_EDGE('',*,*,#252,.T.);
#193=ORIENTED_EDGE('',*,*,#290,.F.);
#194=ORIENTED_EDGE('',*,*,#291,.F.);
#195=ORIENTED_EDGE('',*,*,#288,.T.);
#196=ORIENTED_EDGE('',*,*,#251,.T.);
#197=ORIENTED_EDGE('',*,*,#292,.F.);
#198=ORIENTED_EDGE('',*,*,#293,.F.);
#199=ORIENTED_EDGE('',*,*,#290,.T.);
#200=ORIENTED_EDGE('',*,*,#250,.T.);
#201=ORIENTED_EDGE('',*,*,#285,.F.);
#202=ORIENTED_EDGE('',*,*,#294,.F.);
#203=ORIENTED_EDGE('',*,*,#292,.T.);
#204=ORIENTED_EDGE('',*,*,#284,.T.);
#205=ORIENTED_EDGE('',*,*,#287,.T.);
#206=ORIENTED_EDGE('',*,*,#289,.T.);
#207=ORIENTED_EDGE('',*,*,#291,.T.);
#208=ORIENTED_EDGE('',*,*,#293,.T.);
#209=ORIENTED_EDGE('',*,*,#294,.T.);
#210=ORIENTED_EDGE('',*,*,#282,.T.);
#211=ORIENTED_EDGE('',*,*,#239,.F.);
#212=ORIENTED_EDGE('',*,*,#281,.T.);
#213=ORIENTED_EDGE('',*,*,#238,.F.);
#214=ORIENTED_EDGE('',*,*,#280,.T.);
#215=ORIENTED_EDGE('',*,*,#237,.F.);
#216=ORIENTED_EDGE('',*,*,#279,.T.);
#217=ORIENTED_EDGE('',*,*,#236,.F.);
#218=ORIENTED_EDGE('',*,*,#278,.T.);
#219=ORIENTED_EDGE('',*,*,#235,.F.);
#220=ORIENTED_EDGE('',*,*,#277,.T.);
#221=ORIENTED_EDGE('',*,*,#234,.F.);
#222=ORIENTED_EDGE('',*,*,#276,.T.);
#223=ORIENTED_EDGE('',*,*,#233,.F.);
#224=ORIENTED_EDGE('',*,*,#275,.T.);
#225=ORIENTED_EDGE('',*,*,#232,.F.);
#226=ORIENTED_EDGE('',*,*,#274,.T.);
#227=ORIENTED_EDGE('',*,*,#231,.F.);
#228=ORIENTED_EDGE('',*,*,#273,.T.);
#229=ORIENTED_EDGE('',*,*,#230,.F.);
#230=EDGE_CURVE('',#295,#295,#345,.T.);
#231=EDGE_CURVE('',#296,#296,#346,.T.);
#232=EDGE_CURVE('',#297,#297,#347,.T.);
#233=EDGE_CURVE('',#298,#298,#348,.T.);
#234=EDGE_CURVE('',#299,#299,#349,.T.);
#235=EDGE_CURVE('',#300,#300,#350,.T.);
#236=EDGE_CURVE('',#301,#301,#351,.T.);
#237=EDGE_CURVE('',#302,#302,#352,.T.);
#238=EDGE_CURVE('',#303,#303,#353,.T.);
#239=EDGE_CURVE('',#304,#304,#354,.T.);
#240=EDGE_CURVE('',#305,#306,#26,.T.);
#241=EDGE_CURVE('',#305,#307,#355,.T.);
#242=EDGE_CURVE('',#307,#308,#27,.T.);
#243=EDGE_CURVE('',#309,#308,#356,.T.);
#244=EDGE_CURVE('',#310,#309,#28,.T.);
#245=EDGE_CURVE('',#311,#310,#29,.T.);
#246=EDGE_CURVE('',#311,#312,#357,.T.);
#247=EDGE_CURVE('',#312,#313,#30,.T.);
#248=EDGE_CURVE('',#306,#313,#358,.T.);
#249=EDGE_CURVE('',#314,#315,#31,.T.);
#250=EDGE_CURVE('',#316,#314,#32,.T.);
#251=EDGE_CURVE('',#317,#316,#33,.T.);
#252=EDGE_CURVE('',#318,#317,#34,.T.);
#253=EDGE_CURVE('',#319,#318,#35,.T.);
#254=EDGE_CURVE('',#315,#319,#36,.T.);
#255=EDGE_CURVE('',#306,#320,#37,.T.);
#256=EDGE_CURVE('',#321,#320,#38,.T.);
#257=EDGE_CURVE('',#321,#305,#39,.F.);
#258=EDGE_CURVE('',#313,#322,#40,.T.);
#259=EDGE_CURVE('',#320,#322,#359,.T.);
#260=EDGE_CURVE('',#312,#323,#41,.T.);
#261=EDGE_CURVE('',#323,#322,#42,.T.);
#262=EDGE_CURVE('',#310,#324,#43,.T.);
#263=EDGE_CURVE('',#325,#324,#44,.T.);
#264=EDGE_CURVE('',#325,#311,#45,.F.);
#265=EDGE_CURVE('',#309,#326,#46,.T.);
#266=EDGE_CURVE('',#324,#326,#47,.T.);
#267=EDGE_CURVE('',#308,#327,#48,.T.);
#268=EDGE_CURVE('',#326,#327,#360,.T.);
#269=EDGE_CURVE('',#307,#328,#49,.T.);
#270=EDGE_CURVE('',#328,#327,#50,.T.);
#271=EDGE_CURVE('',#328,#321,#361,.F.);
#272=EDGE_CURVE('',#323,#325,#362,.F.);
#273=EDGE_CURVE('',#329,#329,#363,.T.);
#274=EDGE_CURVE('',#330,#330,#364,.T.);
#275=EDGE_CURVE('',#331,#331,#365,.T.);
#276=EDGE_CURVE('',#332,#332,#366,.T.);
#277=EDGE_CURVE('',#333,#333,#367,.T.);
#278=EDGE_CURVE('',#334,#334,#368,.T.);
#279=EDGE_CURVE('',#335,#335,#369,.T.);
#280=EDGE_CURVE('',#336,#336,#370,.T.);
#281=EDGE_CURVE('',#337,#337,#371,.T.);
#282=EDGE_CURVE('',#338,#338,#372,.T.);
#283=EDGE_CURVE('',#339,#315,#51,.T.);
#284=EDGE_CURVE('',#340,#339,#52,.T.);
#285=EDGE_CURVE('',#340,#314,#53,.T.);
#286=EDGE_CURVE('',#341,#319,#54,.T.);
#287=EDGE_CURVE('',#339,#341,#55,.T.);
#288=EDGE_CURVE('',#342,#318,#56,.T.);
#289=EDGE_CURVE('',#341,#342,#57,.T.);
#290=EDGE_CURVE('',#343,#317,#58,.T.);
#291=EDGE_CURVE('',#342,#343,#59,.T.);
#292=EDGE_CURVE('',#344,#316,#60,.T.);
#293=EDGE_CURVE('',#343,#344,#61,.T.);
#294=EDGE_CURVE('',#344,#340,#62,.T.);
#295=VERTEX_POINT('',#756);
#296=VERTEX_POINT('',#758);
#297=VERTEX_POINT('',#760);
#298=VERTEX_POINT('',#762);
#299=VERTEX_POINT('',#764);
#300=VERTEX_POINT('',#766);
#301=VERTEX_POINT('',#768);
#302=VERTEX_POINT('',#770);
#303=VERTEX_POINT('',#772);
#304=VERTEX_POINT('',#774);
#305=VERTEX_POINT('',#776);
#306=VERTEX_POINT('',#777);
#307=VERTEX_POINT('',#779);
#308=VERTEX_POINT('',#781);
#309=VERTEX_POINT('',#783);
#310=VERTEX_POINT('',#785);
#311=VERTEX_POINT('',#787);
#312=VERTEX_POINT('',#789);
#313=VERTEX_POINT('',#791);
#314=VERTEX_POINT('',#794);
#315=VERTEX_POINT('',#795);
#316=VERTEX_POINT('',#797);
#317=VERTEX_POINT('',#799);
#318=VERTEX_POINT('',#801);
#319=VERTEX_POINT('',#803);
#320=VERTEX_POINT('',#807);
#321=VERTEX_POINT('',#809);
#322=VERTEX_POINT('',#813);
#323=VERTEX_POINT('',#817);
#324=VERTEX_POINT('',#821);
#325=VERTEX_POINT('',#823);
#326=VERTEX_POINT('',#827);
#327=VERTEX_POINT('',#831);
#328=VERTEX_POINT('',#835);
#329=VERTEX_POINT('',#843);
#330=VERTEX_POINT('',#845);
#331=VERTEX_POINT('',#847);
#332=VERTEX_POINT('',#849);
#333=VERTEX_POINT('',#851);
#334=VERTEX_POINT('',#853);
#335=VERTEX_POINT('',#855);
#336=VERTEX_POINT('',#857);
#337=VERTEX_POINT('',#859);
#338=VERTEX_POINT('',#861);
#339=VERTEX_POINT('',#864);
#340=VERTEX_POINT('',#866);
#341=VERTEX_POINT('',#870);
#342=VERTEX_POINT('',#874);
#343=VERTEX_POINT('',#878);
#344=VERTEX_POINT('',#882);
#345=CIRCLE('',#547,0.00075);
#346=CIRCLE('',#548,0.00075);
#347=CIRCLE('',#549,0.00075);
#348=CIRCLE('',#550,0.00075);
#349=CIRCLE('',#551,0.00075);
#350=CIRCLE('',#552,0.00075);
#351=CIRCLE('',#553,0.00075);
#352=CIRCLE('',#554,0.00075);
#353=CIRCLE('',#555,0.00075);
#354=CIRCLE('',#556,0.00075);
#355=CIRCLE('',#557,0.01);
#356=CIRCLE('',#558,0.0105000000000003);
#357=CIRCLE('',#559,0.01);
#358=CIRCLE('',#560,0.00400000000000191);
#359=CIRCLE('',#563,0.00400000000000191);
#360=CIRCLE('',#568,0.0105000000000003);
#361=CIRCLE('',#571,0.01);
#362=CIRCLE('',#573,0.01);
#363=CIRCLE('',#575,0.00075);
#364=CIRCLE('',#576,0.00075);
#365=CIRCLE('',#577,0.00075);
#366=CIRCLE('',#578,0.00075);
#367=CIRCLE('',#579,0.00075);
#368=CIRCLE('',#580,0.00075);
#369=CIRCLE('',#581,0.00075);
#370=CIRCLE('',#582,0.00075);
#371=CIRCLE('',#583,0.00075);
#372=CIRCLE('',#584,0.00075);
#373=EDGE_LOOP('',(#100));
#374=EDGE_LOOP('',(#101));
#375=EDGE_LOOP('',(#102));
#376=EDGE_LOOP('',(#103));
#377=EDGE_LOOP('',(#104));
#378=EDGE_LOOP('',(#105));
#379=EDGE_LOOP('',(#106));
#380=EDGE_LOOP('',(#107));
#381=EDGE_LOOP('',(#108));
#382=EDGE_LOOP('',(#109));
#383=EDGE_LOOP('',(#110,#111,#112,#113,#114,#115,#116,#117,#118));
#384=EDGE_LOOP('',(#119,#120,#121,#122,#123,#124));
#385=EDGE_LOOP('',(#125,#126,#127,#128));
#386=EDGE_LOOP('',(#129,#130,#131,#132));
#387=EDGE_LOOP('',(#133,#134,#135,#136));
#388=EDGE_LOOP('',(#137,#138,#139,#140));
#389=EDGE_LOOP('',(#141,#142,#143,#144));
#390=EDGE_LOOP('',(#145,#146,#147,#148));
#391=EDGE_LOOP('',(#149,#150,#151,#152));
#392=EDGE_LOOP('',(#153,#154,#155,#156));
#393=EDGE_LOOP('',(#157,#158,#159,#160));
#394=EDGE_LOOP('',(#161));
#395=EDGE_LOOP('',(#162));
#396=EDGE_LOOP('',(#163));
#397=EDGE_LOOP('',(#164));
#398=EDGE_LOOP('',(#165));
#399=EDGE_LOOP('',(#166));
#400=EDGE_LOOP('',(#167));
#401=EDGE_LOOP('',(#168));
#402=EDGE_LOOP('',(#169));
#403=EDGE_LOOP('',(#170));
#404=EDGE_LOOP('',(#171,#172,#173,#174,#175,#176,#177,#178,#179));
#405=EDGE_LOOP('',(#180,#181,#182,#183));
#406=EDGE_LOOP('',(#184,#185,#186,#187));
#407=EDGE_LOOP('',(#188,#189,#190,#191));
#408=EDGE_LOOP('',(#192,#193,#194,#195));
#409=EDGE_LOOP('',(#196,#197,#198,#199));
#410=EDGE_LOOP('',(#200,#201,#202,#203));
#411=EDGE_LOOP('',(#204,#205,#206,#207,#208,#209));
#412=EDGE_LOOP('',(#210));
#413=EDGE_LOOP('',(#211));
#414=EDGE_LOOP('',(#212));
#415=EDGE_LOOP('',(#213));
#416=EDGE_LOOP('',(#214));
#417=EDGE_LOOP('',(#215));
#418=EDGE_LOOP('',(#216));
#419=EDGE_LOOP('',(#217));
#420=EDGE_LOOP('',(#218));
#421=EDGE_LOOP('',(#219));
#422=EDGE_LOOP('',(#220));
#423=EDGE_LOOP('',(#221));
#424=EDGE_LOOP('',(#222));
#425=EDGE_LOOP('',(#223));
#426=EDGE_LOOP('',(#224));
#427=EDGE_LOOP('',(#225));
#428=EDGE_LOOP('',(#226));
#429=EDGE_LOOP('',(#227));
#430=EDGE_LOOP('',(#228));
#431=EDGE_LOOP('',(#229));
#432=FACE_BOUND('',#373,.T.);
#433=FACE_BOUND('',#374,.T.);
#434=FACE_BOUND('',#375,.T.);
#435=FACE_BOUND('',#376,.T.);
#436=FACE_BOUND('',#377,.T.);
#437=FACE_BOUND('',#378,.T.);
#438=FACE_BOUND('',#379,.T.);
#439=FACE_BOUND('',#380,.T.);
#440=FACE_BOUND('',#381,.T.);
#441=FACE_BOUND('',#382,.T.);
#442=FACE_BOUND('',#383,.T.);
#443=FACE_BOUND('',#384,.T.);
#444=FACE_BOUND('',#385,.T.);
#445=FACE_BOUND('',#386,.T.);
#446=FACE_BOUND('',#387,.T.);
#447=FACE_BOUND('',#388,.T.);
#448=FACE_BOUND('',#389,.T.);
#449=FACE_BOUND('',#390,.T.);
#450=FACE_BOUND('',#391,.T.);
#451=FACE_BOUND('',#392,.T.);
#452=FACE_BOUND('',#393,.T.);
#453=FACE_BOUND('',#394,.T.);
#454=FACE_BOUND('',#395,.T.);
#455=FACE_BOUND('',#396,.T.);
#456=FACE_BOUND('',#397,.T.);
#457=FACE_BOUND('',#398,.T.);
#458=FACE_BOUND('',#399,.T.);
#459=FACE_BOUND('',#400,.T.);
#460=FACE_BOUND('',#401,.T.);
#461=FACE_BOUND('',#402,.T.);
#462=FACE_BOUND('',#403,.T.);
#463=FACE_BOUND('',#404,.T.);
#464=FACE_BOUND('',#405,.T.);
#465=FACE_BOUND('',#406,.T.);
#466=FACE_BOUND('',#407,.T.);
#467=FACE_BOUND('',#408,.T.);
#468=FACE_BOUND('',#409,.T.);
#469=FACE_BOUND('',#410,.T.);
#470=FACE_BOUND('',#411,.T.);
#471=FACE_BOUND('',#412,.T.);
#472=FACE_BOUND('',#413,.T.);
#473=FACE_BOUND('',#414,.T.);
#474=FACE_BOUND('',#415,.T.);
#475=FACE_BOUND('',#416,.T.);
#476=FACE_BOUND('',#417,.T.);
#477=FACE_BOUND('',#418,.T.);
#478=FACE_BOUND('',#419,.T.);
#479=FACE_BOUND('',#420,.T.);
#480=FACE_BOUND('',#421,.T.);
#481=FACE_BOUND('',#422,.T.);
#482=FACE_BOUND('',#423,.T.);
#483=FACE_BOUND('',#424,.T.);
#484=FACE_BOUND('',#425,.T.);
#485=FACE_BOUND('',#426,.T.);
#486=FACE_BOUND('',#427,.T.);
#487=FACE_BOUND('',#428,.T.);
#488=FACE_BOUND('',#429,.T.);
#489=FACE_BOUND('',#430,.T.);
#490=FACE_BOUND('',#431,.T.);
#491=PLANE('',#546);
#492=PLANE('',#561);
#493=PLANE('',#564);
#494=PLANE('',#565);
#495=PLANE('',#566);
#496=PLANE('',#569);
#497=PLANE('',#574);
#498=PLANE('',#585);
#499=PLANE('',#586);
#500=PLANE('',#587);
#501=PLANE('',#588);
#502=PLANE('',#589);
#503=PLANE('',#590);
#504=PLANE('',#591);
#505=ADVANCED_FACE('',(#432,#433,#434,#435,#436,#437,#438,#439,#440,#441,
#442,#443),#491,.F.);
#506=ADVANCED_FACE('',(#444),#492,.T.);
#507=ADVANCED_FACE('',(#445),#12,.T.);
#508=ADVANCED_FACE('',(#446),#493,.F.);
#509=ADVANCED_FACE('',(#447),#494,.T.);
#510=ADVANCED_FACE('',(#448),#495,.T.);
#511=ADVANCED_FACE('',(#449),#13,.T.);
#512=ADVANCED_FACE('',(#450),#496,.F.);
#513=ADVANCED_FACE('',(#451),#14,.F.);
#514=ADVANCED_FACE('',(#452),#15,.F.);
#515=ADVANCED_FACE('',(#453,#454,#455,#456,#457,#458,#459,#460,#461,#462,
#463),#497,.T.);
#516=ADVANCED_FACE('',(#464),#498,.F.);
#517=ADVANCED_FACE('',(#465),#499,.F.);
#518=ADVANCED_FACE('',(#466),#500,.F.);
#519=ADVANCED_FACE('',(#467),#501,.F.);
#520=ADVANCED_FACE('',(#468),#502,.F.);
#521=ADVANCED_FACE('',(#469),#503,.F.);
#522=ADVANCED_FACE('',(#470),#504,.T.);
#523=ADVANCED_FACE('',(#471,#472),#16,.F.);
#524=ADVANCED_FACE('',(#473,#474),#17,.F.);
#525=ADVANCED_FACE('',(#475,#476),#18,.F.);
#526=ADVANCED_FACE('',(#477,#478),#19,.F.);
#527=ADVANCED_FACE('',(#479,#480),#20,.F.);
#528=ADVANCED_FACE('',(#481,#482),#21,.F.);
#529=ADVANCED_FACE('',(#483,#484),#22,.F.);
#530=ADVANCED_FACE('',(#485,#486),#23,.F.);
#531=ADVANCED_FACE('',(#487,#488),#24,.F.);
#532=ADVANCED_FACE('',(#489,#490),#25,.F.);
#533=CLOSED_SHELL('',(#505,#506,#507,#508,#509,#510,#511,#512,#513,#514,
#515,#516,#517,#518,#519,#520,#521,#522,#523,#524,#525,#526,#527,#528,#529,
#530,#531,#532));
#534=STYLED_ITEM('',(#535),#542);
#535=PRESENTATION_STYLE_ASSIGNMENT((#536));
#536=SURFACE_STYLE_USAGE(.BOTH.,#537);
#537=SURFACE_SIDE_STYLE('',(#538));
#538=SURFACE_STYLE_FILL_AREA(#539);
#539=FILL_AREA_STYLE('',(#540));
#540=FILL_AREA_STYLE_COLOUR('',#541);
#541=COLOUR_RGB('',0.498039215686275,0.498039215686275,0.498039215686275);
#542=MANIFOLD_SOLID_BREP('btrshftr C1-C2 Shifter',#533);
#543=SHAPE_DEFINITION_REPRESENTATION(#903,#544);
#544=SHAPE_REPRESENTATION('btrshftr C1-C2 Shifter',(#545),#898);
#545=AXIS2_PLACEMENT_3D('',#753,#602,#603);
#546=AXIS2_PLACEMENT_3D('',#754,#604,#605);
#547=AXIS2_PLACEMENT_3D('',#755,#606,#607);
#548=AXIS2_PLACEMENT_3D('',#757,#608,#609);
#549=AXIS2_PLACEMENT_3D('',#759,#610,#611);
#550=AXIS2_PLACEMENT_3D('',#761,#612,#613);
#551=AXIS2_PLACEMENT_3D('',#763,#614,#615);
#552=AXIS2_PLACEMENT_3D('',#765,#616,#617);
#553=AXIS2_PLACEMENT_3D('',#767,#618,#619);
#554=AXIS2_PLACEMENT_3D('',#769,#620,#621);
#555=AXIS2_PLACEMENT_3D('',#771,#622,#623);
#556=AXIS2_PLACEMENT_3D('',#773,#624,#625);
#557=AXIS2_PLACEMENT_3D('',#778,#627,#628);
#558=AXIS2_PLACEMENT_3D('',#782,#630,#631);
#559=AXIS2_PLACEMENT_3D('',#788,#634,#635);
#560=AXIS2_PLACEMENT_3D('',#792,#637,#638);
#561=AXIS2_PLACEMENT_3D('',#805,#645,#646);
#562=AXIS2_PLACEMENT_3D('',#811,#650,#651);
#563=AXIS2_PLACEMENT_3D('',#814,#653,#654);
#564=AXIS2_PLACEMENT_3D('',#815,#655,#656);
#565=AXIS2_PLACEMENT_3D('',#819,#659,#660);
#566=AXIS2_PLACEMENT_3D('',#825,#664,#665);
#567=AXIS2_PLACEMENT_3D('',#829,#668,#669);
#568=AXIS2_PLACEMENT_3D('',#832,#671,#672);
#569=AXIS2_PLACEMENT_3D('',#833,#673,#674);
#570=AXIS2_PLACEMENT_3D('',#837,#677,#678);
#571=AXIS2_PLACEMENT_3D('',#838,#679,#680);
#572=AXIS2_PLACEMENT_3D('',#839,#681,#682);
#573=AXIS2_PLACEMENT_3D('',#840,#683,#684);
#574=AXIS2_PLACEMENT_3D('',#841,#685,#686);
#575=AXIS2_PLACEMENT_3D('',#842,#687,#688);
#576=AXIS2_PLACEMENT_3D('',#844,#689,#690);
#577=AXIS2_PLACEMENT_3D('',#846,#691,#692);
#578=AXIS2_PLACEMENT_3D('',#848,#693,#694);
#579=AXIS2_PLACEMENT_3D('',#850,#695,#696);
#580=AXIS2_PLACEMENT_3D('',#852,#697,#698);
#581=AXIS2_PLACEMENT_3D('',#854,#699,#700);
#582=AXIS2_PLACEMENT_3D('',#856,#701,#702);
#583=AXIS2_PLACEMENT_3D('',#858,#703,#704);
#584=AXIS2_PLACEMENT_3D('',#860,#705,#706);
#585=AXIS2_PLACEMENT_3D('',#862,#707,#708);
#586=AXIS2_PLACEMENT_3D('',#868,#712,#713);
#587=AXIS2_PLACEMENT_3D('',#872,#716,#717);
#588=AXIS2_PLACEMENT_3D('',#876,#720,#721);
#589=AXIS2_PLACEMENT_3D('',#880,#724,#725);
#590=AXIS2_PLACEMENT_3D('',#884,#728,#729);
#591=AXIS2_PLACEMENT_3D('',#886,#731,#732);
#592=AXIS2_PLACEMENT_3D('',#887,#733,#734);
#593=AXIS2_PLACEMENT_3D('',#888,#735,#736);
#594=AXIS2_PLACEMENT_3D('',#889,#737,#738);
#595=AXIS2_PLACEMENT_3D('',#890,#739,#740);
#596=AXIS2_PLACEMENT_3D('',#891,#741,#742);
#597=AXIS2_PLACEMENT_3D('',#892,#743,#744);
#598=AXIS2_PLACEMENT_3D('',#893,#745,#746);
#599=AXIS2_PLACEMENT_3D('',#894,#747,#748);
#600=AXIS2_PLACEMENT_3D('',#895,#749,#750);
#601=AXIS2_PLACEMENT_3D('',#896,#751,#752);
#602=DIRECTION('',(0.,0.,1.));
#603=DIRECTION('',(1.,0.,0.));
#604=DIRECTION('',(1.,0.,0.));
#605=DIRECTION('',(0.,1.,0.));
#606=DIRECTION('',(1.,0.,0.));
#607=DIRECTION('',(0.,0.,-1.));
#608=DIRECTION('',(1.,0.,0.));
#609=DIRECTION('',(0.,0.,-1.));
#610=DIRECTION('',(1.,0.,0.));
#611=DIRECTION('',(0.,0.,-1.));
#612=DIRECTION('',(1.,0.,0.));
#613=DIRECTION('',(0.,0.,-1.));
#614=DIRECTION('',(1.,0.,0.));
#615=DIRECTION('',(0.,0.,-1.));
#616=DIRECTION('',(1.,0.,0.));
#617=DIRECTION('',(0.,0.,-1.));
#618=DIRECTION('',(1.,0.,0.));
#619=DIRECTION('',(0.,0.,-1.));
#620=DIRECTION('',(1.,0.,0.));
#621=DIRECTION('',(0.,0.,-1.));
#622=DIRECTION('',(1.,0.,0.));
#623=DIRECTION('',(0.,0.,-1.));
#624=DIRECTION('',(1.,0.,0.));
#625=DIRECTION('',(0.,0.,-1.));
#626=DIRECTION('',(0.,-0.496017930031298,-0.8683122785539));
#627=DIRECTION('',(1.,0.,0.));
#628=DIRECTION('',(0.,0.,-1.));
#629=DIRECTION('',(0.,-0.203332757778166,0.979109692329887));
#630=DIRECTION('',(1.,0.,0.));
#631=DIRECTION('',(0.,0.,-1.));
#632=DIRECTION('',(0.,-1.,0.));
#633=DIRECTION('',(0.,0.640168759135972,0.768234313101355));
#634=DIRECTION('',(1.,0.,0.));
#635=DIRECTION('',(0.,0.,-1.));
#636=DIRECTION('',(0.,0.0290453365904863,-0.999578095209346));
#637=DIRECTION('',(1.,0.,0.));
#638=DIRECTION('',(0.,0.,-1.));
#639=DIRECTION('',(0.,-0.866025403784435,0.500000000000007));
#640=DIRECTION('',(0.,-0.866025403784443,-0.499999999999993));
#641=DIRECTION('',(0.,-1.41394315175263E-14,-1.));
#642=DIRECTION('',(0.,0.866025403784435,-0.500000000000007));
#643=DIRECTION('',(0.,0.866025403784442,0.499999999999994));
#644=DIRECTION('',(0.,1.41394315175262E-14,1.));
#645=DIRECTION('',(0.,-0.8683122785539,0.496017930031298));
#646=DIRECTION('',(0.,-0.496017930031298,-0.8683122785539));
#647=DIRECTION('',(1.,0.,0.));
#648=DIRECTION('',(0.,-0.496017930031298,-0.8683122785539));
#649=DIRECTION('',(1.,0.,0.));
#650=DIRECTION('',(1.,0.,0.));
#651=DIRECTION('',(0.,0.,-1.));
#652=DIRECTION('',(1.,0.,0.));
#653=DIRECTION('',(1.,0.,0.));
#654=DIRECTION('',(0.,0.,-1.));
#655=DIRECTION('',(0.,-0.999578095209347,-0.0290453365904863));
#656=DIRECTION('',(0.,0.0290453365904863,-0.999578095209347));
#657=DIRECTION('',(1.,0.,0.));
#658=DIRECTION('',(0.,0.0290453365904863,-0.999578095209346));
#659=DIRECTION('',(0.,0.768234313101355,-0.640168759135972));
#660=DIRECTION('',(0.,0.640168759135972,0.768234313101355));
#661=DIRECTION('',(1.,0.,0.));
#662=DIRECTION('',(0.,0.640168759135972,0.768234313101355));
#663=DIRECTION('',(1.,0.,0.));
#664=DIRECTION('',(0.,0.,1.));
#665=DIRECTION('',(1.,0.,0.));
#666=DIRECTION('',(1.,0.,0.));
#667=DIRECTION('',(0.,-1.,0.));
#668=DIRECTION('',(1.,0.,0.));
#669=DIRECTION('',(0.,0.,-1.));
#670=DIRECTION('',(1.,0.,0.));
#671=DIRECTION('',(1.,0.,0.));
#672=DIRECTION('',(0.,0.,-1.));
#673=DIRECTION('',(0.,0.979109692329887,0.203332757778166));
#674=DIRECTION('',(0.,-0.203332757778166,0.979109692329887));
#675=DIRECTION('',(1.,0.,0.));
#676=DIRECTION('',(0.,-0.203332757778166,0.979109692329887));
#677=DIRECTION('',(1.,0.,0.));
#678=DIRECTION('',(0.,0.,-1.));
#679=DIRECTION('',(1.,0.,0.));
#680=DIRECTION('',(0.,0.,-1.));
#681=DIRECTION('',(1.,0.,0.));
#682=DIRECTION('',(0.,0.,-1.));
#683=DIRECTION('',(1.,0.,0.));
#684=DIRECTION('',(0.,0.,-1.));
#685=DIRECTION('',(1.,0.,0.));
#686=DIRECTION('',(0.,1.,0.));
#687=DIRECTION('',(1.,0.,0.));
#688=DIRECTION('',(0.,0.,-1.));
#689=DIRECTION('',(1.,0.,0.));
#690=DIRECTION('',(0.,0.,-1.));
#691=DIRECTION('',(1.,0.,0.));
#692=DIRECTION('',(0.,0.,-1.));
#693=DIRECTION('',(1.,0.,0.));
#694=DIRECTION('',(0.,0.,-1.));
#695=DIRECTION('',(1.,0.,0.));
#696=DIRECTION('',(0.,0.,-1.));
#697=DIRECTION('',(1.,0.,0.));
#698=DIRECTION('',(0.,0.,-1.));
#699=DIRECTION('',(1.,0.,0.));
#700=DIRECTION('',(0.,0.,-1.));
#701=DIRECTION('',(1.,0.,0.));
#702=DIRECTION('',(0.,0.,-1.));
#703=DIRECTION('',(1.,0.,0.));
#704=DIRECTION('',(0.,0.,-1.));
#705=DIRECTION('',(1.,0.,0.));
#706=DIRECTION('',(0.,0.,-1.));
#707=DIRECTION('',(0.,0.500000000000007,0.866025403784435));
#708=DIRECTION('',(0.,-0.866025403784435,0.500000000000007));
#709=DIRECTION('',(1.,0.,0.));
#710=DIRECTION('',(0.,-0.866025403784435,0.500000000000007));
#711=DIRECTION('',(1.,0.,0.));
#712=DIRECTION('',(0.,1.,-1.41394315175262E-14));
#713=DIRECTION('',(0.,1.41394315175262E-14,1.));
#714=DIRECTION('',(1.,0.,0.));
#715=DIRECTION('',(0.,1.41394315175262E-14,1.));
#716=DIRECTION('',(0.,0.499999999999994,-0.866025403784442));
#717=DIRECTION('',(0.,0.866025403784442,0.499999999999994));
#718=DIRECTION('',(1.,0.,0.));
#719=DIRECTION('',(0.,0.866025403784442,0.499999999999994));
#720=DIRECTION('',(0.,-0.500000000000007,-0.866025403784435));
#721=DIRECTION('',(0.,0.866025403784435,-0.500000000000007));
#722=DIRECTION('',(1.,0.,0.));
#723=DIRECTION('',(0.,0.866025403784435,-0.500000000000007));
#724=DIRECTION('',(0.,-1.,1.41394315175263E-14));
#725=DIRECTION('',(0.,-1.41394315175263E-14,-1.));
#726=DIRECTION('',(1.,0.,0.));
#727=DIRECTION('',(0.,-1.41394315175263E-14,-1.));
#728=DIRECTION('',(0.,-0.499999999999993,0.866025403784443));
#729=DIRECTION('',(0.,-0.866025403784443,-0.499999999999993));
#730=DIRECTION('',(0.,-0.866025403784443,-0.499999999999993));
#731=DIRECTION('',(-1.,0.,0.));
#732=DIRECTION('',(0.,-1.,0.));
#733=DIRECTION('',(1.,0.,0.));
#734=DIRECTION('',(0.,0.,-1.));
#735=DIRECTION('',(1.,0.,0.));
#736=DIRECTION('',(0.,0.,-1.));
#737=DIRECTION('',(1.,0.,0.));
#738=DIRECTION('',(0.,0.,-1.));
#739=DIRECTION('',(1.,0.,0.));
#740=DIRECTION('',(0.,0.,-1.));
#741=DIRECTION('',(1.,0.,0.));
#742=DIRECTION('',(0.,0.,-1.));
#743=DIRECTION('',(1.,0.,0.));
#744=DIRECTION('',(0.,0.,-1.));
#745=DIRECTION('',(1.,0.,0.));
#746=DIRECTION('',(0.,0.,-1.));
#747=DIRECTION('',(1.,0.,0.));
#748=DIRECTION('',(0.,0.,-1.));
#749=DIRECTION('',(1.,0.,0.));
#750=DIRECTION('',(0.,0.,-1.));
#751=DIRECTION('',(1.,0.,0.));
#752=DIRECTION('',(0.,0.,-1.));
#753=CARTESIAN_POINT('',(0.,0.,0.));
#754=CARTESIAN_POINT('',(-0.005,0.104271419763565,0.067500147074461));
#755=CARTESIAN_POINT('',(-0.005,0.157523574763565,0.0716001470744608));
#756=CARTESIAN_POINT('',(-0.005,0.157523574763565,0.0708501470744608));
#757=CARTESIAN_POINT('',(-0.005,0.161371419763565,0.0677523020744607));
#758=CARTESIAN_POINT('',(-0.005,0.161371419763565,0.0670023020744607));
#759=CARTESIAN_POINT('',(-0.005,0.164771419763565,0.0677523020744607));
#760=CARTESIAN_POINT('',(-0.005,0.164771419763565,0.0670023020744607));
#761=CARTESIAN_POINT('',(-0.005,0.168171419763565,0.0677523020744606));
#762=CARTESIAN_POINT('',(-0.005,0.168171419763565,0.0670023020744606));
#763=CARTESIAN_POINT('',(-0.005,0.172019264763565,0.0716001470744605));
#764=CARTESIAN_POINT('',(-0.005,0.172019264763565,0.0708501470744605));
#765=CARTESIAN_POINT('',(-0.005,0.172019264763565,0.0784001470744604));
#766=CARTESIAN_POINT('',(-0.005,0.172019264763565,0.0776501470744604));
#767=CARTESIAN_POINT('',(-0.005,0.168171419763565,0.0822479920744606));
#768=CARTESIAN_POINT('',(-0.005,0.168171419763565,0.0814979920744606));
#769=CARTESIAN_POINT('',(-0.005,0.164771419763565,0.0822479920744607));
#770=CARTESIAN_POINT('',(-0.005,0.164771419763565,0.0814979920744607));
#771=CARTESIAN_POINT('',(-0.005,0.157523574763565,0.0784001470744608));
#772=CARTESIAN_POINT('',(-0.005,0.157523574763565,0.0776501470744608));
#773=CARTESIAN_POINT('',(-0.005,0.161371419763565,0.0822479920744607));
#774=CARTESIAN_POINT('',(-0.005,0.161371419763565,0.0814979920744607));
#775=CARTESIAN_POINT('',(-0.005,0.15683053100634,0.0555995547476578));
#776=CARTESIAN_POINT('',(-0.005,0.155866482275287,0.0539119235157713));
#777=CARTESIAN_POINT('',(-0.005,0.155268313149495,0.0528647887951675));
#778=CARTESIAN_POINT('',(-0.005,0.147183359489749,0.0588721028160843));
#779=CARTESIAN_POINT('',(-0.005,0.156974456413047,0.060905430393866));
#780=CARTESIAN_POINT('',(-0.005,0.154888459348811,0.070950147074461));
#781=CARTESIAN_POINT('',(-0.005,0.154490767994101,0.0728651531177903));
#782=CARTESIAN_POINT('',(-0.005,0.164771419763565,0.0750001470744607));
#783=CARTESIAN_POINT('',(-0.005,0.172685963338529,0.068100147074461));
#784=CARTESIAN_POINT('',(-0.005,0.172687663090215,0.068100147074461));
#785=CARTESIAN_POINT('',(-0.005,0.172689362841902,0.068100147074461));
#786=CARTESIAN_POINT('',(-0.005,0.16635051576708,0.0604932156850669));
#787=CARTESIAN_POINT('',(-0.005,0.165018285458447,0.0588944731325158));
#788=CARTESIAN_POINT('',(-0.005,0.172700628589461,0.0524927855411561));
#789=CARTESIAN_POINT('',(-0.005,0.162704847637368,0.0522023321752513));
#790=CARTESIAN_POINT('',(-0.005,0.162623751271495,0.0549932156850669));
#791=CARTESIAN_POINT('',(-0.005,0.162739874644548,0.0509968984214043));
#792=CARTESIAN_POINT('',(-0.005,0.158741562263711,0.0508807170750442));
#793=CARTESIAN_POINT('',(-0.005,0.163071419763565,0.0720556607015936));
#794=CARTESIAN_POINT('',(-0.005,0.164771419763565,0.0710741652439712));
#795=CARTESIAN_POINT('',(-0.005,0.161371419763565,0.0730371561592159));
#796=CARTESIAN_POINT('',(-0.005,0.166471419763565,0.0720556607015936));
#797=CARTESIAN_POINT('',(-0.005,0.168171419763565,0.073037156159216));
#798=CARTESIAN_POINT('',(-0.005,0.168171419763565,0.0750001470744607));
#799=CARTESIAN_POINT('',(-0.005,0.168171419763565,0.0769631379897054));
#800=CARTESIAN_POINT('',(-0.005,0.166471419763565,0.0779446334473278));
#801=CARTESIAN_POINT('',(-0.005,0.164771419763565,0.0789261289049501));
#802=CARTESIAN_POINT('',(-0.005,0.163071419763565,0.0779446334473278));
#803=CARTESIAN_POINT('',(-0.005,0.161371419763565,0.0769631379897055));
#804=CARTESIAN_POINT('',(-0.005,0.161371419763565,0.0750001470744607));
#805=CARTESIAN_POINT('',(-0.005,0.15683053100634,0.0555995547476578));
#806=CARTESIAN_POINT('',(-0.005,0.155268313149495,0.0528647887951675));
#807=CARTESIAN_POINT('',(0.005,0.155268313149495,0.0528647887951675));
#808=CARTESIAN_POINT('',(0.005,0.15683053100634,0.0555995547476578));
#809=CARTESIAN_POINT('',(0.005,0.155866482275287,0.0539119235157713));
#810=CARTESIAN_POINT('',(-0.005,0.155866482275287,0.0539119235157713));
#811=CARTESIAN_POINT('',(-0.005,0.158741562263711,0.0508807170750442));
#812=CARTESIAN_POINT('',(-0.005,0.162739874644548,0.0509968984214043));
#813=CARTESIAN_POINT('',(0.005,0.162739874644548,0.0509968984214043));
#814=CARTESIAN_POINT('',(0.005,0.158741562263711,0.0508807170750442));
#815=CARTESIAN_POINT('',(-0.005,0.162623751271495,0.0549932156850669));
#816=CARTESIAN_POINT('',(-0.005,0.162704847637368,0.0522023321752513));
#817=CARTESIAN_POINT('',(0.005,0.162704847637368,0.0522023321752513));
#818=CARTESIAN_POINT('',(0.005,0.162623751271495,0.0549932156850669));
#819=CARTESIAN_POINT('',(-0.005,0.16635051576708,0.0604932156850669));
#820=CARTESIAN_POINT('',(-0.005,0.172689362841902,0.068100147074461));
#821=CARTESIAN_POINT('',(0.005,0.172689362841902,0.068100147074461));
#822=CARTESIAN_POINT('',(0.005,0.16635051576708,0.0604932156850669));
#823=CARTESIAN_POINT('',(0.005,0.165018285458447,0.0588944731325158));
#824=CARTESIAN_POINT('',(-0.005,0.165018285458447,0.0588944731325158));
#825=CARTESIAN_POINT('',(-0.005,0.172687663090215,0.068100147074461));
#826=CARTESIAN_POINT('',(-0.005,0.172685963338529,0.068100147074461));
#827=CARTESIAN_POINT('',(0.005,0.172685963338529,0.068100147074461));
#828=CARTESIAN_POINT('',(0.005,0.172687663090215,0.068100147074461));
#829=CARTESIAN_POINT('',(-0.005,0.164771419763565,0.0750001470744607));
#830=CARTESIAN_POINT('',(-0.005,0.154490767994101,0.0728651531177903));
#831=CARTESIAN_POINT('',(0.005,0.154490767994101,0.0728651531177903));
#832=CARTESIAN_POINT('',(0.005,0.164771419763565,0.0750001470744607));
#833=CARTESIAN_POINT('',(-0.005,0.154888459348811,0.070950147074461));
#834=CARTESIAN_POINT('',(-0.005,0.156974456413047,0.060905430393866));
#835=CARTESIAN_POINT('',(0.005,0.156974456413047,0.060905430393866));
#836=CARTESIAN_POINT('',(0.005,0.154888459348811,0.070950147074461));
#837=CARTESIAN_POINT('',(-0.005,0.147183359489749,0.0588721028160843));
#838=CARTESIAN_POINT('',(0.005,0.147183359489749,0.0588721028160843));
#839=CARTESIAN_POINT('',(-0.005,0.172700628589461,0.0524927855411561));
#840=CARTESIAN_POINT('',(0.005,0.172700628589461,0.0524927855411561));
#841=CARTESIAN_POINT('',(0.005,0.104271419763565,0.067500147074461));
#842=CARTESIAN_POINT('',(0.005,0.157523574763565,0.0716001470744608));
#843=CARTESIAN_POINT('',(0.005,0.157523574763565,0.0708501470744608));
#844=CARTESIAN_POINT('',(0.005,0.161371419763565,0.0677523020744607));
#845=CARTESIAN_POINT('',(0.005,0.161371419763565,0.0670023020744607));
#846=CARTESIAN_POINT('',(0.005,0.164771419763565,0.0677523020744607));
#847=CARTESIAN_POINT('',(0.005,0.164771419763565,0.0670023020744607));
#848=CARTESIAN_POINT('',(0.005,0.168171419763565,0.0677523020744606));
#849=CARTESIAN_POINT('',(0.005,0.168171419763565,0.0670023020744606));
#850=CARTESIAN_POINT('',(0.005,0.172019264763565,0.0716001470744605));
#851=CARTESIAN_POINT('',(0.005,0.172019264763565,0.0708501470744605));
#852=CARTESIAN_POINT('',(0.005,0.172019264763565,0.0784001470744604));
#853=CARTESIAN_POINT('',(0.005,0.172019264763565,0.0776501470744604));
#854=CARTESIAN_POINT('',(0.005,0.168171419763565,0.0822479920744606));
#855=CARTESIAN_POINT('',(0.005,0.168171419763565,0.0814979920744606));
#856=CARTESIAN_POINT('',(0.005,0.164771419763565,0.0822479920744607));
#857=CARTESIAN_POINT('',(0.005,0.164771419763565,0.0814979920744607));
#858=CARTESIAN_POINT('',(0.005,0.157523574763565,0.0784001470744608));
#859=CARTESIAN_POINT('',(0.005,0.157523574763565,0.0776501470744608));
#860=CARTESIAN_POINT('',(0.005,0.161371419763565,0.0822479920744607));
#861=CARTESIAN_POINT('',(0.005,0.161371419763565,0.0814979920744607));
#862=CARTESIAN_POINT('',(-0.01,0.163071419763565,0.0720556607015936));
#863=CARTESIAN_POINT('',(-0.01,0.161371419763565,0.0730371561592159));
#864=CARTESIAN_POINT('',(-0.01,0.161371419763565,0.0730371561592159));
#865=CARTESIAN_POINT('',(-0.01,0.163071419763565,0.0720556607015936));
#866=CARTESIAN_POINT('',(-0.01,0.164771419763565,0.0710741652439712));
#867=CARTESIAN_POINT('',(-0.01,0.164771419763565,0.0710741652439712));
#868=CARTESIAN_POINT('',(-0.01,0.161371419763565,0.0750001470744607));
#869=CARTESIAN_POINT('',(-0.01,0.161371419763565,0.0769631379897055));
#870=CARTESIAN_POINT('',(-0.01,0.161371419763565,0.0769631379897055));
#871=CARTESIAN_POINT('',(-0.01,0.161371419763565,0.0750001470744607));
#872=CARTESIAN_POINT('',(-0.01,0.163071419763565,0.0779446334473278));
#873=CARTESIAN_POINT('',(-0.01,0.164771419763565,0.0789261289049501));
#874=CARTESIAN_POINT('',(-0.01,0.164771419763565,0.0789261289049501));
#875=CARTESIAN_POINT('',(-0.01,0.163071419763565,0.0779446334473278));
#876=CARTESIAN_POINT('',(-0.01,0.166471419763565,0.0779446334473278));
#877=CARTESIAN_POINT('',(-0.01,0.168171419763565,0.0769631379897054));
#878=CARTESIAN_POINT('',(-0.01,0.168171419763565,0.0769631379897054));
#879=CARTESIAN_POINT('',(-0.01,0.166471419763565,0.0779446334473278));
#880=CARTESIAN_POINT('',(-0.01,0.168171419763565,0.0750001470744607));
#881=CARTESIAN_POINT('',(-0.01,0.168171419763565,0.073037156159216));
#882=CARTESIAN_POINT('',(-0.01,0.168171419763565,0.073037156159216));
#883=CARTESIAN_POINT('',(-0.01,0.168171419763565,0.0750001470744607));
#884=CARTESIAN_POINT('',(-0.01,0.166471419763565,0.0720556607015936));
#885=CARTESIAN_POINT('',(-0.01,0.166471419763565,0.0720556607015936));
#886=CARTESIAN_POINT('',(-0.01,0.164771419763565,0.0661904320747516));
#887=CARTESIAN_POINT('',(-0.02,0.161371419763565,0.0822479920744607));
#888=CARTESIAN_POINT('',(-0.02,0.157523574763565,0.0784001470744608));
#889=CARTESIAN_POINT('',(-0.02,0.164771419763565,0.0822479920744607));
#890=CARTESIAN_POINT('',(-0.02,0.168171419763565,0.0822479920744606));
#891=CARTESIAN_POINT('',(-0.02,0.172019264763565,0.0784001470744604));
#892=CARTESIAN_POINT('',(-0.02,0.172019264763565,0.0716001470744605));
#893=CARTESIAN_POINT('',(-0.02,0.168171419763565,0.0677523020744606));
#894=CARTESIAN_POINT('',(-0.02,0.164771419763565,0.0677523020744607));
#895=CARTESIAN_POINT('',(-0.02,0.161371419763565,0.0677523020744607));
#896=CARTESIAN_POINT('',(-0.02,0.157523574763565,0.0716001470744608));
#897=MECHANICAL_DESIGN_GEOMETRIC_PRESENTATION_REPRESENTATION('',(#534),
#898);
#898=(
GEOMETRIC_REPRESENTATION_CONTEXT(3)
GLOBAL_UNCERTAINTY_ASSIGNED_CONTEXT((#899))
GLOBAL_UNIT_ASSIGNED_CONTEXT((#902,#901,#900))
REPRESENTATION_CONTEXT('btrshftr C1-C2 Shifter',
'TOP_LEVEL_ASSEMBLY_PART')
);
#899=UNCERTAINTY_MEASURE_WITH_UNIT(LENGTH_MEASURE(1.E-8),#902,
'DISTANCE_ACCURACY_VALUE','Maximum Tolerance applied to model');
#900=(
NAMED_UNIT(*)
SI_UNIT($,.STERADIAN.)
SOLID_ANGLE_UNIT()
);
#901=(
NAMED_UNIT(*)
PLANE_ANGLE_UNIT()
SI_UNIT($,.RADIAN.)
);
#902=(
LENGTH_UNIT()
NAMED_UNIT(*)
SI_UNIT($,.METRE.)
);
#903=PRODUCT_DEFINITION_SHAPE('','',#904);
#904=PRODUCT_DEFINITION('','',#906,#905);
#905=PRODUCT_DEFINITION_CONTEXT('',#912,'design');
#906=PRODUCT_DEFINITION_FORMATION_WITH_SPECIFIED_SOURCE('','',#908,
 .NOT_KNOWN.);
#907=PRODUCT_RELATED_PRODUCT_CATEGORY('','',(#908));
#908=PRODUCT('btrshftr C1-C2 Shifter','btrshftr C1-C2 Shifter',
'btrshftr C1-C2 Shifter',(#910));
#909=PRODUCT_CATEGORY('','');
#910=PRODUCT_CONTEXT('',#912,'mechanical');
#911=APPLICATION_PROTOCOL_DEFINITION('international standard',
'ap242_managed_model_based_3d_engineering',2020,#912);
#912=APPLICATION_CONTEXT('managed model based 3d engineering');
ENDSEC;
END-ISO-10303-21;
