ISO-10303-21;
HEADER;
/* Generated by software containing ST-Developer
 * from STEP Tools, Inc. (www.steptools.com) 
 */
/* OPTION: using custom renumber hook */

FILE_DESCRIPTION(
/* description */ ('STEP AP242 Edition 2',
'CAx-IF Rec.Pracs.---Representation and Presentation of Product Manufa
cturing Information (PMI)---4.0---2014-10-13',
'CAx-IF Rec.Pracs.---3D Tessellated Geometry---0.4---2014-09-14','2;1',
'CAx-IF Rec.Pracs.---User Defined Attributes---1.5---2016-08-15'),
/* implementation_level */ '2;1');

FILE_NAME(
/* name */ 'Assembly 1 - btrshftr C3 Plate Male',
/* time_stamp */ '2026-06-22T21:39:41Z',
/* author */ (''),
/* organization */ (''),
/* preprocessor_version */ 'ST-DEVELOPER v20',
/* originating_system */ 'ONSHAPE BY PTC INC, 1.216',
/* authorisation */ '  ');

FILE_SCHEMA (('AP242_MANAGED_MODEL_BASED_3D_ENGINEERING_MIM_LF { 1 0 10303 442 3 1 4 }'));
ENDSEC;

DATA;
#10=SHAPE_REPRESENTATION_RELATIONSHIP('','',#1183,#11);
#11=ADVANCED_BREP_SHAPE_REPRESENTATION('',(#1181),#1982);
#12=TOROIDAL_SURFACE('',#1283,0.011,0.001);
#13=CYLINDRICAL_SURFACE('',#1245,0.0019);
#14=CYLINDRICAL_SURFACE('',#1246,0.0019);
#15=CYLINDRICAL_SURFACE('',#1247,0.0019);
#16=CYLINDRICAL_SURFACE('',#1249,0.0019);
#17=CYLINDRICAL_SURFACE('',#1255,0.007);
#18=CYLINDRICAL_SURFACE('',#1256,0.001);
#19=CYLINDRICAL_SURFACE('',#1257,0.001);
#20=CYLINDRICAL_SURFACE('',#1258,0.001);
#21=CYLINDRICAL_SURFACE('',#1259,0.001);
#22=CYLINDRICAL_SURFACE('',#1260,0.007);
#23=CYLINDRICAL_SURFACE('',#1261,0.01);
#24=CYLINDRICAL_SURFACE('',#1267,0.0019);
#25=CYLINDRICAL_SURFACE('',#1270,0.0019);
#26=CYLINDRICAL_SURFACE('',#1274,0.0049);
#27=CYLINDRICAL_SURFACE('',#1276,0.0019);
#28=CYLINDRICAL_SURFACE('',#1277,0.0019);
#29=CYLINDRICAL_SURFACE('',#1278,0.0049);
#30=CYLINDRICAL_SURFACE('',#1281,0.001);
#31=CYLINDRICAL_SURFACE('',#1284,0.005);
#32=CYLINDRICAL_SURFACE('',#1285,0.005);
#33=CYLINDRICAL_SURFACE('',#1286,0.002);
#34=CYLINDRICAL_SURFACE('',#1287,0.002);
#35=CYLINDRICAL_SURFACE('',#1288,0.002);
#36=CYLINDRICAL_SURFACE('',#1289,0.002);
#37=CYLINDRICAL_SURFACE('',#1290,0.002);
#38=CYLINDRICAL_SURFACE('',#1291,0.002);
#39=CYLINDRICAL_SURFACE('',#1298,0.0019);
#40=B_SPLINE_CURVE_WITH_KNOTS('',3,(#1688,#1689,#1690,#1691),
 .UNSPECIFIED.,.F.,.F.,(4,4),(0.,0.000959107793929986),.UNSPECIFIED.);
#41=B_SPLINE_CURVE_WITH_KNOTS('',3,(#1937,#1938,#1939,#1940),
 .UNSPECIFIED.,.F.,.F.,(4,4),(1.95156391047391E-18,0.00135406556409138),
 .UNSPECIFIED.);
#42=B_SPLINE_CURVE_WITH_KNOTS('',3,(#1954,#1955,#1956,#1957,#1958,#1959),
 .UNSPECIFIED.,.F.,.F.,(4,1,1,4),(0.,0.00047673405693902,0.000953468113878041,
0.00190693622775608),.UNSPECIFIED.);
#43=CIRCLE('',#1186,0.007);
#44=CIRCLE('',#1187,0.007);
#45=CIRCLE('',#1188,0.01);
#46=CIRCLE('',#1194,0.0019);
#47=CIRCLE('',#1195,0.0049);
#48=CIRCLE('',#1196,0.002);
#49=CIRCLE('',#1197,0.002);
#50=CIRCLE('',#1198,0.0019);
#51=CIRCLE('',#1199,0.002);
#52=CIRCLE('',#1200,0.002);
#53=CIRCLE('',#1201,0.0019);
#54=CIRCLE('',#1202,0.002);
#55=CIRCLE('',#1203,0.002);
#56=CIRCLE('',#1204,0.005);
#57=CIRCLE('',#1205,0.0049);
#58=CIRCLE('',#1206,0.005);
#59=CIRCLE('',#1207,0.0019);
#60=CIRCLE('',#1208,0.007);
#61=CIRCLE('',#1209,0.007);
#62=CIRCLE('',#1210,0.001);
#63=CIRCLE('',#1211,0.001);
#64=CIRCLE('',#1212,0.001);
#65=CIRCLE('',#1213,0.001);
#66=CIRCLE('',#1214,0.0019);
#67=CIRCLE('',#1215,0.0019);
#68=CIRCLE('',#1216,0.0019);
#69=CIRCLE('',#1218,0.0019);
#70=CIRCLE('',#1219,0.001);
#71=CIRCLE('',#1220,0.001);
#72=CIRCLE('',#1221,0.001);
#73=CIRCLE('',#1222,0.001);
#74=CIRCLE('',#1223,0.011);
#75=CIRCLE('',#1224,0.0049);
#76=CIRCLE('',#1225,0.005);
#77=CIRCLE('',#1226,0.002);
#78=CIRCLE('',#1227,0.002);
#79=CIRCLE('',#1228,0.0019);
#80=CIRCLE('',#1229,0.002);
#81=CIRCLE('',#1230,0.002);
#82=CIRCLE('',#1231,0.0019);
#83=CIRCLE('',#1232,0.002);
#84=CIRCLE('',#1233,0.002);
#85=CIRCLE('',#1234,0.0049);
#86=CIRCLE('',#1235,0.0019);
#87=CIRCLE('',#1236,0.0019);
#88=CIRCLE('',#1237,0.0019);
#89=CIRCLE('',#1238,0.0019);
#90=CIRCLE('',#1243,0.001);
#91=CIRCLE('',#1262,0.01);
#92=CIRCLE('',#1265,0.0019);
#93=CIRCLE('',#1266,0.0019);
#94=CIRCLE('',#1268,0.0019);
#95=CIRCLE('',#1271,0.0019);
#96=CIRCLE('',#1282,0.001);
#97=ORIENTED_EDGE('',*,*,#421,.T.);
#98=ORIENTED_EDGE('',*,*,#422,.T.);
#99=ORIENTED_EDGE('',*,*,#423,.T.);
#100=ORIENTED_EDGE('',*,*,#424,.T.);
#101=ORIENTED_EDGE('',*,*,#425,.T.);
#102=ORIENTED_EDGE('',*,*,#426,.T.);
#103=ORIENTED_EDGE('',*,*,#427,.F.);
#104=ORIENTED_EDGE('',*,*,#428,.F.);
#105=ORIENTED_EDGE('',*,*,#429,.T.);
#106=ORIENTED_EDGE('',*,*,#430,.T.);
#107=ORIENTED_EDGE('',*,*,#431,.F.);
#108=ORIENTED_EDGE('',*,*,#432,.F.);
#109=ORIENTED_EDGE('',*,*,#433,.T.);
#110=ORIENTED_EDGE('',*,*,#434,.F.);
#111=ORIENTED_EDGE('',*,*,#435,.F.);
#112=ORIENTED_EDGE('',*,*,#436,.T.);
#113=ORIENTED_EDGE('',*,*,#437,.T.);
#114=ORIENTED_EDGE('',*,*,#438,.T.);
#115=ORIENTED_EDGE('',*,*,#439,.T.);
#116=ORIENTED_EDGE('',*,*,#440,.T.);
#117=ORIENTED_EDGE('',*,*,#441,.F.);
#118=ORIENTED_EDGE('',*,*,#442,.T.);
#119=ORIENTED_EDGE('',*,*,#443,.T.);
#120=ORIENTED_EDGE('',*,*,#444,.T.);
#121=ORIENTED_EDGE('',*,*,#445,.T.);
#122=ORIENTED_EDGE('',*,*,#446,.F.);
#123=ORIENTED_EDGE('',*,*,#433,.F.);
#124=ORIENTED_EDGE('',*,*,#447,.F.);
#125=ORIENTED_EDGE('',*,*,#448,.F.);
#126=ORIENTED_EDGE('',*,*,#449,.T.);
#127=ORIENTED_EDGE('',*,*,#450,.F.);
#128=ORIENTED_EDGE('',*,*,#451,.T.);
#129=ORIENTED_EDGE('',*,*,#431,.T.);
#130=ORIENTED_EDGE('',*,*,#452,.T.);
#131=ORIENTED_EDGE('',*,*,#453,.F.);
#132=ORIENTED_EDGE('',*,*,#450,.T.);
#133=ORIENTED_EDGE('',*,*,#454,.T.);
#134=ORIENTED_EDGE('',*,*,#455,.F.);
#135=ORIENTED_EDGE('',*,*,#456,.T.);
#136=ORIENTED_EDGE('',*,*,#457,.T.);
#137=ORIENTED_EDGE('',*,*,#458,.T.);
#138=ORIENTED_EDGE('',*,*,#459,.T.);
#139=ORIENTED_EDGE('',*,*,#460,.T.);
#140=ORIENTED_EDGE('',*,*,#461,.F.);
#141=ORIENTED_EDGE('',*,*,#462,.F.);
#142=ORIENTED_EDGE('',*,*,#463,.T.);
#143=ORIENTED_EDGE('',*,*,#464,.T.);
#144=ORIENTED_EDGE('',*,*,#465,.T.);
#145=ORIENTED_EDGE('',*,*,#466,.T.);
#146=ORIENTED_EDGE('',*,*,#467,.F.);
#147=ORIENTED_EDGE('',*,*,#468,.F.);
#148=ORIENTED_EDGE('',*,*,#469,.T.);
#149=ORIENTED_EDGE('',*,*,#470,.T.);
#150=ORIENTED_EDGE('',*,*,#435,.T.);
#151=ORIENTED_EDGE('',*,*,#471,.T.);
#152=ORIENTED_EDGE('',*,*,#439,.F.);
#153=ORIENTED_EDGE('',*,*,#472,.T.);
#154=ORIENTED_EDGE('',*,*,#473,.T.);
#155=ORIENTED_EDGE('',*,*,#474,.T.);
#156=ORIENTED_EDGE('',*,*,#475,.F.);
#157=ORIENTED_EDGE('',*,*,#476,.T.);
#158=ORIENTED_EDGE('',*,*,#443,.F.);
#159=ORIENTED_EDGE('',*,*,#477,.T.);
#160=ORIENTED_EDGE('',*,*,#478,.F.);
#161=ORIENTED_EDGE('',*,*,#479,.F.);
#162=ORIENTED_EDGE('',*,*,#480,.F.);
#163=ORIENTED_EDGE('',*,*,#481,.F.);
#164=ORIENTED_EDGE('',*,*,#482,.F.);
#165=ORIENTED_EDGE('',*,*,#483,.F.);
#166=ORIENTED_EDGE('',*,*,#484,.T.);
#167=ORIENTED_EDGE('',*,*,#485,.T.);
#168=ORIENTED_EDGE('',*,*,#486,.T.);
#169=ORIENTED_EDGE('',*,*,#487,.F.);
#170=ORIENTED_EDGE('',*,*,#488,.T.);
#171=ORIENTED_EDGE('',*,*,#489,.F.);
#172=ORIENTED_EDGE('',*,*,#490,.T.);
#173=ORIENTED_EDGE('',*,*,#491,.F.);
#174=ORIENTED_EDGE('',*,*,#492,.T.);
#175=ORIENTED_EDGE('',*,*,#493,.T.);
#176=ORIENTED_EDGE('',*,*,#494,.T.);
#177=ORIENTED_EDGE('',*,*,#495,.F.);
#178=ORIENTED_EDGE('',*,*,#496,.F.);
#179=ORIENTED_EDGE('',*,*,#497,.F.);
#180=ORIENTED_EDGE('',*,*,#498,.T.);
#181=ORIENTED_EDGE('',*,*,#499,.F.);
#182=ORIENTED_EDGE('',*,*,#448,.T.);
#183=ORIENTED_EDGE('',*,*,#500,.T.);
#184=ORIENTED_EDGE('',*,*,#501,.T.);
#185=ORIENTED_EDGE('',*,*,#502,.T.);
#186=ORIENTED_EDGE('',*,*,#503,.T.);
#187=ORIENTED_EDGE('',*,*,#504,.F.);
#188=ORIENTED_EDGE('',*,*,#505,.T.);
#189=ORIENTED_EDGE('',*,*,#506,.T.);
#190=ORIENTED_EDGE('',*,*,#507,.T.);
#191=ORIENTED_EDGE('',*,*,#508,.T.);
#192=ORIENTED_EDGE('',*,*,#509,.T.);
#193=ORIENTED_EDGE('',*,*,#510,.T.);
#194=ORIENTED_EDGE('',*,*,#511,.T.);
#195=ORIENTED_EDGE('',*,*,#512,.F.);
#196=ORIENTED_EDGE('',*,*,#513,.F.);
#197=ORIENTED_EDGE('',*,*,#514,.T.);
#198=ORIENTED_EDGE('',*,*,#441,.T.);
#199=ORIENTED_EDGE('',*,*,#515,.T.);
#200=ORIENTED_EDGE('',*,*,#437,.F.);
#201=ORIENTED_EDGE('',*,*,#516,.T.);
#202=ORIENTED_EDGE('',*,*,#517,.F.);
#203=ORIENTED_EDGE('',*,*,#518,.T.);
#204=ORIENTED_EDGE('',*,*,#519,.T.);
#205=ORIENTED_EDGE('',*,*,#520,.T.);
#206=ORIENTED_EDGE('',*,*,#521,.F.);
#207=ORIENTED_EDGE('',*,*,#522,.T.);
#208=ORIENTED_EDGE('',*,*,#523,.F.);
#209=ORIENTED_EDGE('',*,*,#524,.T.);
#210=ORIENTED_EDGE('',*,*,#525,.T.);
#211=ORIENTED_EDGE('',*,*,#526,.T.);
#212=ORIENTED_EDGE('',*,*,#527,.F.);
#213=ORIENTED_EDGE('',*,*,#528,.T.);
#214=ORIENTED_EDGE('',*,*,#529,.F.);
#215=ORIENTED_EDGE('',*,*,#530,.F.);
#216=ORIENTED_EDGE('',*,*,#531,.T.);
#217=ORIENTED_EDGE('',*,*,#532,.F.);
#218=ORIENTED_EDGE('',*,*,#533,.T.);
#219=ORIENTED_EDGE('',*,*,#534,.T.);
#220=ORIENTED_EDGE('',*,*,#535,.T.);
#221=ORIENTED_EDGE('',*,*,#459,.F.);
#222=ORIENTED_EDGE('',*,*,#536,.T.);
#223=ORIENTED_EDGE('',*,*,#527,.T.);
#224=ORIENTED_EDGE('',*,*,#537,.T.);
#225=ORIENTED_EDGE('',*,*,#465,.F.);
#226=ORIENTED_EDGE('',*,*,#538,.T.);
#227=ORIENTED_EDGE('',*,*,#521,.T.);
#228=ORIENTED_EDGE('',*,*,#539,.T.);
#229=ORIENTED_EDGE('',*,*,#487,.T.);
#230=ORIENTED_EDGE('',*,*,#540,.T.);
#231=ORIENTED_EDGE('',*,*,#502,.F.);
#232=ORIENTED_EDGE('',*,*,#541,.T.);
#233=ORIENTED_EDGE('',*,*,#489,.T.);
#234=ORIENTED_EDGE('',*,*,#542,.T.);
#235=ORIENTED_EDGE('',*,*,#500,.F.);
#236=ORIENTED_EDGE('',*,*,#452,.F.);
#237=ORIENTED_EDGE('',*,*,#430,.F.);
#238=ORIENTED_EDGE('',*,*,#543,.T.);
#239=ORIENTED_EDGE('',*,*,#544,.T.);
#240=ORIENTED_EDGE('',*,*,#508,.F.);
#241=ORIENTED_EDGE('',*,*,#545,.T.);
#242=ORIENTED_EDGE('',*,*,#506,.F.);
#243=ORIENTED_EDGE('',*,*,#546,.T.);
#244=ORIENTED_EDGE('',*,*,#491,.T.);
#245=ORIENTED_EDGE('',*,*,#547,.T.);
#246=ORIENTED_EDGE('',*,*,#518,.F.);
#247=ORIENTED_EDGE('',*,*,#548,.T.);
#248=ORIENTED_EDGE('',*,*,#468,.T.);
#249=ORIENTED_EDGE('',*,*,#549,.F.);
#250=ORIENTED_EDGE('',*,*,#534,.F.);
#251=ORIENTED_EDGE('',*,*,#496,.T.);
#252=ORIENTED_EDGE('',*,*,#535,.F.);
#253=ORIENTED_EDGE('',*,*,#495,.T.);
#254=ORIENTED_EDGE('',*,*,#504,.T.);
#255=ORIENTED_EDGE('',*,*,#550,.T.);
#256=ORIENTED_EDGE('',*,*,#493,.F.);
#257=ORIENTED_EDGE('',*,*,#551,.T.);
#258=ORIENTED_EDGE('',*,*,#524,.F.);
#259=ORIENTED_EDGE('',*,*,#552,.T.);
#260=ORIENTED_EDGE('',*,*,#462,.T.);
#261=ORIENTED_EDGE('',*,*,#553,.F.);
#262=ORIENTED_EDGE('',*,*,#517,.T.);
#263=ORIENTED_EDGE('',*,*,#554,.T.);
#264=ORIENTED_EDGE('',*,*,#469,.F.);
#265=ORIENTED_EDGE('',*,*,#548,.F.);
#266=ORIENTED_EDGE('',*,*,#467,.T.);
#267=ORIENTED_EDGE('',*,*,#555,.T.);
#268=ORIENTED_EDGE('',*,*,#519,.F.);
#269=ORIENTED_EDGE('',*,*,#549,.T.);
#270=ORIENTED_EDGE('',*,*,#523,.T.);
#271=ORIENTED_EDGE('',*,*,#556,.T.);
#272=ORIENTED_EDGE('',*,*,#463,.F.);
#273=ORIENTED_EDGE('',*,*,#552,.F.);
#274=ORIENTED_EDGE('',*,*,#461,.T.);
#275=ORIENTED_EDGE('',*,*,#557,.T.);
#276=ORIENTED_EDGE('',*,*,#525,.F.);
#277=ORIENTED_EDGE('',*,*,#553,.T.);
#278=ORIENTED_EDGE('',*,*,#529,.T.);
#279=ORIENTED_EDGE('',*,*,#558,.T.);
#280=ORIENTED_EDGE('',*,*,#457,.F.);
#281=ORIENTED_EDGE('',*,*,#559,.F.);
#282=ORIENTED_EDGE('',*,*,#427,.T.);
#283=ORIENTED_EDGE('',*,*,#486,.F.);
#284=ORIENTED_EDGE('',*,*,#503,.F.);
#285=ORIENTED_EDGE('',*,*,#540,.F.);
#286=ORIENTED_EDGE('',*,*,#494,.F.);
#287=ORIENTED_EDGE('',*,*,#550,.F.);
#288=ORIENTED_EDGE('',*,*,#501,.F.);
#289=ORIENTED_EDGE('',*,*,#542,.F.);
#290=ORIENTED_EDGE('',*,*,#488,.F.);
#291=ORIENTED_EDGE('',*,*,#541,.F.);
#292=ORIENTED_EDGE('',*,*,#505,.F.);
#293=ORIENTED_EDGE('',*,*,#551,.F.);
#294=ORIENTED_EDGE('',*,*,#492,.F.);
#295=ORIENTED_EDGE('',*,*,#546,.F.);
#296=ORIENTED_EDGE('',*,*,#507,.F.);
#297=ORIENTED_EDGE('',*,*,#547,.F.);
#298=ORIENTED_EDGE('',*,*,#490,.F.);
#299=ORIENTED_EDGE('',*,*,#545,.F.);
#300=ORIENTED_EDGE('',*,*,#485,.F.);
#301=ORIENTED_EDGE('',*,*,#428,.T.);
#302=ORIENTED_EDGE('',*,*,#446,.T.);
#303=ORIENTED_EDGE('',*,*,#560,.T.);
#304=ORIENTED_EDGE('',*,*,#561,.F.);
#305=ORIENTED_EDGE('',*,*,#434,.T.);
#306=ORIENTED_EDGE('',*,*,#561,.T.);
#307=ORIENTED_EDGE('',*,*,#562,.T.);
#308=ORIENTED_EDGE('',*,*,#543,.F.);
#309=ORIENTED_EDGE('',*,*,#429,.F.);
#310=ORIENTED_EDGE('',*,*,#563,.F.);
#311=ORIENTED_EDGE('',*,*,#564,.F.);
#312=ORIENTED_EDGE('',*,*,#477,.F.);
#313=ORIENTED_EDGE('',*,*,#447,.T.);
#314=ORIENTED_EDGE('',*,*,#432,.T.);
#315=ORIENTED_EDGE('',*,*,#451,.F.);
#316=ORIENTED_EDGE('',*,*,#564,.T.);
#317=ORIENTED_EDGE('',*,*,#565,.F.);
#318=ORIENTED_EDGE('',*,*,#565,.T.);
#319=ORIENTED_EDGE('',*,*,#563,.T.);
#320=ORIENTED_EDGE('',*,*,#566,.F.);
#321=ORIENTED_EDGE('',*,*,#566,.T.);
#322=ORIENTED_EDGE('',*,*,#473,.F.);
#323=ORIENTED_EDGE('',*,*,#567,.T.);
#324=ORIENTED_EDGE('',*,*,#513,.T.);
#325=ORIENTED_EDGE('',*,*,#568,.T.);
#326=ORIENTED_EDGE('',*,*,#474,.F.);
#327=ORIENTED_EDGE('',*,*,#568,.F.);
#328=ORIENTED_EDGE('',*,*,#512,.T.);
#329=ORIENTED_EDGE('',*,*,#569,.T.);
#330=ORIENTED_EDGE('',*,*,#570,.T.);
#331=ORIENTED_EDGE('',*,*,#571,.T.);
#332=ORIENTED_EDGE('',*,*,#475,.T.);
#333=ORIENTED_EDGE('',*,*,#569,.F.);
#334=ORIENTED_EDGE('',*,*,#511,.F.);
#335=ORIENTED_EDGE('',*,*,#533,.F.);
#336=ORIENTED_EDGE('',*,*,#497,.T.);
#337=ORIENTED_EDGE('',*,*,#484,.F.);
#338=ORIENTED_EDGE('',*,*,#572,.F.);
#339=ORIENTED_EDGE('',*,*,#532,.T.);
#340=ORIENTED_EDGE('',*,*,#572,.T.);
#341=ORIENTED_EDGE('',*,*,#455,.T.);
#342=ORIENTED_EDGE('',*,*,#573,.F.);
#343=ORIENTED_EDGE('',*,*,#531,.F.);
#344=ORIENTED_EDGE('',*,*,#574,.T.);
#345=ORIENTED_EDGE('',*,*,#456,.F.);
#346=ORIENTED_EDGE('',*,*,#574,.F.);
#347=ORIENTED_EDGE('',*,*,#530,.T.);
#348=ORIENTED_EDGE('',*,*,#559,.T.);
#349=ORIENTED_EDGE('',*,*,#454,.F.);
#350=ORIENTED_EDGE('',*,*,#449,.F.);
#351=ORIENTED_EDGE('',*,*,#499,.T.);
#352=ORIENTED_EDGE('',*,*,#573,.T.);
#353=ORIENTED_EDGE('',*,*,#544,.F.);
#354=ORIENTED_EDGE('',*,*,#562,.F.);
#355=ORIENTED_EDGE('',*,*,#575,.F.);
#356=ORIENTED_EDGE('',*,*,#509,.F.);
#357=ORIENTED_EDGE('',*,*,#575,.T.);
#358=ORIENTED_EDGE('',*,*,#560,.F.);
#359=ORIENTED_EDGE('',*,*,#445,.F.);
#360=ORIENTED_EDGE('',*,*,#576,.T.);
#361=ORIENTED_EDGE('',*,*,#570,.F.);
#362=ORIENTED_EDGE('',*,*,#510,.F.);
#363=ORIENTED_EDGE('',*,*,#576,.F.);
#364=ORIENTED_EDGE('',*,*,#444,.F.);
#365=ORIENTED_EDGE('',*,*,#476,.F.);
#366=ORIENTED_EDGE('',*,*,#571,.F.);
#367=ORIENTED_EDGE('',*,*,#514,.F.);
#368=ORIENTED_EDGE('',*,*,#567,.F.);
#369=ORIENTED_EDGE('',*,*,#472,.F.);
#370=ORIENTED_EDGE('',*,*,#442,.F.);
#371=ORIENTED_EDGE('',*,*,#528,.F.);
#372=ORIENTED_EDGE('',*,*,#536,.F.);
#373=ORIENTED_EDGE('',*,*,#458,.F.);
#374=ORIENTED_EDGE('',*,*,#558,.F.);
#375=ORIENTED_EDGE('',*,*,#526,.F.);
#376=ORIENTED_EDGE('',*,*,#557,.F.);
#377=ORIENTED_EDGE('',*,*,#460,.F.);
#378=ORIENTED_EDGE('',*,*,#537,.F.);
#379=ORIENTED_EDGE('',*,*,#522,.F.);
#380=ORIENTED_EDGE('',*,*,#538,.F.);
#381=ORIENTED_EDGE('',*,*,#464,.F.);
#382=ORIENTED_EDGE('',*,*,#556,.F.);
#383=ORIENTED_EDGE('',*,*,#520,.F.);
#384=ORIENTED_EDGE('',*,*,#555,.F.);
#385=ORIENTED_EDGE('',*,*,#466,.F.);
#386=ORIENTED_EDGE('',*,*,#539,.F.);
#387=ORIENTED_EDGE('',*,*,#516,.F.);
#388=ORIENTED_EDGE('',*,*,#436,.F.);
#389=ORIENTED_EDGE('',*,*,#470,.F.);
#390=ORIENTED_EDGE('',*,*,#554,.F.);
#391=ORIENTED_EDGE('',*,*,#515,.F.);
#392=ORIENTED_EDGE('',*,*,#440,.F.);
#393=ORIENTED_EDGE('',*,*,#471,.F.);
#394=ORIENTED_EDGE('',*,*,#438,.F.);
#395=ORIENTED_EDGE('',*,*,#577,.T.);
#396=ORIENTED_EDGE('',*,*,#478,.T.);
#397=ORIENTED_EDGE('',*,*,#578,.F.);
#398=ORIENTED_EDGE('',*,*,#422,.F.);
#399=ORIENTED_EDGE('',*,*,#578,.T.);
#400=ORIENTED_EDGE('',*,*,#483,.T.);
#401=ORIENTED_EDGE('',*,*,#579,.F.);
#402=ORIENTED_EDGE('',*,*,#423,.F.);
#403=ORIENTED_EDGE('',*,*,#579,.T.);
#404=ORIENTED_EDGE('',*,*,#482,.T.);
#405=ORIENTED_EDGE('',*,*,#580,.F.);
#406=ORIENTED_EDGE('',*,*,#424,.F.);
#407=ORIENTED_EDGE('',*,*,#580,.T.);
#408=ORIENTED_EDGE('',*,*,#481,.T.);
#409=ORIENTED_EDGE('',*,*,#581,.F.);
#410=ORIENTED_EDGE('',*,*,#425,.F.);
#411=ORIENTED_EDGE('',*,*,#581,.T.);
#412=ORIENTED_EDGE('',*,*,#480,.T.);
#413=ORIENTED_EDGE('',*,*,#582,.F.);
#414=ORIENTED_EDGE('',*,*,#426,.F.);
#415=ORIENTED_EDGE('',*,*,#582,.T.);
#416=ORIENTED_EDGE('',*,*,#479,.T.);
#417=ORIENTED_EDGE('',*,*,#577,.F.);
#418=ORIENTED_EDGE('',*,*,#421,.F.);
#419=ORIENTED_EDGE('',*,*,#453,.T.);
#420=ORIENTED_EDGE('',*,*,#498,.F.);
#421=EDGE_CURVE('',#583,#584,#696,.T.);
#422=EDGE_CURVE('',#584,#585,#697,.T.);
#423=EDGE_CURVE('',#585,#586,#698,.T.);
#424=EDGE_CURVE('',#586,#587,#699,.T.);
#425=EDGE_CURVE('',#587,#588,#700,.T.);
#426=EDGE_CURVE('',#588,#583,#701,.T.);
#427=EDGE_CURVE('',#589,#589,#43,.F.);
#428=EDGE_CURVE('',#590,#590,#44,.F.);
#429=EDGE_CURVE('',#591,#592,#702,.T.);
#430=EDGE_CURVE('',#592,#593,#703,.T.);
#431=EDGE_CURVE('',#594,#593,#704,.T.);
#432=EDGE_CURVE('',#595,#594,#705,.T.);
#433=EDGE_CURVE('',#595,#596,#706,.T.);
#434=EDGE_CURVE('',#591,#596,#45,.T.);
#435=EDGE_CURVE('',#597,#598,#707,.T.);
#436=EDGE_CURVE('',#597,#599,#708,.F.);
#437=EDGE_CURVE('',#599,#600,#709,.T.);
#438=EDGE_CURVE('',#600,#598,#710,.T.);
#439=EDGE_CURVE('',#601,#602,#711,.T.);
#440=EDGE_CURVE('',#602,#603,#712,.F.);
#441=EDGE_CURVE('',#604,#603,#713,.T.);
#442=EDGE_CURVE('',#604,#601,#714,.T.);
#443=EDGE_CURVE('',#605,#606,#715,.T.);
#444=EDGE_CURVE('',#606,#607,#716,.F.);
#445=EDGE_CURVE('',#607,#608,#40,.T.);
#446=EDGE_CURVE('',#596,#608,#717,.T.);
#447=EDGE_CURVE('',#605,#595,#718,.T.);
#448=EDGE_CURVE('',#609,#610,#719,.T.);
#449=EDGE_CURVE('',#609,#611,#720,.T.);
#450=EDGE_CURVE('',#612,#611,#721,.T.);
#451=EDGE_CURVE('',#612,#594,#722,.T.);
#452=EDGE_CURVE('',#593,#610,#723,.T.);
#453=EDGE_CURVE('',#613,#613,#46,.T.);
#454=EDGE_CURVE('',#611,#614,#724,.T.);
#455=EDGE_CURVE('',#615,#614,#47,.T.);
#456=EDGE_CURVE('',#615,#616,#725,.T.);
#457=EDGE_CURVE('',#616,#617,#726,.T.);
#458=EDGE_CURVE('',#617,#618,#48,.T.);
#459=EDGE_CURVE('',#618,#619,#727,.T.);
#460=EDGE_CURVE('',#619,#620,#49,.T.);
#461=EDGE_CURVE('',#621,#620,#728,.T.);
#462=EDGE_CURVE('',#622,#621,#50,.T.);
#463=EDGE_CURVE('',#622,#623,#729,.T.);
#464=EDGE_CURVE('',#623,#624,#51,.T.);
#465=EDGE_CURVE('',#624,#625,#730,.T.);
#466=EDGE_CURVE('',#625,#626,#52,.T.);
#467=EDGE_CURVE('',#627,#626,#731,.T.);
#468=EDGE_CURVE('',#628,#627,#53,.T.);
#469=EDGE_CURVE('',#628,#629,#732,.T.);
#470=EDGE_CURVE('',#629,#597,#54,.T.);
#471=EDGE_CURVE('',#598,#602,#55,.T.);
#472=EDGE_CURVE('',#601,#630,#56,.F.);
#473=EDGE_CURVE('',#630,#631,#733,.T.);
#474=EDGE_CURVE('',#631,#632,#57,.T.);
#475=EDGE_CURVE('',#633,#632,#734,.T.);
#476=EDGE_CURVE('',#633,#606,#58,.F.);
#477=EDGE_CURVE('',#605,#612,#735,.T.);
#478=EDGE_CURVE('',#634,#635,#736,.T.);
#479=EDGE_CURVE('',#636,#634,#737,.T.);
#480=EDGE_CURVE('',#637,#636,#738,.T.);
#481=EDGE_CURVE('',#638,#637,#739,.T.);
#482=EDGE_CURVE('',#639,#638,#740,.T.);
#483=EDGE_CURVE('',#635,#639,#741,.T.);
#484=EDGE_CURVE('',#640,#640,#59,.T.);
#485=EDGE_CURVE('',#641,#641,#60,.F.);
#486=EDGE_CURVE('',#642,#642,#61,.F.);
#487=EDGE_CURVE('',#643,#644,#742,.T.);
#488=EDGE_CURVE('',#643,#645,#62,.F.);
#489=EDGE_CURVE('',#646,#645,#743,.T.);
#490=EDGE_CURVE('',#646,#647,#63,.F.);
#491=EDGE_CURVE('',#648,#647,#744,.T.);
#492=EDGE_CURVE('',#648,#649,#64,.F.);
#493=EDGE_CURVE('',#649,#650,#745,.T.);
#494=EDGE_CURVE('',#650,#644,#65,.F.);
#495=EDGE_CURVE('',#651,#651,#66,.T.);
#496=EDGE_CURVE('',#652,#652,#67,.T.);
#497=EDGE_CURVE('',#653,#653,#68,.T.);
#498=EDGE_CURVE('',#654,#654,#69,.T.);
#499=EDGE_CURVE('',#609,#655,#746,.T.);
#500=EDGE_CURVE('',#610,#656,#747,.T.);
#501=EDGE_CURVE('',#656,#657,#70,.T.);
#502=EDGE_CURVE('',#657,#658,#748,.T.);
#503=EDGE_CURVE('',#658,#659,#71,.T.);
#504=EDGE_CURVE('',#660,#659,#749,.T.);
#505=EDGE_CURVE('',#660,#661,#72,.T.);
#506=EDGE_CURVE('',#661,#662,#750,.T.);
#507=EDGE_CURVE('',#662,#663,#73,.T.);
#508=EDGE_CURVE('',#663,#664,#751,.T.);
#509=EDGE_CURVE('',#664,#665,#752,.F.);
#510=EDGE_CURVE('',#665,#666,#74,.T.);
#511=EDGE_CURVE('',#666,#667,#753,.T.);
#512=EDGE_CURVE('',#668,#667,#75,.T.);
#513=EDGE_CURVE('',#669,#668,#754,.T.);
#514=EDGE_CURVE('',#669,#604,#76,.T.);
#515=EDGE_CURVE('',#603,#600,#77,.F.);
#516=EDGE_CURVE('',#599,#670,#78,.F.);
#517=EDGE_CURVE('',#671,#670,#755,.T.);
#518=EDGE_CURVE('',#671,#672,#79,.T.);
#519=EDGE_CURVE('',#672,#673,#756,.T.);
#520=EDGE_CURVE('',#673,#674,#80,.F.);
#521=EDGE_CURVE('',#675,#674,#757,.T.);
#522=EDGE_CURVE('',#675,#676,#81,.F.);
#523=EDGE_CURVE('',#677,#676,#758,.T.);
#524=EDGE_CURVE('',#677,#678,#82,.T.);
#525=EDGE_CURVE('',#678,#679,#759,.T.);
#526=EDGE_CURVE('',#679,#680,#83,.F.);
#527=EDGE_CURVE('',#681,#680,#760,.T.);
#528=EDGE_CURVE('',#681,#682,#84,.F.);
#529=EDGE_CURVE('',#683,#682,#761,.T.);
#530=EDGE_CURVE('',#684,#683,#762,.T.);
#531=EDGE_CURVE('',#684,#655,#85,.T.);
#532=EDGE_CURVE('',#685,#685,#86,.T.);
#533=EDGE_CURVE('',#686,#686,#87,.T.);
#534=EDGE_CURVE('',#687,#687,#88,.T.);
#535=EDGE_CURVE('',#688,#688,#89,.T.);
#536=EDGE_CURVE('',#618,#681,#763,.F.);
#537=EDGE_CURVE('',#680,#619,#764,.T.);
#538=EDGE_CURVE('',#624,#675,#765,.F.);
#539=EDGE_CURVE('',#674,#625,#766,.T.);
#540=EDGE_CURVE('',#644,#658,#767,.F.);
#541=EDGE_CURVE('',#657,#643,#768,.T.);
#542=EDGE_CURVE('',#645,#656,#769,.F.);
#543=EDGE_CURVE('',#592,#689,#770,.T.);
#544=EDGE_CURVE('',#689,#664,#90,.T.);
#545=EDGE_CURVE('',#663,#646,#771,.T.);
#546=EDGE_CURVE('',#661,#648,#772,.T.);
#547=EDGE_CURVE('',#647,#662,#773,.F.);
#548=EDGE_CURVE('',#671,#628,#774,.T.);
#549=EDGE_CURVE('',#672,#627,#775,.T.);
#550=EDGE_CURVE('',#659,#650,#776,.T.);
#551=EDGE_CURVE('',#649,#660,#777,.F.);
#552=EDGE_CURVE('',#677,#622,#778,.T.);
#553=EDGE_CURVE('',#678,#621,#779,.T.);
#554=EDGE_CURVE('',#670,#629,#780,.T.);
#555=EDGE_CURVE('',#626,#673,#781,.F.);
#556=EDGE_CURVE('',#676,#623,#782,.T.);
#557=EDGE_CURVE('',#620,#679,#783,.F.);
#558=EDGE_CURVE('',#682,#617,#784,.T.);
#559=EDGE_CURVE('',#683,#616,#785,.T.);
#560=EDGE_CURVE('',#608,#690,#91,.F.);
#561=EDGE_CURVE('',#591,#690,#786,.T.);
#562=EDGE_CURVE('',#690,#689,#787,.T.);
#563=EDGE_CURVE('',#691,#691,#92,.T.);
#564=EDGE_CURVE('',#692,#692,#93,.T.);
#565=EDGE_CURVE('',#693,#693,#94,.T.);
#566=EDGE_CURVE('',#694,#694,#95,.T.);
#567=EDGE_CURVE('',#630,#669,#788,.F.);
#568=EDGE_CURVE('',#668,#631,#789,.T.);
#569=EDGE_CURVE('',#667,#632,#790,.T.);
#570=EDGE_CURVE('',#666,#695,#41,.T.);
#571=EDGE_CURVE('',#695,#633,#791,.T.);
#572=EDGE_CURVE('',#685,#640,#792,.T.);
#573=EDGE_CURVE('',#655,#614,#793,.T.);
#574=EDGE_CURVE('',#684,#615,#794,.T.);
#575=EDGE_CURVE('',#665,#690,#96,.T.);
#576=EDGE_CURVE('',#607,#695,#42,.T.);
#577=EDGE_CURVE('',#584,#634,#795,.T.);
#578=EDGE_CURVE('',#585,#635,#796,.T.);
#579=EDGE_CURVE('',#586,#639,#797,.T.);
#580=EDGE_CURVE('',#587,#638,#798,.T.);
#581=EDGE_CURVE('',#588,#637,#799,.T.);
#582=EDGE_CURVE('',#583,#636,#800,.T.);
#583=VERTEX_POINT('',#1637);
#584=VERTEX_POINT('',#1638);
#585=VERTEX_POINT('',#1640);
#586=VERTEX_POINT('',#1642);
#587=VERTEX_POINT('',#1644);
#588=VERTEX_POINT('',#1646);
#589=VERTEX_POINT('',#1649);
#590=VERTEX_POINT('',#1651);
#591=VERTEX_POINT('',#1653);
#592=VERTEX_POINT('',#1654);
#593=VERTEX_POINT('',#1656);
#594=VERTEX_POINT('',#1658);
#595=VERTEX_POINT('',#1660);
#596=VERTEX_POINT('',#1662);
#597=VERTEX_POINT('',#1666);
#598=VERTEX_POINT('',#1667);
#599=VERTEX_POINT('',#1669);
#600=VERTEX_POINT('',#1671);
#601=VERTEX_POINT('',#1675);
#602=VERTEX_POINT('',#1676);
#603=VERTEX_POINT('',#1678);
#604=VERTEX_POINT('',#1680);
#605=VERTEX_POINT('',#1684);
#606=VERTEX_POINT('',#1685);
#607=VERTEX_POINT('',#1687);
#608=VERTEX_POINT('',#1692);
#609=VERTEX_POINT('',#1697);
#610=VERTEX_POINT('',#1698);
#611=VERTEX_POINT('',#1700);
#612=VERTEX_POINT('',#1702);
#613=VERTEX_POINT('',#1707);
#614=VERTEX_POINT('',#1709);
#615=VERTEX_POINT('',#1711);
#616=VERTEX_POINT('',#1713);
#617=VERTEX_POINT('',#1715);
#618=VERTEX_POINT('',#1717);
#619=VERTEX_POINT('',#1719);
#620=VERTEX_POINT('',#1721);
#621=VERTEX_POINT('',#1723);
#622=VERTEX_POINT('',#1725);
#623=VERTEX_POINT('',#1727);
#624=VERTEX_POINT('',#1729);
#625=VERTEX_POINT('',#1731);
#626=VERTEX_POINT('',#1733);
#627=VERTEX_POINT('',#1735);
#628=VERTEX_POINT('',#1737);
#629=VERTEX_POINT('',#1739);
#630=VERTEX_POINT('',#1743);
#631=VERTEX_POINT('',#1745);
#632=VERTEX_POINT('',#1747);
#633=VERTEX_POINT('',#1749);
#634=VERTEX_POINT('',#1753);
#635=VERTEX_POINT('',#1754);
#636=VERTEX_POINT('',#1756);
#637=VERTEX_POINT('',#1758);
#638=VERTEX_POINT('',#1760);
#639=VERTEX_POINT('',#1762);
#640=VERTEX_POINT('',#1765);
#641=VERTEX_POINT('',#1767);
#642=VERTEX_POINT('',#1769);
#643=VERTEX_POINT('',#1771);
#644=VERTEX_POINT('',#1772);
#645=VERTEX_POINT('',#1774);
#646=VERTEX_POINT('',#1776);
#647=VERTEX_POINT('',#1778);
#648=VERTEX_POINT('',#1780);
#649=VERTEX_POINT('',#1782);
#650=VERTEX_POINT('',#1784);
#651=VERTEX_POINT('',#1787);
#652=VERTEX_POINT('',#1789);
#653=VERTEX_POINT('',#1791);
#654=VERTEX_POINT('',#1794);
#655=VERTEX_POINT('',#1796);
#656=VERTEX_POINT('',#1798);
#657=VERTEX_POINT('',#1800);
#658=VERTEX_POINT('',#1802);
#659=VERTEX_POINT('',#1804);
#660=VERTEX_POINT('',#1806);
#661=VERTEX_POINT('',#1808);
#662=VERTEX_POINT('',#1810);
#663=VERTEX_POINT('',#1812);
#664=VERTEX_POINT('',#1814);
#665=VERTEX_POINT('',#1816);
#666=VERTEX_POINT('',#1818);
#667=VERTEX_POINT('',#1820);
#668=VERTEX_POINT('',#1822);
#669=VERTEX_POINT('',#1824);
#670=VERTEX_POINT('',#1828);
#671=VERTEX_POINT('',#1830);
#672=VERTEX_POINT('',#1832);
#673=VERTEX_POINT('',#1834);
#674=VERTEX_POINT('',#1836);
#675=VERTEX_POINT('',#1838);
#676=VERTEX_POINT('',#1840);
#677=VERTEX_POINT('',#1842);
#678=VERTEX_POINT('',#1844);
#679=VERTEX_POINT('',#1846);
#680=VERTEX_POINT('',#1848);
#681=VERTEX_POINT('',#1850);
#682=VERTEX_POINT('',#1852);
#683=VERTEX_POINT('',#1854);
#684=VERTEX_POINT('',#1856);
#685=VERTEX_POINT('',#1859);
#686=VERTEX_POINT('',#1861);
#687=VERTEX_POINT('',#1863);
#688=VERTEX_POINT('',#1865);
#689=VERTEX_POINT('',#1878);
#690=VERTEX_POINT('',#1914);
#691=VERTEX_POINT('',#1920);
#692=VERTEX_POINT('',#1922);
#693=VERTEX_POINT('',#1925);
#694=VERTEX_POINT('',#1929);
#695=VERTEX_POINT('',#1941);
#696=LINE('',#1636,#801);
#697=LINE('',#1639,#802);
#698=LINE('',#1641,#803);
#699=LINE('',#1643,#804);
#700=LINE('',#1645,#805);
#701=LINE('',#1647,#806);
#702=LINE('',#1652,#807);
#703=LINE('',#1655,#808);
#704=LINE('',#1657,#809);
#705=LINE('',#1659,#810);
#706=LINE('',#1661,#811);
#707=LINE('',#1665,#812);
#708=LINE('',#1668,#813);
#709=LINE('',#1670,#814);
#710=LINE('',#1672,#815);
#711=LINE('',#1674,#816);
#712=LINE('',#1677,#817);
#713=LINE('',#1679,#818);
#714=LINE('',#1681,#819);
#715=LINE('',#1683,#820);
#716=LINE('',#1686,#821);
#717=LINE('',#1693,#822);
#718=LINE('',#1694,#823);
#719=LINE('',#1696,#824);
#720=LINE('',#1699,#825);
#721=LINE('',#1701,#826);
#722=LINE('',#1703,#827);
#723=LINE('',#1704,#828);
#724=LINE('',#1708,#829);
#725=LINE('',#1712,#830);
#726=LINE('',#1714,#831);
#727=LINE('',#1718,#832);
#728=LINE('',#1722,#833);
#729=LINE('',#1726,#834);
#730=LINE('',#1730,#835);
#731=LINE('',#1734,#836);
#732=LINE('',#1738,#837);
#733=LINE('',#1744,#838);
#734=LINE('',#1748,#839);
#735=LINE('',#1751,#840);
#736=LINE('',#1752,#841);
#737=LINE('',#1755,#842);
#738=LINE('',#1757,#843);
#739=LINE('',#1759,#844);
#740=LINE('',#1761,#845);
#741=LINE('',#1763,#846);
#742=LINE('',#1770,#847);
#743=LINE('',#1775,#848);
#744=LINE('',#1779,#849);
#745=LINE('',#1783,#850);
#746=LINE('',#1795,#851);
#747=LINE('',#1797,#852);
#748=LINE('',#1801,#853);
#749=LINE('',#1805,#854);
#750=LINE('',#1809,#855);
#751=LINE('',#1813,#856);
#752=LINE('',#1815,#857);
#753=LINE('',#1819,#858);
#754=LINE('',#1823,#859);
#755=LINE('',#1829,#860);
#756=LINE('',#1833,#861);
#757=LINE('',#1837,#862);
#758=LINE('',#1841,#863);
#759=LINE('',#1845,#864);
#760=LINE('',#1849,#865);
#761=LINE('',#1853,#866);
#762=LINE('',#1855,#867);
#763=LINE('',#1867,#868);
#764=LINE('',#1868,#869);
#765=LINE('',#1870,#870);
#766=LINE('',#1871,#871);
#767=LINE('',#1873,#872);
#768=LINE('',#1874,#873);
#769=LINE('',#1876,#874);
#770=LINE('',#1877,#875);
#771=LINE('',#1880,#876);
#772=LINE('',#1882,#877);
#773=LINE('',#1883,#878);
#774=LINE('',#1885,#879);
#775=LINE('',#1886,#880);
#776=LINE('',#1890,#881);
#777=LINE('',#1891,#882);
#778=LINE('',#1893,#883);
#779=LINE('',#1894,#884);
#780=LINE('',#1896,#885);
#781=LINE('',#1898,#886);
#782=LINE('',#1900,#887);
#783=LINE('',#1902,#888);
#784=LINE('',#1904,#889);
#785=LINE('',#1905,#890);
#786=LINE('',#1915,#891);
#787=LINE('',#1917,#892);
#788=LINE('',#1932,#893);
#789=LINE('',#1933,#894);
#790=LINE('',#1935,#895);
#791=LINE('',#1942,#896);
#792=LINE('',#1945,#897);
#793=LINE('',#1947,#898);
#794=LINE('',#1948,#899);
#795=LINE('',#1969,#900);
#796=LINE('',#1970,#901);
#797=LINE('',#1972,#902);
#798=LINE('',#1974,#903);
#799=LINE('',#1976,#904);
#800=LINE('',#1978,#905);
#801=VECTOR('',#1303,1.);
#802=VECTOR('',#1304,1.);
#803=VECTOR('',#1305,1.);
#804=VECTOR('',#1306,1.);
#805=VECTOR('',#1307,1.);
#806=VECTOR('',#1308,1.);
#807=VECTOR('',#1313,1.);
#808=VECTOR('',#1314,1.);
#809=VECTOR('',#1315,1.);
#810=VECTOR('',#1316,1.);
#811=VECTOR('',#1317,1.);
#812=VECTOR('',#1322,1.);
#813=VECTOR('',#1323,1.);
#814=VECTOR('',#1324,1.);
#815=VECTOR('',#1325,1.);
#816=VECTOR('',#1328,1.);
#817=VECTOR('',#1329,1.);
#818=VECTOR('',#1330,1.);
#819=VECTOR('',#1331,1.);
#820=VECTOR('',#1334,1.);
#821=VECTOR('',#1335,1.);
#822=VECTOR('',#1336,1.);
#823=VECTOR('',#1337,1.);
#824=VECTOR('',#1340,1.);
#825=VECTOR('',#1341,1.);
#826=VECTOR('',#1342,1.);
#827=VECTOR('',#1343,1.);
#828=VECTOR('',#1344,1.);
#829=VECTOR('',#1349,1.);
#830=VECTOR('',#1352,1.);
#831=VECTOR('',#1353,1.);
#832=VECTOR('',#1356,1.);
#833=VECTOR('',#1359,1.);
#834=VECTOR('',#1362,1.);
#835=VECTOR('',#1365,1.);
#836=VECTOR('',#1368,1.);
#837=VECTOR('',#1371,1.);
#838=VECTOR('',#1378,1.);
#839=VECTOR('',#1381,1.);
#840=VECTOR('',#1384,1.);
#841=VECTOR('',#1385,1.);
#842=VECTOR('',#1386,1.);
#843=VECTOR('',#1387,1.);
#844=VECTOR('',#1388,1.);
#845=VECTOR('',#1389,1.);
#846=VECTOR('',#1390,1.);
#847=VECTOR('',#1397,1.);
#848=VECTOR('',#1400,1.);
#849=VECTOR('',#1403,1.);
#850=VECTOR('',#1406,1.);
#851=VECTOR('',#1419,1.);
#852=VECTOR('',#1420,1.);
#853=VECTOR('',#1423,1.);
#854=VECTOR('',#1426,1.);
#855=VECTOR('',#1429,1.);
#856=VECTOR('',#1432,1.);
#857=VECTOR('',#1433,1.);
#858=VECTOR('',#1436,1.);
#859=VECTOR('',#1439,1.);
#860=VECTOR('',#1446,1.);
#861=VECTOR('',#1449,1.);
#862=VECTOR('',#1452,1.);
#863=VECTOR('',#1455,1.);
#864=VECTOR('',#1458,1.);
#865=VECTOR('',#1461,1.);
#866=VECTOR('',#1464,1.);
#867=VECTOR('',#1465,1.);
#868=VECTOR('',#1478,1.);
#869=VECTOR('',#1479,1.);
#870=VECTOR('',#1482,1.);
#871=VECTOR('',#1483,1.);
#872=VECTOR('',#1486,1.);
#873=VECTOR('',#1487,1.);
#874=VECTOR('',#1490,1.);
#875=VECTOR('',#1491,1.);
#876=VECTOR('',#1494,1.);
#877=VECTOR('',#1497,1.);
#878=VECTOR('',#1498,1.);
#879=VECTOR('',#1501,1.);
#880=VECTOR('',#1502,1.);
#881=VECTOR('',#1509,1.);
#882=VECTOR('',#1510,1.);
#883=VECTOR('',#1513,1.);
#884=VECTOR('',#1514,1.);
#885=VECTOR('',#1517,1.);
#886=VECTOR('',#1520,1.);
#887=VECTOR('',#1523,1.);
#888=VECTOR('',#1526,1.);
#889=VECTOR('',#1529,1.);
#890=VECTOR('',#1530,1.);
#891=VECTOR('',#1547,1.);
#892=VECTOR('',#1550,1.);
#893=VECTOR('',#1571,1.);
#894=VECTOR('',#1572,1.);
#895=VECTOR('',#1575,1.);
#896=VECTOR('',#1578,1.);
#897=VECTOR('',#1583,1.);
#898=VECTOR('',#1586,1.);
#899=VECTOR('',#1587,1.);
#900=VECTOR('',#1616,1.);
#901=VECTOR('',#1617,1.);
#902=VECTOR('',#1620,1.);
#903=VECTOR('',#1623,1.);
#904=VECTOR('',#1626,1.);
#905=VECTOR('',#1629,1.);
#906=EDGE_LOOP('',(#97,#98,#99,#100,#101,#102));
#907=EDGE_LOOP('',(#103));
#908=EDGE_LOOP('',(#104));
#909=EDGE_LOOP('',(#105,#106,#107,#108,#109,#110));
#910=EDGE_LOOP('',(#111,#112,#113,#114));
#911=EDGE_LOOP('',(#115,#116,#117,#118));
#912=EDGE_LOOP('',(#119,#120,#121,#122,#123,#124));
#913=EDGE_LOOP('',(#125,#126,#127,#128,#129,#130));
#914=EDGE_LOOP('',(#131));
#915=EDGE_LOOP('',(#132,#133,#134,#135,#136,#137,#138,#139,#140,#141,#142,
#143,#144,#145,#146,#147,#148,#149,#150,#151,#152,#153,#154,#155,#156,#157,
#158,#159));
#916=EDGE_LOOP('',(#160,#161,#162,#163,#164,#165));
#917=EDGE_LOOP('',(#166));
#918=EDGE_LOOP('',(#167));
#919=EDGE_LOOP('',(#168));
#920=EDGE_LOOP('',(#169,#170,#171,#172,#173,#174,#175,#176));
#921=EDGE_LOOP('',(#177));
#922=EDGE_LOOP('',(#178));
#923=EDGE_LOOP('',(#179));
#924=EDGE_LOOP('',(#180));
#925=EDGE_LOOP('',(#181,#182,#183,#184,#185,#186,#187,#188,#189,#190,#191,
#192,#193,#194,#195,#196,#197,#198,#199,#200,#201,#202,#203,#204,#205,#206,
#207,#208,#209,#210,#211,#212,#213,#214,#215,#216));
#926=EDGE_LOOP('',(#217));
#927=EDGE_LOOP('',(#218));
#928=EDGE_LOOP('',(#219));
#929=EDGE_LOOP('',(#220));
#930=EDGE_LOOP('',(#221,#222,#223,#224));
#931=EDGE_LOOP('',(#225,#226,#227,#228));
#932=EDGE_LOOP('',(#229,#230,#231,#232));
#933=EDGE_LOOP('',(#233,#234,#235,#236,#237,#238,#239,#240,#241));
#934=EDGE_LOOP('',(#242,#243,#244,#245));
#935=EDGE_LOOP('',(#246,#247,#248,#249));
#936=EDGE_LOOP('',(#250));
#937=EDGE_LOOP('',(#251));
#938=EDGE_LOOP('',(#252));
#939=EDGE_LOOP('',(#253));
#940=EDGE_LOOP('',(#254,#255,#256,#257));
#941=EDGE_LOOP('',(#258,#259,#260,#261));
#942=EDGE_LOOP('',(#262,#263,#264,#265));
#943=EDGE_LOOP('',(#266,#267,#268,#269));
#944=EDGE_LOOP('',(#270,#271,#272,#273));
#945=EDGE_LOOP('',(#274,#275,#276,#277));
#946=EDGE_LOOP('',(#278,#279,#280,#281));
#947=EDGE_LOOP('',(#282));
#948=EDGE_LOOP('',(#283));
#949=EDGE_LOOP('',(#284,#285,#286,#287));
#950=EDGE_LOOP('',(#288,#289,#290,#291));
#951=EDGE_LOOP('',(#292,#293,#294,#295));
#952=EDGE_LOOP('',(#296,#297,#298,#299));
#953=EDGE_LOOP('',(#300));
#954=EDGE_LOOP('',(#301));
#955=EDGE_LOOP('',(#302,#303,#304,#305));
#956=EDGE_LOOP('',(#306,#307,#308,#309));
#957=EDGE_LOOP('',(#310));
#958=EDGE_LOOP('',(#311));
#959=EDGE_LOOP('',(#312,#313,#314,#315));
#960=EDGE_LOOP('',(#316));
#961=EDGE_LOOP('',(#317));
#962=EDGE_LOOP('',(#318));
#963=EDGE_LOOP('',(#319));
#964=EDGE_LOOP('',(#320));
#965=EDGE_LOOP('',(#321));
#966=EDGE_LOOP('',(#322,#323,#324,#325));
#967=EDGE_LOOP('',(#326,#327,#328,#329));
#968=EDGE_LOOP('',(#330,#331,#332,#333,#334));
#969=EDGE_LOOP('',(#335));
#970=EDGE_LOOP('',(#336));
#971=EDGE_LOOP('',(#337,#338,#339,#340));
#972=EDGE_LOOP('',(#341,#342,#343,#344));
#973=EDGE_LOOP('',(#345,#346,#347,#348));
#974=EDGE_LOOP('',(#349,#350,#351,#352));
#975=EDGE_LOOP('',(#353,#354,#355,#356));
#976=EDGE_LOOP('',(#357,#358,#359,#360,#361,#362));
#977=EDGE_LOOP('',(#363,#364,#365,#366));
#978=EDGE_LOOP('',(#367,#368,#369,#370));
#979=EDGE_LOOP('',(#371,#372,#373,#374));
#980=EDGE_LOOP('',(#375,#376,#377,#378));
#981=EDGE_LOOP('',(#379,#380,#381,#382));
#982=EDGE_LOOP('',(#383,#384,#385,#386));
#983=EDGE_LOOP('',(#387,#388,#389,#390));
#984=EDGE_LOOP('',(#391,#392,#393,#394));
#985=EDGE_LOOP('',(#395,#396,#397,#398));
#986=EDGE_LOOP('',(#399,#400,#401,#402));
#987=EDGE_LOOP('',(#403,#404,#405,#406));
#988=EDGE_LOOP('',(#407,#408,#409,#410));
#989=EDGE_LOOP('',(#411,#412,#413,#414));
#990=EDGE_LOOP('',(#415,#416,#417,#418));
#991=EDGE_LOOP('',(#419));
#992=EDGE_LOOP('',(#420));
#993=FACE_BOUND('',#906,.T.);
#994=FACE_BOUND('',#907,.T.);
#995=FACE_BOUND('',#908,.T.);
#996=FACE_BOUND('',#909,.T.);
#997=FACE_BOUND('',#910,.T.);
#998=FACE_BOUND('',#911,.T.);
#999=FACE_BOUND('',#912,.T.);
#1000=FACE_BOUND('',#913,.T.);
#1001=FACE_BOUND('',#914,.T.);
#1002=FACE_BOUND('',#915,.T.);
#1003=FACE_BOUND('',#916,.T.);
#1004=FACE_BOUND('',#917,.T.);
#1005=FACE_BOUND('',#918,.T.);
#1006=FACE_BOUND('',#919,.T.);
#1007=FACE_BOUND('',#920,.T.);
#1008=FACE_BOUND('',#921,.T.);
#1009=FACE_BOUND('',#922,.T.);
#1010=FACE_BOUND('',#923,.T.);
#1011=FACE_BOUND('',#924,.T.);
#1012=FACE_BOUND('',#925,.T.);
#1013=FACE_BOUND('',#926,.T.);
#1014=FACE_BOUND('',#927,.T.);
#1015=FACE_BOUND('',#928,.T.);
#1016=FACE_BOUND('',#929,.T.);
#1017=FACE_BOUND('',#930,.T.);
#1018=FACE_BOUND('',#931,.T.);
#1019=FACE_BOUND('',#932,.T.);
#1020=FACE_BOUND('',#933,.T.);
#1021=FACE_BOUND('',#934,.T.);
#1022=FACE_BOUND('',#935,.T.);
#1023=FACE_BOUND('',#936,.T.);
#1024=FACE_BOUND('',#937,.T.);
#1025=FACE_BOUND('',#938,.T.);
#1026=FACE_BOUND('',#939,.T.);
#1027=FACE_BOUND('',#940,.T.);
#1028=FACE_BOUND('',#941,.T.);
#1029=FACE_BOUND('',#942,.T.);
#1030=FACE_BOUND('',#943,.T.);
#1031=FACE_BOUND('',#944,.T.);
#1032=FACE_BOUND('',#945,.T.);
#1033=FACE_BOUND('',#946,.T.);
#1034=FACE_BOUND('',#947,.T.);
#1035=FACE_BOUND('',#948,.T.);
#1036=FACE_BOUND('',#949,.T.);
#1037=FACE_BOUND('',#950,.T.);
#1038=FACE_BOUND('',#951,.T.);
#1039=FACE_BOUND('',#952,.T.);
#1040=FACE_BOUND('',#953,.T.);
#1041=FACE_BOUND('',#954,.T.);
#1042=FACE_BOUND('',#955,.T.);
#1043=FACE_BOUND('',#956,.T.);
#1044=FACE_BOUND('',#957,.T.);
#1045=FACE_BOUND('',#958,.T.);
#1046=FACE_BOUND('',#959,.T.);
#1047=FACE_BOUND('',#960,.T.);
#1048=FACE_BOUND('',#961,.T.);
#1049=FACE_BOUND('',#962,.T.);
#1050=FACE_BOUND('',#963,.T.);
#1051=FACE_BOUND('',#964,.T.);
#1052=FACE_BOUND('',#965,.T.);
#1053=FACE_BOUND('',#966,.T.);
#1054=FACE_BOUND('',#967,.T.);
#1055=FACE_BOUND('',#968,.T.);
#1056=FACE_BOUND('',#969,.T.);
#1057=FACE_BOUND('',#970,.T.);
#1058=FACE_BOUND('',#971,.T.);
#1059=FACE_BOUND('',#972,.T.);
#1060=FACE_BOUND('',#973,.T.);
#1061=FACE_BOUND('',#974,.T.);
#1062=FACE_BOUND('',#975,.T.);
#1063=FACE_BOUND('',#976,.T.);
#1064=FACE_BOUND('',#977,.T.);
#1065=FACE_BOUND('',#978,.T.);
#1066=FACE_BOUND('',#979,.T.);
#1067=FACE_BOUND('',#980,.T.);
#1068=FACE_BOUND('',#981,.T.);
#1069=FACE_BOUND('',#982,.T.);
#1070=FACE_BOUND('',#983,.T.);
#1071=FACE_BOUND('',#984,.T.);
#1072=FACE_BOUND('',#985,.T.);
#1073=FACE_BOUND('',#986,.T.);
#1074=FACE_BOUND('',#987,.T.);
#1075=FACE_BOUND('',#988,.T.);
#1076=FACE_BOUND('',#989,.T.);
#1077=FACE_BOUND('',#990,.T.);
#1078=FACE_BOUND('',#991,.T.);
#1079=FACE_BOUND('',#992,.T.);
#1080=PLANE('',#1185);
#1081=PLANE('',#1189);
#1082=PLANE('',#1190);
#1083=PLANE('',#1191);
#1084=PLANE('',#1192);
#1085=PLANE('',#1193);
#1086=PLANE('',#1217);
#1087=PLANE('',#1239);
#1088=PLANE('',#1240);
#1089=PLANE('',#1241);
#1090=PLANE('',#1242);
#1091=PLANE('',#1244);
#1092=PLANE('',#1248);
#1093=PLANE('',#1250);
#1094=PLANE('',#1251);
#1095=PLANE('',#1252);
#1096=PLANE('',#1253);
#1097=PLANE('',#1254);
#1098=PLANE('',#1263);
#1099=PLANE('',#1264);
#1100=PLANE('',#1269);
#1101=PLANE('',#1272);
#1102=PLANE('',#1273);
#1103=PLANE('',#1275);
#1104=PLANE('',#1279);
#1105=PLANE('',#1280);
#1106=PLANE('',#1292);
#1107=PLANE('',#1293);
#1108=PLANE('',#1294);
#1109=PLANE('',#1295);
#1110=PLANE('',#1296);
#1111=PLANE('',#1297);
#1112=ADVANCED_FACE('',(#993,#994,#995,#996),#1080,.F.);
#1113=ADVANCED_FACE('',(#997),#1081,.T.);
#1114=ADVANCED_FACE('',(#998),#1082,.F.);
#1115=ADVANCED_FACE('',(#999),#1083,.F.);
#1116=ADVANCED_FACE('',(#1000),#1084,.T.);
#1117=ADVANCED_FACE('',(#1001,#1002,#1003,#1004,#1005,#1006,#1007,#1008,
#1009,#1010),#1085,.T.);
#1118=ADVANCED_FACE('',(#1011,#1012,#1013,#1014,#1015,#1016),#1086,.F.);
#1119=ADVANCED_FACE('',(#1017),#1087,.T.);
#1120=ADVANCED_FACE('',(#1018),#1088,.T.);
#1121=ADVANCED_FACE('',(#1019),#1089,.F.);
#1122=ADVANCED_FACE('',(#1020),#1090,.F.);
#1123=ADVANCED_FACE('',(#1021),#1091,.F.);
#1124=ADVANCED_FACE('',(#1022),#13,.F.);
#1125=ADVANCED_FACE('',(#1023,#1024),#14,.F.);
#1126=ADVANCED_FACE('',(#1025,#1026),#15,.F.);
#1127=ADVANCED_FACE('',(#1027),#1092,.T.);
#1128=ADVANCED_FACE('',(#1028),#16,.F.);
#1129=ADVANCED_FACE('',(#1029),#1093,.T.);
#1130=ADVANCED_FACE('',(#1030),#1094,.F.);
#1131=ADVANCED_FACE('',(#1031),#1095,.T.);
#1132=ADVANCED_FACE('',(#1032),#1096,.F.);
#1133=ADVANCED_FACE('',(#1033),#1097,.T.);
#1134=ADVANCED_FACE('',(#1034,#1035),#17,.F.);
#1135=ADVANCED_FACE('',(#1036),#18,.F.);
#1136=ADVANCED_FACE('',(#1037),#19,.F.);
#1137=ADVANCED_FACE('',(#1038),#20,.F.);
#1138=ADVANCED_FACE('',(#1039),#21,.F.);
#1139=ADVANCED_FACE('',(#1040,#1041),#22,.F.);
#1140=ADVANCED_FACE('',(#1042),#23,.T.);
#1141=ADVANCED_FACE('',(#1043),#1098,.F.);
#1142=ADVANCED_FACE('',(#1044,#1045,#1046),#1099,.T.);
#1143=ADVANCED_FACE('',(#1047,#1048),#24,.F.);
#1144=ADVANCED_FACE('',(#1049),#1100,.T.);
#1145=ADVANCED_FACE('',(#1050,#1051),#25,.F.);
#1146=ADVANCED_FACE('',(#1052),#1101,.T.);
#1147=ADVANCED_FACE('',(#1053),#1102,.T.);
#1148=ADVANCED_FACE('',(#1054),#26,.T.);
#1149=ADVANCED_FACE('',(#1055),#1103,.F.);
#1150=ADVANCED_FACE('',(#1056,#1057),#27,.F.);
#1151=ADVANCED_FACE('',(#1058),#28,.F.);
#1152=ADVANCED_FACE('',(#1059),#29,.T.);
#1153=ADVANCED_FACE('',(#1060),#1104,.T.);
#1154=ADVANCED_FACE('',(#1061),#1105,.T.);
#1155=ADVANCED_FACE('',(#1062),#30,.F.);
#1156=ADVANCED_FACE('',(#1063),#12,.F.);
#1157=ADVANCED_FACE('',(#1064),#31,.F.);
#1158=ADVANCED_FACE('',(#1065),#32,.F.);
#1159=ADVANCED_FACE('',(#1066),#33,.T.);
#1160=ADVANCED_FACE('',(#1067),#34,.T.);
#1161=ADVANCED_FACE('',(#1068),#35,.T.);
#1162=ADVANCED_FACE('',(#1069),#36,.T.);
#1163=ADVANCED_FACE('',(#1070),#37,.T.);
#1164=ADVANCED_FACE('',(#1071),#38,.T.);
#1165=ADVANCED_FACE('',(#1072),#1106,.F.);
#1166=ADVANCED_FACE('',(#1073),#1107,.F.);
#1167=ADVANCED_FACE('',(#1074),#1108,.F.);
#1168=ADVANCED_FACE('',(#1075),#1109,.F.);
#1169=ADVANCED_FACE('',(#1076),#1110,.F.);
#1170=ADVANCED_FACE('',(#1077),#1111,.F.);
#1171=ADVANCED_FACE('',(#1078,#1079),#39,.F.);
#1172=CLOSED_SHELL('',(#1112,#1113,#1114,#1115,#1116,#1117,#1118,#1119,
#1120,#1121,#1122,#1123,#1124,#1125,#1126,#1127,#1128,#1129,#1130,#1131,
#1132,#1133,#1134,#1135,#1136,#1137,#1138,#1139,#1140,#1141,#1142,#1143,
#1144,#1145,#1146,#1147,#1148,#1149,#1150,#1151,#1152,#1153,#1154,#1155,
#1156,#1157,#1158,#1159,#1160,#1161,#1162,#1163,#1164,#1165,#1166,#1167,
#1168,#1169,#1170,#1171));
#1173=STYLED_ITEM('',(#1174),#1181);
#1174=PRESENTATION_STYLE_ASSIGNMENT((#1175));
#1175=SURFACE_STYLE_USAGE(.BOTH.,#1176);
#1176=SURFACE_SIDE_STYLE('',(#1177));
#1177=SURFACE_STYLE_FILL_AREA(#1178);
#1178=FILL_AREA_STYLE('',(#1179));
#1179=FILL_AREA_STYLE_COLOUR('',#1180);
#1180=COLOUR_RGB('',0.6,0.580392156862745,0.529411764705882);
#1181=MANIFOLD_SOLID_BREP('btrshftr C3 Plate Male',#1172);
#1182=SHAPE_DEFINITION_REPRESENTATION(#1987,#1183);
#1183=SHAPE_REPRESENTATION('btrshftr C3 Plate Male',(#1184),#1982);
#1184=AXIS2_PLACEMENT_3D('',#1634,#1299,#1300);
#1185=AXIS2_PLACEMENT_3D('',#1635,#1301,#1302);
#1186=AXIS2_PLACEMENT_3D('',#1648,#1309,#1310);
#1187=AXIS2_PLACEMENT_3D('',#1650,#1311,#1312);
#1188=AXIS2_PLACEMENT_3D('',#1663,#1318,#1319);
#1189=AXIS2_PLACEMENT_3D('',#1664,#1320,#1321);
#1190=AXIS2_PLACEMENT_3D('',#1673,#1326,#1327);
#1191=AXIS2_PLACEMENT_3D('',#1682,#1332,#1333);
#1192=AXIS2_PLACEMENT_3D('',#1695,#1338,#1339);
#1193=AXIS2_PLACEMENT_3D('',#1705,#1345,#1346);
#1194=AXIS2_PLACEMENT_3D('',#1706,#1347,#1348);
#1195=AXIS2_PLACEMENT_3D('',#1710,#1350,#1351);
#1196=AXIS2_PLACEMENT_3D('',#1716,#1354,#1355);
#1197=AXIS2_PLACEMENT_3D('',#1720,#1357,#1358);
#1198=AXIS2_PLACEMENT_3D('',#1724,#1360,#1361);
#1199=AXIS2_PLACEMENT_3D('',#1728,#1363,#1364);
#1200=AXIS2_PLACEMENT_3D('',#1732,#1366,#1367);
#1201=AXIS2_PLACEMENT_3D('',#1736,#1369,#1370);
#1202=AXIS2_PLACEMENT_3D('',#1740,#1372,#1373);
#1203=AXIS2_PLACEMENT_3D('',#1741,#1374,#1375);
#1204=AXIS2_PLACEMENT_3D('',#1742,#1376,#1377);
#1205=AXIS2_PLACEMENT_3D('',#1746,#1379,#1380);
#1206=AXIS2_PLACEMENT_3D('',#1750,#1382,#1383);
#1207=AXIS2_PLACEMENT_3D('',#1764,#1391,#1392);
#1208=AXIS2_PLACEMENT_3D('',#1766,#1393,#1394);
#1209=AXIS2_PLACEMENT_3D('',#1768,#1395,#1396);
#1210=AXIS2_PLACEMENT_3D('',#1773,#1398,#1399);
#1211=AXIS2_PLACEMENT_3D('',#1777,#1401,#1402);
#1212=AXIS2_PLACEMENT_3D('',#1781,#1404,#1405);
#1213=AXIS2_PLACEMENT_3D('',#1785,#1407,#1408);
#1214=AXIS2_PLACEMENT_3D('',#1786,#1409,#1410);
#1215=AXIS2_PLACEMENT_3D('',#1788,#1411,#1412);
#1216=AXIS2_PLACEMENT_3D('',#1790,#1413,#1414);
#1217=AXIS2_PLACEMENT_3D('',#1792,#1415,#1416);
#1218=AXIS2_PLACEMENT_3D('',#1793,#1417,#1418);
#1219=AXIS2_PLACEMENT_3D('',#1799,#1421,#1422);
#1220=AXIS2_PLACEMENT_3D('',#1803,#1424,#1425);
#1221=AXIS2_PLACEMENT_3D('',#1807,#1427,#1428);
#1222=AXIS2_PLACEMENT_3D('',#1811,#1430,#1431);
#1223=AXIS2_PLACEMENT_3D('',#1817,#1434,#1435);
#1224=AXIS2_PLACEMENT_3D('',#1821,#1437,#1438);
#1225=AXIS2_PLACEMENT_3D('',#1825,#1440,#1441);
#1226=AXIS2_PLACEMENT_3D('',#1826,#1442,#1443);
#1227=AXIS2_PLACEMENT_3D('',#1827,#1444,#1445);
#1228=AXIS2_PLACEMENT_3D('',#1831,#1447,#1448);
#1229=AXIS2_PLACEMENT_3D('',#1835,#1450,#1451);
#1230=AXIS2_PLACEMENT_3D('',#1839,#1453,#1454);
#1231=AXIS2_PLACEMENT_3D('',#1843,#1456,#1457);
#1232=AXIS2_PLACEMENT_3D('',#1847,#1459,#1460);
#1233=AXIS2_PLACEMENT_3D('',#1851,#1462,#1463);
#1234=AXIS2_PLACEMENT_3D('',#1857,#1466,#1467);
#1235=AXIS2_PLACEMENT_3D('',#1858,#1468,#1469);
#1236=AXIS2_PLACEMENT_3D('',#1860,#1470,#1471);
#1237=AXIS2_PLACEMENT_3D('',#1862,#1472,#1473);
#1238=AXIS2_PLACEMENT_3D('',#1864,#1474,#1475);
#1239=AXIS2_PLACEMENT_3D('',#1866,#1476,#1477);
#1240=AXIS2_PLACEMENT_3D('',#1869,#1480,#1481);
#1241=AXIS2_PLACEMENT_3D('',#1872,#1484,#1485);
#1242=AXIS2_PLACEMENT_3D('',#1875,#1488,#1489);
#1243=AXIS2_PLACEMENT_3D('',#1879,#1492,#1493);
#1244=AXIS2_PLACEMENT_3D('',#1881,#1495,#1496);
#1245=AXIS2_PLACEMENT_3D('',#1884,#1499,#1500);
#1246=AXIS2_PLACEMENT_3D('',#1887,#1503,#1504);
#1247=AXIS2_PLACEMENT_3D('',#1888,#1505,#1506);
#1248=AXIS2_PLACEMENT_3D('',#1889,#1507,#1508);
#1249=AXIS2_PLACEMENT_3D('',#1892,#1511,#1512);
#1250=AXIS2_PLACEMENT_3D('',#1895,#1515,#1516);
#1251=AXIS2_PLACEMENT_3D('',#1897,#1518,#1519);
#1252=AXIS2_PLACEMENT_3D('',#1899,#1521,#1522);
#1253=AXIS2_PLACEMENT_3D('',#1901,#1524,#1525);
#1254=AXIS2_PLACEMENT_3D('',#1903,#1527,#1528);
#1255=AXIS2_PLACEMENT_3D('',#1906,#1531,#1532);
#1256=AXIS2_PLACEMENT_3D('',#1907,#1533,#1534);
#1257=AXIS2_PLACEMENT_3D('',#1908,#1535,#1536);
#1258=AXIS2_PLACEMENT_3D('',#1909,#1537,#1538);
#1259=AXIS2_PLACEMENT_3D('',#1910,#1539,#1540);
#1260=AXIS2_PLACEMENT_3D('',#1911,#1541,#1542);
#1261=AXIS2_PLACEMENT_3D('',#1912,#1543,#1544);
#1262=AXIS2_PLACEMENT_3D('',#1913,#1545,#1546);
#1263=AXIS2_PLACEMENT_3D('',#1916,#1548,#1549);
#1264=AXIS2_PLACEMENT_3D('',#1918,#1551,#1552);
#1265=AXIS2_PLACEMENT_3D('',#1919,#1553,#1554);
#1266=AXIS2_PLACEMENT_3D('',#1921,#1555,#1556);
#1267=AXIS2_PLACEMENT_3D('',#1923,#1557,#1558);
#1268=AXIS2_PLACEMENT_3D('',#1924,#1559,#1560);
#1269=AXIS2_PLACEMENT_3D('',#1926,#1561,#1562);
#1270=AXIS2_PLACEMENT_3D('',#1927,#1563,#1564);
#1271=AXIS2_PLACEMENT_3D('',#1928,#1565,#1566);
#1272=AXIS2_PLACEMENT_3D('',#1930,#1567,#1568);
#1273=AXIS2_PLACEMENT_3D('',#1931,#1569,#1570);
#1274=AXIS2_PLACEMENT_3D('',#1934,#1573,#1574);
#1275=AXIS2_PLACEMENT_3D('',#1936,#1576,#1577);
#1276=AXIS2_PLACEMENT_3D('',#1943,#1579,#1580);
#1277=AXIS2_PLACEMENT_3D('',#1944,#1581,#1582);
#1278=AXIS2_PLACEMENT_3D('',#1946,#1584,#1585);
#1279=AXIS2_PLACEMENT_3D('',#1949,#1588,#1589);
#1280=AXIS2_PLACEMENT_3D('',#1950,#1590,#1591);
#1281=AXIS2_PLACEMENT_3D('',#1951,#1592,#1593);
#1282=AXIS2_PLACEMENT_3D('',#1952,#1594,#1595);
#1283=AXIS2_PLACEMENT_3D('',#1953,#1596,#1597);
#1284=AXIS2_PLACEMENT_3D('',#1960,#1598,#1599);
#1285=AXIS2_PLACEMENT_3D('',#1961,#1600,#1601);
#1286=AXIS2_PLACEMENT_3D('',#1962,#1602,#1603);
#1287=AXIS2_PLACEMENT_3D('',#1963,#1604,#1605);
#1288=AXIS2_PLACEMENT_3D('',#1964,#1606,#1607);
#1289=AXIS2_PLACEMENT_3D('',#1965,#1608,#1609);
#1290=AXIS2_PLACEMENT_3D('',#1966,#1610,#1611);
#1291=AXIS2_PLACEMENT_3D('',#1967,#1612,#1613);
#1292=AXIS2_PLACEMENT_3D('',#1968,#1614,#1615);
#1293=AXIS2_PLACEMENT_3D('',#1971,#1618,#1619);
#1294=AXIS2_PLACEMENT_3D('',#1973,#1621,#1622);
#1295=AXIS2_PLACEMENT_3D('',#1975,#1624,#1625);
#1296=AXIS2_PLACEMENT_3D('',#1977,#1627,#1628);
#1297=AXIS2_PLACEMENT_3D('',#1979,#1630,#1631);
#1298=AXIS2_PLACEMENT_3D('',#1980,#1632,#1633);
#1299=DIRECTION('',(0.,0.,1.));
#1300=DIRECTION('',(1.,0.,0.));
#1301=DIRECTION('',(0.,1.,0.));
#1302=DIRECTION('',(0.,0.,1.));
#1303=DIRECTION('',(2.00308613164952E-14,0.,1.));
#1304=DIRECTION('',(0.866025403784449,0.,0.499999999999982));
#1305=DIRECTION('',(0.866025403784428,0.,-0.500000000000018));
#1306=DIRECTION('',(-2.00308613164952E-14,0.,-1.));
#1307=DIRECTION('',(-0.866025403784448,0.,-0.499999999999984));
#1308=DIRECTION('',(-0.866025403784429,0.,0.500000000000017));
#1309=DIRECTION('',(0.,1.,0.));
#1310=DIRECTION('',(0.,0.,1.));
#1311=DIRECTION('',(0.,1.,0.));
#1312=DIRECTION('',(0.,0.,1.));
#1313=DIRECTION('',(-1.,0.,1.56879340436161E-14));
#1314=DIRECTION('',(6.12323399573677E-17,0.,-1.));
#1315=DIRECTION('',(-1.,0.,1.04083408558595E-14));
#1316=DIRECTION('',(0.,0.,-1.));
#1317=DIRECTION('',(-0.970243441337636,0.,0.242131502579285));
#1318=DIRECTION('',(0.,1.,0.));
#1319=DIRECTION('',(0.,0.,1.));
#1320=DIRECTION('',(-6.12323399573677E-17,0.,1.));
#1321=DIRECTION('',(1.,0.,6.12323399573677E-17));
#1322=DIRECTION('',(1.,0.,6.12323399573677E-17));
#1323=DIRECTION('',(0.,1.,0.));
#1324=DIRECTION('',(1.,0.,6.12323399573677E-17));
#1325=DIRECTION('',(0.,1.,0.));
#1326=DIRECTION('',(-1.,0.,2.40933816107903E-16));
#1327=DIRECTION('',(2.40933816107903E-16,0.,1.));
#1328=DIRECTION('',(2.40933816107903E-16,0.,1.));
#1329=DIRECTION('',(0.,1.,0.));
#1330=DIRECTION('',(2.40933816107903E-16,0.,1.));
#1331=DIRECTION('',(0.,1.,0.));
#1332=DIRECTION('',(-0.242131502579285,0.,-0.970243441337636));
#1333=DIRECTION('',(-0.970243441337636,0.,0.242131502579285));
#1334=DIRECTION('',(-0.970243441337636,0.,0.242131502579285));
#1335=DIRECTION('',(0.,1.,0.));
#1336=DIRECTION('',(0.,1.,0.));
#1337=DIRECTION('',(0.,-1.,0.));
#1338=DIRECTION('',(-1.04083408558595E-14,0.,-1.));
#1339=DIRECTION('',(-1.,0.,1.04083408558595E-14));
#1340=DIRECTION('',(-1.,0.,1.38777878078226E-14));
#1341=DIRECTION('',(0.,1.,0.));
#1342=DIRECTION('',(-1.,0.,1.04083408558595E-14));
#1343=DIRECTION('',(0.,-1.,0.));
#1344=DIRECTION('',(0.,1.,0.));
#1345=DIRECTION('',(0.,1.,0.));
#1346=DIRECTION('',(-6.12323399573677E-17,0.,1.));
#1347=DIRECTION('',(0.,1.,0.));
#1348=DIRECTION('',(0.,0.,1.));
#1349=DIRECTION('',(-0.946262977296756,0.,-0.323398172223468));
#1350=DIRECTION('',(0.,-1.,0.));
#1351=DIRECTION('',(0.,0.,1.));
#1352=DIRECTION('',(0.,0.,1.));
#1353=DIRECTION('',(0.,0.,1.));
#1354=DIRECTION('',(0.,1.,0.));
#1355=DIRECTION('',(0.,0.,1.));
#1356=DIRECTION('',(1.,0.,6.12323399573677E-17));
#1357=DIRECTION('',(0.,1.,0.));
#1358=DIRECTION('',(0.,0.,1.));
#1359=DIRECTION('',(0.,0.,1.));
#1360=DIRECTION('',(0.,1.,0.));
#1361=DIRECTION('',(1.,0.,6.12323399573677E-17));
#1362=DIRECTION('',(0.,0.,1.));
#1363=DIRECTION('',(0.,1.,0.));
#1364=DIRECTION('',(0.,0.,1.));
#1365=DIRECTION('',(1.,0.,6.12323399573677E-17));
#1366=DIRECTION('',(0.,1.,0.));
#1367=DIRECTION('',(0.,0.,1.));
#1368=DIRECTION('',(0.,0.,1.));
#1369=DIRECTION('',(0.,1.,0.));
#1370=DIRECTION('',(1.,0.,6.12323399573677E-17));
#1371=DIRECTION('',(0.,0.,1.));
#1372=DIRECTION('',(0.,1.,0.));
#1373=DIRECTION('',(0.,0.,1.));
#1374=DIRECTION('',(0.,1.,0.));
#1375=DIRECTION('',(0.,0.,1.));
#1376=DIRECTION('',(0.,1.,0.));
#1377=DIRECTION('',(0.,0.,1.));
#1378=DIRECTION('',(0.947647526011232,0.,0.319318283918714));
#1379=DIRECTION('',(0.,1.,0.));
#1380=DIRECTION('',(0.,0.,1.));
#1381=DIRECTION('',(-0.821521142294101,0.,0.570178053562039));
#1382=DIRECTION('',(0.,1.,0.));
#1383=DIRECTION('',(0.,0.,1.));
#1384=DIRECTION('',(0.,0.,-1.));
#1385=DIRECTION('',(0.866025403784449,0.,0.499999999999983));
#1386=DIRECTION('',(2.00308613164952E-14,0.,1.));
#1387=DIRECTION('',(-0.866025403784429,0.,0.500000000000017));
#1388=DIRECTION('',(-0.866025403784448,0.,-0.499999999999984));
#1389=DIRECTION('',(-2.00308613164952E-14,0.,-1.));
#1390=DIRECTION('',(0.866025403784428,0.,-0.500000000000018));
#1391=DIRECTION('',(0.,-1.,0.));
#1392=DIRECTION('',(0.,0.,1.));
#1393=DIRECTION('',(0.,1.,0.));
#1394=DIRECTION('',(0.,0.,1.));
#1395=DIRECTION('',(0.,1.,0.));
#1396=DIRECTION('',(0.,0.,1.));
#1397=DIRECTION('',(-1.,0.,-6.12323399573677E-17));
#1398=DIRECTION('',(0.,1.,0.));
#1399=DIRECTION('',(0.,0.,1.));
#1400=DIRECTION('',(6.12323399573677E-17,0.,-1.));
#1401=DIRECTION('',(0.,1.,0.));
#1402=DIRECTION('',(0.,0.,1.));
#1403=DIRECTION('',(1.,0.,6.12323399573677E-17));
#1404=DIRECTION('',(0.,1.,0.));
#1405=DIRECTION('',(0.,0.,1.));
#1406=DIRECTION('',(6.12323399573677E-17,0.,-1.));
#1407=DIRECTION('',(0.,1.,0.));
#1408=DIRECTION('',(0.,0.,1.));
#1409=DIRECTION('',(0.,1.,0.));
#1410=DIRECTION('',(1.,0.,6.12323399573677E-17));
#1411=DIRECTION('',(0.,1.,0.));
#1412=DIRECTION('',(1.,0.,6.12323399573677E-17));
#1413=DIRECTION('',(0.,1.,0.));
#1414=DIRECTION('',(0.,0.,1.));
#1415=DIRECTION('',(0.,1.,0.));
#1416=DIRECTION('',(-6.12323399573677E-17,0.,1.));
#1417=DIRECTION('',(0.,1.,0.));
#1418=DIRECTION('',(0.,0.,1.));
#1419=DIRECTION('',(-0.946262977296756,0.,-0.323398172223468));
#1420=DIRECTION('',(6.12323399573677E-17,0.,-1.));
#1421=DIRECTION('',(0.,1.,0.));
#1422=DIRECTION('',(0.,0.,1.));
#1423=DIRECTION('',(-1.,0.,-6.12323399573677E-17));
#1424=DIRECTION('',(0.,1.,0.));
#1425=DIRECTION('',(0.,0.,1.));
#1426=DIRECTION('',(6.12323399573677E-17,0.,-1.));
#1427=DIRECTION('',(0.,1.,0.));
#1428=DIRECTION('',(0.,0.,1.));
#1429=DIRECTION('',(1.,0.,6.12323399573677E-17));
#1430=DIRECTION('',(0.,1.,0.));
#1431=DIRECTION('',(0.,0.,1.));
#1432=DIRECTION('',(6.12323399573677E-17,0.,-1.));
#1433=DIRECTION('',(-1.,0.,1.56879340436161E-14));
#1434=DIRECTION('',(0.,1.,0.));
#1435=DIRECTION('',(0.,0.,1.));
#1436=DIRECTION('',(-0.821521142294101,0.,0.570178053562039));
#1437=DIRECTION('',(0.,1.,0.));
#1438=DIRECTION('',(0.,0.,1.));
#1439=DIRECTION('',(0.947647526011232,0.,0.319318283918714));
#1440=DIRECTION('',(0.,1.,0.));
#1441=DIRECTION('',(0.,0.,1.));
#1442=DIRECTION('',(0.,1.,0.));
#1443=DIRECTION('',(0.,0.,1.));
#1444=DIRECTION('',(0.,1.,0.));
#1445=DIRECTION('',(0.,0.,1.));
#1446=DIRECTION('',(0.,0.,1.));
#1447=DIRECTION('',(0.,1.,0.));
#1448=DIRECTION('',(1.,0.,6.12323399573677E-17));
#1449=DIRECTION('',(0.,0.,1.));
#1450=DIRECTION('',(0.,1.,0.));
#1451=DIRECTION('',(0.,0.,1.));
#1452=DIRECTION('',(1.,0.,6.12323399573677E-17));
#1453=DIRECTION('',(0.,1.,0.));
#1454=DIRECTION('',(0.,0.,1.));
#1455=DIRECTION('',(0.,0.,1.));
#1456=DIRECTION('',(0.,1.,0.));
#1457=DIRECTION('',(1.,0.,6.12323399573677E-17));
#1458=DIRECTION('',(0.,0.,1.));
#1459=DIRECTION('',(0.,1.,0.));
#1460=DIRECTION('',(0.,0.,1.));
#1461=DIRECTION('',(1.,0.,6.12323399573677E-17));
#1462=DIRECTION('',(0.,1.,0.));
#1463=DIRECTION('',(0.,0.,1.));
#1464=DIRECTION('',(0.,0.,1.));
#1465=DIRECTION('',(0.,0.,1.));
#1466=DIRECTION('',(0.,-1.,0.));
#1467=DIRECTION('',(0.,0.,1.));
#1468=DIRECTION('',(0.,-1.,0.));
#1469=DIRECTION('',(0.,0.,1.));
#1470=DIRECTION('',(0.,1.,0.));
#1471=DIRECTION('',(0.,0.,1.));
#1472=DIRECTION('',(0.,1.,0.));
#1473=DIRECTION('',(1.,0.,6.12323399573677E-17));
#1474=DIRECTION('',(0.,1.,0.));
#1475=DIRECTION('',(1.,0.,6.12323399573677E-17));
#1476=DIRECTION('',(-6.12323399573677E-17,0.,1.));
#1477=DIRECTION('',(1.,0.,6.12323399573677E-17));
#1478=DIRECTION('',(0.,1.,0.));
#1479=DIRECTION('',(0.,1.,0.));
#1480=DIRECTION('',(-6.12323399573677E-17,0.,1.));
#1481=DIRECTION('',(1.,0.,6.12323399573677E-17));
#1482=DIRECTION('',(0.,1.,0.));
#1483=DIRECTION('',(0.,1.,0.));
#1484=DIRECTION('',(6.12323399573677E-17,0.,-1.));
#1485=DIRECTION('',(-1.,0.,-6.12323399573677E-17));
#1486=DIRECTION('',(0.,1.,0.));
#1487=DIRECTION('',(0.,1.,0.));
#1488=DIRECTION('',(1.,0.,6.12323399573677E-17));
#1489=DIRECTION('',(6.12323399573677E-17,0.,-1.));
#1490=DIRECTION('',(0.,1.,0.));
#1491=DIRECTION('',(0.,1.,0.));
#1492=DIRECTION('',(1.,0.,6.12323399573677E-17));
#1493=DIRECTION('',(6.12323399573677E-17,0.,-1.));
#1494=DIRECTION('',(0.,1.,0.));
#1495=DIRECTION('',(-6.12323399573677E-17,0.,1.));
#1496=DIRECTION('',(1.,0.,6.12323399573677E-17));
#1497=DIRECTION('',(0.,1.,0.));
#1498=DIRECTION('',(0.,1.,0.));
#1499=DIRECTION('',(0.,1.,0.));
#1500=DIRECTION('',(1.,0.,6.12323399573677E-17));
#1501=DIRECTION('',(0.,1.,0.));
#1502=DIRECTION('',(0.,1.,0.));
#1503=DIRECTION('',(0.,1.,0.));
#1504=DIRECTION('',(1.,0.,6.12323399573677E-17));
#1505=DIRECTION('',(0.,1.,0.));
#1506=DIRECTION('',(1.,0.,6.12323399573677E-17));
#1507=DIRECTION('',(1.,0.,6.12323399573677E-17));
#1508=DIRECTION('',(6.12323399573677E-17,0.,-1.));
#1509=DIRECTION('',(0.,1.,0.));
#1510=DIRECTION('',(0.,1.,0.));
#1511=DIRECTION('',(0.,1.,0.));
#1512=DIRECTION('',(1.,0.,6.12323399573677E-17));
#1513=DIRECTION('',(0.,1.,0.));
#1514=DIRECTION('',(0.,1.,0.));
#1515=DIRECTION('',(-1.,0.,0.));
#1516=DIRECTION('',(0.,0.,1.));
#1517=DIRECTION('',(0.,1.,0.));
#1518=DIRECTION('',(-1.,0.,0.));
#1519=DIRECTION('',(0.,0.,1.));
#1520=DIRECTION('',(0.,1.,0.));
#1521=DIRECTION('',(-1.,0.,0.));
#1522=DIRECTION('',(0.,0.,1.));
#1523=DIRECTION('',(0.,1.,0.));
#1524=DIRECTION('',(-1.,0.,0.));
#1525=DIRECTION('',(0.,0.,1.));
#1526=DIRECTION('',(0.,1.,0.));
#1527=DIRECTION('',(-1.,0.,0.));
#1528=DIRECTION('',(0.,0.,1.));
#1529=DIRECTION('',(0.,1.,0.));
#1530=DIRECTION('',(0.,1.,0.));
#1531=DIRECTION('',(0.,-1.,0.));
#1532=DIRECTION('',(0.,0.,-1.));
#1533=DIRECTION('',(0.,1.,0.));
#1534=DIRECTION('',(0.,0.,1.));
#1535=DIRECTION('',(0.,-1.,0.));
#1536=DIRECTION('',(0.,0.,-1.));
#1537=DIRECTION('',(0.,1.,0.));
#1538=DIRECTION('',(0.,0.,1.));
#1539=DIRECTION('',(0.,-1.,0.));
#1540=DIRECTION('',(0.,0.,-1.));
#1541=DIRECTION('',(0.,-1.,0.));
#1542=DIRECTION('',(0.,0.,-1.));
#1543=DIRECTION('',(0.,1.,0.));
#1544=DIRECTION('',(0.,0.,1.));
#1545=DIRECTION('',(0.,1.,0.));
#1546=DIRECTION('',(0.,0.,1.));
#1547=DIRECTION('',(0.,1.,0.));
#1548=DIRECTION('',(-1.56879340436161E-14,0.,-1.));
#1549=DIRECTION('',(-1.,0.,1.56879340436161E-14));
#1550=DIRECTION('',(-1.,0.,1.56879340436161E-14));
#1551=DIRECTION('',(1.,0.,0.));
#1552=DIRECTION('',(0.,1.,0.));
#1553=DIRECTION('',(1.,0.,0.));
#1554=DIRECTION('',(0.,0.,-1.));
#1555=DIRECTION('',(1.,0.,0.));
#1556=DIRECTION('',(0.,0.,-1.));
#1557=DIRECTION('',(1.,0.,0.));
#1558=DIRECTION('',(0.,0.,-1.));
#1559=DIRECTION('',(1.,0.,0.));
#1560=DIRECTION('',(0.,0.,-1.));
#1561=DIRECTION('',(1.,0.,0.));
#1562=DIRECTION('',(0.,1.,0.));
#1563=DIRECTION('',(1.,0.,0.));
#1564=DIRECTION('',(0.,0.,-1.));
#1565=DIRECTION('',(1.,0.,0.));
#1566=DIRECTION('',(0.,0.,-1.));
#1567=DIRECTION('',(1.,0.,0.));
#1568=DIRECTION('',(0.,1.,0.));
#1569=DIRECTION('',(-0.319318283918714,0.,0.947647526011231));
#1570=DIRECTION('',(0.947647526011231,0.,0.319318283918714));
#1571=DIRECTION('',(0.,1.,0.));
#1572=DIRECTION('',(0.,1.,0.));
#1573=DIRECTION('',(0.,1.,0.));
#1574=DIRECTION('',(0.,0.,1.));
#1575=DIRECTION('',(0.,1.,0.));
#1576=DIRECTION('',(-0.570178053562039,0.,-0.821521142294101));
#1577=DIRECTION('',(-0.821521142294101,0.,0.570178053562039));
#1578=DIRECTION('',(0.,1.,0.));
#1579=DIRECTION('',(0.,1.,0.));
#1580=DIRECTION('',(0.,0.,1.));
#1581=DIRECTION('',(0.,1.,0.));
#1582=DIRECTION('',(0.,0.,1.));
#1583=DIRECTION('',(0.,1.,0.));
#1584=DIRECTION('',(0.,1.,0.));
#1585=DIRECTION('',(0.,0.,1.));
#1586=DIRECTION('',(0.,1.,0.));
#1587=DIRECTION('',(0.,1.,0.));
#1588=DIRECTION('',(-1.,0.,0.));
#1589=DIRECTION('',(0.,0.,1.));
#1590=DIRECTION('',(0.323398172223468,0.,-0.946262977296756));
#1591=DIRECTION('',(-0.946262977296756,0.,-0.323398172223468));
#1592=DIRECTION('',(1.,0.,-1.56879340436161E-14));
#1593=DIRECTION('',(-1.56879340436161E-14,0.,-1.));
#1594=DIRECTION('',(-1.,0.,1.70147618748592E-14));
#1595=DIRECTION('',(1.70147618748592E-14,0.,1.));
#1596=DIRECTION('',(0.,1.,0.));
#1597=DIRECTION('',(0.,0.,1.));
#1598=DIRECTION('',(0.,-1.,0.));
#1599=DIRECTION('',(0.,0.,-1.));
#1600=DIRECTION('',(0.,1.,0.));
#1601=DIRECTION('',(0.,0.,1.));
#1602=DIRECTION('',(0.,1.,0.));
#1603=DIRECTION('',(0.,0.,1.));
#1604=DIRECTION('',(0.,-1.,0.));
#1605=DIRECTION('',(0.,0.,-1.));
#1606=DIRECTION('',(0.,1.,0.));
#1607=DIRECTION('',(0.,0.,1.));
#1608=DIRECTION('',(0.,-1.,0.));
#1609=DIRECTION('',(0.,0.,-1.));
#1610=DIRECTION('',(0.,1.,0.));
#1611=DIRECTION('',(0.,0.,1.));
#1612=DIRECTION('',(0.,-1.,0.));
#1613=DIRECTION('',(0.,0.,-1.));
#1614=DIRECTION('',(-0.499999999999982,0.,0.866025403784449));
#1615=DIRECTION('',(0.866025403784449,0.,0.499999999999982));
#1616=DIRECTION('',(0.,1.,0.));
#1617=DIRECTION('',(0.,1.,0.));
#1618=DIRECTION('',(0.500000000000018,0.,0.866025403784428));
#1619=DIRECTION('',(0.866025403784428,0.,-0.500000000000018));
#1620=DIRECTION('',(0.,1.,0.));
#1621=DIRECTION('',(1.,0.,-2.00308613164952E-14));
#1622=DIRECTION('',(-2.00308613164952E-14,0.,-1.));
#1623=DIRECTION('',(0.,1.,0.));
#1624=DIRECTION('',(0.499999999999984,0.,-0.866025403784448));
#1625=DIRECTION('',(-0.866025403784448,0.,-0.499999999999984));
#1626=DIRECTION('',(0.,1.,0.));
#1627=DIRECTION('',(-0.500000000000017,0.,-0.866025403784429));
#1628=DIRECTION('',(-0.866025403784429,0.,0.500000000000017));
#1629=DIRECTION('',(0.,1.,0.));
#1630=DIRECTION('',(-1.,0.,2.00308613164952E-14));
#1631=DIRECTION('',(2.00308613164952E-14,0.,1.));
#1632=DIRECTION('',(0.,1.,0.));
#1633=DIRECTION('',(0.,0.,1.));
#1634=CARTESIAN_POINT('',(0.,0.,0.));
#1635=CARTESIAN_POINT('',(0.0158486,0.0710714197635651,0.085000147074461));
#1636=CARTESIAN_POINT('',(-0.0151000000000003,0.0710714197635651,0.0850001470744616));
#1637=CARTESIAN_POINT('',(-0.0151000000000003,0.0710714197635651,0.088417918386528));
#1638=CARTESIAN_POINT('',(-0.0151,0.0710714197635651,0.0925748403246933));
#1639=CARTESIAN_POINT('',(0.00483151160971274,0.0710714197635651,0.104082303917917));
#1640=CARTESIAN_POINT('',(-0.0115000000000001,0.0710714197635651,0.0946533012937758));
#1641=CARTESIAN_POINT('',(0.0131913883902874,0.0710714197635651,0.0803977215599771));
#1642=CARTESIAN_POINT('',(-0.00790000000000014,0.0710714197635651,0.0925748403246932));
#1643=CARTESIAN_POINT('',(-0.00790000000000029,0.0710714197635651,0.0850001470744615));
#1644=CARTESIAN_POINT('',(-0.0079000000000002,0.0710714197635651,0.0884179183865279));
#1645=CARTESIAN_POINT('',(0.00843151160971258,0.0710714197635651,0.0978469210106686));
#1646=CARTESIAN_POINT('',(-0.0115000000000002,0.0710714197635651,0.0863394574174452));
#1647=CARTESIAN_POINT('',(0.00959138839028728,0.0710714197635651,0.0741623386527292));
#1648=CARTESIAN_POINT('',(-0.0230000000000006,0.0710714197635651,0.0848963793556108));
#1649=CARTESIAN_POINT('',(-0.0230000000000006,0.0710714197635651,0.0918963793556108));
#1650=CARTESIAN_POINT('',(-2.08166817117217E-17,0.0710714197635651,0.0848963793556104));
#1651=CARTESIAN_POINT('',(-2.08166817117217E-17,0.0710714197635651,0.0918963793556104));
#1652=CARTESIAN_POINT('',(0.0158486,0.0710714197635651,0.0948963793556101));
#1653=CARTESIAN_POINT('',(1.36222664385477E-16,0.0710714197635651,0.0948963793556104));
#1654=CARTESIAN_POINT('',(-0.0360000000000017,0.0710714197635651,0.0948963793556108));
#1655=CARTESIAN_POINT('',(-0.0360000000000017,0.0710714197635651,0.077695598296251));
#1656=CARTESIAN_POINT('',(-0.0360000000000017,0.0710714197635651,0.0748963793556109));
#1657=CARTESIAN_POINT('',(0.0158486,0.0710714197635651,0.0748963793556104));
#1658=CARTESIAN_POINT('',(0.0158486,0.0710714197635651,0.0748963793556104));
#1659=CARTESIAN_POINT('',(0.0158486,0.0710714197635651,0.085000147074461));
#1660=CARTESIAN_POINT('',(0.0158486,0.0710714197635651,0.0912479344454607));
#1661=CARTESIAN_POINT('',(0.0173163708343004,0.0710714197635651,0.0908816412633484));
#1662=CARTESIAN_POINT('',(0.00242131502579283,0.0710714197635651,0.0945988137689868));
#1663=CARTESIAN_POINT('',(-3.39249543631166E-17,0.0710714197635651,0.0848963793556103));
#1664=CARTESIAN_POINT('',(-0.0325000000000017,0.0729999997635651,0.123696379355609));
#1665=CARTESIAN_POINT('',(-0.0325000000000017,0.0785714197635651,0.123696379355609));
#1666=CARTESIAN_POINT('',(-0.0371000000000017,0.0785714197635651,0.123696379355609));
#1667=CARTESIAN_POINT('',(-0.0330000000000018,0.0785714197635651,0.123696379355609));
#1668=CARTESIAN_POINT('',(-0.0371000000000017,0.0729999997635651,0.123696379355609));
#1669=CARTESIAN_POINT('',(-0.0371000000000017,0.0729999997635651,0.123696379355609));
#1670=CARTESIAN_POINT('',(-0.0325000000000017,0.0729999997635651,0.123696379355609));
#1671=CARTESIAN_POINT('',(-0.0330000000000018,0.0729999997635651,0.123696379355609));
#1672=CARTESIAN_POINT('',(-0.0330000000000018,0.0785714197635651,0.123696379355609));
#1673=CARTESIAN_POINT('',(-0.0310000000000017,0.0535714197635651,0.10929637935561));
#1674=CARTESIAN_POINT('',(-0.0310000000000017,0.0785714197635651,0.10929637935561));
#1675=CARTESIAN_POINT('',(-0.0310000000000017,0.0785714197635651,0.103857397285304));
#1676=CARTESIAN_POINT('',(-0.0310000000000017,0.0785714197635651,0.121696379355609));
#1677=CARTESIAN_POINT('',(-0.0310000000000017,0.0729999997635651,0.121696379355609));
#1678=CARTESIAN_POINT('',(-0.0310000000000017,0.0729999997635651,0.121696379355609));
#1679=CARTESIAN_POINT('',(-0.0310000000000017,0.0729999997635651,0.085000147074461));
#1680=CARTESIAN_POINT('',(-0.0310000000000017,0.0729999997635651,0.103857397285304));
#1681=CARTESIAN_POINT('',(-0.0310000000000017,0.0535714197635651,0.103857397285304));
#1682=CARTESIAN_POINT('',(0.0116349575128964,0.0535714197635651,0.0922994804217239));
#1683=CARTESIAN_POINT('',(0.0116349575128964,0.0785714197635651,0.0922994804217239));
#1684=CARTESIAN_POINT('',(0.0158486,0.0785714197635651,0.0912479344454607));
#1685=CARTESIAN_POINT('',(0.00330950373499066,0.0785714197635651,0.0943771596381064));
#1686=CARTESIAN_POINT('',(0.00330950373499066,0.0719999997635651,0.0943771596381064));
#1687=CARTESIAN_POINT('',(0.00330950373499066,0.0722861427480519,0.0943771596381064));
#1688=CARTESIAN_POINT('',(0.00330950373499066,0.0722861427480519,0.0943771596381064));
#1689=CARTESIAN_POINT('',(0.00301282326276078,0.072192798451831,0.0944511984674005));
#1690=CARTESIAN_POINT('',(0.0027170690995315,0.0720963932869614,0.0945250061293602));
#1691=CARTESIAN_POINT('',(0.00242131502579283,0.0719999997635651,0.0945988137689868));
#1692=CARTESIAN_POINT('',(0.00242131502579283,0.0719999997635651,0.0945988137689868));
#1693=CARTESIAN_POINT('',(0.00242131502579283,0.0535714197635651,0.0945988137689868));
#1694=CARTESIAN_POINT('',(0.0158486,0.0535714197635651,0.0912479344454607));
#1695=CARTESIAN_POINT('',(-0.0270000000000012,0.0535714197635651,0.0748963793556108));
#1696=CARTESIAN_POINT('',(-0.0320000000000012,0.0729999997635651,0.0748963793556109));
#1697=CARTESIAN_POINT('',(-0.00204363330370544,0.0729999997635651,0.0748963793556105));
#1698=CARTESIAN_POINT('',(-0.0360000000000017,0.0729999997635651,0.0748963793556109));
#1699=CARTESIAN_POINT('',(-0.00204363330370544,0.0729999997635651,0.0748963793556105));
#1700=CARTESIAN_POINT('',(-0.00204363330370546,0.0785714197635651,0.0748963793556105));
#1701=CARTESIAN_POINT('',(-0.0270000000000012,0.0785714197635651,0.0748963793556108));
#1702=CARTESIAN_POINT('',(0.0158486,0.0785714197635651,0.0748963793556108));
#1703=CARTESIAN_POINT('',(0.0158486,0.0535714197635651,0.0748963793556104));
#1704=CARTESIAN_POINT('',(-0.0360000000000017,0.0710714197635651,0.0748963793556109));
#1705=CARTESIAN_POINT('',(-0.0589481161405764,0.0785714197635651,0.0938720793556092));
#1706=CARTESIAN_POINT('',(-0.0330000000000018,0.0785714197635651,0.0706963793556092));
#1707=CARTESIAN_POINT('',(-0.0330000000000018,0.0785714197635651,0.0725963793556092));
#1708=CARTESIAN_POINT('',(-0.0427576744780543,0.0785714197635651,0.0609818050612321));
#1709=CARTESIAN_POINT('',(-0.0545153489561068,0.0785714197635651,0.0569634607668551));
#1710=CARTESIAN_POINT('',(-0.0561000000000018,0.0785714197635651,0.0616001493556092));
#1711=CARTESIAN_POINT('',(-0.0610000000000017,0.0785714197635651,0.0616001493556092));
#1712=CARTESIAN_POINT('',(-0.0610000000000017,0.0785714197635651,0.0625501493556092));
#1713=CARTESIAN_POINT('',(-0.0610000000000017,0.0785714197635651,0.0635001493556092));
#1714=CARTESIAN_POINT('',(-0.0610000000000017,0.0785714197635651,0.109196379355609));
#1715=CARTESIAN_POINT('',(-0.0610000000000017,0.0785714197635651,0.121696379355609));
#1716=CARTESIAN_POINT('',(-0.0590000000000017,0.0785714197635651,0.121696379355609));
#1717=CARTESIAN_POINT('',(-0.0590000000000017,0.0785714197635651,0.123696379355609));
#1718=CARTESIAN_POINT('',(-0.0325000000000017,0.0785714197635651,0.123696379355609));
#1719=CARTESIAN_POINT('',(-0.0549000000000018,0.0785714197635651,0.123696379355609));
#1720=CARTESIAN_POINT('',(-0.0549000000000018,0.0785714197635651,0.121696379355609));
#1721=CARTESIAN_POINT('',(-0.0529000000000018,0.0785714197635651,0.121696379355609));
#1722=CARTESIAN_POINT('',(-0.0529000000000018,0.0785714197635651,0.121196379355609));
#1723=CARTESIAN_POINT('',(-0.0529000000000018,0.0785714197635651,0.118696379355609));
#1724=CARTESIAN_POINT('',(-0.0510000000000017,0.0785714197635651,0.118696379355609));
#1725=CARTESIAN_POINT('',(-0.0491000000000017,0.0785714197635651,0.118696379355609));
#1726=CARTESIAN_POINT('',(-0.0491000000000017,0.0785714197635651,0.121196379355609));
#1727=CARTESIAN_POINT('',(-0.0491000000000017,0.0785714197635651,0.121696379355609));
#1728=CARTESIAN_POINT('',(-0.0471000000000017,0.0785714197635651,0.121696379355609));
#1729=CARTESIAN_POINT('',(-0.0471000000000017,0.0785714197635651,0.123696379355609));
#1730=CARTESIAN_POINT('',(-0.0325000000000017,0.0785714197635651,0.123696379355609));
#1731=CARTESIAN_POINT('',(-0.0449000000000018,0.0785714197635651,0.123696379355609));
#1732=CARTESIAN_POINT('',(-0.0449000000000018,0.0785714197635651,0.121696379355609));
#1733=CARTESIAN_POINT('',(-0.0429000000000017,0.0785714197635651,0.121696379355609));
#1734=CARTESIAN_POINT('',(-0.0429000000000017,0.0785714197635651,0.121196379355609));
#1735=CARTESIAN_POINT('',(-0.0429000000000017,0.0785714197635651,0.118696379355609));
#1736=CARTESIAN_POINT('',(-0.0410000000000018,0.0785714197635651,0.118696379355609));
#1737=CARTESIAN_POINT('',(-0.0391000000000017,0.0785714197635651,0.118696379355609));
#1738=CARTESIAN_POINT('',(-0.0391000000000017,0.0785714197635651,0.121196379355609));
#1739=CARTESIAN_POINT('',(-0.0391000000000017,0.0785714197635651,0.121696379355609));
#1740=CARTESIAN_POINT('',(-0.0371000000000017,0.0785714197635651,0.121696379355609));
#1741=CARTESIAN_POINT('',(-0.0330000000000018,0.0785714197635651,0.121696379355609));
#1742=CARTESIAN_POINT('',(-0.0260000000000017,0.0785714197635651,0.103857397285304));
#1743=CARTESIAN_POINT('',(-0.0244034085804082,0.0785714197635651,0.0991191596552479));
#1744=CARTESIAN_POINT('',(-0.0220323297956017,0.0785714197635651,0.0999181157943382));
#1745=CARTESIAN_POINT('',(-0.0130646595912018,0.0785714197635651,0.102939852233066));
#1746=CARTESIAN_POINT('',(-0.0115,0.0785714197635651,0.0982963793556106));
#1747=CARTESIAN_POINT('',(-0.00870612753754608,0.0785714197635651,0.102321832952852));
#1748=CARTESIAN_POINT('',(-0.00509424799151992,0.0785714197635651,0.0998150022174882));
#1749=CARTESIAN_POINT('',(0.00166927098007688,0.0785714197635651,0.0951207711333241));
#1750=CARTESIAN_POINT('',(0.00452016124788709,0.0785714197635651,0.0992283768447946));
#1751=CARTESIAN_POINT('',(0.0158486,0.0785714197635651,0.0938720793556092));
#1752=CARTESIAN_POINT('',(-0.0133000000000001,0.0785714197635651,0.0936140708092346));
#1753=CARTESIAN_POINT('',(-0.0151,0.0785714197635651,0.0925748403246933));
#1754=CARTESIAN_POINT('',(-0.0115000000000001,0.0785714197635651,0.0946533012937758));
#1755=CARTESIAN_POINT('',(-0.0151,0.0785714197635651,0.0904963793556106));
#1756=CARTESIAN_POINT('',(-0.0151,0.0785714197635651,0.088417918386528));
#1757=CARTESIAN_POINT('',(-0.0133000000000002,0.0785714197635651,0.0873786879019866));
#1758=CARTESIAN_POINT('',(-0.0115000000000002,0.0785714197635651,0.0863394574174452));
#1759=CARTESIAN_POINT('',(-0.00970000000000024,0.0785714197635651,0.0873786879019866));
#1760=CARTESIAN_POINT('',(-0.0079000000000002,0.0785714197635651,0.0884179183865279));
#1761=CARTESIAN_POINT('',(-0.00790000000000018,0.0785714197635651,0.0904963793556105));
#1762=CARTESIAN_POINT('',(-0.00790000000000014,0.0785714197635651,0.0925748403246932));
#1763=CARTESIAN_POINT('',(-0.00970000000000013,0.0785714197635651,0.0936140708092345));
#1764=CARTESIAN_POINT('',(-0.0561000000000017,0.0785714197635651,0.0616001493556092));
#1765=CARTESIAN_POINT('',(-0.0561000000000018,0.0785714197635651,0.0597001493556092));
#1766=CARTESIAN_POINT('',(-2.08166817117217E-17,0.0785714197635651,0.0848963793556104));
#1767=CARTESIAN_POINT('',(-2.08166817117217E-17,0.0785714197635651,0.0918963793556104));
#1768=CARTESIAN_POINT('',(-0.0230000000000006,0.0785714197635651,0.0848963793556108));
#1769=CARTESIAN_POINT('',(-0.0230000000000006,0.0785714197635651,0.0918963793556108));
#1770=CARTESIAN_POINT('',(-0.0535000000000017,0.0785714197635651,0.0736963793556093));
#1771=CARTESIAN_POINT('',(-0.0370000000000017,0.0785714197635651,0.0736963793556093));
#1772=CARTESIAN_POINT('',(-0.0550000000000017,0.0785714197635651,0.0736963793556093));
#1773=CARTESIAN_POINT('',(-0.0370000000000017,0.0785714197635651,0.0746963793556093));
#1774=CARTESIAN_POINT('',(-0.0360000000000017,0.0785714197635651,0.0746963793556093));
#1775=CARTESIAN_POINT('',(-0.0360000000000017,0.0785714197635651,0.077695598296251));
#1776=CARTESIAN_POINT('',(-0.0360000000000017,0.0785714197635651,0.114696379355609));
#1777=CARTESIAN_POINT('',(-0.0370000000000017,0.0785714197635651,0.114696379355609));
#1778=CARTESIAN_POINT('',(-0.0370000000000017,0.0785714197635651,0.115696379355609));
#1779=CARTESIAN_POINT('',(-0.0385000000000017,0.0785714197635651,0.115696379355609));
#1780=CARTESIAN_POINT('',(-0.0550000000000017,0.0785714197635651,0.115696379355609));
#1781=CARTESIAN_POINT('',(-0.0550000000000017,0.0785714197635651,0.114696379355609));
#1782=CARTESIAN_POINT('',(-0.0560000000000017,0.0785714197635651,0.114696379355609));
#1783=CARTESIAN_POINT('',(-0.0560000000000017,0.0785714197635651,0.077695598296251));
#1784=CARTESIAN_POINT('',(-0.0560000000000017,0.0785714197635651,0.0746963793556093));
#1785=CARTESIAN_POINT('',(-0.0550000000000017,0.0785714197635651,0.0746963793556093));
#1786=CARTESIAN_POINT('',(-0.0510000000000018,0.0785714197635651,0.0706963793556092));
#1787=CARTESIAN_POINT('',(-0.0491000000000018,0.0785714197635651,0.0706963793556092));
#1788=CARTESIAN_POINT('',(-0.0410000000000018,0.0785714197635651,0.0706963793556092));
#1789=CARTESIAN_POINT('',(-0.0391000000000018,0.0785714197635651,0.0706963793556092));
#1790=CARTESIAN_POINT('',(-0.0115,0.0785714197635651,0.0982963793556106));
#1791=CARTESIAN_POINT('',(-0.0115,0.0785714197635651,0.100196379355611));
#1792=CARTESIAN_POINT('',(-0.0589481161405764,0.0729999997635651,0.0938720793556092));
#1793=CARTESIAN_POINT('',(-0.0330000000000018,0.0729999997635651,0.0706963793556092));
#1794=CARTESIAN_POINT('',(-0.0330000000000018,0.0729999997635651,0.0725963793556092));
#1795=CARTESIAN_POINT('',(-0.0427576744780543,0.0729999997635651,0.0609818050612321));
#1796=CARTESIAN_POINT('',(-0.0545153489561068,0.0729999997635651,0.0569634607668551));
#1797=CARTESIAN_POINT('',(-0.0360000000000017,0.0729999997635651,0.077695598296251));
#1798=CARTESIAN_POINT('',(-0.0360000000000017,0.0729999997635651,0.0746963793556093));
#1799=CARTESIAN_POINT('',(-0.0370000000000017,0.0729999997635651,0.0746963793556093));
#1800=CARTESIAN_POINT('',(-0.0370000000000017,0.0729999997635651,0.0736963793556093));
#1801=CARTESIAN_POINT('',(-0.0535000000000017,0.0729999997635651,0.0736963793556093));
#1802=CARTESIAN_POINT('',(-0.0550000000000017,0.0729999997635651,0.0736963793556093));
#1803=CARTESIAN_POINT('',(-0.0550000000000017,0.0729999997635651,0.0746963793556093));
#1804=CARTESIAN_POINT('',(-0.0560000000000017,0.0729999997635651,0.0746963793556093));
#1805=CARTESIAN_POINT('',(-0.0560000000000017,0.0729999997635651,0.077695598296251));
#1806=CARTESIAN_POINT('',(-0.0560000000000017,0.0729999997635651,0.114696379355609));
#1807=CARTESIAN_POINT('',(-0.0550000000000017,0.0729999997635651,0.114696379355609));
#1808=CARTESIAN_POINT('',(-0.0550000000000017,0.0729999997635651,0.115696379355609));
#1809=CARTESIAN_POINT('',(-0.0385000000000017,0.0729999997635651,0.115696379355609));
#1810=CARTESIAN_POINT('',(-0.0370000000000017,0.0729999997635651,0.115696379355609));
#1811=CARTESIAN_POINT('',(-0.0370000000000017,0.0729999997635651,0.114696379355609));
#1812=CARTESIAN_POINT('',(-0.0360000000000017,0.0729999997635651,0.114696379355609));
#1813=CARTESIAN_POINT('',(-0.0360000000000017,0.0729999997635651,0.077695598296251));
#1814=CARTESIAN_POINT('',(-0.0360000000000017,0.0729999997635651,0.095896379355611));
#1815=CARTESIAN_POINT('',(1.47451495458029E-16,0.0729999997635651,0.0958963793556104));
#1816=CARTESIAN_POINT('',(1.53237426260336E-16,0.0729999997635651,0.0958963793556104));
#1817=CARTESIAN_POINT('',(-3.39249543631166E-17,0.0729999997635651,0.0848963793556103));
#1818=CARTESIAN_POINT('',(0.000573303135990244,0.0729999997635651,0.0958814293561458));
#1819=CARTESIAN_POINT('',(-0.00509424799151992,0.0729999997635651,0.0998150022174882));
#1820=CARTESIAN_POINT('',(-0.00870612753754608,0.0729999997635651,0.102321832952852));
#1821=CARTESIAN_POINT('',(-0.0115,0.0729999997635651,0.0982963793556106));
#1822=CARTESIAN_POINT('',(-0.0130646595912018,0.0729999997635651,0.102939852233066));
#1823=CARTESIAN_POINT('',(-0.0220323297956017,0.0729999997635651,0.0999181157943382));
#1824=CARTESIAN_POINT('',(-0.0244034085804082,0.0729999997635651,0.0991191596552479));
#1825=CARTESIAN_POINT('',(-0.0260000000000017,0.0729999997635651,0.103857397285304));
#1826=CARTESIAN_POINT('',(-0.0330000000000018,0.0729999997635651,0.121696379355609));
#1827=CARTESIAN_POINT('',(-0.0371000000000017,0.0729999997635651,0.121696379355609));
#1828=CARTESIAN_POINT('',(-0.0391000000000017,0.0729999997635651,0.121696379355609));
#1829=CARTESIAN_POINT('',(-0.0391000000000017,0.0729999997635651,0.0938720793556092));
#1830=CARTESIAN_POINT('',(-0.0391000000000017,0.0729999997635651,0.118696379355609));
#1831=CARTESIAN_POINT('',(-0.0410000000000018,0.0729999997635651,0.118696379355609));
#1832=CARTESIAN_POINT('',(-0.0429000000000017,0.0729999997635651,0.118696379355609));
#1833=CARTESIAN_POINT('',(-0.0429000000000017,0.0729999997635651,0.0938720793556092));
#1834=CARTESIAN_POINT('',(-0.0429000000000017,0.0729999997635651,0.121696379355609));
#1835=CARTESIAN_POINT('',(-0.0449000000000018,0.0729999997635651,0.121696379355609));
#1836=CARTESIAN_POINT('',(-0.0449000000000018,0.0729999997635651,0.123696379355609));
#1837=CARTESIAN_POINT('',(-0.0325000000000017,0.0729999997635651,0.123696379355609));
#1838=CARTESIAN_POINT('',(-0.0471000000000017,0.0729999997635651,0.123696379355609));
#1839=CARTESIAN_POINT('',(-0.0471000000000017,0.0729999997635651,0.121696379355609));
#1840=CARTESIAN_POINT('',(-0.0491000000000017,0.0729999997635651,0.121696379355609));
#1841=CARTESIAN_POINT('',(-0.0491000000000017,0.0729999997635651,0.0938720793556092));
#1842=CARTESIAN_POINT('',(-0.0491000000000017,0.0729999997635651,0.118696379355609));
#1843=CARTESIAN_POINT('',(-0.0510000000000017,0.0729999997635651,0.118696379355609));
#1844=CARTESIAN_POINT('',(-0.0529000000000018,0.0729999997635651,0.118696379355609));
#1845=CARTESIAN_POINT('',(-0.0529000000000018,0.0729999997635651,0.0938720793556092));
#1846=CARTESIAN_POINT('',(-0.0529000000000018,0.0729999997635651,0.121696379355609));
#1847=CARTESIAN_POINT('',(-0.0549000000000018,0.0729999997635651,0.121696379355609));
#1848=CARTESIAN_POINT('',(-0.0549000000000018,0.0729999997635651,0.123696379355609));
#1849=CARTESIAN_POINT('',(-0.0325000000000017,0.0729999997635651,0.123696379355609));
#1850=CARTESIAN_POINT('',(-0.0590000000000017,0.0729999997635651,0.123696379355609));
#1851=CARTESIAN_POINT('',(-0.0590000000000017,0.0729999997635651,0.121696379355609));
#1852=CARTESIAN_POINT('',(-0.0610000000000017,0.0729999997635651,0.121696379355609));
#1853=CARTESIAN_POINT('',(-0.0610000000000017,0.0729999997635651,0.0938720793556092));
#1854=CARTESIAN_POINT('',(-0.0610000000000017,0.0729999997635651,0.0635001493556092));
#1855=CARTESIAN_POINT('',(-0.0610000000000017,0.0729999997635651,0.0625501493556092));
#1856=CARTESIAN_POINT('',(-0.0610000000000017,0.0729999997635651,0.0616001493556092));
#1857=CARTESIAN_POINT('',(-0.0561000000000018,0.0729999997635651,0.0616001493556092));
#1858=CARTESIAN_POINT('',(-0.0561000000000017,0.0729999997635651,0.0616001493556091));
#1859=CARTESIAN_POINT('',(-0.0561000000000018,0.0729999997635651,0.0597001493556092));
#1860=CARTESIAN_POINT('',(-0.0115,0.0729999997635651,0.0982963793556106));
#1861=CARTESIAN_POINT('',(-0.0115,0.0729999997635651,0.100196379355611));
#1862=CARTESIAN_POINT('',(-0.0410000000000018,0.0729999997635651,0.0706963793556092));
#1863=CARTESIAN_POINT('',(-0.0391000000000018,0.0729999997635651,0.0706963793556092));
#1864=CARTESIAN_POINT('',(-0.0510000000000018,0.0729999997635651,0.0706963793556092));
#1865=CARTESIAN_POINT('',(-0.0491000000000018,0.0729999997635651,0.0706963793556092));
#1866=CARTESIAN_POINT('',(-0.0325000000000017,0.0729999997635651,0.123696379355609));
#1867=CARTESIAN_POINT('',(-0.0590000000000017,0.0729999997635651,0.123696379355609));
#1868=CARTESIAN_POINT('',(-0.0549000000000018,0.0785714197635651,0.123696379355609));
#1869=CARTESIAN_POINT('',(-0.0325000000000017,0.0729999997635651,0.123696379355609));
#1870=CARTESIAN_POINT('',(-0.0471000000000017,0.0729999997635651,0.123696379355609));
#1871=CARTESIAN_POINT('',(-0.0449000000000018,0.0785714197635651,0.123696379355609));
#1872=CARTESIAN_POINT('',(-0.0535000000000017,0.0729999997635651,0.0736963793556093));
#1873=CARTESIAN_POINT('',(-0.0550000000000017,0.0729999997635651,0.0736963793556093));
#1874=CARTESIAN_POINT('',(-0.0370000000000017,0.0785714197635651,0.0736963793556093));
#1875=CARTESIAN_POINT('',(-0.0360000000000017,0.0729999997635651,0.077695598296251));
#1876=CARTESIAN_POINT('',(-0.0360000000000017,0.0729999997635651,0.0746963793556093));
#1877=CARTESIAN_POINT('',(-0.0360000000000017,0.0710714197635651,0.0948963793556108));
#1878=CARTESIAN_POINT('',(-0.0360000000000017,0.0719999997635651,0.0948963793556108));
#1879=CARTESIAN_POINT('',(-0.0360000000000017,0.0719999997635651,0.095896379355611));
#1880=CARTESIAN_POINT('',(-0.0360000000000017,0.0785714197635651,0.114696379355609));
#1881=CARTESIAN_POINT('',(-0.0385000000000017,0.0729999997635651,0.115696379355609));
#1882=CARTESIAN_POINT('',(-0.0550000000000017,0.0729999997635651,0.115696379355609));
#1883=CARTESIAN_POINT('',(-0.0370000000000017,0.0729999997635651,0.115696379355609));
#1884=CARTESIAN_POINT('',(-0.0410000000000018,0.0729999997635651,0.118696379355609));
#1885=CARTESIAN_POINT('',(-0.0391000000000017,0.0529999997635651,0.118696379355609));
#1886=CARTESIAN_POINT('',(-0.0429000000000017,0.0529999997635651,0.118696379355609));
#1887=CARTESIAN_POINT('',(-0.0410000000000018,0.0729999997635651,0.0706963793556092));
#1888=CARTESIAN_POINT('',(-0.0510000000000018,0.0729999997635651,0.0706963793556092));
#1889=CARTESIAN_POINT('',(-0.0560000000000017,0.0729999997635651,0.077695598296251));
#1890=CARTESIAN_POINT('',(-0.0560000000000017,0.0729999997635651,0.0746963793556093));
#1891=CARTESIAN_POINT('',(-0.0560000000000017,0.0729999997635651,0.114696379355609));
#1892=CARTESIAN_POINT('',(-0.0510000000000017,0.0729999997635651,0.118696379355609));
#1893=CARTESIAN_POINT('',(-0.0491000000000017,0.0529999997635651,0.118696379355609));
#1894=CARTESIAN_POINT('',(-0.0529000000000018,0.0529999997635651,0.118696379355609));
#1895=CARTESIAN_POINT('',(-0.0391000000000017,0.0529999997635651,0.121196379355609));
#1896=CARTESIAN_POINT('',(-0.0391000000000017,0.0529999997635651,0.121696379355609));
#1897=CARTESIAN_POINT('',(-0.0429000000000017,0.0529999997635651,0.121196379355609));
#1898=CARTESIAN_POINT('',(-0.0429000000000017,0.0729999997635651,0.121696379355609));
#1899=CARTESIAN_POINT('',(-0.0491000000000017,0.0529999997635651,0.121196379355609));
#1900=CARTESIAN_POINT('',(-0.0491000000000017,0.0529999997635651,0.121696379355609));
#1901=CARTESIAN_POINT('',(-0.0529000000000018,0.0529999997635651,0.121196379355609));
#1902=CARTESIAN_POINT('',(-0.0529000000000018,0.0729999997635651,0.121696379355609));
#1903=CARTESIAN_POINT('',(-0.0610000000000017,0.0529999997635651,0.109196379355609));
#1904=CARTESIAN_POINT('',(-0.0610000000000017,0.0529999997635651,0.121696379355609));
#1905=CARTESIAN_POINT('',(-0.0610000000000017,0.0729999997635651,0.0635001493556092));
#1906=CARTESIAN_POINT('',(-0.0230000000000006,0.0794513997635651,0.0848963793556108));
#1907=CARTESIAN_POINT('',(-0.0550000000000017,0.0729999997635651,0.0746963793556093));
#1908=CARTESIAN_POINT('',(-0.0370000000000017,0.0729999997635651,0.0746963793556093));
#1909=CARTESIAN_POINT('',(-0.0550000000000017,0.0729999997635651,0.114696379355609));
#1910=CARTESIAN_POINT('',(-0.0370000000000017,0.0729999997635651,0.114696379355609));
#1911=CARTESIAN_POINT('',(-2.08166817117217E-17,0.09507142,0.0848963793556104));
#1912=CARTESIAN_POINT('',(-3.39249543631166E-17,0.0535714197635651,0.0848963793556103));
#1913=CARTESIAN_POINT('',(-3.39249543631166E-17,0.0719999997635651,0.0848963793556103));
#1914=CARTESIAN_POINT('',(1.36222664385477E-16,0.0719999997635651,0.0948963793556104));
#1915=CARTESIAN_POINT('',(1.36222664385477E-16,0.0535714197635651,0.0948963793556104));
#1916=CARTESIAN_POINT('',(-0.0115000000000002,0.0535714197635651,0.0948963793556106));
#1917=CARTESIAN_POINT('',(-0.0360000000000017,0.0719999997635651,0.094896379355611));
#1918=CARTESIAN_POINT('',(0.0158486,0.104271419763565,0.067500147074461));
#1919=CARTESIAN_POINT('',(0.0158486,0.0745714197635651,0.087000147074461));
#1920=CARTESIAN_POINT('',(0.0158486,0.0745714197635651,0.085100147074461));
#1921=CARTESIAN_POINT('',(0.0158486,0.0745714197635651,0.080000147074461));
#1922=CARTESIAN_POINT('',(0.0158486,0.0745714197635651,0.078100147074461));
#1923=CARTESIAN_POINT('',(0.0088486,0.0745714197635651,0.080000147074461));
#1924=CARTESIAN_POINT('',(0.0088486,0.0745714197635651,0.080000147074461));
#1925=CARTESIAN_POINT('',(0.0088486,0.0745714197635651,0.078100147074461));
#1926=CARTESIAN_POINT('',(0.0088486,0.141185709763565,0.077500147074461));
#1927=CARTESIAN_POINT('',(0.0088486,0.0745714197635651,0.087000147074461));
#1928=CARTESIAN_POINT('',(0.0088486,0.0745714197635651,0.087000147074461));
#1929=CARTESIAN_POINT('',(0.0088486,0.0745714197635651,0.085100147074461));
#1930=CARTESIAN_POINT('',(0.0088486,0.141185709763565,0.077500147074461));
#1931=CARTESIAN_POINT('',(-0.0220323297956017,0.0729999997635651,0.0999181157943382));
#1932=CARTESIAN_POINT('',(-0.0244034085804082,0.0729999997635651,0.0991191596552479));
#1933=CARTESIAN_POINT('',(-0.0130646595912018,0.0729999997635651,0.102939852233066));
#1934=CARTESIAN_POINT('',(-0.0115,0.0729999997635651,0.0982963793556106));
#1935=CARTESIAN_POINT('',(-0.00870612753754608,0.0729999997635651,0.102321832952852));
#1936=CARTESIAN_POINT('',(-0.00509424799151992,0.0729999997635651,0.0998150022174882));
#1937=CARTESIAN_POINT('',(0.000573303135990247,0.0729999997635651,0.0958814293561458));
#1938=CARTESIAN_POINT('',(0.000949584705880455,0.0729999997635651,0.0956202705349472));
#1939=CARTESIAN_POINT('',(0.00131513926395051,0.072922791899852,0.0953665568133392));
#1940=CARTESIAN_POINT('',(0.00166927098007688,0.0727681757347686,0.0951207711333241));
#1941=CARTESIAN_POINT('',(0.00166927098007689,0.0727681757347686,0.0951207711333241));
#1942=CARTESIAN_POINT('',(0.00166927098007688,0.0785714197635651,0.0951207711333241));
#1943=CARTESIAN_POINT('',(-0.0115,0.0729999997635651,0.0982963793556106));
#1944=CARTESIAN_POINT('',(-0.0561000000000017,0.0729999997635651,0.0616001493556092));
#1945=CARTESIAN_POINT('',(-0.0561000000000018,0.0729999997635651,0.0597001493556092));
#1946=CARTESIAN_POINT('',(-0.0561000000000018,0.0729999997635651,0.0616001493556092));
#1947=CARTESIAN_POINT('',(-0.0545153489561068,0.0729999997635651,0.0569634607668551));
#1948=CARTESIAN_POINT('',(-0.0610000000000017,0.0729999997635651,0.0616001493556092));
#1949=CARTESIAN_POINT('',(-0.0610000000000017,0.0729999997635651,0.0625501493556092));
#1950=CARTESIAN_POINT('',(-0.0427576744780543,0.0729999997635651,0.0609818050612321));
#1951=CARTESIAN_POINT('',(-0.0115000000000002,0.0719999997635651,0.0958963793556106));
#1952=CARTESIAN_POINT('',(1.53237426260336E-16,0.0719999997635651,0.0958963793556104));
#1953=CARTESIAN_POINT('',(-3.39249543631166E-17,0.0719999997635651,0.0848963793556103));
#1954=CARTESIAN_POINT('',(0.00330950373499066,0.0722861427480519,0.0943771596381064));
#1955=CARTESIAN_POINT('',(0.00316053224862348,0.072239271990272,0.094414336585972));
#1956=CARTESIAN_POINT('',(0.00284821795492718,0.0722128983011392,0.094508240309868));
#1957=CARTESIAN_POINT('',(0.0022940035422834,0.0724685581909217,0.0947348196157718));
#1958=CARTESIAN_POINT('',(0.00191714103350538,0.0726599540891071,0.0949487365290709));
#1959=CARTESIAN_POINT('',(0.0016692709800769,0.0727681757347686,0.0951207711333241));
#1960=CARTESIAN_POINT('',(0.00452016124788709,0.0729999997635651,0.0992283768447946));
#1961=CARTESIAN_POINT('',(-0.0260000000000017,0.0535714197635651,0.103857397285304));
#1962=CARTESIAN_POINT('',(-0.0590000000000017,0.0529999997635651,0.121696379355609));
#1963=CARTESIAN_POINT('',(-0.0549000000000018,0.0729999997635651,0.121696379355609));
#1964=CARTESIAN_POINT('',(-0.0471000000000017,0.0529999997635651,0.121696379355609));
#1965=CARTESIAN_POINT('',(-0.0449000000000018,0.0729999997635651,0.121696379355609));
#1966=CARTESIAN_POINT('',(-0.0371000000000017,0.0529999997635651,0.121696379355609));
#1967=CARTESIAN_POINT('',(-0.0330000000000018,0.0729999997635651,0.121696379355609));
#1968=CARTESIAN_POINT('',(-0.0133000000000001,0.0535714197635651,0.0936140708092346));
#1969=CARTESIAN_POINT('',(-0.0151,0.0535714197635651,0.0925748403246933));
#1970=CARTESIAN_POINT('',(-0.0115000000000001,0.0535714197635651,0.0946533012937758));
#1971=CARTESIAN_POINT('',(-0.00970000000000013,0.0535714197635651,0.0936140708092345));
#1972=CARTESIAN_POINT('',(-0.00790000000000014,0.0535714197635651,0.0925748403246932));
#1973=CARTESIAN_POINT('',(-0.00790000000000018,0.0535714197635651,0.0904963793556105));
#1974=CARTESIAN_POINT('',(-0.0079000000000002,0.0535714197635651,0.0884179183865279));
#1975=CARTESIAN_POINT('',(-0.00970000000000024,0.0535714197635651,0.0873786879019866));
#1976=CARTESIAN_POINT('',(-0.0115000000000002,0.0535714197635651,0.0863394574174452));
#1977=CARTESIAN_POINT('',(-0.0133000000000002,0.0535714197635651,0.0873786879019866));
#1978=CARTESIAN_POINT('',(-0.0151000000000003,0.0535714197635651,0.088417918386528));
#1979=CARTESIAN_POINT('',(-0.0151,0.0535714197635651,0.0904963793556106));
#1980=CARTESIAN_POINT('',(-0.0330000000000018,0.0381714197635652,0.0706963793556092));
#1981=MECHANICAL_DESIGN_GEOMETRIC_PRESENTATION_REPRESENTATION('',(#1173),
#1982);
#1982=(
GEOMETRIC_REPRESENTATION_CONTEXT(3)
GLOBAL_UNCERTAINTY_ASSIGNED_CONTEXT((#1983))
GLOBAL_UNIT_ASSIGNED_CONTEXT((#1986,#1985,#1984))
REPRESENTATION_CONTEXT('btrshftr C3 Plate Male',
'TOP_LEVEL_ASSEMBLY_PART')
);
#1983=UNCERTAINTY_MEASURE_WITH_UNIT(LENGTH_MEASURE(2.E-5),#1986,
'DISTANCE_ACCURACY_VALUE','Maximum Tolerance applied to model');
#1984=(
NAMED_UNIT(*)
SI_UNIT($,.STERADIAN.)
SOLID_ANGLE_UNIT()
);
#1985=(
NAMED_UNIT(*)
PLANE_ANGLE_UNIT()
SI_UNIT($,.RADIAN.)
);
#1986=(
LENGTH_UNIT()
NAMED_UNIT(*)
SI_UNIT($,.METRE.)
);
#1987=PRODUCT_DEFINITION_SHAPE('','',#1988);
#1988=PRODUCT_DEFINITION('','',#1990,#1989);
#1989=PRODUCT_DEFINITION_CONTEXT('',#1996,'design');
#1990=PRODUCT_DEFINITION_FORMATION_WITH_SPECIFIED_SOURCE('','',#1992,
 .NOT_KNOWN.);
#1991=PRODUCT_RELATED_PRODUCT_CATEGORY('','',(#1992));
#1992=PRODUCT('btrshftr C3 Plate Male','btrshftr C3 Plate Male',
'btrshftr C3 Plate Male',(#1994));
#1993=PRODUCT_CATEGORY('','');
#1994=PRODUCT_CONTEXT('',#1996,'mechanical');
#1995=APPLICATION_PROTOCOL_DEFINITION('international standard',
'ap242_managed_model_based_3d_engineering',2020,#1996);
#1996=APPLICATION_CONTEXT('managed model based 3d engineering');
ENDSEC;
END-ISO-10303-21;
