ISO-10303-21;
HEADER;
/* Generated by software containing ST-Developer
 * from STEP Tools, Inc. (www.steptools.com) 
 */
/* OPTION: using custom renumber hook */

FILE_DESCRIPTION(
/* description */ ('STEP AP242 Edition 2',
'CAx-IF Rec.Pracs.---Representation and Presentation of Product Manufa
cturing Information (PMI)---4.0---2014-10-13',
'CAx-IF Rec.Pracs.---3D Tessellated Geometry---0.4---2014-09-14','2;1',
'CAx-IF Rec.Pracs.---User Defined Attributes---1.5---2016-08-15'),
/* implementation_level */ '2;1');

FILE_NAME(
/* name */ 'Assembly 1 - PG1 Carriage Female',
/* time_stamp */ '2026-06-22T21:30:33Z',
/* author */ (''),
/* organization */ (''),
/* preprocessor_version */ 'ST-DEVELOPER v20',
/* originating_system */ 'ONSHAPE BY PTC INC, 1.216',
/* authorisation */ '  ');

FILE_SCHEMA (('AP242_MANAGED_MODEL_BASED_3D_ENGINEERING_MIM_LF { 1 0 10303 442 3 1 4 }'));
ENDSEC;

DATA;
#10=SHAPE_REPRESENTATION_RELATIONSHIP('','',#389,#11);
#11=ADVANCED_BREP_SHAPE_REPRESENTATION('',(#387),#685);
#12=CONICAL_SURFACE('',#453,0.058,0.785398163397445);
#13=CONICAL_SURFACE('',#454,0.059,0.785398163397445);
#14=TOROIDAL_SURFACE('',#449,0.008,0.002);
#15=TOROIDAL_SURFACE('',#450,0.008,0.002);
#16=TOROIDAL_SURFACE('',#451,0.008,0.002);
#17=TOROIDAL_SURFACE('',#452,0.008,0.002);
#18=PLANE('',#406);
#19=PLANE('',#423);
#20=PLANE('',#429);
#21=PLANE('',#430);
#22=PLANE('',#431);
#23=PLANE('',#432);
#24=PLANE('',#436);
#25=PLANE('',#440);
#26=PLANE('',#444);
#27=PLANE('',#448);
#28=ORIENTED_EDGE('',*,*,#96,.F.);
#29=ORIENTED_EDGE('',*,*,#97,.T.);
#30=ORIENTED_EDGE('',*,*,#98,.F.);
#31=ORIENTED_EDGE('',*,*,#99,.T.);
#32=ORIENTED_EDGE('',*,*,#100,.T.);
#33=ORIENTED_EDGE('',*,*,#101,.F.);
#34=ORIENTED_EDGE('',*,*,#102,.T.);
#35=ORIENTED_EDGE('',*,*,#103,.F.);
#36=ORIENTED_EDGE('',*,*,#104,.F.);
#37=ORIENTED_EDGE('',*,*,#105,.T.);
#38=ORIENTED_EDGE('',*,*,#106,.T.);
#39=ORIENTED_EDGE('',*,*,#102,.F.);
#40=ORIENTED_EDGE('',*,*,#100,.F.);
#41=ORIENTED_EDGE('',*,*,#98,.T.);
#42=ORIENTED_EDGE('',*,*,#96,.T.);
#43=ORIENTED_EDGE('',*,*,#104,.T.);
#44=ORIENTED_EDGE('',*,*,#107,.T.);
#45=ORIENTED_EDGE('',*,*,#108,.T.);
#46=ORIENTED_EDGE('',*,*,#109,.T.);
#47=ORIENTED_EDGE('',*,*,#110,.F.);
#48=ORIENTED_EDGE('',*,*,#111,.F.);
#49=ORIENTED_EDGE('',*,*,#112,.T.);
#50=ORIENTED_EDGE('',*,*,#113,.T.);
#51=ORIENTED_EDGE('',*,*,#114,.F.);
#52=ORIENTED_EDGE('',*,*,#115,.F.);
#53=ORIENTED_EDGE('',*,*,#116,.T.);
#54=ORIENTED_EDGE('',*,*,#117,.T.);
#55=ORIENTED_EDGE('',*,*,#118,.T.);
#56=ORIENTED_EDGE('',*,*,#119,.T.);
#57=ORIENTED_EDGE('',*,*,#120,.T.);
#58=ORIENTED_EDGE('',*,*,#121,.T.);
#59=ORIENTED_EDGE('',*,*,#113,.F.);
#60=ORIENTED_EDGE('',*,*,#111,.T.);
#61=ORIENTED_EDGE('',*,*,#99,.F.);
#62=ORIENTED_EDGE('',*,*,#109,.F.);
#63=ORIENTED_EDGE('',*,*,#115,.T.);
#64=ORIENTED_EDGE('',*,*,#116,.F.);
#65=ORIENTED_EDGE('',*,*,#110,.T.);
#66=ORIENTED_EDGE('',*,*,#112,.F.);
#67=ORIENTED_EDGE('',*,*,#114,.T.);
#68=ORIENTED_EDGE('',*,*,#122,.T.);
#69=ORIENTED_EDGE('',*,*,#123,.F.);
#70=ORIENTED_EDGE('',*,*,#103,.T.);
#71=ORIENTED_EDGE('',*,*,#123,.T.);
#72=ORIENTED_EDGE('',*,*,#124,.T.);
#73=ORIENTED_EDGE('',*,*,#125,.F.);
#74=ORIENTED_EDGE('',*,*,#105,.F.);
#75=ORIENTED_EDGE('',*,*,#125,.T.);
#76=ORIENTED_EDGE('',*,*,#126,.T.);
#77=ORIENTED_EDGE('',*,*,#127,.F.);
#78=ORIENTED_EDGE('',*,*,#97,.F.);
#79=ORIENTED_EDGE('',*,*,#127,.T.);
#80=ORIENTED_EDGE('',*,*,#128,.T.);
#81=ORIENTED_EDGE('',*,*,#129,.F.);
#82=ORIENTED_EDGE('',*,*,#101,.T.);
#83=ORIENTED_EDGE('',*,*,#129,.T.);
#84=ORIENTED_EDGE('',*,*,#118,.F.);
#85=ORIENTED_EDGE('',*,*,#126,.F.);
#86=ORIENTED_EDGE('',*,*,#119,.F.);
#87=ORIENTED_EDGE('',*,*,#124,.F.);
#88=ORIENTED_EDGE('',*,*,#120,.F.);
#89=ORIENTED_EDGE('',*,*,#122,.F.);
#90=ORIENTED_EDGE('',*,*,#121,.F.);
#91=ORIENTED_EDGE('',*,*,#128,.F.);
#92=ORIENTED_EDGE('',*,*,#107,.F.);
#93=ORIENTED_EDGE('',*,*,#117,.F.);
#94=ORIENTED_EDGE('',*,*,#106,.F.);
#95=ORIENTED_EDGE('',*,*,#108,.F.);
#96=EDGE_CURVE('',#130,#130,#164,.T.);
#97=EDGE_CURVE('',#131,#131,#165,.T.);
#98=EDGE_CURVE('',#132,#132,#166,.T.);
#99=EDGE_CURVE('',#133,#133,#167,.T.);
#100=EDGE_CURVE('',#134,#134,#168,.F.);
#101=EDGE_CURVE('',#135,#135,#169,.F.);
#102=EDGE_CURVE('',#136,#136,#170,.F.);
#103=EDGE_CURVE('',#137,#137,#171,.F.);
#104=EDGE_CURVE('',#138,#138,#172,.T.);
#105=EDGE_CURVE('',#139,#139,#173,.T.);
#106=EDGE_CURVE('',#140,#140,#174,.F.);
#107=EDGE_CURVE('',#141,#141,#175,.F.);
#108=EDGE_CURVE('',#142,#142,#176,.T.);
#109=EDGE_CURVE('',#143,#143,#177,.T.);
#110=EDGE_CURVE('',#144,#144,#178,.T.);
#111=EDGE_CURVE('',#145,#145,#179,.T.);
#112=EDGE_CURVE('',#146,#146,#180,.T.);
#113=EDGE_CURVE('',#147,#147,#181,.T.);
#114=EDGE_CURVE('',#148,#148,#182,.T.);
#115=EDGE_CURVE('',#149,#149,#183,.T.);
#116=EDGE_CURVE('',#150,#150,#184,.T.);
#117=EDGE_CURVE('',#151,#151,#185,.T.);
#118=EDGE_CURVE('',#152,#152,#186,.F.);
#119=EDGE_CURVE('',#153,#153,#187,.F.);
#120=EDGE_CURVE('',#154,#154,#188,.F.);
#121=EDGE_CURVE('',#155,#155,#189,.F.);
#122=EDGE_CURVE('',#156,#156,#190,.T.);
#123=EDGE_CURVE('',#157,#157,#191,.T.);
#124=EDGE_CURVE('',#158,#158,#192,.T.);
#125=EDGE_CURVE('',#159,#159,#193,.T.);
#126=EDGE_CURVE('',#160,#160,#194,.T.);
#127=EDGE_CURVE('',#161,#161,#195,.T.);
#128=EDGE_CURVE('',#162,#162,#196,.T.);
#129=EDGE_CURVE('',#163,#163,#197,.T.);
#130=VERTEX_POINT('',#588);
#131=VERTEX_POINT('',#590);
#132=VERTEX_POINT('',#593);
#133=VERTEX_POINT('',#595);
#134=VERTEX_POINT('',#598);
#135=VERTEX_POINT('',#600);
#136=VERTEX_POINT('',#603);
#137=VERTEX_POINT('',#605);
#138=VERTEX_POINT('',#608);
#139=VERTEX_POINT('',#610);
#140=VERTEX_POINT('',#613);
#141=VERTEX_POINT('',#616);
#142=VERTEX_POINT('',#618);
#143=VERTEX_POINT('',#621);
#144=VERTEX_POINT('',#623);
#145=VERTEX_POINT('',#626);
#146=VERTEX_POINT('',#628);
#147=VERTEX_POINT('',#631);
#148=VERTEX_POINT('',#633);
#149=VERTEX_POINT('',#636);
#150=VERTEX_POINT('',#638);
#151=VERTEX_POINT('',#641);
#152=VERTEX_POINT('',#643);
#153=VERTEX_POINT('',#645);
#154=VERTEX_POINT('',#647);
#155=VERTEX_POINT('',#649);
#156=VERTEX_POINT('',#656);
#157=VERTEX_POINT('',#658);
#158=VERTEX_POINT('',#662);
#159=VERTEX_POINT('',#664);
#160=VERTEX_POINT('',#668);
#161=VERTEX_POINT('',#670);
#162=VERTEX_POINT('',#674);
#163=VERTEX_POINT('',#676);
#164=CIRCLE('',#392,0.00215);
#165=CIRCLE('',#393,0.00215);
#166=CIRCLE('',#395,0.01);
#167=CIRCLE('',#396,0.01);
#168=CIRCLE('',#398,0.00215);
#169=CIRCLE('',#399,0.00215);
#170=CIRCLE('',#401,0.00215);
#171=CIRCLE('',#402,0.00215);
#172=CIRCLE('',#404,0.00215);
#173=CIRCLE('',#405,0.00215);
#174=CIRCLE('',#407,0.058);
#175=CIRCLE('',#409,0.059);
#176=CIRCLE('',#410,0.059);
#177=CIRCLE('',#412,0.007);
#178=CIRCLE('',#413,0.007);
#179=CIRCLE('',#415,0.007);
#180=CIRCLE('',#416,0.007);
#181=CIRCLE('',#418,0.007);
#182=CIRCLE('',#419,0.007);
#183=CIRCLE('',#421,0.007);
#184=CIRCLE('',#422,0.007);
#185=CIRCLE('',#424,0.058);
#186=CIRCLE('',#425,0.008);
#187=CIRCLE('',#426,0.008);
#188=CIRCLE('',#427,0.008);
#189=CIRCLE('',#428,0.008);
#190=CIRCLE('',#434,0.006);
#191=CIRCLE('',#435,0.006);
#192=CIRCLE('',#438,0.006);
#193=CIRCLE('',#439,0.006);
#194=CIRCLE('',#442,0.006);
#195=CIRCLE('',#443,0.006);
#196=CIRCLE('',#446,0.006);
#197=CIRCLE('',#447,0.006);
#198=EDGE_LOOP('',(#28));
#199=EDGE_LOOP('',(#29));
#200=EDGE_LOOP('',(#30));
#201=EDGE_LOOP('',(#31));
#202=EDGE_LOOP('',(#32));
#203=EDGE_LOOP('',(#33));
#204=EDGE_LOOP('',(#34));
#205=EDGE_LOOP('',(#35));
#206=EDGE_LOOP('',(#36));
#207=EDGE_LOOP('',(#37));
#208=EDGE_LOOP('',(#38));
#209=EDGE_LOOP('',(#39));
#210=EDGE_LOOP('',(#40));
#211=EDGE_LOOP('',(#41));
#212=EDGE_LOOP('',(#42));
#213=EDGE_LOOP('',(#43));
#214=EDGE_LOOP('',(#44));
#215=EDGE_LOOP('',(#45));
#216=EDGE_LOOP('',(#46));
#217=EDGE_LOOP('',(#47));
#218=EDGE_LOOP('',(#48));
#219=EDGE_LOOP('',(#49));
#220=EDGE_LOOP('',(#50));
#221=EDGE_LOOP('',(#51));
#222=EDGE_LOOP('',(#52));
#223=EDGE_LOOP('',(#53));
#224=EDGE_LOOP('',(#54));
#225=EDGE_LOOP('',(#55));
#226=EDGE_LOOP('',(#56));
#227=EDGE_LOOP('',(#57));
#228=EDGE_LOOP('',(#58));
#229=EDGE_LOOP('',(#59));
#230=EDGE_LOOP('',(#60));
#231=EDGE_LOOP('',(#61));
#232=EDGE_LOOP('',(#62));
#233=EDGE_LOOP('',(#63));
#234=EDGE_LOOP('',(#64));
#235=EDGE_LOOP('',(#65));
#236=EDGE_LOOP('',(#66));
#237=EDGE_LOOP('',(#67));
#238=EDGE_LOOP('',(#68));
#239=EDGE_LOOP('',(#69));
#240=EDGE_LOOP('',(#70));
#241=EDGE_LOOP('',(#71));
#242=EDGE_LOOP('',(#72));
#243=EDGE_LOOP('',(#73));
#244=EDGE_LOOP('',(#74));
#245=EDGE_LOOP('',(#75));
#246=EDGE_LOOP('',(#76));
#247=EDGE_LOOP('',(#77));
#248=EDGE_LOOP('',(#78));
#249=EDGE_LOOP('',(#79));
#250=EDGE_LOOP('',(#80));
#251=EDGE_LOOP('',(#81));
#252=EDGE_LOOP('',(#82));
#253=EDGE_LOOP('',(#83));
#254=EDGE_LOOP('',(#84));
#255=EDGE_LOOP('',(#85));
#256=EDGE_LOOP('',(#86));
#257=EDGE_LOOP('',(#87));
#258=EDGE_LOOP('',(#88));
#259=EDGE_LOOP('',(#89));
#260=EDGE_LOOP('',(#90));
#261=EDGE_LOOP('',(#91));
#262=EDGE_LOOP('',(#92));
#263=EDGE_LOOP('',(#93));
#264=EDGE_LOOP('',(#94));
#265=EDGE_LOOP('',(#95));
#266=FACE_BOUND('',#198,.T.);
#267=FACE_BOUND('',#199,.T.);
#268=FACE_BOUND('',#200,.T.);
#269=FACE_BOUND('',#201,.T.);
#270=FACE_BOUND('',#202,.T.);
#271=FACE_BOUND('',#203,.T.);
#272=FACE_BOUND('',#204,.T.);
#273=FACE_BOUND('',#205,.T.);
#274=FACE_BOUND('',#206,.T.);
#275=FACE_BOUND('',#207,.T.);
#276=FACE_BOUND('',#208,.T.);
#277=FACE_BOUND('',#209,.T.);
#278=FACE_BOUND('',#210,.T.);
#279=FACE_BOUND('',#211,.T.);
#280=FACE_BOUND('',#212,.T.);
#281=FACE_BOUND('',#213,.T.);
#282=FACE_BOUND('',#214,.T.);
#283=FACE_BOUND('',#215,.T.);
#284=FACE_BOUND('',#216,.T.);
#285=FACE_BOUND('',#217,.T.);
#286=FACE_BOUND('',#218,.T.);
#287=FACE_BOUND('',#219,.T.);
#288=FACE_BOUND('',#220,.T.);
#289=FACE_BOUND('',#221,.T.);
#290=FACE_BOUND('',#222,.T.);
#291=FACE_BOUND('',#223,.T.);
#292=FACE_BOUND('',#224,.T.);
#293=FACE_BOUND('',#225,.T.);
#294=FACE_BOUND('',#226,.T.);
#295=FACE_BOUND('',#227,.T.);
#296=FACE_BOUND('',#228,.T.);
#297=FACE_BOUND('',#229,.T.);
#298=FACE_BOUND('',#230,.T.);
#299=FACE_BOUND('',#231,.T.);
#300=FACE_BOUND('',#232,.T.);
#301=FACE_BOUND('',#233,.T.);
#302=FACE_BOUND('',#234,.T.);
#303=FACE_BOUND('',#235,.T.);
#304=FACE_BOUND('',#236,.T.);
#305=FACE_BOUND('',#237,.T.);
#306=FACE_BOUND('',#238,.T.);
#307=FACE_BOUND('',#239,.T.);
#308=FACE_BOUND('',#240,.T.);
#309=FACE_BOUND('',#241,.T.);
#310=FACE_BOUND('',#242,.T.);
#311=FACE_BOUND('',#243,.T.);
#312=FACE_BOUND('',#244,.T.);
#313=FACE_BOUND('',#245,.T.);
#314=FACE_BOUND('',#246,.T.);
#315=FACE_BOUND('',#247,.T.);
#316=FACE_BOUND('',#248,.T.);
#317=FACE_BOUND('',#249,.T.);
#318=FACE_BOUND('',#250,.T.);
#319=FACE_BOUND('',#251,.T.);
#320=FACE_BOUND('',#252,.T.);
#321=FACE_BOUND('',#253,.T.);
#322=FACE_BOUND('',#254,.T.);
#323=FACE_BOUND('',#255,.T.);
#324=FACE_BOUND('',#256,.T.);
#325=FACE_BOUND('',#257,.T.);
#326=FACE_BOUND('',#258,.T.);
#327=FACE_BOUND('',#259,.T.);
#328=FACE_BOUND('',#260,.T.);
#329=FACE_BOUND('',#261,.T.);
#330=FACE_BOUND('',#262,.T.);
#331=FACE_BOUND('',#263,.T.);
#332=FACE_BOUND('',#264,.T.);
#333=FACE_BOUND('',#265,.T.);
#334=CYLINDRICAL_SURFACE('',#391,0.00215);
#335=CYLINDRICAL_SURFACE('',#394,0.01);
#336=CYLINDRICAL_SURFACE('',#397,0.00215);
#337=CYLINDRICAL_SURFACE('',#400,0.00215);
#338=CYLINDRICAL_SURFACE('',#403,0.00215);
#339=CYLINDRICAL_SURFACE('',#408,0.059);
#340=CYLINDRICAL_SURFACE('',#411,0.007);
#341=CYLINDRICAL_SURFACE('',#414,0.007);
#342=CYLINDRICAL_SURFACE('',#417,0.007);
#343=CYLINDRICAL_SURFACE('',#420,0.007);
#344=CYLINDRICAL_SURFACE('',#433,0.006);
#345=CYLINDRICAL_SURFACE('',#437,0.006);
#346=CYLINDRICAL_SURFACE('',#441,0.006);
#347=CYLINDRICAL_SURFACE('',#445,0.006);
#348=ADVANCED_FACE('',(#266,#267),#334,.F.);
#349=ADVANCED_FACE('',(#268,#269),#335,.F.);
#350=ADVANCED_FACE('',(#270,#271),#336,.F.);
#351=ADVANCED_FACE('',(#272,#273),#337,.F.);
#352=ADVANCED_FACE('',(#274,#275),#338,.F.);
#353=ADVANCED_FACE('',(#276,#277,#278,#279,#280,#281),#18,.F.);
#354=ADVANCED_FACE('',(#282,#283),#339,.T.);
#355=ADVANCED_FACE('',(#284,#285),#340,.F.);
#356=ADVANCED_FACE('',(#286,#287),#341,.F.);
#357=ADVANCED_FACE('',(#288,#289),#342,.F.);
#358=ADVANCED_FACE('',(#290,#291),#343,.F.);
#359=ADVANCED_FACE('',(#292,#293,#294,#295,#296,#297,#298,#299,#300,#301),
#19,.T.);
#360=ADVANCED_FACE('',(#302),#20,.T.);
#361=ADVANCED_FACE('',(#303),#21,.T.);
#362=ADVANCED_FACE('',(#304),#22,.T.);
#363=ADVANCED_FACE('',(#305),#23,.T.);
#364=ADVANCED_FACE('',(#306,#307),#344,.T.);
#365=ADVANCED_FACE('',(#308,#309),#24,.T.);
#366=ADVANCED_FACE('',(#310,#311),#345,.T.);
#367=ADVANCED_FACE('',(#312,#313),#25,.T.);
#368=ADVANCED_FACE('',(#314,#315),#346,.T.);
#369=ADVANCED_FACE('',(#316,#317),#26,.T.);
#370=ADVANCED_FACE('',(#318,#319),#347,.T.);
#371=ADVANCED_FACE('',(#320,#321),#27,.T.);
#372=ADVANCED_FACE('',(#322,#323),#14,.F.);
#373=ADVANCED_FACE('',(#324,#325),#15,.F.);
#374=ADVANCED_FACE('',(#326,#327),#16,.F.);
#375=ADVANCED_FACE('',(#328,#329),#17,.F.);
#376=ADVANCED_FACE('',(#330,#331),#12,.T.);
#377=ADVANCED_FACE('',(#332,#333),#13,.T.);
#378=CLOSED_SHELL('',(#348,#349,#350,#351,#352,#353,#354,#355,#356,#357,
#358,#359,#360,#361,#362,#363,#364,#365,#366,#367,#368,#369,#370,#371,#372,
#373,#374,#375,#376,#377));
#379=STYLED_ITEM('',(#380),#387);
#380=PRESENTATION_STYLE_ASSIGNMENT((#381));
#381=SURFACE_STYLE_USAGE(.BOTH.,#382);
#382=SURFACE_SIDE_STYLE('',(#383));
#383=SURFACE_STYLE_FILL_AREA(#384);
#384=FILL_AREA_STYLE('',(#385));
#385=FILL_AREA_STYLE_COLOUR('',#386);
#386=COLOUR_RGB('',0.541176470588235,0.682352941176471,0.83921568627451);
#387=MANIFOLD_SOLID_BREP('PG1 Carriage Female',#378);
#388=SHAPE_DEFINITION_REPRESENTATION(#690,#389);
#389=SHAPE_REPRESENTATION('PG1 Carriage Female',(#390),#685);
#390=AXIS2_PLACEMENT_3D('',#585,#455,#456);
#391=AXIS2_PLACEMENT_3D('',#586,#457,#458);
#392=AXIS2_PLACEMENT_3D('',#587,#459,#460);
#393=AXIS2_PLACEMENT_3D('',#589,#461,#462);
#394=AXIS2_PLACEMENT_3D('',#591,#463,#464);
#395=AXIS2_PLACEMENT_3D('',#592,#465,#466);
#396=AXIS2_PLACEMENT_3D('',#594,#467,#468);
#397=AXIS2_PLACEMENT_3D('',#596,#469,#470);
#398=AXIS2_PLACEMENT_3D('',#597,#471,#472);
#399=AXIS2_PLACEMENT_3D('',#599,#473,#474);
#400=AXIS2_PLACEMENT_3D('',#601,#475,#476);
#401=AXIS2_PLACEMENT_3D('',#602,#477,#478);
#402=AXIS2_PLACEMENT_3D('',#604,#479,#480);
#403=AXIS2_PLACEMENT_3D('',#606,#481,#482);
#404=AXIS2_PLACEMENT_3D('',#607,#483,#484);
#405=AXIS2_PLACEMENT_3D('',#609,#485,#486);
#406=AXIS2_PLACEMENT_3D('',#611,#487,#488);
#407=AXIS2_PLACEMENT_3D('',#612,#489,#490);
#408=AXIS2_PLACEMENT_3D('',#614,#491,#492);
#409=AXIS2_PLACEMENT_3D('',#615,#493,#494);
#410=AXIS2_PLACEMENT_3D('',#617,#495,#496);
#411=AXIS2_PLACEMENT_3D('',#619,#497,#498);
#412=AXIS2_PLACEMENT_3D('',#620,#499,#500);
#413=AXIS2_PLACEMENT_3D('',#622,#501,#502);
#414=AXIS2_PLACEMENT_3D('',#624,#503,#504);
#415=AXIS2_PLACEMENT_3D('',#625,#505,#506);
#416=AXIS2_PLACEMENT_3D('',#627,#507,#508);
#417=AXIS2_PLACEMENT_3D('',#629,#509,#510);
#418=AXIS2_PLACEMENT_3D('',#630,#511,#512);
#419=AXIS2_PLACEMENT_3D('',#632,#513,#514);
#420=AXIS2_PLACEMENT_3D('',#634,#515,#516);
#421=AXIS2_PLACEMENT_3D('',#635,#517,#518);
#422=AXIS2_PLACEMENT_3D('',#637,#519,#520);
#423=AXIS2_PLACEMENT_3D('',#639,#521,#522);
#424=AXIS2_PLACEMENT_3D('',#640,#523,#524);
#425=AXIS2_PLACEMENT_3D('',#642,#525,#526);
#426=AXIS2_PLACEMENT_3D('',#644,#527,#528);
#427=AXIS2_PLACEMENT_3D('',#646,#529,#530);
#428=AXIS2_PLACEMENT_3D('',#648,#531,#532);
#429=AXIS2_PLACEMENT_3D('',#650,#533,#534);
#430=AXIS2_PLACEMENT_3D('',#651,#535,#536);
#431=AXIS2_PLACEMENT_3D('',#652,#537,#538);
#432=AXIS2_PLACEMENT_3D('',#653,#539,#540);
#433=AXIS2_PLACEMENT_3D('',#654,#541,#542);
#434=AXIS2_PLACEMENT_3D('',#655,#543,#544);
#435=AXIS2_PLACEMENT_3D('',#657,#545,#546);
#436=AXIS2_PLACEMENT_3D('',#659,#547,#548);
#437=AXIS2_PLACEMENT_3D('',#660,#549,#550);
#438=AXIS2_PLACEMENT_3D('',#661,#551,#552);
#439=AXIS2_PLACEMENT_3D('',#663,#553,#554);
#440=AXIS2_PLACEMENT_3D('',#665,#555,#556);
#441=AXIS2_PLACEMENT_3D('',#666,#557,#558);
#442=AXIS2_PLACEMENT_3D('',#667,#559,#560);
#443=AXIS2_PLACEMENT_3D('',#669,#561,#562);
#444=AXIS2_PLACEMENT_3D('',#671,#563,#564);
#445=AXIS2_PLACEMENT_3D('',#672,#565,#566);
#446=AXIS2_PLACEMENT_3D('',#673,#567,#568);
#447=AXIS2_PLACEMENT_3D('',#675,#569,#570);
#448=AXIS2_PLACEMENT_3D('',#677,#571,#572);
#449=AXIS2_PLACEMENT_3D('',#678,#573,#574);
#450=AXIS2_PLACEMENT_3D('',#679,#575,#576);
#451=AXIS2_PLACEMENT_3D('',#680,#577,#578);
#452=AXIS2_PLACEMENT_3D('',#681,#579,#580);
#453=AXIS2_PLACEMENT_3D('',#682,#581,#582);
#454=AXIS2_PLACEMENT_3D('',#683,#583,#584);
#455=DIRECTION('',(0.,0.,1.));
#456=DIRECTION('',(1.,0.,0.));
#457=DIRECTION('',(0.,-1.,0.));
#458=DIRECTION('',(0.,0.,-1.));
#459=DIRECTION('',(0.,1.,0.));
#460=DIRECTION('',(0.,0.,1.));
#461=DIRECTION('',(0.,1.,0.));
#462=DIRECTION('',(0.,0.,1.));
#463=DIRECTION('',(0.,-1.,0.));
#464=DIRECTION('',(0.,0.,-1.));
#465=DIRECTION('',(0.,1.,0.));
#466=DIRECTION('',(0.,0.,1.));
#467=DIRECTION('',(0.,1.,0.));
#468=DIRECTION('',(0.,0.,1.));
#469=DIRECTION('',(0.,-1.,0.));
#470=DIRECTION('',(0.,0.,-1.));
#471=DIRECTION('',(0.,1.,0.));
#472=DIRECTION('',(0.,0.,1.));
#473=DIRECTION('',(0.,1.,0.));
#474=DIRECTION('',(0.,0.,1.));
#475=DIRECTION('',(0.,-1.,0.));
#476=DIRECTION('',(0.,0.,-1.));
#477=DIRECTION('',(0.,1.,0.));
#478=DIRECTION('',(0.,0.,1.));
#479=DIRECTION('',(0.,1.,0.));
#480=DIRECTION('',(0.,0.,1.));
#481=DIRECTION('',(0.,-1.,0.));
#482=DIRECTION('',(0.,0.,-1.));
#483=DIRECTION('',(0.,1.,0.));
#484=DIRECTION('',(0.,0.,1.));
#485=DIRECTION('',(0.,1.,0.));
#486=DIRECTION('',(0.,0.,1.));
#487=DIRECTION('',(0.,1.,0.));
#488=DIRECTION('',(-1.,0.,0.));
#489=DIRECTION('',(0.,1.,0.));
#490=DIRECTION('',(0.,0.,1.));
#491=DIRECTION('',(0.,1.,0.));
#492=DIRECTION('',(0.,0.,1.));
#493=DIRECTION('',(0.,1.,0.));
#494=DIRECTION('',(0.,0.,1.));
#495=DIRECTION('',(0.,1.,0.));
#496=DIRECTION('',(0.,0.,1.));
#497=DIRECTION('',(0.,-1.,0.));
#498=DIRECTION('',(0.,0.,-1.));
#499=DIRECTION('',(0.,1.,0.));
#500=DIRECTION('',(0.,0.,1.));
#501=DIRECTION('',(0.,1.,0.));
#502=DIRECTION('',(0.,0.,1.));
#503=DIRECTION('',(0.,-1.,0.));
#504=DIRECTION('',(0.,0.,-1.));
#505=DIRECTION('',(0.,-1.,0.));
#506=DIRECTION('',(0.,0.,1.));
#507=DIRECTION('',(0.,-1.,0.));
#508=DIRECTION('',(0.,0.,1.));
#509=DIRECTION('',(0.,-1.,0.));
#510=DIRECTION('',(0.,0.,-1.));
#511=DIRECTION('',(0.,1.,0.));
#512=DIRECTION('',(0.,0.,1.));
#513=DIRECTION('',(0.,1.,0.));
#514=DIRECTION('',(0.,0.,1.));
#515=DIRECTION('',(0.,-1.,0.));
#516=DIRECTION('',(0.,0.,-1.));
#517=DIRECTION('',(0.,-1.,0.));
#518=DIRECTION('',(0.,0.,1.));
#519=DIRECTION('',(0.,-1.,0.));
#520=DIRECTION('',(0.,0.,1.));
#521=DIRECTION('',(0.,1.,0.));
#522=DIRECTION('',(-1.,0.,0.));
#523=DIRECTION('',(0.,1.,0.));
#524=DIRECTION('',(0.,0.,1.));
#525=DIRECTION('',(0.,1.,0.));
#526=DIRECTION('',(0.,0.,1.));
#527=DIRECTION('',(0.,1.,0.));
#528=DIRECTION('',(0.,0.,1.));
#529=DIRECTION('',(0.,1.,0.));
#530=DIRECTION('',(0.,0.,1.));
#531=DIRECTION('',(0.,1.,0.));
#532=DIRECTION('',(0.,0.,1.));
#533=DIRECTION('',(0.,1.,0.));
#534=DIRECTION('',(-1.,0.,0.));
#535=DIRECTION('',(0.,1.,0.));
#536=DIRECTION('',(-1.,0.,0.));
#537=DIRECTION('',(0.,1.,0.));
#538=DIRECTION('',(-1.,0.,0.));
#539=DIRECTION('',(0.,1.,0.));
#540=DIRECTION('',(-1.,0.,0.));
#541=DIRECTION('',(0.,-1.,0.));
#542=DIRECTION('',(0.,0.,-1.));
#543=DIRECTION('',(0.,1.,0.));
#544=DIRECTION('',(0.,0.,1.));
#545=DIRECTION('',(0.,1.,0.));
#546=DIRECTION('',(0.,0.,1.));
#547=DIRECTION('',(0.,1.,0.));
#548=DIRECTION('',(-1.,0.,0.));
#549=DIRECTION('',(0.,-1.,0.));
#550=DIRECTION('',(0.,0.,-1.));
#551=DIRECTION('',(0.,1.,0.));
#552=DIRECTION('',(0.,0.,1.));
#553=DIRECTION('',(0.,1.,0.));
#554=DIRECTION('',(0.,0.,1.));
#555=DIRECTION('',(0.,1.,0.));
#556=DIRECTION('',(-1.,0.,0.));
#557=DIRECTION('',(0.,-1.,0.));
#558=DIRECTION('',(0.,0.,-1.));
#559=DIRECTION('',(0.,1.,0.));
#560=DIRECTION('',(0.,0.,1.));
#561=DIRECTION('',(0.,1.,0.));
#562=DIRECTION('',(0.,0.,1.));
#563=DIRECTION('',(0.,1.,0.));
#564=DIRECTION('',(-1.,0.,0.));
#565=DIRECTION('',(0.,-1.,0.));
#566=DIRECTION('',(0.,0.,-1.));
#567=DIRECTION('',(0.,1.,0.));
#568=DIRECTION('',(0.,0.,1.));
#569=DIRECTION('',(0.,1.,0.));
#570=DIRECTION('',(0.,0.,1.));
#571=DIRECTION('',(0.,1.,0.));
#572=DIRECTION('',(-1.,0.,0.));
#573=DIRECTION('',(0.,1.,0.));
#574=DIRECTION('',(0.,0.,1.));
#575=DIRECTION('',(0.,1.,0.));
#576=DIRECTION('',(0.,0.,1.));
#577=DIRECTION('',(0.,1.,0.));
#578=DIRECTION('',(0.,0.,1.));
#579=DIRECTION('',(0.,1.,0.));
#580=DIRECTION('',(0.,0.,1.));
#581=DIRECTION('',(0.,-1.,0.));
#582=DIRECTION('',(0.,0.,-1.));
#583=DIRECTION('',(0.,1.,0.));
#584=DIRECTION('',(0.,0.,1.));
#585=CARTESIAN_POINT('',(0.,0.,0.));
#586=CARTESIAN_POINT('',(0.0138518158046896,0.0433,-0.0380575511418293));
#587=CARTESIAN_POINT('',(0.0138518158046896,0.0393,-0.0380575511418293));
#588=CARTESIAN_POINT('',(0.0138518158046896,0.0393,-0.0359075511418293));
#589=CARTESIAN_POINT('',(0.0138518158046896,0.0553,-0.0380575511418293));
#590=CARTESIAN_POINT('',(0.0138518158046896,0.0553,-0.0359075511418293));
#591=CARTESIAN_POINT('',(0.,0.0433,1.22464679914735E-18));
#592=CARTESIAN_POINT('',(0.,0.0393,1.22464679914735E-18));
#593=CARTESIAN_POINT('',(0.,0.0393,0.01));
#594=CARTESIAN_POINT('',(0.,0.0473,1.22464679914735E-18));
#595=CARTESIAN_POINT('',(0.,0.0473,0.01));
#596=CARTESIAN_POINT('',(0.0380575511418293,0.0433,0.0138518158046896));
#597=CARTESIAN_POINT('',(0.0380575511418293,0.0393,0.0138518158046896));
#598=CARTESIAN_POINT('',(0.0380575511418293,0.0393,0.0160018158046896));
#599=CARTESIAN_POINT('',(0.0380575511418293,0.0553,0.0138518158046896));
#600=CARTESIAN_POINT('',(0.0380575511418293,0.0553,0.0160018158046896));
#601=CARTESIAN_POINT('',(-0.0138518158046896,0.0433,0.0380575511418293));
#602=CARTESIAN_POINT('',(-0.0138518158046896,0.0393,0.0380575511418293));
#603=CARTESIAN_POINT('',(-0.0138518158046896,0.0393,0.0402075511418293));
#604=CARTESIAN_POINT('',(-0.0138518158046896,0.0553,0.0380575511418293));
#605=CARTESIAN_POINT('',(-0.0138518158046896,0.0553,0.0402075511418293));
#606=CARTESIAN_POINT('',(-0.0380575511418293,0.0433,-0.0138518158046896));
#607=CARTESIAN_POINT('',(-0.0380575511418293,0.0393,-0.0138518158046896));
#608=CARTESIAN_POINT('',(-0.0380575511418293,0.0393,-0.0117018158046896));
#609=CARTESIAN_POINT('',(-0.0380575511418293,0.0553,-0.0138518158046896));
#610=CARTESIAN_POINT('',(-0.0380575511418293,0.0553,-0.0117018158046896));
#611=CARTESIAN_POINT('',(0.,0.0393,0.));
#612=CARTESIAN_POINT('',(0.,0.0393,4.83735485663205E-18));
#613=CARTESIAN_POINT('',(0.,0.0393,0.058));
#614=CARTESIAN_POINT('',(0.,0.0393,4.83735485663205E-18));
#615=CARTESIAN_POINT('',(0.,0.0463,4.83735485663205E-18));
#616=CARTESIAN_POINT('',(0.,0.0463,0.059));
#617=CARTESIAN_POINT('',(0.,0.0403,4.83735485663205E-18));
#618=CARTESIAN_POINT('',(0.,0.0403,0.059));
#619=CARTESIAN_POINT('',(0.0371586192685026,0.0473,-0.0173273487313687));
#620=CARTESIAN_POINT('',(0.0371586192685026,0.0473,-0.0173273487313687));
#621=CARTESIAN_POINT('',(0.0371586192685026,0.0473,-0.0103273487313687));
#622=CARTESIAN_POINT('',(0.0371586192685026,0.0433,-0.0173273487313687));
#623=CARTESIAN_POINT('',(0.0371586192685026,0.0433,-0.0103273487313687));
#624=CARTESIAN_POINT('',(-0.0371586192685026,0.0473,0.0173273487313687));
#625=CARTESIAN_POINT('',(-0.0371586192685026,0.0473,0.0173273487313687));
#626=CARTESIAN_POINT('',(-0.0371586192685026,0.0473,0.0243273487313687));
#627=CARTESIAN_POINT('',(-0.0371586192685026,0.0433,0.0173273487313687));
#628=CARTESIAN_POINT('',(-0.0371586192685026,0.0433,0.0243273487313687));
#629=CARTESIAN_POINT('',(0.0173273487313687,0.0473,0.0371586192685026));
#630=CARTESIAN_POINT('',(0.0173273487313687,0.0473,0.0371586192685026));
#631=CARTESIAN_POINT('',(0.0173273487313687,0.0473,0.0441586192685026));
#632=CARTESIAN_POINT('',(0.0173273487313687,0.0433,0.0371586192685026));
#633=CARTESIAN_POINT('',(0.0173273487313687,0.0433,0.0441586192685026));
#634=CARTESIAN_POINT('',(-0.0173273487313687,0.0473,-0.0371586192685026));
#635=CARTESIAN_POINT('',(-0.0173273487313687,0.0473,-0.0371586192685026));
#636=CARTESIAN_POINT('',(-0.0173273487313687,0.0473,-0.0301586192685026));
#637=CARTESIAN_POINT('',(-0.0173273487313687,0.0433,-0.0371586192685026));
#638=CARTESIAN_POINT('',(-0.0173273487313687,0.0433,-0.0301586192685026));
#639=CARTESIAN_POINT('',(0.,0.0473,6.93889390390723E-18));
#640=CARTESIAN_POINT('',(0.,0.0473,4.83735485663205E-18));
#641=CARTESIAN_POINT('',(0.,0.0473,0.058));
#642=CARTESIAN_POINT('',(0.0138518158046896,0.0473,-0.0380575511418293));
#643=CARTESIAN_POINT('',(0.0138518158046896,0.0473,-0.0300575511418293));
#644=CARTESIAN_POINT('',(-0.0380575511418293,0.0473,-0.0138518158046896));
#645=CARTESIAN_POINT('',(-0.0380575511418293,0.0473,-0.00585181580468958));
#646=CARTESIAN_POINT('',(-0.0138518158046896,0.0473,0.0380575511418293));
#647=CARTESIAN_POINT('',(-0.0138518158046896,0.0473,0.0460575511418293));
#648=CARTESIAN_POINT('',(0.0380575511418293,0.0473,0.0138518158046896));
#649=CARTESIAN_POINT('',(0.0380575511418293,0.0473,0.0218518158046896));
#650=CARTESIAN_POINT('',(0.,0.0433,0.));
#651=CARTESIAN_POINT('',(0.,0.0433,0.));
#652=CARTESIAN_POINT('',(0.,0.0433,0.));
#653=CARTESIAN_POINT('',(0.,0.0433,0.));
#654=CARTESIAN_POINT('',(-0.0138518158046896,0.0553,0.0380575511418293));
#655=CARTESIAN_POINT('',(-0.0138518158046896,0.0493,0.0380575511418293));
#656=CARTESIAN_POINT('',(-0.0138518158046896,0.0493,0.0440575511418293));
#657=CARTESIAN_POINT('',(-0.0138518158046896,0.0553,0.0380575511418293));
#658=CARTESIAN_POINT('',(-0.0138518158046896,0.0553,0.0440575511418293));
#659=CARTESIAN_POINT('',(0.,0.0553,6.93889390390723E-18));
#660=CARTESIAN_POINT('',(-0.0380575511418293,0.0553,-0.0138518158046896));
#661=CARTESIAN_POINT('',(-0.0380575511418293,0.0493,-0.0138518158046896));
#662=CARTESIAN_POINT('',(-0.0380575511418293,0.0493,-0.00785181580468958));
#663=CARTESIAN_POINT('',(-0.0380575511418293,0.0553,-0.0138518158046896));
#664=CARTESIAN_POINT('',(-0.0380575511418293,0.0553,-0.00785181580468958));
#665=CARTESIAN_POINT('',(0.,0.0553,6.93889390390723E-18));
#666=CARTESIAN_POINT('',(0.0138518158046896,0.0553,-0.0380575511418293));
#667=CARTESIAN_POINT('',(0.0138518158046896,0.0493,-0.0380575511418293));
#668=CARTESIAN_POINT('',(0.0138518158046896,0.0493,-0.0320575511418293));
#669=CARTESIAN_POINT('',(0.0138518158046896,0.0553,-0.0380575511418293));
#670=CARTESIAN_POINT('',(0.0138518158046896,0.0553,-0.0320575511418293));
#671=CARTESIAN_POINT('',(0.,0.0553,6.93889390390723E-18));
#672=CARTESIAN_POINT('',(0.0380575511418293,0.0553,0.0138518158046896));
#673=CARTESIAN_POINT('',(0.0380575511418293,0.0493,0.0138518158046896));
#674=CARTESIAN_POINT('',(0.0380575511418293,0.0493,0.0198518158046896));
#675=CARTESIAN_POINT('',(0.0380575511418293,0.0553,0.0138518158046896));
#676=CARTESIAN_POINT('',(0.0380575511418293,0.0553,0.0198518158046896));
#677=CARTESIAN_POINT('',(0.,0.0553,6.93889390390723E-18));
#678=CARTESIAN_POINT('',(0.0138518158046896,0.0493,-0.0380575511418293));
#679=CARTESIAN_POINT('',(-0.0380575511418293,0.0493,-0.0138518158046896));
#680=CARTESIAN_POINT('',(-0.0138518158046896,0.0493,0.0380575511418293));
#681=CARTESIAN_POINT('',(0.0380575511418293,0.0493,0.0138518158046896));
#682=CARTESIAN_POINT('',(0.,0.0473,4.83735485663205E-18));
#683=CARTESIAN_POINT('',(0.,0.0403,4.83735485663205E-18));
#684=MECHANICAL_DESIGN_GEOMETRIC_PRESENTATION_REPRESENTATION('',(#379),
#685);
#685=(
GEOMETRIC_REPRESENTATION_CONTEXT(3)
GLOBAL_UNCERTAINTY_ASSIGNED_CONTEXT((#686))
GLOBAL_UNIT_ASSIGNED_CONTEXT((#689,#688,#687))
REPRESENTATION_CONTEXT('PG1 Carriage Female','TOP_LEVEL_ASSEMBLY_PART')
);
#686=UNCERTAINTY_MEASURE_WITH_UNIT(LENGTH_MEASURE(1.E-8),#689,
'DISTANCE_ACCURACY_VALUE','Maximum Tolerance applied to model');
#687=(
NAMED_UNIT(*)
SI_UNIT($,.STERADIAN.)
SOLID_ANGLE_UNIT()
);
#688=(
NAMED_UNIT(*)
PLANE_ANGLE_UNIT()
SI_UNIT($,.RADIAN.)
);
#689=(
LENGTH_UNIT()
NAMED_UNIT(*)
SI_UNIT($,.METRE.)
);
#690=PRODUCT_DEFINITION_SHAPE('','',#691);
#691=PRODUCT_DEFINITION('','',#693,#692);
#692=PRODUCT_DEFINITION_CONTEXT('',#699,'design');
#693=PRODUCT_DEFINITION_FORMATION_WITH_SPECIFIED_SOURCE('','',#695,
 .NOT_KNOWN.);
#694=PRODUCT_RELATED_PRODUCT_CATEGORY('','',(#695));
#695=PRODUCT('PG1 Carriage Female','PG1 Carriage Female',
'PG1 Carriage Female',(#697));
#696=PRODUCT_CATEGORY('','');
#697=PRODUCT_CONTEXT('',#699,'mechanical');
#698=APPLICATION_PROTOCOL_DEFINITION('international standard',
'ap242_managed_model_based_3d_engineering',2020,#699);
#699=APPLICATION_CONTEXT('managed model based 3d engineering');
ENDSEC;
END-ISO-10303-21;
