ISO-10303-21;
HEADER;
/* Generated by software containing ST-Developer
 * from STEP Tools, Inc. (www.steptools.com) 
 */
/* OPTION: using custom renumber hook */

FILE_DESCRIPTION(
/* description */ ('STEP AP242 Edition 2',
'CAx-IF Rec.Pracs.---Representation and Presentation of Product Manufa
cturing Information (PMI)---4.0---2014-10-13',
'CAx-IF Rec.Pracs.---3D Tessellated Geometry---0.4---2014-09-14','2;1',
'CAx-IF Rec.Pracs.---User Defined Attributes---1.5---2016-08-15'),
/* implementation_level */ '2;1');

FILE_NAME(
/* name */ 'Assembly 1 - PG1 Carriage Male',
/* time_stamp */ '2026-06-22T21:30:33Z',
/* author */ (''),
/* organization */ (''),
/* preprocessor_version */ 'ST-DEVELOPER v20',
/* originating_system */ 'ONSHAPE BY PTC INC, 1.216',
/* authorisation */ '  ');

FILE_SCHEMA (('AP242_MANAGED_MODEL_BASED_3D_ENGINEERING_MIM_LF { 1 0 10303 442 3 1 4 }'));
ENDSEC;

DATA;
#10=SHAPE_REPRESENTATION_RELATIONSHIP('','',#1009,#11);
#11=ADVANCED_BREP_SHAPE_REPRESENTATION('',(#1007),#1859);
#12=TOROIDAL_SURFACE('',#1123,0.008,0.002);
#13=TOROIDAL_SURFACE('',#1124,0.008,0.002);
#14=TOROIDAL_SURFACE('',#1125,0.008,0.002);
#15=TOROIDAL_SURFACE('',#1126,0.008,0.002);
#16=B_SPLINE_CURVE_WITH_KNOTS('',3,(#1645,#1646,#1647,#1648,#1649),
 .UNSPECIFIED.,.F.,.F.,(4,1,4),(-0.00277535694398708,-3.72235882682096E-7,
0.00277461247222172),.UNSPECIFIED.);
#17=B_SPLINE_CURVE_WITH_KNOTS('',3,(#1653,#1654,#1655,#1656,#1657),
 .UNSPECIFIED.,.F.,.F.,(4,1,4),(0.000394624773105222,0.00317046745008501,
0.0059463101270648),.UNSPECIFIED.);
#18=B_SPLINE_CURVE_WITH_KNOTS('',3,(#1660,#1661,#1662,#1663,#1664),
 .UNSPECIFIED.,.F.,.F.,(4,1,4),(-0.00277535694399106,-3.72235882762327E-7,
0.00277461247222554),.UNSPECIFIED.);
#19=B_SPLINE_CURVE_WITH_KNOTS('',3,(#1690,#1691,#1692,#1693,#1694,#1695,
#1696,#1697,#1698,#1699),.UNSPECIFIED.,.F.,.F.,(4,1,1,1,1,1,1,4),(0.,0.00128012802226853,
0.00256025604453706,0.00320032005567132,0.00384038406680558,0.00448044807793985,
0.00480048008350698,0.00512051208907411),.UNSPECIFIED.);
#20=B_SPLINE_CURVE_WITH_KNOTS('',3,(#1709,#1710,#1711,#1712,#1713,#1714,
#1715,#1716,#1717,#1718),.UNSPECIFIED.,.F.,.F.,(4,1,1,1,1,1,1,4),(0.,0.000325425464966523,
0.000650850929933046,0.00130170185986609,0.00195255278979914,0.00260340371973219,
0.00390510557959828,0.00520680743946437),.UNSPECIFIED.);
#21=B_SPLINE_CURVE_WITH_KNOTS('',3,(#1728,#1729,#1730,#1731,#1732,#1733,
#1734,#1735,#1736,#1737),.UNSPECIFIED.,.F.,.F.,(4,1,1,1,1,1,1,4),(0.,0.000325425464966474,
0.000650850929932947,0.00130170185986589,0.00195255278979884,0.00260340371973179,
0.00390510557959768,0.00520680743946358),.UNSPECIFIED.);
#22=B_SPLINE_CURVE_WITH_KNOTS('',3,(#1745,#1746,#1747,#1748,#1749,#1750,
#1751,#1752,#1753,#1754),.UNSPECIFIED.,.F.,.F.,(4,1,1,1,1,1,1,4),(3.7527806648313E-17,
0.00128012802226854,0.00256025604453705,0.0032003200556713,0.00384038406680555,
0.0044804480779398,0.00480048008350693,0.00512051208907405),
 .UNSPECIFIED.);
#23=B_SPLINE_CURVE_WITH_KNOTS('',3,(#1758,#1759,#1760,#1761,#1762,#1763,
#1764,#1765,#1766,#1767),.UNSPECIFIED.,.F.,.F.,(4,1,1,1,1,1,1,4),(0.,0.000325425464966507,
0.000650850929933015,0.00130170185986603,0.00195255278979904,0.00260340371973206,
0.00390510557959809,0.00520680743946412),.UNSPECIFIED.);
#24=B_SPLINE_CURVE_WITH_KNOTS('',3,(#1775,#1776,#1777,#1778,#1779,#1780,
#1781,#1782,#1783,#1784),.UNSPECIFIED.,.F.,.F.,(4,1,1,1,1,1,1,4),(0.,0.00128012802226852,
0.00256025604453703,0.00320032005567129,0.00384038406680555,0.0044804480779398,
0.00480048008350693,0.00512051208907406),.UNSPECIFIED.);
#25=B_SPLINE_CURVE_WITH_KNOTS('',3,(#1789,#1790,#1791,#1792,#1793,#1794,
#1795,#1796,#1797,#1798),.UNSPECIFIED.,.F.,.F.,(4,1,1,1,1,1,1,4),(0.,0.00128012802226852,
0.00256025604453705,0.00320032005567131,0.00384038406680557,0.00448044807793984,
0.00480048008350697,0.0051205120890741),.UNSPECIFIED.);
#26=B_SPLINE_CURVE_WITH_KNOTS('',3,(#1808,#1809,#1810,#1811,#1812,#1813,
#1814,#1815,#1816,#1817),.UNSPECIFIED.,.F.,.F.,(4,1,1,1,1,1,1,4),(0.,0.000325425464966531,
0.000650850929933063,0.00130170185986613,0.00195255278979919,0.00260340371973225,
0.00390510557959838,0.0052068074394645),.UNSPECIFIED.);
#27=B_SPLINE_CURVE_WITH_KNOTS('',3,(#1824,#1825,#1826,#1827,#1828),
 .UNSPECIFIED.,.F.,.F.,(4,1,4),(0.000394624773104904,0.0031704674500811,
0.00594631012705729),.UNSPECIFIED.);
#28=CYLINDRICAL_SURFACE('',#1076,0.007);
#29=CYLINDRICAL_SURFACE('',#1077,0.007);
#30=CYLINDRICAL_SURFACE('',#1078,0.007);
#31=CYLINDRICAL_SURFACE('',#1079,0.007);
#32=CYLINDRICAL_SURFACE('',#1080,0.0331120468323278);
#33=CYLINDRICAL_SURFACE('',#1081,0.0331120468323278);
#34=CYLINDRICAL_SURFACE('',#1082,0.0331120468323278);
#35=CYLINDRICAL_SURFACE('',#1083,0.00215);
#36=CYLINDRICAL_SURFACE('',#1086,0.00215);
#37=CYLINDRICAL_SURFACE('',#1089,0.00215);
#38=CYLINDRICAL_SURFACE('',#1092,0.00215);
#39=CYLINDRICAL_SURFACE('',#1095,0.01);
#40=CYLINDRICAL_SURFACE('',#1097,0.006);
#41=CYLINDRICAL_SURFACE('',#1101,0.01);
#42=CYLINDRICAL_SURFACE('',#1102,0.01);
#43=CYLINDRICAL_SURFACE('',#1104,0.006);
#44=CYLINDRICAL_SURFACE('',#1109,0.006);
#45=CYLINDRICAL_SURFACE('',#1113,0.01);
#46=CYLINDRICAL_SURFACE('',#1115,0.006);
#47=CYLINDRICAL_SURFACE('',#1127,0.00375);
#48=CYLINDRICAL_SURFACE('',#1130,0.00375);
#49=CYLINDRICAL_SURFACE('',#1133,0.00375);
#50=CYLINDRICAL_SURFACE('',#1136,0.00375);
#51=CYLINDRICAL_SURFACE('',#1139,0.0331120468323278);
#52=CYLINDRICAL_SURFACE('',#1140,0.00125579175385395);
#53=CYLINDRICAL_SURFACE('',#1141,0.00125579175385394);
#54=CYLINDRICAL_SURFACE('',#1142,0.00125579175385395);
#55=CYLINDRICAL_SURFACE('',#1143,0.00125579175385395);
#56=CYLINDRICAL_SURFACE('',#1144,0.00125579175385395);
#57=CYLINDRICAL_SURFACE('',#1145,0.00125579175385395);
#58=CYLINDRICAL_SURFACE('',#1146,0.00125579175385395);
#59=CYLINDRICAL_SURFACE('',#1147,0.00125579175385395);
#60=LINE('',#1514,#108);
#61=LINE('',#1519,#109);
#62=LINE('',#1523,#110);
#63=LINE('',#1527,#111);
#64=LINE('',#1531,#112);
#65=LINE('',#1535,#113);
#66=LINE('',#1539,#114);
#67=LINE('',#1543,#115);
#68=LINE('',#1560,#116);
#69=LINE('',#1564,#117);
#70=LINE('',#1575,#118);
#71=LINE('',#1579,#119);
#72=LINE('',#1596,#120);
#73=LINE('',#1600,#121);
#74=LINE('',#1617,#122);
#75=LINE('',#1621,#123);
#76=LINE('',#1631,#124);
#77=LINE('',#1632,#125);
#78=LINE('',#1634,#126);
#79=LINE('',#1635,#127);
#80=LINE('',#1637,#128);
#81=LINE('',#1638,#129);
#82=LINE('',#1640,#130);
#83=LINE('',#1641,#131);
#84=LINE('',#1643,#132);
#85=LINE('',#1644,#133);
#86=LINE('',#1651,#134);
#87=LINE('',#1652,#135);
#88=LINE('',#1659,#136);
#89=LINE('',#1665,#137);
#90=LINE('',#1687,#138);
#91=LINE('',#1688,#139);
#92=LINE('',#1701,#140);
#93=LINE('',#1705,#141);
#94=LINE('',#1719,#142);
#95=LINE('',#1721,#143);
#96=LINE('',#1723,#144);
#97=LINE('',#1724,#145);
#98=LINE('',#1726,#146);
#99=LINE('',#1739,#147);
#100=LINE('',#1756,#148);
#101=LINE('',#1769,#149);
#102=LINE('',#1785,#150);
#103=LINE('',#1787,#151);
#104=LINE('',#1800,#152);
#105=LINE('',#1804,#153);
#106=LINE('',#1848,#154);
#107=LINE('',#1849,#155);
#108=VECTOR('',#1192,1.);
#109=VECTOR('',#1195,1.);
#110=VECTOR('',#1198,1.);
#111=VECTOR('',#1201,1.);
#112=VECTOR('',#1204,1.);
#113=VECTOR('',#1207,1.);
#114=VECTOR('',#1210,1.);
#115=VECTOR('',#1213,1.);
#116=VECTOR('',#1230,1.);
#117=VECTOR('',#1233,1.);
#118=VECTOR('',#1244,1.);
#119=VECTOR('',#1247,1.);
#120=VECTOR('',#1264,1.);
#121=VECTOR('',#1267,1.);
#122=VECTOR('',#1284,1.);
#123=VECTOR('',#1287,1.);
#124=VECTOR('',#1298,1.);
#125=VECTOR('',#1299,1.);
#126=VECTOR('',#1302,1.);
#127=VECTOR('',#1303,1.);
#128=VECTOR('',#1306,1.);
#129=VECTOR('',#1307,1.);
#130=VECTOR('',#1310,1.);
#131=VECTOR('',#1311,1.);
#132=VECTOR('',#1314,1.);
#133=VECTOR('',#1315,1.);
#134=VECTOR('',#1318,1.);
#135=VECTOR('',#1319,1.);
#136=VECTOR('',#1322,1.);
#137=VECTOR('',#1323,1.);
#138=VECTOR('',#1350,1.);
#139=VECTOR('',#1351,1.);
#140=VECTOR('',#1354,1.);
#141=VECTOR('',#1359,1.);
#142=VECTOR('',#1364,1.);
#143=VECTOR('',#1367,1.);
#144=VECTOR('',#1370,1.);
#145=VECTOR('',#1371,1.);
#146=VECTOR('',#1374,1.);
#147=VECTOR('',#1377,1.);
#148=VECTOR('',#1386,1.);
#149=VECTOR('',#1389,1.);
#150=VECTOR('',#1396,1.);
#151=VECTOR('',#1399,1.);
#152=VECTOR('',#1402,1.);
#153=VECTOR('',#1407,1.);
#154=VECTOR('',#1454,1.);
#155=VECTOR('',#1455,1.);
#156=ORIENTED_EDGE('',*,*,#436,.F.);
#157=ORIENTED_EDGE('',*,*,#437,.F.);
#158=ORIENTED_EDGE('',*,*,#438,.T.);
#159=ORIENTED_EDGE('',*,*,#439,.T.);
#160=ORIENTED_EDGE('',*,*,#440,.F.);
#161=ORIENTED_EDGE('',*,*,#441,.F.);
#162=ORIENTED_EDGE('',*,*,#442,.T.);
#163=ORIENTED_EDGE('',*,*,#443,.T.);
#164=ORIENTED_EDGE('',*,*,#444,.F.);
#165=ORIENTED_EDGE('',*,*,#445,.F.);
#166=ORIENTED_EDGE('',*,*,#446,.T.);
#167=ORIENTED_EDGE('',*,*,#447,.F.);
#168=ORIENTED_EDGE('',*,*,#448,.F.);
#169=ORIENTED_EDGE('',*,*,#449,.F.);
#170=ORIENTED_EDGE('',*,*,#450,.T.);
#171=ORIENTED_EDGE('',*,*,#451,.F.);
#172=ORIENTED_EDGE('',*,*,#452,.F.);
#173=ORIENTED_EDGE('',*,*,#453,.F.);
#174=ORIENTED_EDGE('',*,*,#454,.F.);
#175=ORIENTED_EDGE('',*,*,#455,.F.);
#176=ORIENTED_EDGE('',*,*,#456,.T.);
#177=ORIENTED_EDGE('',*,*,#457,.T.);
#178=ORIENTED_EDGE('',*,*,#458,.F.);
#179=ORIENTED_EDGE('',*,*,#459,.T.);
#180=ORIENTED_EDGE('',*,*,#460,.T.);
#181=ORIENTED_EDGE('',*,*,#461,.T.);
#182=ORIENTED_EDGE('',*,*,#462,.F.);
#183=ORIENTED_EDGE('',*,*,#463,.F.);
#184=ORIENTED_EDGE('',*,*,#464,.T.);
#185=ORIENTED_EDGE('',*,*,#465,.F.);
#186=ORIENTED_EDGE('',*,*,#466,.F.);
#187=ORIENTED_EDGE('',*,*,#467,.T.);
#188=ORIENTED_EDGE('',*,*,#468,.T.);
#189=ORIENTED_EDGE('',*,*,#469,.F.);
#190=ORIENTED_EDGE('',*,*,#470,.F.);
#191=ORIENTED_EDGE('',*,*,#471,.F.);
#192=ORIENTED_EDGE('',*,*,#472,.T.);
#193=ORIENTED_EDGE('',*,*,#473,.T.);
#194=ORIENTED_EDGE('',*,*,#474,.T.);
#195=ORIENTED_EDGE('',*,*,#475,.F.);
#196=ORIENTED_EDGE('',*,*,#476,.T.);
#197=ORIENTED_EDGE('',*,*,#477,.T.);
#198=ORIENTED_EDGE('',*,*,#478,.T.);
#199=ORIENTED_EDGE('',*,*,#479,.F.);
#200=ORIENTED_EDGE('',*,*,#480,.F.);
#201=ORIENTED_EDGE('',*,*,#481,.T.);
#202=ORIENTED_EDGE('',*,*,#482,.F.);
#203=ORIENTED_EDGE('',*,*,#483,.T.);
#204=ORIENTED_EDGE('',*,*,#484,.T.);
#205=ORIENTED_EDGE('',*,*,#485,.T.);
#206=ORIENTED_EDGE('',*,*,#486,.T.);
#207=ORIENTED_EDGE('',*,*,#487,.F.);
#208=ORIENTED_EDGE('',*,*,#488,.T.);
#209=ORIENTED_EDGE('',*,*,#489,.T.);
#210=ORIENTED_EDGE('',*,*,#490,.T.);
#211=ORIENTED_EDGE('',*,*,#491,.F.);
#212=ORIENTED_EDGE('',*,*,#492,.F.);
#213=ORIENTED_EDGE('',*,*,#493,.T.);
#214=ORIENTED_EDGE('',*,*,#494,.T.);
#215=ORIENTED_EDGE('',*,*,#495,.T.);
#216=ORIENTED_EDGE('',*,*,#496,.T.);
#217=ORIENTED_EDGE('',*,*,#497,.F.);
#218=ORIENTED_EDGE('',*,*,#498,.T.);
#219=ORIENTED_EDGE('',*,*,#499,.T.);
#220=ORIENTED_EDGE('',*,*,#500,.T.);
#221=ORIENTED_EDGE('',*,*,#501,.F.);
#222=ORIENTED_EDGE('',*,*,#502,.F.);
#223=ORIENTED_EDGE('',*,*,#503,.T.);
#224=ORIENTED_EDGE('',*,*,#504,.T.);
#225=ORIENTED_EDGE('',*,*,#505,.T.);
#226=ORIENTED_EDGE('',*,*,#506,.F.);
#227=ORIENTED_EDGE('',*,*,#507,.F.);
#228=ORIENTED_EDGE('',*,*,#508,.T.);
#229=ORIENTED_EDGE('',*,*,#509,.T.);
#230=ORIENTED_EDGE('',*,*,#510,.T.);
#231=ORIENTED_EDGE('',*,*,#511,.T.);
#232=ORIENTED_EDGE('',*,*,#447,.T.);
#233=ORIENTED_EDGE('',*,*,#512,.T.);
#234=ORIENTED_EDGE('',*,*,#511,.F.);
#235=ORIENTED_EDGE('',*,*,#513,.T.);
#236=ORIENTED_EDGE('',*,*,#474,.F.);
#237=ORIENTED_EDGE('',*,*,#514,.T.);
#238=ORIENTED_EDGE('',*,*,#451,.T.);
#239=ORIENTED_EDGE('',*,*,#515,.T.);
#240=ORIENTED_EDGE('',*,*,#491,.T.);
#241=ORIENTED_EDGE('',*,*,#516,.T.);
#242=ORIENTED_EDGE('',*,*,#443,.F.);
#243=ORIENTED_EDGE('',*,*,#517,.T.);
#244=ORIENTED_EDGE('',*,*,#501,.T.);
#245=ORIENTED_EDGE('',*,*,#518,.T.);
#246=ORIENTED_EDGE('',*,*,#439,.F.);
#247=ORIENTED_EDGE('',*,*,#519,.T.);
#248=ORIENTED_EDGE('',*,*,#483,.F.);
#249=ORIENTED_EDGE('',*,*,#520,.T.);
#250=ORIENTED_EDGE('',*,*,#441,.T.);
#251=ORIENTED_EDGE('',*,*,#521,.T.);
#252=ORIENTED_EDGE('',*,*,#499,.F.);
#253=ORIENTED_EDGE('',*,*,#522,.F.);
#254=ORIENTED_EDGE('',*,*,#503,.F.);
#255=ORIENTED_EDGE('',*,*,#523,.T.);
#256=ORIENTED_EDGE('',*,*,#445,.T.);
#257=ORIENTED_EDGE('',*,*,#524,.T.);
#258=ORIENTED_EDGE('',*,*,#489,.F.);
#259=ORIENTED_EDGE('',*,*,#525,.F.);
#260=ORIENTED_EDGE('',*,*,#449,.T.);
#261=ORIENTED_EDGE('',*,*,#526,.T.);
#262=ORIENTED_EDGE('',*,*,#509,.F.);
#263=ORIENTED_EDGE('',*,*,#527,.F.);
#264=ORIENTED_EDGE('',*,*,#476,.F.);
#265=ORIENTED_EDGE('',*,*,#528,.T.);
#266=ORIENTED_EDGE('',*,*,#529,.T.);
#267=ORIENTED_EDGE('',*,*,#530,.F.);
#268=ORIENTED_EDGE('',*,*,#531,.F.);
#269=ORIENTED_EDGE('',*,*,#532,.T.);
#270=ORIENTED_EDGE('',*,*,#533,.T.);
#271=ORIENTED_EDGE('',*,*,#534,.T.);
#272=ORIENTED_EDGE('',*,*,#535,.F.);
#273=ORIENTED_EDGE('',*,*,#536,.F.);
#274=ORIENTED_EDGE('',*,*,#479,.T.);
#275=ORIENTED_EDGE('',*,*,#537,.F.);
#276=ORIENTED_EDGE('',*,*,#457,.F.);
#277=ORIENTED_EDGE('',*,*,#538,.T.);
#278=ORIENTED_EDGE('',*,*,#478,.F.);
#279=ORIENTED_EDGE('',*,*,#539,.T.);
#280=ORIENTED_EDGE('',*,*,#540,.F.);
#281=ORIENTED_EDGE('',*,*,#458,.T.);
#282=ORIENTED_EDGE('',*,*,#537,.T.);
#283=ORIENTED_EDGE('',*,*,#540,.T.);
#284=ORIENTED_EDGE('',*,*,#541,.T.);
#285=ORIENTED_EDGE('',*,*,#542,.F.);
#286=ORIENTED_EDGE('',*,*,#459,.F.);
#287=ORIENTED_EDGE('',*,*,#543,.T.);
#288=ORIENTED_EDGE('',*,*,#542,.T.);
#289=ORIENTED_EDGE('',*,*,#544,.T.);
#290=ORIENTED_EDGE('',*,*,#507,.T.);
#291=ORIENTED_EDGE('',*,*,#545,.F.);
#292=ORIENTED_EDGE('',*,*,#460,.F.);
#293=ORIENTED_EDGE('',*,*,#506,.T.);
#294=ORIENTED_EDGE('',*,*,#546,.F.);
#295=ORIENTED_EDGE('',*,*,#461,.F.);
#296=ORIENTED_EDGE('',*,*,#545,.T.);
#297=ORIENTED_EDGE('',*,*,#486,.F.);
#298=ORIENTED_EDGE('',*,*,#547,.F.);
#299=ORIENTED_EDGE('',*,*,#465,.T.);
#300=ORIENTED_EDGE('',*,*,#548,.T.);
#301=ORIENTED_EDGE('',*,*,#549,.T.);
#302=ORIENTED_EDGE('',*,*,#550,.T.);
#303=ORIENTED_EDGE('',*,*,#487,.T.);
#304=ORIENTED_EDGE('',*,*,#548,.F.);
#305=ORIENTED_EDGE('',*,*,#464,.F.);
#306=ORIENTED_EDGE('',*,*,#551,.T.);
#307=ORIENTED_EDGE('',*,*,#552,.T.);
#308=ORIENTED_EDGE('',*,*,#549,.F.);
#309=ORIENTED_EDGE('',*,*,#463,.T.);
#310=ORIENTED_EDGE('',*,*,#553,.T.);
#311=ORIENTED_EDGE('',*,*,#505,.F.);
#312=ORIENTED_EDGE('',*,*,#554,.T.);
#313=ORIENTED_EDGE('',*,*,#551,.F.);
#314=ORIENTED_EDGE('',*,*,#462,.T.);
#315=ORIENTED_EDGE('',*,*,#546,.T.);
#316=ORIENTED_EDGE('',*,*,#555,.T.);
#317=ORIENTED_EDGE('',*,*,#556,.T.);
#318=ORIENTED_EDGE('',*,*,#480,.T.);
#319=ORIENTED_EDGE('',*,*,#538,.F.);
#320=ORIENTED_EDGE('',*,*,#456,.F.);
#321=ORIENTED_EDGE('',*,*,#557,.T.);
#322=ORIENTED_EDGE('',*,*,#558,.T.);
#323=ORIENTED_EDGE('',*,*,#555,.F.);
#324=ORIENTED_EDGE('',*,*,#471,.T.);
#325=ORIENTED_EDGE('',*,*,#559,.T.);
#326=ORIENTED_EDGE('',*,*,#495,.F.);
#327=ORIENTED_EDGE('',*,*,#560,.T.);
#328=ORIENTED_EDGE('',*,*,#557,.F.);
#329=ORIENTED_EDGE('',*,*,#470,.T.);
#330=ORIENTED_EDGE('',*,*,#561,.T.);
#331=ORIENTED_EDGE('',*,*,#496,.F.);
#332=ORIENTED_EDGE('',*,*,#561,.F.);
#333=ORIENTED_EDGE('',*,*,#469,.T.);
#334=ORIENTED_EDGE('',*,*,#562,.T.);
#335=ORIENTED_EDGE('',*,*,#485,.F.);
#336=ORIENTED_EDGE('',*,*,#563,.T.);
#337=ORIENTED_EDGE('',*,*,#564,.F.);
#338=ORIENTED_EDGE('',*,*,#466,.T.);
#339=ORIENTED_EDGE('',*,*,#547,.T.);
#340=ORIENTED_EDGE('',*,*,#564,.T.);
#341=ORIENTED_EDGE('',*,*,#565,.T.);
#342=ORIENTED_EDGE('',*,*,#566,.F.);
#343=ORIENTED_EDGE('',*,*,#467,.F.);
#344=ORIENTED_EDGE('',*,*,#567,.T.);
#345=ORIENTED_EDGE('',*,*,#566,.T.);
#346=ORIENTED_EDGE('',*,*,#568,.T.);
#347=ORIENTED_EDGE('',*,*,#497,.T.);
#348=ORIENTED_EDGE('',*,*,#562,.F.);
#349=ORIENTED_EDGE('',*,*,#468,.F.);
#350=ORIENTED_EDGE('',*,*,#535,.T.);
#351=ORIENTED_EDGE('',*,*,#567,.F.);
#352=ORIENTED_EDGE('',*,*,#533,.F.);
#353=ORIENTED_EDGE('',*,*,#559,.F.);
#354=ORIENTED_EDGE('',*,*,#531,.T.);
#355=ORIENTED_EDGE('',*,*,#553,.F.);
#356=ORIENTED_EDGE('',*,*,#529,.F.);
#357=ORIENTED_EDGE('',*,*,#543,.F.);
#358=ORIENTED_EDGE('',*,*,#477,.F.);
#359=ORIENTED_EDGE('',*,*,#527,.T.);
#360=ORIENTED_EDGE('',*,*,#508,.F.);
#361=ORIENTED_EDGE('',*,*,#544,.F.);
#362=ORIENTED_EDGE('',*,*,#541,.F.);
#363=ORIENTED_EDGE('',*,*,#539,.F.);
#364=ORIENTED_EDGE('',*,*,#569,.T.);
#365=ORIENTED_EDGE('',*,*,#481,.F.);
#366=ORIENTED_EDGE('',*,*,#556,.F.);
#367=ORIENTED_EDGE('',*,*,#558,.F.);
#368=ORIENTED_EDGE('',*,*,#560,.F.);
#369=ORIENTED_EDGE('',*,*,#494,.F.);
#370=ORIENTED_EDGE('',*,*,#484,.F.);
#371=ORIENTED_EDGE('',*,*,#522,.T.);
#372=ORIENTED_EDGE('',*,*,#498,.F.);
#373=ORIENTED_EDGE('',*,*,#568,.F.);
#374=ORIENTED_EDGE('',*,*,#565,.F.);
#375=ORIENTED_EDGE('',*,*,#563,.F.);
#376=ORIENTED_EDGE('',*,*,#525,.T.);
#377=ORIENTED_EDGE('',*,*,#488,.F.);
#378=ORIENTED_EDGE('',*,*,#550,.F.);
#379=ORIENTED_EDGE('',*,*,#552,.F.);
#380=ORIENTED_EDGE('',*,*,#554,.F.);
#381=ORIENTED_EDGE('',*,*,#504,.F.);
#382=ORIENTED_EDGE('',*,*,#570,.F.);
#383=ORIENTED_EDGE('',*,*,#454,.T.);
#384=ORIENTED_EDGE('',*,*,#536,.T.);
#385=ORIENTED_EDGE('',*,*,#570,.T.);
#386=ORIENTED_EDGE('',*,*,#571,.F.);
#387=ORIENTED_EDGE('',*,*,#455,.T.);
#388=ORIENTED_EDGE('',*,*,#534,.F.);
#389=ORIENTED_EDGE('',*,*,#571,.T.);
#390=ORIENTED_EDGE('',*,*,#572,.F.);
#391=ORIENTED_EDGE('',*,*,#453,.T.);
#392=ORIENTED_EDGE('',*,*,#532,.F.);
#393=ORIENTED_EDGE('',*,*,#572,.T.);
#394=ORIENTED_EDGE('',*,*,#573,.F.);
#395=ORIENTED_EDGE('',*,*,#452,.T.);
#396=ORIENTED_EDGE('',*,*,#530,.T.);
#397=ORIENTED_EDGE('',*,*,#573,.T.);
#398=ORIENTED_EDGE('',*,*,#493,.F.);
#399=ORIENTED_EDGE('',*,*,#574,.T.);
#400=ORIENTED_EDGE('',*,*,#437,.T.);
#401=ORIENTED_EDGE('',*,*,#575,.T.);
#402=ORIENTED_EDGE('',*,*,#472,.F.);
#403=ORIENTED_EDGE('',*,*,#569,.F.);
#404=ORIENTED_EDGE('',*,*,#526,.F.);
#405=ORIENTED_EDGE('',*,*,#448,.T.);
#406=ORIENTED_EDGE('',*,*,#513,.F.);
#407=ORIENTED_EDGE('',*,*,#510,.F.);
#408=ORIENTED_EDGE('',*,*,#502,.T.);
#409=ORIENTED_EDGE('',*,*,#512,.F.);
#410=ORIENTED_EDGE('',*,*,#446,.F.);
#411=ORIENTED_EDGE('',*,*,#523,.F.);
#412=ORIENTED_EDGE('',*,*,#521,.F.);
#413=ORIENTED_EDGE('',*,*,#440,.T.);
#414=ORIENTED_EDGE('',*,*,#518,.F.);
#415=ORIENTED_EDGE('',*,*,#500,.F.);
#416=ORIENTED_EDGE('',*,*,#492,.T.);
#417=ORIENTED_EDGE('',*,*,#519,.F.);
#418=ORIENTED_EDGE('',*,*,#438,.F.);
#419=ORIENTED_EDGE('',*,*,#574,.F.);
#420=ORIENTED_EDGE('',*,*,#524,.F.);
#421=ORIENTED_EDGE('',*,*,#444,.T.);
#422=ORIENTED_EDGE('',*,*,#516,.F.);
#423=ORIENTED_EDGE('',*,*,#490,.F.);
#424=ORIENTED_EDGE('',*,*,#482,.T.);
#425=ORIENTED_EDGE('',*,*,#517,.F.);
#426=ORIENTED_EDGE('',*,*,#442,.F.);
#427=ORIENTED_EDGE('',*,*,#520,.F.);
#428=ORIENTED_EDGE('',*,*,#475,.T.);
#429=ORIENTED_EDGE('',*,*,#515,.F.);
#430=ORIENTED_EDGE('',*,*,#450,.F.);
#431=ORIENTED_EDGE('',*,*,#528,.F.);
#432=ORIENTED_EDGE('',*,*,#575,.F.);
#433=ORIENTED_EDGE('',*,*,#436,.T.);
#434=ORIENTED_EDGE('',*,*,#514,.F.);
#435=ORIENTED_EDGE('',*,*,#473,.F.);
#436=EDGE_CURVE('',#576,#577,#676,.T.);
#437=EDGE_CURVE('',#578,#576,#677,.T.);
#438=EDGE_CURVE('',#578,#579,#678,.T.);
#439=EDGE_CURVE('',#579,#580,#679,.T.);
#440=EDGE_CURVE('',#581,#580,#680,.T.);
#441=EDGE_CURVE('',#582,#581,#681,.T.);
#442=EDGE_CURVE('',#582,#583,#682,.T.);
#443=EDGE_CURVE('',#583,#584,#683,.T.);
#444=EDGE_CURVE('',#585,#584,#684,.T.);
#445=EDGE_CURVE('',#586,#585,#685,.T.);
#446=EDGE_CURVE('',#586,#587,#686,.T.);
#447=EDGE_CURVE('',#588,#587,#687,.T.);
#448=EDGE_CURVE('',#589,#588,#688,.T.);
#449=EDGE_CURVE('',#590,#589,#689,.T.);
#450=EDGE_CURVE('',#590,#591,#690,.T.);
#451=EDGE_CURVE('',#577,#591,#691,.T.);
#452=EDGE_CURVE('',#592,#592,#692,.T.);
#453=EDGE_CURVE('',#593,#593,#693,.T.);
#454=EDGE_CURVE('',#594,#594,#694,.T.);
#455=EDGE_CURVE('',#595,#595,#695,.T.);
#456=EDGE_CURVE('',#596,#597,#60,.T.);
#457=EDGE_CURVE('',#597,#598,#696,.T.);
#458=EDGE_CURVE('',#599,#598,#61,.T.);
#459=EDGE_CURVE('',#599,#600,#697,.T.);
#460=EDGE_CURVE('',#600,#601,#62,.T.);
#461=EDGE_CURVE('',#601,#602,#698,.T.);
#462=EDGE_CURVE('',#603,#602,#63,.T.);
#463=EDGE_CURVE('',#604,#603,#699,.T.);
#464=EDGE_CURVE('',#604,#605,#64,.T.);
#465=EDGE_CURVE('',#606,#605,#700,.T.);
#466=EDGE_CURVE('',#607,#606,#65,.T.);
#467=EDGE_CURVE('',#607,#608,#701,.T.);
#468=EDGE_CURVE('',#608,#609,#66,.T.);
#469=EDGE_CURVE('',#610,#609,#702,.T.);
#470=EDGE_CURVE('',#611,#610,#67,.T.);
#471=EDGE_CURVE('',#596,#611,#703,.T.);
#472=EDGE_CURVE('',#612,#613,#704,.T.);
#473=EDGE_CURVE('',#613,#614,#705,.F.);
#474=EDGE_CURVE('',#614,#615,#706,.T.);
#475=EDGE_CURVE('',#616,#615,#707,.T.);
#476=EDGE_CURVE('',#616,#617,#708,.T.);
#477=EDGE_CURVE('',#617,#618,#709,.T.);
#478=EDGE_CURVE('',#618,#619,#68,.T.);
#479=EDGE_CURVE('',#620,#619,#710,.T.);
#480=EDGE_CURVE('',#621,#620,#69,.T.);
#481=EDGE_CURVE('',#621,#612,#711,.T.);
#482=EDGE_CURVE('',#622,#623,#712,.T.);
#483=EDGE_CURVE('',#622,#624,#713,.T.);
#484=EDGE_CURVE('',#624,#625,#714,.T.);
#485=EDGE_CURVE('',#625,#626,#70,.T.);
#486=EDGE_CURVE('',#626,#627,#715,.T.);
#487=EDGE_CURVE('',#628,#627,#71,.T.);
#488=EDGE_CURVE('',#628,#629,#716,.T.);
#489=EDGE_CURVE('',#629,#630,#717,.T.);
#490=EDGE_CURVE('',#630,#631,#718,.F.);
#491=EDGE_CURVE('',#623,#631,#719,.T.);
#492=EDGE_CURVE('',#632,#633,#720,.T.);
#493=EDGE_CURVE('',#632,#634,#721,.T.);
#494=EDGE_CURVE('',#634,#635,#722,.T.);
#495=EDGE_CURVE('',#635,#636,#72,.T.);
#496=EDGE_CURVE('',#636,#637,#723,.T.);
#497=EDGE_CURVE('',#638,#637,#73,.T.);
#498=EDGE_CURVE('',#638,#639,#724,.T.);
#499=EDGE_CURVE('',#639,#640,#725,.T.);
#500=EDGE_CURVE('',#640,#641,#726,.F.);
#501=EDGE_CURVE('',#633,#641,#727,.T.);
#502=EDGE_CURVE('',#642,#643,#728,.T.);
#503=EDGE_CURVE('',#642,#644,#729,.T.);
#504=EDGE_CURVE('',#644,#645,#730,.T.);
#505=EDGE_CURVE('',#645,#646,#74,.T.);
#506=EDGE_CURVE('',#647,#646,#731,.T.);
#507=EDGE_CURVE('',#648,#647,#75,.T.);
#508=EDGE_CURVE('',#648,#649,#732,.T.);
#509=EDGE_CURVE('',#649,#650,#733,.T.);
#510=EDGE_CURVE('',#650,#651,#734,.F.);
#511=EDGE_CURVE('',#651,#643,#735,.T.);
#512=EDGE_CURVE('',#587,#643,#76,.T.);
#513=EDGE_CURVE('',#651,#588,#77,.F.);
#514=EDGE_CURVE('',#614,#577,#78,.F.);
#515=EDGE_CURVE('',#591,#615,#79,.T.);
#516=EDGE_CURVE('',#631,#584,#80,.F.);
#517=EDGE_CURVE('',#583,#623,#81,.T.);
#518=EDGE_CURVE('',#641,#580,#82,.F.);
#519=EDGE_CURVE('',#579,#633,#83,.T.);
#520=EDGE_CURVE('',#622,#582,#84,.T.);
#521=EDGE_CURVE('',#581,#640,#85,.F.);
#522=EDGE_CURVE('',#624,#639,#16,.T.);
#523=EDGE_CURVE('',#642,#586,#86,.T.);
#524=EDGE_CURVE('',#585,#630,#87,.F.);
#525=EDGE_CURVE('',#644,#629,#17,.T.);
#526=EDGE_CURVE('',#589,#650,#88,.F.);
#527=EDGE_CURVE('',#617,#649,#18,.T.);
#528=EDGE_CURVE('',#616,#590,#89,.T.);
#529=EDGE_CURVE('',#652,#652,#736,.F.);
#530=EDGE_CURVE('',#653,#653,#737,.F.);
#531=EDGE_CURVE('',#654,#654,#738,.T.);
#532=EDGE_CURVE('',#655,#655,#739,.F.);
#533=EDGE_CURVE('',#656,#656,#740,.F.);
#534=EDGE_CURVE('',#657,#657,#741,.F.);
#535=EDGE_CURVE('',#658,#658,#742,.T.);
#536=EDGE_CURVE('',#659,#659,#743,.F.);
#537=EDGE_CURVE('',#598,#619,#90,.T.);
#538=EDGE_CURVE('',#597,#620,#91,.T.);
#539=EDGE_CURVE('',#618,#660,#19,.T.);
#540=EDGE_CURVE('',#599,#660,#92,.T.);
#541=EDGE_CURVE('',#660,#661,#744,.F.);
#542=EDGE_CURVE('',#600,#661,#93,.T.);
#543=EDGE_CURVE('',#662,#662,#745,.T.);
#544=EDGE_CURVE('',#661,#648,#20,.T.);
#545=EDGE_CURVE('',#601,#647,#94,.T.);
#546=EDGE_CURVE('',#602,#646,#95,.T.);
#547=EDGE_CURVE('',#606,#626,#96,.T.);
#548=EDGE_CURVE('',#605,#627,#97,.T.);
#549=EDGE_CURVE('',#604,#663,#98,.T.);
#550=EDGE_CURVE('',#663,#628,#21,.T.);
#551=EDGE_CURVE('',#603,#664,#99,.T.);
#552=EDGE_CURVE('',#664,#663,#746,.F.);
#553=EDGE_CURVE('',#665,#665,#747,.T.);
#554=EDGE_CURVE('',#645,#664,#22,.T.);
#555=EDGE_CURVE('',#596,#666,#100,.T.);
#556=EDGE_CURVE('',#666,#621,#23,.T.);
#557=EDGE_CURVE('',#611,#667,#101,.T.);
#558=EDGE_CURVE('',#667,#666,#748,.F.);
#559=EDGE_CURVE('',#668,#668,#749,.T.);
#560=EDGE_CURVE('',#635,#667,#24,.T.);
#561=EDGE_CURVE('',#610,#636,#102,.T.);
#562=EDGE_CURVE('',#609,#637,#103,.T.);
#563=EDGE_CURVE('',#625,#669,#25,.T.);
#564=EDGE_CURVE('',#607,#669,#104,.T.);
#565=EDGE_CURVE('',#669,#670,#750,.F.);
#566=EDGE_CURVE('',#608,#670,#105,.T.);
#567=EDGE_CURVE('',#671,#671,#751,.T.);
#568=EDGE_CURVE('',#670,#638,#26,.T.);
#569=EDGE_CURVE('',#634,#612,#27,.T.);
#570=EDGE_CURVE('',#672,#672,#752,.T.);
#571=EDGE_CURVE('',#673,#673,#753,.T.);
#572=EDGE_CURVE('',#674,#674,#754,.T.);
#573=EDGE_CURVE('',#675,#675,#755,.T.);
#574=EDGE_CURVE('',#632,#578,#106,.T.);
#575=EDGE_CURVE('',#576,#613,#107,.F.);
#576=VERTEX_POINT('',#1475);
#577=VERTEX_POINT('',#1476);
#578=VERTEX_POINT('',#1478);
#579=VERTEX_POINT('',#1480);
#580=VERTEX_POINT('',#1482);
#581=VERTEX_POINT('',#1484);
#582=VERTEX_POINT('',#1486);
#583=VERTEX_POINT('',#1488);
#584=VERTEX_POINT('',#1490);
#585=VERTEX_POINT('',#1492);
#586=VERTEX_POINT('',#1494);
#587=VERTEX_POINT('',#1496);
#588=VERTEX_POINT('',#1498);
#589=VERTEX_POINT('',#1500);
#590=VERTEX_POINT('',#1502);
#591=VERTEX_POINT('',#1504);
#592=VERTEX_POINT('',#1507);
#593=VERTEX_POINT('',#1509);
#594=VERTEX_POINT('',#1511);
#595=VERTEX_POINT('',#1513);
#596=VERTEX_POINT('',#1515);
#597=VERTEX_POINT('',#1516);
#598=VERTEX_POINT('',#1518);
#599=VERTEX_POINT('',#1520);
#600=VERTEX_POINT('',#1522);
#601=VERTEX_POINT('',#1524);
#602=VERTEX_POINT('',#1526);
#603=VERTEX_POINT('',#1528);
#604=VERTEX_POINT('',#1530);
#605=VERTEX_POINT('',#1532);
#606=VERTEX_POINT('',#1534);
#607=VERTEX_POINT('',#1536);
#608=VERTEX_POINT('',#1538);
#609=VERTEX_POINT('',#1540);
#610=VERTEX_POINT('',#1542);
#611=VERTEX_POINT('',#1544);
#612=VERTEX_POINT('',#1548);
#613=VERTEX_POINT('',#1549);
#614=VERTEX_POINT('',#1551);
#615=VERTEX_POINT('',#1553);
#616=VERTEX_POINT('',#1555);
#617=VERTEX_POINT('',#1557);
#618=VERTEX_POINT('',#1559);
#619=VERTEX_POINT('',#1561);
#620=VERTEX_POINT('',#1563);
#621=VERTEX_POINT('',#1565);
#622=VERTEX_POINT('',#1569);
#623=VERTEX_POINT('',#1570);
#624=VERTEX_POINT('',#1572);
#625=VERTEX_POINT('',#1574);
#626=VERTEX_POINT('',#1576);
#627=VERTEX_POINT('',#1578);
#628=VERTEX_POINT('',#1580);
#629=VERTEX_POINT('',#1582);
#630=VERTEX_POINT('',#1584);
#631=VERTEX_POINT('',#1586);
#632=VERTEX_POINT('',#1590);
#633=VERTEX_POINT('',#1591);
#634=VERTEX_POINT('',#1593);
#635=VERTEX_POINT('',#1595);
#636=VERTEX_POINT('',#1597);
#637=VERTEX_POINT('',#1599);
#638=VERTEX_POINT('',#1601);
#639=VERTEX_POINT('',#1603);
#640=VERTEX_POINT('',#1605);
#641=VERTEX_POINT('',#1607);
#642=VERTEX_POINT('',#1611);
#643=VERTEX_POINT('',#1612);
#644=VERTEX_POINT('',#1614);
#645=VERTEX_POINT('',#1616);
#646=VERTEX_POINT('',#1618);
#647=VERTEX_POINT('',#1620);
#648=VERTEX_POINT('',#1622);
#649=VERTEX_POINT('',#1624);
#650=VERTEX_POINT('',#1626);
#651=VERTEX_POINT('',#1628);
#652=VERTEX_POINT('',#1668);
#653=VERTEX_POINT('',#1670);
#654=VERTEX_POINT('',#1673);
#655=VERTEX_POINT('',#1675);
#656=VERTEX_POINT('',#1678);
#657=VERTEX_POINT('',#1680);
#658=VERTEX_POINT('',#1683);
#659=VERTEX_POINT('',#1685);
#660=VERTEX_POINT('',#1700);
#661=VERTEX_POINT('',#1704);
#662=VERTEX_POINT('',#1707);
#663=VERTEX_POINT('',#1727);
#664=VERTEX_POINT('',#1740);
#665=VERTEX_POINT('',#1743);
#666=VERTEX_POINT('',#1757);
#667=VERTEX_POINT('',#1770);
#668=VERTEX_POINT('',#1773);
#669=VERTEX_POINT('',#1799);
#670=VERTEX_POINT('',#1803);
#671=VERTEX_POINT('',#1806);
#672=VERTEX_POINT('',#1833);
#673=VERTEX_POINT('',#1837);
#674=VERTEX_POINT('',#1841);
#675=VERTEX_POINT('',#1845);
#676=CIRCLE('',#1012,0.00125579175385395);
#677=CIRCLE('',#1013,0.0331120468323278);
#678=CIRCLE('',#1014,0.00125579175385395);
#679=CIRCLE('',#1015,0.007);
#680=CIRCLE('',#1016,0.00125579175385395);
#681=CIRCLE('',#1017,0.0331120468323278);
#682=CIRCLE('',#1018,0.00125579175385395);
#683=CIRCLE('',#1019,0.007);
#684=CIRCLE('',#1020,0.00125579175385395);
#685=CIRCLE('',#1021,0.0331120468323278);
#686=CIRCLE('',#1022,0.00125579175385394);
#687=CIRCLE('',#1023,0.007);
#688=CIRCLE('',#1024,0.00125579175385395);
#689=CIRCLE('',#1025,0.0331120468323278);
#690=CIRCLE('',#1026,0.00125579175385395);
#691=CIRCLE('',#1027,0.007);
#692=CIRCLE('',#1028,0.00375);
#693=CIRCLE('',#1029,0.00375);
#694=CIRCLE('',#1030,0.00375);
#695=CIRCLE('',#1031,0.00375);
#696=CIRCLE('',#1032,0.01);
#697=CIRCLE('',#1033,0.006);
#698=CIRCLE('',#1034,0.01);
#699=CIRCLE('',#1035,0.006);
#700=CIRCLE('',#1036,0.01);
#701=CIRCLE('',#1037,0.006);
#702=CIRCLE('',#1038,0.01);
#703=CIRCLE('',#1039,0.006);
#704=CIRCLE('',#1041,0.0331120468323278);
#705=CIRCLE('',#1042,0.00125579175385395);
#706=CIRCLE('',#1043,0.007);
#707=CIRCLE('',#1044,0.00125579175385395);
#708=CIRCLE('',#1045,0.0331120468323278);
#709=CIRCLE('',#1046,0.008);
#710=CIRCLE('',#1047,0.01);
#711=CIRCLE('',#1048,0.008);
#712=CIRCLE('',#1050,0.00125579175385395);
#713=CIRCLE('',#1051,0.0331120468323278);
#714=CIRCLE('',#1052,0.008);
#715=CIRCLE('',#1053,0.01);
#716=CIRCLE('',#1054,0.008);
#717=CIRCLE('',#1055,0.0331120468323278);
#718=CIRCLE('',#1056,0.00125579175385395);
#719=CIRCLE('',#1057,0.007);
#720=CIRCLE('',#1059,0.00125579175385395);
#721=CIRCLE('',#1060,0.0331120468323278);
#722=CIRCLE('',#1061,0.008);
#723=CIRCLE('',#1062,0.01);
#724=CIRCLE('',#1063,0.008);
#725=CIRCLE('',#1064,0.0331120468323278);
#726=CIRCLE('',#1065,0.00125579175385395);
#727=CIRCLE('',#1066,0.007);
#728=CIRCLE('',#1068,0.00125579175385394);
#729=CIRCLE('',#1069,0.0331120468323278);
#730=CIRCLE('',#1070,0.008);
#731=CIRCLE('',#1071,0.01);
#732=CIRCLE('',#1072,0.008);
#733=CIRCLE('',#1073,0.0331120468323278);
#734=CIRCLE('',#1074,0.00125579175385395);
#735=CIRCLE('',#1075,0.007);
#736=CIRCLE('',#1084,0.00215);
#737=CIRCLE('',#1085,0.00215);
#738=CIRCLE('',#1087,0.00215);
#739=CIRCLE('',#1088,0.00215);
#740=CIRCLE('',#1090,0.00215);
#741=CIRCLE('',#1091,0.00215);
#742=CIRCLE('',#1093,0.00215);
#743=CIRCLE('',#1094,0.00215);
#744=CIRCLE('',#1098,0.006);
#745=CIRCLE('',#1099,0.006);
#746=CIRCLE('',#1105,0.006);
#747=CIRCLE('',#1106,0.006);
#748=CIRCLE('',#1110,0.006);
#749=CIRCLE('',#1111,0.006);
#750=CIRCLE('',#1116,0.006);
#751=CIRCLE('',#1117,0.006);
#752=CIRCLE('',#1128,0.00375);
#753=CIRCLE('',#1131,0.00375);
#754=CIRCLE('',#1134,0.00375);
#755=CIRCLE('',#1137,0.00375);
#756=EDGE_LOOP('',(#156,#157,#158,#159,#160,#161,#162,#163,#164,#165,#166,
#167,#168,#169,#170,#171));
#757=EDGE_LOOP('',(#172));
#758=EDGE_LOOP('',(#173));
#759=EDGE_LOOP('',(#174));
#760=EDGE_LOOP('',(#175));
#761=EDGE_LOOP('',(#176,#177,#178,#179,#180,#181,#182,#183,#184,#185,#186,
#187,#188,#189,#190,#191));
#762=EDGE_LOOP('',(#192,#193,#194,#195,#196,#197,#198,#199,#200,#201));
#763=EDGE_LOOP('',(#202,#203,#204,#205,#206,#207,#208,#209,#210,#211));
#764=EDGE_LOOP('',(#212,#213,#214,#215,#216,#217,#218,#219,#220,#221));
#765=EDGE_LOOP('',(#222,#223,#224,#225,#226,#227,#228,#229,#230,#231));
#766=EDGE_LOOP('',(#232,#233,#234,#235));
#767=EDGE_LOOP('',(#236,#237,#238,#239));
#768=EDGE_LOOP('',(#240,#241,#242,#243));
#769=EDGE_LOOP('',(#244,#245,#246,#247));
#770=EDGE_LOOP('',(#248,#249,#250,#251,#252,#253));
#771=EDGE_LOOP('',(#254,#255,#256,#257,#258,#259));
#772=EDGE_LOOP('',(#260,#261,#262,#263,#264,#265));
#773=EDGE_LOOP('',(#266));
#774=EDGE_LOOP('',(#267));
#775=EDGE_LOOP('',(#268));
#776=EDGE_LOOP('',(#269));
#777=EDGE_LOOP('',(#270));
#778=EDGE_LOOP('',(#271));
#779=EDGE_LOOP('',(#272));
#780=EDGE_LOOP('',(#273));
#781=EDGE_LOOP('',(#274,#275,#276,#277));
#782=EDGE_LOOP('',(#278,#279,#280,#281,#282));
#783=EDGE_LOOP('',(#283,#284,#285,#286));
#784=EDGE_LOOP('',(#287));
#785=EDGE_LOOP('',(#288,#289,#290,#291,#292));
#786=EDGE_LOOP('',(#293,#294,#295,#296));
#787=EDGE_LOOP('',(#297,#298,#299,#300));
#788=EDGE_LOOP('',(#301,#302,#303,#304,#305));
#789=EDGE_LOOP('',(#306,#307,#308,#309));
#790=EDGE_LOOP('',(#310));
#791=EDGE_LOOP('',(#311,#312,#313,#314,#315));
#792=EDGE_LOOP('',(#316,#317,#318,#319,#320));
#793=EDGE_LOOP('',(#321,#322,#323,#324));
#794=EDGE_LOOP('',(#325));
#795=EDGE_LOOP('',(#326,#327,#328,#329,#330));
#796=EDGE_LOOP('',(#331,#332,#333,#334));
#797=EDGE_LOOP('',(#335,#336,#337,#338,#339));
#798=EDGE_LOOP('',(#340,#341,#342,#343));
#799=EDGE_LOOP('',(#344));
#800=EDGE_LOOP('',(#345,#346,#347,#348,#349));
#801=EDGE_LOOP('',(#350));
#802=EDGE_LOOP('',(#351));
#803=EDGE_LOOP('',(#352));
#804=EDGE_LOOP('',(#353));
#805=EDGE_LOOP('',(#354));
#806=EDGE_LOOP('',(#355));
#807=EDGE_LOOP('',(#356));
#808=EDGE_LOOP('',(#357));
#809=EDGE_LOOP('',(#358,#359,#360,#361,#362,#363));
#810=EDGE_LOOP('',(#364,#365,#366,#367,#368,#369));
#811=EDGE_LOOP('',(#370,#371,#372,#373,#374,#375));
#812=EDGE_LOOP('',(#376,#377,#378,#379,#380,#381));
#813=EDGE_LOOP('',(#382));
#814=EDGE_LOOP('',(#383));
#815=EDGE_LOOP('',(#384));
#816=EDGE_LOOP('',(#385));
#817=EDGE_LOOP('',(#386));
#818=EDGE_LOOP('',(#387));
#819=EDGE_LOOP('',(#388));
#820=EDGE_LOOP('',(#389));
#821=EDGE_LOOP('',(#390));
#822=EDGE_LOOP('',(#391));
#823=EDGE_LOOP('',(#392));
#824=EDGE_LOOP('',(#393));
#825=EDGE_LOOP('',(#394));
#826=EDGE_LOOP('',(#395));
#827=EDGE_LOOP('',(#396));
#828=EDGE_LOOP('',(#397));
#829=EDGE_LOOP('',(#398,#399,#400,#401,#402,#403));
#830=EDGE_LOOP('',(#404,#405,#406,#407));
#831=EDGE_LOOP('',(#408,#409,#410,#411));
#832=EDGE_LOOP('',(#412,#413,#414,#415));
#833=EDGE_LOOP('',(#416,#417,#418,#419));
#834=EDGE_LOOP('',(#420,#421,#422,#423));
#835=EDGE_LOOP('',(#424,#425,#426,#427));
#836=EDGE_LOOP('',(#428,#429,#430,#431));
#837=EDGE_LOOP('',(#432,#433,#434,#435));
#838=FACE_BOUND('',#756,.T.);
#839=FACE_BOUND('',#757,.T.);
#840=FACE_BOUND('',#758,.T.);
#841=FACE_BOUND('',#759,.T.);
#842=FACE_BOUND('',#760,.T.);
#843=FACE_BOUND('',#761,.T.);
#844=FACE_BOUND('',#762,.T.);
#845=FACE_BOUND('',#763,.T.);
#846=FACE_BOUND('',#764,.T.);
#847=FACE_BOUND('',#765,.T.);
#848=FACE_BOUND('',#766,.T.);
#849=FACE_BOUND('',#767,.T.);
#850=FACE_BOUND('',#768,.T.);
#851=FACE_BOUND('',#769,.T.);
#852=FACE_BOUND('',#770,.T.);
#853=FACE_BOUND('',#771,.T.);
#854=FACE_BOUND('',#772,.T.);
#855=FACE_BOUND('',#773,.T.);
#856=FACE_BOUND('',#774,.T.);
#857=FACE_BOUND('',#775,.T.);
#858=FACE_BOUND('',#776,.T.);
#859=FACE_BOUND('',#777,.T.);
#860=FACE_BOUND('',#778,.T.);
#861=FACE_BOUND('',#779,.T.);
#862=FACE_BOUND('',#780,.T.);
#863=FACE_BOUND('',#781,.T.);
#864=FACE_BOUND('',#782,.T.);
#865=FACE_BOUND('',#783,.T.);
#866=FACE_BOUND('',#784,.T.);
#867=FACE_BOUND('',#785,.T.);
#868=FACE_BOUND('',#786,.T.);
#869=FACE_BOUND('',#787,.T.);
#870=FACE_BOUND('',#788,.T.);
#871=FACE_BOUND('',#789,.T.);
#872=FACE_BOUND('',#790,.T.);
#873=FACE_BOUND('',#791,.T.);
#874=FACE_BOUND('',#792,.T.);
#875=FACE_BOUND('',#793,.T.);
#876=FACE_BOUND('',#794,.T.);
#877=FACE_BOUND('',#795,.T.);
#878=FACE_BOUND('',#796,.T.);
#879=FACE_BOUND('',#797,.T.);
#880=FACE_BOUND('',#798,.T.);
#881=FACE_BOUND('',#799,.T.);
#882=FACE_BOUND('',#800,.T.);
#883=FACE_BOUND('',#801,.T.);
#884=FACE_BOUND('',#802,.T.);
#885=FACE_BOUND('',#803,.T.);
#886=FACE_BOUND('',#804,.T.);
#887=FACE_BOUND('',#805,.T.);
#888=FACE_BOUND('',#806,.T.);
#889=FACE_BOUND('',#807,.T.);
#890=FACE_BOUND('',#808,.T.);
#891=FACE_BOUND('',#809,.T.);
#892=FACE_BOUND('',#810,.T.);
#893=FACE_BOUND('',#811,.T.);
#894=FACE_BOUND('',#812,.T.);
#895=FACE_BOUND('',#813,.T.);
#896=FACE_BOUND('',#814,.T.);
#897=FACE_BOUND('',#815,.T.);
#898=FACE_BOUND('',#816,.T.);
#899=FACE_BOUND('',#817,.T.);
#900=FACE_BOUND('',#818,.T.);
#901=FACE_BOUND('',#819,.T.);
#902=FACE_BOUND('',#820,.T.);
#903=FACE_BOUND('',#821,.T.);
#904=FACE_BOUND('',#822,.T.);
#905=FACE_BOUND('',#823,.T.);
#906=FACE_BOUND('',#824,.T.);
#907=FACE_BOUND('',#825,.T.);
#908=FACE_BOUND('',#826,.T.);
#909=FACE_BOUND('',#827,.T.);
#910=FACE_BOUND('',#828,.T.);
#911=FACE_BOUND('',#829,.T.);
#912=FACE_BOUND('',#830,.T.);
#913=FACE_BOUND('',#831,.T.);
#914=FACE_BOUND('',#832,.T.);
#915=FACE_BOUND('',#833,.T.);
#916=FACE_BOUND('',#834,.T.);
#917=FACE_BOUND('',#835,.T.);
#918=FACE_BOUND('',#836,.T.);
#919=FACE_BOUND('',#837,.T.);
#920=PLANE('',#1011);
#921=PLANE('',#1040);
#922=PLANE('',#1049);
#923=PLANE('',#1058);
#924=PLANE('',#1067);
#925=PLANE('',#1096);
#926=PLANE('',#1100);
#927=PLANE('',#1103);
#928=PLANE('',#1107);
#929=PLANE('',#1108);
#930=PLANE('',#1112);
#931=PLANE('',#1114);
#932=PLANE('',#1118);
#933=PLANE('',#1119);
#934=PLANE('',#1120);
#935=PLANE('',#1121);
#936=PLANE('',#1122);
#937=PLANE('',#1129);
#938=PLANE('',#1132);
#939=PLANE('',#1135);
#940=PLANE('',#1138);
#941=ADVANCED_FACE('',(#838,#839,#840,#841,#842,#843),#920,.T.);
#942=ADVANCED_FACE('',(#844),#921,.F.);
#943=ADVANCED_FACE('',(#845),#922,.F.);
#944=ADVANCED_FACE('',(#846),#923,.F.);
#945=ADVANCED_FACE('',(#847),#924,.F.);
#946=ADVANCED_FACE('',(#848),#28,.F.);
#947=ADVANCED_FACE('',(#849),#29,.F.);
#948=ADVANCED_FACE('',(#850),#30,.F.);
#949=ADVANCED_FACE('',(#851),#31,.F.);
#950=ADVANCED_FACE('',(#852),#32,.F.);
#951=ADVANCED_FACE('',(#853),#33,.F.);
#952=ADVANCED_FACE('',(#854),#34,.F.);
#953=ADVANCED_FACE('',(#855,#856),#35,.F.);
#954=ADVANCED_FACE('',(#857,#858),#36,.F.);
#955=ADVANCED_FACE('',(#859,#860),#37,.F.);
#956=ADVANCED_FACE('',(#861,#862),#38,.F.);
#957=ADVANCED_FACE('',(#863),#39,.T.);
#958=ADVANCED_FACE('',(#864),#925,.T.);
#959=ADVANCED_FACE('',(#865,#866),#40,.T.);
#960=ADVANCED_FACE('',(#867),#926,.F.);
#961=ADVANCED_FACE('',(#868),#41,.T.);
#962=ADVANCED_FACE('',(#869),#42,.T.);
#963=ADVANCED_FACE('',(#870),#927,.T.);
#964=ADVANCED_FACE('',(#871,#872),#43,.T.);
#965=ADVANCED_FACE('',(#873),#928,.F.);
#966=ADVANCED_FACE('',(#874),#929,.T.);
#967=ADVANCED_FACE('',(#875,#876),#44,.T.);
#968=ADVANCED_FACE('',(#877),#930,.F.);
#969=ADVANCED_FACE('',(#878),#45,.T.);
#970=ADVANCED_FACE('',(#879),#931,.T.);
#971=ADVANCED_FACE('',(#880,#881),#46,.T.);
#972=ADVANCED_FACE('',(#882),#932,.F.);
#973=ADVANCED_FACE('',(#883,#884),#933,.F.);
#974=ADVANCED_FACE('',(#885,#886),#934,.F.);
#975=ADVANCED_FACE('',(#887,#888),#935,.F.);
#976=ADVANCED_FACE('',(#889,#890),#936,.F.);
#977=ADVANCED_FACE('',(#891),#12,.F.);
#978=ADVANCED_FACE('',(#892),#13,.F.);
#979=ADVANCED_FACE('',(#893),#14,.F.);
#980=ADVANCED_FACE('',(#894),#15,.F.);
#981=ADVANCED_FACE('',(#895,#896),#47,.F.);
#982=ADVANCED_FACE('',(#897,#898),#937,.T.);
#983=ADVANCED_FACE('',(#899,#900),#48,.F.);
#984=ADVANCED_FACE('',(#901,#902),#938,.T.);
#985=ADVANCED_FACE('',(#903,#904),#49,.F.);
#986=ADVANCED_FACE('',(#905,#906),#939,.T.);
#987=ADVANCED_FACE('',(#907,#908),#50,.F.);
#988=ADVANCED_FACE('',(#909,#910),#940,.T.);
#989=ADVANCED_FACE('',(#911),#51,.F.);
#990=ADVANCED_FACE('',(#912),#52,.T.);
#991=ADVANCED_FACE('',(#913),#53,.T.);
#992=ADVANCED_FACE('',(#914),#54,.T.);
#993=ADVANCED_FACE('',(#915),#55,.T.);
#994=ADVANCED_FACE('',(#916),#56,.T.);
#995=ADVANCED_FACE('',(#917),#57,.T.);
#996=ADVANCED_FACE('',(#918),#58,.T.);
#997=ADVANCED_FACE('',(#919),#59,.T.);
#998=CLOSED_SHELL('',(#941,#942,#943,#944,#945,#946,#947,#948,#949,#950,
#951,#952,#953,#954,#955,#956,#957,#958,#959,#960,#961,#962,#963,#964,#965,
#966,#967,#968,#969,#970,#971,#972,#973,#974,#975,#976,#977,#978,#979,#980,
#981,#982,#983,#984,#985,#986,#987,#988,#989,#990,#991,#992,#993,#994,#995,
#996,#997));
#999=STYLED_ITEM('',(#1000),#1007);
#1000=PRESENTATION_STYLE_ASSIGNMENT((#1001));
#1001=SURFACE_STYLE_USAGE(.BOTH.,#1002);
#1002=SURFACE_SIDE_STYLE('',(#1003));
#1003=SURFACE_STYLE_FILL_AREA(#1004);
#1004=FILL_AREA_STYLE('',(#1005));
#1005=FILL_AREA_STYLE_COLOUR('',#1006);
#1006=COLOUR_RGB('',0.541176470588235,0.682352941176471,0.83921568627451);
#1007=MANIFOLD_SOLID_BREP('PG1 Carriage Male',#998);
#1008=SHAPE_DEFINITION_REPRESENTATION(#1864,#1009);
#1009=SHAPE_REPRESENTATION('PG1 Carriage Male',(#1010),#1859);
#1010=AXIS2_PLACEMENT_3D('',#1472,#1148,#1149);
#1011=AXIS2_PLACEMENT_3D('',#1473,#1150,#1151);
#1012=AXIS2_PLACEMENT_3D('',#1474,#1152,#1153);
#1013=AXIS2_PLACEMENT_3D('',#1477,#1154,#1155);
#1014=AXIS2_PLACEMENT_3D('',#1479,#1156,#1157);
#1015=AXIS2_PLACEMENT_3D('',#1481,#1158,#1159);
#1016=AXIS2_PLACEMENT_3D('',#1483,#1160,#1161);
#1017=AXIS2_PLACEMENT_3D('',#1485,#1162,#1163);
#1018=AXIS2_PLACEMENT_3D('',#1487,#1164,#1165);
#1019=AXIS2_PLACEMENT_3D('',#1489,#1166,#1167);
#1020=AXIS2_PLACEMENT_3D('',#1491,#1168,#1169);
#1021=AXIS2_PLACEMENT_3D('',#1493,#1170,#1171);
#1022=AXIS2_PLACEMENT_3D('',#1495,#1172,#1173);
#1023=AXIS2_PLACEMENT_3D('',#1497,#1174,#1175);
#1024=AXIS2_PLACEMENT_3D('',#1499,#1176,#1177);
#1025=AXIS2_PLACEMENT_3D('',#1501,#1178,#1179);
#1026=AXIS2_PLACEMENT_3D('',#1503,#1180,#1181);
#1027=AXIS2_PLACEMENT_3D('',#1505,#1182,#1183);
#1028=AXIS2_PLACEMENT_3D('',#1506,#1184,#1185);
#1029=AXIS2_PLACEMENT_3D('',#1508,#1186,#1187);
#1030=AXIS2_PLACEMENT_3D('',#1510,#1188,#1189);
#1031=AXIS2_PLACEMENT_3D('',#1512,#1190,#1191);
#1032=AXIS2_PLACEMENT_3D('',#1517,#1193,#1194);
#1033=AXIS2_PLACEMENT_3D('',#1521,#1196,#1197);
#1034=AXIS2_PLACEMENT_3D('',#1525,#1199,#1200);
#1035=AXIS2_PLACEMENT_3D('',#1529,#1202,#1203);
#1036=AXIS2_PLACEMENT_3D('',#1533,#1205,#1206);
#1037=AXIS2_PLACEMENT_3D('',#1537,#1208,#1209);
#1038=AXIS2_PLACEMENT_3D('',#1541,#1211,#1212);
#1039=AXIS2_PLACEMENT_3D('',#1545,#1214,#1215);
#1040=AXIS2_PLACEMENT_3D('',#1546,#1216,#1217);
#1041=AXIS2_PLACEMENT_3D('',#1547,#1218,#1219);
#1042=AXIS2_PLACEMENT_3D('',#1550,#1220,#1221);
#1043=AXIS2_PLACEMENT_3D('',#1552,#1222,#1223);
#1044=AXIS2_PLACEMENT_3D('',#1554,#1224,#1225);
#1045=AXIS2_PLACEMENT_3D('',#1556,#1226,#1227);
#1046=AXIS2_PLACEMENT_3D('',#1558,#1228,#1229);
#1047=AXIS2_PLACEMENT_3D('',#1562,#1231,#1232);
#1048=AXIS2_PLACEMENT_3D('',#1566,#1234,#1235);
#1049=AXIS2_PLACEMENT_3D('',#1567,#1236,#1237);
#1050=AXIS2_PLACEMENT_3D('',#1568,#1238,#1239);
#1051=AXIS2_PLACEMENT_3D('',#1571,#1240,#1241);
#1052=AXIS2_PLACEMENT_3D('',#1573,#1242,#1243);
#1053=AXIS2_PLACEMENT_3D('',#1577,#1245,#1246);
#1054=AXIS2_PLACEMENT_3D('',#1581,#1248,#1249);
#1055=AXIS2_PLACEMENT_3D('',#1583,#1250,#1251);
#1056=AXIS2_PLACEMENT_3D('',#1585,#1252,#1253);
#1057=AXIS2_PLACEMENT_3D('',#1587,#1254,#1255);
#1058=AXIS2_PLACEMENT_3D('',#1588,#1256,#1257);
#1059=AXIS2_PLACEMENT_3D('',#1589,#1258,#1259);
#1060=AXIS2_PLACEMENT_3D('',#1592,#1260,#1261);
#1061=AXIS2_PLACEMENT_3D('',#1594,#1262,#1263);
#1062=AXIS2_PLACEMENT_3D('',#1598,#1265,#1266);
#1063=AXIS2_PLACEMENT_3D('',#1602,#1268,#1269);
#1064=AXIS2_PLACEMENT_3D('',#1604,#1270,#1271);
#1065=AXIS2_PLACEMENT_3D('',#1606,#1272,#1273);
#1066=AXIS2_PLACEMENT_3D('',#1608,#1274,#1275);
#1067=AXIS2_PLACEMENT_3D('',#1609,#1276,#1277);
#1068=AXIS2_PLACEMENT_3D('',#1610,#1278,#1279);
#1069=AXIS2_PLACEMENT_3D('',#1613,#1280,#1281);
#1070=AXIS2_PLACEMENT_3D('',#1615,#1282,#1283);
#1071=AXIS2_PLACEMENT_3D('',#1619,#1285,#1286);
#1072=AXIS2_PLACEMENT_3D('',#1623,#1288,#1289);
#1073=AXIS2_PLACEMENT_3D('',#1625,#1290,#1291);
#1074=AXIS2_PLACEMENT_3D('',#1627,#1292,#1293);
#1075=AXIS2_PLACEMENT_3D('',#1629,#1294,#1295);
#1076=AXIS2_PLACEMENT_3D('',#1630,#1296,#1297);
#1077=AXIS2_PLACEMENT_3D('',#1633,#1300,#1301);
#1078=AXIS2_PLACEMENT_3D('',#1636,#1304,#1305);
#1079=AXIS2_PLACEMENT_3D('',#1639,#1308,#1309);
#1080=AXIS2_PLACEMENT_3D('',#1642,#1312,#1313);
#1081=AXIS2_PLACEMENT_3D('',#1650,#1316,#1317);
#1082=AXIS2_PLACEMENT_3D('',#1658,#1320,#1321);
#1083=AXIS2_PLACEMENT_3D('',#1666,#1324,#1325);
#1084=AXIS2_PLACEMENT_3D('',#1667,#1326,#1327);
#1085=AXIS2_PLACEMENT_3D('',#1669,#1328,#1329);
#1086=AXIS2_PLACEMENT_3D('',#1671,#1330,#1331);
#1087=AXIS2_PLACEMENT_3D('',#1672,#1332,#1333);
#1088=AXIS2_PLACEMENT_3D('',#1674,#1334,#1335);
#1089=AXIS2_PLACEMENT_3D('',#1676,#1336,#1337);
#1090=AXIS2_PLACEMENT_3D('',#1677,#1338,#1339);
#1091=AXIS2_PLACEMENT_3D('',#1679,#1340,#1341);
#1092=AXIS2_PLACEMENT_3D('',#1681,#1342,#1343);
#1093=AXIS2_PLACEMENT_3D('',#1682,#1344,#1345);
#1094=AXIS2_PLACEMENT_3D('',#1684,#1346,#1347);
#1095=AXIS2_PLACEMENT_3D('',#1686,#1348,#1349);
#1096=AXIS2_PLACEMENT_3D('',#1689,#1352,#1353);
#1097=AXIS2_PLACEMENT_3D('',#1702,#1355,#1356);
#1098=AXIS2_PLACEMENT_3D('',#1703,#1357,#1358);
#1099=AXIS2_PLACEMENT_3D('',#1706,#1360,#1361);
#1100=AXIS2_PLACEMENT_3D('',#1708,#1362,#1363);
#1101=AXIS2_PLACEMENT_3D('',#1720,#1365,#1366);
#1102=AXIS2_PLACEMENT_3D('',#1722,#1368,#1369);
#1103=AXIS2_PLACEMENT_3D('',#1725,#1372,#1373);
#1104=AXIS2_PLACEMENT_3D('',#1738,#1375,#1376);
#1105=AXIS2_PLACEMENT_3D('',#1741,#1378,#1379);
#1106=AXIS2_PLACEMENT_3D('',#1742,#1380,#1381);
#1107=AXIS2_PLACEMENT_3D('',#1744,#1382,#1383);
#1108=AXIS2_PLACEMENT_3D('',#1755,#1384,#1385);
#1109=AXIS2_PLACEMENT_3D('',#1768,#1387,#1388);
#1110=AXIS2_PLACEMENT_3D('',#1771,#1390,#1391);
#1111=AXIS2_PLACEMENT_3D('',#1772,#1392,#1393);
#1112=AXIS2_PLACEMENT_3D('',#1774,#1394,#1395);
#1113=AXIS2_PLACEMENT_3D('',#1786,#1397,#1398);
#1114=AXIS2_PLACEMENT_3D('',#1788,#1400,#1401);
#1115=AXIS2_PLACEMENT_3D('',#1801,#1403,#1404);
#1116=AXIS2_PLACEMENT_3D('',#1802,#1405,#1406);
#1117=AXIS2_PLACEMENT_3D('',#1805,#1408,#1409);
#1118=AXIS2_PLACEMENT_3D('',#1807,#1410,#1411);
#1119=AXIS2_PLACEMENT_3D('',#1818,#1412,#1413);
#1120=AXIS2_PLACEMENT_3D('',#1819,#1414,#1415);
#1121=AXIS2_PLACEMENT_3D('',#1820,#1416,#1417);
#1122=AXIS2_PLACEMENT_3D('',#1821,#1418,#1419);
#1123=AXIS2_PLACEMENT_3D('',#1822,#1420,#1421);
#1124=AXIS2_PLACEMENT_3D('',#1823,#1422,#1423);
#1125=AXIS2_PLACEMENT_3D('',#1829,#1424,#1425);
#1126=AXIS2_PLACEMENT_3D('',#1830,#1426,#1427);
#1127=AXIS2_PLACEMENT_3D('',#1831,#1428,#1429);
#1128=AXIS2_PLACEMENT_3D('',#1832,#1430,#1431);
#1129=AXIS2_PLACEMENT_3D('',#1834,#1432,#1433);
#1130=AXIS2_PLACEMENT_3D('',#1835,#1434,#1435);
#1131=AXIS2_PLACEMENT_3D('',#1836,#1436,#1437);
#1132=AXIS2_PLACEMENT_3D('',#1838,#1438,#1439);
#1133=AXIS2_PLACEMENT_3D('',#1839,#1440,#1441);
#1134=AXIS2_PLACEMENT_3D('',#1840,#1442,#1443);
#1135=AXIS2_PLACEMENT_3D('',#1842,#1444,#1445);
#1136=AXIS2_PLACEMENT_3D('',#1843,#1446,#1447);
#1137=AXIS2_PLACEMENT_3D('',#1844,#1448,#1449);
#1138=AXIS2_PLACEMENT_3D('',#1846,#1450,#1451);
#1139=AXIS2_PLACEMENT_3D('',#1847,#1452,#1453);
#1140=AXIS2_PLACEMENT_3D('',#1850,#1456,#1457);
#1141=AXIS2_PLACEMENT_3D('',#1851,#1458,#1459);
#1142=AXIS2_PLACEMENT_3D('',#1852,#1460,#1461);
#1143=AXIS2_PLACEMENT_3D('',#1853,#1462,#1463);
#1144=AXIS2_PLACEMENT_3D('',#1854,#1464,#1465);
#1145=AXIS2_PLACEMENT_3D('',#1855,#1466,#1467);
#1146=AXIS2_PLACEMENT_3D('',#1856,#1468,#1469);
#1147=AXIS2_PLACEMENT_3D('',#1857,#1470,#1471);
#1148=DIRECTION('',(0.,0.,1.));
#1149=DIRECTION('',(1.,0.,0.));
#1150=DIRECTION('',(0.,1.,0.));
#1151=DIRECTION('',(-1.,0.,0.));
#1152=DIRECTION('',(0.,-1.,0.));
#1153=DIRECTION('',(0.,0.,1.));
#1154=DIRECTION('',(0.,1.,0.));
#1155=DIRECTION('',(0.,0.,1.));
#1156=DIRECTION('',(0.,1.,0.));
#1157=DIRECTION('',(0.,0.,1.));
#1158=DIRECTION('',(0.,-1.,0.));
#1159=DIRECTION('',(0.766044443118977,0.,0.642787609686541));
#1160=DIRECTION('',(0.,-1.,0.));
#1161=DIRECTION('',(0.,0.,1.));
#1162=DIRECTION('',(0.,1.,0.));
#1163=DIRECTION('',(0.,0.,1.));
#1164=DIRECTION('',(0.,1.,0.));
#1165=DIRECTION('',(0.,0.,1.));
#1166=DIRECTION('',(0.,-1.,0.));
#1167=DIRECTION('',(-0.766044443118977,0.,-0.642787609686541));
#1168=DIRECTION('',(0.,-1.,0.));
#1169=DIRECTION('',(0.,0.,1.));
#1170=DIRECTION('',(0.,1.,0.));
#1171=DIRECTION('',(0.,0.,1.));
#1172=DIRECTION('',(0.,1.,0.));
#1173=DIRECTION('',(0.,0.,1.));
#1174=DIRECTION('',(0.,1.,0.));
#1175=DIRECTION('',(0.,0.,1.));
#1176=DIRECTION('',(0.,-1.,0.));
#1177=DIRECTION('',(0.,0.,1.));
#1178=DIRECTION('',(0.,1.,0.));
#1179=DIRECTION('',(0.,0.,1.));
#1180=DIRECTION('',(0.,1.,0.));
#1181=DIRECTION('',(0.,0.,1.));
#1182=DIRECTION('',(0.,1.,0.));
#1183=DIRECTION('',(0.,0.,1.));
#1184=DIRECTION('',(0.,1.,0.));
#1185=DIRECTION('',(0.,0.,1.));
#1186=DIRECTION('',(0.,1.,0.));
#1187=DIRECTION('',(0.,0.,1.));
#1188=DIRECTION('',(0.,1.,0.));
#1189=DIRECTION('',(0.,0.,1.));
#1190=DIRECTION('',(0.,1.,0.));
#1191=DIRECTION('',(0.,0.,1.));
#1192=DIRECTION('',(0.994862296161479,0.,0.101237402556117));
#1193=DIRECTION('',(0.,1.,0.));
#1194=DIRECTION('',(0.,0.,1.));
#1195=DIRECTION('',(-0.561932807652989,0.,0.827182881643007));
#1196=DIRECTION('',(0.,1.,0.));
#1197=DIRECTION('',(0.,0.,1.));
#1198=DIRECTION('',(0.101237402556116,0.,-0.994862296161479));
#1199=DIRECTION('',(0.,1.,0.));
#1200=DIRECTION('',(0.,0.,1.));
#1201=DIRECTION('',(0.827182881643007,0.,0.561932807652989));
#1202=DIRECTION('',(0.,-1.,0.));
#1203=DIRECTION('',(-0.766044443118977,0.,-0.642787609686541));
#1204=DIRECTION('',(-0.994862296161479,0.,-0.101237402556117));
#1205=DIRECTION('',(0.,-1.,0.));
#1206=DIRECTION('',(-0.766044443118977,0.,-0.642787609686541));
#1207=DIRECTION('',(0.561932807652989,0.,-0.827182881643007));
#1208=DIRECTION('',(0.,1.,0.));
#1209=DIRECTION('',(0.,0.,-1.));
#1210=DIRECTION('',(-0.101237402556116,0.,0.994862296161479));
#1211=DIRECTION('',(0.,-1.,0.));
#1212=DIRECTION('',(0.766044443118977,0.,0.642787609686541));
#1213=DIRECTION('',(-0.827182881643007,0.,-0.561932807652989));
#1214=DIRECTION('',(0.,-1.,0.));
#1215=DIRECTION('',(0.766044443118977,0.,0.642787609686541));
#1216=DIRECTION('',(0.,1.,0.));
#1217=DIRECTION('',(-1.,0.,0.));
#1218=DIRECTION('',(0.,1.,0.));
#1219=DIRECTION('',(0.,0.,1.));
#1220=DIRECTION('',(0.,1.,0.));
#1221=DIRECTION('',(0.,0.,1.));
#1222=DIRECTION('',(0.,1.,0.));
#1223=DIRECTION('',(0.,0.,1.));
#1224=DIRECTION('',(0.,1.,0.));
#1225=DIRECTION('',(0.,0.,1.));
#1226=DIRECTION('',(0.,1.,0.));
#1227=DIRECTION('',(0.,0.,1.));
#1228=DIRECTION('',(0.,1.,0.));
#1229=DIRECTION('',(0.,0.,1.));
#1230=DIRECTION('',(-0.561932807652989,0.,0.827182881643007));
#1231=DIRECTION('',(0.,1.,0.));
#1232=DIRECTION('',(0.,0.,1.));
#1233=DIRECTION('',(0.994862296161479,0.,0.101237402556117));
#1234=DIRECTION('',(0.,1.,0.));
#1235=DIRECTION('',(0.,0.,1.));
#1236=DIRECTION('',(0.,1.,0.));
#1237=DIRECTION('',(-1.,0.,0.));
#1238=DIRECTION('',(0.,1.,0.));
#1239=DIRECTION('',(0.,0.,1.));
#1240=DIRECTION('',(0.,1.,0.));
#1241=DIRECTION('',(0.,0.,1.));
#1242=DIRECTION('',(0.,1.,0.));
#1243=DIRECTION('',(0.,0.,1.));
#1244=DIRECTION('',(0.561932807652989,0.,-0.827182881643007));
#1245=DIRECTION('',(0.,-1.,0.));
#1246=DIRECTION('',(-0.766044443118977,0.,-0.642787609686541));
#1247=DIRECTION('',(-0.994862296161479,0.,-0.101237402556117));
#1248=DIRECTION('',(0.,1.,0.));
#1249=DIRECTION('',(0.,0.,1.));
#1250=DIRECTION('',(0.,1.,0.));
#1251=DIRECTION('',(0.,0.,1.));
#1252=DIRECTION('',(0.,1.,0.));
#1253=DIRECTION('',(0.,0.,1.));
#1254=DIRECTION('',(0.,-1.,0.));
#1255=DIRECTION('',(-0.766044443118977,0.,-0.642787609686541));
#1256=DIRECTION('',(0.,1.,0.));
#1257=DIRECTION('',(-1.,0.,0.));
#1258=DIRECTION('',(0.,1.,0.));
#1259=DIRECTION('',(0.,0.,1.));
#1260=DIRECTION('',(0.,1.,0.));
#1261=DIRECTION('',(0.,0.,1.));
#1262=DIRECTION('',(0.,1.,0.));
#1263=DIRECTION('',(0.,0.,1.));
#1264=DIRECTION('',(-0.827182881643007,0.,-0.561932807652989));
#1265=DIRECTION('',(0.,-1.,0.));
#1266=DIRECTION('',(0.766044443118977,0.,0.642787609686541));
#1267=DIRECTION('',(-0.101237402556116,0.,0.994862296161479));
#1268=DIRECTION('',(0.,1.,0.));
#1269=DIRECTION('',(0.,0.,1.));
#1270=DIRECTION('',(0.,1.,0.));
#1271=DIRECTION('',(0.,0.,1.));
#1272=DIRECTION('',(0.,1.,0.));
#1273=DIRECTION('',(0.,0.,1.));
#1274=DIRECTION('',(0.,-1.,0.));
#1275=DIRECTION('',(0.766044443118977,0.,0.642787609686541));
#1276=DIRECTION('',(0.,1.,0.));
#1277=DIRECTION('',(-1.,0.,0.));
#1278=DIRECTION('',(0.,1.,0.));
#1279=DIRECTION('',(0.,0.,1.));
#1280=DIRECTION('',(0.,1.,0.));
#1281=DIRECTION('',(0.,0.,1.));
#1282=DIRECTION('',(0.,1.,0.));
#1283=DIRECTION('',(0.,0.,1.));
#1284=DIRECTION('',(0.827182881643007,0.,0.561932807652989));
#1285=DIRECTION('',(0.,1.,0.));
#1286=DIRECTION('',(0.,0.,1.));
#1287=DIRECTION('',(0.101237402556116,0.,-0.994862296161479));
#1288=DIRECTION('',(0.,1.,0.));
#1289=DIRECTION('',(0.,0.,1.));
#1290=DIRECTION('',(0.,1.,0.));
#1291=DIRECTION('',(0.,0.,1.));
#1292=DIRECTION('',(0.,1.,0.));
#1293=DIRECTION('',(0.,0.,1.));
#1294=DIRECTION('',(0.,1.,0.));
#1295=DIRECTION('',(0.,0.,1.));
#1296=DIRECTION('',(0.,-1.,0.));
#1297=DIRECTION('',(0.,0.,-1.));
#1298=DIRECTION('',(0.,-1.,0.));
#1299=DIRECTION('',(0.,-1.,0.));
#1300=DIRECTION('',(0.,-1.,0.));
#1301=DIRECTION('',(0.,0.,-1.));
#1302=DIRECTION('',(0.,-1.,0.));
#1303=DIRECTION('',(0.,-1.,0.));
#1304=DIRECTION('',(0.,-1.,0.));
#1305=DIRECTION('',(0.766044443118977,0.,0.642787609686541));
#1306=DIRECTION('',(0.,-1.,0.));
#1307=DIRECTION('',(0.,-1.,0.));
#1308=DIRECTION('',(0.,-1.,0.));
#1309=DIRECTION('',(-0.766044443118977,0.,-0.642787609686541));
#1310=DIRECTION('',(0.,-1.,0.));
#1311=DIRECTION('',(0.,-1.,0.));
#1312=DIRECTION('',(0.,1.,0.));
#1313=DIRECTION('',(0.,0.,1.));
#1314=DIRECTION('',(0.,1.,0.));
#1315=DIRECTION('',(0.,1.,0.));
#1316=DIRECTION('',(0.,1.,0.));
#1317=DIRECTION('',(0.,0.,1.));
#1318=DIRECTION('',(0.,1.,0.));
#1319=DIRECTION('',(0.,1.,0.));
#1320=DIRECTION('',(0.,1.,0.));
#1321=DIRECTION('',(0.,0.,1.));
#1322=DIRECTION('',(0.,1.,0.));
#1323=DIRECTION('',(0.,1.,0.));
#1324=DIRECTION('',(0.,-1.,0.));
#1325=DIRECTION('',(0.,0.,-1.));
#1326=DIRECTION('',(0.,1.,0.));
#1327=DIRECTION('',(0.,0.,1.));
#1328=DIRECTION('',(0.,1.,0.));
#1329=DIRECTION('',(0.,0.,1.));
#1330=DIRECTION('',(0.,-1.,0.));
#1331=DIRECTION('',(0.766044443118977,0.,0.642787609686541));
#1332=DIRECTION('',(0.,1.,0.));
#1333=DIRECTION('',(0.,0.,1.));
#1334=DIRECTION('',(0.,-1.,0.));
#1335=DIRECTION('',(-0.766044443118977,0.,-0.642787609686541));
#1336=DIRECTION('',(0.,-1.,0.));
#1337=DIRECTION('',(-0.766044443118977,0.,-0.642787609686541));
#1338=DIRECTION('',(0.,1.,0.));
#1339=DIRECTION('',(0.,0.,1.));
#1340=DIRECTION('',(0.,-1.,0.));
#1341=DIRECTION('',(0.766044443118977,0.,0.642787609686541));
#1342=DIRECTION('',(0.,-1.,0.));
#1343=DIRECTION('',(0.,0.,1.));
#1344=DIRECTION('',(0.,1.,0.));
#1345=DIRECTION('',(0.,0.,1.));
#1346=DIRECTION('',(0.,1.,0.));
#1347=DIRECTION('',(0.,0.,-1.));
#1348=DIRECTION('',(0.,-1.,0.));
#1349=DIRECTION('',(0.,0.,-1.));
#1350=DIRECTION('',(0.,-1.,0.));
#1351=DIRECTION('',(0.,-1.,0.));
#1352=DIRECTION('',(0.827182881643007,0.,0.561932807652989));
#1353=DIRECTION('',(0.561932807652989,0.,-0.827182881643007));
#1354=DIRECTION('',(0.,-1.,0.));
#1355=DIRECTION('',(0.,-1.,0.));
#1356=DIRECTION('',(0.,0.,-1.));
#1357=DIRECTION('',(0.,1.,0.));
#1358=DIRECTION('',(0.,0.,1.));
#1359=DIRECTION('',(0.,-1.,0.));
#1360=DIRECTION('',(0.,1.,0.));
#1361=DIRECTION('',(0.,0.,1.));
#1362=DIRECTION('',(-0.994862296161479,0.,-0.101237402556116));
#1363=DIRECTION('',(-0.101237402556116,0.,0.994862296161479));
#1364=DIRECTION('',(0.,-1.,0.));
#1365=DIRECTION('',(0.,-1.,0.));
#1366=DIRECTION('',(0.,0.,-1.));
#1367=DIRECTION('',(0.,-1.,0.));
#1368=DIRECTION('',(0.,-1.,0.));
#1369=DIRECTION('',(0.766044443118977,0.,0.642787609686541));
#1370=DIRECTION('',(0.,-1.,0.));
#1371=DIRECTION('',(0.,-1.,0.));
#1372=DIRECTION('',(0.101237402556117,0.,-0.994862296161479));
#1373=DIRECTION('',(0.994862296161479,0.,0.101237402556117));
#1374=DIRECTION('',(0.,-1.,0.));
#1375=DIRECTION('',(0.,-1.,0.));
#1376=DIRECTION('',(0.766044443118977,0.,0.642787609686541));
#1377=DIRECTION('',(0.,-1.,0.));
#1378=DIRECTION('',(0.,1.,0.));
#1379=DIRECTION('',(0.,0.,1.));
#1380=DIRECTION('',(0.,1.,0.));
#1381=DIRECTION('',(0.,0.,1.));
#1382=DIRECTION('',(-0.561932807652989,0.,0.827182881643007));
#1383=DIRECTION('',(-0.827182881643007,0.,-0.561932807652989));
#1384=DIRECTION('',(-0.101237402556117,0.,0.994862296161479));
#1385=DIRECTION('',(-0.994862296161479,0.,-0.101237402556117));
#1386=DIRECTION('',(0.,-1.,0.));
#1387=DIRECTION('',(0.,-1.,0.));
#1388=DIRECTION('',(-0.766044443118977,0.,-0.642787609686541));
#1389=DIRECTION('',(0.,-1.,0.));
#1390=DIRECTION('',(0.,1.,0.));
#1391=DIRECTION('',(0.,0.,1.));
#1392=DIRECTION('',(0.,1.,0.));
#1393=DIRECTION('',(0.,0.,1.));
#1394=DIRECTION('',(0.561932807652989,0.,-0.827182881643007));
#1395=DIRECTION('',(0.827182881643007,0.,0.561932807652989));
#1396=DIRECTION('',(0.,-1.,0.));
#1397=DIRECTION('',(0.,-1.,0.));
#1398=DIRECTION('',(-0.766044443118977,0.,-0.642787609686541));
#1399=DIRECTION('',(0.,-1.,0.));
#1400=DIRECTION('',(-0.827182881643007,0.,-0.561932807652989));
#1401=DIRECTION('',(-0.561932807652989,0.,0.827182881643007));
#1402=DIRECTION('',(0.,-1.,0.));
#1403=DIRECTION('',(0.,-1.,0.));
#1404=DIRECTION('',(0.,0.,1.));
#1405=DIRECTION('',(0.,1.,0.));
#1406=DIRECTION('',(0.,0.,1.));
#1407=DIRECTION('',(0.,-1.,0.));
#1408=DIRECTION('',(0.,1.,0.));
#1409=DIRECTION('',(0.,0.,1.));
#1410=DIRECTION('',(0.994862296161479,0.,0.101237402556116));
#1411=DIRECTION('',(0.101237402556116,0.,-0.994862296161479));
#1412=DIRECTION('',(0.,1.,0.));
#1413=DIRECTION('',(-1.,0.,0.));
#1414=DIRECTION('',(0.,1.,0.));
#1415=DIRECTION('',(-1.,0.,0.));
#1416=DIRECTION('',(0.,1.,0.));
#1417=DIRECTION('',(-1.,0.,0.));
#1418=DIRECTION('',(0.,1.,0.));
#1419=DIRECTION('',(-1.,0.,0.));
#1420=DIRECTION('',(0.,1.,0.));
#1421=DIRECTION('',(0.,0.,1.));
#1422=DIRECTION('',(0.,1.,0.));
#1423=DIRECTION('',(0.,0.,1.));
#1424=DIRECTION('',(0.,1.,0.));
#1425=DIRECTION('',(0.,0.,1.));
#1426=DIRECTION('',(0.,1.,0.));
#1427=DIRECTION('',(0.,0.,1.));
#1428=DIRECTION('',(0.,1.,0.));
#1429=DIRECTION('',(0.,0.,1.));
#1430=DIRECTION('',(0.,1.,0.));
#1431=DIRECTION('',(0.,0.,1.));
#1432=DIRECTION('',(0.,1.,0.));
#1433=DIRECTION('',(-1.,0.,0.));
#1434=DIRECTION('',(0.,1.,0.));
#1435=DIRECTION('',(0.,0.,1.));
#1436=DIRECTION('',(0.,1.,0.));
#1437=DIRECTION('',(0.,0.,1.));
#1438=DIRECTION('',(0.,1.,0.));
#1439=DIRECTION('',(-1.,0.,0.));
#1440=DIRECTION('',(0.,1.,0.));
#1441=DIRECTION('',(0.,0.,1.));
#1442=DIRECTION('',(0.,1.,0.));
#1443=DIRECTION('',(0.,0.,1.));
#1444=DIRECTION('',(0.,1.,0.));
#1445=DIRECTION('',(-1.,0.,0.));
#1446=DIRECTION('',(0.,1.,0.));
#1447=DIRECTION('',(0.,0.,1.));
#1448=DIRECTION('',(0.,1.,0.));
#1449=DIRECTION('',(0.,0.,1.));
#1450=DIRECTION('',(0.,1.,0.));
#1451=DIRECTION('',(-1.,0.,0.));
#1452=DIRECTION('',(0.,1.,0.));
#1453=DIRECTION('',(0.,0.,1.));
#1454=DIRECTION('',(0.,1.,0.));
#1455=DIRECTION('',(0.,1.,0.));
#1456=DIRECTION('',(0.,1.,0.));
#1457=DIRECTION('',(0.,0.,1.));
#1458=DIRECTION('',(0.,1.,0.));
#1459=DIRECTION('',(0.,0.,1.));
#1460=DIRECTION('',(0.,1.,0.));
#1461=DIRECTION('',(0.,0.,1.));
#1462=DIRECTION('',(0.,1.,0.));
#1463=DIRECTION('',(0.,0.,1.));
#1464=DIRECTION('',(0.,1.,0.));
#1465=DIRECTION('',(0.,0.,1.));
#1466=DIRECTION('',(0.,1.,0.));
#1467=DIRECTION('',(0.,0.,1.));
#1468=DIRECTION('',(0.,1.,0.));
#1469=DIRECTION('',(0.,0.,1.));
#1470=DIRECTION('',(0.,1.,0.));
#1471=DIRECTION('',(0.,0.,1.));
#1472=CARTESIAN_POINT('',(0.,0.,0.));
#1473=CARTESIAN_POINT('',(0.,0.0673,6.93889390390723E-18));
#1474=CARTESIAN_POINT('',(0.0103382721051552,0.0673,0.0327759566620693));
#1475=CARTESIAN_POINT('',(0.00997334359538916,0.0673,0.0315743576807916));
#1476=CARTESIAN_POINT('',(0.0114589368879801,0.0673,0.0333426341484614));
#1477=CARTESIAN_POINT('',(1.10328413072125E-15,0.0673,-5.01475960793947E-16));
#1478=CARTESIAN_POINT('',(-0.0279356303415874,0.0673,0.0177766195561577));
#1479=CARTESIAN_POINT('',(-0.0289875547356067,0.0673,0.0184625262541238));
#1480=CARTESIAN_POINT('',(-0.0302102870320305,0.0673,0.0181762769566036));
#1481=CARTESIAN_POINT('',(-0.0371586192685027,0.0673,0.0173273487313687));
#1482=CARTESIAN_POINT('',(-0.0333426341484624,0.0673,0.0114589368879794));
#1483=CARTESIAN_POINT('',(-0.0327759566620687,0.0673,0.0103382721051536));
#1484=CARTESIAN_POINT('',(-0.031574357680791,0.0673,0.00997334359538755));
#1485=CARTESIAN_POINT('',(1.10328413072125E-15,0.0673,-5.01475960793947E-16));
#1486=CARTESIAN_POINT('',(-0.0177766195561571,0.0673,-0.0279356303415891));
#1487=CARTESIAN_POINT('',(-0.0184625262541232,0.0673,-0.0289875547356083));
#1488=CARTESIAN_POINT('',(-0.0181762769566024,0.0673,-0.0302102870320303));
#1489=CARTESIAN_POINT('',(-0.0173273487313686,0.0673,-0.0371586192685027));
#1490=CARTESIAN_POINT('',(-0.0114589368879787,0.0673,-0.0333426341484633));
#1491=CARTESIAN_POINT('',(-0.010338272105153,0.0673,-0.0327759566620703));
#1492=CARTESIAN_POINT('',(-0.00997334359538696,0.0673,-0.0315743576807926));
#1493=CARTESIAN_POINT('',(1.10328413072125E-15,0.0673,-5.01475960793947E-16));
#1494=CARTESIAN_POINT('',(0.0279356303415896,0.0673,-0.0177766195561587));
#1495=CARTESIAN_POINT('',(0.0289875547356089,0.0673,-0.0184625262541248));
#1496=CARTESIAN_POINT('',(0.0302102870320304,0.0673,-0.0181762769566036));
#1497=CARTESIAN_POINT('',(0.0371586192685026,0.0673,-0.0173273487313687));
#1498=CARTESIAN_POINT('',(0.0333426341484624,0.0673,-0.0114589368879794));
#1499=CARTESIAN_POINT('',(0.0327759566620709,0.0673,-0.0103382721051546));
#1500=CARTESIAN_POINT('',(0.0315743576807932,0.0673,-0.00997334359538855));
#1501=CARTESIAN_POINT('',(1.10328413072125E-15,0.0673,-5.01475960793947E-16));
#1502=CARTESIAN_POINT('',(0.0177766195561593,0.0673,0.027935630341588));
#1503=CARTESIAN_POINT('',(0.0184625262541254,0.0673,0.0289875547356073));
#1504=CARTESIAN_POINT('',(0.0181762769566048,0.0673,0.0302102870320305));
#1505=CARTESIAN_POINT('',(0.0173273487313687,0.0673,0.0371586192685026));
#1506=CARTESIAN_POINT('',(0.0380575511418293,0.0673,0.0138518158046896));
#1507=CARTESIAN_POINT('',(0.0380575511418293,0.0673,0.0176018158046896));
#1508=CARTESIAN_POINT('',(0.0138518158046897,0.0673,-0.0380575511418293));
#1509=CARTESIAN_POINT('',(0.0138518158046897,0.0673,-0.0343075511418292));
#1510=CARTESIAN_POINT('',(-0.0380575511418293,0.0673,-0.0138518158046896));
#1511=CARTESIAN_POINT('',(-0.0380575511418293,0.0673,-0.0101018158046896));
#1512=CARTESIAN_POINT('',(-0.0138518158046897,0.0673,0.0380575511418293));
#1513=CARTESIAN_POINT('',(-0.0138518158046897,0.0673,0.0418075511418293));
#1514=CARTESIAN_POINT('',(0.00131803704237948,0.0673,0.0455811506079911));
#1515=CARTESIAN_POINT('',(-0.0136789006210487,0.0673,0.0440550589858646));
#1516=CARTESIAN_POINT('',(0.0163149747058074,0.0673,0.0471072422301175));
#1517=CARTESIAN_POINT('',(0.0173273487313687,0.0673,0.0371586192685026));
#1518=CARTESIAN_POINT('',(0.0255991775477988,0.0673,0.0427779473450325));
#1519=CARTESIAN_POINT('',(0.0340699692542713,0.0673,0.0303086737982126));
#1520=CARTESIAN_POINT('',(0.042540760960744,0.0673,0.0178394002513925));
#1521=CARTESIAN_POINT('',(0.0380575511418294,0.0673,0.0138518158046896));
#1522=CARTESIAN_POINT('',(0.0440550589858647,0.0673,0.0136789006210484));
#1523=CARTESIAN_POINT('',(0.0455811506079911,0.0673,-0.00131803704237952));
#1524=CARTESIAN_POINT('',(0.0471072422301175,0.0673,-0.0163149747058075));
#1525=CARTESIAN_POINT('',(0.0371586192685027,0.0673,-0.0173273487313687));
#1526=CARTESIAN_POINT('',(0.0427779473450325,0.0673,-0.0255991775477987));
#1527=CARTESIAN_POINT('',(0.0303086737982126,0.0673,-0.0340699692542713));
#1528=CARTESIAN_POINT('',(0.0178394002513927,0.0673,-0.0425407609607438));
#1529=CARTESIAN_POINT('',(0.0138518158046897,0.0673,-0.0380575511418293));
#1530=CARTESIAN_POINT('',(0.0136789006210487,0.0673,-0.0440550589858647));
#1531=CARTESIAN_POINT('',(-0.0013180370423795,0.0673,-0.0455811506079911));
#1532=CARTESIAN_POINT('',(-0.0163149747058074,0.0673,-0.0471072422301175));
#1533=CARTESIAN_POINT('',(-0.0173273487313687,0.0673,-0.0371586192685026));
#1534=CARTESIAN_POINT('',(-0.0255991775477987,0.0673,-0.0427779473450325));
#1535=CARTESIAN_POINT('',(-0.0340699692542713,0.0673,-0.0303086737982126));
#1536=CARTESIAN_POINT('',(-0.042540760960744,0.0673,-0.0178394002513925));
#1537=CARTESIAN_POINT('',(-0.0380575511418294,0.0673,-0.0138518158046896));
#1538=CARTESIAN_POINT('',(-0.0440550589858647,0.0673,-0.0136789006210484));
#1539=CARTESIAN_POINT('',(-0.0455811506079911,0.0673,0.00131803704237952));
#1540=CARTESIAN_POINT('',(-0.0471072422301175,0.0673,0.0163149747058075));
#1541=CARTESIAN_POINT('',(-0.0371586192685027,0.0673,0.0173273487313687));
#1542=CARTESIAN_POINT('',(-0.0427779473450325,0.0673,0.0255991775477987));
#1543=CARTESIAN_POINT('',(-0.0303086737982127,0.0673,0.0340699692542713));
#1544=CARTESIAN_POINT('',(-0.0178394002513927,0.0673,0.0425407609607438));
#1545=CARTESIAN_POINT('',(-0.0138518158046897,0.0673,0.0380575511418293));
#1546=CARTESIAN_POINT('',(0.,0.0633,6.93889390390723E-18));
#1547=CARTESIAN_POINT('',(1.10328413072125E-15,0.0633,-5.01475960793947E-16));
#1548=CARTESIAN_POINT('',(-0.00867995069280947,0.0633,0.0319541249511954));
#1549=CARTESIAN_POINT('',(0.00997334359538916,0.0633,0.0315743576807916));
#1550=CARTESIAN_POINT('',(0.0103382721051552,0.0633,0.0327759566620693));
#1551=CARTESIAN_POINT('',(0.0114589368879801,0.0633,0.0333426341484614));
#1552=CARTESIAN_POINT('',(0.0173273487313687,0.0633,0.0371586192685026));
#1553=CARTESIAN_POINT('',(0.0181762769566048,0.0633,0.0302102870320305));
#1554=CARTESIAN_POINT('',(0.0184625262541254,0.0633,0.0289875547356073));
#1555=CARTESIAN_POINT('',(0.0177766195561593,0.0633,0.027935630341588));
#1556=CARTESIAN_POINT('',(1.10328413072125E-15,0.0633,-5.01475960793947E-16));
#1557=CARTESIAN_POINT('',(0.0300576446116207,0.0633,0.0138904876022343));
#1558=CARTESIAN_POINT('',(0.0380575511418294,0.0633,0.0138518158046896));
#1559=CARTESIAN_POINT('',(0.039973084068167,0.0633,0.0216191019207095));
#1560=CARTESIAN_POINT('',(0.0340699692542713,0.0633,0.0303086737982126));
#1561=CARTESIAN_POINT('',(0.0255991775477988,0.0633,0.0427779473450325));
#1562=CARTESIAN_POINT('',(0.0173273487313687,0.0633,0.0371586192685026));
#1563=CARTESIAN_POINT('',(0.0163149747058074,0.0633,0.0471072422301175));
#1564=CARTESIAN_POINT('',(0.00131803704237948,0.0633,0.0455811506079911));
#1565=CARTESIAN_POINT('',(-0.00913301026839395,0.0633,0.0445176497719296));
#1566=CARTESIAN_POINT('',(-0.0138518158046897,0.0633,0.0380575511418293));
#1567=CARTESIAN_POINT('',(0.,0.0633,6.93889390390723E-18));
#1568=CARTESIAN_POINT('',(-0.0184625262541232,0.0633,-0.0289875547356083));
#1569=CARTESIAN_POINT('',(-0.0177766195561571,0.0633,-0.0279356303415891));
#1570=CARTESIAN_POINT('',(-0.0181762769566024,0.0633,-0.0302102870320303));
#1571=CARTESIAN_POINT('',(1.10328413072125E-15,0.0633,-5.01475960793947E-16));
#1572=CARTESIAN_POINT('',(-0.0300576446116207,0.0633,-0.0138904876022305));
#1573=CARTESIAN_POINT('',(-0.0380575511418294,0.0633,-0.0138518158046896));
#1574=CARTESIAN_POINT('',(-0.039973084068167,0.0633,-0.0216191019207095));
#1575=CARTESIAN_POINT('',(-0.0340699692542713,0.0633,-0.0303086737982126));
#1576=CARTESIAN_POINT('',(-0.0255991775477987,0.0633,-0.0427779473450325));
#1577=CARTESIAN_POINT('',(-0.0173273487313687,0.0633,-0.0371586192685026));
#1578=CARTESIAN_POINT('',(-0.0163149747058074,0.0633,-0.0471072422301175));
#1579=CARTESIAN_POINT('',(-0.0013180370423795,0.0633,-0.0455811506079911));
#1580=CARTESIAN_POINT('',(0.00913301026839393,0.0633,-0.0445176497719296));
#1581=CARTESIAN_POINT('',(0.0138518158046897,0.0633,-0.0380575511418293));
#1582=CARTESIAN_POINT('',(0.00867995069280669,0.0633,-0.0319541249511978));
#1583=CARTESIAN_POINT('',(1.10328413072125E-15,0.0633,-5.01475960793947E-16));
#1584=CARTESIAN_POINT('',(-0.00997334359538696,0.0633,-0.0315743576807926));
#1585=CARTESIAN_POINT('',(-0.010338272105153,0.0633,-0.0327759566620703));
#1586=CARTESIAN_POINT('',(-0.0114589368879787,0.0633,-0.0333426341484633));
#1587=CARTESIAN_POINT('',(-0.0173273487313686,0.0633,-0.0371586192685027));
#1588=CARTESIAN_POINT('',(0.,0.0633,6.93889390390723E-18));
#1589=CARTESIAN_POINT('',(-0.0289875547356067,0.0633,0.0184625262541238));
#1590=CARTESIAN_POINT('',(-0.0279356303415874,0.0633,0.0177766195561577));
#1591=CARTESIAN_POINT('',(-0.0302102870320305,0.0633,0.0181762769566036));
#1592=CARTESIAN_POINT('',(1.10328413072125E-15,0.0633,-5.01475960793947E-16));
#1593=CARTESIAN_POINT('',(-0.0138904876022304,0.0633,0.0300576446116207));
#1594=CARTESIAN_POINT('',(-0.0138518158046897,0.0633,0.0380575511418293));
#1595=CARTESIAN_POINT('',(-0.0216191019207096,0.0633,0.0399730840681669));
#1596=CARTESIAN_POINT('',(-0.0303086737982127,0.0633,0.0340699692542713));
#1597=CARTESIAN_POINT('',(-0.0427779473450325,0.0633,0.0255991775477987));
#1598=CARTESIAN_POINT('',(-0.0371586192685027,0.0633,0.0173273487313687));
#1599=CARTESIAN_POINT('',(-0.0471072422301175,0.0633,0.0163149747058075));
#1600=CARTESIAN_POINT('',(-0.0455811506079911,0.0633,0.00131803704237952));
#1601=CARTESIAN_POINT('',(-0.0445176497719296,0.0633,-0.00913301026839376));
#1602=CARTESIAN_POINT('',(-0.0380575511418294,0.0633,-0.0138518158046896));
#1603=CARTESIAN_POINT('',(-0.0319541249511952,0.0633,-0.00867995069280968));
#1604=CARTESIAN_POINT('',(1.10328413072125E-15,0.0633,-5.01475960793947E-16));
#1605=CARTESIAN_POINT('',(-0.031574357680791,0.0633,0.00997334359538755));
#1606=CARTESIAN_POINT('',(-0.0327759566620687,0.0633,0.0103382721051536));
#1607=CARTESIAN_POINT('',(-0.0333426341484624,0.0633,0.0114589368879794));
#1608=CARTESIAN_POINT('',(-0.0371586192685027,0.0633,0.0173273487313687));
#1609=CARTESIAN_POINT('',(0.,0.0633,6.93889390390723E-18));
#1610=CARTESIAN_POINT('',(0.0289875547356089,0.0633,-0.0184625262541248));
#1611=CARTESIAN_POINT('',(0.0279356303415896,0.0633,-0.0177766195561587));
#1612=CARTESIAN_POINT('',(0.0302102870320304,0.0633,-0.0181762769566036));
#1613=CARTESIAN_POINT('',(1.10328413072125E-15,0.0633,-5.01475960793947E-16));
#1614=CARTESIAN_POINT('',(0.0138904876022345,0.0633,-0.0300576446116211));
#1615=CARTESIAN_POINT('',(0.0138518158046897,0.0633,-0.0380575511418293));
#1616=CARTESIAN_POINT('',(0.0216191019207096,0.0633,-0.0399730840681669));
#1617=CARTESIAN_POINT('',(0.0303086737982126,0.0633,-0.0340699692542713));
#1618=CARTESIAN_POINT('',(0.0427779473450325,0.0633,-0.0255991775477987));
#1619=CARTESIAN_POINT('',(0.0371586192685027,0.0633,-0.0173273487313687));
#1620=CARTESIAN_POINT('',(0.0471072422301175,0.0633,-0.0163149747058075));
#1621=CARTESIAN_POINT('',(0.0455811506079911,0.0633,-0.00131803704237952));
#1622=CARTESIAN_POINT('',(0.0445176497719296,0.0633,0.00913301026839376));
#1623=CARTESIAN_POINT('',(0.0380575511418294,0.0633,0.0138518158046896));
#1624=CARTESIAN_POINT('',(0.0319541249511981,0.0633,0.00867995069280627));
#1625=CARTESIAN_POINT('',(1.10328413072125E-15,0.0633,-5.01475960793947E-16));
#1626=CARTESIAN_POINT('',(0.0315743576807932,0.0633,-0.00997334359538855));
#1627=CARTESIAN_POINT('',(0.0327759566620709,0.0633,-0.0103382721051546));
#1628=CARTESIAN_POINT('',(0.0333426341484624,0.0633,-0.0114589368879794));
#1629=CARTESIAN_POINT('',(0.0371586192685026,0.0633,-0.0173273487313687));
#1630=CARTESIAN_POINT('',(0.0371586192685026,0.0673,-0.0173273487313687));
#1631=CARTESIAN_POINT('',(0.0302102870320304,0.0673,-0.0181762769566036));
#1632=CARTESIAN_POINT('',(0.0333426341484624,0.0673,-0.0114589368879794));
#1633=CARTESIAN_POINT('',(0.0173273487313687,0.0673,0.0371586192685026));
#1634=CARTESIAN_POINT('',(0.0114589368879801,0.0673,0.0333426341484614));
#1635=CARTESIAN_POINT('',(0.0181762769566048,0.0673,0.0302102870320305));
#1636=CARTESIAN_POINT('',(-0.0173273487313686,0.0673,-0.0371586192685027));
#1637=CARTESIAN_POINT('',(-0.0114589368879787,0.0673,-0.0333426341484633));
#1638=CARTESIAN_POINT('',(-0.0181762769566024,0.0673,-0.0302102870320303));
#1639=CARTESIAN_POINT('',(-0.0371586192685027,0.0673,0.0173273487313687));
#1640=CARTESIAN_POINT('',(-0.0333426341484624,0.0673,0.0114589368879794));
#1641=CARTESIAN_POINT('',(-0.0302102870320305,0.0673,0.0181762769566036));
#1642=CARTESIAN_POINT('',(1.10328413072125E-15,0.0423,-5.01475960793947E-16));
#1643=CARTESIAN_POINT('',(-0.0177766195561571,0.0423,-0.0279356303415891));
#1644=CARTESIAN_POINT('',(-0.031574357680791,0.0423,0.00997334359538755));
#1645=CARTESIAN_POINT('',(-0.0300576446116208,0.0633000000000002,-0.0138904876022305));
#1646=CARTESIAN_POINT('',(-0.0304463917324296,0.0633000000000002,-0.0130492771900644));
#1647=CARTESIAN_POINT('',(-0.0311509044892912,0.0631080959598229,-0.0113400158713704));
#1648=CARTESIAN_POINT('',(-0.0317115821794833,0.0633,-0.0095728407917954));
#1649=CARTESIAN_POINT('',(-0.0319541249511952,0.0633,-0.00867995069280969));
#1650=CARTESIAN_POINT('',(1.10328413072125E-15,0.0423,-5.01475960793947E-16));
#1651=CARTESIAN_POINT('',(0.0279356303415896,0.0423,-0.0177766195561587));
#1652=CARTESIAN_POINT('',(-0.00997334359538696,0.0423,-0.0315743576807926));
#1653=CARTESIAN_POINT('',(0.0138904876022344,0.0633,-0.0300576446116209));
#1654=CARTESIAN_POINT('',(0.0130496915464889,0.0633,-0.0304462002466098));
#1655=CARTESIAN_POINT('',(0.0113398489910504,0.0631080959613081,-0.0311509852286062));
#1656=CARTESIAN_POINT('',(0.00957284805830282,0.0633,-0.0317115802056265));
#1657=CARTESIAN_POINT('',(0.00867995069280669,0.0633,-0.0319541249511978));
#1658=CARTESIAN_POINT('',(1.10328413072125E-15,0.0423,-5.01475960793947E-16));
#1659=CARTESIAN_POINT('',(0.0315743576807932,0.0423,-0.00997334359538856));
#1660=CARTESIAN_POINT('',(0.0300576446116208,0.0633000000000002,0.0138904876022343));
#1661=CARTESIAN_POINT('',(0.0304463917324303,0.0633000000000002,0.013049277190067));
#1662=CARTESIAN_POINT('',(0.0311509044892931,0.0631080959598218,0.0113400158713707));
#1663=CARTESIAN_POINT('',(0.0317115821794859,0.0633,0.00957284079179326));
#1664=CARTESIAN_POINT('',(0.0319541249511981,0.0633,0.00867995069280627));
#1665=CARTESIAN_POINT('',(0.0177766195561593,0.0423,0.027935630341588));
#1666=CARTESIAN_POINT('',(0.0380575511418293,0.0673,0.0138518158046896));
#1667=CARTESIAN_POINT('',(0.0380575511418293,0.0553,0.0138518158046896));
#1668=CARTESIAN_POINT('',(0.0380575511418293,0.0553,0.0160018158046896));
#1669=CARTESIAN_POINT('',(0.0380575511418293,0.0623,0.0138518158046896));
#1670=CARTESIAN_POINT('',(0.0380575511418293,0.0623,0.0160018158046896));
#1671=CARTESIAN_POINT('',(0.0138518158046897,0.0673,-0.0380575511418293));
#1672=CARTESIAN_POINT('',(0.0138518158046896,0.0553,-0.0380575511418293));
#1673=CARTESIAN_POINT('',(0.0138518158046896,0.0553,-0.0359075511418293));
#1674=CARTESIAN_POINT('',(0.0138518158046897,0.0623,-0.0380575511418293));
#1675=CARTESIAN_POINT('',(0.0122048202519839,0.0623,-0.0394395445026553));
#1676=CARTESIAN_POINT('',(-0.0138518158046897,0.0673,0.0380575511418293));
#1677=CARTESIAN_POINT('',(-0.0138518158046896,0.0553,0.0380575511418293));
#1678=CARTESIAN_POINT('',(-0.0138518158046896,0.0553,0.0402075511418293));
#1679=CARTESIAN_POINT('',(-0.0138518158046897,0.0623,0.0380575511418293));
#1680=CARTESIAN_POINT('',(-0.0122048202519839,0.0623,0.0394395445026553));
#1681=CARTESIAN_POINT('',(-0.0380575511418293,0.0673,-0.0138518158046896));
#1682=CARTESIAN_POINT('',(-0.0380575511418293,0.0553,-0.0138518158046896));
#1683=CARTESIAN_POINT('',(-0.0380575511418293,0.0553,-0.0117018158046896));
#1684=CARTESIAN_POINT('',(-0.0380575511418293,0.0623,-0.0138518158046896));
#1685=CARTESIAN_POINT('',(-0.0380575511418293,0.0623,-0.0160018158046896));
#1686=CARTESIAN_POINT('',(0.0173273487313687,0.0673,0.0371586192685026));
#1687=CARTESIAN_POINT('',(0.0255991775477988,0.0673,0.0427779473450325));
#1688=CARTESIAN_POINT('',(0.0163149747058074,0.0673,0.0471072422301175));
#1689=CARTESIAN_POINT('',(0.0340699692542713,0.0673,0.0303086737982126));
#1690=CARTESIAN_POINT('',(0.039973084068167,0.0633,0.0216191019207095));
#1691=CARTESIAN_POINT('',(0.0402161687726411,0.0633,0.0212612735405334));
#1692=CARTESIAN_POINT('',(0.0406911582996707,0.0631787967683962,0.0205620739202807));
#1693=CARTESIAN_POINT('',(0.0412651981855564,0.0628255466975052,0.0197170690362125));
#1694=CARTESIAN_POINT('',(0.0417039487172545,0.0624620598341584,0.0190712143642842));
#1695=CARTESIAN_POINT('',(0.0420225459065903,0.0621543765448273,0.0186022292159372));
#1696=CARTESIAN_POINT('',(0.0422796973761482,0.0618643839267515,0.0182236941122544));
#1697=CARTESIAN_POINT('',(0.0424652548336666,0.0615959931315994,0.0179505476607038));
#1698=CARTESIAN_POINT('',(0.0425407609607424,0.0614090519981636,0.0178394002513948));
#1699=CARTESIAN_POINT('',(0.0425407609607424,0.0613,0.0178394002513948));
#1700=CARTESIAN_POINT('',(0.042540760960744,0.0613,0.0178394002513925));
#1701=CARTESIAN_POINT('',(0.042540760960744,0.0673,0.0178394002513925));
#1702=CARTESIAN_POINT('',(0.0380575511418294,0.0673,0.0138518158046896));
#1703=CARTESIAN_POINT('',(0.0380575511418294,0.0613,0.0138518158046896));
#1704=CARTESIAN_POINT('',(0.0440550589858647,0.0613,0.0136789006210484));
#1705=CARTESIAN_POINT('',(0.0440550589858647,0.0673,0.0136789006210484));
#1706=CARTESIAN_POINT('',(0.0380575511418293,0.0553,0.0138518158046896));
#1707=CARTESIAN_POINT('',(0.0380575511418293,0.0553,0.0198518158046896));
#1708=CARTESIAN_POINT('',(0.0455811506079911,0.0673,-0.00131803704237952));
#1709=CARTESIAN_POINT('',(0.0440550589858647,0.0613,0.0136789006210484));
#1710=CARTESIAN_POINT('',(0.0440550589858647,0.0614106768675354,0.0136789006210484));
#1711=CARTESIAN_POINT('',(0.0440689495357277,0.0615985795851132,0.0135423978663088));
#1712=CARTESIAN_POINT('',(0.0441023638447921,0.0618662336974012,0.0132140346783842));
#1713=CARTESIAN_POINT('',(0.0441488497379138,0.0621568424364157,0.0127572167316328));
#1714=CARTESIAN_POINT('',(0.0442059124679201,0.062462395182527,0.0121964599642134));
#1715=CARTESIAN_POINT('',(0.0442844287374308,0.0628236933131719,0.011424878767944));
#1716=CARTESIAN_POINT('',(0.0443880594706809,0.063178425718909,0.0104064971557037));
#1717=CARTESIAN_POINT('',(0.0444737329076403,0.0633,0.00956458230939801));
#1718=CARTESIAN_POINT('',(0.0445176497719296,0.0633,0.00913301026839376));
#1719=CARTESIAN_POINT('',(0.0471072422301175,0.0673,-0.0163149747058075));
#1720=CARTESIAN_POINT('',(0.0371586192685027,0.0673,-0.0173273487313687));
#1721=CARTESIAN_POINT('',(0.0427779473450325,0.0673,-0.0255991775477987));
#1722=CARTESIAN_POINT('',(-0.0173273487313687,0.0673,-0.0371586192685026));
#1723=CARTESIAN_POINT('',(-0.0255991775477987,0.0673,-0.0427779473450325));
#1724=CARTESIAN_POINT('',(-0.0163149747058074,0.0673,-0.0471072422301175));
#1725=CARTESIAN_POINT('',(-0.0013180370423795,0.0673,-0.0455811506079911));
#1726=CARTESIAN_POINT('',(0.0136789006210487,0.0673,-0.0440550589858647));
#1727=CARTESIAN_POINT('',(0.0136789006210487,0.0613,-0.0440550589858647));
#1728=CARTESIAN_POINT('',(0.0136789006210487,0.0613,-0.0440550589858646));
#1729=CARTESIAN_POINT('',(0.0136789006210487,0.0614106768675354,-0.0440550589858646));
#1730=CARTESIAN_POINT('',(0.0135423978663093,0.0615985795851133,-0.0440689495357277));
#1731=CARTESIAN_POINT('',(0.0132140346783845,0.0618662336974012,-0.0441023638447921));
#1732=CARTESIAN_POINT('',(0.0127572167316331,0.0621568424364157,-0.0441488497379138));
#1733=CARTESIAN_POINT('',(0.0121964599642136,0.062462395182527,-0.0442059124679201));
#1734=CARTESIAN_POINT('',(0.0114248787679443,0.0628236933131719,-0.0442844287374308));
#1735=CARTESIAN_POINT('',(0.0104064971557039,0.0631784257189089,-0.0443880594706809));
#1736=CARTESIAN_POINT('',(0.00956458230939821,0.0633,-0.0444737329076403));
#1737=CARTESIAN_POINT('',(0.00913301026839394,0.0633,-0.0445176497719296));
#1738=CARTESIAN_POINT('',(0.0138518158046897,0.0673,-0.0380575511418293));
#1739=CARTESIAN_POINT('',(0.0178394002513927,0.0673,-0.0425407609607438));
#1740=CARTESIAN_POINT('',(0.0178394002513927,0.0613,-0.0425407609607438));
#1741=CARTESIAN_POINT('',(0.0138518158046897,0.0613,-0.0380575511418293));
#1742=CARTESIAN_POINT('',(0.0138518158046896,0.0553,-0.0380575511418293));
#1743=CARTESIAN_POINT('',(0.0138518158046896,0.0553,-0.0320575511418293));
#1744=CARTESIAN_POINT('',(0.0303086737982126,0.0673,-0.0340699692542713));
#1745=CARTESIAN_POINT('',(0.0216191019207096,0.0633,-0.0399730840681669));
#1746=CARTESIAN_POINT('',(0.0212612735405336,0.0633,-0.040216168772641));
#1747=CARTESIAN_POINT('',(0.0205620739202808,0.0631787967683962,-0.0406911582996706));
#1748=CARTESIAN_POINT('',(0.0197170690362127,0.0628255466975052,-0.0412651981855562));
#1749=CARTESIAN_POINT('',(0.0190712143642844,0.0624620598341584,-0.0417039487172544));
#1750=CARTESIAN_POINT('',(0.0186022292159374,0.0621543765448273,-0.0420225459065902));
#1751=CARTESIAN_POINT('',(0.0182236941122546,0.0618643839267516,-0.0422796973761481));
#1752=CARTESIAN_POINT('',(0.017950547660704,0.0615959931315993,-0.0424652548336663));
#1753=CARTESIAN_POINT('',(0.0178394002513951,0.0614090519981636,-0.0425407609607422));
#1754=CARTESIAN_POINT('',(0.0178394002513951,0.0613,-0.0425407609607422));
#1755=CARTESIAN_POINT('',(0.00131803704237948,0.0673,0.0455811506079911));
#1756=CARTESIAN_POINT('',(-0.0136789006210487,0.0673,0.0440550589858646));
#1757=CARTESIAN_POINT('',(-0.0136789006210487,0.0613,0.0440550589858646));
#1758=CARTESIAN_POINT('',(-0.0136789006210487,0.0613,0.0440550589858646));
#1759=CARTESIAN_POINT('',(-0.0136789006210487,0.0614106768675354,0.0440550589858646));
#1760=CARTESIAN_POINT('',(-0.0135423978663092,0.0615985795851133,0.0440689495357277));
#1761=CARTESIAN_POINT('',(-0.0132140346783845,0.0618662336974013,0.0441023638447921));
#1762=CARTESIAN_POINT('',(-0.0127572167316331,0.0621568424364157,0.0441488497379138));
#1763=CARTESIAN_POINT('',(-0.0121964599642136,0.062462395182527,0.0442059124679201));
#1764=CARTESIAN_POINT('',(-0.0114248787679443,0.0628236933131719,0.0442844287374308));
#1765=CARTESIAN_POINT('',(-0.0104064971557039,0.063178425718909,0.0443880594706809));
#1766=CARTESIAN_POINT('',(-0.00956458230939821,0.0633,0.0444737329076403));
#1767=CARTESIAN_POINT('',(-0.00913301026839395,0.0633,0.0445176497719296));
#1768=CARTESIAN_POINT('',(-0.0138518158046897,0.0673,0.0380575511418293));
#1769=CARTESIAN_POINT('',(-0.0178394002513927,0.0673,0.0425407609607438));
#1770=CARTESIAN_POINT('',(-0.0178394002513927,0.0613,0.0425407609607438));
#1771=CARTESIAN_POINT('',(-0.0138518158046897,0.0613,0.0380575511418293));
#1772=CARTESIAN_POINT('',(-0.0138518158046896,0.0553,0.0380575511418293));
#1773=CARTESIAN_POINT('',(-0.0138518158046896,0.0553,0.0440575511418293));
#1774=CARTESIAN_POINT('',(-0.0303086737982127,0.0673,0.0340699692542713));
#1775=CARTESIAN_POINT('',(-0.0216191019207096,0.0633,0.0399730840681669));
#1776=CARTESIAN_POINT('',(-0.0212612735405336,0.0633,0.040216168772641));
#1777=CARTESIAN_POINT('',(-0.0205620739202809,0.0631787967683962,0.0406911582996706));
#1778=CARTESIAN_POINT('',(-0.0197170690362127,0.0628255466975052,0.0412651981855562));
#1779=CARTESIAN_POINT('',(-0.0190712143642844,0.0624620598341584,0.0417039487172544));
#1780=CARTESIAN_POINT('',(-0.0186022292159374,0.0621543765448273,0.0420225459065902));
#1781=CARTESIAN_POINT('',(-0.0182236941122547,0.0618643839267516,0.0422796973761481));
#1782=CARTESIAN_POINT('',(-0.017950547660704,0.0615959931315994,0.0424652548336664));
#1783=CARTESIAN_POINT('',(-0.0178394002513951,0.0614090519981636,0.0425407609607423));
#1784=CARTESIAN_POINT('',(-0.0178394002513951,0.0613,0.0425407609607423));
#1785=CARTESIAN_POINT('',(-0.0427779473450325,0.0673,0.0255991775477987));
#1786=CARTESIAN_POINT('',(-0.0371586192685027,0.0673,0.0173273487313687));
#1787=CARTESIAN_POINT('',(-0.0471072422301175,0.0673,0.0163149747058075));
#1788=CARTESIAN_POINT('',(-0.0340699692542713,0.0673,-0.0303086737982126));
#1789=CARTESIAN_POINT('',(-0.039973084068167,0.0633,-0.0216191019207095));
#1790=CARTESIAN_POINT('',(-0.0402161687726411,0.0633,-0.0212612735405334));
#1791=CARTESIAN_POINT('',(-0.0406911582996707,0.0631787967683962,-0.0205620739202807));
#1792=CARTESIAN_POINT('',(-0.0412651981855563,0.0628255466975052,-0.0197170690362125));
#1793=CARTESIAN_POINT('',(-0.0417039487172545,0.0624620598341584,-0.0190712143642842));
#1794=CARTESIAN_POINT('',(-0.0420225459065903,0.0621543765448274,-0.0186022292159372));
#1795=CARTESIAN_POINT('',(-0.0422796973761482,0.0618643839267515,-0.0182236941122544));
#1796=CARTESIAN_POINT('',(-0.0424652548336665,0.0615959931315994,-0.0179505476607038));
#1797=CARTESIAN_POINT('',(-0.0425407609607424,0.0614090519981636,-0.0178394002513949));
#1798=CARTESIAN_POINT('',(-0.0425407609607424,0.0613,-0.0178394002513949));
#1799=CARTESIAN_POINT('',(-0.042540760960744,0.0613,-0.0178394002513925));
#1800=CARTESIAN_POINT('',(-0.042540760960744,0.0673,-0.0178394002513925));
#1801=CARTESIAN_POINT('',(-0.0380575511418294,0.0673,-0.0138518158046896));
#1802=CARTESIAN_POINT('',(-0.0380575511418294,0.0613,-0.0138518158046896));
#1803=CARTESIAN_POINT('',(-0.0440550589858647,0.0613,-0.0136789006210484));
#1804=CARTESIAN_POINT('',(-0.0440550589858647,0.0673,-0.0136789006210484));
#1805=CARTESIAN_POINT('',(-0.0380575511418293,0.0553,-0.0138518158046896));
#1806=CARTESIAN_POINT('',(-0.0380575511418293,0.0553,-0.00785181580468958));
#1807=CARTESIAN_POINT('',(-0.0455811506079911,0.0673,0.00131803704237952));
#1808=CARTESIAN_POINT('',(-0.0440550589858647,0.0613,-0.0136789006210484));
#1809=CARTESIAN_POINT('',(-0.0440550589858647,0.0614106768675354,-0.0136789006210484));
#1810=CARTESIAN_POINT('',(-0.0440689495357277,0.0615985795851132,-0.0135423978663088));
#1811=CARTESIAN_POINT('',(-0.0441023638447921,0.0618662336974013,-0.0132140346783843));
#1812=CARTESIAN_POINT('',(-0.0441488497379138,0.0621568424364157,-0.0127572167316328));
#1813=CARTESIAN_POINT('',(-0.0442059124679201,0.062462395182527,-0.0121964599642134));
#1814=CARTESIAN_POINT('',(-0.0442844287374308,0.0628236933131719,-0.011424878767944));
#1815=CARTESIAN_POINT('',(-0.0443880594706809,0.063178425718909,-0.0104064971557037));
#1816=CARTESIAN_POINT('',(-0.0444737329076403,0.0633,-0.00956458230939801));
#1817=CARTESIAN_POINT('',(-0.0445176497719296,0.0633,-0.00913301026839376));
#1818=CARTESIAN_POINT('',(0.,0.0553,6.93889390390723E-18));
#1819=CARTESIAN_POINT('',(0.,0.0553,6.93889390390723E-18));
#1820=CARTESIAN_POINT('',(0.,0.0553,6.93889390390723E-18));
#1821=CARTESIAN_POINT('',(0.,0.0553,6.93889390390723E-18));
#1822=CARTESIAN_POINT('',(0.0380575511418294,0.0613,0.0138518158046896));
#1823=CARTESIAN_POINT('',(-0.0138518158046897,0.0613,0.0380575511418293));
#1824=CARTESIAN_POINT('',(-0.0138904876022304,0.0633,0.0300576446116207));
#1825=CARTESIAN_POINT('',(-0.0130496915464859,0.0633,0.0304462002466091));
#1826=CARTESIAN_POINT('',(-0.0113398489910496,0.0631080959613091,0.0311509852286046));
#1827=CARTESIAN_POINT('',(-0.00957284805830439,0.0633,0.0317115802056243));
#1828=CARTESIAN_POINT('',(-0.00867995069280947,0.0633,0.0319541249511954));
#1829=CARTESIAN_POINT('',(-0.0380575511418294,0.0613,-0.0138518158046896));
#1830=CARTESIAN_POINT('',(0.0138518158046897,0.0613,-0.0380575511418293));
#1831=CARTESIAN_POINT('',(-0.0380575511418293,0.0623,-0.0138518158046896));
#1832=CARTESIAN_POINT('',(-0.0380575511418293,0.0623,-0.0138518158046896));
#1833=CARTESIAN_POINT('',(-0.0380575511418293,0.0623,-0.0101018158046896));
#1834=CARTESIAN_POINT('',(6.93889390390723E-18,0.0623,0.));
#1835=CARTESIAN_POINT('',(-0.0138518158046897,0.0623,0.0380575511418293));
#1836=CARTESIAN_POINT('',(-0.0138518158046897,0.0623,0.0380575511418293));
#1837=CARTESIAN_POINT('',(-0.0138518158046897,0.0623,0.0418075511418293));
#1838=CARTESIAN_POINT('',(6.93889390390723E-18,0.0623,0.));
#1839=CARTESIAN_POINT('',(0.0138518158046897,0.0623,-0.0380575511418293));
#1840=CARTESIAN_POINT('',(0.0138518158046897,0.0623,-0.0380575511418293));
#1841=CARTESIAN_POINT('',(0.0138518158046897,0.0623,-0.0343075511418292));
#1842=CARTESIAN_POINT('',(6.93889390390723E-18,0.0623,0.));
#1843=CARTESIAN_POINT('',(0.0380575511418293,0.0623,0.0138518158046896));
#1844=CARTESIAN_POINT('',(0.0380575511418293,0.0623,0.0138518158046896));
#1845=CARTESIAN_POINT('',(0.0380575511418293,0.0623,0.0176018158046896));
#1846=CARTESIAN_POINT('',(6.93889390390723E-18,0.0623,0.));
#1847=CARTESIAN_POINT('',(1.10328413072125E-15,0.0423,-5.01475960793947E-16));
#1848=CARTESIAN_POINT('',(-0.0279356303415874,0.0423,0.0177766195561577));
#1849=CARTESIAN_POINT('',(0.00997334359538916,0.0423,0.0315743576807916));
#1850=CARTESIAN_POINT('',(0.0327759566620709,0.0423,-0.0103382721051546));
#1851=CARTESIAN_POINT('',(0.0289875547356089,0.0423,-0.0184625262541248));
#1852=CARTESIAN_POINT('',(-0.0327759566620687,0.0423,0.0103382721051536));
#1853=CARTESIAN_POINT('',(-0.0289875547356067,0.0423,0.0184625262541238));
#1854=CARTESIAN_POINT('',(-0.010338272105153,0.0423,-0.0327759566620703));
#1855=CARTESIAN_POINT('',(-0.0184625262541232,0.0423,-0.0289875547356083));
#1856=CARTESIAN_POINT('',(0.0184625262541254,0.0423,0.0289875547356073));
#1857=CARTESIAN_POINT('',(0.0103382721051552,0.0423,0.0327759566620693));
#1858=MECHANICAL_DESIGN_GEOMETRIC_PRESENTATION_REPRESENTATION('',(#999),
#1859);
#1859=(
GEOMETRIC_REPRESENTATION_CONTEXT(3)
GLOBAL_UNCERTAINTY_ASSIGNED_CONTEXT((#1860))
GLOBAL_UNIT_ASSIGNED_CONTEXT((#1863,#1862,#1861))
REPRESENTATION_CONTEXT('PG1 Carriage Male','TOP_LEVEL_ASSEMBLY_PART')
);
#1860=UNCERTAINTY_MEASURE_WITH_UNIT(LENGTH_MEASURE(2.E-5),#1863,
'DISTANCE_ACCURACY_VALUE','Maximum Tolerance applied to model');
#1861=(
NAMED_UNIT(*)
SI_UNIT($,.STERADIAN.)
SOLID_ANGLE_UNIT()
);
#1862=(
NAMED_UNIT(*)
PLANE_ANGLE_UNIT()
SI_UNIT($,.RADIAN.)
);
#1863=(
LENGTH_UNIT()
NAMED_UNIT(*)
SI_UNIT($,.METRE.)
);
#1864=PRODUCT_DEFINITION_SHAPE('','',#1865);
#1865=PRODUCT_DEFINITION('','',#1867,#1866);
#1866=PRODUCT_DEFINITION_CONTEXT('',#1873,'design');
#1867=PRODUCT_DEFINITION_FORMATION_WITH_SPECIFIED_SOURCE('','',#1869,
 .NOT_KNOWN.);
#1868=PRODUCT_RELATED_PRODUCT_CATEGORY('','',(#1869));
#1869=PRODUCT('PG1 Carriage Male','PG1 Carriage Male',
'PG1 Carriage Male',(#1871));
#1870=PRODUCT_CATEGORY('','');
#1871=PRODUCT_CONTEXT('',#1873,'mechanical');
#1872=APPLICATION_PROTOCOL_DEFINITION('international standard',
'ap242_managed_model_based_3d_engineering',2020,#1873);
#1873=APPLICATION_CONTEXT('managed model based 3d engineering');
ENDSEC;
END-ISO-10303-21;
